<svg xmlns="http://www.w3.org/2000/svg" viewBox="0 0 680.54 691.57"><defs><style>.cls-1,.cls-3{fill:#f0f3fb;}.cls-1,.cls-2{opacity:0.1;}.cls-3{opacity:0.2;}.cls-4{fill:#5b6eb2;}.cls-5{fill:#aac4f7;}.cls-6{fill:#f6b919;}.cls-7{fill:#fff;}.cls-8{fill:#f2f2fd;}.cls-11,.cls-13,.cls-19,.cls-33,.cls-37,.cls-41,.cls-46,.cls-48,.cls-9{fill:none;}.cls-19,.cls-37,.cls-9{stroke:#fff;}.cls-41,.cls-9{stroke-linecap:round;}.cls-9{stroke-linejoin:round;}.cls-13,.cls-41,.cls-9{stroke-width:2px;}.cls-10{fill:#aac7f7;}.cls-11,.cls-13{stroke:#a9b1f8;}.cls-11,.cls-13,.cls-19,.cls-33,.cls-37,.cls-41,.cls-46,.cls-48{stroke-miterlimit:10;}.cls-12{fill:#cbd0fb;}.cls-14{fill:#5b64b7;}.cls-15{fill:#a9b1f8;}.cls-16{fill:#2e325c;}.cls-17{fill:#444b89;}.cls-18{fill:#e4e7fd;}.cls-20{fill:#f2c6d4;}.cls-21{fill:#f8c1c4;}.cls-22{fill:#171848;}.cls-23{fill:#a65c2b;}.cls-24{fill:#111236;}.cls-25{fill:#c2793e;}.cls-26{fill:#3d3135;}.cls-27{fill:#ce9465;}.cls-28{fill:#e5b3c5;}.cls-29{fill:#e8baca;}.cls-30{fill:#293a73;}.cls-31{fill:#fb51a9;}.cls-32{fill:#fc74ba;}.cls-33{stroke:#6670a5;}.cls-34{fill:#deefff;}.cls-35{fill:#c2c6db;}.cls-36{fill:#4271a5;}.cls-37{stroke-width:5px;}.cls-38{fill:#95baf4;}.cls-39{fill:#bacef7;}.cls-40{fill:#cddef9;}.cls-41{stroke:#444b89;}.cls-42{fill:#51383d;}.cls-43{fill:#080924;}.cls-44{fill:#5b79b5;}.cls-45{fill:#c69152;}.cls-46{stroke:#5b64b7;}.cls-47{fill:#925b2f;}.cls-48{stroke:#333;}.cls-49{fill:#333;}.cls-50{fill:#9fa0b6;}.cls-51{fill:#cfcfda;}.cls-52{fill:#87a775;}.cls-53{fill:#95b8f4;}.cls-54{fill:#fd90c8;}</style></defs><g id="Layer_2" data-name="Layer 2"><g id="Layer_1-2" data-name="Layer 1"><rect class="cls-1" x="266.92" y="249.82" width="372.32" height="269.11"/><ellipse class="cls-2" cx="301.8" cy="659.54" rx="134.3" ry="32.02"/><rect class="cls-3" x="281" y="259.86" width="372.32" height="269.11"/><ellipse class="cls-2" cx="43.25" cy="475.83" rx="43.25" ry="16.5"/><ellipse class="cls-2" cx="612.66" cy="636.31" rx="43.25" ry="16.5"/><path class="cls-4" d="M471.78,475.83A81.86,81.86,0,1,1,553.64,394,81.95,81.95,0,0,1,471.78,475.83Zm0-143.93A62.08,62.08,0,1,0,533.86,394,62.15,62.15,0,0,0,471.78,331.9Z"/><circle class="cls-5" cx="471.79" cy="322.96" r="28.51" transform="translate(49.07 707.92) rotate(-76.72)"/><circle class="cls-6" cx="471.79" cy="465" r="28.51"/><circle class="cls-7" cx="542.81" cy="393.75" r="28.51" transform="translate(34.88 831.57) rotate(-76.72)"/><circle class="cls-8" cx="400.76" cy="393.98" r="28.51" transform="translate(-85.79 675.22) rotate(-74.54)"/><path class="cls-9" d="M511.22,378.1a42.64,42.64,0,0,0-23.56-23.56"/><path class="cls-9" d="M487.66,433.41a42.58,42.58,0,0,0,23.56-23.56"/><path class="cls-9" d="M432.35,409.86a42.63,42.63,0,0,0,23.56,23.55"/><path class="cls-9" d="M455.91,354.54a42.67,42.67,0,0,0-23.56,23.56"/><polyline class="cls-9" points="452.49 352.87 456.43 354.13 455.16 358.07"/><polyline class="cls-9" points="513.69 376.55 512.11 380.38 508.28 378.8"/><polyline class="cls-9" points="489.22 435.7 485.31 434.32 486.69 430.42"/><polyline class="cls-9" points="429.72 411 431.43 407.23 435.2 408.94"/><rect class="cls-10" x="531.12" y="393.44" width="4.25" height="14.95"/><rect class="cls-10" x="540.68" y="387.2" width="4.25" height="21.19"/><rect class="cls-10" x="551.51" y="381.35" width="4.25" height="27.05"/><line class="cls-11" x1="527.66" y1="388.74" x2="551.51" y2="374.63"/><polyline class="cls-11" points="548.99 373.7 551.92 374.24 551.38 377.17"/><rect class="cls-12" x="471.02" y="299.51" width="1.54" height="11"/><rect class="cls-12" x="471.02" y="334.38" width="1.54" height="11"/><rect class="cls-12" x="488.45" y="316.94" width="1.54" height="11" transform="translate(811.67 -166.78) rotate(90)"/><rect class="cls-12" x="453.58" y="316.94" width="1.54" height="11" transform="translate(776.79 -131.91) rotate(90)"/><path class="cls-7" d="M471.78,323h0a5.68,5.68,0,0,1-5.66-5.67v-3a5.68,5.68,0,0,1,5.66-5.67h0a5.68,5.68,0,0,1,5.67,5.67v3A5.68,5.68,0,0,1,471.78,323Z"/><rect class="cls-8" x="457.4" y="447.88" width="21.28" height="27.26"/><path class="cls-7" d="M468.29,321.78h7a7.76,7.76,0,0,1,7.76,7.76v6.09a0,0,0,0,1,0,0h-22.5a0,0,0,0,1,0,0v-6.09A7.76,7.76,0,0,1,468.29,321.78Z"/><line class="cls-13" x1="481.24" y1="477.38" x2="488.43" y2="483.35"/><rect class="cls-6" x="462" y="452.88" width="12.75" height="1.75"/><rect class="cls-6" x="462" y="459.76" width="12.75" height="1.75"/><rect class="cls-6" x="462" y="466.64" width="12.75" height="1.75"/><circle class="cls-13" cx="475.34" cy="472.51" r="7.63"/><rect class="cls-14" x="392.27" y="376.56" width="19.23" height="34.84" rx="2.42"/><rect class="cls-15" x="391.15" y="376.56" width="19.23" height="34.84" rx="2.42"/><rect class="cls-14" x="392.51" y="378.71" width="16.5" height="29.67"/><rect class="cls-14" x="399.91" y="409.3" width="1.5" height="1.04"/><rect class="cls-6" x="384.75" y="384.37" width="17.14" height="6.01"/><rect class="cls-6" x="400.44" y="395.94" width="17.14" height="6.01"/><polygon class="cls-6" points="397 389.63 398.75 393.98 393.32 389.63 397 389.63"/><polygon class="cls-6" points="407.02 401.28 401.41 405.63 403.34 401.28 407.02 401.28"/><rect class="cls-14" x="387.19" y="386.29" width="12.25" height="0.49"/><rect class="cls-14" x="387.19" y="387.8" width="12.25" height="0.49"/><rect class="cls-14" x="403.19" y="397.94" width="12.25" height="0.49"/><rect class="cls-14" x="403.19" y="399.45" width="9.39" height="0.49"/><rect class="cls-16" x="128.72" y="79.87" width="183.9" height="361.62" rx="15.73"/><rect class="cls-17" x="117.9" y="79.87" width="183.9" height="361.62" rx="15.73"/><path d="M123.31,108.46V417.54H297.17V108.46ZM295.62,416H124.85V110H295.62Z"/><rect class="cls-7" x="124.85" y="108.46" width="172.31" height="307.53"/><path class="cls-16" d="M214.32,432.61H200a3.66,3.66,0,0,1-3.66-3.67h0a3.66,3.66,0,0,1,3.66-3.66h14.34a3.66,3.66,0,0,1,3.66,3.66h0A3.66,3.66,0,0,1,214.32,432.61Z"/><rect class="cls-18" x="128.72" y="377.44" width="164.78" height="34.44"/><rect class="cls-7" x="139" y="384.37" width="21.5" height="4.76"/><rect class="cls-7" x="139" y="392.28" width="21.5" height="4.76"/><rect class="cls-7" x="139" y="400.19" width="21.5" height="4.76"/><polygon class="cls-7" points="195 404.95 173.5 404.95 173.5 389.13 184.25 384.37 195 389.13 195 404.95"/><rect class="cls-18" x="183.12" y="392.66" width="2.38" height="4.76"/><polygon class="cls-7" points="217.99 383.64 221.51 390.78 229.38 391.93 223.68 397.48 225.03 405.33 217.99 401.62 210.94 405.33 212.29 397.48 206.59 391.93 214.46 390.78 217.99 383.64"/><path class="cls-7" d="M243.63,390.45h10.31a2.81,2.81,0,0,1,2.81,2.81V405a0,0,0,0,1,0,0H240.81a0,0,0,0,1,0,0V393.26A2.81,2.81,0,0,1,243.63,390.45Z"/><path class="cls-19" d="M244.66,392.2v-3.05c0-2.66,1.86-4.81,4.16-4.81h0c2.29,0,4.15,2.15,4.15,4.81v3.05"/><circle class="cls-18" cx="248.78" cy="397.42" r="1.59"/><path class="cls-7" d="M275.87,395.07h0a4.52,4.52,0,0,1-4.51-4.51v-2.39a4.52,4.52,0,0,1,4.51-4.51h0a4.52,4.52,0,0,1,4.51,4.51v2.39A4.52,4.52,0,0,1,275.87,395.07Z"/><path class="cls-7" d="M273.09,394.14h5.56a6.17,6.17,0,0,1,6.17,6.17v4.85a0,0,0,0,1,0,0h-17.9a0,0,0,0,1,0,0v-4.85A6.17,6.17,0,0,1,273.09,394.14Z"/><path class="cls-20" d="M130,245.79l-1-3.69s9.33-12.33,11.19-11.58c0,0,.91.61-1.36,2.77h0l0,0a1.36,1.36,0,0,0-.23.3l0,0a19.75,19.75,0,0,0-2,3.37.91.91,0,0,1,1.06,1.48l-.2.15a1.79,1.79,0,0,1,.14.13.92.92,0,0,1-.18,1.29l-.31.23a.92.92,0,0,1-.23,1.18l-2.47,1.95s-.09,0-.14.07a4.86,4.86,0,0,1-2.19,1.42Z"/><path class="cls-21" d="M98.25,354.63a1.85,1.85,0,0,1,.49.62.67.67,0,0,1-.13.74.41.41,0,0,1-.64-.18c-.34.09-.25.6-.09.9l.78,1.46a1.76,1.76,0,0,1,.27.72.63.63,0,0,1-.34.64c-.23.1-.45,0-.62-.3-.31.11,0,.42,0,.74s-.06.83-.39.82-.46-.38-.55-.61c-.38.2.46,1-.32,1.34-.11.11-.3,0-.41-.09s-.18-.27-.33-.3-.34.1-.23.3a.51.51,0,0,1-.3.79c-.42.12-.68-.23-1-.57a10.33,10.33,0,0,1-.92-1.89,30.33,30.33,0,0,0-2.51-4.48,23.62,23.62,0,0,1,4.09-2.45C96.34,352.57,97.45,353.9,98.25,354.63Z"/><path class="cls-22" d="M61.51,330.19s5.11-.16,6.61-1.5V304.53L64.18,269.4l-2.67,47.54Z"/><path class="cls-22" d="M52.61,468.21a15.72,15.72,0,0,0-2.32,5.14l-.13,2.58,3.54.66L55,474.78h0a7.46,7.46,0,0,0,4.63,2.91l4,.74s5.79-.82,3.73-3.39c0,0-6.38-1.05-9.25-5.81Z"/><polygon class="cls-23" points="62.52 320.36 62.52 339.62 70.5 400.24 60 469.68 50.13 468.19 51.08 405.27 43.25 336.33 46.07 318 62.52 320.36"/><path class="cls-22" d="M22.48,466.91a15.73,15.73,0,0,0-3.59,4.34l-.81,2.45,3.24,1.58L23,473.86h0a7.49,7.49,0,0,0,3.7,4l3.65,1.77s5.8.73,4.5-2.29c0,0-5.88-2.69-7.39-8.05Z"/><path class="cls-24" d="M64,260.63s9.11,3.15,8.36,11.55,4,42.54,4,42.54l21,37L90,356.47l-25-38Z"/><path class="cls-25" d="M28.21,314.72l-2.36,9.15a87.16,87.16,0,0,0-.8,40.15l9.74,45.15s-12.22,23-14.1,57.8l7.82,2.71L54.06,404l-2.6-59.43,2.78-25.29Z"/><path class="cls-7" d="M52.79,259,57,257.65l7,3-.94,60.94A11.54,11.54,0,0,1,56,322.82Z"/><path class="cls-22" d="M59.92,275.33l-.66,8.55-3.59,46.93a89.93,89.93,0,0,1-19.24-1.21c-8.28-1.48-17-4.62-21.47-11.1l20.54-48a11.68,11.68,0,0,1,3.89-4.75L52.79,259Z"/><path class="cls-24" d="M59.26,283.88l-3.59,46.93a89.93,89.93,0,0,1-19.24-1.21c13.78-10.43,16.35-43.41,16.35-43.41Z"/><path class="cls-22" d="M51.42,269l45.16,1.32,32.3-30.72,5.77,5.77S103.41,284,95.53,285.84s-45.69,3.41-45.69,3.41"/><path class="cls-20" d="M64.89,254.55,64.53,257l-.6,4.05a4,4,0,0,1-2.57,1.79c-1.35.22-3.22-.37-5.56-3.22l2.34-9,1-3.65Z"/><path class="cls-20" d="M71.86,253.35A13.43,13.43,0,0,0,75.17,244c0-1.78-.51-3.73-2-4.76a6.73,6.73,0,0,0-3.25-1,14.48,14.48,0,0,0-6.55.48,10.19,10.19,0,0,0-5.34,5.12,17.51,17.51,0,0,0-1.58,7.35,6.76,6.76,0,0,0,1.24,4.69c1.9,2.15,4.28,1.21,6.63.9A11.48,11.48,0,0,0,71.86,253.35Z"/><path class="cls-26" d="M71.66,243.29c-1.72.52-3.65.22-5.26,1-2.2,1.07-3.05,3.7-3.69,6.06-.34.33-.81-.31-.76-.78s.18-1.1-.25-1.31-.89.35-1.09.83c-1.55,3.75-3.67,7.63-7.33,9.38-1.72.82-3.66,1.11-5.33,2-1.41.76-2.58,1.92-4,2.56-2.24,1-4.82.63-7.21.11a60.91,60.91,0,0,1-7-2,5.52,5.52,0,0,1-2.49-1.41,4.77,4.77,0,0,1-1-2.34A13.11,13.11,0,0,1,28.9,247c1.88-2.33,4.53-4,6.22-6.43,1.43-2.09,2.18-4.76,4.25-6.22a8.82,8.82,0,0,1,4.87-1.28,25.24,25.24,0,0,1,9,1.38,13.44,13.44,0,0,0,4.18,1.08c1.93,0,3.7-1,5.53-1.57a10.39,10.39,0,0,1,6.61-.1,7.34,7.34,0,0,1,4.5,4.58c1.79-1.23,1.66,1,1.06,1.93A6.3,6.3,0,0,1,71.66,243.29Z"/><path class="cls-27" d="M32.11,351.84v1.58a1,1,0,0,0,1.9,0v-1.58A1,1,0,0,0,32.11,351.84Z"/><path class="cls-27" d="M35.54,360.76c-.12-.63-.23-1.26-.34-1.89a.95.95,0,0,0-1.83.5l.34,1.9a1,1,0,0,0,1.16.66A1,1,0,0,0,35.54,360.76Z"/><path class="cls-27" d="M35,367v1.9a1,1,0,0,0,1.9,0V367A1,1,0,0,0,35,367Z"/><path class="cls-27" d="M38.42,376.24l-.63-1.58a1,1,0,0,0-1.16-.66,1,1,0,0,0-.67,1.17l.63,1.58a1,1,0,0,0,1.17.66A1,1,0,0,0,38.42,376.24Z"/><path class="cls-27" d="M40,384.15l-.36-2.21a1,1,0,0,0-1.16-.66,1,1,0,0,0-.66,1.17c.11.73.23,1.47.35,2.2a1,1,0,0,0,1.17.67A1,1,0,0,0,40,384.15Z"/><path class="cls-27" d="M40.88,390.23a1,1,0,1,0-1.64,1,2.34,2.34,0,0,1,.16,1.5,1,1,0,0,0,.67,1.16.94.94,0,0,0,1.16-.66A4.58,4.58,0,0,0,40.88,390.23Z"/><path class="cls-27" d="M41.94,399.94a1,1,0,0,0-1.83.51,6.36,6.36,0,0,1,.24,2.67,1,1,0,0,0,.66,1.17,1,1,0,0,0,1.16-.67A8.48,8.48,0,0,0,41.94,399.94Z"/><path class="cls-27" d="M40.65,407.49a1,1,0,0,0-.95.94c-.12.95-.24,1.9-.37,2.84a1,1,0,0,0,1,1,1,1,0,0,0,.95-1c.12-.94.25-1.89.37-2.84C41.67,407.93,41.12,407.49,40.65,407.49Z"/><path class="cls-27" d="M36.55,417.34c-.33,1.05-.65,2.1-1,3.15s1.46,1.67,1.83.51.65-2.1,1-3.15S36.92,416.18,36.55,417.34Z"/><path class="cls-27" d="M32.8,427.47,31.85,431a1,1,0,0,0,1.83.5c.32-1.15.64-2.31,1-3.47A1,1,0,0,0,32.8,427.47Z"/><path class="cls-27" d="M30.28,436.26a1,1,0,0,0-1,.95c-.11,1-.21,1.9-.31,2.85A1,1,0,0,0,30,441a1,1,0,0,0,1-.94l.3-2.85A1,1,0,0,0,30.28,436.26Z"/><path class="cls-27" d="M26.84,447.4l-.6,3.48c-.21,1.19,1.62,1.71,1.83.5l.6-3.48C28.88,446.71,27.05,446.19,26.84,447.4Z"/><path class="cls-27" d="M24.53,458.7v1.9a1,1,0,0,0,1.89,0v-1.9A1,1,0,0,0,24.53,458.7Z"/><path class="cls-27" d="M42.59,333.75c0,4.36-2.28,10.25-7.69,9.4-1.2-.19-1.71,1.64-.51,1.83,6.7,1.06,10.1-5.45,10.1-11.23A1,1,0,0,0,42.59,333.75Z"/><path class="cls-26" d="M69.28,248.26a.57.57,0,1,1-.56-.65A.61.61,0,0,1,69.28,248.26Z"/><path class="cls-26" d="M74.82,246.54a.61.61,0,0,1-.56.65.66.66,0,0,1,0-1.3A.61.61,0,0,1,74.82,246.54Z"/><path class="cls-26" d="M68.28,245.49a1.64,1.64,0,0,0-1,.51c-.31.33.16.85.47.52a1,1,0,0,1,.68-.35C68.87,246.13,68.72,245.45,68.28,245.49Z"/><path class="cls-26" d="M74.78,243.59a1.55,1.55,0,0,0-1.12.12c-.4.2-.14.85.26.65a1,1,0,0,1,.75-.08C75.11,244.39,75.21,243.7,74.78,243.59Z"/><path class="cls-28" d="M73,248.36a1.9,1.9,0,0,1-.72-1.4c0-.29-.5-.29-.47,0a2.71,2.71,0,0,0,.36,1.25,2.28,2.28,0,0,0,.38.38,1.32,1.32,0,0,1,.29.24c.35.49-.24.8-.64.7s-.41.38-.12.45a1,1,0,0,0,1.34-.88A1,1,0,0,0,73,248.36Z"/><path class="cls-28" d="M71.69,251.84c-.41.43-1.24.09-1.61-.23s-.73.17-.44.43c.62.55,1.82.93,2.49.24C72.4,252,72,251.55,71.69,251.84Z"/><path class="cls-28" d="M64.53,257l-.6,4.05a4,4,0,0,1-2.57,1.79c-2.25-3.32-.78-10.74-.67-8.76.12,2.25,3.68,2.76,3.68,2.76Z"/><path class="cls-20" d="M561,408.5l.43.56c-.17-2.09.74-1.83.74-1.83l.95,1.23c-.11-1.92.75-1.68.75-1.68l4.27,5.54,3.77,8.29-.62,4.92-3.59-1.15a3.2,3.2,0,0,1-1.41-.9l-3.62-4s-2-3.77-2.8-5.81.36-2.07.66-2.07a4.53,4.53,0,0,1-.26-1C560,408.2,561,408.5,561,408.5Z"/><path class="cls-20" d="M571.29,419.21l-.11-2.91s.49-4.21-.37-4-1.11,2.25-1.11,2.25l-.15.78Z"/><path class="cls-29" d="M563.14,408.46a34.89,34.89,0,0,0,1.84,3.2c.32.51.67,1,1,1.53a14.28,14.28,0,0,0,1.11,1.48,14.25,14.25,0,0,0-.78-1.68q-.48-.8-1-1.56C564.64,410.41,563.93,409.41,563.14,408.46Z"/><path class="cls-29" d="M561.45,409.06a26.41,26.41,0,0,0,1.79,3.26c.33.52.66,1,1,1.55s.7,1,1.09,1.51a31.43,31.43,0,0,0-3.91-6.32Z"/><path class="cls-29" d="M560.55,411.61a13.89,13.89,0,0,0,1,1.94q.58.93,1.26,1.8h0c.22.33.46.66.72,1a11.14,11.14,0,0,0-.46-1.13h0a20.64,20.64,0,0,0-1.17-1.85A15.06,15.06,0,0,0,560.55,411.61Z"/><path class="cls-26" d="M614.19,381.41A37.38,37.38,0,0,0,613,395.62s.91,3-.73,4.15c0,0-13.46,15.39,0,32.8s-.1-1.18-.1-1.18l17.13-16.11-.83-25.46-7.05-4.27Z"/><path class="cls-26" d="M641.66,381.41s1.92,7.22,1.37,11.72a6,6,0,0,0,2.47,4.39s12.27,9.59,5.59,24l-18.59-4-3.2-21.43,7.05-12.44Z"/><path class="cls-20" d="M636.65,623.16s-.51,4,0,5.3l-4.38,1.63-1.58-1.66s.55-5.12-.65-7.62Z"/><path class="cls-7" d="M630.55,629.7s-.38-2.23,3.16-2.32c0,0,3.29.43,3.46,2.75l.36,2.41s1.31,2.52.87,4.35a1.51,1.51,0,0,1-.82,1c-1.47.7-5.59,2.36-7.87.12a1.41,1.41,0,0,1-.42-.88,6.86,6.86,0,0,1,.36-3A11.47,11.47,0,0,0,630.55,629.7Z"/><path class="cls-30" d="M630.55,629.06s-.37-2.15,3-2.32a2.09,2.09,0,0,1,.43,0c.75.14,3.08.76,3.23,2.71l.36,2.4s1.31,2.52.87,4.36a1.49,1.49,0,0,1-.82,1c-1.47.7-5.59,2.37-7.87.13a1.43,1.43,0,0,1-.42-.88,6.86,6.86,0,0,1,.36-3A11.52,11.52,0,0,0,630.55,629.06Z"/><path class="cls-20" d="M599.42,627.07a19.9,19.9,0,0,1,.31-3.75l-6.48-.84a13.18,13.18,0,0,1-1,5.52l3.52,4.26,2.27-.57,1.22-3.11Z"/><path class="cls-7" d="M597.93,630.59a3.06,3.06,0,0,1-.72.84,1.18,1.18,0,0,1-1,.2,1.5,1.5,0,0,1-.82-1,5.4,5.4,0,0,0-.45-1.26,3.34,3.34,0,0,0-1.61-1.13,8,8,0,0,0-1.56-.53.82.82,0,0,0-.44,0,.83.83,0,0,0-.28.25c-.46.58-.72,1.31-1.16,1.9a6.42,6.42,0,0,1-2.65,1.84,14.72,14.72,0,0,0-2.92,1.45,2.39,2.39,0,0,0-.69.69,3.32,3.32,0,0,0-.37,1.53.94.94,0,0,0,0,.5,1,1,0,0,0,.7.41c1,.24,2,.43,3.08.57a7.65,7.65,0,0,0,1.43.1,8.72,8.72,0,0,0,1.61-.26c.65-.14,1.3-.29,1.93-.49s1-.36,1.47-.52a39.4,39.4,0,0,1,4.56-1,1.86,1.86,0,0,0,1.18-.57,3.83,3.83,0,0,0,.27-1,13.63,13.63,0,0,0,0-4.89c-.17-1.17-.44-.14-.61.39A9.1,9.1,0,0,1,597.93,630.59Z"/><path class="cls-30" d="M598,629.93a2.74,2.74,0,0,1-.71.84,1.2,1.2,0,0,1-1,.2,1.49,1.49,0,0,1-.81-1,6.09,6.09,0,0,0-.45-1.26,3.33,3.33,0,0,0-1.62-1.12,6.53,6.53,0,0,0-1.56-.53.7.7,0,0,0-.43,0,.72.72,0,0,0-.28.24c-.46.59-.72,1.31-1.17,1.91a6.38,6.38,0,0,1-2.65,1.84,14.6,14.6,0,0,0-2.91,1.44,2.52,2.52,0,0,0-.69.69,3.53,3.53,0,0,0-.38,1.53,1,1,0,0,0,.05.5,1,1,0,0,0,.69.41q1.53.36,3.09.57a7.59,7.59,0,0,0,1.43.11,11,11,0,0,0,1.61-.26c.64-.15,1.29-.29,1.92-.5s1-.36,1.47-.52a39.11,39.11,0,0,1,4.57-1,1.82,1.82,0,0,0,1.17-.57,1.75,1.75,0,0,0,.28-.72,15,15,0,0,0,.19-5.17c-.16-1.17-.67-.15-.84.37A8.69,8.69,0,0,1,598,629.93Z"/><polygon class="cls-20" points="600.11 546.9 592.68 623.97 599.7 623.97 628.74 493.87 628.74 469.84 600.11 546.9"/><polygon class="cls-20" points="652.76 463.32 652.76 493.88 647.42 545.11 636.87 623.79 629.71 623.79 628.75 493.88 628.75 469.84 644.76 465.5 652.76 463.32"/><path class="cls-22" d="M655.24,557.91c-19.65,13.61-62.55-2.65-62.55-2.65l10.83-19.1,7.75-63.58.29-3.45,35.73-5,5.47-.81a296.93,296.93,0,0,1-1.23,49.21c-.79,7.77-1.86,15.66-3.18,23.62Z"/><path class="cls-31" d="M652.76,456.42v9.83s-2.09.92-5.47,2.14c-.79.29-1.67.59-2.6.9-2.16.73-4.65,1.51-7.36,2.23s-5.6,1.39-8.58,1.91c-7,1.21-13.8,1.6-19.88-.14q-.82-.23-1.62-.51l3.46-11.54-5.85-22.75-.94-9.37s-4.64-21.67,17.84-22.88c0,0,30.52-4.82,28.52,9.24a87.11,87.11,0,0,0-.28,16.44c.12,2,.28,4,.45,5.91C651.33,447.83,652.76,456.42,652.76,456.42Z"/><path class="cls-31" d="M610.68,409.46s-9.39,2.8-18.62,17.65l-8,11.38L576.8,424l-9.23,7.95s10.19,35.33,21.55,26.5l22.29-29.92Z"/><polygon class="cls-32" points="576.8 423.98 573.98 418.16 563.59 425.6 566.3 433.04 576.8 423.98"/><polyline class="cls-33" points="635.68 412.18 628.74 451.19 621.13 409.46"/><polygon class="cls-34" points="624.13 451.19 633.54 450.42 634.31 463.78 624.13 464.76 624.13 451.19"/><polygon class="cls-35" points="631.12 452.7 626.21 453.25 626.21 456.37 631.2 455.7 631.12 452.7"/><polygon class="cls-35" points="631.12 457.13 626.21 457.68 626.21 458.45 631.2 457.78 631.12 457.13"/><polygon class="cls-35" points="631.12 459.19 626.21 459.73 626.21 460.5 631.2 459.83 631.12 459.19"/><polygon class="cls-35" points="631.12 461.24 626.21 461.79 626.21 462.56 631.2 461.89 631.12 461.24"/><path class="cls-2" d="M651.53,512.54c-3.43,1-5.49,1.14-4.9-.07,2.39-4.9,1.7-19.8.86-36.83-.12-2.23-.18-4.68-.2-7.25,0-1.38,0-2.8,0-4.25.09-16.17.29-37.08.29-37.08l2.42,4.86c.12,2,.28,4,.45,5.91.88,10,2.31,18.59,2.31,18.59v6.91A296.93,296.93,0,0,1,651.53,512.54Z"/><polygon class="cls-36" points="637.74 488.57 680.17 486.11 680.54 517.81 639.23 518.93 637.74 488.57"/><path class="cls-31" d="M647.48,426.12l3.1,30.25,2.18,37.5,11.09-.56,2.66-31.41s-3.54-19-7.08-33.18-11-19.26-11-19.26"/><polygon class="cls-32" points="652.75 493.87 666.51 493.3 665.29 501.67 653.63 501.67 652.75 493.87"/><polygon class="cls-20" points="653.63 501.67 653.63 512.46 658.25 512.46 660.7 501.67 653.63 501.67"/><path class="cls-20" d="M653.63,512.46l-1.8,4.58v1.61a.9.9,0,0,0,.76.89h0a.9.9,0,0,0,1-.89v-1.77l1.61-4.42Z"/><path class="cls-20" d="M655.09,512.46l-1.8,4.58v1.61a.91.91,0,0,0,.77.89h0a.9.9,0,0,0,1-.89v-1.77l1.62-4.42Z"/><path class="cls-20" d="M656.56,512.46l-1.8,4.58v1.61a.9.9,0,0,0,.76.89h0a.9.9,0,0,0,1-.89v-1.77l1.61-4.42Z"/><path class="cls-20" d="M658.72,516.28l-.34,2a1.1,1.1,0,0,1-.92.91h0a.83.83,0,0,1-.81-.87v0l-1.16-1.38.74-1.57,1.95-5.71Z"/><polygon class="cls-29" points="621.8 393.45 622.77 402.82 621.8 404.18 628.74 420.6 636.05 403.3 633.85 401.49 633.23 391.89 621.8 393.45"/><path class="cls-20" d="M617.59,378S617,389.46,619,392.91c0,0,6,10.12,12.81,3,0,0,3.8-4.83,4.76-8.46,0,0,3.45-15.26-7.06-17.41C629.48,370.06,619.13,368.22,617.59,378Z"/><path class="cls-26" d="M627.29,373.23a17.28,17.28,0,0,0,4.8,10.35s4.83,9.59,9.57-2.17c0,0-2.57-13.74-13.37-12.79Z"/><path class="cls-26" d="M628.29,368.62s3.85,1.54,1.56,5c0,0-5.16,5.19-7.46,9.52a5,5,0,0,1-5.75,2.68c-1.51-.44-2.72-1.62-2.45-4.38C614.19,381.41,616.84,369.09,628.29,368.62Z"/><path class="cls-20" d="M637.73,385.61c-.38,1.45-1.48,2.42-2.45,2.16s-1.44-1.64-1-3.09,1.48-2.43,2.45-2.17S638.12,384.15,637.73,385.61Z"/><path class="cls-26" d="M628.53,382.15a9.64,9.64,0,0,0,1.35,2.63,5.66,5.66,0,0,0,3.32,2.05,1.06,1.06,0,0,0,.56,0,1,1,0,0,0,.57-.66,8.64,8.64,0,0,0,.07-2.83c0-1.76,1.05-3.41,1-5.17a5.68,5.68,0,0,0-1.86-3.65,5.15,5.15,0,0,0-3.14-1.57C625.37,372.6,627.6,379.65,628.53,382.15Z"/><polygon class="cls-32" points="621.8 404.18 612.66 408.35 628.75 427.31 628.74 420.6 621.8 404.18"/><polygon class="cls-32" points="636.05 403.3 644.69 407.16 628.75 427.31 628.74 420.6 636.05 403.3"/><path class="cls-26" d="M621.87,389.1a.75.75,0,1,1-.74-.84A.8.8,0,0,1,621.87,389.1Z"/><path class="cls-26" d="M629.67,389.1a.75.75,0,1,1-.74-.84A.8.8,0,0,1,629.67,389.1Z"/><path class="cls-28" d="M624.15,391.73c-.34.1.05-.42.12-.51a2.58,2.58,0,0,0,.37-.58,2.15,2.15,0,0,0,.05-1.56c-.21-.6-1.18-.34-1,.27.37,1-.81,1.43-.74,2.41a1.1,1.1,0,0,0,1.44.93A.5.5,0,0,0,624.15,391.73Z"/><path class="cls-28" d="M622.36,393.82s3.64.75,5.45-.31c0,0-.41,2.91-2.72,2.72A3,3,0,0,1,622.36,393.82Z"/><path class="cls-32" d="M214.63,212.47A22.56,22.56,0,0,1,192.07,235H165a22.56,22.56,0,0,1-22.57-22.56h0A22.56,22.56,0,0,1,165,189.9h27.1a22.56,22.56,0,0,1,22.56,22.57Z"/><polygon class="cls-31" points="339.31 144.63 214.63 188.29 214.63 236.65 339.31 280.3 339.31 144.63"/><rect class="cls-31" x="167.12" y="180.23" width="71.06" height="64.48"/><rect class="cls-16" x="182.1" y="180.23" width="2.79" height="25.82"/><rect class="cls-16" x="201.26" y="180.23" width="2.79" height="25.82"/><rect class="cls-16" x="220.42" y="180.23" width="2.79" height="25.82"/><polygon class="cls-31" points="212.7 316.95 188.56 316.95 188.56 244.71 221.81 244.71 212.7 316.95"/><line class="cls-37" x1="357.25" y1="212.47" x2="391.43" y2="212.47"/><line class="cls-37" x1="357.25" y1="180.23" x2="385.35" y2="161.67"/><line class="cls-37" x1="357.25" y1="244.71" x2="385.35" y2="263.26"/><polygon class="cls-2" points="221.81 244.71 188.56 244.71 213.76 308.56 221.81 244.71"/><path class="cls-16" d="M567.94,126.11l-26.8-.09-3.54,4.25a56.21,56.21,0,0,0-10.18-24.75l5.54.54,19-18.88-16.82-1.62-1.5-16.83-19,18.89.5,5.55a56.66,56.66,0,1,0,22.39,54.57l3.51,4.27,26.8.09-10.76-13Z"/><circle class="cls-38" cx="478.18" cy="138.86" r="56.67"/><circle class="cls-10" cx="478.18" cy="138.86" r="41.87"/><circle class="cls-39" cx="478.18" cy="138.86" r="25.73"/><circle class="cls-40" cx="478.18" cy="138.86" r="10.69"/><polygon class="cls-6" points="553.7 138.86 564.5 125.87 537.7 125.87 526.92 138.89 553.7 138.86"/><polygon class="cls-6" points="553.7 138.86 564.5 151.86 537.7 151.86 526.92 138.83 553.7 138.86"/><line class="cls-41" x1="478.18" y1="138.86" x2="554.57" y2="138.86"/><polygon class="cls-6" points="531.58 85.43 530.02 68.61 511.08 87.56 512.67 104.38 531.58 85.43"/><polygon class="cls-6" points="531.58 85.43 548.4 86.98 529.46 105.93 512.63 104.34 531.58 85.43"/><line class="cls-41" x1="478.18" y1="138.83" x2="532.19" y2="84.82"/><path class="cls-42" d="M399.56,642.63s-.37,10.25,1.63,10.6,6.56-.5,6.56-.5,1.3-2.41,3-1.39,12.88,2.43,12.73.4-3.87-4.06-9-6-5.68-5.33-5.68-5.33Z"/><path class="cls-42" d="M362.87,644.37s-2.64,13.24-.68,13.77,6.58.12,6.58.12,1.52-2.27,3.14-1.09,12.6,3.62,12.63,1.6-3.46-4.41-8.42-6.79-5.16-5.85-5.16-5.85Z"/><polygon class="cls-43" points="353.51 553.08 368.11 592.57 360.81 644.94 372.83 648.8 386.56 593 366.82 546.64 353.51 553.08"/><rect class="cls-44" x="184.5" y="536.47" width="164.82" height="14.16"/><path class="cls-22" d="M341.49,508s-2.14,24,12,45.07,44.21,91.86,44.21,91.86l12.88-4.29S372.83,517.46,373.26,508Z"/><path class="cls-20" d="M376.77,415a16.67,16.67,0,0,1-.7,2.17c-1.1,2.78-2.9,4.89-5.83,4.81l-3.49-.16-1.44,12.82L362,432.44l-7.42-4.89.86-11.16s-6.66-9.66-4.51-17.81,17.17-13.31,22.1-10.3,4.73,16.31,4.73,16.31A40.14,40.14,0,0,1,376.77,415Z"/><path class="cls-29" d="M366.75,421.81l-1.44,12.82L362,432.44c-.46-2.89-1.19-7.38-1.83-10.27-1-4.55.83-5.54,1.19-3.54S366.75,421.81,366.75,421.81Z"/><path class="cls-25" d="M352,422.17l-2.58,6s-11.16,7.94-14.16,31.76S331,534.41,331,534.41s38,11.8,46.35-12.23V482.26L370,439.77l-1.54-6a5.83,5.83,0,0,0-2.71-3.58Z"/><path class="cls-25" d="M357.8,450.5s20,44.42,31.55,38.3-6.44-31.54-6.44-31.54-11.34-20.93-19.19-21.57"/><path class="cls-45" d="M358.51,407.24a6.38,6.38,0,0,1-.63-2.23c0-.78.56-1.62,1.34-1.6,1.41,0,1.86,2.63,3.26,2.37.68-.12,1-.89,1.27-1.54a11.63,11.63,0,0,1,8.5-6.89,5.14,5.14,0,0,0,2.46-.78,4.18,4.18,0,0,0,1.07-1.62c1.1-2.4,2.17-5.09,1.36-7.6a9,9,0,0,0-4.11-4.52c-2.16-1.35-4.82-2.38-7.23-1.53-1.93.67-3.33,2.44-5.25,3.15-2.88,1.07-6.45-.41-9,1.29a8.5,8.5,0,0,0-2.46,3.15l-2,3.62a14.89,14.89,0,0,0-1.69,3.94,5,5,0,0,0,.77,4.09c.47.59,1.11,1,1.52,1.66a6.5,6.5,0,0,1,.68,2.81c.41,3.7,2.51,9.72,6.13,11.56C358.79,418.73,359.4,409.65,358.51,407.24Z"/><line class="cls-46" x1="202.5" y1="546.9" x2="184.5" y2="659.54"/><line class="cls-46" x1="335.5" y1="546.9" x2="353.49" y2="659.54"/><path class="cls-25" d="M357.8,450.5s20,44.42,31.55,38.3-6.44-31.54-6.44-31.54-11.34-20.93-19.19-21.57"/><path class="cls-47" d="M357.8,450.5l2.3,4.27c.76,1.43,1.52,2.85,2.3,4.26,1.57,2.83,3.1,5.66,4.74,8.44s3.27,5.56,5,8.26c.42.69.89,1.35,1.33,2s.9,1.34,1.39,2,.91,1.33,1.41,2,1,1.27,1.49,1.92a55.68,55.68,0,0,1-6.25-7.45c-1.92-2.62-3.61-5.4-5.26-8.19s-3.14-5.67-4.55-8.58S359,453.52,357.8,450.5Z"/><path class="cls-20" d="M381.61,464.55a1.35,1.35,0,0,0-.08.4.82.82,0,0,0,.77.68,2.44,2.44,0,0,0,1.09-.24,2.12,2.12,0,0,0-.28,1.7c.2.56,1,.91,1.43.51a1.3,1.3,0,0,0,.19,1.55,1.32,1.32,0,0,0,1.55.21c-.33.76.51,1.6,1.33,1.61a3.78,3.78,0,0,0,2.21-1,2.36,2.36,0,0,0,.6-.58,2,2,0,0,0,.18-1.41,13.5,13.5,0,0,0-1.57-4.12c-.71-1.39-1.87-3.79-3.74-3.12A6.37,6.37,0,0,0,381.61,464.55Z"/><path class="cls-47" d="M375.52,486.13c0,.62-.23,1.13-.51,1.13s-.51-.51-.51-1.13.23-1.12.51-1.12S375.52,485.51,375.52,486.13Z"/><path class="cls-47" d="M375.52,500.76c0,.62-.23,1.12-.51,1.12s-.51-.5-.51-1.12.23-1.13.51-1.13S375.52,500.13,375.52,500.76Z"/><path class="cls-20" d="M377.21,407.1c.56.88,1.12,1.75,1.67,2.63a2.23,2.23,0,0,1,.39.86,1.52,1.52,0,0,1-1,1.5,4.58,4.58,0,0,1-2,.13"/><path class="cls-47" d="M375.52,513.38c0,.62-.23,1.13-.51,1.13s-.51-.51-.51-1.13.23-1.12.51-1.12S375.52,512.76,375.52,513.38Z"/><path class="cls-48" d="M379.29,405.06c0,2.24-1.14,4.06-2.54,4.06s-2.54-1.82-2.54-4.06,1.14-4.05,2.54-4.05S379.29,402.82,379.29,405.06Z"/><line class="cls-48" x1="375.33" y1="402.13" x2="361.36" y2="402.63"/><path class="cls-49" d="M377.78,404.8c0,.46-.26.83-.58.83s-.59-.37-.59-.83.26-.84.59-.84S377.78,404.34,377.78,404.8Z"/><path class="cls-8" d="M376.77,415a16.67,16.67,0,0,1-.7,2.17,5.52,5.52,0,0,1-1.61-.21,8.05,8.05,0,0,1-2.15-.74c-.5-.29-1-.82-.82-1.38a.26.26,0,0,1,.09-.16.27.27,0,0,1,.18-.05C373.43,414.42,375.1,415,376.77,415Z"/><rect class="cls-50" x="231.68" y="484.31" width="70.48" height="47.41"/><circle class="cls-51" cx="266.92" cy="510.13" r="4.37"/><rect class="cls-51" x="225.92" y="531.72" width="82" height="4.75" rx="1.93"/><path class="cls-7" d="M197.75,513.38l.62,5.77a5.83,5.83,0,0,0,1,11.56h.21l.63,5.77h13.58L216,513.38Zm-2.17,11.5a3.84,3.84,0,0,1,3-3.74l.82,7.57A3.83,3.83,0,0,1,195.58,524.88Z"/><path class="cls-52" d="M134.4,490.6c0,18.22-9.34,43.33-9.34,43.33s-9.33-25.11-9.33-43.33,4.18-22.67,9.33-22.67S134.4,472.37,134.4,490.6Z"/><path class="cls-52" d="M157.83,523.51c-11.7,14-35,27.21-35,27.21s9-25.24,20.68-39.2,17.76-14.69,21.71-11.38S169.54,509.54,157.83,523.51Z"/><path class="cls-52" d="M160,559.56c-9.75,11.63-29.13,22.66-29.13,22.66s7.47-21,17.21-32.64,14.79-12.23,18.08-9.47S169.72,547.93,160,559.56Z"/><path class="cls-52" d="M158.28,589.74c-13.56,1.91-33.22-2.4-33.22-2.4s17.7-9.58,31.26-11.49,17.3.74,17.84,4.57S171.84,587.83,158.28,589.74Z"/><path class="cls-52" d="M116,510.17c6.53,17,6.82,43.8,6.82,43.8s-17.72-20.09-24.25-37.1-4.22-22.66.59-24.51S109.49,493.16,116,510.17Z"/><path class="cls-52" d="M66.06,546.2c12.08,9.13,24,27.9,24,27.9s-21.32-6.4-33.4-15.53S43.78,544.44,46.36,541,54,537.07,66.06,546.2Z"/><path class="cls-52" d="M99.9,542.13c.33,15.14-7,36.17-7,36.17s-8.21-20.69-8.54-35.83,3-18.9,7.34-19S99.57,527,99.9,542.13Z"/><path class="cls-52" d="M75,514.39c6.54,17,6.83,43.8,6.83,43.8S64.06,538.1,57.53,521.08s-4.23-22.66.59-24.5S68.42,497.38,75,514.39Z"/><path class="cls-52" d="M140.34,567.37A87.28,87.28,0,0,1,118,590.88c4.52-20.43,6.63-41.47,8.62-62.31.18-1.92-2.82-1.91-3,0-3.25,34-6.74,68.75-21,100.26-.79,1.75,1.8,3.28,2.59,1.52a195.69,195.69,0,0,0,11.83-35.29,1.63,1.63,0,0,0,.63-.25,91.33,91.33,0,0,0,25.22-25.93C144,567.25,141.39,565.75,140.34,567.37Z"/><path class="cls-52" d="M114,604.71a175.76,175.76,0,0,1-32.94-52.84c-.71-1.78-3.59-.93-2.88.87A180,180,0,0,0,112,606.91C113.26,608.34,115.3,606.13,114,604.71Z"/><path class="cls-53" d="M102.87,681h12.81a11,11,0,0,0,11-10.16l4.21-54.58H88.53l3.36,54.41A11,11,0,0,0,102.87,681Z"/><path class="cls-32" d="M205.88,99.79A14.77,14.77,0,0,0,193.2,107a14.79,14.79,0,0,0-27.47,7.62c0,18.49,27.47,32.42,27.47,32.42s27.47-13.67,27.47-32.42A14.79,14.79,0,0,0,205.88,99.79Z"/><path class="cls-31" d="M195.06,84.86A14.78,14.78,0,0,0,182.38,92a14.79,14.79,0,0,0-27.47,7.62c0,18.49,27.47,32.42,27.47,32.42s27.47-13.67,27.47-32.42A14.79,14.79,0,0,0,195.06,84.86Z"/><path class="cls-32" d="M216.8,47.86A14.75,14.75,0,0,0,204.13,55a14.8,14.8,0,0,0-27.48,7.62c0,18.49,27.48,32.42,27.48,32.42S231.6,81.4,231.6,62.65A14.8,14.8,0,0,0,216.8,47.86Z"/><path class="cls-31" d="M262.42,18.64a12.36,12.36,0,0,0-10.6,6,12.37,12.37,0,0,0-23,6.37c0,15.47,23,27.12,23,27.12s23-11.43,23-27.12A12.37,12.37,0,0,0,262.42,18.64Z"/><path class="cls-54" d="M178.69,0a8.36,8.36,0,0,0-7.19,4.07,8.39,8.39,0,0,0-15.58,4.32c0,10.48,15.58,18.38,15.58,18.38S187.07,19,187.07,8.39A8.39,8.39,0,0,0,178.69,0Z"/></g></g></svg>