<svg width="94" height="79" viewBox="0 0 94 79" fill="none" xmlns="http://www.w3.org/2000/svg">
<path d="M12.8892 26.0929V8.62014H34.0842L36.3469 6.34356H10.5979V26.0929H12.8892V26.0929Z" fill="white"/>
<path d="M7.73357 3.49783H42.1038V26.2636H44.968V2.7864C44.968 2.22035 44.7416 1.67748 44.3388 1.27722C43.9359 0.876966 43.3895 0.652103 42.8198 0.652103H7.01752C6.4478 0.652103 5.90141 0.876966 5.49856 1.27722C5.09571 1.67748 4.86938 2.22035 4.86938 2.7864V26.2636H7.73357V3.49783Z" fill="white"/>
<path d="M0.573242 29.1094V33.9471C0.573242 34.9282 0.965532 35.8692 1.66381 36.563C2.36209 37.2568 3.30916 37.6465 4.29668 37.6465H45.455C46.4425 37.6465 47.3896 37.2568 48.0879 36.563C48.7862 35.8692 49.1784 34.9282 49.1784 33.9471V29.1094H0.573242ZM46.4002 33.9471C46.4002 34.1735 46.3097 34.3906 46.1485 34.5508C45.9874 34.7109 45.7688 34.8008 45.5409 34.8008H4.2394C4.01151 34.8008 3.79295 34.7109 3.63181 34.5508C3.47067 34.3906 3.38014 34.1735 3.38014 33.9471V31.2863H17.6295C17.8085 31.706 18.1073 32.0645 18.4891 32.3173C18.8709 32.5702 19.3188 32.7064 19.7776 32.7092H29.9884C30.4472 32.7064 30.8951 32.5702 31.2769 32.3173C31.6587 32.0645 31.9575 31.706 32.1365 31.2863H46.4002V33.9471Z" fill="white"/>
<path d="M57.284 67.0985V49.6257H78.479L80.7417 47.3491H54.9927V67.0985H57.284V67.0985Z" fill="white"/>
<path d="M52.1286 44.5034H86.4988V67.2692H89.363V43.792C89.363 43.2259 89.1367 42.6831 88.7338 42.2828C88.3309 41.8825 87.7846 41.6577 87.2148 41.6577H51.4125C50.8428 41.6577 50.2964 41.8825 49.8936 42.2828C49.4907 42.6831 49.2644 43.2259 49.2644 43.792V67.2692H52.1286V44.5034Z" fill="white"/>
<path d="M44.9683 70.1149V74.9527C44.9683 75.9338 45.3606 76.8748 46.0588 77.5686C46.7571 78.2623 47.7042 78.6521 48.6917 78.6521H89.85C90.8375 78.6521 91.7846 78.2623 92.4829 77.5686C93.1812 76.8748 93.5735 75.9338 93.5735 74.9527V70.1149H44.9683ZM90.7952 74.9527C90.7952 75.1791 90.7047 75.3962 90.5435 75.5563C90.3824 75.7164 90.1638 75.8064 89.9359 75.8064H48.6344C48.4065 75.8064 48.188 75.7164 48.0268 75.5563C47.8657 75.3962 47.7752 75.1791 47.7752 74.9527V72.2919H62.0245C62.2035 72.7116 62.5024 73.07 62.8841 73.3229C63.2659 73.5758 63.7138 73.712 64.1726 73.7148H74.3834C74.8422 73.712 75.2902 73.5758 75.6719 73.3229C76.0537 73.07 76.3525 72.7116 76.5316 72.2919H90.7952V74.9527Z" fill="white"/>
<path d="M49.4341 13.277H68.1598" stroke="white" stroke-width="4"/>
<path d="M73.51 18.5927V37.1977" stroke="white" stroke-width="4"/>
<path d="M76.0226 13.277C76.0226 14.6413 74.9068 15.7638 73.51 15.7638C72.1131 15.7638 70.9973 14.6413 70.9973 13.277C70.9973 11.9127 72.1131 10.7902 73.51 10.7902C74.9068 10.7902 76.0226 11.9127 76.0226 13.277Z" stroke="white" stroke-width="3"/>
<path d="M38.7334 65.7698H20.0077" stroke="white" stroke-width="4"/>
<path d="M14.6575 60.4541L14.6575 41.849" stroke="white" stroke-width="4"/>
<path d="M12.1449 65.7698C12.1449 64.4055 13.2606 63.283 14.6575 63.283C16.0544 63.283 17.1702 64.4055 17.1702 65.7698C17.1702 67.1341 16.0544 68.2566 14.6575 68.2566C13.2606 68.2566 12.1449 67.1341 12.1449 65.7698Z" stroke="white" stroke-width="3"/>
</svg>
