<svg width="83" height="92" viewBox="0 0 83 92" fill="none" xmlns="http://www.w3.org/2000/svg">
<path d="M64.2525 58.6046C63.2829 58.6046 62.3133 58.387 61.236 57.8431C59.8355 57.1905 58.8659 55.45 58.7582 53.492C58.5428 50.99 59.7278 48.5969 61.8824 46.9652C64.4679 45.0071 69.5312 40.8735 73.9482 34.0204C76.5337 29.9955 78.796 24.5565 77.5033 21.1844C76.8569 19.5527 75.3487 18.3561 72.9786 17.7034C69.8544 16.8332 65.1143 19.879 63.8215 20.9668C62.852 21.7283 61.5592 21.6195 60.8051 20.6405C60.051 19.6615 60.1587 18.3561 61.1283 17.5946C61.8824 17.0507 68.3462 11.9381 74.1636 13.461C77.9342 14.5488 80.412 16.5068 81.597 19.5527C83.8593 25.6443 79.5501 33.3677 77.611 36.3048C72.8709 43.7018 67.2689 48.2705 64.4679 50.3373C63.6061 50.8812 63.1752 51.6427 63.0674 52.5129C62.9597 53.1656 63.1751 53.7095 63.2829 53.8183C64.1447 54.2534 64.8988 54.1446 65.222 53.492C65.7607 52.4042 67.0534 52.0778 68.1307 52.6217C69.208 53.1656 69.5312 54.5798 68.9926 55.5588C68.2385 57.1905 66.5148 58.6046 64.2525 58.6046Z" fill="white"/>
<path d="M18.6824 58.6046C16.4201 58.6046 14.6964 57.1905 13.9423 55.8851C13.4036 54.7973 13.7268 53.492 14.8041 52.9481C15.8814 52.4042 17.1742 52.7305 17.7129 53.8183C18.036 54.3622 18.6824 54.471 19.652 54.0359C19.7597 53.8183 19.9752 53.3832 19.8675 52.7305C19.7597 51.8603 19.3288 51.2076 18.467 50.5549C15.5583 48.4881 10.064 43.9193 5.32389 36.5223C3.38474 33.4765 -0.924464 25.7531 1.33787 19.7702C2.5229 16.6156 5.00069 14.5488 8.77125 13.5698C14.5887 11.9381 21.0525 17.0507 21.8066 17.7034C22.7762 18.4649 22.8839 19.879 22.1298 20.7492C21.3757 21.7283 19.9752 21.837 19.1133 21.0756C17.6051 19.879 13.0805 16.942 9.95628 17.8122C7.58622 18.4649 6.078 19.5527 5.43162 21.2931C4.03112 24.6653 6.40119 30.1043 8.98671 34.1292C13.4036 40.8735 18.467 45.1159 21.0525 47.074C23.2071 48.7057 24.3921 50.99 24.1767 53.6007C24.0689 55.5588 22.9916 57.2993 21.6989 57.9519C20.6216 58.3871 19.652 58.6046 18.6824 58.6046Z" fill="white"/>
<path d="M52.2138 77.2586C52.3053 77.3075 52.3963 77.3555 52.4868 77.4025H41.8445H41.0904H30.409C30.4997 77.3551 30.5909 77.3068 30.6825 77.2576C33.2962 75.8547 36.4484 73.6423 38.0975 70.4913C39.0306 68.7176 39.5871 67.4134 39.9131 66.539C39.9946 66.3206 40.0617 66.129 40.1166 65.9635H41.0904H41.8445H42.8182C42.8732 66.129 42.9403 66.3206 43.0217 66.539C43.3473 67.4123 43.9028 68.7144 44.8339 70.4847C46.4311 73.644 49.5899 75.8576 52.2138 77.2586Z" stroke="white" stroke-width="2"/>
<path d="M41.7365 64.6104H41.1978C35.1742 64.6104 29.4815 60.7662 25.2177 55.0433C20.9663 49.3369 18.3508 42.0304 18.3508 35.6521V6.69374H64.6912V35.5371C64.6387 41.9757 61.994 49.3108 57.7304 55.0293C53.4526 60.7667 47.7597 64.6104 41.7365 64.6104Z" stroke="white" stroke-width="3"/>
<path d="M65.14 5.74435H17.8465C16.5765 5.74435 15.5068 4.67831 15.5068 3.37217C15.5068 2.06604 16.5765 1 17.8465 1H65.14C66.41 1 67.4797 2.06604 67.4797 3.37217C67.4797 4.67831 66.41 5.74435 65.14 5.74435Z" stroke="white" stroke-width="2"/>
<path d="M57.4654 91H25.3618C24.8115 91 24.3149 90.5525 24.3149 89.9332V80.3606C24.3149 79.7811 24.772 79.2938 25.3618 79.2938H57.4654C58.0157 79.2938 58.5123 79.7413 58.5123 80.3606V89.9332C58.5123 90.5867 58.089 91 57.4654 91Z" stroke="white" stroke-width="2"/>
<path d="M51.7252 82.3396V87.8454H30.9941V82.3396H51.7252Z" stroke="white" stroke-width="2"/>
<g opacity="0.23">
<path opacity="0.23" d="M38.2559 91H35.0643L40.0261 79.4025H42.8501L38.2559 91Z" fill="white" stroke="white" stroke-width="2"/>
</g>
<g opacity="0.23">
<path opacity="0.23" d="M44.7397 91H43.36L48.3218 79.4025H49.7015L44.7397 91Z" fill="white" stroke="white" stroke-width="2"/>
</g>
<path d="M34.0078 38.2568H39.868V24.6906H35.124V22.2486C37.9146 21.9773 39.3099 21.4347 40.9842 20.6207H43.7747V38.2568H49.0768V41.2414H34.0078V38.2568Z" fill="white"/>
</svg>
