<svg width="94" height="79" viewBox="0 0 94 79" fill="none" xmlns="http://www.w3.org/2000/svg">
<path d="M38.5297 52.9448V51.4448H37.0297H31.428V37.217H62.8929V51.4447H48.1008H47.7786L47.4849 51.577L38.5297 55.6094V52.9448Z" stroke="white" stroke-width="3"/>
<path d="M37.467 41.6765H57.3921" stroke="white" stroke-width="3"/>
<path d="M37.4668 47.0943H48.7756" stroke="white" stroke-width="3"/>
<path d="M15.6475 32.6449C16.0572 30.5814 16.4669 28.7243 17.0814 26.8671C18.7202 21.2957 21.3832 16.9624 24.6607 13.4544C29.7819 8.29569 37.1563 5.61315 46.5792 5.61315C46.784 5.61315 46.9889 5.61315 46.9889 5.61315C64.8104 5.8195 72.7994 16.137 76.4866 26.8671C77.306 29.137 77.7157 31.4068 78.1254 33.4703C78.7399 33.2639 79.3545 33.0576 79.969 33.0576C81.4029 33.0576 82.8368 33.4703 83.8611 34.2957C83.4514 31.6132 82.8368 28.9306 82.2223 26.6608C77.306 9.94648 65.0153 0.248074 47.1937 0.0417252H46.5792C35.7224 0.0417252 27.1189 3.13696 20.9735 9.53379C16.6718 13.8671 13.3942 19.6449 11.5506 26.8671C10.9361 28.9306 10.5264 31.2004 10.1167 33.6766C11.1409 32.8512 12.37 32.4385 13.8039 32.4385C14.4185 32.2322 15.033 32.4385 15.6475 32.6449Z" fill="white"/>
<path d="M68.703 55.3433L54.3638 69.3751C53.7493 69.1687 53.3396 68.9624 52.725 68.9624H45.1458C42.6876 68.9624 40.6392 71.0259 40.6392 73.502C40.6392 75.9782 42.6876 78.0417 45.1458 78.0417H52.725C54.7735 78.0417 56.6171 76.5973 57.0268 74.5338L73.4144 58.6449L75.0532 57.2005C74.2338 56.1687 73.8241 54.9306 73.8241 53.4862V50.8036L68.703 55.3433Z" fill="white"/>
<path d="M3.97163 54.1052C5.2007 55.3433 6.63462 55.756 8.27339 55.9623C7.65885 54.9306 7.454 53.8988 7.454 52.6608V38.8354C7.454 37.8036 7.65885 36.7719 8.27339 35.7401C6.83947 35.7401 5.40555 36.3592 4.17648 37.3909C1.71833 39.2481 0.489258 42.5496 0.489258 45.8512C0.489258 49.1528 1.71833 52.2481 3.97163 54.1052Z" fill="white"/>
<path d="M13.8042 56.9941C16.2624 56.9941 18.3108 54.9306 18.3108 52.4544V38.629C18.3108 36.1528 16.2624 34.0893 13.8042 34.0893C11.3461 34.0893 9.29761 36.1528 9.29761 38.629V52.4544C9.29761 55.137 11.3461 56.9941 13.8042 56.9941Z" fill="white"/>
<path d="M85.7051 56.5814C87.139 56.5814 88.5729 55.9624 90.0068 54.9306C92.2601 53.0735 93.4892 49.9783 93.4892 46.4703C93.4892 43.1687 92.2601 40.0735 90.0068 38.2163C88.7778 37.1846 87.3438 36.5656 85.9099 36.5656C86.3196 37.391 86.7293 38.4227 86.7293 39.6608V53.4862C86.7293 54.5179 86.3196 55.756 85.7051 56.5814Z" fill="white"/>
<path d="M84.6807 53.2798V39.4544C84.6807 36.9782 82.6322 34.9147 80.1741 34.9147C77.7159 34.9147 75.6675 36.9782 75.6675 39.4544V53.2798C75.6675 55.756 77.7159 57.8195 80.1741 57.8195C82.6322 57.8195 84.6807 55.9623 84.6807 53.2798Z" fill="white"/>
</svg>
