<svg width="100" height="100" viewBox="0 0 100 100" fill="none" xmlns="http://www.w3.org/2000/svg">
<circle r="50" transform="matrix(-1 0 0 1 50 50)" fill="url(#paint0_linear)"/>
<path d="M76.082 46.4257L76.082 46.4251C75.3717 41.2442 73.1338 36.3923 69.6539 32.4886C66.174 28.5848 61.6098 25.8062 56.5438 24.5073C51.4778 23.2083 46.1396 23.448 41.2104 25.1956C36.2814 26.9431 31.9848 30.1192 28.8687 34.3188C28.8686 34.3189 28.8684 34.3191 28.8683 34.3193L28.4008 34.945L27.8037 35.7443H28.8014H40.7891C41.1456 35.7443 41.4875 35.8859 41.7396 36.1379C41.9917 36.39 42.1333 36.7319 42.1333 37.0883C42.1333 37.4448 41.9917 37.7866 41.7396 38.0387C41.4875 38.2907 41.1456 38.4324 40.7891 38.4324H26.035C25.6784 38.4324 25.3365 38.2907 25.0844 38.0387C24.8323 37.7866 24.6907 37.4448 24.6907 37.0883V22.3359C24.6907 21.9794 24.8323 21.6376 25.0844 21.3855C25.3365 21.1334 25.6784 20.9918 26.035 20.9918C26.3915 20.9918 26.7334 21.1334 26.9855 21.3855C27.2376 21.6376 27.3792 21.9794 27.3792 22.3359V30.4755V31.7972L28.254 30.8065C32.8007 25.6574 39.0274 22.2887 45.8255 21.3003C52.6236 20.3119 59.5519 21.7679 65.3769 25.4091C71.2019 29.0502 75.5454 34.6402 77.6343 41.1838C79.7231 47.7273 79.4217 54.7998 76.7836 61.1419C74.1455 67.484 69.342 72.6842 63.2283 75.8166C57.1146 78.949 50.0875 79.8103 43.3981 78.2471C36.7088 76.6839 30.7913 72.7978 26.6994 67.2805C22.6074 61.7633 20.6064 54.973 21.0528 48.1187L21.0528 48.1183C21.0641 47.9421 21.11 47.7699 21.1879 47.6115C21.2657 47.4531 21.374 47.3115 21.5066 47.195C21.6391 47.0784 21.7934 46.989 21.9605 46.9321C22.1276 46.8751 22.3043 46.8516 22.4805 46.8629C22.6566 46.8742 22.8289 46.9201 22.9873 46.9979C23.1458 47.0758 23.2873 47.1841 23.4039 47.3166C23.5205 47.4492 23.6098 47.6034 23.6668 47.7704C23.7238 47.9375 23.7473 48.1141 23.736 48.2903L23.736 48.2904C23.5015 51.9592 24.0383 55.6365 25.3119 59.0852C26.5855 62.5339 28.5676 65.6775 31.1305 68.3135C33.6934 70.9494 36.7802 73.0192 40.192 74.3895C43.6037 75.7598 47.2648 76.4001 50.9391 76.2692C54.6135 76.1383 58.2197 75.2391 61.5253 73.6295C64.8309 72.02 67.7626 69.7358 70.1313 66.9241C72.5001 64.1125 74.2535 60.8358 75.2784 57.3052C76.3033 53.7746 76.5771 50.0685 76.082 46.4257Z" fill="white" stroke="white"/>
<path d="M38.1965 44.1426C38.1965 44.1426 38.1965 41.1475 41.1916 41.1475H59.1621C59.1621 41.1475 62.1572 41.1475 62.1572 44.1426V53.1278C62.1572 53.1278 62.1572 56.1229 59.1621 56.1229H53.1719C53.1719 57.1218 53.2962 57.8706 53.5463 58.3692H54.6695C54.8681 58.3692 55.0585 58.4481 55.1989 58.5886C55.3394 58.729 55.4183 58.9194 55.4183 59.118C55.4183 59.3166 55.3394 59.5071 55.1989 59.6475C55.0585 59.7879 54.8681 59.8668 54.6695 59.8668H45.6842C45.4857 59.8668 45.2952 59.7879 45.1548 59.6475C45.0144 59.5071 44.9355 59.3166 44.9355 59.118C44.9355 58.9194 45.0144 58.729 45.1548 58.5886C45.2952 58.4481 45.4857 58.3692 45.6842 58.3692H46.8074C47.0575 57.8706 47.1818 57.1218 47.1818 56.1229H41.1916C41.1916 56.1229 38.1965 56.1229 38.1965 53.1278V44.1426ZM40.2901 42.8622C40.1256 42.9767 39.9944 43.1328 39.9097 43.3145C39.7821 43.5782 39.7087 43.8649 39.6941 44.1576V53.1278C39.6941 53.6146 39.8109 53.8796 39.9112 54.0294C40.016 54.1866 40.1658 54.3109 40.3635 54.4097C40.6159 54.532 40.8894 54.6047 41.1692 54.6239L41.2066 54.6254H59.1621C59.6488 54.6254 59.9139 54.5086 60.0636 54.4082C60.2281 54.2937 60.3594 54.1377 60.444 53.956C60.5663 53.7036 60.639 53.4301 60.6582 53.1503L60.6596 53.1129V44.1426C60.6596 43.6559 60.5428 43.3908 60.4425 43.2411C60.328 43.0765 60.172 42.9453 59.9902 42.8607C59.7265 42.7331 59.4398 42.6597 59.1471 42.6451H41.1916C40.7049 42.6451 40.4398 42.7619 40.2901 42.8622V42.8622Z" fill="white"/>
<defs>
<linearGradient id="paint0_linear" x1="50" y1="0" x2="50" y2="100" gradientUnits="userSpaceOnUse">
<stop stop-color="#B9DAFC"/>
<stop offset="1" stop-color="#C7BFFD"/>
</linearGradient>
</defs>
</svg>
