<svg width="100" height="100" viewBox="0 0 100 100" fill="none" xmlns="http://www.w3.org/2000/svg">
<circle r="50" transform="matrix(-1 0 0 1 50 50)" fill="url(#paint0_linear)"/>
<path d="M38.9656 80.3279H36.392C36.1061 80.3279 35.8837 80.1171 35.836 79.8415L35.5977 78.0096C34.9147 77.8313 34.2792 77.5557 33.6597 77.199L32.214 78.3176C31.9916 78.496 31.6739 78.4635 31.4833 78.269L29.6882 76.4047C29.4976 76.2101 29.4658 75.8859 29.6405 75.6589L30.7367 74.1837C30.3872 73.5677 30.1171 72.903 29.9424 72.2059L28.1314 71.9627C27.8613 71.9303 27.6548 71.6871 27.6548 71.3953V68.7852C27.6548 68.4934 27.8613 68.2665 28.1314 68.2178L29.9424 67.9747C30.1171 67.2938 30.3872 66.6291 30.7367 66.0131L29.6405 64.5378C29.4658 64.3108 29.4976 63.9866 29.6882 63.7921L31.4992 61.9439C31.6898 61.7494 32.0075 61.717 32.2299 61.8953L33.6755 63.0139C34.2792 62.6573 34.9305 62.3817 35.6136 62.2033L35.8519 60.3552C35.8837 60.0796 36.122 59.8689 36.4079 59.8689H38.9656C39.2515 59.8689 39.4739 60.0796 39.5216 60.3552L39.7599 62.1871C40.443 62.3654 41.0784 62.641 41.6979 62.9977L43.1436 61.8791C43.366 61.7008 43.6837 61.7332 43.8743 61.9277L45.6853 63.7759C45.8759 63.9704 45.9077 64.2946 45.733 64.5216L44.6368 65.9968C44.9863 66.6129 45.2564 67.2776 45.4311 67.9584L47.2262 68.2016C47.4963 68.234 47.7028 68.4772 47.7028 68.769V71.3791C47.7028 71.6709 47.4963 71.8979 47.2262 71.9465L45.4311 72.1897C45.2564 72.8868 44.9863 73.5352 44.6368 74.1675L45.733 75.6427C45.9077 75.8697 45.8759 76.1939 45.6853 76.3885L43.8584 78.2528C43.6678 78.4473 43.3501 78.4798 43.1277 78.3014L41.6821 77.1828C41.0784 77.5395 40.4271 77.8151 39.744 77.9934L39.5057 79.8253C39.4739 80.1171 39.2356 80.3279 38.9656 80.3279ZM36.8845 79.1931H38.4731L38.6955 77.4584C38.7273 77.2153 38.902 77.0369 39.1244 76.9721C39.9346 76.7938 40.6971 76.4695 41.412 75.9994C41.6026 75.8697 41.8568 75.8859 42.0474 76.0318L43.4136 77.0856L44.5415 75.9345L43.5089 74.5403C43.366 74.3458 43.3501 74.0864 43.4772 73.8919C43.9379 73.1786 44.2556 72.4004 44.4303 71.5574C44.478 71.3305 44.6686 71.1521 44.9069 71.1197L46.6067 70.8927V69.2716L44.9069 69.0446C44.6686 69.0122 44.4939 68.8339 44.4303 68.6069C44.2556 67.7801 43.9379 67.002 43.4772 66.2724C43.3501 66.0779 43.366 65.8185 43.5089 65.624L44.5415 64.2298L43.4136 63.0788L42.0474 64.1325C41.8568 64.2784 41.6026 64.2946 41.412 64.1649C40.713 63.711 39.9505 63.3706 39.1244 63.1922C38.902 63.1436 38.7273 62.9491 38.6955 62.7059L38.4731 61.0037H36.8845L36.6621 62.7383C36.6303 62.9815 36.4556 63.1598 36.2332 63.2247C35.423 63.403 34.6605 63.7272 33.9456 64.1974C33.755 64.3271 33.5008 64.3108 33.3102 64.1649L31.944 63.095L30.8161 64.246L31.8487 65.6402C31.9916 65.8347 32.0075 66.0941 31.8804 66.2887C31.4197 67.002 31.102 67.7963 30.9273 68.6231C30.8796 68.8501 30.689 69.0284 30.4507 69.0608L28.7668 69.2878V70.909L30.4666 71.1359C30.7049 71.1683 30.8796 71.3467 30.9432 71.5736C31.1179 72.4004 31.4356 73.1786 31.8963 73.9081C32.0234 74.1026 32.0075 74.362 31.8646 74.5566L30.832 75.9508L31.9599 77.1018L33.3261 76.048C33.5167 75.9021 33.7709 75.8859 33.9615 76.0156C34.6605 76.4695 35.423 76.81 36.2491 76.9883C36.4715 77.0369 36.6462 77.2315 36.678 77.4746L36.8845 79.1931ZM37.6788 73.3083C35.9472 73.3083 34.5334 71.8654 34.5334 70.0984C34.5334 68.3313 35.9472 66.8885 37.6788 66.8885C39.4104 66.8885 40.8242 68.3313 40.8242 70.0984C40.8242 71.8654 39.4104 73.3083 37.6788 73.3083ZM37.6788 68.0233C36.5668 68.0233 35.6454 68.9474 35.6454 70.0984C35.6454 71.2332 36.5509 72.1735 37.6788 72.1735C38.7908 72.1735 39.7122 71.2494 39.7122 70.0984C39.7122 68.9636 38.8067 68.0233 37.6788 68.0233Z" fill="white"/>
<path d="M37.6791 64.3433C34.5654 64.3433 32.0396 66.9209 32.0396 70.0984C32.0396 73.2758 34.5654 75.8535 37.6791 75.8535C40.7927 75.8535 43.3186 73.2758 43.3186 70.0984C43.3186 66.9209 40.7927 64.3433 37.6791 64.3433ZM37.6791 74.3134C35.4074 74.3134 33.5487 72.4328 33.5487 70.0984C33.5487 67.7801 35.3915 65.8834 37.6791 65.8834C39.9507 65.8834 41.8094 67.7639 41.8094 70.0984C41.8094 72.4328 39.9507 74.3134 37.6791 74.3134Z" fill="white"/>
<path d="M75.6866 34.7214V30.0492C75.6866 28.3924 74.3434 27.0492 72.6866 27.0492H20.2131C18.5563 27.0492 17.2131 28.3924 17.2131 30.0492V64.541C17.2131 66.1979 18.5563 67.541 20.2131 67.541H24.3135" stroke="white" stroke-width="3"/>
<path d="M23.4783 35.9999H31.8316" stroke="white" stroke-width="3"/>
<path d="M37.679 56.7431V37.7049H82.787V70.9508H52.4417" stroke="white" stroke-width="3"/>
<path d="M43.5261 44.5246H77.7748" stroke="white" stroke-width="3"/>
<defs>
<linearGradient id="paint0_linear" x1="50" y1="0" x2="50" y2="100" gradientUnits="userSpaceOnUse">
<stop stop-color="#B9DAFC"/>
<stop offset="1" stop-color="#C7BFFD"/>
</linearGradient>
</defs>
</svg>
