<svg width="100" height="100" viewBox="0 0 100 100" fill="none" xmlns="http://www.w3.org/2000/svg">
<circle cx="50" cy="50" r="50" fill="url(#paint0_linear)"/>
<path d="M44.8511 35.5045V51.4273C44.8547 52.2711 45.19 53.0797 45.7847 53.6788L55.9808 63.8694C56.8825 63.2866 57.7333 62.6306 58.4884 61.8695L51.2237 54.6119V35.5045H44.8511Z" fill="white"/>
<path d="M47.2591 20.4237C33.8734 22.0422 23.8019 33.5318 23.8019 47.3123C23.8019 72.8988 58.9747 79.6511 68.7295 56.3693L69.6008 54.2897H67.346H64.118L74.9614 40.1234L85.8191 54.2897H83.9522H82.7426L82.4863 55.4718C78.912 71.9592 63.5644 79.8008 48.848 78.7323C41.5147 78.1999 34.4692 75.4479 29.2751 70.5476C24.1055 65.6704 20.6878 58.5914 20.6878 49.2045H20.6878L20.6877 49.1911C20.5505 33.9151 32.2932 21.4706 47.2591 20.4237Z" stroke="white" stroke-width="3"/>
<defs>
<linearGradient id="paint0_linear" x1="50" y1="0" x2="50" y2="100" gradientUnits="userSpaceOnUse">
<stop stop-color="#B9DAFC"/>
<stop offset="1" stop-color="#C7BFFD"/>
</linearGradient>
</defs>
</svg>
