<svg width="100" height="100" viewBox="0 0 100 100" fill="none" xmlns="http://www.w3.org/2000/svg">
<circle cx="50" cy="50" r="50" fill="url(#paint0_linear)"/>
<path d="M50.0688 49.5879C50.4791 49.3738 50.9721 49.3575 51.4393 49.5425C51.9065 49.7275 52.3096 50.0987 52.56 50.5744L60.4267 65.5214C60.5936 65.8385 60.8624 66.086 61.1738 66.2093C61.4853 66.3327 61.814 66.3218 62.0875 66.1791C62.3611 66.0364 62.5571 65.7735 62.6326 65.4484C62.708 65.1232 62.6566 64.7624 62.4897 64.4452L59.3014 58.3875L59.4738 58.2854C60.1127 57.9156 60.7778 57.5808 61.1912 57.4718C61.5016 57.3922 61.9185 57.385 62.3444 57.425C62.5562 57.4426 62.8389 57.6151 63.0491 58.0145L65.5841 62.831C65.751 63.1481 66.0197 63.3956 66.3312 63.5189C66.6427 63.6423 66.9713 63.6314 67.2449 63.4887C67.5185 63.346 67.7145 63.0831 67.7899 62.758C67.8654 62.4328 67.814 62.072 67.647 61.7549L65.6772 58.0121L65.8833 57.8741C66.505 57.4767 67.0755 57.2218 67.3942 57.2079C67.6955 57.1909 68.2737 57.3801 68.938 57.7132C69.226 57.8556 69.4866 58.0062 69.6766 58.1174L71.3708 61.3364C71.5377 61.6535 71.8065 61.901 72.1179 62.0243C72.4294 62.1477 72.7581 62.1368 73.0316 61.9941C73.3052 61.8514 73.5013 61.5885 73.5767 61.2634C73.6521 60.9382 73.6007 60.5774 73.4338 60.2602L72.1751 57.8687L72.8806 57.5007C73.1689 57.3503 73.4909 57.2716 73.8258 57.2697C74.1607 57.2678 74.501 57.3428 74.8249 57.4898C75.1488 57.6368 75.4489 57.8525 75.7061 58.123C75.9632 58.3936 76.1716 58.713 76.3178 59.0606L79.1761 65.8452C79.543 66.7172 79.7452 67.641 79.7694 68.5563L79.9653 75.8976C79.9715 76.1277 79.9212 76.3478 79.8197 76.5356C79.7182 76.7235 79.569 76.8724 79.3872 76.9673L66.3864 83.7493C66.195 83.8491 65.9749 83.8852 65.7507 83.8536C65.5265 83.822 65.3071 83.7239 65.1169 83.5703L59.4727 79.001L49.023 71.6958C48.7537 71.5065 48.5455 71.2248 48.4375 70.9037C48.3295 70.5825 48.3292 70.2441 48.4366 69.9519C48.544 69.6596 48.7518 69.4338 49.0208 69.3167C49.2898 69.1997 49.6017 69.1995 49.8977 69.3161L57.9028 72.4862C58.1351 72.5785 58.379 72.5968 58.6036 72.5388C58.8281 72.4808 59.0233 72.349 59.1643 72.1603C59.3054 71.9715 59.386 71.7341 59.3959 71.4783C59.4059 71.2224 59.3448 70.9595 59.2203 70.7229L49.4655 52.1887C49.2152 51.7129 49.1381 51.1717 49.2512 50.684C49.3643 50.1962 49.6584 49.802 50.0688 49.5879ZM58.0415 55.9936L54.6229 49.4983C54.0387 48.3883 53.0981 47.5222 52.008 47.0905C50.9179 46.6588 49.7676 46.6969 48.8101 47.1964C47.8526 47.6959 47.1664 48.6158 46.9025 49.7539C46.6385 50.8919 46.8184 52.1548 47.4026 53.2648L55.6381 68.9125L50.4663 66.8645C49.598 66.5234 48.6837 66.5249 47.895 66.8688C47.1063 67.2128 46.4975 67.8754 46.1828 68.7325C45.868 69.5895 45.869 70.5821 46.1856 71.5238C46.5021 72.4655 47.1124 73.2917 47.902 73.8473L58.2681 81.0986L63.8332 85.6024C64.4039 86.0642 65.0629 86.3592 65.7362 86.4543C66.4095 86.5494 67.0705 86.4408 67.6451 86.1408L80.6459 79.3589C81.1912 79.0741 81.6388 78.6273 81.9434 78.0638C82.248 77.5002 82.3987 76.8399 82.3803 76.1497L82.1856 68.8108C82.1517 67.5279 81.8681 66.2332 81.3533 65.0112L78.4951 58.2265C78.2025 57.5317 77.7856 56.8933 77.2713 56.3526C76.757 55.8118 76.1568 55.3807 75.5092 55.087C74.8617 54.7933 74.1812 54.6435 73.5117 54.6473C72.8421 54.6512 72.1984 54.8085 71.6219 55.1091L70.4234 55.7344C70.188 55.5991 69.9498 55.4713 69.7089 55.3511C69.0267 55.009 67.9419 54.5416 66.9923 54.5858C66.0576 54.6284 65.0809 55.1806 64.4675 55.5737L64.2103 55.7445C63.6476 55.2073 62.9535 54.8775 62.247 54.8118C61.6054 54.742 60.9698 54.7776 60.362 54.9172C59.6444 55.1026 58.7645 55.5738 58.138 55.9372L58.0415 55.9936Z" fill="white"/>
<path d="M19.8699 47.4356L38.8896 14.6627C39.173 14.1757 39.6622 13.9344 40.156 13.9344C40.6498 13.9344 41.1436 14.1757 41.4225 14.6627L60.4421 47.4356C61.0045 48.4097 60.3004 49.6205 59.1757 49.6205H21.1363C20.0116 49.6205 19.3075 48.4097 19.8699 47.4356ZM55.6918 46.1657L40.156 19.392L24.6202 46.1657H55.6918Z" fill="white" fill-opacity="0.8"/>
<path d="M42.3506 41.2452C42.3506 41.8246 42.1194 42.3804 41.7078 42.7901C41.2962 43.1998 40.738 43.43 40.156 43.43C39.574 43.43 39.0158 43.1998 38.6042 42.7901C38.1926 42.3804 37.9614 41.8246 37.9614 41.2452C37.9614 40.6657 38.1926 40.11 38.6042 39.7002C39.0158 39.2905 39.574 39.0603 40.156 39.0603C40.738 39.0603 41.2962 39.2905 41.7078 39.7002C42.1194 40.11 42.3506 40.6657 42.3506 41.2452V41.2452ZM41.6191 27.4077V35.783C41.6191 35.9833 41.4545 36.1472 41.2533 36.1472H39.0587C38.8575 36.1472 38.693 35.9833 38.693 35.783V27.4077C38.693 27.2074 38.8575 27.0436 39.0587 27.0436H41.2533C41.4545 27.0436 41.6191 27.2074 41.6191 27.4077Z" fill="white" fill-opacity="0.8"/>
<defs>
<linearGradient id="paint0_linear" x1="50" y1="0" x2="50" y2="100" gradientUnits="userSpaceOnUse">
<stop stop-color="#B9DAFC"/>
<stop offset="1" stop-color="#C7BFFD"/>
</linearGradient>
</defs>
</svg>
