<svg width="100" height="100" viewBox="0 0 100 100" fill="none" xmlns="http://www.w3.org/2000/svg">
<circle r="50" transform="matrix(-1 0 0 1 50 50)" fill="url(#paint0_linear)"/>
<path d="M74.6104 34.4048V29.2296C74.6104 27.5727 73.2672 26.2296 71.6104 26.2296H20.2131C18.5563 26.2296 17.2131 27.5727 17.2131 29.2296V66.3766C17.2131 68.0334 18.5563 69.3766 20.2131 69.3766H56.6379" stroke="white" stroke-width="3"/>
<path d="M82.7869 41.1731C82.7064 39.4167 81.6605 37.9657 80.2927 37.6603C80.0513 37.5839 79.8904 37.5839 79.7295 37.5839H62.9136C62.7527 37.5839 62.5918 37.5839 62.4309 37.6603C60.9826 37.9657 59.9367 39.4167 59.8562 41.1731C59.8562 41.2494 59.8562 41.4022 59.8562 41.4785V49.2868H60.4194V48.5232V41.4785C60.4194 41.4022 60.4194 41.3258 60.4194 41.2494H82.1432V41.3258C82.1432 41.4022 82.1432 41.4785 82.1432 41.5549V74.4681H60.4194V60.8227H59.8562V75.6135C59.8562 77.4463 60.9826 79.1263 62.3504 79.4318C62.5113 79.5081 62.6723 79.5081 62.8332 79.5081H79.649C79.8099 79.5081 79.9709 79.5081 80.1318 79.4318C81.58 79.1263 82.7064 77.4463 82.7064 75.6135V41.4785C82.7869 41.3258 82.7869 41.2494 82.7869 41.1731ZM73.2123 77.5227H69.3503C68.8676 77.5227 68.5457 77.0645 68.5457 76.5299C68.5457 75.9954 68.8676 75.5372 69.3503 75.5372H73.2123C73.6951 75.5372 74.0169 75.9954 74.0169 76.5299C74.0169 77.0645 73.6951 77.5227 73.2123 77.5227Z" fill="white"/>
<path d="M22.0408 33.2169H69.5114" stroke="white" stroke-width="3"/>
<path fill-rule="evenodd" clip-rule="evenodd" d="M59.052 55.0525C59.052 54.8209 59.1349 54.5988 59.2824 54.435C59.43 54.2712 59.6301 54.1792 59.8387 54.1792H72.4564L69.0781 50.4312C68.9304 50.2672 68.8474 50.0448 68.8474 49.8129C68.8474 49.581 68.9304 49.3586 69.0781 49.1946C69.2258 49.0307 69.4262 48.9385 69.6351 48.9385C69.844 48.9385 70.0444 49.0307 70.1921 49.1946L74.9126 54.4342C74.9859 54.5153 75.044 54.6117 75.0836 54.7178C75.1233 54.8239 75.1437 54.9376 75.1437 55.0525C75.1437 55.1674 75.1233 55.2811 75.0836 55.3872C75.044 55.4933 74.9859 55.5896 74.9126 55.6708L70.1921 60.9103C70.0444 61.0743 69.844 61.1664 69.6351 61.1664C69.4262 61.1664 69.2258 61.0743 69.0781 60.9103C68.9304 60.7464 68.8474 60.524 68.8474 60.2921C68.8474 60.0602 68.9304 59.8378 69.0781 59.6738L72.4564 55.9257H59.8387C59.6301 55.9257 59.43 55.8337 59.2824 55.67C59.1349 55.5062 59.052 55.2841 59.052 55.0525Z" fill="white"/>
<path fill-rule="evenodd" clip-rule="evenodd" d="M60.6611 55.0525C60.6611 54.8209 60.5782 54.5988 60.4307 54.435C60.2832 54.2712 60.083 54.1792 59.8744 54.1792H47.2568L50.635 50.4312C50.7827 50.2672 50.8657 50.0448 50.8657 49.8129C50.8657 49.581 50.7827 49.3586 50.635 49.1946C50.4873 49.0307 50.2869 48.9385 50.078 48.9385C49.8691 48.9385 49.6687 49.0307 49.521 49.1946L44.8005 54.4342C44.7273 54.5153 44.6692 54.6117 44.6295 54.7178C44.5898 54.8239 44.5694 54.9376 44.5694 55.0525C44.5694 55.1674 44.5898 55.2811 44.6295 55.3872C44.6692 55.4933 44.7273 55.5896 44.8005 55.6708L49.521 60.9103C49.6687 61.0743 49.8691 61.1664 50.078 61.1664C50.2869 61.1664 50.4873 61.0743 50.635 60.9103C50.7827 60.7464 50.8657 60.524 50.8657 60.2921C50.8657 60.0602 50.7827 59.8378 50.635 59.6738L47.2568 55.9257H59.8744C60.083 55.9257 60.2832 55.8337 60.4307 55.67C60.5782 55.5062 60.6611 55.2841 60.6611 55.0525Z" fill="white"/>
<defs>
<linearGradient id="paint0_linear" x1="50" y1="0" x2="50" y2="100" gradientUnits="userSpaceOnUse">
<stop stop-color="#B9DAFC"/>
<stop offset="1" stop-color="#C7BFFD"/>
</linearGradient>
</defs>
</svg>
