<svg width="100" height="100" viewBox="0 0 100 100" fill="none" xmlns="http://www.w3.org/2000/svg">
<circle cx="50" cy="50" r="50" fill="url(#paint0_linear)"/>
<path d="M66.0552 52.0916L66.056 52.094C66.5364 53.5662 68.3592 54.0403 69.585 53.1971L69.5851 53.1971L69.5908 53.1931C70.0942 52.8363 70.6967 52.887 71.1292 53.1756C71.5571 53.4612 71.7611 53.9316 71.5686 54.4342L71.5686 54.4342L71.5667 54.4394C71.0244 55.9042 72.2233 57.3199 73.7603 57.2793C74.4118 57.2673 74.8411 57.6422 74.9949 58.0793C75.1468 58.5112 75.0376 59.0138 74.5372 59.3365C73.1996 60.1812 73.2192 62.0137 74.5295 62.8828L74.5294 62.8829L74.5403 62.8898C75.0575 63.214 75.1633 63.714 75.0096 64.142C74.8526 64.5796 74.4141 64.957 73.7602 64.945C72.2233 64.9044 71.0244 66.3201 71.5667 67.7849L71.5666 67.7849L71.5686 67.7901C71.7615 68.2938 71.556 68.7734 71.1271 69.0628C70.6963 69.3534 70.0988 69.4036 69.5973 69.0359L69.5944 69.0338C68.3516 68.1362 66.5321 68.6726 66.0562 70.1297C65.8818 70.6619 65.3865 70.9532 64.8363 70.9532C64.2864 70.9532 63.7913 70.6622 63.6167 70.1303C63.1362 68.658 61.3135 68.184 60.0876 69.0272L60.0876 69.0272L60.0819 69.0312C59.5785 69.388 58.976 69.3373 58.5435 69.0487C58.1156 68.7631 57.9116 68.2927 58.1041 67.7901L58.1041 67.7901L58.106 67.7849C58.6482 66.3201 57.4494 64.9044 55.9124 64.945C55.2609 64.9569 54.8315 64.5821 54.6778 64.145C54.5258 63.7131 54.6351 63.2105 55.1355 62.8878C56.473 62.043 56.4535 60.2106 55.1432 59.3415L55.1433 59.3413L55.1323 59.3345C54.6152 59.0103 54.5094 58.5103 54.663 58.0823C54.8201 57.6447 55.2586 57.2673 55.9124 57.2793C57.4494 57.3199 58.6482 55.9042 58.106 54.4394L58.1054 54.4376C57.9085 53.9119 58.1199 53.4318 58.5456 53.1446C58.9766 52.8538 59.5774 52.8027 60.0803 53.1581C61.3192 54.0508 63.1364 53.5212 63.6152 52.0983L63.6153 52.0984L63.6174 52.0916C63.7946 51.5393 64.2931 51.2457 64.8363 51.2457C65.3796 51.2457 65.8781 51.5393 66.0552 52.0916Z" stroke="white"/>
<path d="M61.001 68.495V80.3279L64.8359 78.3557L68.6708 80.3279V68.495" stroke="white" stroke-width="2"/>
<path d="M60.15 63.0752L60.1462 63.0667L60.1423 63.0584C59.8573 62.4477 59.7007 61.7802 59.7007 61.084C59.7007 58.4247 61.9723 56.183 64.8205 56.183C66.2006 56.183 67.4199 56.7064 68.359 57.5491C69.3441 58.4381 69.9404 59.6843 69.9404 61.084C69.9404 63.7433 67.6688 65.985 64.8205 65.985C62.7144 65.985 60.9014 64.7658 60.15 63.0752Z" stroke="white" stroke-width="2"/>
<path d="M56.639 74.7615H22.5297C19.5929 74.7615 17.2134 72.3719 17.2134 69.4226V32.3881C17.2134 29.4389 19.5929 27.0493 22.5297 27.0493H77.4708C80.4076 27.0493 82.7871 29.4389 82.7871 32.3881V69.4226C82.7871 72.3719 80.4076 74.7615 77.4708 74.7615H72.8356" stroke="white" stroke-width="3" stroke-miterlimit="10"/>
<rect x="21.3118" y="30.9914" width="57.377" height="2.3711" rx="1.18555" fill="white"/>
<rect x="48.3608" y="38.1047" width="30.3279" height="2.3711" rx="1.18555" fill="white"/>
<rect x="48.3608" y="44.4276" width="30.3279" height="2.3711" rx="1.18555" fill="white"/>
<rect x="21.3118" y="61.0349" width="29.5082" height="2.3711" rx="1.18555" fill="white"/>
<rect x="21.3118" y="67.3578" width="22.9508" height="2.3711" rx="1.18555" fill="white"/>
<rect x="22.3118" y="39.1047" width="20.1311" height="13.8073" stroke="white" stroke-width="2"/>
<defs>
<linearGradient id="paint0_linear" x1="50" y1="0" x2="50" y2="100" gradientUnits="userSpaceOnUse">
<stop stop-color="#B9DAFC"/>
<stop offset="1" stop-color="#C7BFFD"/>
</linearGradient>
</defs>
</svg>
