<svg width="100" height="100" viewBox="0 0 100 100" fill="none" xmlns="http://www.w3.org/2000/svg">
<circle r="50" transform="matrix(-1 0 0 1 50 50)" fill="url(#paint0_linear)"/>
<path d="M38.4586 79.5083H35.1328C33.01 79.5083 31.29 76.5115 31.29 72.8128V26.3677C31.29 22.6691 33.01 19.6722 35.1328 19.6722H74.8457C76.9685 19.6722 78.6884 22.6691 78.6884 26.3677V72.8128C78.6884 76.5115 76.9685 79.5083 74.8457 79.5083H57.2757" stroke="white" stroke-width="3" stroke-miterlimit="10"/>
<rect x="35.4475" y="27.869" width="39.0829" height="2.45902" rx="1.22951" fill="white"/>
<rect x="35.4475" y="36.8853" width="19.1257" height="2.45902" rx="1.22951" fill="white"/>
<rect x="54.5732" y="55.7377" width="19.1257" height="2.45902" rx="1.22951" fill="white"/>
<rect x="35.4475" y="45.082" width="15.7995" height="2.45902" rx="1.22951" fill="white"/>
<rect x="57.8994" y="63.9345" width="15.7995" height="2.45902" rx="1.22951" fill="white"/>
<rect width="9.3207" height="1.51974" rx="0.759872" transform="matrix(0.488056 0.872812 -0.878685 0.477402 52.6748 79.6639)" fill="white"/>
<path d="M47.7513 81.6817C52.7112 81.6817 56.7287 77.7216 56.7287 72.8325C56.7783 67.8946 52.7112 63.9345 47.7513 63.9345C42.7914 63.9345 38.7739 67.8946 38.7739 72.7837C38.7739 77.6727 42.7914 81.6817 47.7513 81.6817ZM47.7513 65.2545C51.9672 65.2545 55.4391 68.628 55.4391 72.8325C55.4391 76.9882 52.0168 80.4105 47.7513 80.4105C43.5354 80.4105 40.0635 77.0371 40.0635 72.8325C40.1131 68.628 43.5354 65.2545 47.7513 65.2545Z" fill="white"/>
<rect x="47.0896" y="67.3497" width="1.38592" height="10.2459" rx="0.692959" fill="white"/>
<rect x="43.6245" y="72.8143" width="1.38592" height="4.78142" rx="0.692959" fill="white"/>
<rect x="50.5544" y="70.082" width="1.38592" height="7.51366" rx="0.692959" fill="white"/>
<path d="M60.2761 46.572C59.0668 45.3785 58.3405 43.7914 58.2332 42.1079C58.1258 40.4244 58.6449 38.7601 59.6931 37.4268C60.7413 36.0935 62.2468 35.1827 63.9274 34.865C65.608 34.5472 67.3485 34.8444 68.8227 35.7008L69.6577 34.8779C67.9587 33.8065 65.9182 33.3915 63.9279 33.7125C61.9375 34.0336 60.1376 35.068 58.8737 36.6172C57.6097 38.1664 56.9709 40.1212 57.0798 42.1063C57.1887 44.0914 58.0377 45.9669 59.4637 47.3728C60.7804 48.6698 62.5061 49.4858 64.3564 49.6862C66.2067 49.8866 68.0711 49.4594 69.642 48.4752L68.8051 47.6502C66.1115 49.2066 62.5844 48.8474 60.2761 46.572V46.572Z" fill="white"/>
<path d="M73.3284 44.9707C73.7681 43.9247 73.9944 42.8036 73.9944 41.6714C73.9944 40.5392 73.7681 39.4181 73.3284 38.3722C73.2966 38.2968 73.2637 38.2218 73.2298 38.1473C72.7956 37.1887 72.1864 36.3168 71.4326 35.5751L71.0266 35.1747L70.6203 35.5751L64.4355 41.6714L70.6332 47.7805L71.0266 48.1682L71.4326 47.7678C72.1739 47.0383 72.7753 46.1828 73.208 45.2425C73.2497 45.1526 73.2898 45.0619 73.3284 44.9707V44.9707ZM71.0107 36.7917C72.1946 38.1497 72.8456 39.8809 72.8456 41.6714C72.8456 43.4619 72.1946 45.1932 71.0107 46.5511L66.0603 41.6714L71.0107 36.7917Z" fill="white"/>
<path d="M21.4707 73.8422L27.146 73.8431L27.1423 72.6043L21.4669 72.6033L21.4707 73.8422Z" fill="white"/>
<path d="M22.9098 78.4438L21.5018 80.4129L24.0559 85.4579L24.0371 82.0512C23.6553 81.8467 23.3756 81.332 23.3719 80.661C23.3676 79.8867 23.8138 79.2133 24.3328 79.2105C24.8519 79.2078 25.3055 79.8764 25.3098 80.6507C25.3132 81.2701 25.0395 81.8393 24.6597 81.9962L24.6785 85.403L27.177 80.3826L25.782 78.4285L27.1899 76.4595L27.1822 75.0658L21.5068 75.0445L21.5145 76.4381L22.9098 78.4438Z" fill="white"/>
<path d="M21.3985 49.184L21.4519 71.3799L25.12 71.3603L24.9959 48.9068L25.8956 48.902L26.0197 71.3555L27.127 71.3496L27.0736 49.1538C27.0636 47.3472 26.0867 45.907 24.8756 45.9135L23.5606 45.9205C22.3843 45.9784 21.3888 47.429 21.3985 49.184Z" fill="white"/>
<defs>
<linearGradient id="paint0_linear" x1="50" y1="0" x2="50" y2="100" gradientUnits="userSpaceOnUse">
<stop stop-color="#B9DAFC"/>
<stop offset="1" stop-color="#C7BFFD"/>
</linearGradient>
</defs>
</svg>
