<svg width="960" height="390" viewBox="0 0 960 390" fill="none" xmlns="http://www.w3.org/2000/svg">
<ellipse rx="42.0515" ry="42.3163" transform="matrix(-1 0 0 1 42.0516 86.8487)" fill="url(#paint0_linear)"/>
<path d="M32.771 112.516H30.6066C30.3661 112.516 30.179 112.338 30.139 112.104L29.9386 110.554C29.3641 110.403 28.8296 110.17 28.3086 109.868L27.0928 110.815C26.9057 110.966 26.6385 110.938 26.4782 110.774L24.9684 109.196C24.8081 109.031 24.7814 108.757 24.9284 108.565L25.8502 107.316C25.5563 106.795 25.3292 106.232 25.1822 105.642L23.6591 105.436C23.432 105.409 23.2583 105.203 23.2583 104.956V102.747C23.2583 102.5 23.432 102.308 23.6591 102.267L25.1822 102.061C25.3292 101.485 25.5563 100.922 25.8502 100.401L24.9284 99.1524C24.7814 98.9603 24.8081 98.6859 24.9684 98.5213L26.4915 96.9572C26.6519 96.7925 26.9191 96.7651 27.1061 96.916L28.3219 97.8627C28.8296 97.5609 29.3774 97.3276 29.9519 97.1767L30.1523 95.6126C30.179 95.3794 30.3795 95.201 30.6199 95.201H32.771C33.0115 95.201 33.1985 95.3794 33.2386 95.6126L33.439 97.163C34.0135 97.3139 34.5479 97.5472 35.069 97.849L36.2848 96.9023C36.4719 96.7514 36.7391 96.7788 36.8994 96.9435L38.4225 98.5076C38.5828 98.6722 38.6095 98.9466 38.4626 99.1387L37.5407 100.387C37.8346 100.909 38.0618 101.471 38.2087 102.047L39.7185 102.253C39.9456 102.281 40.1193 102.486 40.1193 102.733V104.942C40.1193 105.189 39.9456 105.381 39.7185 105.423L38.2087 105.628C38.0618 106.218 37.8346 106.767 37.5407 107.302L38.4626 108.551C38.6095 108.743 38.5828 109.017 38.4225 109.182L36.886 110.76C36.7257 110.924 36.4585 110.952 36.2714 110.801L35.0556 109.854C34.5479 110.156 34.0002 110.389 33.4257 110.54L33.2252 112.091C33.1985 112.338 32.9981 112.516 32.771 112.516ZM31.0208 111.556H32.3568L32.5439 110.087C32.5706 109.882 32.7175 109.731 32.9046 109.676C33.586 109.525 34.2273 109.251 34.8285 108.853C34.9888 108.743 35.2026 108.757 35.3629 108.88L36.5119 109.772L37.4605 108.798L36.5921 107.618C36.4719 107.453 36.4585 107.234 36.5654 107.069C36.9528 106.465 37.22 105.807 37.367 105.093C37.4071 104.901 37.5674 104.75 37.7678 104.723L39.1974 104.531V103.159L37.7678 102.967C37.5674 102.939 37.4205 102.788 37.367 102.596C37.22 101.896 36.9528 101.238 36.5654 100.621C36.4585 100.456 36.4719 100.236 36.5921 100.072L37.4605 98.8917L36.5119 97.9176L35.3629 98.8094C35.2026 98.9329 34.9888 98.9466 34.8285 98.8369C34.2406 98.4527 33.5993 98.1646 32.9046 98.0136C32.7175 97.9725 32.5706 97.8078 32.5439 97.602L32.3568 96.1614H31.0208L30.8337 97.6295C30.807 97.8353 30.66 97.9862 30.473 98.0411C29.7916 98.192 29.1503 98.4664 28.5491 98.8643C28.3887 98.9741 28.175 98.9603 28.0146 98.8369L26.8656 97.9313L25.917 98.9055L26.7855 100.085C26.9057 100.25 26.9191 100.47 26.8122 100.634C26.4247 101.238 26.1575 101.91 26.0106 102.61C25.9705 102.802 25.8102 102.953 25.6098 102.98L24.1935 103.172V104.545L25.6231 104.737C25.8235 104.764 25.9705 104.915 26.0239 105.107C26.1709 105.807 26.4381 106.465 26.8256 107.083C26.9324 107.247 26.9191 107.467 26.7988 107.632L25.9304 108.812L26.879 109.786L28.028 108.894C28.1883 108.77 28.4021 108.757 28.5624 108.866C29.1503 109.251 29.7916 109.539 30.4863 109.69C30.6734 109.731 30.8204 109.895 30.8471 110.101L31.0208 111.556ZM31.6888 106.575C30.2325 106.575 29.0434 105.354 29.0434 103.858C29.0434 102.363 30.2325 101.142 31.6888 101.142C33.1451 101.142 34.3342 102.363 34.3342 103.858C34.3342 105.354 33.1451 106.575 31.6888 106.575ZM31.6888 102.102C30.7536 102.102 29.9786 102.884 29.9786 103.858C29.9786 104.819 30.7402 105.615 31.6888 105.615C32.624 105.615 33.3989 104.833 33.3989 103.858C33.3989 102.898 32.6374 102.102 31.6888 102.102Z" fill="white"/>
<path d="M31.6888 98.9878C29.0701 98.9878 26.9458 101.169 26.9458 103.858C26.9458 106.548 29.0701 108.729 31.6888 108.729C34.3074 108.729 36.4318 106.548 36.4318 103.858C36.4318 101.169 34.3074 98.9878 31.6888 98.9878ZM31.6888 107.426C29.7782 107.426 28.2151 105.834 28.2151 103.858C28.2151 101.896 29.7649 100.291 31.6888 100.291C33.5993 100.291 35.1625 101.883 35.1625 103.858C35.1625 105.834 33.5993 107.426 31.6888 107.426Z" fill="white"/>
<path d="M63.6544 73.918V70.4249C63.6544 68.768 62.3113 67.4249 60.6544 67.4249H17.4766C15.8197 67.4249 14.4766 68.768 14.4766 70.4249V98.6941C14.4766 100.351 15.8197 101.694 17.4766 101.694H20.4482" stroke="white" stroke-width="3"/>
<path d="M19.7456 75.0001H26.771" stroke="white" stroke-width="3"/>
<path d="M31.6887 92.5556V76.4431H69.6259V104.58H44.1047" stroke="white" stroke-width="3"/>
<path d="M36.6064 82.2148H65.4106" stroke="white" stroke-width="3"/>
<ellipse cx="656.237" cy="64.65" rx="42.0515" ry="42.3163" fill="url(#paint1_linear)"/>
<path d="M651.906 52.3821V65.858C651.91 66.5721 652.192 67.2565 652.692 67.7635L661.267 76.388C662.025 75.8948 662.741 75.3396 663.376 74.6955L657.266 68.5531V52.3821H651.906Z" fill="white"/>
<path d="M646.858 41.4617C639.167 45.1953 633.965 53.1964 633.965 62.3753C633.965 84.2647 663.901 90.0832 672.21 70.1265L673.075 68.0499H670.825H668.582L677.23 56.6801L685.89 68.0499H684.792H683.58L683.325 69.234C680.349 83.0504 667.571 89.6346 655.286 88.7371C649.167 88.29 643.297 85.9798 638.974 81.8755C634.674 77.794 631.823 71.8634 631.823 63.9768H631.823L631.823 63.9634C631.731 53.7108 637.978 44.9882 646.858 41.4617Z" stroke="white" stroke-width="3"/>
<ellipse cx="747.264" cy="122.922" rx="42.0515" ry="42.3163" fill="url(#paint2_linear)"/>
<path d="M741.574 95.1732V106.636C741.574 107.397 741.267 108.125 740.72 108.663C740.174 109.2 739.433 109.502 738.66 109.502H727.003" stroke="white" stroke-width="3" stroke-linecap="round" stroke-linejoin="round"/>
<path d="M767.801 123.831V100.905C767.801 99.3847 767.187 97.9269 766.094 96.852C765.001 95.7771 763.519 95.1732 761.973 95.1732H741.574L727.003 109.502V143.892" stroke="white" stroke-width="3" stroke-linecap="round" stroke-linejoin="round"/>
<rect x="766.83" y="131.474" width="1.94218" height="4.29873" rx="0.971089" fill="white"/>
<rect x="766.83" y="138.16" width="1.94218" height="4.29873" rx="0.971089" fill="white"/>
<rect x="760.03" y="124.309" width="1.94218" height="4.29873" rx="0.971089" fill="white"/>
<rect x="760.03" y="130.996" width="1.94218" height="4.29873" rx="0.971089" fill="white"/>
<rect x="753.23" y="130.518" width="1.94218" height="4.29873" rx="0.971089" fill="white"/>
<rect x="746.431" y="127.175" width="1.94218" height="4.29873" rx="0.971089" fill="white"/>
<rect x="746.431" y="133.862" width="1.94218" height="4.29873" rx="0.971089" fill="white"/>
<rect x="739.631" y="143.414" width="1.94218" height="4.29873" rx="0.971089" fill="white"/>
<rect x="753.23" y="137.683" width="1.94218" height="4.29873" rx="0.971089" fill="white"/>
<rect x="726.031" y="149.146" width="1.94218" height="4.29873" rx="0.971089" fill="white"/>
<rect x="746.431" y="140.549" width="1.94218" height="4.29873" rx="0.971089" fill="white"/>
<rect x="732.832" y="139.593" width="1.94218" height="4.29873" rx="0.971089" fill="white"/>
<rect x="732.832" y="146.28" width="1.94218" height="4.29873" rx="0.971089" fill="white"/>
<ellipse rx="42.0515" ry="42.3163" transform="matrix(-1 0 0 1 305.79 63.2626)" fill="url(#paint3_linear)"/>
<path d="M327.804 60.2275L327.804 60.227C327.205 55.8277 325.316 51.7075 322.38 48.3922C319.443 45.0768 315.59 42.7166 311.314 41.6131C307.037 40.5097 302.531 40.7133 298.37 42.1978C294.209 43.6822 290.583 46.3799 287.953 49.9463C287.953 49.9465 287.953 49.9468 287.953 49.947L287.56 50.4763L286.967 51.2744H287.961H298.043C298.321 51.2744 298.588 51.3854 298.785 51.5839C298.983 51.7826 299.094 52.0527 299.094 52.335C299.094 52.6173 298.983 52.8875 298.785 53.0861C298.588 53.2847 298.321 53.3957 298.043 53.3957H285.634C285.357 53.3957 285.09 53.2847 284.892 53.0861C284.695 52.8875 284.583 52.6173 284.583 52.335V39.8497C284.583 39.5674 284.695 39.2973 284.892 39.0986C285.09 38.9 285.357 38.789 285.634 38.789C285.912 38.789 286.179 38.9 286.377 39.0986C286.574 39.2973 286.686 39.5674 286.686 39.8497V46.7385V48.0664L287.561 47.0683C291.373 42.7243 296.593 39.8829 302.291 39.0492C307.989 38.2155 313.796 39.4435 318.679 42.515C323.562 45.5865 327.203 50.3024 328.955 55.8236C330.706 61.3449 330.454 67.3125 328.242 72.6637C326.03 78.0149 322.002 82.4017 316.878 85.044C311.753 87.6862 305.863 88.4126 300.256 87.0941C294.649 85.7757 289.689 82.4977 286.258 77.8429C282.827 73.1881 281.149 67.4588 281.524 61.6752L281.524 61.6747C281.533 61.5353 281.569 61.399 281.63 61.2739C281.691 61.1487 281.776 61.037 281.88 60.9452C281.983 60.8534 282.104 60.7832 282.234 60.7385C282.365 60.6938 282.502 60.6753 282.64 60.6842C282.777 60.693 282.911 60.729 283.035 60.7902C283.159 60.8514 283.27 60.9366 283.361 61.0411C283.452 61.1456 283.522 61.2674 283.567 61.3995C283.612 61.5316 283.63 61.6714 283.622 61.8108L283.622 61.811C283.424 64.9262 283.877 68.0487 284.951 70.9772C286.026 73.9058 287.699 76.5754 289.862 78.8142C292.025 81.0529 294.63 82.811 297.51 83.9749C300.39 85.1389 303.481 85.6828 306.583 85.5716C309.684 85.4604 312.728 84.6966 315.519 83.3294C318.309 81.9622 320.783 80.0221 322.783 77.6342C324.782 75.2464 326.261 72.4637 327.126 69.4658C327.991 66.4678 328.222 63.3208 327.804 60.2275Z" fill="white" stroke="white"/>
<path d="M295.863 58.3053C295.863 58.3053 295.863 55.7705 298.382 55.7705H313.495C313.495 55.7705 316.014 55.7705 316.014 58.3053V65.9098C316.014 65.9098 316.014 68.4446 313.495 68.4446H308.458C308.458 69.2899 308.562 69.9237 308.772 70.3457H309.717C309.884 70.3457 310.044 70.4125 310.162 70.5313C310.28 70.6501 310.347 70.8113 310.347 70.9794C310.347 71.1475 310.28 71.3087 310.162 71.4275C310.044 71.5463 309.884 71.6131 309.717 71.6131H302.16C301.993 71.6131 301.833 71.5463 301.715 71.4275C301.597 71.3087 301.53 71.1475 301.53 70.9794C301.53 70.8113 301.597 70.6501 301.715 70.5313C301.833 70.4125 301.993 70.3457 302.16 70.3457H303.105C303.315 69.9237 303.42 69.2899 303.42 68.4446H298.382C298.382 68.4446 295.863 68.4446 295.863 65.9098V58.3053ZM297.624 57.2217C297.485 57.3186 297.375 57.4507 297.304 57.6044C297.196 57.8277 297.135 58.0703 297.122 58.318V65.9098C297.122 66.3217 297.221 66.546 297.305 66.6728C297.393 66.8058 297.519 66.911 297.685 66.9947C297.898 67.0981 298.128 67.1597 298.363 67.1759L298.394 67.1772H313.495C313.905 67.1772 314.128 67.0783 314.254 66.9934C314.392 66.8965 314.502 66.7644 314.574 66.6106C314.676 66.397 314.738 66.1656 314.754 65.9288L314.755 65.8971V58.3053C314.755 57.8934 314.657 57.6691 314.572 57.5423C314.476 57.4031 314.345 57.292 314.192 57.2204C313.97 57.1124 313.729 57.0503 313.483 57.0379H298.382C297.972 57.0379 297.749 57.1368 297.624 57.2217V57.2217Z" fill="white"/>
<ellipse cx="837.982" cy="65.3438" rx="42.0515" ry="42.3163" fill="url(#paint4_linear)"/>
<path d="M838.04 64.995C838.385 64.8138 838.8 64.8 839.192 64.9566C839.585 65.1132 839.924 65.4273 840.135 65.8299L846.751 78.4799C846.892 78.7483 847.118 78.9578 847.38 79.0622C847.641 79.1665 847.918 79.1573 848.148 79.0365C848.378 78.9158 848.543 78.6933 848.606 78.4181C848.67 78.1429 848.627 77.8376 848.486 77.5692L845.805 72.4424L845.95 72.3559C846.487 72.0429 847.046 71.7596 847.394 71.6674C847.655 71.6 848.006 71.5939 848.364 71.6277C848.542 71.6426 848.78 71.7886 848.957 72.1266L851.089 76.203C851.229 76.4714 851.455 76.6808 851.717 76.7852C851.979 76.8896 852.255 76.8804 852.485 76.7596C852.716 76.6388 852.88 76.4164 852.944 76.1412C853.007 75.866 852.964 75.5606 852.824 75.2922L851.167 72.1246L851.34 72.0079C851.863 71.6715 852.343 71.4557 852.611 71.444C852.864 71.4296 853.351 71.5897 853.909 71.8717C854.152 71.9922 854.371 72.1196 854.531 72.2137L855.955 74.938C856.096 75.2064 856.322 75.4159 856.584 75.5203C856.846 75.6246 857.122 75.6154 857.352 75.4947C857.582 75.3739 857.747 75.1514 857.811 74.8762C857.874 74.601 857.831 74.2957 857.69 74.0273L856.632 72.0033L857.225 71.6918C857.468 71.5645 857.739 71.4979 858.02 71.4963C858.302 71.4947 858.588 71.5582 858.86 71.6826C859.133 71.807 859.385 71.9895 859.602 72.2185C859.818 72.4475 859.993 72.7178 860.116 73.012L862.52 78.7539C862.829 79.492 862.999 80.2738 863.019 81.0484L863.184 87.2616C863.189 87.4563 863.147 87.6426 863.061 87.8016C862.976 87.9606 862.85 88.0866 862.697 88.1669L851.763 93.9067C851.603 93.9912 851.417 94.0217 851.229 93.995C851.04 93.9682 850.856 93.8852 850.696 93.7552L845.949 89.8881L837.16 83.7055C836.934 83.5453 836.759 83.3069 836.668 83.0351C836.577 82.7633 836.577 82.4769 836.667 82.2295C836.757 81.9822 836.932 81.7911 837.158 81.692C837.385 81.5929 837.647 81.5928 837.896 81.6915L844.629 84.3744C844.824 84.4525 845.029 84.468 845.218 84.4189C845.407 84.3698 845.571 84.2583 845.689 84.0986C845.808 83.9388 845.876 83.7379 845.884 83.5214C845.893 83.3049 845.841 83.0824 845.737 82.8821L837.533 67.1961C837.322 66.7935 837.257 66.3354 837.352 65.9226C837.447 65.5098 837.695 65.1762 838.04 64.995ZM844.745 70.4163L841.87 64.9191C841.379 63.9797 840.588 63.2467 839.671 62.8814C838.754 62.516 837.787 62.5483 836.981 62.971C836.176 63.3937 835.599 64.1723 835.377 65.1355C835.155 66.0986 835.306 67.1675 835.798 68.1069L842.724 81.3499L838.374 79.6166C837.644 79.3279 836.875 79.3292 836.212 79.6203C835.548 79.9114 835.036 80.4722 834.772 81.1976C834.507 81.9229 834.508 82.7629 834.774 83.5599C835.04 84.3569 835.553 85.0561 836.218 85.5264L844.936 91.6633L849.616 95.475C850.096 95.8659 850.65 96.1155 851.217 96.196C851.783 96.2765 852.339 96.1846 852.822 95.9307L863.756 90.1909C864.215 89.95 864.591 89.5718 864.847 89.0949C865.103 88.6179 865.23 88.0591 865.215 87.475L865.051 81.2638C865.023 80.1781 864.784 79.0824 864.351 78.0481L861.947 72.3061C861.701 71.718 861.35 71.1778 860.918 70.7201C860.485 70.2625 859.981 69.8976 859.436 69.649C858.891 69.4005 858.319 69.2737 857.756 69.2769C857.193 69.2802 856.651 69.4133 856.167 69.6678L855.159 70.1969C854.961 70.0825 854.76 69.9743 854.558 69.8726C853.984 69.583 853.072 69.1874 852.273 69.2249C851.487 69.2609 850.665 69.7282 850.15 70.061L849.933 70.2055C849.46 69.7509 848.876 69.4718 848.282 69.4161C847.742 69.3571 847.208 69.3872 846.697 69.5054C846.093 69.6622 845.353 70.061 844.826 70.3686L844.745 70.4163Z" fill="white"/>
<path d="M812.642 63.1734L828.638 35.4369C828.876 35.0247 829.288 34.8205 829.703 34.8205C830.118 34.8205 830.533 35.0247 830.768 35.4369L846.764 63.1734C847.237 63.9978 846.645 65.0225 845.699 65.0225H813.707C812.761 65.0225 812.169 63.9978 812.642 63.1734ZM842.769 62.0986L829.703 39.4394L816.637 62.0986H842.769Z" fill="white" fill-opacity="0.8"/>
<path d="M831.549 57.9343C831.549 58.4247 831.354 58.895 831.008 59.2418C830.662 59.5886 830.192 59.7834 829.703 59.7834C829.213 59.7834 828.744 59.5886 828.398 59.2418C828.052 58.895 827.857 58.4247 827.857 57.9343C827.857 57.4439 828.052 56.9735 828.398 56.6268C828.744 56.28 829.213 56.0852 829.703 56.0852C830.192 56.0852 830.662 56.28 831.008 56.6268C831.354 56.9735 831.549 57.4439 831.549 57.9343V57.9343ZM830.933 46.2233V53.3115C830.933 53.481 830.795 53.6197 830.626 53.6197H828.78C828.611 53.6197 828.472 53.481 828.472 53.3115V46.2233C828.472 46.0538 828.611 45.9151 828.78 45.9151H830.626C830.795 45.9151 830.933 46.0538 830.933 46.2233Z" fill="white" fill-opacity="0.8"/>
<rect x="370.211" y="202.311" width="219.287" height="129.805" rx="19" stroke="black" stroke-width="2"/>
<path d="M491.919 225.591H407.475C401.953 225.591 397.475 230.068 397.475 235.591V256.114" stroke="black" stroke-width="2"/>
<ellipse cx="397.475" cy="263.051" rx="1.37832" ry="1.38742" fill="black"/>
<path d="M459.519 332.422C462.047 344.446 460.484 368.981 434.012 370.923H479.855" stroke="black" stroke-width="2"/>
<path d="M499.847 332.422C497.319 344.446 498.882 368.981 525.354 370.923H479.511" stroke="black" stroke-width="2"/>
<rect x="417.088" y="371.576" width="125.533" height="17.4239" rx="8.71194" stroke="black" stroke-width="2"/>
<path d="M487.676 177.031H470.615C470.615 177.031 430.929 180.796 424.361 202.005H479.166H533.97C527.363 180.796 487.676 177.031 487.676 177.031Z" fill="#CEEEED" stroke="black" stroke-width="2" stroke-miterlimit="10" stroke-linecap="round" stroke-linejoin="round"/>
<path d="M442.285 201.311V201.705H477.098H511.911V201.311L500.533 198.586L500.054 181.108C498.217 180.334 496.461 179.682 494.864 179.112L493.945 199.197L477.098 200.865L460.25 199.197L459.332 179.479C457.695 180.09 455.938 180.782 454.102 181.557L453.623 198.586L442.285 201.311Z" fill="#272F42" stroke="black" stroke-width="2" stroke-miterlimit="10" stroke-linecap="round" stroke-linejoin="round"/>
<path d="M477.795 181.073C467.934 181.073 459.877 172.965 459.877 163.042V143.276C459.877 133.353 467.934 125.245 477.795 125.245C487.656 125.245 495.713 133.353 495.713 143.276V163.042C495.713 172.965 487.656 181.073 477.795 181.073Z" fill="#FFCFBF" stroke="black" stroke-width="2" stroke-miterlimit="10" stroke-linecap="round" stroke-linejoin="round"/>
<path d="M455.547 153.885C455.547 156.305 457.511 158.241 459.876 158.241V149.488C457.471 149.488 455.547 151.465 455.547 153.885Z" fill="#FFCFBF" stroke="black" stroke-width="4" stroke-miterlimit="10" stroke-linecap="round" stroke-linejoin="round"/>
<path d="M495.714 149.488V158.241C498.119 158.241 500.043 156.265 500.043 153.885C500.043 151.465 498.119 149.488 495.714 149.488Z" fill="#FFCFBF" stroke="black" stroke-width="2" stroke-miterlimit="10" stroke-linecap="round" stroke-linejoin="round"/>
<path d="M467.854 151.747C466.01 151.747 465.97 154.651 467.854 154.651C469.697 154.692 469.697 151.747 467.854 151.747Z" fill="black"/>
<path d="M487.736 151.747C489.579 151.747 489.62 154.651 487.736 154.651C485.893 154.692 485.893 151.747 487.736 151.747Z" fill="black"/>
<path d="M472.179 169.937C472.179 169.937 478.383 171.211 483.431 169.937Z" fill="white"/>
<path d="M472.179 169.937C472.179 169.937 478.383 171.211 483.431 169.937" stroke="black" stroke-width="2" stroke-miterlimit="10" stroke-linecap="round" stroke-linejoin="round"/>
<path d="M475.35 173.772C475.35 173.772 477.394 173.206 480.2 173.772" stroke="#F9C4B7" stroke-width="4" stroke-miterlimit="10" stroke-linecap="round" stroke-linejoin="round"/>
<path d="M479.197 160.299C479.197 161.105 478.556 161.71 477.795 161.71C476.993 161.71 476.392 161.065 476.392 160.299" stroke="black" stroke-width="2" stroke-miterlimit="10" stroke-linecap="round" stroke-linejoin="round"/>
<path d="M457.031 145.091C457.031 145.091 449.014 151.989 456.47 161.146C456.47 161.146 459.115 164.817 455.387 168.729C455.387 168.729 454.786 174.296 460.358 173.57C461.28 173.449 462.523 171.593 462.883 170.908C464.527 167.802 464.166 164.333 462.923 161.227C460.959 156.386 463.324 152.271 465.569 148.157C467.814 144.042 470.901 140.331 474.468 137.346C476.833 135.37 479.559 133.797 482.405 132.667H471.181L462.082 137.467L457.031 145.091Z" fill="#A67C52" stroke="black" stroke-width="2" stroke-miterlimit="10" stroke-linejoin="round"/>
<path d="M471.783 125.204C471.783 126.616 470.66 127.746 469.257 127.746C467.854 127.746 466.732 126.616 466.732 125.204C466.732 123.793 467.854 122.663 469.257 122.663C470.66 122.663 471.783 123.793 471.783 125.204Z" fill="#BB5A5F" stroke="black" stroke-width="4" stroke-miterlimit="10" stroke-linecap="round" stroke-linejoin="round"/>
<path d="M493.069 133.836C493.069 133.796 493.028 133.796 493.028 133.756L492.908 133.675L493.069 133.836Z" fill="#A67C52" stroke="black" stroke-width="2" stroke-miterlimit="10" stroke-linejoin="round"/>
<path d="M500.163 161.428C504.533 156.063 503.41 151.505 501.847 148.722C501.847 148.722 501.486 139.283 496.075 136.419L494.872 135.41L493.028 133.877L492.828 133.716L491.825 133.191L486.294 130.206L483.889 133.877L483.608 134.321C483.608 134.321 493.509 141.42 495.674 148.681V149.569C498.079 149.569 500.003 151.545 500.003 153.925C500.003 156.346 498.039 158.282 495.674 158.282V163.082C495.674 165.865 495.032 168.528 493.91 170.867C493.91 170.867 493.91 170.867 493.91 170.908C494.271 171.593 495.473 173.368 496.355 173.489C501.767 174.175 501.206 168.81 501.206 168.81C497.638 164.938 500.163 161.428 500.163 161.428Z" fill="#A67C52" stroke="black" stroke-width="2" stroke-miterlimit="10" stroke-linejoin="round"/>
<path d="M457.592 144.648C457.592 144.648 481.163 130.085 494.632 134.805C495.273 135.047 496.716 131.094 496.796 130.69C497.598 126.455 493.429 123.026 489.821 122.219C486.173 121.413 481.924 121.251 478.277 122.098C475.27 122.784 472.063 124.236 469.458 125.89C469.458 125.89 452.181 136.822 452.862 141.703C452.822 141.662 452.702 144.89 457.592 144.648Z" fill="#F9787E" stroke="black" stroke-width="2" stroke-miterlimit="10" stroke-linecap="round" stroke-linejoin="round"/>
<path d="M590.499 256.114H653.921V107.66" stroke="black" stroke-width="3" stroke-dasharray="6 6"/>
<path d="M653.921 231.14H746.985V165.932" stroke="black" stroke-width="3" stroke-dasharray="6 6"/>
<path d="M837.982 309.53L837.982 109.741" stroke="black" stroke-width="3" stroke-dasharray="6 6"/>
<path d="M590.499 309.53H917.949V218.654" stroke="black" stroke-width="3" stroke-dasharray="6 6"/>
<path d="M369.211 256.114H305.79V107.66" stroke="black" stroke-width="3" stroke-dasharray="6 6"/>
<path d="M305.79 231.14H212.725V165.932" stroke="black" stroke-width="3" stroke-dasharray="6 6"/>
<path d="M121.729 309.53L121.729 225.591" stroke="black" stroke-width="3" stroke-dasharray="6 6"/>
<path d="M369.211 309.53H41.7616V131.94" stroke="black" stroke-width="3" stroke-dasharray="6 6"/>
<ellipse cx="917.948" cy="172.869" rx="42.0515" ry="42.3163" fill="url(#paint5_linear)"/>
<path d="M931.376 174.662L931.376 174.664C931.798 175.963 933.395 176.379 934.467 175.637L934.467 175.637L934.472 175.633C934.865 175.353 935.334 175.392 935.674 175.619C936.009 175.844 936.161 176.207 936.014 176.595L936.014 176.595L936.012 176.6C935.536 177.894 936.589 179.142 937.934 179.106C938.444 179.097 938.776 179.39 938.895 179.731C939.012 180.067 938.929 180.455 938.541 180.707C937.368 181.453 937.387 183.07 938.534 183.835L938.533 183.835L938.544 183.842C938.946 184.095 939.026 184.48 938.907 184.812C938.786 185.154 938.446 185.45 937.934 185.44C936.589 185.405 935.536 186.653 936.012 187.946L936.012 187.946L936.014 187.951C936.162 188.34 936.008 188.711 935.672 188.939C935.334 189.168 934.87 189.207 934.479 188.918L934.476 188.916C933.387 188.125 931.793 188.598 931.377 189.882C931.242 190.296 930.86 190.525 930.426 190.525C929.993 190.525 929.611 190.296 929.476 189.882C929.055 188.583 927.458 188.168 926.386 188.91L926.386 188.909L926.381 188.914C925.988 189.194 925.519 189.155 925.179 188.927C924.844 188.702 924.692 188.339 924.839 187.951L924.839 187.951L924.841 187.946C925.317 186.653 924.264 185.405 922.919 185.44C922.409 185.45 922.077 185.156 921.958 184.815C921.841 184.479 921.924 184.092 922.312 183.84C923.485 183.094 923.466 181.477 922.319 180.711L922.319 180.711L922.309 180.704C921.907 180.451 921.827 180.066 921.946 179.734C922.067 179.393 922.407 179.097 922.919 179.106C924.264 179.142 925.317 177.894 924.841 176.6L924.841 176.6L924.84 176.598C924.688 176.19 924.849 175.819 925.181 175.593C925.519 175.364 925.987 175.324 926.379 175.603C927.464 176.39 929.055 175.923 929.475 174.668L929.475 174.668L929.477 174.662C929.759 173.779 931.094 173.779 931.376 174.662ZM924.372 176.773C923.881 175.455 925.506 174.366 926.671 175.197C927.499 175.799 928.694 175.426 929.001 174.51L924.372 176.773Z" stroke="white"/>
<path d="M927.201 188.522V198.536L930.426 196.867L933.651 198.536V188.522" stroke="white" stroke-width="2"/>
<path d="M926.631 183.874L926.628 183.866L926.624 183.858C926.393 183.36 926.266 182.816 926.266 182.249C926.266 180.083 928.106 178.255 930.413 178.255C931.53 178.255 932.517 178.681 933.28 179.37C934.077 180.094 934.56 181.108 934.56 182.249C934.56 184.416 932.72 186.244 930.413 186.244C928.706 186.244 927.238 185.249 926.631 183.874Z" stroke="white" stroke-width="2"/>
<path d="M923.532 193.825H894.845C892.375 193.825 890.374 191.803 890.374 189.307V157.963C890.374 155.467 892.375 153.445 894.845 153.445H941.052C943.522 153.445 945.523 155.467 945.523 157.963V189.307C945.523 191.803 943.522 193.825 941.052 193.825H937.154" stroke="white" stroke-width="3" stroke-miterlimit="10"/>
<rect x="893.821" y="156.781" width="48.2558" height="2.00672" rx="1.00336" fill="white"/>
<rect x="916.57" y="162.801" width="25.5066" height="2.00672" rx="1.00336" fill="white"/>
<rect x="916.57" y="168.153" width="25.5066" height="2.00672" rx="1.00336" fill="white"/>
<rect x="893.821" y="182.208" width="24.8173" height="2.00672" rx="1.00336" fill="white"/>
<rect x="893.821" y="187.559" width="19.3023" height="2.00672" rx="1.00336" fill="white"/>
<rect x="894.821" y="163.801" width="16.6129" height="11.3781" stroke="white" stroke-width="2"/>
<ellipse rx="42.0515" ry="42.3163" transform="matrix(-1 0 0 1 213.103 122.922)" fill="url(#paint6_linear)"/>
<path d="M233.801 109.723V105.804C233.801 104.147 232.458 102.804 230.801 102.804H188.528C186.871 102.804 185.528 104.147 185.528 105.804V136.321C185.528 137.977 186.871 139.321 188.528 139.321H218.686" stroke="white" stroke-width="3"/>
<path d="M240.678 115.451C240.61 113.965 239.731 112.737 238.58 112.478C238.377 112.414 238.242 112.414 238.107 112.414H223.964C223.829 112.414 223.693 112.414 223.558 112.478C222.34 112.737 221.46 113.965 221.393 115.451C221.393 115.516 221.393 115.645 221.393 115.71V122.318H221.866V121.672V115.71C221.866 115.645 221.866 115.58 221.866 115.516H240.137V115.58C240.137 115.645 240.137 115.71 240.137 115.774V143.63H221.866V132.081H221.393V144.599C221.393 146.15 222.34 147.572 223.49 147.83C223.626 147.895 223.761 147.895 223.896 147.895H238.039C238.174 147.895 238.31 147.895 238.445 147.83C239.663 147.572 240.61 146.15 240.61 144.599V115.71C240.678 115.58 240.678 115.516 240.678 115.451ZM232.625 146.215H229.377C228.971 146.215 228.701 145.827 228.701 145.375C228.701 144.922 228.971 144.534 229.377 144.534H232.625C233.031 144.534 233.302 144.922 233.302 145.375C233.302 145.827 233.031 146.215 232.625 146.215Z" fill="white"/>
<path d="M189.588 108.718H229.513" stroke="white" stroke-width="3"/>
<path fill-rule="evenodd" clip-rule="evenodd" d="M220.716 127.198C220.716 127.002 220.786 126.814 220.91 126.675C221.034 126.536 221.202 126.459 221.378 126.459H231.99L229.148 123.287C229.024 123.148 228.954 122.96 228.954 122.763C228.954 122.567 229.024 122.379 229.148 122.24C229.273 122.101 229.441 122.023 229.617 122.023C229.792 122.023 229.961 122.101 230.085 122.24L234.055 126.674C234.117 126.743 234.166 126.825 234.199 126.914C234.232 127.004 234.25 127.1 234.25 127.198C234.25 127.295 234.232 127.391 234.199 127.481C234.166 127.571 234.117 127.652 234.055 127.721L230.085 132.155C229.961 132.294 229.792 132.372 229.617 132.372C229.441 132.372 229.273 132.294 229.148 132.155C229.024 132.017 228.954 131.828 228.954 131.632C228.954 131.436 229.024 131.248 229.148 131.109L231.99 127.937H221.378C221.202 127.937 221.034 127.859 220.91 127.72C220.786 127.582 220.716 127.394 220.716 127.198Z" fill="white"/>
<path fill-rule="evenodd" clip-rule="evenodd" d="M222.069 127.198C222.069 127.002 221.999 126.814 221.875 126.675C221.751 126.536 221.583 126.459 221.407 126.459H210.796L213.637 123.287C213.761 123.148 213.831 122.96 213.831 122.763C213.831 122.567 213.761 122.379 213.637 122.24C213.513 122.101 213.344 122.023 213.168 122.023C212.993 122.023 212.824 122.101 212.7 122.24L208.73 126.674C208.668 126.743 208.619 126.825 208.586 126.914C208.553 127.004 208.535 127.1 208.535 127.198C208.535 127.295 208.553 127.391 208.586 127.481C208.619 127.571 208.668 127.652 208.73 127.721L212.7 132.155C212.824 132.294 212.993 132.372 213.168 132.372C213.344 132.372 213.513 132.294 213.637 132.155C213.761 132.017 213.831 131.828 213.831 131.632C213.831 131.436 213.761 131.248 213.637 131.109L210.796 127.937H221.407C221.583 127.937 221.751 127.859 221.875 127.72C221.999 127.582 222.069 127.394 222.069 127.198Z" fill="white"/>
<ellipse rx="42.0515" ry="42.3163" transform="matrix(-1 0 0 1 122.076 180.5)" fill="url(#paint7_linear)"/>
<path d="M112.369 205.473H109.571C107.786 205.473 106.34 202.937 106.34 199.807V160.499C106.34 157.369 107.786 154.832 109.571 154.832H142.971C144.756 154.832 146.203 157.369 146.203 160.499V199.807C146.203 202.937 144.756 205.473 142.971 205.473H128.194" stroke="white" stroke-width="3" stroke-miterlimit="10"/>
<rect x="109.836" y="161.769" width="32.8699" height="2.08113" rx="1.04056" fill="white"/>
<rect x="109.836" y="169.4" width="16.0852" height="2.08113" rx="1.04056" fill="white"/>
<rect x="125.922" y="185.356" width="16.0852" height="2.08113" rx="1.04056" fill="white"/>
<rect x="109.836" y="176.337" width="13.2878" height="2.08113" rx="1.04056" fill="white"/>
<rect x="128.719" y="192.293" width="13.2878" height="2.08113" rx="1.04056" fill="white"/>
<rect width="7.87606" height="1.27969" rx="0.639846" transform="matrix(0.485724 0.874112 -0.877422 0.479719 124.325 205.605)" fill="white"/>
<path d="M120.184 207.312C124.355 207.312 127.734 203.961 127.734 199.823C127.776 195.644 124.355 192.293 120.184 192.293C116.013 192.293 112.634 195.644 112.634 199.782C112.634 203.92 116.013 207.312 120.184 207.312ZM120.184 193.41C123.73 193.41 126.65 196.265 126.65 199.823C126.65 203.34 123.771 206.237 120.184 206.237C116.638 206.237 113.718 203.382 113.718 199.823C113.76 196.265 116.638 193.41 120.184 193.41Z" fill="white"/>
<rect x="119.628" y="195.183" width="1.16525" height="8.67137" rx="0.582623" fill="white"/>
<rect x="116.713" y="199.808" width="1.16525" height="4.04664" rx="0.582623" fill="white"/>
<rect x="122.542" y="197.495" width="1.16525" height="6.35901" rx="0.582623" fill="white"/>
<path d="M130.718 177.598C129.701 176.588 129.09 175.245 129 173.82C128.909 172.395 129.346 170.987 130.227 169.859C131.109 168.73 132.375 167.959 133.789 167.69C135.202 167.421 136.666 167.673 137.906 168.398L138.608 167.701C137.179 166.795 135.463 166.443 133.789 166.715C132.115 166.987 130.601 167.862 129.538 169.173C128.475 170.484 127.938 172.139 128.03 173.819C128.121 175.499 128.835 177.086 130.035 178.276C131.142 179.374 132.593 180.064 134.149 180.234C135.706 180.404 137.274 180.042 138.595 179.209L137.891 178.511C135.625 179.828 132.659 179.524 130.718 177.598V177.598Z" fill="white"/>
<path d="M141.695 176.243C142.065 175.358 142.255 174.409 142.255 173.451C142.255 172.493 142.065 171.544 141.695 170.659C141.668 170.595 141.641 170.531 141.612 170.468C141.247 169.657 140.735 168.919 140.101 168.291L139.759 167.952L139.418 168.291L134.216 173.451L139.428 178.621L139.759 178.949L140.101 178.61C140.724 177.993 141.23 177.269 141.594 176.473C141.629 176.397 141.663 176.32 141.695 176.243V176.243ZM139.746 169.321C140.742 170.47 141.289 171.935 141.289 173.451C141.289 174.966 140.742 176.431 139.746 177.581L135.582 173.451L139.746 169.321Z" fill="white"/>
<path d="M98.0814 200.678L102.854 200.679L102.851 199.63L98.0782 199.629L98.0814 200.678Z" fill="white"/>
<path d="M99.2917 204.572L98.1076 206.239L100.256 210.508L100.24 207.625C99.9187 207.452 99.6835 207.017 99.6804 206.449C99.6768 205.793 100.052 205.223 100.489 205.221C100.925 205.219 101.307 205.785 101.31 206.44C101.313 206.964 101.083 207.446 100.763 207.579L100.779 210.462L102.881 206.213L101.707 204.559L102.891 202.893L102.885 201.713L98.1118 201.695L98.1182 202.875L99.2917 204.572Z" fill="white"/>
<path d="M98.0208 179.809L98.0657 198.594L101.151 198.577L101.046 179.574L101.803 179.57L101.907 198.573L102.839 198.568L102.794 179.783C102.785 178.254 101.964 177.035 100.945 177.041L99.8392 177.047C98.8499 177.096 98.0126 178.324 98.0208 179.809Z" fill="white"/>
<path d="M17.637 29.0736V30.8736H14.112V31.8786H17.637V33.6486H18.882V25.6086H17.637V28.0686H14.592C14.682 27.6036 14.742 27.1086 14.742 26.6136H8.66695V27.6036H13.407C13.182 29.9286 11.187 31.7136 7.97695 32.6736L8.47195 33.6486C11.367 32.8086 13.407 31.2336 14.277 29.0736H17.637ZM14.487 38.0286C12.507 38.0286 11.247 37.4136 11.247 36.3936C11.247 35.3886 12.507 34.7736 14.487 34.7736C16.467 34.7736 17.727 35.3886 17.727 36.3936C17.727 37.4136 16.467 38.0286 14.487 38.0286ZM14.487 33.7986C11.772 33.7986 10.032 34.7736 10.032 36.3936C10.032 38.0136 11.772 38.9886 14.487 38.9886C17.202 38.9886 18.942 38.0136 18.942 36.3936C18.942 34.7736 17.202 33.7986 14.487 33.7986ZM30.0708 30.1836H31.7658V33.8436H32.9508V25.6086H31.7658V29.1786H30.0708V25.8636H28.9158V33.3936H30.0708V30.1836ZM28.1808 32.0736C26.5008 31.4136 25.5708 29.9586 25.5708 28.3086V27.7086H27.9408V26.7186H21.9108V27.7086H24.3708V28.3086C24.3708 29.9886 23.4108 31.6836 21.6408 32.4336L22.3158 33.3786C23.6058 32.8086 24.5208 31.7286 24.9858 30.4236C25.4358 31.5786 26.3058 32.5236 27.5358 33.0186L28.1808 32.0736ZM28.5108 38.0736C26.5008 38.0736 25.2408 37.5336 25.2408 36.5886C25.2408 35.6586 26.5008 35.1186 28.5108 35.1186C30.5508 35.1186 31.7958 35.6586 31.7958 36.5886C31.7958 37.5336 30.5508 38.0736 28.5108 38.0736ZM28.5108 34.1586C25.7508 34.1586 24.0258 35.0436 24.0258 36.5886C24.0258 38.1336 25.7508 39.0336 28.5108 39.0336C31.2858 39.0336 33.0108 38.1336 33.0108 36.5886C33.0108 35.0436 31.2858 34.1586 28.5108 34.1586ZM39.9096 26.7636H38.6946V29.1786C38.6946 31.6236 37.1646 34.2036 35.2296 35.1936L35.9646 36.1836C37.4796 35.3736 38.7246 33.6936 39.3096 31.7286C39.9246 33.5736 41.1396 35.1486 42.5646 35.9136L43.3296 34.9386C41.4396 33.9936 39.9096 31.5486 39.9096 29.1786V26.7636ZM47.9646 31.0536H45.7446V25.6086H44.5146V39.0486H45.7446V32.0736H47.9646V31.0536ZM58.5534 30.4236H52.0134V28.6836H58.5534V30.4236ZM59.7684 26.0136H58.5534V27.7386H52.0134V26.0136H50.7984V31.3986H59.7684V26.0136ZM51.9384 35.0886H50.7234V38.7486H60.0234V37.7436H51.9384V35.0886ZM49.1634 32.7036V33.6936H54.7584V36.3036H55.9884V33.6936H61.3884V32.7036H49.1634ZM70.8523 31.9986C68.9023 31.3086 67.5673 29.5836 67.5673 27.7386V26.2686H66.3373V27.6936C66.3373 29.7336 65.0473 31.5486 63.0073 32.2836L63.6523 33.2736C65.2273 32.6436 66.4123 31.4436 66.9823 29.8686C67.5673 31.2786 68.7223 32.4036 70.1923 32.9736L70.8523 31.9986ZM65.0623 35.2836H72.8323V39.0636H74.0773V34.2936H65.0623V35.2836ZM72.8323 25.6086V28.4136H69.9073V29.4186H72.8323V33.5436H74.0773V25.6086H72.8323Z" fill="black"/>
<path d="M104.663 127.318H105.908V119.368H104.663V122.218H101.738V123.223H104.663V127.318ZM102.713 125.728C100.748 125.038 99.4433 123.373 99.4433 121.453V120.118H98.2133V121.498C98.2133 123.553 96.8783 125.353 94.8083 126.088L95.4533 127.093C97.0733 126.478 98.2883 125.263 98.8583 123.673C99.4433 125.068 100.583 126.133 102.053 126.688L102.713 125.728ZM101.468 131.818C99.4433 131.818 98.2133 131.233 98.2133 130.258C98.2133 129.268 99.4433 128.683 101.468 128.683C103.493 128.683 104.723 129.268 104.723 130.258C104.723 131.233 103.493 131.818 101.468 131.818ZM101.468 127.723C98.7083 127.723 96.9833 128.638 96.9833 130.258C96.9833 131.863 98.7083 132.793 101.468 132.793C104.228 132.793 105.953 131.863 105.953 130.258C105.953 128.638 104.228 127.723 101.468 127.723ZM115.642 126.898C116.017 124.393 116.017 122.638 116.017 121.558V120.823H109.222V121.828H114.817C114.817 122.908 114.787 124.543 114.412 126.778L115.642 126.898ZM112.552 124.663H111.337V128.803C110.332 128.833 109.342 128.848 108.487 128.848L108.622 129.868C111.007 129.868 114.172 129.808 116.962 129.358L116.887 128.458C115.522 128.623 114.022 128.713 112.552 128.773V124.663ZM121.087 124.978H118.942V119.353H117.712V132.808H118.942V126.013H121.087V124.978ZM131.781 124.183H125.241V122.443H131.781V124.183ZM132.996 119.773H131.781V121.498H125.241V119.773H124.026V125.158H132.996V119.773ZM125.166 128.848H123.951V132.508H133.251V131.503H125.166V128.848ZM122.391 126.463V127.453H127.986V130.063H129.216V127.453H134.616V126.463H122.391ZM144.08 125.758C142.13 125.068 140.795 123.343 140.795 121.498V120.028H139.565V121.453C139.565 123.493 138.275 125.308 136.235 126.043L136.88 127.033C138.455 126.403 139.64 125.203 140.21 123.628C140.795 125.038 141.95 126.163 143.42 126.733L144.08 125.758ZM138.29 129.043H146.06V132.823H147.305V128.053H138.29V129.043ZM146.06 119.368V122.173H143.135V123.178H146.06V127.303H147.305V119.368H146.06Z" fill="black"/>
<path d="M191.911 63.0316C193.966 63.0316 195.361 63.7816 195.361 64.9666C195.361 66.1516 193.966 66.9166 191.911 66.9166C189.871 66.9166 188.476 66.1516 188.476 64.9666C188.476 63.7816 189.871 63.0316 191.911 63.0316ZM191.911 67.9066C194.716 67.9066 196.621 66.7666 196.621 64.9666C196.621 63.1666 194.716 62.0416 191.911 62.0416C189.121 62.0416 187.216 63.1666 187.216 64.9666C187.216 66.7666 189.121 67.9066 191.911 67.9066ZM198.031 69.1666H185.851V70.1716H188.986V74.9566H190.231V70.1716H193.606V74.9566H194.851V70.1716H198.031V69.1666ZM209.459 61.5166V68.7316H210.689V61.5166H209.459ZM202.019 69.3916V74.7766H210.689V69.3916H209.474V71.0416H203.234V69.3916H202.019ZM203.234 72.0016H209.474V73.7866H203.234V72.0016ZM203.459 62.1466C201.434 62.1466 199.964 63.4066 199.964 65.2366C199.964 67.0966 201.434 68.3416 203.459 68.3416C205.499 68.3416 206.984 67.0966 206.984 65.2366C206.984 63.4066 205.499 62.1466 203.459 62.1466ZM203.459 63.1666C204.824 63.1666 205.784 64.0216 205.784 65.2366C205.784 66.4666 204.824 67.3216 203.459 67.3216C202.124 67.3216 201.164 66.4666 201.164 65.2366C201.164 64.0216 202.124 63.1666 203.459 63.1666ZM222.808 66.3316H216.268V64.5916H222.808V66.3316ZM224.023 61.9216H222.808V63.6466H216.268V61.9216H215.053V67.3066H224.023V61.9216ZM216.193 70.9966H214.978V74.6566H224.278V73.6516H216.193V70.9966ZM213.418 68.6116V69.6016H219.013V72.2116H220.243V69.6016H225.643V68.6116H213.418ZM235.107 67.9066C233.157 67.2166 231.822 65.4916 231.822 63.6466V62.1766H230.592V63.6016C230.592 65.6416 229.302 67.4566 227.262 68.1916L227.907 69.1816C229.482 68.5516 230.667 67.3516 231.237 65.7766C231.822 67.1866 232.977 68.3116 234.447 68.8816L235.107 67.9066ZM229.317 71.1916H237.087V74.9716H238.332V70.2016H229.317V71.1916ZM237.087 61.5166V64.3216H234.162V65.3266H237.087V69.4516H238.332V61.5166H237.087Z" fill="black"/>
<path d="M260.33 2.765H255.575V1.475H254.345V2.765H249.5V3.725H260.33V2.765ZM251.57 12.035H258.35V14H251.57V12.035ZM250.37 14.93H259.55V11.105H250.37V14.93ZM251.9 6.155C251.9 5.495 252.995 5.12 254.96 5.12C256.895 5.12 257.99 5.495 257.99 6.155C257.99 6.83 256.895 7.205 254.96 7.205C252.995 7.205 251.9 6.83 251.9 6.155ZM255.575 9.08V8.06C257.945 7.97 259.295 7.31 259.295 6.155C259.295 4.91 257.72 4.25 254.96 4.25C252.17 4.25 250.61 4.91 250.61 6.155C250.61 7.31 251.945 7.97 254.345 8.06V9.08H248.87V10.055H261.02V9.08H255.575ZM265.024 4.355H266.704V10.67C266.134 10.7 265.579 10.715 265.024 10.73V4.355ZM267.829 4.355H268.939V3.365H262.789V4.355H263.899V10.76C263.389 10.775 262.939 10.775 262.534 10.775L262.654 11.795C264.409 11.795 267.229 11.735 269.314 11.345L269.239 10.445C268.804 10.505 268.309 10.55 267.829 10.595V4.355ZM270.379 6.785H268.534V7.865H270.379V14.405H271.534V1.985H270.379V6.785ZM272.974 1.67V15.11H274.159V1.67H272.974ZM286.247 1.655V15.14H287.477V1.655H286.247ZM280.382 2.69C278.387 2.69 276.962 4.52 276.962 7.385C276.962 10.25 278.387 12.08 280.382 12.08C282.377 12.08 283.802 10.25 283.802 7.385C283.802 4.52 282.377 2.69 280.382 2.69ZM280.382 3.8C281.687 3.8 282.617 5.21 282.617 7.385C282.617 9.575 281.687 10.985 280.382 10.985C279.062 10.985 278.132 9.575 278.132 7.385C278.132 5.21 279.062 3.8 280.382 3.8ZM295.066 4.055H298.231V3.035H290.716V4.055H293.836V5.765C293.836 8.09 292.201 10.625 290.266 11.54L290.986 12.53C292.516 11.75 293.836 10.055 294.451 8.09C295.096 9.935 296.416 11.48 297.976 12.2L298.666 11.21C296.686 10.37 295.066 8.045 295.066 5.765V4.055ZM300.046 1.67V15.11H301.276V1.67H300.046ZM319.32 3.725H314.505V1.91H313.275V3.725H308.4V4.715H319.32V3.725ZM317.025 8.255C317.025 9.305 315.81 9.92 313.89 9.92C311.94 9.92 310.71 9.305 310.71 8.255C310.71 7.22 311.94 6.605 313.89 6.605C315.81 6.605 317.025 7.22 317.025 8.255ZM309.465 8.255C309.465 9.92 311.175 10.925 313.89 10.925C316.56 10.925 318.27 9.92 318.27 8.255C318.27 6.59 316.56 5.615 313.89 5.615C311.175 5.615 309.465 6.59 309.465 8.255ZM307.8 12.47V13.475H319.995V12.47H307.8ZM331.019 4.25H323.159V7.445H332.519V6.485H324.374V5.165H332.234V2H323.129V2.945H331.019V4.25ZM324.434 11.81H331.034V13.94H324.434V11.81ZM323.234 14.93H332.249V10.835H323.234V14.93ZM321.599 8.6V9.59H333.794V8.6H321.599ZM344.758 6.485H338.218V4.745H344.758V6.485ZM345.973 2.075H344.758V3.8H338.218V2.075H337.003V7.46H345.973V2.075ZM338.143 11.15H336.928V14.81H346.228V13.805H338.143V11.15ZM335.368 8.765V9.755H340.963V12.365H342.193V9.755H347.593V8.765H335.368ZM357.057 8.06C355.107 7.37 353.772 5.645 353.772 3.8V2.33H352.542V3.755C352.542 5.795 351.252 7.61 349.212 8.345L349.857 9.335C351.432 8.705 352.617 7.505 353.187 5.93C353.772 7.34 354.927 8.465 356.397 9.035L357.057 8.06ZM351.267 11.345H359.037V15.125H360.282V10.355H351.267V11.345ZM359.037 1.67V4.475H356.112V5.48H359.037V9.605H360.282V1.67H359.037Z" fill="black"/>
<path d="M632.899 7.14487H635.389V6.12487H632.914V4.12987H631.729V6.12487H629.239V7.14487H631.729V7.78987C631.729 9.99487 630.694 12.3499 628.879 13.4299L629.599 14.3449C630.919 13.5499 631.864 12.0499 632.329 10.3399C632.824 11.9599 633.784 13.3249 635.089 14.0599L635.794 13.1299C633.979 12.1549 632.899 9.93487 632.899 7.78987V7.14487ZM636.529 8.95987H634.474V9.97987H636.529V16.3999H637.699V3.96487H636.529V8.95987ZM639.229 3.64987V17.0899H640.414V3.64987H639.229ZM652.263 6.70987H644.268V10.2799H653.808V9.28987H645.498V7.63987H653.508V4.17487H644.223V5.16487H652.263V6.70987ZM654.978 11.6749H642.768V12.6649H645.948V17.1199H647.178V12.6649H650.568V17.1199H651.798V12.6649H654.978V11.6749ZM661.352 4.81987H660.137V7.23487C660.137 9.78487 658.502 12.3649 656.522 13.3099L657.272 14.3149C658.847 13.5049 660.137 11.8249 660.752 9.79987C661.397 11.7199 662.687 13.3099 664.217 14.0599L664.952 13.0699C662.957 12.1699 661.352 9.69487 661.352 7.23487V4.81987ZM666.362 3.64987V17.1349H667.592V3.64987H666.362ZM670.951 4.69987V5.70487H675.901C675.646 8.07487 673.576 9.97987 670.411 10.9699L670.906 11.9449C674.776 10.7299 677.221 8.17987 677.221 4.69987H670.951ZM673.666 12.4849H672.436V16.8049H681.406V15.7999H673.666V12.4849ZM680.821 7.74487V3.66487H679.591V13.4899H680.821V8.76487H682.801V7.74487H680.821Z" fill="black"/>
<path d="M736.794 61.5016V74.9866H738.024V61.5016H736.794ZM730.929 62.5366C728.934 62.5366 727.509 64.3666 727.509 67.2316C727.509 70.0966 728.934 71.9266 730.929 71.9266C732.924 71.9266 734.349 70.0966 734.349 67.2316C734.349 64.3666 732.924 62.5366 730.929 62.5366ZM730.929 63.6466C732.234 63.6466 733.164 65.0566 733.164 67.2316C733.164 69.4216 732.234 70.8316 730.929 70.8316C729.609 70.8316 728.679 69.4216 728.679 67.2316C728.679 65.0566 729.609 63.6466 730.929 63.6466ZM748.478 66.7366C746.723 67.0216 745.283 67.0816 742.658 67.0816V65.5366H747.338V64.5916H742.658V63.1516H747.578V62.1766H741.428V68.0566H742.448C745.238 68.0566 746.768 68.0116 748.613 67.7116L748.478 66.7366ZM743.948 72.3466H751.253V69.1816H742.703V70.1416H750.038V71.4316H742.748V74.8066H751.748V73.8466H743.948V72.3466ZM751.253 64.4416V61.5166H750.023V68.5366H751.253V65.4466H753.248V64.4416H751.253ZM764.032 63.8416H756.172V66.7216H765.487V65.8216H757.387V64.6816H765.247V61.8766H756.142V62.7466H764.032V63.8416ZM762.292 69.7966H759.127V68.5666H762.292V69.7966ZM766.807 68.5666V67.6516H754.597V68.5666H757.897V69.7966H756.052V70.6816H764.077V71.8066H756.097V74.8066H765.712V73.9066H757.312V72.6616H765.292V69.7966H763.522V68.5666H766.807Z" fill="black"/>
<path d="M820.46 9.00487H813.785V7.02487H820.46V9.00487ZM821.69 4.18987H820.46V6.03487H813.785V4.18987H812.57V10.0099H821.69V4.18987ZM823.235 11.6299H811.025V12.6199H816.485V17.1199H817.715V12.6199H823.235V11.6299ZM832.023 7.14487V8.14987H834.678V11.6749H835.923V3.66487H834.678V7.14487H832.023ZM832.773 10.2049C830.823 9.51487 829.503 7.81987 829.503 6.09487V5.62987H832.458V4.63987H825.273V5.62987H828.273V6.09487C828.273 8.02987 826.893 9.84487 824.883 10.5799L825.528 11.5549C827.103 10.9549 828.348 9.69487 828.918 8.13487C829.503 9.51487 830.658 10.6249 832.158 11.1649L832.773 10.2049ZM831.483 16.1449C829.458 16.1449 828.228 15.5749 828.228 14.5999C828.228 13.6249 829.458 13.0399 831.483 13.0399C833.508 13.0399 834.738 13.6249 834.738 14.5999C834.738 15.5749 833.508 16.1449 831.483 16.1449ZM831.483 12.0949C828.723 12.0949 826.998 13.0099 826.998 14.5999C826.998 16.1899 828.723 17.1049 831.483 17.1049C834.243 17.1049 835.968 16.1899 835.968 14.5999C835.968 13.0099 834.243 12.0949 831.483 12.0949ZM841.322 14.5549H849.347V11.4199H840.077V12.3799H848.147V13.6399H840.107V16.9249H849.827V15.9649H841.322V14.5549ZM848.957 9.15487C849.272 7.56487 849.272 6.36487 849.272 5.31487V4.29487H840.197V5.26987H848.057V5.31487C848.057 5.70487 848.057 6.12487 848.042 6.57487L839.867 6.82987L840.017 7.80487L847.982 7.44487C847.922 7.95487 847.847 8.52487 847.712 9.15487H838.667V10.1449H850.787V9.15487H848.957ZM860.611 9.69487C858.481 10.0399 856.726 10.1149 854.341 10.1149V8.17987H859.216V4.44487H853.096V5.44987H858.001V7.23487H853.141V11.1199H854.221C856.711 11.1199 858.541 11.0449 860.746 10.6849L860.611 9.69487ZM854.491 13.6099H862.246V17.1049H863.476V12.6049H854.491V13.6099ZM862.246 3.66487V11.8849H863.476V3.66487H862.246Z" fill="black"/>
<path d="M898.204 114.096V115.101H900.904V120.246H902.149V110.391H900.904V114.096H898.204ZM898.999 117.261C897.049 116.571 895.729 114.891 895.729 113.136V112.476H898.684V111.471H891.499V112.476H894.499V113.151C894.499 115.056 893.104 116.841 891.109 117.561L891.754 118.521C893.329 117.951 894.559 116.706 895.144 115.176C895.729 116.556 896.884 117.681 898.384 118.221L898.999 117.261ZM894.784 122.526V119.376H893.539V123.531H902.524V122.526H894.784ZM912.857 111.696H909.617V110.331H908.387V111.696H905.132V112.611H912.857V111.696ZM907.022 115.236C907.022 114.516 907.787 114.051 909.002 114.051C910.187 114.051 910.967 114.516 910.967 115.236C910.967 115.986 910.187 116.436 909.002 116.436C907.787 116.436 907.022 115.986 907.022 115.236ZM913.262 117.891C912.107 118.086 910.847 118.191 909.617 118.251V117.291C911.162 117.126 912.137 116.391 912.137 115.236C912.137 113.961 910.877 113.181 909.002 113.181C907.112 113.181 905.852 113.961 905.852 115.236C905.852 116.391 906.842 117.141 908.387 117.291V118.311C907.097 118.356 905.852 118.371 904.802 118.371L904.937 119.361C907.277 119.346 910.502 119.301 913.352 118.776L913.262 117.891ZM908.012 120.201H906.782V123.531H915.767V122.526H908.012V120.201ZM915.287 115.071V110.376H914.057V120.906H915.287V116.091H917.252V115.071H915.287ZM928.021 115.206H921.481V113.466H928.021V115.206ZM929.236 110.796H928.021V112.521H921.481V110.796H920.266V116.181H929.236V110.796ZM921.406 119.871H920.191V123.531H929.491V122.526H921.406V119.871ZM918.631 117.486V118.476H924.226V121.086H925.456V118.476H930.856V117.486H918.631ZM940.32 116.781C938.37 116.091 937.035 114.366 937.035 112.521V111.051H935.805V112.476C935.805 114.516 934.515 116.331 932.475 117.066L933.12 118.056C934.695 117.426 935.88 116.226 936.45 114.651C937.035 116.061 938.19 117.186 939.66 117.756L940.32 116.781ZM934.53 120.066H942.3V123.846H943.545V119.076H934.53V120.066ZM942.3 110.391V113.196H939.375V114.201H942.3V118.326H943.545V110.391H942.3Z" fill="black"/>
<defs>
<linearGradient id="paint0_linear" x1="42.0515" y1="0" x2="42.0515" y2="84.6326" gradientUnits="userSpaceOnUse">
<stop stop-color="#B9DAFC"/>
<stop offset="1" stop-color="#C7BFFD"/>
</linearGradient>
<linearGradient id="paint1_linear" x1="656.237" y1="22.3337" x2="656.237" y2="106.966" gradientUnits="userSpaceOnUse">
<stop stop-color="#B9DAFC"/>
<stop offset="1" stop-color="#C7BFFD"/>
</linearGradient>
<linearGradient id="paint2_linear" x1="747.264" y1="80.6053" x2="747.264" y2="165.238" gradientUnits="userSpaceOnUse">
<stop stop-color="#B9DAFC"/>
<stop offset="1" stop-color="#C7BFFD"/>
</linearGradient>
<linearGradient id="paint3_linear" x1="42.0515" y1="0" x2="42.0515" y2="84.6326" gradientUnits="userSpaceOnUse">
<stop stop-color="#B9DAFC"/>
<stop offset="1" stop-color="#C7BFFD"/>
</linearGradient>
<linearGradient id="paint4_linear" x1="837.982" y1="23.0275" x2="837.982" y2="107.66" gradientUnits="userSpaceOnUse">
<stop stop-color="#B9DAFC"/>
<stop offset="1" stop-color="#C7BFFD"/>
</linearGradient>
<linearGradient id="paint5_linear" x1="917.948" y1="130.552" x2="917.948" y2="215.185" gradientUnits="userSpaceOnUse">
<stop stop-color="#B9DAFC"/>
<stop offset="1" stop-color="#C7BFFD"/>
</linearGradient>
<linearGradient id="paint6_linear" x1="42.0515" y1="0" x2="42.0515" y2="84.6326" gradientUnits="userSpaceOnUse">
<stop stop-color="#B9DAFC"/>
<stop offset="1" stop-color="#C7BFFD"/>
</linearGradient>
<linearGradient id="paint7_linear" x1="42.0515" y1="0" x2="42.0515" y2="84.6326" gradientUnits="userSpaceOnUse">
<stop stop-color="#B9DAFC"/>
<stop offset="1" stop-color="#C7BFFD"/>
</linearGradient>
</defs>
</svg>
