<svg xmlns="http://www.w3.org/2000/svg" viewBox="0 0 385.04735 70.71576"><defs><style>.cls-1{fill:#31a836;}.cls-2{fill:#6b6866;}</style></defs><g id="레이어_2" data-name="레이어 2"><g id="Layer_1" data-name="Layer 1"><path class="cls-1" d="M0,13.87928H16.509S31.49076,37.06814,31.94647,37.69272c.44813.62725.50132,0,.50132,0-.7-3.5866-1.44664-5.20079-1.44664-10.934V13.87928H47.44778V56.83914H31.00115S16.3219,34.88136,15.87523,34.27752c-.43629-.6065-.50118,0-.50118,0,.5674,2.966,1.06606,3.45682,1.06606,8.60442v13.9572H0Z"/><path class="cls-1" d="M73.37273,41.28332l2.24-8.716a41.58268,41.58268,0,0,0,.82338-4.29842.34781.34781,0,0,1,.68828.0117,37.30323,37.30323,0,0,0,.86088,4.2451L80.276,41.28332Zm-3.08156,10.203H83.286l1.57136,5.35278h18.20868L86.17544,13.87928H67.15123L50.70979,56.83914H68.91727Z"/><path class="cls-1" d="M146.38045,13.87928,128.05357,56.83914H113.486L95.1603,13.87928h17.95045l6.276,19.54893a46.71406,46.71406,0,0,1,1.18813,6.73054.31058.31058,0,0,0,.61435,0,47.605,47.605,0,0,1,1.183-6.73054l6.05528-19.54893Z"/><path class="cls-1" d="M149.9515,13.87928h31.82838v11.7393H167.27857v4.09963h13.24432V40.88865H167.27857V45.1h15.0013V56.83914H149.9515Z"/><path class="cls-1" d="M206.105,25.47178h1.31406c2.96082,0,5.5307.39347,5.5307,3.70362,0,3.18795-2.83224,3.58794-5.64759,3.58794H206.105ZM189.28181,56.69234H206.105V42.90654s.10518-.49214.4194,0l7.42134,13.7858H233.7895L223.48912,42.73128a13.17392,13.17392,0,0,0-2.88423-2.5595c-.35318-.248,0-.34933,0-.34933,6.39945-1.94529,9.16677-4.66716,9.16677-11.16911,0-10.8146-9.04337-14.91688-19.71116-14.91688H189.28181Z"/><path class="cls-2" d="M275.40659,0V6.70593s3.24379.43111,3.24379,4.53991H265.45553s0-9.94853-9.94468-9.94853V8.21746s3.24395.21555,3.24395,5.40863V28.54683h26.3833V11.67827S286.21853,0,275.40659,0Zm3.24379,22.53835H265.45553V17.78023h13.19485Z"/><rect class="cls-2" x="250.32177" y="31.57387" width="43.0338" height="6.48639"/><polygon class="cls-2" points="258.537 43.036 285.164 43.036 285.164 59.688 265.456 59.688 265.456 64.445 285.164 64.445 285.164 70.716 258.537 70.716 258.537 53.415 278.65 53.415 278.65 49.523 258.537 49.523 258.537 43.036"/><polygon class="cls-2" points="304.817 9.949 331.633 9.949 331.633 28.547 311.954 28.547 311.954 33.088 331.633 33.088 331.633 39.791 322.333 39.791 322.333 46.278 338.337 46.278 338.337 52.551 297.464 52.551 297.464 46.062 315.413 46.062 315.413 39.791 305.033 39.791 305.033 20.977 324.928 20.977 324.928 16.222 305.033 16.222 304.817 9.949"/><polygon class="cls-2" points="350.231 13.192 350.231 19.896 370.127 19.896 370.127 38.06 378.129 38.06 378.129 13.192 350.231 13.192"/><rect class="cls-2" x="343.53026" y="44.54799" width="41.51709" height="6.92282"/></g></g></svg>