<svg xmlns="http://www.w3.org/2000/svg" viewBox="0 0 708.66142 291.08458"><defs><style>.cls-1{fill:#fdbb00;}.cls-2{fill:#608ffb;}.cls-3{fill:#acc800;}.cls-4{fill:#f1685e;}</style></defs><g id="레이어_2" data-name="레이어 2"><g id="다음"><path class="cls-1" d="M403.86081,0V100.05958a30.48006,30.48006,0,0,1-60.96012,0V0H280.41656V99.0602a92.96418,92.96418,0,0,0,185.92837,0V0Z"/><path class="cls-2" d="M94.48838,42.11343H0v201.1684H94.48838a100.58413,100.58413,0,0,0,100.584-100.5842v-.00018A100.5841,100.5841,0,0,0,94.48838,42.11343Zm1.95244,136.73165H62.48412V106.55019h33.9567a36.14745,36.14745,0,1,1,0,72.29489Z"/><path class="cls-3" d="M249.9365,96.01219a97.5362,97.5362,0,1,0,59.078,175.129c12.98751,16.879,38.45819,16.89538,38.45819,16.89538V193.54839A97.53614,97.53614,0,0,0,249.9365,96.01219Zm0,135.63627a38.10008,38.10008,0,1,1,38.10008-38.10007A38.10006,38.10006,0,0,1,249.9365,231.64846Z"/><path class="cls-4" d="M623.31725,45.16144a84.98429,84.98429,0,0,0-54.83807,19.96589,85.33031,85.33031,0,0,0-140.18242,65.37809V240.23383h60.96012V130.50561a24.37139,24.37139,0,0,1,48.7335-.685c-.00186.22882-.0173.45523-.0173.68479V240.23383h61.012V130.50542c0-.22956-.01544-.45541-.0173-.68461-.00632.22957-.0346.45356-.0346.6848a24.384,24.384,0,0,1,48.7681,0V240.23383h60.96012V130.50542A85.34407,85.34407,0,0,0,623.31725,45.16144Z"/></g></g></svg>