<svg xmlns="http://www.w3.org/2000/svg" viewBox="0 0 227.66109 44.3144"><defs><style>.cls-1{fill:#3e5ca0;}</style></defs><g id="레이어_2" data-name="레이어 2"><g id="Layer_1" data-name="Layer 1"><path class="cls-1" d="M20.6338,22.8945l.9648-7.7715H14.4785V10.6367c0-2.1699.3144-3.6446,3.4219-3.6446l3.9589-.0039V.2968A52.564,52.564,0,0,0,16.0849,0C9.4824,0,5.8838,3.4882,5.8838,9.8925V15.123H0v7.7715H5.8838V43.5429h8.5947V22.8945Z"/><path class="cls-1" d="M41.8066,15.0234V19a10.8758,10.8758,0,0,0-8.791-4.5079c-6.6572,0-10.9609,5.5762-10.9609,11.754v6.0234c0,6.1797,4.9082,11.7539,10.9609,11.7539a10.86694,10.86694,0,0,0,8.791-4.5098v4.0293h8.0938V15.0234Zm-.3848,16.2559c0,3.3671-2.3877,6.0957-5.33,6.0957-2.9444,0-5.3301-3.0352-5.3301-6.4043V27.6875c0-3.3653,2.0928-6.4024,5.3301-6.4024,2.9423,0,5.33,2.7305,5.33,6.0977Z"/><path class="cls-1" d="M107.2763,1.1015V43.5429h8.0918V39.5136a10.86659,10.86659,0,0,0,8.793,4.5098c6.0527,0,10.959-5.5742,10.959-11.7539V26.2461c0-6.1778-4.3028-11.752-10.959-11.752-4.7949,0-6.9629,1.7324-8.2148,4.2188V.2343Zm8.4785,26.2793c0-3.3652,2.3868-6.0937,5.3282-6.0937,3.2402,0,5.332,3.0351,5.332,6.4023v3.2813c0,3.3691-2.3848,6.4043-5.332,6.4043-2.9414,0-5.3282-2.7286-5.3282-6.0957Z"/><path class="cls-1" d="M76.2509,16.5156s-2.0703-2.0215-8.623-2.0215c-6.5508,0-14.5962,2.2656-14.5962,14.5469,0,12.2851,6.8892,14.9824,14.6939,14.9824,0,0,5.25.0273,8.5253-1.7813l-2.0703-6.3593s-1.7461,1.789-5.6836,1.4922c-3.8554-.2891-6.7461-1.0118-6.7461-8.4786,0-8.0449,5.7813-7.6093,6.5997-7.6093.8183,0,4.0468.1933,5.83,1.3008Z"/><path class="cls-1" d="M103.7099,26.6347c0-3.1816-1.3476-12.1406-12.8613-12.1406S77.0224,22.7793,77.0224,26.6347v6.2617s.2891,11.418,13.8262,11.418c0,0,9.9238-.1933,12.4766-2.3144l-1.7832-6.0215s-3.2754,1.8808-9.2481,1.8808c-5.9746,0-6.6836-3.8086-6.6836-5.6386h18.0996Zm-7.707,0H85.6943s-1.1562-6.2148,5.1543-6.2148,5.1543,6.2148,5.1543,6.2148"/><path class="cls-1" d="M152.3642,14.541c-7.8613,0-14.2363,4.4316-14.2363,14.2051v1.2168c0,9.58,6.375,14.205,14.2363,14.205,7.86329,0,14.23639-4.4316,14.23639-14.205V28.7461c0-9.629-6.3731-14.2051-14.23639-14.2051m5.418,17.416a5.41795,5.41795,0,1,1-10.83589,0V26.7539a5.41795,5.41795,0,1,1,10.83589,0Z"/><path class="cls-1" d="M183.38769,14.541c-7.8594,0-14.2344,4.4316-14.2344,14.2051v1.2168c0,9.58,6.375,14.205,14.2344,14.205,7.8632,0,14.23631-4.4316,14.23631-14.205V28.7461c0-9.629-6.37311-14.2051-14.23631-14.2051m5.4199,17.416a5.419,5.419,0,0,1-10.8379,0V26.7539a5.419,5.419,0,1,1,10.8379,0Z"/><polygon class="cls-1" points="227.661 43.543 217.882 29.041 226.796 15.168 217.688 15.168 209.411 28.16 209.411 18.713 209.411 0.234 200.737 1.102 200.737 43.543 209.411 43.543 209.411 29.973 218.075 43.543 227.661 43.543"/></g></g></svg>