<svg xmlns="http://www.w3.org/2000/svg" viewBox="0 0 269.63999 88.76"><defs><style>.cls-1{fill:#ea4335;}.cls-2{fill:#fbbc05;}.cls-3{fill:#4285f4;}.cls-4{fill:#34a853;}</style></defs><g id="레이어_2" data-name="레이어 2"><g id="레이어_1-2" data-name="레이어 1"><path class="cls-1" d="M115.39,46.71a22.25011,22.25011,0,0,1-44.5,0,22.25011,22.25011,0,0,1,44.5,0Zm-9.74,0c0-7.98-5.79-13.44-12.51-13.44S80.63,38.73,80.63,46.71c0,7.9,5.79,13.44,12.51,13.44S105.65,54.6,105.65,46.71Z"/><path class="cls-2" d="M163.39,46.71a22.25011,22.25011,0,0,1-44.5,0,22.25011,22.25011,0,0,1,44.5,0Zm-9.74,0c0-7.98-5.79-13.44-12.51-13.44s-12.51,5.46-12.51,13.44c0,7.9,5.79,13.44,12.51,13.44S153.65,54.6,153.65,46.71Z"/><path class="cls-3" d="M209.39,25.87V65.69c0,16.38-9.66,23.07-21.08,23.07a21.12172,21.12172,0,0,1-19.66-13.07l8.48-3.53c1.51,3.61,5.21,7.87,11.17,7.87,7.31,0,11.84-4.51,11.84-13V63.84h-.34a15.10134,15.10134,0,0,1-11.68,5.04c-11.09,0-21.25-9.66-21.25-22.09,0-12.52,10.16-22.26,21.25-22.26a15.37022,15.37022,0,0,1,11.68,4.96h.34V25.88h9.25Zm-8.56,20.92c0-7.81-5.21-13.52-11.84-13.52-6.72,0-12.35,5.71-12.35,13.52,0,7.73,5.63,13.36,12.35,13.36C195.62,60.15,200.83,54.52,200.83,46.79Z"/><path class="cls-4" d="M224.64,2.53v65h-9.5v-65Z"/><path class="cls-1" d="M261.66,54.01l7.56,5.04a22.077,22.077,0,0,1-18.48,9.83c-12.6,0-22.01-9.74-22.01-22.18,0-13.19,9.49-22.18,20.92-22.18,11.51,0,17.14,9.16,18.98,14.11l1.01,2.52L239.99,53.43c2.27,4.45,5.8,6.72,10.75,6.72,4.96,0,8.4-2.44,10.92-6.14Zm-23.27-7.98,19.82-8.23c-1.09-2.77-4.37-4.7-8.23-4.7A12.16612,12.16612,0,0,0,238.39,46.03Z"/><path class="cls-3" d="M34.93,40.94V31.53H66.64a31.1791,31.1791,0,0,1,.47,5.68c0,7.06-1.93,15.79-8.15,22.01-6.05,6.3-13.78,9.66-24.02,9.66C15.96,68.88,0,53.42,0,34.44S15.96,0,34.94,0a32.81663,32.81663,0,0,1,23.6,9.49L51.9,16.13A23.98629,23.98629,0,0,0,34.93,9.41a24.70484,24.70484,0,0,0-24.7,25.03,24.70484,24.70484,0,0,0,24.7,25.03c8.99,0,14.11-3.61,17.39-6.89,2.66-2.66,4.41-6.46,5.1-11.65Z"/></g></g></svg>