<svg xmlns="http://www.w3.org/2000/svg" viewBox="0 0 449.74371 82.93864"><defs><style>.cls-1,.cls-2{fill:#747474;}.cls-1{fill-rule:evenodd;}.cls-3{fill:#fbbc04;}.cls-4{fill:#4285f4;}.cls-5{fill:#34a853;}</style></defs><g id="레이어_2" data-name="레이어 2"><g id="레이어_1-2" data-name="레이어 1"><path id="path2" class="cls-1" d="M338.99659,65.82944l18.1994-48.2623h7.0102l18.19952,48.2623h-6.87542l-4.6509-13.0767h-20.2891l-4.7184,13.0767Zm13.6833-18.8735h16.0425l-7.8865-21.772h-.2696Zm47.1164,19.952a14.52957,14.52957,0,0,1-11.0545-5.0554,17.81969,17.81969,0,0,1-4.651-12.5374,17.81952,17.81952,0,0,1,4.651-12.5374,14.52934,14.52934,0,0,1,11.0545-5.0555A14.04088,14.04088,0,0,1,406.572,33.34a11.44505,11.44505,0,0,1,4.481,4.0443h.2696l-.2696-4.5836V17.56714h6.2013v48.2623h-5.9317v-4.5836h-.2696a11.43417,11.43417,0,0,1-4.4839,4.0443,14.03774,14.03774,0,0,1-6.7728,1.6178Zm1.011-5.6621a9.88388,9.88388,0,0,0,7.4498-3.2354,12.11492,12.11492,0,0,0,3.0655-8.6953,12.12741,12.12741,0,0,0-3.0655-8.6953,10.11965,10.11965,0,0,0-14.86438.0322,12.07584,12.07584,0,0,0-3.10062,8.6631,12.06839,12.06839,0,0,0,3.10062,8.6601,9.87417,9.87417,0,0,0,7.41458,3.2706Zm35.9271,5.6621a14.83682,14.83682,0,0,1-9.1319-2.6962,15.95629,15.95629,0,0,1-5.29278-6.7406l5.52718-2.2918q2.62875,6.19845,8.9649,6.2013a8.17453,8.17453,0,0,0,4.7506-1.2807,3.92853,3.92853,0,0,0,1.8552-3.3702q0-3.2355-4.5162-4.3814l-6.6731-1.6177a15.8957,15.8957,0,0,1-5.9991-3.0684,7.39162,7.39162,0,0,1-2.8311-6.0988,8.33441,8.33441,0,0,1,3.8773-7.1127,15.57193,15.57193,0,0,1,9.1994-2.7284,15.3361,15.3361,0,0,1,7.819,1.9869,11.19539,11.19539,0,0,1,4.9206,5.6973l-5.3924,2.2243q-1.81992-4.3827-7.5494-4.3813a8.79778,8.79778,0,0,0-4.651,1.1459,3.49234,3.49234,0,0,0-1.8873,3.1006q0,2.8311,4.3813,3.8421l6.5384,1.5504a12.33966,12.33966,0,0,1,6.8753,3.7073,8.942,8.942,0,0,1,2.22442,5.9317,9.18971,9.18971,0,0,1-3.63992,7.4146,14.35207,14.35207,0,0,1-9.3694,2.9658Z"/><g id="g6"><path id="path4" class="cls-2" d="M130.5672,66.81994c-14.9464,0-27.8414-12.3088-27.8414-27.2552s12.60191-27.2552,27.8414-27.2552a25.73207,25.73207,0,0,1,18.7563,7.6197l-5.2752,5.2752a19.70059,19.70059,0,0,0-33.11659,14.6534,19.519,19.519,0,0,0,19.63549,19.9285,18.34434,18.34434,0,0,0,13.7742-5.5682c2.0514-2.0515,3.5168-5.2752,4.1029-9.3782H130.5672v-7.3267H155.771a23.69443,23.69443,0,0,1,.293,4.6891c0,5.5683-1.46529,12.6019-6.4474,17.584A27.65885,27.65885,0,0,1,130.5672,66.82Zm64.18169-17.584a17.204,17.204,0,0,1-17.2909,17.584c-9.67128,0-17.291-7.3266-17.291-17.584a17.29339,17.29339,0,1,1,34.58189,0Zm-7.6197,0c0-6.4475-4.396-10.5504-9.6712-10.5504-5.27528,0-9.67128,4.396-9.67128,10.5504s4.396,10.5504,9.67128,10.5504C182.73319,60.07944,187.12919,55.68344,187.12919,49.23594Zm46.5977,0a17.204,17.204,0,0,1-17.291,17.584c-9.67118,0-17.291-7.3266-17.291-17.584a17.20408,17.20408,0,0,1,17.291-17.584A17.3875,17.3875,0,0,1,233.72689,49.23594Zm-7.6198,0c0-6.4475-4.396-10.5504-9.6712-10.5504s-9.67118,4.396-9.67118,10.5504,4.396,10.5504,9.67118,10.5504C221.418,60.07944,226.10709,55.68344,226.10709,49.23594Zm45.4254-16.4117v31.6512c0,12.895-7.6197,18.4632-16.70478,18.4632a16.81034,16.81034,0,0,1-15.53262-10.2573l6.74062-2.9307a9.46835,9.46835,0,0,0,8.792,6.1544c5.86138,0,9.37818-3.5168,9.37818-10.2573v-2.6376h-.2931a12.29634,12.29634,0,0,1-9.37808,4.1029c-8.79212,0-16.70492-7.6197-16.70492-17.584s8.20592-17.584,16.70492-17.584a12.67331,12.67331,0,0,1,9.37808,3.8098h.293v-2.9306ZM264.792,49.529c0-6.1544-4.103-10.8435-9.3782-10.8435s-9.6712,4.396-9.6712,10.8435c0,6.1544,4.396,10.5504,9.6712,10.5504C260.68909,60.07944,264.792,55.39034,264.792,49.529Zm20.2216-35.4611v51.5798h-7.6197V14.06794Zm30.479,41.0294,5.8614,4.1029a17.34518,17.34518,0,0,1-14.6534,7.9128c-9.9643,0-17.291-7.6197-17.291-17.584,0-10.5504,7.3267-17.584,16.4118-17.584s13.4811,7.3266,14.9464,11.1365l.8792,2.0515-23.4454,9.6712a8.95783,8.95783,0,0,0,8.499,5.2752c3.8099,0,6.7405-2.0515,8.792-4.9821Zm-18.4632-6.4475,15.8256-6.4475a7.1506,7.1506,0,0,0-6.4475-3.8099,9.656,9.656,0,0,0-9.3781,10.2574Z"/></g><g id="g14"><path id="path8" class="cls-3" d="M1.9518,55.24674,30.1713,6.93754C33.7555,9.04764,51.8289,19.05,54.745,20.952L26.5285,69.26124C23.4454,73.33784-1.9547,61.43344,1.9518,55.24674Z"/><path id="path10" class="cls-4" d="M83.0904,55.24674,54.8739,6.93754a14.39183,14.39183,0,0,0-19.4186-5.07,13.63252,13.63252,0,0,0-5.158,19.0874l28.2165,48.3092a14.39177,14.39177,0,0,0,19.4186,5.0701,13.94763,13.94763,0,0,0,5.158-19.0845Z"/><ellipse id="ellipse12" class="cls-5" cx="14.16397" cy="62.38882" rx="14.16392" ry="13.81222"/></g></g></g></svg>