<svg xmlns="http://www.w3.org/2000/svg" viewBox="0 0 226.77159 69.354"><defs><style>.cls-1{fill:#ffcd00;}</style></defs><g id="레이어_2" data-name="레이어 2"><g id="Layer_1" data-name="Layer 1"><g id="kakao_CI_BI" data-name="kakao CI/BI"><path class="cls-1" d="M7.9055,68.1483H0V1.7204L7.9055,0ZM29.0486,19.9401l6.1879,4.4675L20.024,43.4861,37.6423,64.6264l-6.104,4.7276L10.7421,43.9141Z"/><path class="cls-1" d="M44.6415,55.5179q0-7.1334,4.7724-10.8708,4.76687-3.7389,13.8753-3.7402h9.114V37.8996q0-10.91415-9.6288-10.9128a26.38453,26.38453,0,0,0-6.4844.8589,37.0023,37.0023,0,0,0-6.2327,2.1484l-2.3219-5.5865a32.35191,32.35191,0,0,1,7.6091-3.052,31.28079,31.28079,0,0,1,7.9447-1.0742q16.6755,0,16.6727,17.7889v30.078H74.12081l-.94551-5.1557a28.2267,28.2267,0,0,1-7.51949,4.3836,21.0439,21.0439,0,0,1-7.609,1.547q-6.26911,0-9.83581-3.5667T44.6415,55.5179Zm14.8376,7.0467a14.09541,14.09541,0,0,0,3.3793-.4308,27.37061,27.37061,0,0,0,3.508-1.1161,18.79363,18.79363,0,0,0,3.2953-1.6757,19.3312,19.3312,0,0,0,2.7415-2.1065V46.236H64.1844q-6.24388,0-9.1141,2.1484-2.8617,2.14845-2.8646,6.7894Q52.2057,62.56325,59.4791,62.5646Z"/><path class="cls-1" d="M101.9386,68.1483H94.033V1.7204L101.9386,0ZM123.076,19.9401l6.1879,4.4675L114.057,43.4861l17.6127,21.1403-6.0984,4.7276L104.7752,43.9141Z"/><path class="cls-1" d="M138.6745,55.5179q0-7.1334,4.7668-10.8708,4.77526-3.7389,13.8809-3.7402h9.1084V37.8996q0-10.91415-9.6231-10.9128a26.42849,26.42849,0,0,0-6.4901.8589,36.76458,36.76458,0,0,0-6.2271,2.1484l-2.3219-5.5865a32.40831,32.40831,0,0,1,7.6035-3.052,31.2904,31.2904,0,0,1,7.9503-1.0742q16.6671,0,16.6727,17.7889v30.078h-5.8466l-.9456-5.1557a28.13978,28.13978,0,0,1-7.5195,4.3836,21.03829,21.03829,0,0,1-7.60339,1.547q-6.2775,0-9.84141-3.5667Q138.6717,61.7898,138.6745,55.5179Zm14.8376,7.0467a14.13,14.13,0,0,0,3.3793-.4308,27.37061,27.37061,0,0,0,3.508-1.1161,18.99634,18.99634,0,0,0,3.29541-1.6757,19.59887,19.59887,0,0,0,2.73579-2.1065V46.236h-8.2132q-6.2523,0-9.1141,2.1484-2.8701,2.14845-2.86449,6.7894Q146.23881,62.56325,153.5121,62.5646Z"/><path class="cls-1" d="M205.802,20.3681q9.79395,0,15.3803,6.3586,5.5893,6.36135,5.5893,18.2197,0,11.6862-5.5445,17.9623-5.5389,6.2691-15.4251,6.2719-9.79377,0-15.38029-6.2719-5.58915-6.27315-5.5892-17.9623,0-11.8584,5.6284-18.2197Q196.0922,20.36955,205.802,20.3681Zm0,6.3586a10.95042,10.95042,0,0,0-9.49449,4.6409q-3.31485,4.641-3.3121,13.5788,0,8.8539,3.3121,13.3633A11.06043,11.06043,0,0,0,205.802,62.822q6.2691,0,9.5841-4.5123,3.30645-4.5108,3.3065-13.3633,0-8.9379-3.3065-13.5788A11.05058,11.05058,0,0,0,205.802,26.7267Z"/></g></g></g></svg>