<svg xmlns="http://www.w3.org/2000/svg" viewBox="0 0 360.59113 105.85636"><defs><style>.cls-1{fill:#ff2c2e;}</style></defs><g id="레이어_2" data-name="레이어 2"><g id="Layer_1" data-name="Layer 1"><path class="cls-1" d="M256.69991,20.85841H235.86366V1.97229A1.9723,1.9723,0,0,0,233.89136,0H214.39912A1.97208,1.97208,0,0,0,212.427,1.97208V20.85841H198.819a1.97208,1.97208,0,0,0-1.97208,1.97208V41.36308a1.97208,1.97208,0,0,0,1.97208,1.97207H212.427V82.7126a21.21388,21.21388,0,0,0,21.21388,21.21388h23.059a1.97208,1.97208,0,0,0,1.97207-1.97208V83.42181a1.97208,1.97208,0,0,0-1.97207-1.97208H241.08056a5.21689,5.21689,0,0,1-5.2169-5.2169V43.33515h20.83625a1.97208,1.97208,0,0,0,1.97207-1.97207V22.83049A1.97208,1.97208,0,0,0,256.69991,20.85841Z"/><path class="cls-1" d="M143.91416,19.43849c-2.03458-.03007-1.68305-.04737-2.86312-.04737a42.79217,42.79217,0,1,0,25.10565,77.43156l.97889-.71151v5.82705a1.98265,1.98265,0,0,0,1.98265,1.98265h17.55762a1.97972,1.97972,0,0,0,1.97972-1.97972v-36.73C188.65557,35.99222,167.60112,19.789,143.91416,19.43849ZM142.6363,83.96105a21.77992,21.77992,0,1,1,21.77851-21.78132A21.80556,21.80556,0,0,1,142.6363,83.96105Z"/><path class="cls-1" d="M51.10668,20.85838H1.99865A1.99866,1.99866,0,0,0,0,22.857v79.09736a1.972,1.972,0,0,0,1.972,1.972h20.509a1.972,1.972,0,0,0,1.972-1.972V44.81788H45.51435A15.88626,15.88626,0,0,1,61.40061,60.70413v41.25026a1.972,1.972,0,0,0,1.972,1.972H83.981a1.972,1.972,0,0,0,1.972-1.972V55.70473A34.84635,34.84635,0,0,0,51.10668,20.85838Z"/><path class="cls-1" d="M314.67346,84.92651a26.27928,26.27928,0,0,1-16.91-6.06234,22.59038,22.59038,0,0,1-5.83963-7.86744l66.07131,0a2.02883,2.02883,0,0,0,2.0105-1.66188,41.40521,41.40521,0,0,0-.31724-15.53709c-4.21748-19.882-22.76639-34.85952-45.015-34.85952s-40.7977,14.97751-45.015,34.85952a41.31457,41.31457,0,0,0,2.5186,25.06639c6.85689,15.83462,23.2963,26.99219,42.49637,26.99219,18.217,0,33.92686-10.05582,41.34523-24.61011a1.03146,1.03146,0,0,0-.92919-1.48442l-23.06237,0a3.5482,3.5482,0,0,0-2.03841.67041A28.09938,28.09938,0,0,1,314.67346,84.92651Zm0-45.413a24.6718,24.6718,0,0,1,22.74939,14.2843h-45.499A24.67166,24.67166,0,0,1,314.67346,39.51348Z"/></g></g></svg>