<svg xmlns="http://www.w3.org/2000/svg" viewBox="0 0 371.55859 71.0151"><defs><style>.cls-1{fill:#49b85c;}</style></defs><g id="레이어_2" data-name="레이어 2"><g id="Layer_1" data-name="Layer 1"><path class="cls-1" d="M107.6025,0,79.7559,71.0151h23.6704l3.3652-9.3965h26.6909l3.36331,9.3965H160.5176L132.668,0Zm4.5953,44.5591,7.93791-22.1836,7.94049,22.1836Z"/><polygon class="cls-1" points="260.547 44.031 292.924 44.031 292.924 26.98 260.547 26.98 260.547 17.406 293.268 17.406 293.268 0 237.918 0 237.918 71.015 293.965 71.015 293.965 53.609 260.547 53.609 260.547 44.031"/><polygon class="cls-1" points="188.715 46.693 172.008 0 148.334 0 176.184 71.015 201.246 71.015 229.098 0 205.426 0 188.715 46.693"/><polygon class="cls-1" points="48.389 38.007 21.933 0 0 0 0 71.015 22.976 71.015 22.976 33.009 49.433 71.015 71.364 71.015 71.364 0 48.389 0 48.389 38.007"/><path class="cls-1" d="M353.60549,46.6518l2.1543-.9013c8.25192-3.4512,12.4511-10.9278,12.4511-20.4146,0-8.9712-3.2734-15.6074-9.7246-19.7251C352.48829,1.7837,344.707,0,334.00389,0h-29.9785V71.0151h22.27932V51.1704h8.00778l13.57422,19.8447h23.67188Zm-15.4649-13.582H325.957V18.1015h12.1836a7.48415,7.48415,0,1,1,0,14.9683Z"/></g></g></svg>