<svg xmlns="http://www.w3.org/2000/svg" viewBox="0 0 412.98194 120.18385"><defs><style>.cls-1{fill:#2c2019;}.cls-2{fill:none;}.cls-3{fill:#6fc5cc;}.cls-4{fill:#e62050;}.cls-5{fill:#121209;}</style></defs><g id="레이어_2" data-name="레이어 2"><g id="Layer_1" data-name="Layer 1"><rect class="cls-1" x="178.40593" y="55.6887" width="15.60255" height="43.79418"/><polygon class="cls-1" points="176.118 34.987 128.265 34.987 128.265 48.926 143.765 48.926 143.765 99.483 159.265 99.483 159.265 48.926 172.059 48.926 176.118 34.987"/><polygon class="cls-1" points="302.09 34.987 254.242 34.987 254.242 48.926 269.741 48.926 269.741 99.483 285.241 99.483 285.241 48.926 298.035 48.926 302.09 34.987"/><path class="cls-1" d="M194.52833,42.78848a8.11359,8.11359,0,1,1-8.11423-8.11316A8.114,8.114,0,0,1,194.52833,42.78848Z"/><polygon class="cls-1" points="234.059 99.587 251.325 99.587 230.243 68.67 248.519 50.175 229.792 50.175 215.648 64.139 215.648 35.194 199.939 35.194 199.939 99.483 215.648 99.483 215.648 83.439 220.253 78.776 234.059 99.587"/><polygon class="cls-1" points="395.716 99.587 412.982 99.587 391.899 68.67 410.176 50.175 391.449 50.175 377.304 64.139 377.304 35.194 361.595 35.194 361.595 99.483 377.304 99.483 377.304 83.439 381.91 78.776 395.716 99.587"/><path class="cls-2" d="M326.98777,85.85517a12.76069,12.76069,0,1,0-12.76229-12.76228A12.76232,12.76232,0,0,0,326.98777,85.85517Z"/><path class="cls-3" d="M300.77226,73.095A26.194,26.194,0,0,1,325.703,46.94368a13.84,13.84,0,0,0-2.59649-.20233,26.42263,26.42263,0,1,0,0,52.84525,11.80826,11.80826,0,0,0,3.12569-.31539A26.19764,26.19764,0,0,1,300.77226,73.095Z"/><path class="cls-4" d="M330.99972,46.74135a13.83643,13.83643,0,0,0-2.6254.20658,26.18289,26.18289,0,0,1-.50858,52.31711,11.75226,11.75226,0,0,0,3.134.31752,26.42061,26.42061,0,1,0,0-52.84121Z"/><path class="cls-1" d="M327.05217,96.46516c2.73761-4.45189,14.97473-13.21477,14.97473-23.29959,0-10.08694-12.23308-18.85067-14.97473-23.30383-2.74187,4.45316-14.97261,13.21689-14.97261,23.30383C312.07956,83.25039,324.30626,92.01327,327.05217,96.46516Zm-.0644-36.13137a12.76069,12.76069,0,1,1-12.76229,12.7591A12.761,12.761,0,0,1,326.98777,60.33379Z"/><path class="cls-1" d="M328.37432,46.94793c-.46075-.024-.91749-.06971-1.38655-.06971-.4359,0-.85714.04463-1.28475.06546a3.53811,3.53811,0,0,1,1.34915.49286A3.52135,3.52135,0,0,1,328.37432,46.94793Z"/><path class="cls-1" d="M326.23222,99.27121c.25121.00829.49605.03931.75555.03931.29478,0,.58319-.03528.878-.04548a2.65217,2.65217,0,0,1-.81357-.37575A2.60272,2.60272,0,0,1,326.23222,99.27121Z"/><path class="cls-1" d="M327.05217,96.46516c-2.74591-4.45189-14.97261-13.21477-14.97261-23.29959,0-10.08694,12.23074-18.85067,14.97261-23.30383-.662-1.075-.7513-1.89493,0-2.4252a3.53811,3.53811,0,0,0-1.34915-.49286,26.18377,26.18377,0,0,0,.5292,52.32753,2.60272,2.60272,0,0,0,.82-.38192C326.30087,98.36009,326.39013,97.54014,327.05217,96.46516Z"/><path class="cls-1" d="M353.2035,73.095a26.1983,26.1983,0,0,0-24.82918-26.14708,3.52135,3.52135,0,0,0-1.32215.48861c.75342.53027.66416,1.35021,0,2.4252,2.74165,4.45316,14.97473,13.21689,14.97473,23.30383,0,10.08482-12.23712,18.8477-14.97473,23.29959.66416,1.075.75342,1.89493,0,2.42413a2.65217,2.65217,0,0,0,.81357.37575A26.1974,26.1974,0,0,0,353.2035,73.095Z"/><path class="cls-1" d="M327.05217,98.88929c.75342-.5292.66416-1.34915,0-2.42413C326.39013,97.54014,326.30087,98.36009,327.05217,98.88929Z"/><path class="cls-1" d="M327.05217,49.86174c.66416-1.075.75342-1.89493,0-2.4252C326.30087,47.96681,326.39013,48.78675,327.05217,49.86174Z"/><path class="cls-3" d="M41.6117,47.17917V42.38786a36.89937,36.89937,0,0,0-5.09735-.36109,36.5099,36.5099,0,0,0-20.66886,66.609A36.49539,36.49539,0,0,1,41.6117,47.17917Z"/><path class="cls-3" d="M101.11427,31.68054V26.77086a22.39264,22.39264,0,0,1-14.33544-3.4411A24.55981,24.55981,0,0,0,101.11427,31.68054Z"/><path class="cls-3" d="M42.58212,100.21144A16.64415,16.64415,0,0,0,59.22544,83.56791c0-.21168-.02381-.41507-.03209-.62463h.03209V5.13178H73.53389c-.17-.48372-.34452-.95788-.50625-1.46222V0H53.26245V77.81044h-.0321c.00723.20977.0321.41316.0321.62484a16.62191,16.62191,0,0,1-24.19711,14.819A16.61279,16.61279,0,0,0,42.58212,100.21144Z"/><path class="cls-4" d="M86.77883,23.32976A40.63661,40.63661,0,0,1,78.99041,8.80007V5.13178H73.53389C76.97413,14.89164,81.9718,20.3369,86.77883,23.32976Z"/><path class="cls-4" d="M36.61807,61.79175a16.6357,16.6357,0,0,0-7.55273,31.46249A16.63974,16.63974,0,0,1,47.57469,67.6863V47.51964a36.69043,36.69043,0,0,0-5.09756-.36109c-.29053,0-.57681.01339-.86543.02062V62.55559A16.67917,16.67917,0,0,0,36.61807,61.79175Z"/><path class="cls-4" d="M101.11427,31.68054V47.29542A47.71529,47.71529,0,0,1,73.02764,38.1383V77.81044h-.027c.00511.24505.027.48372.027.72856a36.50835,36.50835,0,0,1-57.18215,30.09676A36.50392,36.50392,0,0,0,78.99041,83.67163c0-.24484-.02083-.48564-.02593-.72835h.02593V43.27114a47.7301,47.7301,0,0,0,28.08664,9.15819V31.90051A19.34057,19.34057,0,0,1,101.11427,31.68054Z"/><path class="cls-5" d="M73.02764,78.539c0-.24484-.02188-.48351-.027-.72856h.027V38.1383a47.71529,47.71529,0,0,0,28.08663,9.15712V31.68054a24.55981,24.55981,0,0,1-14.33544-8.35078c-4.807-2.99286-9.8047-8.43812-13.24494-18.198H59.22544v77.8115h-.03209c.00828.20956.03209.41295.03209.62463a16.6317,16.6317,0,0,1-30.1601,9.68633A16.64016,16.64016,0,0,1,41.6117,62.55559V47.17917a36.49539,36.49539,0,0,0-25.76621,61.45659A36.50835,36.50835,0,0,0,73.02764,78.539Z"/></g></g></svg>