<svg xmlns="http://www.w3.org/2000/svg" viewBox="0 0 316.15079 58.66337"><defs><style>.cls-1{fill:#54c3f1;fill-rule:evenodd;}</style></defs><g id="레이어_2" data-name="레이어 2"><g id="Layer_1" data-name="Layer 1"><path class="cls-1" d="M34.6093,47.4854a5.80824,5.80824,0,0,1-5.8017,5.7754H17.3398A16.73209,16.73209,0,0,1,5.0839,48.1944,16.60238,16.60238,0,0,1,0,35.9795V12.8155A5.56128,5.56128,0,0,1,1.6894,8.6992a5.68113,5.68113,0,0,1,4.1377-1.666A5.53811,5.53811,0,0,1,9.8974,8.7324a5.56168,5.56168,0,0,1,1.6973,4.0772v8.3916h16.332a5.21733,5.21733,0,0,1,3.8115,1.5762,5.30983,5.30983,0,0,1,.002,7.5644,5.19427,5.19427,0,0,1-3.7988,1.5723H11.5947v4.0625a5.70352,5.70352,0,0,0,5.7373,5.7266H28.8076a5.825,5.825,0,0,1,5.8017,5.7822Z"/><path class="cls-1" d="M168.9438,47.4854a5.80669,5.80669,0,0,1-5.8027,5.7754h-5.209a17.338,17.338,0,0,1-17.3394-17.2813V12.8155a5.5496,5.5496,0,0,1,1.6934-4.1163,5.68163,5.68163,0,0,1,4.1387-1.666,5.546,5.546,0,0,1,4.0678,1.6992,5.55415,5.55415,0,0,1,1.6934,4.0772v8.3916h10.0723a5.226,5.226,0,0,1,3.8125,1.5762,5.30525,5.30525,0,0,1,.0019,7.5644,5.19491,5.19491,0,0,1-3.7949,1.5723H152.186v4.0625a5.70522,5.70522,0,0,0,5.7402,5.7266h5.2129a5.82341,5.82341,0,0,1,5.8047,5.7822Z"/><path class="cls-1" d="M138.622,47.4854a5.8167,5.8167,0,0,1-5.8047,5.7754h-5.207a17.32792,17.32792,0,0,1-17.3398-17.2813V12.8155a5.55252,5.55252,0,0,1,1.6924-4.1163,5.68483,5.68483,0,0,1,4.1367-1.666,5.53992,5.53992,0,0,1,4.0683,1.6992,5.56461,5.56461,0,0,1,1.6963,4.0772v8.3916h10.0723a5.214,5.214,0,0,1,3.8086,1.5762,5.30513,5.30513,0,0,1,.0058,7.5644,5.20283,5.20283,0,0,1-3.7949,1.5723H121.8642v4.0625a5.7052,5.7052,0,0,0,5.7383,5.7266h5.2148a5.83351,5.83351,0,0,1,5.8047,5.7822Z"/><path class="cls-1" d="M90.5351,37.0957A16.206,16.206,0,0,1,74.3222,53.2608a15.72945,15.72945,0,0,1-10.79-4.1377,16.11072,16.11072,0,0,1-22.1924-.6016A15.56084,15.56084,0,0,1,36.582,37.0957V25.8008a5.173,5.173,0,0,1,1.5996-3.8516,5.48559,5.48559,0,0,1,7.6563,0,5.18836,5.18836,0,0,1,1.5898,3.8545V37.0996a5.33494,5.33494,0,0,0,5.3691,5.3526,5.1008,5.1008,0,0,0,3.7315-1.5596,5.15208,5.15208,0,0,0,1.5625-3.793V25.8653a5.50486,5.50486,0,0,1,5.5-5.4727,5.45,5.45,0,0,1,5.4385,5.4111V37.0996a5.33009,5.33009,0,1,0,10.6601,0V25.8037a5.42288,5.42288,0,0,1,10.8457-.0029Z"/><path class="cls-1" d="M106.2002,11.5508a5.79842,5.79842,0,0,1-11.5967,0,5.7984,5.7984,0,0,1,11.5967,0Z"/><path class="cls-1" d="M106.2002,47.4766a5.7984,5.7984,0,0,1-11.5967,0V26.1797a5.79838,5.79838,0,0,1,11.5967,0Z"/><path class="cls-1" d="M237.89689,26.5586a5.15708,5.15708,0,0,1-1.582,3.7832,5.22135,5.22135,0,0,1-3.8008,1.5762h-7.9219a5.29489,5.29489,0,0,0-5.3183,5.3057V47.8965a5.376,5.376,0,0,1-10.752.0059v-10.67a16.07765,16.07765,0,0,1,16.0762-16.0312h7.916a5.206,5.206,0,0,1,3.8008,1.5762A5.148,5.148,0,0,1,237.89689,26.5586Z"/><path class="cls-1" d="M182.188,32.5469h11.5429c0-3.792-5.7383-3.792-5.7383-3.792s-5.8046,0-5.8046,3.792Zm4.9062,20.7139a16.87666,16.87666,0,0,1-12.2559-5.1963c-3.3925-3.4727-4.6953-7.25-4.6953-12.1406,0,0-.33-15.542,17.25-15.542,13.752,0,17.94139,9.6621,17.94139,14.4326,0,3.7929-1.7363,5.1377-5.6836,5.1377H182.0727s-.6347,4.0195,7.375,4.0195H199.479a4.64455,4.64455,0,0,1,0,9.2891Z"/><path class="cls-1" d="M316.15079,27.0567a20.63876,20.63876,0,0,1-9.6328-.9776c4.7774-.3965,8.01371-2.5683,9.26171-5.5166-1.72461,1.0586-7.07811,2.2129-10.02731,1.1143-.1465-.6953-.3066-1.3565-.46869-1.9522-2.24811-8.2754-9.959-14.9433-18.03131-14.1347.6504-.2647,1.3125-.5127,1.9766-.7344.88671-.3184,6.1015-1.1719,5.2832-3.0098-.6953-1.6191-7.0703,1.2207-8.2676,1.5967,1.582-.5967,4.20511-1.6201,4.4844-3.4424a12.625,12.625,0,0,0-6.6524,3.1475,4.54247,4.54247,0,0,0,1.2793-2.5264c-6.4746,4.1397-10.2578,12.4824-13.3164,20.5811a31.79139,31.79139,0,0,0-6.4453-5.1885A168.78851,168.78851,0,0,0,243.768,6.3985c-.3066,3.3291,1.6465,7.7656,7.2735,10.7099a17.76667,17.76667,0,0,0-5.2305.6231c.7305,3.8213,3.1035,6.9677,9.5273,8.4814-2.93359.1944-4.457.8682-5.832,2.3067,1.3379,2.6562,4.60941,5.7763,10.4766,5.1367-6.5313,2.8164-2.666,8.0351,2.6504,7.2588a22.546,22.546,0,0,1-31.5547.8408c21.4199,29.2217,67.9824,17.2812,74.9199-10.8633C311.20549,30.9356,314.25629,29.0879,316.15079,27.0567Z"/></g></g></svg>