<svg xmlns="http://www.w3.org/2000/svg" viewBox="0 0 576.81839 128.7725"><defs><style>.cls-1{fill:#ed2123;}.cls-2{fill:#fff;}.cls-3{fill:#272727;}</style></defs><g id="레이어_2" data-name="레이어 2"><g id="Layer_1" data-name="Layer 1"><path class="cls-1" d="M180.1148,20.1079A23.03972,23.03972,0,0,0,163.8501,3.8452C149.5039,0,91.979,0,91.979,0S34.4536,0,20.1074,3.8452A23.03938,23.03938,0,0,0,3.8423,20.1079C0,34.4536,0,64.3857,0,64.3857s0,29.9327,3.8423,44.2784a23.04431,23.04431,0,0,0,16.2651,16.2646c14.3462,3.8438,71.8716,3.8438,71.8716,3.8438s57.5249,0,71.8711-3.8438a23.04464,23.04464,0,0,0,16.2647-16.2646c3.8447-14.3457,3.8447-44.2784,3.8447-44.2784s0-29.9321-3.8447-44.2778"/><polygon class="cls-2" points="73.583 91.98 121.377 64.387 73.583 36.792 73.583 91.98"/><path class="cls-3" d="M267.01659,117.1494q-5.4609-3.68115-7.7602-11.4463-2.30355-7.7577-2.3033-20.6533V73.3438q0-13.0269,2.6299-20.918,2.63085-7.89555,8.2227-11.5112,5.58915-3.616,14.6684-3.6187,8.94585,0,14.33941,3.6846,5.395,3.684,7.89349,11.5097,2.49615,7.82895,2.4981,20.8536v11.706q0,12.89655-2.43359,20.7207-2.43317,7.82955-7.89161,11.4444-5.4609,3.6195-14.8008,3.6191-9.6042,0-15.0625-3.6846m20.3906-12.6289q1.5096-3.9477,1.5122-12.8926V66.502q0-8.68365-1.5122-12.6949-1.5138-4.01355-5.3281-4.0146-3.6855,0-5.1958,4.0146-1.5153,4.0116-1.5122,12.6949V91.6279q0,8.94735,1.4453,12.8926,1.4481,3.94785,5.2627,3.9453,3.8145,0,5.3281-3.9453"/><path class="cls-3" d="M546.42969,85.2422v4.0791a107.05225,107.05225,0,0,0,.459,11.6416,11.03108,11.03108,0,0,0,1.9082,5.6572,5.43633,5.43633,0,0,0,4.47361,1.7774q4.07369,0,5.58989-3.1582,1.5087-3.15825,1.6455-10.5244l15.6543.9208a24.8632,24.8632,0,0,1,.1308,2.8936q0,11.18415-6.1152,16.707-6.11865,5.5254-17.2998,5.5264-13.418,0-18.81349-8.4209-5.39642-8.41545-5.39451-26.0469V72.2188q0-18.1554,5.5928-26.5083,5.58825-8.3526,19.1386-8.355,9.34275,0,14.3399,3.4219,4.9995,3.41955,7.04,10.6538,2.0361,7.23915,2.0391,19.9975V85.2422Zm2.30081-33.9404a11.09615,11.09615,0,0,0-1.84181,5.5893,108.796,108.796,0,0,0-.459,11.7749v5.7891h13.2852V68.666a98.599,98.599,0,0,0-.5245-11.7749q-.53025-4.01-1.9082-5.6567a5.28,5.28,0,0,0-4.2753-1.6436,5.17614,5.17614,0,0,0-4.27639,1.711"/><path class="cls-3" d="M222.80959,83.7324,202.15479,9.1401h18.023l7.2358,33.8111q2.76345,12.49875,4.0771,21.311h.5274q.9192-6.3171,4.0776-21.1797l7.4995-33.9424h18.022l-20.917,74.5923v35.7852h-17.8906Z"/><path class="cls-3" d="M365.82329,38.874v80.6436h-14.208l-1.5792-9.8662h-.3955q-5.78895,11.18115-17.3652,11.1806-8.0244,0-11.83889-5.2617-3.81887-5.2617-3.81441-16.4433V38.874h18.1543V98.0732q0,5.39655,1.1836,7.6963a4.09144,4.09144,0,0,0,3.9463,2.3018,8.04068,8.04068,0,0,0,4.5371-1.4473,8.94445,8.94445,0,0,0,3.2236-3.6836V38.874Z"/><path class="cls-3" d="M458.94339,38.874v80.6436h-14.208l-1.5791-9.8662h-.3946q-5.79195,11.18115-17.36619,11.1806-8.02442,0-11.83881-5.2617-3.816-5.2617-3.8145-16.4433V38.874H427.8965V98.0732q0,5.39655,1.18359,7.6963a4.093,4.093,0,0,0,3.9473,2.3018,8.04285,8.04285,0,0,0,4.53711-1.4473,8.96774,8.96774,0,0,0,3.22459-3.6836V38.874Z"/><polygon class="cls-3" points="415.154 23.744 397.132 23.744 397.132 119.518 379.373 119.518 379.373 23.744 361.35 23.744 361.35 9.144 415.154 9.144 415.154 23.744"/><path class="cls-3" d="M519.02829,51.7666q-1.6479-7.62885-5.3281-11.0513-3.684-3.4182-10.1299-3.4204a16.80212,16.80212,0,0,0-9.34079,2.8282,19.22548,19.22548,0,0,0-6.709,7.4326h-.13181l.001-42.4917H469.8945V119.5166h14.99419l1.84281-7.6309h.39449a15.39549,15.39549,0,0,0,6.3154,6.4473,18.72524,18.72524,0,0,0,9.3408,2.3662q9.2052,0,13.5479-8.4843,4.34175-8.48745,4.3418-26.5079V72.9463q0-13.5483-1.6436-21.1797m-16.6425,32.8936a101.86984,101.86984,0,0,1-.7237,13.8115q-.7236,5.00235-2.43359,7.1045a5.62338,5.62338,0,0,1-4.60251,2.1054,8.4156,8.4156,0,0,1-4.14449-1.0527,7.912,7.912,0,0,1-3.09181-3.1572V57.6904a11.43815,11.43815,0,0,1,3.1572-5.393,6.97929,6.97929,0,0,1,4.8682-2.105,4.90891,4.90891,0,0,1,4.27441,2.1689q1.51169,2.17245,2.10449,7.3033a136.25759,136.25759,0,0,1,.5918,14.601Z"/></g></g></svg>