<svg xmlns="http://www.w3.org/2000/svg" viewBox="0 0 52.9 52.9"><defs><style>.cls-1{fill:none;stroke:#fff;stroke-miterlimit:10;}</style></defs><g id="Layer_2" data-name="Layer 2"><g id="Layer_1-2" data-name="Layer 1"><path class="cls-1" d="M26.5,52.4A26,26,0,1,0,.5,26.5,25.9,25.9,0,0,0,26.5,52.4Z"/><path class="cls-1" d="M27,14.9c4.4,0,8.2,2.9,8.2,6.3a5.7,5.7,0,0,1-2.3,4.4c-.4.3-.3.5,0,.7,2.4,1.1,4,3.1,4,5.4s-3.8,6.4-8.4,6.4H21.4c-.4,0-.7-.2-.7-.5V33c0-.3.3-.5.7-.5h7.1c.6,0,1.2-.3,1.2-.8s-.6-.9-1.2-.9H21.4c-.4,0-.7-.2-.7-.5V22.6c0-.4.3-.5.7-.5h5.5a1,1,0,0,0,1.1-.9c0-.5-.6-.9-1.1-.9H21.4c-.4,0-.7-.1-.7-.5v-.9c0-.3.3-.5.7-.5h5.5c1.9,0,3.6,1.4,3.6,2.8S28.8,24,26.9,24h-3c-.4,0-.7.1-.7.5v3.9c0,.3.3.5.7.5h4.6c2,0,3.7,1.3,3.7,2.8s-1.7,2.8-3.7,2.8H23.9c-.4,0-.7.1-.7.5v.6c0,.4.3.5.7.5h4.6a6.1,6.1,0,0,0,4.1-1.3,3.7,3.7,0,0,0,1.8-3.1,4,4,0,0,0-1.8-3.2,8.1,8.1,0,0,0-4.9-1.2h-.5c-.4,0-.6-.2-.6-.5v-1a.5.5,0,0,1,.5-.5h.6a4.7,4.7,0,0,0,3.3-.9,4.1,4.1,0,0,0,1.7-3.2A3.8,3.8,0,0,0,31,18.1a6.5,6.5,0,0,0-4.1-1.3H19.2c-.5,0-.7.1-.7.5V37.6c0,.3-.2.5-.7.5H16.6c-.4,0-.6-.2-.6-.5V15.4c0-.4.2-.5.6-.5Z"/></g></g></svg>