<svg xmlns="http://www.w3.org/2000/svg" viewBox="0 0 52.9 52.9"><defs><style>.cls-1,.cls-2{fill:none;}.cls-2{stroke:#fff;stroke-miterlimit:10;}</style></defs><g id="Layer_2" data-name="Layer 2"><g id="Layer_1-2" data-name="Layer 1"><path class="cls-1" d="M.5.4V26.5a26,26,0,1,1,26,25.9A25.9,25.9,0,0,1,.5,26.5v26h52V.4Z"/><path class="cls-2" d="M26.5,52.4A26,26,0,1,0,.5,26.5,25.9,25.9,0,0,0,26.5,52.4Zm-9.7-31h5.7V15.2c0-10.5,13.7-7.6,13.7-7.6v6.2H32.7a3,3,0,0,0-3.2,3.3v4.3h6.7l-.9,7.1H29.5V45.7h-7V28.5H16.8Z"/></g></g></svg>