<svg xmlns="http://www.w3.org/2000/svg" viewBox="0 0 52.9 52.9"><defs><style>.cls-1{fill:none;stroke:#fff;stroke-miterlimit:10;}</style></defs><g id="Layer_2" data-name="Layer 2"><g id="Layer_1-2" data-name="Layer 1"><path class="cls-1" d="M26.5,52.4A26,26,0,1,0,.5,26.5,25.9,25.9,0,0,0,26.5,52.4Z"/><path class="cls-1" d="M26.9,24.8v3.4H35a7.5,7.5,0,0,1-1.9,4.3,8.5,8.5,0,0,1-6.2,2.4,9,9,0,0,1,0-17.9A8.5,8.5,0,0,1,33,19.4L35.3,17a11.8,11.8,0,0,0-8.4-3.4,12.4,12.4,0,1,0,0,24.7A10.9,10.9,0,0,0,38.4,27a7.5,7.5,0,0,0-.2-2.2Z"/></g></g></svg>