<svg xmlns="http://www.w3.org/2000/svg" viewBox="0 0 52.9 52.9"><defs><style>.cls-1,.cls-3{fill:none;}.cls-2{fill:#fff;}.cls-3{stroke:#fff;stroke-miterlimit:10;}</style></defs><g id="Layer_2" data-name="Layer 2"><g id="Layer_1-2" data-name="Layer 1"><path class="cls-1" d="M.5.4V26.5a26,26,0,1,1,26,25.9A25.9,25.9,0,0,1,.5,26.5v26h52V.4Z"/><path class="cls-2" d="M14.9,35.5a4.9,4.9,0,0,0,2.3,2.4,5.9,5.9,0,0,0,2.6.7H33.4a7.9,7.9,0,0,0,2.6-.8,5.1,5.1,0,0,0,2-2.1,5.8,5.8,0,0,0,.6-2.6,21.1,21.1,0,0,0,.2-2.6c0-2.9-.1-5.8-.1-8.8a13.7,13.7,0,0,0-.2-2.9A4.8,4.8,0,0,0,37,16a5.3,5.3,0,0,0-2.4-1.4,13.4,13.4,0,0,0-3.5-.3c-3.2-.1-6.5,0-9.8,0a10.9,10.9,0,0,0-2.6.3,4.8,4.8,0,0,0-3.3,2,6,6,0,0,0-1,3.2c-.1,1.1-.1,2.3-.2,3.4v3.3c.1,2.1.1,4.2.2,6.4A7.5,7.5,0,0,0,14.9,35.5ZM35,16.7a1.9,1.9,0,0,1,1.8,1.9,2,2,0,0,1-1.9,1.7,1.8,1.8,0,0,1-1.8-1.8A1.8,1.8,0,0,1,35,16.7Zm-8.2,2.1a7.7,7.7,0,1,1-8,7.7A7.7,7.7,0,0,1,26.8,18.8Z"/><path class="cls-2" d="M26.2,31.4a5,5,0,1,0,.3-9.9,5,5,0,0,0-5,5A4.9,4.9,0,0,0,26.2,31.4Z"/><path class="cls-3" d="M26.5,52.4A26,26,0,1,0,.5,26.5,25.9,25.9,0,0,0,26.5,52.4ZM11.5,21c0-.1.1-.2.1-.3V19.6a15,15,0,0,1,.6-2.9,7.8,7.8,0,0,1,2.5-3.4,8.5,8.5,0,0,1,4.6-1.6l3.1-.2h10l2,.2a7.7,7.7,0,0,1,2.7.8,7.1,7.1,0,0,1,2.3,1.9,7.9,7.9,0,0,1,1.4,2.3,11.3,11.3,0,0,1,.6,4.1c0,.1.1.2.1.3V31.8h-.1v1.3c-.1.6-.1,1.1-.2,1.6a7.9,7.9,0,0,1-2.5,4.4A6.7,6.7,0,0,1,36,40.8a10.8,10.8,0,0,1-4,.6H21.2l-2.5-.2a7.2,7.2,0,0,1-2.5-.7,8.3,8.3,0,0,1-2.6-1.9,14.8,14.8,0,0,1-1.3-2.1,12.1,12.1,0,0,1-.7-4.3.3.3,0,0,0-.1-.2Z"/></g></g></svg>