<svg xmlns="http://www.w3.org/2000/svg" viewBox="0 0 52.9 52.9"><defs><style>.cls-1,.cls-2{fill:none;}.cls-2{stroke:#fff;stroke-miterlimit:10;}</style></defs><g id="Layer_2" data-name="Layer 2"><g id="Layer_1-2" data-name="Layer 1"><path class="cls-1" d="M.4.7V26.8A26,26,0,1,1,26.3,52.7,25.9,25.9,0,0,1,.4,26.8v26h52V.7Z"/><path class="cls-2" d="M26.5,52.4A26,26,0,1,0,.5,26.5,25.9,25.9,0,0,0,26.5,52.4Z"/><path class="cls-2" d="M19.5,17.7V38.8H14.9V17.2c0-.7.2-1,.5-1.1l2.7-1.7a2.4,2.4,0,0,1,1.4-.3H29.9c2.9,0,8.1,3.2,8.1,5V38.8H33.4v-19c0-1.3-3-2.1-4.7-2.1Z"/></g></g></svg>