<svg xmlns="http://www.w3.org/2000/svg" viewBox="0 0 52.9 52.9"><defs><style>.cls-1{fill:none;stroke:#fff;stroke-miterlimit:10;}</style></defs><g id="Layer_2" data-name="Layer 2"><g id="Layer_1-2" data-name="Layer 1"><path class="cls-1" d="M26.5,52.4A26,26,0,1,0,.5,26.5,25.9,25.9,0,0,0,26.5,52.4Z"/><path class="cls-1" d="M26.5,11.4a7.5,7.5,0,0,1,5.3,12.8,7.2,7.2,0,0,1-5.3,2.3,7.4,7.4,0,0,1-5.4-2.3,7.5,7.5,0,0,1,0-10.6,7.7,7.7,0,0,1,5.4-2.2Zm0,18.8c8.3,0,15,3.4,15,7.6v3.7H11.4V37.8C11.4,33.6,18.1,30.2,26.5,30.2Z"/></g></g></svg>