<svg xmlns="http://www.w3.org/2000/svg" viewBox="0 0 52.9 52.9"><defs><style>.cls-1,.cls-2{fill:none;}.cls-2{stroke:#fff;stroke-miterlimit:10;}</style></defs><g id="Layer_2" data-name="Layer 2"><g id="Layer_1-2" data-name="Layer 1"><path class="cls-1" d="M.5.4V26.5a26,26,0,1,1,26,25.9A25.9,25.9,0,0,1,.5,26.5v26h52V.4Z"/><polygon class="cls-2" points="23.5 20.2 23.5 31.5 32.1 25.9 23.5 20.2"/><path class="cls-2" d="M26.5,52.4A26,26,0,1,0,.5,26.5,25.9,25.9,0,0,0,26.5,52.4Zm-15-31.9A4.5,4.5,0,0,1,16,16H37a4.5,4.5,0,0,1,4.5,4.5h0v12A4.5,4.5,0,0,1,37,37H16a4.5,4.5,0,0,1-4.5-4.5Z"/></g></g></svg>