<svg width="1164" height="896" viewBox="0 0 1164 896" fill="none" xmlns="http://www.w3.org/2000/svg">
<g style="mix-blend-mode:multiply" opacity="0.48">
<path d="M635.899 465.804L698.145 493.81L948.539 628.953L1163.23 486.133L858.544 362.838L635.899 465.804Z" fill="#E9ECED"/>
</g>
<path opacity="0.29" d="M666.195 596.782L442.237 467.533C431.144 461.133 413.206 461.133 402.189 467.533L179.673 596.782C168.662 603.182 168.715 613.565 179.814 619.971L403.778 749.213C414.871 755.619 432.797 755.613 443.797 749.213L666.313 619.965C677.377 613.565 677.294 603.182 666.195 596.782Z" fill="#004C8A"/>
<path d="M666.33 605.67L443.814 734.919C432.797 741.319 414.871 741.325 403.795 734.919L179.814 605.676C174.229 602.453 171.439 598.223 171.451 594V601.411C171.451 605.635 174.223 609.864 179.808 613.088L403.772 742.337C414.871 748.737 432.797 748.737 443.791 742.337L666.307 613.112C671.786 609.935 674.546 605.77 674.546 601.6V594.188C674.546 598.329 671.804 602.488 666.33 605.67Z" fill="#3277C8"/>
<path d="M666.195 582.488L442.237 453.239C431.144 446.839 413.206 446.839 402.189 453.239L179.673 582.488C168.662 588.888 168.715 599.27 179.814 605.676L403.778 734.919C414.871 741.325 432.797 741.319 443.797 734.919L666.313 605.67C677.377 599.27 677.294 588.888 666.195 582.488Z" fill="white"/>
<path opacity="0.49" d="M474.205 559.581C441.396 540.646 388.029 540.758 355.014 559.793C321.998 578.829 321.828 609.647 354.637 628.582C387.447 647.518 440.813 647.406 473.834 628.364C506.856 609.323 507.015 578.517 474.205 559.581Z" fill="#E7E7E8"/>
<path d="M477.142 590.976C473.099 581.74 460.44 574.011 444.685 572.217C428.931 570.423 414.854 575.105 408.839 583.193L406.679 582.946L405.82 590.511C404.408 602.9 419.515 614.794 439.571 617.076C459.628 619.359 477.024 611.194 478.413 598.782L479.278 591.223L477.142 590.976Z" fill="#FFB400"/>
<path d="M412.105 591.223L410.669 603.841C419.314 613.506 430.137 615.212 441.307 617.276L442.172 609.712L412.105 591.223Z" fill="#FFB400"/>
<path d="M479.289 591.204C480.701 578.816 465.589 566.921 445.534 564.637C425.48 562.353 408.078 570.545 406.666 582.934C405.254 595.322 420.366 607.217 440.42 609.501C460.475 611.784 477.877 603.593 479.289 591.204Z" fill="#FDE2AF"/>
<path d="M416.843 600.982L472.751 576.105C466.684 570.329 456.968 565.97 445.68 564.664L406.662 582.947C405.926 589.582 409.922 596.053 416.843 600.982Z" fill="#FDE2AF"/>
<path d="M440.43 609.518C441.019 609.576 441.531 609.606 442.084 609.653L478.895 593.288C479.078 592.61 479.214 591.92 479.301 591.223C479.517 589.148 479.288 587.051 478.631 585.07C461.805 592.488 442.878 600.835 428.937 606.994C432.671 608.229 436.522 609.074 440.43 609.518V609.518Z" fill="#FDE2AF"/>
<path d="M472.104 589.382C471.039 598.7 457.197 604.776 441.184 602.953C425.17 601.129 413.047 592.094 414.112 582.77C415.177 573.447 429.019 567.376 445.032 569.199C461.046 571.023 473.163 580.058 472.104 589.382Z" fill="#FFD843"/>
<path d="M435.71 602.076L471.927 585.958C470.962 581.788 467.478 577.864 462.388 574.834C458.462 573.483 454.401 572.564 450.276 572.093L415.142 588.564C417.843 594.564 425.647 599.764 435.71 602.076Z" fill="#FFD843"/>
<path d="M445.027 569.199C429.013 567.376 415.171 573.452 414.106 582.776C414.025 583.607 414.046 584.444 414.171 585.27C417.149 577.352 429.89 572.452 444.467 574.093C459.045 575.735 470.362 583.388 471.48 591.776C471.788 590.999 471.997 590.187 472.104 589.358C473.163 580.058 461.046 571.023 445.027 569.199Z" fill="#FFB400"/>
<path d="M445.074 569.205C442.232 568.879 439.366 568.802 436.511 568.976L435.922 573.899C438.778 573.721 441.643 573.795 444.485 574.123C453.866 575.187 461.882 578.741 466.713 583.37L467.302 578.452C462.476 573.829 454.455 570.276 445.074 569.205Z" fill="#FFB400"/>
<path d="M458.098 597.159C459.166 596.411 459.924 595.298 460.228 594.029L460.287 594.059L460.652 590.829L458.551 589.653C458.108 589.223 457.632 588.83 457.126 588.476C455.233 587.114 453.038 586.229 450.729 585.894C448.375 585.537 445.237 585.796 441.313 586.67L434.416 581.723C436.203 581.506 438.015 581.841 439.606 582.682L444.014 580.006L444.356 577.023L438.965 578.2V578.241C438.453 578.147 437.935 578.076 437.405 578.029C435.068 577.839 432.717 578.139 430.502 578.911L429.614 578.288L430.008 578.047L430.202 576.641L426.271 575.97L425.741 580.676L427.13 579.829L427.677 580.217C427.092 580.548 426.545 580.942 426.047 581.394C425.4 581.082 424.87 580.847 424.87 580.847L424.493 584.288C424.441 585.847 425.429 587.229 427.307 588.7C429.419 590.329 431.779 591.388 433.974 591.37C436.54 591.37 439.395 591.647 442.631 590.953L450.023 596.247C448.88 596.346 447.729 596.282 446.604 596.059C445.8 595.911 445.011 595.686 444.25 595.388L444.509 594.759L438.624 594.547L438.282 597.529C440.989 599.012 443.755 599.523 446.38 600.159C448.87 600.747 451.565 600.318 454.202 599.288L457.409 601.588L460.269 600.3L460.61 597.312L458.098 597.159ZM434.392 587.294C433.548 587.141 432.746 586.812 432.038 586.329C431.742 586.146 431.485 585.905 431.283 585.621C431.081 585.337 430.937 585.016 430.861 584.676C430.814 584.361 430.85 584.038 430.964 583.74C431.079 583.443 431.268 583.179 431.514 582.976L437.617 587.359C436.546 587.512 435.457 587.491 434.392 587.294V587.294ZM453.119 595.153L446.245 590.217C447.51 589.91 448.82 589.838 450.111 590.006C451.126 590.148 452.092 590.529 452.93 591.117C453.304 591.332 453.622 591.63 453.86 591.988C454.098 592.346 454.249 592.755 454.302 593.182C454.299 593.587 454.189 593.983 453.98 594.33C453.772 594.676 453.475 594.961 453.119 595.153V595.153Z" fill="#FFB400"/>
<path d="M450.353 593.282L442.967 587.988C440.135 588.658 437.204 588.799 434.322 588.405C431.924 588.044 429.643 587.13 427.66 585.735C425.735 584.346 424.794 582.882 424.841 581.323C424.888 579.764 425.953 578.382 428.013 577.24L426.247 575.987L429.107 574.699L430.873 575.952C433.086 575.176 435.439 574.876 437.776 575.07C440.083 575.269 442.326 575.935 444.367 577.029L439.96 579.699C438.367 578.86 436.556 578.528 434.769 578.746L441.649 583.699C445.572 582.821 448.711 582.56 451.065 582.917C453.374 583.254 455.568 584.142 457.462 585.505C459.588 587.027 460.661 588.639 460.681 590.341C460.701 592.043 459.59 593.588 457.35 594.976L460.652 597.329L457.791 598.623L454.578 596.317C452.066 597.167 449.401 597.466 446.763 597.194C443.914 596.872 441.159 595.978 438.665 594.564L443.32 591.882C444.459 592.459 445.676 592.867 446.933 593.094C448.059 593.315 449.21 593.378 450.353 593.282V593.282ZM431.838 579.993C431.592 580.197 431.403 580.46 431.288 580.758C431.174 581.055 431.138 581.378 431.185 581.693C431.261 582.033 431.404 582.355 431.607 582.639C431.809 582.922 432.065 583.163 432.362 583.346C433.07 583.828 433.873 584.155 434.716 584.305C435.774 584.502 436.857 584.526 437.923 584.376L431.838 579.993ZM453.46 592.17C453.814 591.977 454.111 591.692 454.318 591.345C454.525 590.999 454.635 590.603 454.637 590.199C454.583 589.772 454.431 589.363 454.193 589.004C453.955 588.645 453.638 588.346 453.266 588.129C452.427 587.543 451.461 587.164 450.447 587.023C449.156 586.855 447.845 586.927 446.58 587.235L453.46 592.17Z" fill="#FDE2AF"/>
<path d="M408.727 560.629C399.452 556.681 384.928 559.74 372.239 569.235C359.551 578.729 352.518 591.794 353.695 601.805L351.93 603.111L356.491 609.2C363.965 619.2 383.127 617.476 399.282 605.382C415.436 593.288 422.475 575.382 415.001 565.417L410.44 559.329L408.727 560.629Z" fill="#FFB400"/>
<path d="M361.587 605.411L369.197 615.57C382.144 616.676 391.166 610.494 400.712 604.335L396.151 598.241L361.587 605.411Z" fill="#FFB400"/>
<path d="M410.469 559.328C417.943 569.328 410.905 587.199 394.75 599.293C378.595 611.388 359.439 613.088 351.959 603.111C344.479 593.135 351.518 575.234 367.678 563.146C383.839 551.058 402.995 549.346 410.469 559.328Z" fill="#FDE2AF"/>
<path d="M371.727 609.259L395.315 552.834C386.94 552.793 376.877 556.287 367.755 563.087L351.93 603.111C355.949 608.441 363.3 610.406 371.727 609.259Z" fill="#FDE2AF"/>
<path d="M394.75 599.294C395.197 598.958 395.609 598.6 396.045 598.258L411.587 561.111C411.26 560.495 410.886 559.905 410.469 559.346C409.203 557.688 407.598 556.319 405.761 555.329C398.611 572.264 390.572 591.311 384.651 605.329C388.215 603.668 391.599 601.646 394.75 599.294V599.294Z" fill="#FDE2AF"/>
<path d="M403.966 562.923C409.604 570.435 403.719 584.347 390.772 594C377.824 603.653 362.847 605.4 357.227 597.888C351.606 590.376 357.503 576.464 370.409 566.811C383.315 557.158 398.346 555.411 403.966 562.923Z" fill="#FFD843"/>
<path d="M386.205 597.117L401.506 560.558C397.946 558.205 392.714 557.717 386.929 559.005C383.146 560.712 379.562 562.829 376.241 565.317L361.993 601.4C368.067 603.894 377.295 602.341 386.205 597.117Z" fill="#FFD843"/>
<path d="M370.421 566.811C357.515 576.464 351.618 590.382 357.238 597.888C357.753 598.545 358.346 599.138 359.004 599.652C355.732 591.858 361.64 579.581 373.387 570.758C385.134 561.934 398.605 559.764 405.167 565.099C404.858 564.322 404.453 563.586 403.96 562.911C398.346 555.411 383.321 557.152 370.421 566.811Z" fill="#FFB400"/>
<path d="M370.456 566.782C368.164 568.492 366.027 570.401 364.071 572.488L367.013 576.458C368.977 574.373 371.122 572.466 373.422 570.758C380.985 565.099 389.247 562.187 395.939 562.246L392.996 558.282C386.287 558.211 378.019 561.123 370.456 566.782Z" fill="#FFB400"/>
<path d="M399.117 578.188C399.384 576.911 399.175 575.58 398.528 574.447H398.587L396.657 571.829L394.303 572.417C393.685 572.402 393.067 572.438 392.455 572.523C390.141 572.831 387.935 573.691 386.022 575.029C384.061 576.394 381.956 578.747 379.708 582.088L371.292 583.217C372.443 581.835 373.989 580.838 375.723 580.359L377.095 575.388L375.294 572.982L372.192 577.547H372.234C371.798 577.829 371.368 578.135 370.957 578.459C369.124 579.923 367.618 581.754 366.537 583.835L365.448 583.976L365.572 583.535L364.73 582.412L361.417 584.617L364.247 588.4L364.677 586.823L365.342 586.735C365.144 587.378 365.019 588.041 364.971 588.712L363.753 589.112L365.842 591.876C366.872 593.053 368.555 593.388 370.915 593.153C373.57 592.888 376.012 592.047 377.595 590.529C379.449 588.765 381.715 587 383.61 584.282L392.626 583.106C391.86 583.957 390.98 584.699 390.013 585.312C389.33 585.744 388.609 586.112 387.859 586.412L387.617 585.776L383.203 589.647L384.998 592.047C387.994 591.27 390.348 589.747 392.696 588.412C394.927 587.141 396.586 584.97 397.787 582.412L401.706 581.888L402.883 578.988L401.082 576.582L399.117 578.188ZM375.1 587.265C374.388 587.734 373.586 588.051 372.746 588.194C372.403 588.262 372.05 588.262 371.708 588.193C371.366 588.124 371.04 587.989 370.751 587.794C370.501 587.596 370.306 587.338 370.186 587.043C370.065 586.748 370.022 586.428 370.062 586.112L377.507 585.112C376.829 585.958 376.016 586.685 375.1 587.265ZM394.12 580.17L385.728 581.294C386.442 580.205 387.347 579.255 388.4 578.488C389.235 577.9 390.197 577.515 391.207 577.364C391.629 577.267 392.068 577.27 392.489 577.372C392.91 577.474 393.301 577.673 393.632 577.953C393.902 578.246 394.089 578.606 394.175 578.996C394.261 579.385 394.242 579.791 394.12 580.17Z" fill="#FFB400"/>
<path d="M390.825 580.676L381.809 581.888C380.209 584.323 378.169 586.44 375.794 588.129C373.804 589.516 371.516 590.417 369.114 590.758C366.76 591.076 365.069 590.651 364.042 589.482C363.014 588.313 362.847 586.6 363.541 584.341L361.417 584.629L362.594 581.729L364.724 581.441C365.806 579.36 367.311 577.528 369.144 576.064C370.962 574.633 373.05 573.581 375.282 572.97L373.911 577.941C372.176 578.422 370.63 579.421 369.479 580.805L377.895 579.676C380.143 576.347 382.248 574.003 384.21 572.646C386.12 571.304 388.327 570.442 390.642 570.135C393.24 569.79 395.125 570.227 396.298 571.446C397.471 572.666 397.726 574.552 397.063 577.105L401.088 576.564L399.911 579.464L395.992 579.988C394.75 582.333 393.013 584.38 390.901 585.988C388.609 587.708 385.993 588.946 383.209 589.629L384.751 584.488C385.977 584.123 387.145 583.584 388.218 582.888C389.184 582.273 390.061 581.529 390.825 580.676V580.676ZM368.232 583.7C368.192 584.016 368.235 584.338 368.355 584.634C368.476 584.929 368.671 585.189 368.92 585.388C369.21 585.582 369.536 585.716 369.878 585.784C370.221 585.852 370.573 585.851 370.915 585.782C371.755 585.639 372.556 585.324 373.269 584.858C374.164 584.271 374.959 583.544 375.623 582.705L368.232 583.7ZM392.319 577.729C392.445 577.346 392.466 576.936 392.38 576.542C392.294 576.148 392.105 575.784 391.831 575.488C391.499 575.21 391.108 575.013 390.687 574.911C390.267 574.809 389.829 574.805 389.406 574.899C388.396 575.05 387.434 575.435 386.599 576.023C385.548 576.791 384.643 577.742 383.927 578.829L392.319 577.729Z" fill="#FDE2AF"/>
<path d="M446.774 579.429C449.193 569.646 443.832 555.805 432.45 544.799C421.068 533.793 407.02 528.916 397.322 531.699L395.762 530.169L390.466 535.646C381.797 544.617 386.546 563.246 401.059 577.264C415.572 591.282 434.369 595.364 443.037 586.394L448.334 580.923L446.774 579.429Z" fill="#FFB400"/>
<path d="M395.021 540.058L386.193 549.187C387.17 562.128 394.715 570.058 402.324 578.493L407.621 573.023L395.021 540.058Z" fill="#FFB400"/>
<path d="M448.336 580.946C457.001 571.976 452.256 553.344 437.737 539.33C423.217 525.315 404.422 521.225 395.757 530.194C387.091 539.164 391.837 557.796 406.356 571.81C420.875 585.825 439.67 589.915 448.336 580.946Z" fill="#FDE2AF"/>
<path d="M392.837 550.681L452.33 564.952C451.035 556.676 445.98 547.305 437.811 539.393L395.762 530.169C391.131 534.981 390.366 542.523 392.837 550.681Z" fill="#FDE2AF"/>
<path d="M406.356 571.805C406.762 572.194 407.179 572.546 407.586 572.917L446.757 582.329C449.002 580.647 450.676 578.316 451.553 575.652L398.776 562.805C400.984 566.059 403.524 569.076 406.356 571.805Z" fill="#FDE2AF"/>
<path d="M443.738 575.099C437.217 581.846 422.551 578.246 410.94 567.052C399.329 555.858 395.227 541.317 401.747 534.569C408.268 527.822 422.934 531.422 434.545 542.617C446.157 553.811 450.264 568.352 443.738 575.099Z" fill="#FFD843"/>
<path d="M407.144 563.029L445.692 572.276C447.457 568.382 447.092 563.146 444.897 557.646C442.607 554.186 439.945 550.986 436.958 548.105L399.046 539.805C397.557 546.211 400.565 555.07 407.144 563.029Z" fill="#FFD843"/>
<path d="M434.557 542.617C422.963 531.44 408.28 527.823 401.759 534.57C401.187 535.179 400.693 535.856 400.288 536.587C407.474 532.117 420.568 535.999 431.12 546.176C441.672 556.352 445.998 569.306 441.784 576.641C442.499 576.209 443.159 575.691 443.75 575.1C450.264 568.353 446.151 553.811 434.557 542.617Z" fill="#FFB400"/>
<path d="M434.592 542.646C432.535 540.659 430.308 538.856 427.936 537.258L424.488 540.823C426.865 542.417 429.096 544.218 431.155 546.205C437.947 552.764 442.143 560.458 443.155 567.064L446.598 563.499C445.586 556.905 441.384 549.205 434.592 542.646Z" fill="#FFB400"/>
<path d="M427.895 572.746C429.199 572.804 430.479 572.386 431.497 571.57V571.629L433.762 569.276L432.797 567.076C432.711 566.462 432.575 565.856 432.391 565.264C431.712 563.027 430.5 560.989 428.86 559.323C427.208 557.597 424.558 555.891 420.909 554.205L418.455 546.087C420.005 547 421.237 548.365 421.986 549.999L427.112 550.587L429.202 548.428L424.199 546.076V546.123C423.846 545.734 423.481 545.358 423.093 545.005C421.357 543.421 419.308 542.218 417.078 541.475L416.76 540.423L417.219 540.47L418.196 539.464L415.489 536.522L412.205 539.923L413.824 540.093L414.024 540.74C413.355 540.645 412.678 540.627 412.005 540.687C411.682 540.046 411.417 539.552 411.417 539.552L409.016 542.052C408.027 543.228 407.956 544.993 408.562 547.264C409.251 549.84 410.469 552.117 412.223 553.434C414.277 554.982 416.343 556.964 419.35 558.376L421.981 567.076C421.018 566.456 420.147 565.706 419.391 564.846C418.852 564.244 418.372 563.592 417.955 562.899L418.544 562.558L414.018 558.823L411.958 561.029C413.206 563.852 415.089 565.94 416.784 568.041C418.396 570.041 420.803 571.329 423.517 572.105L424.694 575.888L427.748 576.605L429.837 574.441L427.895 572.746ZM415.101 550.499C414.518 549.864 414.077 549.112 413.806 548.293C413.683 547.967 413.626 547.62 413.638 547.271C413.65 546.923 413.731 546.581 413.877 546.264C414.033 545.986 414.258 545.754 414.53 545.588C414.802 545.422 415.112 545.329 415.43 545.317L417.608 552.523C416.666 551.991 415.819 551.307 415.101 550.499ZM425.176 568.146L422.722 560.046C423.914 560.574 424.999 561.316 425.924 562.235C426.639 562.965 427.172 563.853 427.477 564.829C427.643 565.226 427.715 565.657 427.685 566.087C427.655 566.517 427.526 566.934 427.307 567.305C427.057 567.62 426.728 567.862 426.353 568.007C425.979 568.151 425.572 568.194 425.176 568.129V568.146Z" fill="#FFB400"/>
<path d="M424.117 564.964L421.486 556.258C418.826 555.077 416.409 553.411 414.359 551.346C412.672 549.602 411.418 547.486 410.699 545.169C410.012 542.899 410.163 541.161 411.152 539.958C412.135 538.781 413.806 538.322 416.148 538.652L415.56 536.593L418.614 537.31L419.238 539.363C421.466 540.106 423.513 541.309 425.247 542.893C426.956 544.455 428.33 546.348 429.284 548.458L424.158 547.869C423.407 546.236 422.175 544.872 420.627 543.958L423.087 552.075C426.728 553.766 429.378 555.47 431.038 557.187C432.649 558.857 433.838 560.888 434.504 563.111C435.265 565.617 435.134 567.548 434.11 568.905C433.086 570.262 431.265 570.813 428.648 570.558L429.825 574.44L426.765 573.729L425.623 569.946C423.112 569.092 420.815 567.706 418.891 565.881C416.826 563.893 415.184 561.508 414.065 558.87L419.362 559.57C419.914 560.722 420.632 561.788 421.492 562.734C422.259 563.596 423.142 564.347 424.117 564.964V564.964ZM417.52 543.158C417.201 543.167 416.89 543.259 416.617 543.425C416.345 543.591 416.12 543.825 415.966 544.105C415.819 544.421 415.737 544.764 415.725 545.112C415.713 545.461 415.771 545.808 415.895 546.134C416.165 546.95 416.604 547.7 417.184 548.334C417.905 549.135 418.752 549.812 419.691 550.34L417.52 543.158ZM427.259 565.97C427.658 566.032 428.067 565.987 428.442 565.84C428.818 565.692 429.147 565.446 429.396 565.128C429.614 564.756 429.742 564.338 429.772 563.907C429.802 563.477 429.731 563.045 429.566 562.646C429.255 561.672 428.721 560.784 428.007 560.052C427.083 559.137 426 558.397 424.811 557.87L427.259 565.97Z" fill="#FDE2AF"/>
<path d="M755.484 441.592C761.369 438.18 770.98 438.18 776.882 441.592L959.221 546.817L969.608 541.758V555.964C969.844 558.364 968.39 560.799 965.218 562.629L941.148 576.529C935.263 579.935 925.658 579.935 919.749 576.529L731.414 467.816C728.277 466.004 726.824 463.598 727.018 461.228V446.869L737.346 452.069L755.484 441.592Z" fill="#3277C8"/>
<path d="M969.608 541.757V555.964C969.844 558.364 968.39 560.799 965.218 562.628L941.148 576.528C938.27 578.181 934.521 579.023 930.749 579.064V530.381L959.227 546.816L969.608 541.757Z" fill="#5A93D6"/>
<path d="M731.414 440.31L755.484 426.421C761.369 423.009 770.98 423.009 776.882 426.421L965.206 535.099C971.091 538.511 971.091 544.04 965.206 547.452L941.142 561.346C935.257 564.758 925.652 564.758 919.744 561.346L731.42 452.663C725.505 449.245 725.505 443.698 731.414 440.31Z" fill="#BFE0F2"/>
<path d="M897.227 516.405L884.097 523.828L812.528 400.392L897.227 449.263V516.405Z" fill="#BFE0F2"/>
<path d="M884.097 523.828L799.405 474.957V407.821L884.097 456.692V523.828Z" fill="#3277C8"/>
<path d="M673.069 45.74C674.246 45.287 675.794 45.4752 677.465 46.4458L1031.9 250.984C1035.7 253.178 1038.78 258.507 1038.78 262.895V534.952C1038.78 537.146 1038.01 538.687 1036.76 539.405C1036.57 539.505 1036.38 539.59 1036.17 539.658L1023.92 546.717L1021.37 533.458L1025.03 534.981L677.453 334.39C673.646 332.19 670.568 326.861 670.568 322.473V60.6637L659.886 53.2459L672.21 46.2223C672.47 46.0185 672.76 45.8558 673.069 45.74Z" fill="#3277C8"/>
<path d="M673.069 45.74C674.246 45.287 675.794 45.4752 677.465 46.4458L1031.9 250.984C1033.65 252.075 1035.13 253.552 1036.23 255.301L799.293 404.715L677.471 334.408C673.663 332.208 670.585 326.879 670.585 322.49V60.6637L659.904 53.2459L672.227 46.2223C672.482 46.02 672.766 45.8574 673.069 45.74V45.74Z" fill="#3277C8"/>
<path d="M664.724 53.693L1019.16 258.231C1022.96 260.425 1026.04 265.76 1026.04 270.149V542.222C1026.04 546.605 1022.96 548.375 1019.16 546.187L664.724 341.655C660.928 339.455 657.844 334.126 657.844 329.737V57.6813C657.844 53.2989 660.928 51.5165 664.724 53.693Z" fill="#BFE0F2"/>
<path d="M1019.36 514.575L664.53 309.808V64.917L1019.36 269.684V514.575Z" fill="#3085D3"/>
<path d="M668.008 307.114L1019.36 509.869V514.575L664.53 309.808V64.917L668.008 66.9229V307.114Z" fill="#3277C8"/>
<path d="M1015.18 498.369V276.808C1015.11 275.524 1014.74 274.274 1014.09 273.162C1013.45 272.05 1012.55 271.106 1011.47 270.408L676.112 77.9347C674.064 76.7583 672.398 77.7112 672.398 80.0642V301.632C672.47 302.914 672.843 304.162 673.489 305.273C674.134 306.384 675.033 307.327 676.112 308.026L1011.47 500.504C1013.51 501.681 1015.18 500.757 1015.18 498.369Z" fill="#BFE0F2"/>
<path d="M1002.99 362.45L996.962 365.926L996.974 282.431L1002.99 278.949V362.45Z" fill="#2E7EC1"/>
<path d="M996.962 365.926L846.097 278.955V195.459L996.974 282.431L996.962 365.926Z" fill="#EEFAFF"/>
<path d="M846.097 195.459L852.124 191.983L1002.99 278.949L996.974 282.431L846.097 195.459Z" fill="#2E7EC1"/>
<path d="M1002.99 470.069L996.962 473.545L996.974 390.05L1002.99 386.568V470.069Z" fill="#2E7EC1"/>
<path d="M996.962 473.545L846.097 386.574V303.079L996.974 390.05L996.962 473.545Z" fill="#EEFAFF"/>
<path d="M846.097 303.079L852.124 299.602L1002.99 386.568L996.974 390.05L846.097 303.079Z" fill="#2E7EC1"/>
<path d="M798.51 361.979V349.462L803.936 346.326V358.85L798.51 361.979Z" fill="#BB8AB0"/>
<path d="M798.51 349.461L684.562 283.708V296.225L798.51 361.979V349.461Z" fill="#FCC3EF"/>
<path d="M684.562 283.708L689.994 280.572L803.936 346.326L798.51 349.461L684.562 283.708Z" fill="#BB8AB0"/>
<path d="M927.124 286.855C927.124 304.932 939.947 327.038 955.713 336.138C971.48 345.238 984.297 337.903 984.297 319.844C984.297 301.784 971.474 279.661 955.713 270.561C939.953 261.46 927.124 268.772 927.124 286.855ZM937.717 292.973C937.717 281.596 945.785 277.002 955.702 282.725C965.618 288.449 973.681 302.355 973.681 313.726C973.681 325.097 965.618 329.697 955.702 323.973C945.785 318.249 937.729 304.343 937.729 292.973H937.717Z" fill="#468ED1"/>
<path d="M938.482 287.467C937.96 289.255 937.706 291.11 937.729 292.973C937.729 304.343 945.797 318.267 955.713 323.973C965.63 329.679 973.692 325.102 973.692 313.726C973.692 302.349 965.63 288.431 955.713 282.725V270.561C971.474 279.661 984.297 301.767 984.297 319.844C984.297 337.92 971.474 345.232 955.713 336.138C939.953 327.044 927.124 304.961 927.124 286.855C927.088 283.895 927.495 280.947 928.33 278.108L938.482 287.467Z" fill="#FCC3EF"/>
<path d="M942.919 310.461C946.321 316.379 950.864 321.179 955.713 323.99C965.63 329.714 973.692 325.12 973.692 313.743C973.692 306.361 970.214 297.484 964.618 290.578L969.879 283.061C978.771 294.019 984.297 308.126 984.297 319.861C984.297 337.944 971.474 345.25 955.713 336.155C948.01 331.708 940.789 324.079 935.374 314.673C930.078 305.426 927.135 295.555 927.135 286.872L937.729 292.99C937.729 298.431 939.571 304.643 942.919 310.461Z" fill="#EF4EAF"/>
<path d="M854.907 242.672C854.907 260.749 867.731 282.855 883.491 291.955C899.252 301.055 912.081 293.72 912.081 275.66C912.081 257.601 899.246 235.46 883.491 226.378C867.737 217.295 854.907 224.589 854.907 242.672ZM865.5 248.79C865.5 237.413 873.563 232.819 883.479 238.542C893.396 244.266 901.464 258.172 901.464 269.543C901.464 280.914 893.396 285.514 883.479 279.79C873.563 274.066 865.512 260.166 865.512 248.79H865.5Z" fill="#FCC3EF"/>
<path d="M861.581 267.543C861.351 267.107 861.134 266.666 860.922 266.225C860.58 265.525 860.251 264.819 859.933 264.113C859.715 263.625 859.503 263.131 859.298 262.637C859.015 261.96 858.744 261.272 858.485 260.59C858.297 260.095 858.12 259.607 857.95 259.113C857.687 258.368 857.44 257.621 857.208 256.872C857.085 256.472 856.973 256.072 856.855 255.695C856.614 254.842 856.39 253.995 856.19 253.148C856.125 252.878 856.073 252.607 856.014 252.337C855.814 251.413 855.631 250.484 855.478 249.56L855.407 249.054C855.254 248.048 855.131 247.054 855.048 246.06C855.048 245.989 855.048 245.913 855.048 245.837C854.966 244.778 854.919 243.725 854.919 242.689C854.874 239.731 855.271 236.783 856.096 233.942L866.289 243.284C865.767 245.071 865.513 246.927 865.536 248.789C865.536 249.491 865.565 250.203 865.624 250.925C865.624 251.072 865.665 251.219 865.677 251.366C865.736 251.954 865.801 252.542 865.895 253.131C865.895 253.231 865.936 253.331 865.954 253.437C866.065 254.084 866.189 254.731 866.342 255.384V255.442C868.443 264.337 874.369 273.513 881.549 278.549C881.59 278.549 881.626 278.607 881.667 278.637C882.255 279.055 882.879 279.443 883.497 279.813C893.414 285.537 901.482 280.943 901.482 269.566C901.482 268.943 901.447 268.313 901.4 267.678C901.4 267.496 901.37 267.319 901.353 267.137C901.3 266.549 901.229 265.96 901.135 265.372C901.135 265.19 901.07 264.996 901.035 264.784C900.952 264.319 900.858 263.843 900.752 263.372C900.693 263.107 900.635 262.843 900.57 262.584C900.446 262.084 900.317 261.59 900.17 261.09C900.081 260.796 899.993 260.501 899.899 260.213C899.752 259.76 899.605 259.313 899.44 258.866C899.357 258.625 899.263 258.384 899.175 258.143C898.934 257.519 898.692 256.901 898.422 256.284C898.422 256.225 898.363 256.166 898.339 256.107C898.063 255.519 897.751 254.872 897.462 254.266C897.404 254.137 897.339 254.013 897.274 253.884C896.573 252.519 895.801 251.191 894.961 249.907L894.891 249.801C891.789 245.095 887.829 241.042 883.497 238.548V226.377C888.647 229.354 893.502 233.719 897.657 238.872L898.163 239.513L898.539 240.007C899.579 241.344 900.56 242.717 901.482 244.125L901.753 244.525C902.047 244.984 902.341 245.442 902.63 245.907C902.712 246.037 902.789 246.172 902.865 246.301C903.352 247.086 903.818 247.886 904.266 248.701C904.407 248.96 904.554 249.213 904.689 249.466L905.278 250.519C905.472 250.901 905.666 251.284 905.866 251.666C906.008 251.942 906.143 252.225 906.278 252.501C906.967 253.937 907.597 255.39 908.173 256.848C908.209 256.937 908.244 257.019 908.273 257.107C910.046 261.567 911.232 266.237 911.804 271.002C911.804 271.131 911.805 271.254 911.846 271.384C911.905 271.972 911.952 272.56 911.987 273.102L912.022 273.613C912.058 274.296 912.081 274.978 912.081 275.654C912.081 293.737 899.257 301.043 883.491 291.949C883.003 291.666 882.514 291.361 882.032 291.061L881.89 290.972C874.828 286.431 868.19 279.207 863.158 270.466C863.023 270.237 862.911 270.007 862.787 269.778C862.37 269.043 861.969 268.296 861.581 267.543Z" fill="#468ED1"/>
<path d="M884.598 363.226C888.764 359.808 892.696 356.573 900.223 363.061C906.961 368.873 910.304 376.479 913.529 383.832C917.649 393.285 921.032 399.838 930.931 409.068C939.4 416.968 946.821 418.086 956.661 412.691C962.475 409.509 969.508 391.162 977.647 395.862V450.033C969.885 445.551 864.447 384.938 864.447 384.938V357.744C875.07 363.655 880.131 366.891 884.598 363.226Z" fill="#468ED1"/>
<path d="M882.279 371.844C886.075 378.674 889.653 385.127 897.998 389.938C905.861 394.48 909.68 386.856 913.723 378.762C918.431 369.35 923.328 359.603 935.163 366.409C947.374 373.468 954.76 389.891 961.275 404.397C966.454 415.915 971.344 426.798 977.647 430.439V432.062C970.585 427.998 965.512 416.656 960.115 404.65C953.795 390.591 946.633 374.65 935.163 368.032C924.246 361.732 919.555 371.091 915.018 380.15C910.781 388.603 906.779 396.621 897.998 391.521C889.041 386.35 885.051 379.215 881.249 372.315C877.288 365.179 873.545 358.444 864.435 353.185V351.562C874.157 357.226 878.289 364.65 882.279 371.844Z" fill="#EF4EAF"/>
<path d="M805.143 168.959V237.854L799.717 240.99V172.107L805.143 168.959Z" fill="#2E7EC1"/>
<path d="M799.717 172.107L688.812 108.023L688.782 176.907L799.717 240.99V172.107Z" fill="#EEFAFF"/>
<path d="M805.143 168.96L799.717 172.107L688.812 108.023L694.238 104.894L805.143 168.96Z" fill="#2E7EC1"/>
<path d="M805.143 256.254V325.143L799.717 328.279V259.396L805.143 256.254Z" fill="#2E7EC1"/>
<path d="M799.717 259.396L688.812 195.312L688.782 264.196L799.717 328.279V259.396Z" fill="#468ED1"/>
<path d="M805.143 256.254L799.717 259.396L688.812 195.313L694.238 192.183L805.143 256.254Z" fill="#2E7EC1"/>
<path d="M748.975 265.167C748.975 279.631 759.233 297.32 771.845 304.579C784.457 311.838 794.714 306.008 794.714 291.543C794.714 277.078 784.457 259.396 771.845 252.131C759.233 244.866 748.975 250.708 748.975 265.167ZM757.462 270.067C757.462 260.966 763.935 257.29 771.845 261.867C779.754 266.443 786.234 277.573 786.234 286.667C786.234 295.761 779.76 299.443 771.845 294.867C763.929 290.29 757.462 279.161 757.462 270.067V270.067Z" fill="#FCC3EF"/>
<path d="M750.005 273.543C749.811 272.713 749.652 271.896 749.517 271.078C749.517 270.949 749.458 270.813 749.44 270.684C749.317 269.931 749.234 269.184 749.164 268.449C749.164 268.26 749.111 268.066 749.093 267.86C749.016 266.943 748.975 266.037 748.975 265.143C748.947 262.776 749.272 260.419 749.94 258.149L758.062 265.637C757.648 267.068 757.45 268.553 757.473 270.043C757.473 270.602 757.473 271.172 757.544 271.749C757.544 271.866 757.544 271.984 757.585 272.102C757.632 272.572 757.685 273.037 757.762 273.508C757.762 273.59 757.762 273.666 757.809 273.749C757.897 274.266 757.997 274.79 758.115 275.308V275.361C759.798 282.466 764.524 289.796 770.262 293.825L770.373 293.914C770.856 294.249 771.345 294.555 771.839 294.843C779.772 299.42 786.228 295.743 786.228 286.643C786.228 285.967 786.181 285.272 786.11 284.567C786.11 284.39 786.063 284.208 786.04 284.025C785.969 283.437 785.881 282.896 785.769 282.319C785.734 282.161 785.704 281.996 785.669 281.837C785.341 280.328 784.894 278.847 784.333 277.408C784.268 277.237 784.198 277.072 784.127 276.902C783.903 276.343 783.662 275.79 783.403 275.237C783.303 275.019 783.203 274.808 783.097 274.596C782.785 273.961 782.456 273.337 782.102 272.719C781.991 272.525 781.873 272.331 781.755 272.131C781.443 271.613 781.12 271.096 780.778 270.59C780.602 270.325 780.419 270.066 780.237 269.813C779.943 269.402 779.648 268.996 779.331 268.602C777.286 265.891 774.744 263.595 771.839 261.837V252.137C776.187 254.759 780.023 258.147 783.162 262.137V262.137C784.28 263.519 785.328 264.966 786.31 266.455C786.31 266.507 786.375 266.56 786.41 266.613C787.479 268.247 788.461 269.936 789.353 271.672C789.435 271.825 789.512 271.978 789.588 272.131C789.983 272.919 790.365 273.719 790.718 274.519L790.807 274.708C791.154 275.496 791.472 276.29 791.772 277.061C791.884 277.361 791.995 277.649 792.101 277.961C792.313 278.549 792.507 279.137 792.69 279.725C792.802 280.072 792.913 280.425 793.013 280.778C793.208 281.425 793.378 282.078 793.543 282.719L793.773 283.714C793.908 284.302 794.026 284.925 794.132 285.531C794.173 285.761 794.22 285.99 794.255 286.219C794.373 286.984 794.467 287.737 794.538 288.484C794.538 288.714 794.579 288.943 794.591 289.167C794.655 289.978 794.697 290.784 794.697 291.572C794.697 306.037 784.439 311.884 771.827 304.608C771.042 304.157 770.258 303.665 769.473 303.131L769.302 303.002C764.088 299.349 759.298 293.92 755.531 287.419C753.032 283.127 751.165 278.497 749.987 273.672C749.991 273.629 749.997 273.586 750.005 273.543V273.543Z" fill="#EEFAFF"/>
<path d="M691.201 231.466C691.201 245.931 701.459 263.619 714.07 270.878C726.682 278.137 736.94 272.308 736.94 257.843C736.94 243.378 726.682 225.695 714.07 218.43C701.459 211.166 691.201 217.007 691.201 231.466ZM699.681 236.36C699.681 227.266 706.155 223.583 714.07 228.166C721.986 232.748 728.46 243.866 728.46 252.966C728.46 262.066 721.986 265.743 714.07 261.166C706.155 256.59 699.681 245.46 699.681 236.36Z" fill="#FCC3EF"/>
<path d="M700.288 231.931C699.875 233.362 699.676 234.847 699.699 236.337C699.699 245.437 706.173 256.566 714.088 261.143C722.004 265.719 728.477 262.043 728.477 252.943C728.477 243.843 722.004 232.719 714.088 228.143V218.437C726.7 225.713 736.958 243.396 736.958 257.849C736.958 272.302 726.7 278.161 714.088 270.884C701.476 263.608 691.219 245.919 691.219 231.472C691.19 229.106 691.515 226.748 692.184 224.478L700.288 231.931Z" fill="#EF4EAF"/>
<path d="M703.86 250.355C706.585 255.09 710.216 258.931 714.094 261.166C722.027 265.743 728.483 262.066 728.483 252.966C728.483 247.054 725.7 239.954 721.221 234.437L725.429 228.419C732.544 237.19 736.964 248.472 736.964 257.86C736.964 272.325 726.706 278.172 714.094 270.896C707.932 267.337 702.153 261.237 697.828 253.707C693.567 246.313 691.225 238.413 691.225 231.466L699.705 236.36C699.681 240.754 701.159 245.702 703.86 250.355Z" fill="#EEFAFF"/>
<path d="M715.501 154.582C718.443 152.188 721.168 149.924 726.435 154.465C731.143 158.535 733.497 163.877 735.751 169.006C738.653 175.624 741.342 179.865 747.934 186.653C754.807 193.753 760.422 195.242 765.942 189.189C769.067 185.765 774.934 174.118 780.655 177.424V215.348C775.223 212.207 701.418 169.783 701.418 169.783V150.741C708.827 154.871 712.37 157.147 715.501 154.582Z" fill="#468ED1"/>
<path d="M713.865 160.612C716.519 165.395 719.026 169.906 724.87 173.283C730.372 176.459 733.044 171.118 735.875 165.471C739.176 158.877 742.596 152.053 750.882 156.836C759.427 161.771 764.6 173.306 769.161 183.43C772.786 191.495 776.223 199.113 780.62 201.666V202.801C775.688 199.954 772.121 192.018 768.349 183.612C763.923 173.771 758.933 162.612 750.882 157.977C743.231 153.571 739.953 160.124 736.758 166.459C733.815 172.377 730.99 177.971 724.846 174.424C718.573 170.806 715.801 165.806 713.117 160.977C710.345 155.983 707.726 151.265 701.347 147.588V146.453C708.191 150.371 711.081 155.577 713.865 160.612Z" fill="#EF4EAF"/>
<path opacity="0.5" d="M245.815 543.111L135.699 479.181C130.614 476.239 122.293 476.198 117.196 479.14L9.68094 541.158C7.19742 542.593 5.94389 544.476 5.87915 546.376C5.87915 546.534 5.87915 757.602 5.87915 757.602C5.92035 759.596 7.17388 761.514 9.68094 762.972L119.797 826.926C124.876 829.867 133.204 829.909 138.3 826.967L245.815 764.949C248.228 763.555 249.464 761.731 249.594 759.89C249.641 759.89 249.641 759.59 249.641 759.59V548.511C249.594 546.534 248.352 544.605 245.815 543.111Z" fill="#BFE0F2"/>
<g style="mix-blend-mode:multiply" opacity="0.48">
<path d="M245.368 753.701L136.988 691.847C131.615 688.783 122.934 688.783 117.608 691.847L9.92228 753.701C4.59036 756.766 4.62567 761.731 9.9929 764.795L118.373 826.643C123.74 829.708 132.421 829.708 137.747 826.643L245.445 764.801C250.765 761.713 250.735 756.748 245.368 753.701Z" fill="#F4F9FB"/>
</g>
<path d="M256.591 557.529L141.243 624.553C135.528 627.871 126.236 627.871 120.48 624.553L4.3491 557.534C1.45362 555.864 0 553.699 0 551.481V555.323C0 557.511 1.44185 559.705 4.33733 561.376L120.462 628.406C126.218 631.729 135.511 631.724 141.225 628.406L256.591 561.376C259.428 559.729 260.852 557.57 260.858 555.405V551.564C260.875 553.699 259.451 555.882 256.591 557.529Z" fill="#3277C8"/>
<path d="M256.55 545.511L140.419 478.492C134.663 475.174 125.365 475.174 119.65 478.492L4.27263 545.511C-1.43593 548.828 -1.4065 554.211 4.34914 557.534L120.474 624.553C126.23 627.87 135.523 627.87 141.237 624.553L256.591 557.528C262.329 554.211 262.3 548.828 256.55 545.511Z" fill="#A3C2DE"/>
<path fill-rule="evenodd" clip-rule="evenodd" d="M160.84 545.728L144.185 549.452L133.592 552.328L126.23 558.658C126.724 565.717 126.907 569.246 129.761 570.911C133.227 572.97 138.765 570.835 142.09 569.082L142.849 566.282C147.463 565.37 146.257 566.205 150.747 563.282C156.179 559.752 162.735 554.87 163.471 549.558C163.653 548.028 162.341 545.393 160.84 545.728Z" fill="#8A8A8B"/>
<path fill-rule="evenodd" clip-rule="evenodd" d="M131.356 524.934L114.713 528.658L104.078 531.534L96.7161 537.864C97.2104 544.923 97.3929 548.452 100.247 550.123C103.713 552.176 109.257 550.046 112.576 548.287L113.336 545.493C117.95 544.575 116.743 545.417 121.233 542.493C126.671 538.964 133.221 534.081 133.963 528.763C134.181 527.228 132.862 524.599 131.356 524.934Z" fill="#8A8A8B"/>
<path d="M116.196 283.637C116.296 287.02 116.037 287.826 116.037 287.826C116.037 287.826 114.954 285.384 113.736 286.09C112.518 286.796 112.671 287.008 114.236 292.296C115.801 297.585 116.92 300.379 116.92 300.379L124.058 304.826C124.058 304.826 126.2 300.902 126.183 292.761C126.165 284.62 125.247 281.549 121.528 279.231C117.808 276.914 116.096 280.255 116.196 283.637Z" fill="url(#paint0_linear)"/>
<path d="M114.501 294.819C114.042 296.761 110.134 327.69 110.134 327.69C110.134 327.69 120.539 336.979 123.988 328.637C123.988 328.637 128.337 308.337 126.171 296.161C125.818 294.196 118.032 291.872 114.501 294.819Z" fill="#174B89"/>
<path d="M99.4879 347.273C91.2076 361.479 91.543 369.467 96.1511 372.326C100.759 375.185 108.41 361.932 112.406 354.749C117.702 345.19 128.478 324.367 122.252 318.678C120.645 317.225 118.291 317.772 114.342 322.52C109.657 328.131 103.984 339.579 99.4879 347.273Z" fill="#3698DF"/>
<g style="mix-blend-mode:multiply" opacity="0.48">
<path d="M158.421 531.852C140.484 521.505 111.499 521.452 93.6851 531.734C75.8709 542.017 75.9533 558.752 93.8911 569.099C111.829 579.446 140.813 579.499 158.627 569.217C176.442 558.934 176.353 542.199 158.421 531.852Z" fill="#F4F9FB"/>
</g>
<path d="M97.1043 537.816C97.1043 542.611 108.763 538.434 109.081 532.757C109.398 527.081 115.272 487.586 115.272 487.586L115.101 449.839L118.956 450.986L123.587 497.263C123.587 497.263 127.118 555.764 127.589 558.834C128.06 561.905 140.072 561.011 140.072 553.74C140.072 550.575 143.185 502.828 143.185 502.828L143.456 430.645L93.6204 420.55C93.6204 420.55 97.1043 533.04 97.1043 537.816Z" fill="#252A52"/>
<path d="M140.113 348.367C140.113 348.367 107.974 331.508 99.8116 335.626C91.6489 339.744 91.8785 345.038 91.4194 365.744C91.2664 372.667 95.6802 384.197 96.0275 392.544C96.7101 409.15 91.9079 431.368 91.9079 431.368C91.9079 431.368 109.31 437.839 123.817 437.839C138.324 437.839 145.645 434.556 145.645 434.556C145.645 434.556 140.713 414.709 141.59 397.25C142.673 375.738 146.893 351.608 140.113 348.367Z" fill="#174B89"/>
<path d="M111.193 321.932V337.226C111.193 337.226 116.631 344.085 124.77 341.144C126.218 338.291 126.536 329.109 125.636 325.085C124.735 321.061 111.193 321.932 111.193 321.932Z" fill="url(#paint1_linear)"/>
<path d="M107.627 314.873C108.086 327.296 114.842 338.808 128.654 336.35C142.467 333.891 139.836 308.884 139.836 308.884C135.411 284.043 106.244 299.078 107.627 314.873Z" fill="url(#paint2_linear)"/>
<path d="M127.807 294.755C109.893 291.931 105.144 308.131 105.144 313.108C105.144 318.084 108.598 335.326 115.737 335.326C122.875 335.326 129.12 327.132 129.12 327.132C127.389 318.308 136.67 314.837 140.984 309.873C145.298 304.908 145.716 297.561 127.807 294.755Z" fill="#112F5B"/>
<path d="M127.483 317.637C125.017 321.649 128.019 325.067 129.937 326.984C131.856 328.902 135.158 324.455 132.397 320.002C132.415 320.002 129.949 313.625 127.483 317.637Z" fill="url(#paint3_linear)"/>
<path d="M137.712 340.591C130.967 356.167 133.086 364.22 139.165 366.473C145.245 368.726 151.453 354.22 154.614 346.356C158.81 335.92 167.102 313.267 158.498 308.385C156.291 307.132 153.619 308.02 149.97 313.379C145.609 319.743 141.354 332.138 137.712 340.591Z" fill="#3698DF"/>
<path fill-rule="evenodd" clip-rule="evenodd" d="M110.876 336.785L109.616 341.344C109.269 348.455 123.546 348.82 127.736 343.014L126.318 338.802C121.875 340.62 113.965 339.461 110.876 336.785Z" fill="#35ABAB"/>
<path d="M102.154 285.478L130.532 301.861V269.307L102.154 252.925V285.478Z" fill="white"/>
<path d="M130.355 301.861L158.739 285.478V252.925L130.355 269.307V301.861Z" fill="#EF4EAF"/>
<path d="M102.154 252.878L130.532 269.254L158.739 252.978L130.355 236.601L102.154 252.878Z" fill="#FCC3EF"/>
<path d="M147.769 274.873C148.411 278.19 148.287 279.026 148.287 279.026C148.287 279.026 146.822 276.79 145.733 277.684C144.644 278.579 144.833 278.761 147.222 283.732C149.611 288.702 151.165 291.279 151.165 291.279L158.928 294.52C158.928 294.52 160.411 290.308 159.092 282.273C157.774 274.237 156.368 271.361 152.324 269.667C148.281 267.973 147.128 271.543 147.769 274.873Z" fill="url(#paint4_linear)"/>
<path d="M147.887 286.172C147.746 288.16 148.846 319.314 148.846 319.314C148.846 319.314 160.617 326.82 162.671 318.037C162.671 318.037 163.712 297.296 159.622 285.625C158.957 283.743 150.906 282.696 147.887 286.172Z" fill="#3698DF"/>
<g style="mix-blend-mode:multiply" opacity="0.48">
<path d="M891.183 764.907C873.245 754.554 844.255 754.501 826.447 764.79C808.639 775.078 808.715 791.802 826.647 802.155C844.579 812.508 873.569 812.555 891.383 802.273C909.197 791.99 909.115 775.255 891.183 764.907Z" fill="#E9ECED"/>
</g>
<path d="M710.439 268.931L665.018 495.993L661.793 497.875L707.197 270.825L710.439 268.931Z" fill="#B6AD9B"/>
<path d="M710.439 268.931L707.197 270.825L702.012 267.843L705.266 265.955L710.439 268.931Z" fill="#AC8471"/>
<path d="M707.197 270.825L661.793 497.875L656.596 494.875L702.012 267.843L707.197 270.825Z" fill="#C1AEA8"/>
<path d="M704.543 493.963V497.722L666.089 475.522L669.338 473.639L704.543 493.963Z" fill="#AC8471"/>
<path d="M704.543 497.722V500.605L665.524 478.134L666.089 475.522L704.543 497.722Z" fill="#C1AEA8"/>
<path d="M709.692 468.863V472.622L671.221 450.421L674.464 448.539L709.692 468.863Z" fill="#AC8471"/>
<path d="M709.692 472.622V475.492L670.656 453.033L671.221 450.421L709.692 472.622Z" fill="#C1AEA8"/>
<path d="M714.424 444.368V448.121L675.976 425.921L679.231 424.044L714.424 444.368Z" fill="#AC8471"/>
<path d="M714.424 448.122V450.986L675.405 428.539L675.976 425.921L714.424 448.122Z" fill="#C1AEA8"/>
<path d="M719.297 420.127V423.898L680.837 401.697L684.092 399.803L719.297 420.127Z" fill="#AC8471"/>
<path d="M719.297 423.898V426.756L680.278 404.315L680.837 401.697L719.297 423.898Z" fill="#C1AEA8"/>
<path d="M724.087 396.292V400.05L685.64 377.856L688.882 375.968L724.087 396.292Z" fill="#AC8471"/>
<path d="M724.087 400.05V402.903L685.057 380.461L685.64 377.855L724.087 400.05Z" fill="#C1AEA8"/>
<path d="M728.919 372.197V375.933L690.465 353.75L693.714 351.868L728.919 372.197Z" fill="#AC8471"/>
<path d="M728.919 375.932V378.809L689.889 356.355L690.465 353.75L728.919 375.932Z" fill="#C1AEA8"/>
<path d="M733.509 348.032V351.802L695.026 329.614L698.293 327.708L733.509 348.032Z" fill="#AC8471"/>
<path d="M733.509 351.803V354.673L694.467 332.208L695.026 329.614L733.509 351.803Z" fill="#C1AEA8"/>
<path d="M738.37 323.938V327.697L699.899 305.49L703.16 303.596L738.37 323.938Z" fill="#AC8471"/>
<path d="M738.37 327.696V330.561L699.352 308.114L699.899 305.49L738.37 327.696Z" fill="#C1AEA8"/>
<path d="M750.441 292.02L705.031 519.063L701.788 520.969L747.198 293.908L750.441 292.02Z" fill="#A69A83"/>
<path d="M750.441 292.02L747.198 293.908L742.025 290.931L745.291 289.037L750.441 292.02Z" fill="#AC8471"/>
<path d="M747.198 293.908L701.788 520.969L696.621 517.975L742.025 290.931L747.198 293.908Z" fill="#C1AEA8"/>
<path d="M668.349 448.933C668.039 449.134 667.778 449.401 667.584 449.715C666.742 451.098 668.431 454.074 668.349 455.01H665.242C665.047 452.457 666.113 450.78 664.247 448.974L668.349 448.933Z" fill="#7B6019"/>
<path d="M677.63 391.286C677.242 400.109 676.341 429.798 676.294 431.086C676.214 434.399 676.446 437.711 676.988 440.98C677.442 444.016 679.26 448.204 679.813 448.492C680.219 448.71 681.085 451.386 681.391 451.569C681.048 451.979 680.672 452.361 680.267 452.71C679.889 453.078 679.461 453.391 678.995 453.639L675.776 454.563H675.688C675.126 454.568 674.577 454.389 674.127 454.052C673.677 453.715 673.351 453.239 673.198 452.698C672.775 451.622 673.028 450.104 672.41 449.169C671.727 448.075 670.374 447.645 669.367 446.91C668.775 446.382 668.091 445.967 667.349 445.686C666.76 445.486 666.042 445.422 665.471 445.18C664.583 444.874 664.647 445.286 665.036 444.11C665.224 443.604 664.971 443.445 665.242 442.627C665.442 441.974 666.042 440.633 666.236 440.163C666.902 438.306 667.104 436.315 666.825 434.363C666.584 432.427 665.018 424.462 664.612 422.745C661.876 410.78 663.353 390.362 663.659 384.697L677.63 391.286Z" fill="#FFC7B4"/>
<path d="M665.383 441.886C665.542 441.61 666.336 442.886 667.148 443.292C669.503 444.537 671.66 446.123 673.552 447.998C674.111 448.621 674.845 449.062 675.657 449.266C676.47 449.469 677.325 449.425 678.112 449.139C678.346 449.063 678.574 448.97 678.795 448.863C678.998 448.767 679.161 448.603 679.255 448.4C679.35 448.197 679.37 447.967 679.313 447.751L681.773 448.757C682.467 449.039 685.669 449.657 684.298 451.451C683.814 451.932 683.226 452.294 682.579 452.51C681.627 452.927 680.643 453.269 679.637 453.533C677.606 454.164 675.541 454.677 673.451 455.069C671.215 455.48 672.498 450.863 671.262 449.88C670.715 449.451 669.155 449.451 667.79 449.88C667.179 450.097 666.521 450.141 665.886 450.008C665.252 449.875 664.667 449.571 664.194 449.127C663.388 448.227 663.694 446.415 664.029 444.751C664.357 443.742 664.812 442.78 665.383 441.886V441.886Z" fill="#7B6019"/>
<path d="M710.922 263.825C711.405 263.796 713.865 263.407 714.736 264.519C715.324 265.249 718.108 269.813 716.383 270.455C715.242 270.896 705.419 273.172 705.419 273.172C704.766 273.402 703.165 274.725 702.653 274.649L699.187 274.113L696.98 271.084L705.773 264.666L710.922 263.825Z" fill="url(#paint5_linear)"/>
<path d="M693.037 273.108C696.056 269.62 699.705 267.955 703.183 270.955C706.661 273.955 705.637 277.879 702.595 281.379L692.001 293.814C691.295 294.677 690.423 295.39 689.437 295.91C688.451 296.431 687.371 296.749 686.26 296.846C685.148 296.943 684.029 296.816 682.968 296.474C681.906 296.132 680.924 295.581 680.079 294.853C679.234 294.126 678.544 293.236 678.048 292.238C677.552 291.239 677.261 290.151 677.193 289.039C677.124 287.926 677.279 286.811 677.648 285.759C678.017 284.707 678.593 283.74 679.342 282.914L693.037 273.108Z" fill="#F7D41E"/>
<path d="M672.398 276.219C672.592 276.181 672.792 276.181 672.987 276.219C673.112 276.817 673.364 277.38 673.727 277.872C674.089 278.363 674.553 278.77 675.088 279.066C677.083 280.113 680.467 283.043 683.327 280.831C684.086 280.243 690.877 282.908 690.836 283.772C693.096 286.037 688.3 285.778 685.846 286.943C682.974 288.343 679.448 288.549 676.288 287.943C665.848 285.902 667.46 280.431 669.985 277.637C670.615 276.916 671.461 276.418 672.398 276.219Z" fill="#859522"/>
<path d="M687.064 456.051C686.766 456.254 686.512 456.514 686.316 456.815C685.457 458.251 687.158 460.933 687.064 461.886L683.915 462.204C683.762 459.645 684.822 457.921 682.909 456.104L687.064 456.051Z" fill="#7B6019"/>
<path d="M696.621 390.379C696.221 399.203 695.197 436.886 695.162 438.192C695.083 441.496 695.311 444.8 695.844 448.062C696.315 451.098 698.122 455.304 698.681 455.58C699.069 455.763 699.94 458.457 700.246 458.645C699.911 459.069 699.538 459.462 699.134 459.821C698.744 460.186 698.312 460.502 697.845 460.763L694.644 461.686H694.561C694.004 461.689 693.461 461.511 693.012 461.181C692.564 460.85 692.234 460.384 692.072 459.851C691.642 458.763 691.89 457.227 691.283 456.274C690.577 455.186 689.241 454.745 688.235 454.01C687.638 453.482 686.95 453.068 686.205 452.786C685.616 452.604 684.916 452.515 684.345 452.31C683.45 451.986 683.521 452.392 683.927 451.227C684.092 450.698 683.839 450.533 684.104 449.727C684.31 449.051 684.933 447.727 685.098 447.262C685.763 445.412 685.965 443.427 685.687 441.48C685.451 439.515 683.88 431.556 683.503 429.874C680.737 417.891 682.22 396.074 682.52 390.409L696.621 390.379Z" fill="#FFC7B4"/>
<path d="M684.268 448.992C684.41 448.733 685.204 449.986 685.981 450.404C688.336 451.647 690.494 453.233 692.384 455.11C693.121 455.866 694.091 456.353 695.138 456.492C695.749 456.523 696.36 456.437 696.939 456.239L697.645 455.968C697.847 455.868 698.008 455.702 698.102 455.498C698.196 455.293 698.218 455.063 698.163 454.845C698.163 454.845 700.017 455.633 700.623 455.863C701.318 456.127 704.495 456.745 703.136 458.545C702.645 459.02 702.06 459.387 701.418 459.621C700.405 460.039 699.434 460.333 698.475 460.639C696.442 461.266 694.372 461.769 692.278 462.145C690.042 462.563 691.331 457.945 690.095 456.957C689.577 456.551 687.988 456.551 686.634 456.992C686.024 457.213 685.364 457.26 684.729 457.127C684.094 456.994 683.508 456.686 683.038 456.239C682.203 455.298 682.521 453.521 682.856 451.845C683.212 450.841 683.686 449.884 684.268 448.992Z" fill="#7B6019"/>
<path d="M667.496 334.149C667.608 333.769 667.758 333.4 667.943 333.049C678.595 310.355 659.704 276.39 672.398 276.219C672.398 276.219 667.101 281.172 676.059 284.866C685.016 288.561 689.118 282.513 689.118 282.513C693.396 284.331 704.313 292.908 697.057 311.967C695.785 315.337 696.268 322.314 697.263 331.596C699.222 349.655 703.736 363.879 700.246 389.191C695.785 394.868 668.467 392.132 661.793 386.209C661.964 379.621 657.12 361.138 667.513 334.167L667.496 334.149Z" fill="#F7D41E"/>
<path d="M686.569 272.155C686.569 272.155 686.711 279.178 685.981 281.567C684.974 284.826 672.698 283.484 672.798 278.82C672.798 278.761 673.387 270.908 673.387 270.908L686.569 272.155Z" fill="url(#paint6_linear)"/>
<path d="M671.727 237.431C679.784 232.507 692.419 235.201 694.138 245.831C695.762 255.831 692.961 262.578 686.205 267.331C679.448 272.084 676.788 272.19 670.032 265.09C661.634 256.302 656.314 246.819 671.727 237.431Z" fill="#7B6047"/>
<path d="M683.044 244.36C688.341 240.243 694.585 242.066 694.585 251.702C694.585 261.337 695.226 269.108 690.607 272.784C687.14 275.543 679.637 273.961 677 271.737C675.117 270.114 673.363 261.266 672.969 258.26C671.692 248.749 677.724 248.472 683.044 244.36Z" fill="url(#paint7_linear)"/>
<path d="M672.669 243.942C673.399 243.354 677.806 227.325 694.52 240.413C698.004 243.095 696.874 252.572 696.874 252.572C696.874 252.572 689.3 253.325 688.37 254.084C687.523 254.748 684.251 260.078 681.579 264.801C681.226 265.454 680.855 266.09 680.525 266.684C679.089 269.26 677.359 274.537 670.668 270.131C670.185 269.719 659.009 258.119 662.058 248.542C662.629 244.342 672.669 243.942 672.669 243.942Z" fill="#7B6047"/>
<path d="M682.479 257.154C683.762 256.972 685.64 258.549 685.904 260.684C686.169 262.819 685.51 264.213 684.215 264.36C682.921 264.508 681.961 263.313 681.273 261.284C680.443 258.99 681.196 257.307 682.479 257.154Z" fill="#FFC7B4"/>
<path d="M741.572 308.991C742.072 308.697 744.838 307.226 746.203 307.761C747.121 308.132 749.987 314.426 748.516 315.844C747.522 316.779 741.077 320.597 741.077 320.597C739.547 321.103 738.253 320.85 735.057 322.95L733.88 323.109L731.655 316.997L736.587 311.702L741.572 308.991Z" fill="url(#paint8_linear)"/>
<path d="M692.596 287.408C696.409 285.82 701.335 287.896 703.583 292.043L719.656 321.414C721.91 325.579 720.627 330.238 716.801 331.802C712.976 333.367 708.074 331.308 705.82 327.144L689.736 297.767C687.493 293.625 688.782 288.99 692.596 287.408Z" fill="#F7D41E"/>
<path d="M710.828 321.849L727.306 313.273C731.19 310.784 734.074 312.026 736.246 314.796C738.417 317.567 739.188 321.855 735.333 324.367L718.667 331.896C714.765 334.396 709.839 332.396 707.697 329.614L706.696 328.502C704.537 325.737 706.95 324.349 710.828 321.849Z" fill="#F7D41E"/>
<path d="M662.334 239.46C665.501 239.46 668.072 242.901 668.072 247.148C668.072 251.395 665.501 254.837 662.334 254.837C659.168 254.837 656.596 251.395 656.596 247.148C656.596 242.901 659.162 239.46 662.334 239.46Z" fill="#715D24"/>
<path d="M851.788 783.532L849.934 783.32C849.817 781.049 849.728 775.837 849.434 770.796L851.359 770.708C851.447 774.467 851.776 778.59 851.788 783.532Z" fill="black"/>
<path d="M876.029 783.372L874.181 783.161C874.057 780.89 873.969 775.672 873.681 770.637L875.599 770.549C875.705 774.29 876.017 778.408 876.029 783.372Z" fill="black"/>
<path d="M834.78 701.73C835.41 699.807 838.511 699.612 840.253 699.089C843.608 698.077 846.956 697.095 850.311 696.101C850.605 699.301 850.899 702.53 851.2 705.736C851.665 710.848 852.812 716.03 852.477 721.124C851.6 734.066 850.246 747.007 848.899 759.948L851.323 770.76L847.28 786.055L836.652 786.231C837.587 786.231 840 764.613 840.236 762.407C840.859 756.466 839.988 751.495 839.194 745.654C838.188 738.119 837.187 730.613 836.175 723.077C835.681 719.454 835.063 716.019 835.304 712.336C835.423 710.65 835.439 708.959 835.351 707.271C835.28 705.812 834.362 703.018 834.78 701.73Z" fill="url(#paint9_linear)"/>
<path d="M859.021 701.73C859.651 699.807 862.746 699.612 864.494 699.089C867.843 698.077 871.197 697.095 874.546 696.101C874.846 699.301 875.134 702.53 875.44 705.736C875.899 710.848 877.053 716.03 876.717 721.124C875.841 734.066 874.481 747.007 873.139 759.948L875.564 770.76L871.521 786.055L860.892 786.231C861.828 786.231 864.235 764.613 864.476 762.407C865.065 756.466 864.223 751.495 863.435 745.654C862.428 738.119 861.428 730.613 860.416 723.077C859.921 719.454 859.298 716.019 859.539 712.336C859.657 710.65 859.674 708.959 859.592 707.271C859.515 705.812 858.597 703.018 859.021 701.73Z" fill="url(#paint10_linear)"/>
<path d="M853.454 557.976C853.365 557.437 853.428 556.884 853.636 556.379C853.844 555.874 854.188 555.437 854.631 555.117C855.284 554.57 856.006 554.111 856.779 553.752C858.234 552.366 860.165 551.589 862.175 551.582C867.278 551.487 875.164 554.582 876.205 579.923C876.411 585.035 878.259 597.506 875.882 604.747C874.981 606.359 873.622 607.759 871.762 607.741H870.397C863.923 605.082 854.642 601.817 855.925 595.441C856.143 594.274 856.297 593.096 856.384 591.911C856.867 590.735 857.385 589.623 857.938 588.458C872.08 565.464 853.471 558.064 853.454 557.976Z" fill="#BA6B6B"/>
<path d="M819.261 565.464C822.822 563.958 827.077 565.305 828.754 568.47L852.294 592.27C853.966 595.417 852.43 599.223 848.875 600.729C845.32 602.235 839.2 605.053 837.529 601.905L815.86 573.976C814.171 570.758 815.677 566.946 819.261 565.464Z" fill="#526276"/>
<path d="M842.82 560.823C842.82 560.823 842.82 560.823 842.784 560.823C842.749 560.823 842.737 560.764 842.708 560.723C842.678 560.682 842.708 560.723 842.708 560.723C842.708 560.723 842.749 560.758 842.82 560.823Z" fill="url(#paint11_linear)"/>
<path d="M847.004 586.394C849.152 584.899 851.906 585.088 854.784 585.088C861.334 585.088 867.395 588.782 867.395 594.894C867.395 601.006 855.755 628.171 849.205 628.171C842.654 628.171 841.695 600.235 841.695 594.111C841.695 590.682 844.155 588.405 847.004 586.394Z" fill="url(#paint12_linear)"/>
<path d="M850.676 590.458C856.249 590.458 862.523 589.37 863.299 589.964C866.307 592.27 854.295 606.006 848.716 606.006C843.137 606.006 844.661 591.7 844.661 588.947C844.661 586.194 845.103 590.458 850.676 590.458Z" fill="url(#paint13_linear)"/>
<path d="M838.629 643.494C841.572 634.806 839.635 617.941 838.547 614.194C835.981 605.37 838.194 598.464 843.502 586.899C843.567 586.899 843.708 586.441 846.98 586.394C846.98 586.394 842.09 597.635 851.459 599.57C860.716 601.488 862.711 587.17 862.711 587.17C873.534 591.158 874.681 596.323 877.288 600.035C872.639 607.323 871.509 624.394 871.174 633.135C870.98 638.429 871.174 639.388 872.533 644.147C877.029 662.653 880.725 667.771 881.479 672.971C883.179 684.906 886.293 699.107 877.288 702.707C864.777 707.695 840.436 709.113 831.461 703.171C826.047 699.589 838.606 643.459 838.606 643.459L838.629 643.494Z" fill="#526276"/>
<path d="M861.675 580.17L861.552 588.652C860.493 590.126 858.979 591.211 857.244 591.741C855.478 592.205 853.565 592.547 851.771 592.105C850.07 591.676 850.446 590.417 850.07 589.082L850.499 581.158L861.675 580.17Z" fill="url(#paint14_linear)"/>
<path d="M866.054 549.993C878.312 556.517 874.481 571.064 867.619 577.329C860.557 583.8 857.685 580.729 850.617 576.406C843.549 572.082 840.96 561.111 841.419 558.729C843.302 549.064 857.615 545.535 866.054 549.993Z" fill="#BA6B6B"/>
<path d="M853.754 555.923C858.238 555.335 865 560.135 865.236 569.041C865.236 569.488 865.236 569.994 865.236 570.523C865.61 570.304 866.033 570.182 866.467 570.168C866.901 570.154 867.331 570.247 867.719 570.441C868.896 571.158 869.037 572.929 868.025 574.405C867.142 575.688 865.671 576.329 864.541 576C864.324 577.092 864.021 578.166 863.635 579.211C861.204 585.511 849.705 587.6 847.633 585.617C845.073 583.123 841.477 573.264 841.477 564.517C841.477 555.77 846.527 556.882 853.754 555.923Z" fill="url(#paint15_linear)"/>
<path d="M845.303 552.228C848.799 549.787 852.9 552.075 856.596 552.652C861.834 553.464 865.477 556.722 867.454 561.17C867.743 561.852 867.201 562.311 866.577 562.346C866.736 565.023 867.084 568.887 865.859 570.881C865.689 571.164 864.965 570.399 864.682 570.187C863.664 569.258 859.033 562.923 853.407 562.858C849 562.899 844.742 564.454 841.348 567.264C841.348 567.264 839.553 556.27 845.303 552.228Z" fill="#BA6B6B"/>
<path d="M893.361 564.429C894.598 563.151 896.27 562.381 898.046 562.273C899.822 562.164 901.575 562.723 902.959 563.841C903.622 564.367 904.168 565.026 904.56 565.775C904.953 566.525 905.185 567.348 905.24 568.193C905.296 569.037 905.174 569.884 904.882 570.678C904.591 571.472 904.136 572.197 903.548 572.805L873.534 608.1C871.044 610.735 869.143 604.847 866.342 602.518C865.68 601.988 865.137 601.325 864.746 600.573C864.356 599.82 864.128 598.995 864.076 598.149C864.023 597.303 864.149 596.455 864.444 595.661C864.739 594.866 865.197 594.142 865.789 593.535L893.361 564.429Z" fill="#526276"/>
<path d="M896.809 526.64C898.487 528.575 899.063 532.522 899.163 535.999C899.236 537.907 899.165 539.819 898.951 541.717C897.774 542.511 894.243 541.046 891.954 539.364C891.913 534.658 888.647 528.311 890.442 525.569C891.642 523.746 893.213 522.446 896.809 526.64Z" fill="url(#paint16_linear)"/>
<path d="M905.784 567.511C906.237 570.988 903.618 574.058 899.946 574.335C896.274 574.611 892.884 572.046 892.454 568.558L891.448 538.993L899.522 537.911L905.784 567.511Z" fill="#526276"/>
<path d="M823.375 522.669C826.706 518.869 828.301 520.04 829.548 521.699C831.42 524.199 829.23 531.246 828.724 534.952C826.535 536.464 823.098 537.164 821.933 536.44C821.636 534.714 821.483 532.967 821.474 531.216C821.427 528.046 821.821 524.446 823.375 522.669Z" fill="url(#paint17_linear)"/>
<path d="M820.868 534.075C822.939 535.611 826.753 535.84 828.648 534.946L827.059 570.193C826.816 571.879 825.949 573.413 824.629 574.491C823.31 575.569 821.634 576.114 819.932 576.017C819.121 575.997 818.324 575.811 817.589 575.469C816.854 575.127 816.198 574.637 815.661 574.029C815.124 573.421 814.719 572.71 814.471 571.938C814.223 571.167 814.136 570.352 814.218 569.546L820.868 534.075Z" fill="#526276"/>
<path d="M837.893 783.525C837.893 783.525 841.889 781.266 842.543 781.249C843.196 781.231 850.576 767.384 850.576 767.384L851.323 770.743L850.329 774.478L847.674 786.243C847.521 787.004 847.117 787.691 846.525 788.193C845.934 788.696 845.19 788.985 844.414 789.013L836.699 789.16L836.652 786.172L837.676 781.225L837.893 783.525Z" fill="#1F1F1F"/>
<path d="M862.134 783.525C862.134 783.525 865.971 781.266 866.624 781.249C867.278 781.231 874.811 767.384 874.811 767.384L875.564 770.743L874.569 774.478L871.915 786.243C871.76 787.004 871.354 787.69 870.762 788.193C870.169 788.695 869.425 788.984 868.649 789.013L860.939 789.16L860.892 786.172L861.911 781.225L862.134 783.525Z" fill="#1F1F1F"/>
<path d="M827.247 530.799L859.686 549.516V512.31L827.247 493.592V530.799Z" fill="white"/>
<path d="M859.48 549.516L891.919 530.799V493.592L859.48 512.31V549.516Z" fill="#EF4EAF"/>
<path d="M827.247 493.534L859.686 512.258L891.919 493.651L859.48 474.934L827.247 493.534Z" fill="#FCC3EF"/>
<path fill-rule="evenodd" clip-rule="evenodd" d="M558.68 701.453L575.323 705.177L585.952 708.054L593.32 714.383C592.825 721.442 592.643 724.971 589.789 726.642C586.316 728.695 580.779 726.566 577.459 724.807L576.694 722.013C572.086 721.095 573.287 721.936 568.796 719.007C563.365 715.477 556.814 710.595 556.073 705.283C555.861 703.753 557.173 701.118 558.68 701.453Z" fill="#8A8A8B"/>
<path fill-rule="evenodd" clip-rule="evenodd" d="M501.335 679.065L517.973 682.783L528.607 685.659L535.975 691.989C535.475 699.048 535.292 702.577 532.444 704.248C528.972 706.301 523.434 704.171 520.085 702.412L519.326 699.618C514.718 698.706 515.919 699.542 511.428 696.618C505.996 693.089 499.446 688.206 498.705 682.889C498.516 681.347 499.829 678.724 501.335 679.065Z" fill="#8A8A8B"/>
<path d="M518.602 635.1C518.602 635.1 521.804 684.266 521.804 687.53C521.804 695.019 534.198 695.942 534.663 692.777C535.128 689.613 537.27 642.383 537.27 642.383L569.12 624.006L571.557 662.501C571.557 662.501 577.606 703.172 577.918 708.995C578.23 714.819 590.277 719.142 590.277 714.207C590.277 709.272 593.896 593.435 593.896 593.435L542.572 603.829L518.602 635.1Z" fill="#252A52"/>
<path d="M587.505 505.999C579.101 501.763 546.003 519.128 546.003 519.128C533.35 525.169 542.561 603.835 542.561 603.835C542.561 603.835 546.833 607.859 561.77 607.859C576.706 607.859 593.808 594.876 593.808 594.876C591.517 585.358 590.548 575.57 590.93 565.787C591.372 556.105 596.356 545.199 596.18 537.046C595.674 515.687 595.909 510.24 587.505 505.999Z" fill="#174B89"/>
<path d="M550.358 518.769C543.708 518.299 538.27 524.922 537.929 542.299C537.741 551.746 536.428 565.117 537.764 572.888C538.894 579.441 542.408 581.217 545.009 581.435C550.7 581.9 555.69 555.587 556.191 544.064C556.626 535.417 557.009 519.24 550.358 518.769Z" fill="#3698DF"/>
<path d="M531.72 604.723C531.72 604.723 529.725 607.076 526.471 611.741C523.216 616.406 522.987 616.559 523.952 617.624C524.917 618.688 526.771 616.676 526.771 616.676C526.771 616.676 526.771 617.547 525.558 620.794C524.346 624.041 524.935 627.853 529.325 626.829C533.715 625.806 535.622 623.088 538.294 615.135C540.966 607.182 540.148 602.665 540.148 602.665L531.72 604.723Z" fill="url(#paint18_linear)"/>
<path d="M540.548 556.575C540.548 556.575 538.494 564.081 534.745 578.835C530.996 593.588 528.395 606.288 528.06 608.311C530.237 612.523 538.553 613.417 539.671 611.694C546.586 600.994 552.471 560.64 552.471 560.64C552.524 551.346 540.548 556.575 540.548 556.575Z" fill="#3698DF"/>
<path d="M560.91 495.181C559.963 499.328 560.322 508.787 561.805 511.723C570.185 514.752 575.782 507.687 575.782 507.687V491.934C575.782 491.934 561.858 491.034 560.91 495.181Z" fill="url(#paint19_linear)"/>
<path d="M546.262 478.48C546.262 478.48 543.573 504.234 557.803 506.763C572.033 509.292 578.989 497.439 579.454 484.645C580.861 468.368 550.847 452.886 546.262 478.48Z" fill="url(#paint20_linear)"/>
<path d="M558.68 463.921C540.23 466.804 540.677 474.357 545.144 479.469C549.611 484.58 559.121 488.133 557.321 497.228C557.321 497.228 563.794 505.669 571.098 505.669C578.401 505.669 582.038 487.91 582.038 482.798C582.038 477.686 577.124 461.033 558.68 463.921Z" fill="#112F5B"/>
<path d="M553.948 489.916C551.106 494.498 554.501 499.081 556.479 497.104C558.456 495.128 561.546 491.61 559.009 487.481C556.473 483.351 553.948 489.916 553.948 489.916Z" fill="url(#paint21_linear)"/>
<path fill-rule="evenodd" clip-rule="evenodd" d="M576.271 506.316L577.595 511.092C577.954 518.563 562.964 518.945 558.568 512.857L560.051 508.434C564.718 510.345 573.022 509.128 576.271 506.316Z" fill="#35ABAB"/>
<path d="M604.024 853.497C604.094 854.602 604.845 855.697 606.29 856.537L671.925 894.673C674.957 896.438 679.92 896.447 682.956 894.673L747.066 857.693C748.591 856.811 749.351 855.649 749.347 854.484V802.92L604 801.716L604.024 853.497Z" fill="#448BDE"/>
<path d="M604.024 852.737C604.094 853.846 604.845 854.941 606.29 855.781L671.925 893.917C674.957 895.682 679.92 895.692 682.956 893.941L747.066 856.956C748.591 856.079 749.351 854.913 749.347 853.752V802.164L604 800.956L604.024 852.737Z" fill="#468ED1"/>
<path d="M747.089 805.345L682.98 842.325C681.269 843.189 679.378 843.637 677.461 843.632C675.545 843.628 673.656 843.172 671.949 842.301L606.314 804.17C604.798 803.287 604.043 802.126 604.047 800.965V803C604.556 803.714 605.219 804.304 605.988 804.727L671.623 842.863C673.431 843.789 675.433 844.272 677.464 844.272C679.496 844.272 681.498 843.789 683.305 842.863L747.415 805.883C748.19 805.459 748.858 804.865 749.37 804.146V802.141C749.366 803.321 748.605 804.472 747.089 805.345Z" fill="white"/>
<path d="M747.104 798.945L681.468 760.814C678.437 759.049 673.474 759.035 670.438 760.791L606.328 797.77C603.292 799.521 603.282 802.4 606.328 804.17L671.963 842.301C674.995 844.071 679.957 844.081 682.994 842.325L747.104 805.345C750.126 803.594 750.135 800.715 747.104 798.945Z" fill="#EFF3FF"/>
<path d="M726.412 799.715L680.047 772.788C677.908 771.542 674.381 771.533 672.261 772.788L626.991 798.903C624.847 800.139 624.843 802.174 626.991 803.42L673.356 830.322C675.495 831.569 679.022 831.578 681.143 830.322L726.412 804.208C728.546 802.995 728.551 800.961 726.412 799.715Z" fill="#468ED1"/>
<path d="M650.752 774.426L676.779 789.445V759.592L650.752 744.574V774.426Z" fill="white"/>
<path d="M676.614 789.445L702.642 774.426V744.574L676.614 759.592V789.445Z" fill="#EF4EAF"/>
<path d="M650.752 744.527L676.779 759.545L702.642 744.621L676.614 729.603L650.752 744.527Z" fill="#FCC3EF"/>
<path d="M650.752 730.589L676.779 745.607V715.754L650.752 700.736V730.589Z" fill="white"/>
<path d="M676.614 745.607L702.642 730.589V700.736L676.614 715.754V745.607Z" fill="#EF4EAF"/>
<path d="M650.752 700.689L676.779 715.707L702.642 700.783L676.614 685.765L650.752 700.689Z" fill="#FCC3EF"/>
<path d="M726.412 710.841L680.047 683.938C677.908 682.692 674.381 682.683 672.261 683.938L626.991 710.053C625.948 710.657 625.419 711.469 625.391 712.247C625.391 712.313 625.391 801.178 625.391 801.178C625.391 802.018 625.938 802.825 626.991 803.439L673.356 830.341C675.495 831.587 679.022 831.597 681.143 830.341L726.412 804.227C727.427 803.642 727.947 802.872 727.999 802.098C728.022 802.098 728.022 801.971 728.022 801.971V713.106C728.013 712.257 727.47 711.464 726.412 710.841Z" fill="url(#paint22_linear)" fill-opacity="0.52"/>
<path d="M457.156 532.323C457.653 531.473 458.081 530.584 458.433 529.664L465.689 514.522H456.408C454.207 511.269 450.835 508.216 446.28 505.587C428.625 495.41 400.047 495.41 382.409 505.587C377.854 508.216 374.482 511.269 372.281 514.522H363.006L370.256 529.652C370.609 530.583 371.04 531.482 371.545 532.34V532.34C373.693 536.023 377.306 539.487 382.391 542.423C400.047 552.599 428.625 552.599 446.262 542.423C451.347 539.482 454.961 536.023 457.114 532.34L457.156 532.323Z" fill="#BFE0F2"/>
<path d="M600.376 329.514L233.498 329.25L364.565 517.652C367.102 521.846 371.262 525.781 377.071 529.128C397.669 541.011 431.032 541.011 451.618 529.128C457.426 525.781 461.623 521.846 464.124 517.652L600.376 329.514Z" fill="#468ED1"/>
<path d="M603.966 243.695L603.925 243.637C603.207 242.531 602.459 241.425 601.682 240.331L587.923 220.025H582.921C575.216 213.455 566.911 207.623 558.115 202.607C480.202 157.642 353.872 157.642 275.953 202.607C267.158 207.625 258.853 213.456 251.147 220.025H244.674L229.449 244.731C203.902 285.461 219.391 332.802 275.953 365.462C353.872 410.403 480.225 410.403 558.115 365.462C615.153 332.52 630.431 284.643 603.966 243.695Z" fill="white"/>
<path d="M416.29 375.379C528.125 375.379 618.785 323.062 618.785 258.525C618.785 193.988 528.125 141.67 416.29 141.67C304.455 141.67 213.795 193.988 213.795 258.525C213.795 323.062 304.455 375.379 416.29 375.379Z" fill="#468ED1"/>
<path d="M416.29 361.132C515.491 361.132 595.909 314.674 595.909 257.366C595.909 200.058 515.491 153.6 416.29 153.6C317.088 153.6 236.67 200.058 236.67 257.366C236.67 314.674 317.088 361.132 416.29 361.132Z" fill="#BFE0F2"/>
<path d="M615.836 275.049C615.877 304.543 596.415 334.044 557.415 356.55C479.502 401.515 353.201 401.515 275.253 356.55C240.207 336.326 220.951 310.449 217.432 284.008C217.432 313.479 236.888 342.956 275.853 365.438C353.772 410.403 480.102 410.403 558.015 365.438C600.935 340.673 620.203 307.432 615.836 275.049Z" fill="#66AAE8"/>
<path d="M321.622 306.232C321.655 306.187 321.673 306.134 321.675 306.079C321.675 306.079 322.393 297.014 328.837 297.132C331.462 297.179 334.81 298.743 337.864 300.579C340.768 302.359 343.54 304.346 346.157 306.526C346.216 306.579 346.281 306.627 346.351 306.667C346.617 306.846 346.941 306.916 347.257 306.861L356.42 302.92C356.454 302.897 356.484 302.869 356.509 302.837L355.437 304.602L347.728 307.92L347.628 307.955C347.31 308.039 346.979 308.056 346.655 308.004C346.33 307.953 346.02 307.834 345.745 307.655C345.62 307.58 345.502 307.496 345.392 307.402C342.824 305.264 340.106 303.314 337.258 301.567C333.727 299.461 330.832 298.326 328.819 298.29C323.993 298.202 323.01 304.761 322.875 305.938C322.448 305.993 322.028 306.091 321.622 306.232Z" fill="#448BDE"/>
<path d="M255.732 242.101C255.691 242.151 255.669 242.213 255.667 242.278L256.45 252.201C256.545 252.506 256.757 252.762 257.038 252.913C257.108 252.954 257.181 252.99 257.256 253.019C260.388 254.302 263.422 255.81 266.337 257.531C269.409 259.378 272.387 261.648 273.658 263.925V263.96C276.783 269.596 269.103 274.472 269.103 274.472C268.873 274.619 268.914 274.984 269.191 275.278L279.543 285.407C279.613 285.468 279.688 285.523 279.767 285.572C280.026 285.745 280.34 285.817 280.649 285.772C280.649 285.772 290.548 283.078 297.316 287.143C304.084 291.208 306.338 301.214 306.338 301.214C306.441 301.508 306.651 301.754 306.926 301.902C307.005 301.949 307.087 301.989 307.174 302.019L320.927 306.378C320.996 306.398 321.067 306.41 321.139 306.414C320.645 306.623 320.185 306.905 319.774 307.249L306.826 303.131H306.779C306.622 303.072 306.471 302.999 306.326 302.914C305.773 302.604 305.364 302.088 305.19 301.478C305.19 301.378 302.954 291.908 296.716 288.155C290.477 284.402 281.055 286.884 280.961 286.913C280.34 287.041 279.694 286.92 279.16 286.578C279.018 286.493 278.884 286.395 278.76 286.284L278.719 286.249L268.426 276.143L268.385 276.107L268.249 275.949L269.056 274.607C268.976 274.19 268.85 273.784 268.679 273.396C269.668 272.719 275.011 268.754 272.687 264.572V264.537C271.71 262.772 269.326 260.707 265.795 258.584C262.935 256.899 259.957 255.42 256.885 254.16C256.75 254.107 256.62 254.042 256.497 253.966C256.204 253.809 255.947 253.591 255.744 253.327C255.541 253.064 255.397 252.76 255.32 252.436C255.32 252.407 255.32 252.372 255.32 252.336L254.661 243.989L255.732 242.101Z" fill="#448BDE"/>
<path d="M265.195 226.472C265.148 226.586 265.138 226.712 265.166 226.833C265.195 226.953 265.26 227.062 265.354 227.142C265.354 227.142 274.246 237.272 271.892 241.166C270.715 243.06 268.508 244.072 265.731 244.219C265.542 243.831 265.336 243.443 265.142 243.043C267.896 243.043 269.939 242.143 270.904 240.548C271.233 240.001 271.663 238.195 268.55 233.319C267.325 231.428 265.977 229.62 264.512 227.907L264.401 227.766L265.195 226.442V226.472Z" fill="#448BDE"/>
<path d="M365.995 287.125L365.177 288.484H365.042C362.834 287.986 360.594 287.636 358.339 287.437C352.566 286.972 351.183 288.19 350.853 288.731C350.523 289.272 350.153 290.849 352.671 295.066C352.201 295.037 351.736 295.013 351.271 295.002C349.823 292.413 348.87 289.737 349.841 288.125C352.195 284.219 365.313 287.331 365.313 287.331C365.43 287.377 365.559 287.384 365.681 287.351C365.803 287.319 365.911 287.247 365.99 287.149L365.995 287.125Z" fill="#448BDE"/>
<path d="M300.076 223.219C300.076 223.219 299.488 230.401 294.821 231.889L296.086 229.789C297.075 228.808 297.801 227.595 298.199 226.26L300.141 223.107C300.114 223.141 300.092 223.178 300.076 223.219V223.219Z" fill="#448BDE"/>
<path d="M348.646 261.342L347.422 263.372L347.493 264.054C346.074 259.166 352.106 255.125 352.565 254.825L350.653 258.007C349.727 258.943 349.039 260.086 348.646 261.342V261.342Z" fill="#448BDE"/>
<path d="M301.112 247.06C306.662 247.16 312.776 249.219 318.179 252.466C323.581 255.713 328.266 260.149 330.955 265.002C334.563 271.508 333.668 277.113 329.349 280.049C329.349 279.608 329.284 279.149 329.213 278.69C329.904 278.142 330.49 277.475 330.944 276.719C332.674 273.843 332.315 269.884 329.926 265.572C327.418 261.054 323.034 256.749 317.567 253.478C312.1 250.207 306.25 248.337 301.088 248.243C296.157 248.154 292.49 249.69 290.76 252.566C290.306 253.321 289.993 254.152 289.836 255.019C289.404 255.169 288.979 255.342 288.565 255.537C289.136 250.348 293.667 246.931 301.112 247.06Z" fill="#448BDE"/>
<path d="M260.04 235.984C260.04 235.984 264.018 240.525 265.925 244.695L258.733 244.748L255.714 242.101L250.418 250.854H250.447C250.406 250.878 250.371 250.912 250.348 250.954C250.324 250.995 250.311 251.042 250.312 251.09L251.094 261.019C251.159 261.207 251.266 261.378 251.405 261.519C251.545 261.66 251.714 261.769 251.901 261.837C251.901 261.837 265.195 267.102 268.302 272.737V272.772C268.614 273.322 268.834 273.917 268.956 274.537L263.659 283.361L263.63 283.402C263.605 283.52 263.613 283.643 263.651 283.757C263.689 283.872 263.757 283.975 263.847 284.055L274.14 294.155C274.287 294.292 274.463 294.396 274.654 294.459C274.845 294.522 275.047 294.542 275.247 294.52C275.247 294.52 285.152 291.825 291.914 295.896C298.676 299.967 300.935 309.967 300.935 309.967C301.011 310.154 301.126 310.322 301.272 310.461C301.418 310.6 301.592 310.706 301.783 310.773L315.536 315.132C315.931 315.237 316.266 315.132 316.29 314.832C316.29 314.832 317.002 305.767 323.452 305.884C329.902 306.002 340.766 315.296 340.766 315.296C340.915 315.429 341.091 315.527 341.283 315.584C341.474 315.641 341.675 315.655 341.872 315.626L351.029 311.684C351.094 311.65 351.144 311.594 351.171 311.526L356.438 302.767L349.911 294.914C354.425 294.772 359.916 296.09 359.916 296.09C360.036 296.136 360.168 296.141 360.291 296.105C360.414 296.069 360.522 295.993 360.599 295.89L365.895 287.067L348.187 271.978L347.322 263.331L352.566 254.613L327.848 246.26L314.936 238.46L300.141 223.107L294.844 231.931C294.808 231.978 294.787 232.036 294.785 232.095C294.693 232.95 294.532 233.796 294.303 234.625L265.172 226.495L259.787 235.448L259.851 235.513C259.859 235.687 259.925 235.853 260.04 235.984V235.984ZM287.111 256.378C289.318 254.878 292.378 254.054 296.174 254.119C307.668 254.325 321.48 262.637 327.065 272.69C328.907 276.008 329.614 279.102 329.325 281.749C327.118 283.243 324.029 284.072 320.256 284.002C308.768 283.802 294.95 275.49 289.371 265.437C287.506 262.119 286.799 259.025 287.088 256.378H287.111Z" fill="white"/>
<path d="M269.232 275.302L279.543 285.408C279.691 285.544 279.866 285.648 280.057 285.711C280.247 285.774 280.45 285.795 280.649 285.773C280.649 285.773 290.548 283.078 297.316 287.143C304.084 291.208 306.338 301.214 306.338 301.214C306.411 301.402 306.524 301.571 306.669 301.71C306.815 301.849 306.989 301.955 307.18 302.02L320.933 306.379C321.327 306.485 321.669 306.349 321.686 306.079C321.686 306.079 322.404 297.014 328.849 297.131C335.293 297.249 346.169 306.543 346.169 306.543C346.316 306.676 346.491 306.775 346.682 306.833C346.872 306.891 347.072 306.907 347.269 306.879L356.432 302.937C356.673 302.802 356.656 302.443 356.391 302.143C356.391 302.143 347.504 292.02 349.853 288.12C352.201 284.22 365.325 287.326 365.325 287.326C365.713 287.42 366.043 287.273 366.043 286.996L365.254 277.067C365.187 276.879 365.08 276.708 364.94 276.567C364.799 276.425 364.629 276.317 364.442 276.249C364.442 276.249 351.147 270.99 348.034 265.349C344.921 259.708 352.607 254.843 352.607 254.843C352.83 254.702 352.795 254.337 352.519 254.043L342.225 243.937C342.101 243.804 341.942 243.709 341.766 243.663C341.59 243.617 341.404 243.622 341.231 243.678C341.231 243.678 337.935 245.637 335.205 245.59C331.962 245.531 328.142 244.413 324.447 242.184C317.685 238.113 315.442 228.107 315.442 228.107C315.367 227.921 315.253 227.753 315.108 227.614C314.963 227.475 314.79 227.369 314.601 227.301L300.841 222.936C300.447 222.831 300.112 222.966 300.088 223.236C300.088 223.236 299.358 232.295 292.914 232.172C286.47 232.048 275.6 222.76 275.6 222.76C275.452 222.626 275.276 222.526 275.084 222.468C274.893 222.41 274.691 222.395 274.494 222.425L265.325 226.36C265.083 226.489 265.101 226.848 265.366 227.148C265.366 227.148 274.246 237.278 271.887 241.172C270.609 243.284 267.973 244.301 264.742 244.243C262 244.196 256.415 242.054 256.415 242.054C256.02 241.907 255.691 242.007 255.685 242.284L256.468 252.207C256.532 252.396 256.639 252.568 256.779 252.71C256.92 252.851 257.091 252.959 257.28 253.025C257.28 253.025 270.568 258.319 273.682 263.931V263.966C276.807 269.602 269.126 274.478 269.126 274.478C268.915 274.643 268.95 275.008 269.232 275.302ZM290.725 264.284C285.346 254.578 289.983 246.866 301.088 247.06C312.194 247.254 325.553 255.296 330.932 265.002C336.311 274.708 331.673 282.425 320.574 282.225C309.475 282.025 296.127 273.996 290.725 264.284Z" fill="#EF4EAF"/>
<path d="M501.853 307.437C501.853 307.437 506.202 305.337 509.828 304.743L508.339 310.296L505.655 312.061L511.281 317.984C511.29 318.022 511.309 318.057 511.336 318.085C511.363 318.113 511.397 318.133 511.434 318.143L519.261 319.655C519.42 319.644 519.573 319.598 519.712 319.521C519.85 319.444 519.97 319.337 520.062 319.208C520.062 319.208 526.959 310.09 531.973 308.89H532.026C532.522 308.767 533.035 308.725 533.545 308.767L539.218 314.737L539.247 314.767C539.33 314.815 539.425 314.841 539.521 314.841C539.617 314.841 539.712 314.815 539.795 314.767L549.799 308.984C549.937 308.9 550.054 308.787 550.143 308.653C550.233 308.519 550.292 308.367 550.317 308.208C550.317 308.208 550.353 300.002 554.931 295.661C559.51 291.319 567.714 291.708 567.714 291.708C567.873 291.689 568.027 291.637 568.165 291.555C568.303 291.473 568.422 291.363 568.514 291.231L574.805 281.56C574.976 281.278 574.941 280.972 574.74 280.913C574.74 280.913 567.896 278.431 569.361 273.484C570.827 268.537 580.302 262.143 580.302 262.143C580.437 262.058 580.551 261.944 580.636 261.81C580.722 261.676 580.776 261.524 580.796 261.366L579.707 253.466C579.696 253.408 579.665 253.356 579.619 253.319L573.987 247.389L566.531 250.748C567.263 248.153 568.281 245.648 569.567 243.278C569.633 243.194 569.669 243.09 569.669 242.984C569.669 242.877 569.633 242.773 569.567 242.689V242.689L563.894 236.713L548.493 247.113L541.637 245.937L536.034 240.054L524.305 257.319L515.477 265.654L500.459 273.796L506.12 279.755C506.149 279.791 506.188 279.82 506.232 279.837C506.874 280.09 507.494 280.395 508.086 280.749L495.597 301.467L501.353 307.526L501.418 307.49C501.565 307.524 501.719 307.506 501.853 307.437V307.437ZM523.352 290.937C522.669 288.919 522.687 286.384 523.546 283.472C526.153 274.649 535.516 265.772 544.456 263.625C547.398 262.913 549.946 263.037 551.93 263.819C552.612 265.837 552.595 268.372 551.736 271.284C549.128 280.108 539.765 288.984 530.826 291.131C527.895 291.843 525.335 291.725 523.352 290.937Z" fill="#FCC3EF"/>
<path d="M501.1 306.637C501.1 306.637 505.449 304.537 509.08 303.949L507.585 309.502L504.902 311.267L510.528 317.19C510.539 317.226 510.559 317.259 510.586 317.285C510.612 317.312 510.645 317.332 510.681 317.343L518.508 318.861C518.667 318.849 518.821 318.802 518.959 318.724C519.098 318.646 519.217 318.538 519.309 318.408C519.309 318.408 526.206 309.29 531.22 308.096C531.716 307.973 532.229 307.931 532.738 307.972L538.488 313.92V313.949C538.574 313.993 538.67 314.014 538.766 314.009C538.862 314.003 538.955 313.973 539.035 313.92L549.04 308.143C549.177 308.058 549.294 307.945 549.383 307.811C549.472 307.677 549.532 307.525 549.558 307.367C549.558 307.367 549.593 299.161 554.172 294.813C558.751 290.466 566.954 290.86 566.954 290.86C567.114 290.843 567.269 290.792 567.407 290.71C567.545 290.627 567.664 290.516 567.755 290.384L574.052 280.713C574.217 280.431 574.181 280.125 573.981 280.066C573.981 280.066 567.137 277.584 568.602 272.643C570.068 267.701 579.543 261.295 579.543 261.295C579.677 261.211 579.792 261.097 579.877 260.963C579.963 260.828 580.017 260.677 580.037 260.519L578.948 252.619C578.936 252.563 578.905 252.513 578.86 252.478L573.228 246.548L565.772 249.901C566.507 247.309 567.526 244.806 568.808 242.436C568.874 242.352 568.91 242.249 568.91 242.142C568.91 242.036 568.874 241.932 568.808 241.848V241.848L563.135 235.877L547.722 246.307L540.866 245.131L535.257 239.248L523.534 256.537L514.706 264.866L499.688 273.007L505.361 278.99C505.391 279.025 505.43 279.054 505.473 279.072C506.116 279.32 506.736 279.623 507.326 279.978L494.838 300.702L500.594 306.755L500.665 306.719C500.815 306.75 500.971 306.72 501.1 306.637ZM522.598 290.166C521.91 288.149 521.927 285.607 522.787 282.696C525.4 273.872 534.757 265.001 543.702 262.848C546.645 262.142 549.187 262.26 551.171 263.042C551.853 265.06 551.836 267.601 550.976 270.513C548.369 279.337 539.006 288.207 530.067 290.355C527.118 291.049 524.582 290.937 522.598 290.166Z" fill="#F5FAFF"/>
<path d="M568.426 274.166C568.397 274.133 568.36 274.107 568.32 274.09C568.32 274.09 561.481 271.607 562.947 266.666C563.535 264.654 565.46 262.401 567.531 260.443C569.522 258.582 571.646 256.87 573.887 255.319C573.939 255.283 573.988 255.244 574.034 255.201C574.229 255.034 574.352 254.798 574.375 254.543L573.287 246.637C573.283 246.603 573.269 246.572 573.246 246.548V246.548L574.393 247.754L575.305 254.407C575.308 254.435 575.308 254.462 575.305 254.49C575.304 254.752 575.247 255.012 575.138 255.251C575.03 255.49 574.872 255.704 574.676 255.878C574.589 255.957 574.497 256.03 574.399 256.095C572.205 257.62 570.123 259.299 568.167 261.119C565.813 263.372 564.3 265.378 563.841 266.925C562.741 270.625 567.608 272.807 568.496 273.143C568.433 273.48 568.409 273.824 568.426 274.166V274.166Z" fill="#448BDE"/>
<path d="M504.902 311.267C504.934 311.305 504.977 311.334 505.025 311.349L512.847 312.867C513.104 312.855 513.347 312.743 513.523 312.555C513.571 312.512 513.614 312.465 513.653 312.414C515.31 310.274 517.119 308.257 519.067 306.379C521.145 304.402 523.51 302.59 525.541 302.096H525.594C530.608 300.89 532.732 307.855 532.732 307.855C532.797 308.061 533.086 308.108 533.374 307.955L543.379 302.179C543.442 302.138 543.502 302.091 543.555 302.037C543.743 301.874 543.866 301.648 543.902 301.402C543.902 301.402 543.902 293.196 548.516 288.849C553.13 284.502 561.293 284.872 561.293 284.872C561.543 284.856 561.776 284.744 561.946 284.561C562.003 284.513 562.052 284.458 562.093 284.396L568.39 274.725C568.419 274.675 568.442 274.621 568.461 274.566C568.519 274.993 568.638 275.409 568.814 275.802L562.888 284.908V284.943C562.809 285.053 562.721 285.155 562.623 285.249C562.447 285.431 562.237 285.577 562.005 285.678C561.773 285.779 561.523 285.833 561.269 285.837C561.193 285.837 553.413 285.519 549.187 289.531C544.962 293.543 544.844 301.343 544.844 301.39C544.815 301.896 544.586 302.37 544.208 302.708C544.111 302.802 544.004 302.887 543.891 302.961H543.855L533.851 308.743H533.815C533.767 308.773 533.716 308.796 533.662 308.814L532.803 307.908C532.465 307.882 532.126 307.894 531.791 307.943C531.473 307.037 529.554 302.061 525.823 302.967H525.77C524.193 303.343 522.098 304.731 519.703 307.014C517.8 308.862 516.03 310.841 514.406 312.937C514.335 313.028 514.258 313.114 514.177 313.196C513.991 313.384 513.767 313.531 513.521 313.627C513.275 313.724 513.011 313.767 512.747 313.755H512.67L506.12 312.52L504.902 311.267Z" fill="#448BDE"/>
<path d="M494.862 300.643C494.943 300.698 495.04 300.728 495.138 300.728C495.237 300.728 495.333 300.698 495.415 300.643C495.415 300.643 505.12 295.937 507.621 298.608C508.839 299.896 509.139 301.837 508.662 304.008C508.321 304.073 507.98 304.149 507.632 304.237C508.221 302.108 507.962 300.343 506.938 299.261C506.585 298.89 505.296 298.178 500.859 299.537C499.141 300.078 497.46 300.73 495.827 301.49L495.692 301.549L494.838 300.661L494.862 300.643Z" fill="#448BDE"/>
<path d="M563.153 235.895L564.024 236.813L563.977 236.913C563.125 238.51 562.378 240.16 561.74 241.854C560.151 246.201 560.793 247.531 561.152 247.901C561.511 248.272 562.629 248.889 566.448 247.854C566.325 248.207 566.207 248.56 566.095 248.919C563.794 249.507 561.522 249.642 560.487 248.548C557.98 245.901 563.176 236.46 563.176 236.46C563.24 236.375 563.275 236.272 563.275 236.166C563.275 236.06 563.24 235.956 563.176 235.872L563.153 235.895Z" fill="#448BDE"/>
<path d="M499.793 273.066C499.793 273.066 505.208 275.037 505.361 278.949L504.013 277.531C503.467 276.562 502.688 275.743 501.747 275.149L499.699 272.99C499.726 273.021 499.758 273.047 499.793 273.066V273.066Z" fill="#448BDE"/>
<path d="M539.577 243.772L540.883 245.142L541.419 245.236C537.346 245.283 535.534 239.772 535.387 239.354L537.429 241.507C537.957 242.42 538.693 243.195 539.577 243.772V243.772Z" fill="#448BDE"/>
<path d="M518.408 277.354C519.668 273.096 522.528 268.819 526.212 265.348C529.896 261.878 534.292 259.213 538.612 258.178C544.397 256.784 548.534 258.672 549.876 262.625C549.52 262.545 549.161 262.484 548.799 262.442C548.521 261.793 548.133 261.196 547.651 260.678C545.797 258.731 542.667 258.166 538.824 259.089C534.81 260.054 530.555 262.519 526.859 266.031C523.163 269.543 520.48 273.678 519.309 277.613C518.184 281.396 518.591 284.549 520.439 286.502C520.927 287.009 521.5 287.428 522.133 287.737C522.158 288.1 522.201 288.461 522.263 288.819C518.385 287.284 516.713 283.06 518.408 277.354Z" fill="#448BDE"/>
<path d="M533.392 307.943L543.396 302.167C543.534 302.082 543.652 301.969 543.742 301.835C543.832 301.701 543.893 301.549 543.92 301.39C543.92 301.39 543.92 293.184 548.534 288.837C553.148 284.49 561.293 284.872 561.293 284.872C561.453 284.856 561.608 284.805 561.746 284.722C561.884 284.64 562.003 284.529 562.093 284.396L568.39 274.725C568.555 274.443 568.526 274.137 568.32 274.078C568.32 274.078 561.481 271.596 562.947 266.655C564.412 261.713 573.887 255.307 573.887 255.307C574.021 255.222 574.135 255.109 574.219 254.974C574.304 254.84 574.357 254.688 574.376 254.531L573.287 246.637C573.24 246.419 572.957 246.36 572.698 246.501C572.698 246.501 562.994 251.207 560.487 248.543C557.98 245.878 563.176 236.454 563.176 236.454C563.335 236.172 563.288 235.866 563.076 235.825L555.243 234.319C555.084 234.33 554.93 234.376 554.792 234.455C554.653 234.533 554.534 234.641 554.443 234.772C554.443 234.772 547.551 243.89 542.537 245.09C537.523 246.29 535.404 239.325 535.404 239.325C535.346 239.119 535.057 239.072 534.769 239.225L524.764 244.995C524.635 245.065 524.528 245.169 524.455 245.295C524.383 245.422 524.347 245.567 524.352 245.713C524.352 245.713 525.164 248.654 524.546 250.766C523.579 253.666 521.883 256.268 519.621 258.325C515.036 262.672 506.844 262.266 506.844 262.266C506.684 262.283 506.529 262.334 506.391 262.416C506.253 262.498 506.134 262.61 506.044 262.743L499.741 272.413C499.576 272.696 499.605 273.002 499.811 273.06C499.811 273.06 506.644 275.549 505.173 280.496C503.701 285.443 494.226 291.831 494.226 291.831C494.092 291.917 493.978 292.032 493.894 292.168C493.809 292.303 493.756 292.455 493.738 292.614L494.815 300.52C494.868 300.731 495.144 300.796 495.403 300.655C495.403 300.655 505.108 295.949 507.609 298.62C508.968 300.055 509.192 302.302 508.456 304.784C507.833 306.884 504.996 310.732 504.996 310.732C504.79 311.002 504.802 311.279 504.996 311.32L512.817 312.837C512.977 312.825 513.131 312.779 513.271 312.7C513.41 312.622 513.53 312.514 513.624 312.384C513.624 312.384 520.521 303.267 525.529 302.067H525.582C530.596 300.861 532.721 307.826 532.721 307.826C532.815 308.049 533.103 308.096 533.392 307.943ZM529.484 288.99C520.845 291.067 515.883 285.843 518.408 277.331C520.933 268.819 529.972 260.231 538.612 258.154C547.251 256.078 552.206 261.343 549.67 269.837C547.133 278.331 538.123 286.937 529.484 288.99Z" fill="#EF4EAF"/>
<path d="M496.589 81.7003L514.627 113.179L532.765 82.021L514.727 50.5425L496.589 81.7003Z" fill="white"/>
<path d="M514.456 113.079L550.752 113.204L568.89 82.0462L532.594 81.9209L514.456 113.079Z" fill="#EF4EAF"/>
<path d="M514.757 50.4922L532.795 81.9707L568.86 82.096L550.822 50.6175L514.757 50.4922Z" fill="#FCC3EF"/>
<path d="M343.232 227.066L385.175 219.607L357.915 187.23L315.966 194.683L343.232 227.066Z" fill="white"/>
<path d="M384.998 219.76L399.517 179.718L372.251 147.335L357.739 187.377L384.998 219.76Z" fill="#EF4EAF"/>
<path d="M315.925 194.636L357.874 187.177L372.298 147.389L330.349 154.848L315.925 194.636Z" fill="#FCC3EF"/>
<path d="M403.389 334.32L445.986 333.337L423.97 297.184L381.379 298.166L403.389 334.32Z" fill="white"/>
<path d="M445.786 333.455L466.231 296.096L444.22 259.942L423.775 297.302L445.786 333.455Z" fill="#EF4EAF"/>
<path d="M381.344 298.114L423.94 297.131L444.256 260.001L401.659 260.984L381.344 298.114Z" fill="#FCC3EF"/>
<path d="M451.414 30.5406C439.091 22.864 417.751 23.9993 397.589 34.7053C377.426 45.4113 364.526 62.4233 363.991 76.9235L361.225 78.3941L366.345 88.0707C374.766 103.953 402.403 105.747 428.08 92.1295C453.756 78.5117 467.739 54.6114 459.33 38.7524L454.192 29.0758L451.414 30.5406Z" fill="#468ED1"/>
<path d="M374.401 83.7999L382.976 99.9472C398.466 103.6 414.332 99.4237 430.31 90.9471L425.196 81.2705L374.401 83.7999Z" fill="#468ED1"/>
<path d="M444.134 32.7527C450.467 44.6823 438.985 63.1707 418.481 74.0473C397.977 84.9239 376.22 84.0475 369.888 72.1356C363.555 60.2237 375.037 41.7176 395.541 30.841C416.045 19.9644 437.796 20.8173 444.134 32.7527Z" fill="#1B619B"/>
<path d="M395.6 30.8051C391.957 32.7331 388.492 34.9771 385.242 37.5111L388.591 43.8171C391.836 41.2792 395.298 39.0313 398.937 37.0993C410.954 30.7287 423.36 28.4169 432.847 29.9992L429.504 23.6992C420.029 22.1227 407.611 24.4345 395.6 30.8051Z" fill="#E7E7E8"/>
<path d="M422.936 82.4246C448.607 68.8041 462.59 44.9055 454.167 29.0454C445.745 13.1853 418.106 11.3698 392.435 24.9903C366.764 38.6108 352.781 62.5095 361.203 78.3695C369.626 94.2296 397.265 96.0451 422.936 82.4246Z" fill="white"/>
<path d="M367.71 58.8235C368.834 52.9705 378.621 46.8293 389.579 45.1057C400.537 43.3822 408.512 46.7234 407.388 52.5764C406.264 58.4294 396.471 64.5706 385.519 66.2942C374.566 68.0177 366.592 64.6589 367.71 58.8235Z" fill="#468ED1"/>
<path d="M405.575 61.6646C405.575 61.6646 412.702 55.0998 413.226 51.5997C413.814 47.7173 409.106 43.082 409.106 43.082C410.724 39.3172 413.002 38.0525 416.921 35.8701C422.712 32.6583 430.11 31.3466 434.7 29.7759C448.501 25.07 446.371 36.0584 444.387 46.3761C442.404 56.6939 438.267 65.4587 427.821 67.1058C422.241 67.8579 416.571 67.6109 411.078 66.3764C407.476 65.4705 406.581 64.7058 405.575 61.6646Z" fill="#468ED1"/>
<path d="M409.524 42.8403L417.616 48.8463L412.466 49.7639L405.987 44.958L409.524 42.8403Z" fill="white"/>
<path d="M409.141 43.082L416.71 48.6997L412.19 49.5586L405.993 44.9644L409.141 43.082Z" fill="white"/>
<path d="M411.754 53.4822L416.863 52.7881L405.887 61.7941L402.968 60.6941L411.754 53.4822Z" fill="white"/>
<path d="M411.378 53.7937L415.839 53.2407L405.575 61.6644L402.98 60.682L411.378 53.7937Z" fill="white"/>
<path d="M524.211 214.695C527.954 200.671 520.638 180.607 504.513 164.453C488.388 148.3 468.326 140.924 454.284 144.659L452.077 142.447L444.326 150.165C431.614 162.848 437.947 189.795 458.45 210.36C478.954 230.925 505.932 237.313 518.643 224.625L526.406 216.883L524.211 214.695Z" fill="#EF4EAF"/>
<path d="M450.753 156.636L437.806 169.548C438.841 185.43 447.469 199.366 460.245 212.166L468.008 204.425L450.753 156.636Z" fill="#EF4EAF"/>
<path d="M519.974 208.401C510.404 217.942 489.371 212.366 472.963 195.948C456.556 179.53 451.029 158.477 460.605 148.936C470.18 139.394 491.207 144.971 507.609 161.389C524.011 177.806 529.537 198.836 519.974 208.401Z" fill="#1B619B"/>
<path d="M507.65 161.418C504.751 158.498 501.6 155.838 498.234 153.471L493.173 158.518C496.54 160.878 499.691 163.531 502.589 166.447C512.193 176.065 518.031 187.253 519.314 196.801L524.364 191.765C523.099 182.23 517.255 171.036 507.65 161.418Z" fill="#E7E7E8"/>
<path d="M526.424 216.907C513.712 229.59 486.758 223.207 466.225 202.642C445.692 182.077 439.359 155.13 452.101 142.448C464.842 129.765 491.766 136.147 512.293 156.712C532.821 177.277 539.136 204.225 526.424 216.907Z" fill="#F5FAFF"/>
<path d="M472.716 142.936C478.642 142.3 487.382 149.865 492.231 159.836C497.08 169.807 496.209 178.401 490.283 179.042C484.357 179.683 475.617 172.113 470.768 162.142C465.919 152.171 466.79 143.571 472.716 142.936Z" fill="#EF4EAF"/>
<path d="M481.044 179.971C481.044 179.971 489.406 184.865 492.914 184.365C496.804 183.806 499.864 177.941 499.864 177.941C503.937 178.394 505.814 180.2 509.045 183.312C513.812 187.906 517.231 194.595 520.068 198.524C528.607 210.342 517.472 211.518 507.02 212.642C496.568 213.765 486.97 212.365 482.344 202.859C479.993 197.744 478.574 192.25 478.154 186.636C477.954 182.894 478.401 181.824 481.044 179.971Z" fill="#EF4EAF"/>
<path d="M500.205 178.242L496.821 187.736L494.438 183.077L497.145 175.477L500.205 178.242Z" fill="#F5FAFF"/>
<path d="M499.694 178.147L496.533 187.03L494.385 182.959L496.975 175.688L499.694 178.147Z" fill="#F5FAFF"/>
<path d="M490.677 183.483L492.831 188.165L481.008 180.306L481.208 177.188L490.677 183.483Z" fill="#F5FAFF"/>
<path d="M490.101 183.418L491.931 187.524L480.873 180.171L481.049 177.4L490.101 183.418Z" fill="#F5FAFF"/>
<path d="M291.707 89.1759C280.138 85.5993 263.169 91.0402 249.176 103.948C235.182 116.856 228.393 133.321 231.014 145.135L229.11 146.912L235.314 153.628C245.475 164.633 268.151 160.237 285.964 143.816C303.777 127.395 309.986 105.145 299.825 94.136L293.611 87.4048L291.707 89.1759Z" fill="#EF4EAF"/>
<path d="M240.9 148.472L251.242 159.668C264.495 159.325 276.422 152.593 287.51 142.369L281.311 135.647L240.9 148.472Z" fill="#EF4EAF"/>
<path d="M286.303 92.5023C293.945 100.784 288.61 118.132 274.38 131.261C260.151 144.39 242.426 148.31 234.779 140.028C227.132 131.747 232.477 114.398 246.702 101.27C260.926 88.1407 278.66 84.2207 286.303 92.5023Z" fill="#1B619B"/>
<path d="M246.746 101.231C244.217 103.557 241.898 106.102 239.815 108.835L243.855 113.211C245.932 110.474 248.248 107.926 250.776 105.597C259.12 97.9091 268.627 93.415 276.628 92.6546L272.593 88.2832C264.602 89.0437 255.08 93.5426 246.746 101.231Z" fill="#E7E7E8"/>
<path d="M293.611 87.4052C303.772 98.4097 297.567 120.654 279.75 137.085C261.932 153.516 239.256 157.911 229.095 146.897C218.935 135.883 225.168 113.648 242.957 97.2175C260.745 80.7868 283.466 76.4007 293.611 87.4052Z" fill="#F5FAFF"/>
<path d="M280.761 97.0849C276.967 93.6506 269.295 96.3784 263.611 103.178C259.812 99.744 252.135 102.491 246.456 109.296C240.777 116.101 239.241 124.393 243.02 127.837L256.764 140.284L277.345 115.62C283.029 108.811 284.555 100.519 280.761 97.0849Z" fill="#EF4EAF"/>
<defs>
<linearGradient id="paint0_linear" x1="116.095" y1="301.425" x2="125.041" y2="280.714" gradientUnits="userSpaceOnUse">
<stop stop-color="#FDE0C2"/>
<stop offset="1" stop-color="#FDB670"/>
</linearGradient>
<linearGradient id="paint1_linear" x1="2935.05" y1="11053.8" x2="3314.82" y2="11053.8" gradientUnits="userSpaceOnUse">
<stop stop-color="#FDE0C2"/>
<stop offset="1" stop-color="#FDB670"/>
</linearGradient>
<linearGradient id="paint2_linear" x1="6040.72" y1="21170.5" x2="7832.03" y2="21170.5" gradientUnits="userSpaceOnUse">
<stop stop-color="#FDE0C2"/>
<stop offset="1" stop-color="#FDB670"/>
</linearGradient>
<linearGradient id="paint3_linear" x1="1610.63" y1="6091.95" x2="1691.58" y2="6091.95" gradientUnits="userSpaceOnUse">
<stop stop-color="#FDE0C2"/>
<stop offset="1" stop-color="#FDB670"/>
</linearGradient>
<linearGradient id="paint4_linear" x1="2142.92" y1="-20023.1" x2="2279.14" y2="-20563.7" gradientUnits="userSpaceOnUse">
<stop stop-color="#FDE0C2"/>
<stop offset="1" stop-color="#FDB670"/>
</linearGradient>
<linearGradient id="paint5_linear" x1="716.954" y1="269.196" x2="696.998" y2="269.196" gradientUnits="userSpaceOnUse">
<stop stop-color="#FFE2C4"/>
<stop offset="1" stop-color="#FFB870"/>
</linearGradient>
<linearGradient id="paint6_linear" x1="-16076" y1="5785.09" x2="-15753.1" y2="5785.09" gradientUnits="userSpaceOnUse">
<stop stop-color="#FFE2C4"/>
<stop offset="1" stop-color="#FFB870"/>
</linearGradient>
<linearGradient id="paint7_linear" x1="-26140" y1="13371" x2="-25330.9" y2="13371" gradientUnits="userSpaceOnUse">
<stop stop-color="#FFE2C4"/>
<stop offset="1" stop-color="#FFC88F"/>
</linearGradient>
<linearGradient id="paint8_linear" x1="-22089" y1="8160.79" x2="-21583.1" y2="8160.79" gradientUnits="userSpaceOnUse">
<stop stop-color="#FFE2C4"/>
<stop offset="1" stop-color="#FFB870"/>
</linearGradient>
<linearGradient id="paint9_linear" x1="8383.8" y1="111705" x2="7841.4" y2="111705" gradientUnits="userSpaceOnUse">
<stop stop-color="#FFE2C4"/>
<stop offset="1" stop-color="#FFCC97"/>
</linearGradient>
<linearGradient id="paint10_linear" x1="9096.49" y1="111705" x2="8554.01" y2="111705" gradientUnits="userSpaceOnUse">
<stop stop-color="#FFE2C4"/>
<stop offset="1" stop-color="#FFCE9C"/>
</linearGradient>
<linearGradient id="paint11_linear" x1="842.757" y1="560.705" x2="842.757" y2="560.823" gradientUnits="userSpaceOnUse">
<stop stop-color="#FF5484"/>
<stop offset="1" stop-color="#FFD6E1" stop-opacity="0"/>
</linearGradient>
<linearGradient id="paint12_linear" x1="12819.4" y1="43803.5" x2="11696.8" y2="43803.5" gradientUnits="userSpaceOnUse">
<stop stop-color="#FFE2C4"/>
<stop offset="1" stop-color="#FFB870"/>
</linearGradient>
<linearGradient id="paint13_linear" x1="9439.16" y1="18332.7" x2="8805.98" y2="18332.7" gradientUnits="userSpaceOnUse">
<stop stop-color="#FFE2C4"/>
<stop offset="1" stop-color="#FFB870"/>
</linearGradient>
<linearGradient id="paint14_linear" x1="5636.75" y1="12336.2" x2="5407.89" y2="12336.2" gradientUnits="userSpaceOnUse">
<stop stop-color="#FFE2C4"/>
<stop offset="1" stop-color="#FFB870"/>
</linearGradient>
<linearGradient id="paint15_linear" x1="13655.1" y1="29271.7" x2="12395.7" y2="29271.7" gradientUnits="userSpaceOnUse">
<stop stop-color="#FFE2C4"/>
<stop offset="1" stop-color="#FFCE9D"/>
</linearGradient>
<linearGradient id="paint16_linear" x1="-2871.13" y1="10922.5" x2="-3071.73" y2="10849.9" gradientUnits="userSpaceOnUse">
<stop stop-color="#FFE2C4"/>
<stop offset="1" stop-color="#FFB870"/>
</linearGradient>
<linearGradient id="paint17_linear" x1="16790.5" y1="18399.8" x2="16610.5" y2="18487.9" gradientUnits="userSpaceOnUse">
<stop stop-color="#FFE2C4"/>
<stop offset="1" stop-color="#FFB870"/>
</linearGradient>
<linearGradient id="paint18_linear" x1="15478.2" y1="25351" x2="15958.6" y2="25351" gradientUnits="userSpaceOnUse">
<stop stop-color="#FFE2C4"/>
<stop offset="1" stop-color="#FFB870"/>
</linearGradient>
<linearGradient id="paint19_linear" x1="15220.6" y1="17516.4" x2="15623.5" y2="17516.4" gradientUnits="userSpaceOnUse">
<stop stop-color="#FFE2C4"/>
<stop offset="1" stop-color="#FFB870"/>
</linearGradient>
<linearGradient id="paint20_linear" x1="31576.1" y1="34153.1" x2="33476.6" y2="34153.1" gradientUnits="userSpaceOnUse">
<stop stop-color="#FFE2C4"/>
<stop offset="1" stop-color="#FFB870"/>
</linearGradient>
<linearGradient id="paint21_linear" x1="7229.32" y1="9743.77" x2="7315.17" y2="9743.77" gradientUnits="userSpaceOnUse">
<stop stop-color="#FFE2C4"/>
<stop offset="1" stop-color="#FFB870"/>
</linearGradient>
<linearGradient id="paint22_linear" x1="676.706" y1="683" x2="676.706" y2="831.279" gradientUnits="userSpaceOnUse">
<stop stop-color="#BDDBFF" stop-opacity="0"/>
<stop offset="1" stop-color="#0075FF" stop-opacity="0.89"/>
</linearGradient>
</defs>
</svg>
