<svg width="50" height="50" viewBox="0 0 50 50" fill="none" xmlns="http://www.w3.org/2000/svg">
<path d="M26.8269 29.0228C27.6923 29.0228 29.5192 29.0228 30.3846 29.0228C31.25 29.0228 31.25 27.2987 30.3846 27.2987C29.5192 27.2987 28.0769 27.2987 28.0769 27.2987C28.0769 27.2987 28.0769 22.7968 28.0769 21.6473C28.0769 21.0726 27.5961 20.881 27.1154 20.881C26.6346 20.881 26.1538 21.1684 26.1538 21.6473C26.1538 23.1799 26.1538 28.065 26.1538 28.065C26.1538 28.065 25.9615 29.0228 26.8269 29.0228Z" fill="#FED232"/>
<path d="M33.1731 28.5443C33.1731 27.6822 33.1731 26.1496 33.1731 26.1496L33.6538 25.7665L35.9615 28.9274C36.4423 29.5021 37.8846 28.4485 37.4038 27.778L34.9038 24.5213C34.9038 24.5213 36.5385 22.7014 37.2115 22.0309C37.5962 21.6477 36.4423 20.4983 36.0577 20.8814C35.6731 21.2646 33.0769 23.8508 33.0769 23.8508C33.0769 23.8508 33.0769 22.2224 33.0769 21.3604C33.0769 20.9772 32.6923 20.8814 32.2115 20.8814C31.7308 20.8814 31.25 21.073 31.25 21.4561C31.25 22.1266 31.25 28.1611 31.25 28.6401C31.4423 29.2148 33.1731 29.2148 33.1731 28.5443Z" fill="#FED232"/>
<path d="M19.9038 28.64L20.2884 27.3948H23.4615C23.4615 27.3948 23.3654 27.4906 23.75 28.5442C24.1346 29.4063 25.7692 28.8316 25.3846 27.8737C24.9038 26.5327 23.1731 21.935 22.8846 21.2645C22.7884 21.073 22.2115 20.7856 21.7308 20.7856C21.3461 20.7856 20.9615 20.9772 20.7692 21.2645C20.3846 22.2224 18.75 26.7243 18.2692 27.8737C17.8846 28.8316 19.5192 29.5021 19.9038 28.64ZM21.8269 22.7971L22.7884 25.8622H20.7692L21.8269 22.7971Z" fill="#FED232"/>
<path d="M25 49.8084C38.75 49.8084 50 38.6973 50 24.9042C50 11.2069 38.8462 0 25 0C11.25 0 0 11.1111 0 24.9042C0 38.6973 11.25 49.8084 25 49.8084ZM25.0962 10.5364C34.4231 10.5364 41.9231 16.4751 41.9231 23.7548C41.9231 31.0345 34.4231 36.9732 25.0962 36.9732C24.0385 36.9732 22.9808 36.8774 22.0192 36.7816C20.1923 38.0268 15.8654 40.9962 15.5769 41.1877C15.1923 41.4751 14.6154 41.4751 14.9038 40.5172C15.0962 39.751 16.0577 36.3027 16.3462 35.0575C11.5385 32.7586 8.36538 28.5441 8.36538 23.7548C8.26923 16.4751 15.7692 10.5364 25.0962 10.5364Z" fill="#FED232"/>
<path d="M13.2692 22.3179H15C15 22.3179 15 27.203 15 28.2566C15 29.1187 16.8269 29.1187 16.8269 28.2566V22.4137C16.8269 22.4137 17.4038 22.3179 18.5577 22.3179C19.6154 22.3179 19.6154 20.498 18.5577 20.498H13.2692C12.2115 20.498 12.2115 22.3179 13.2692 22.3179Z" fill="#FED232"/>
</svg>
