<svg width="112" height="21" viewBox="0 0 112 21" fill="none" xmlns="http://www.w3.org/2000/svg">
<path d="M39.8423 11.3633H37.2734V0.669922H39.8423V11.3633ZM44.3102 5.63558C44.3128 5.84844 44.2709 6.05949 44.1873 6.25526C44.1037 6.45103 43.9802 6.6272 43.8247 6.77252C43.4728 7.07372 43.0249 7.23926 42.5617 7.23926C42.0986 7.23926 41.6507 7.07372 41.2988 6.77252C41.1453 6.62564 41.023 6.44918 40.9395 6.25377C40.856 6.05837 40.813 5.84808 40.813 5.63558C40.813 5.42309 40.856 5.21279 40.9395 5.01739C41.023 4.82199 41.1453 4.64552 41.2988 4.49864C41.6507 4.19744 42.0986 4.03191 42.5617 4.03191C43.0249 4.03191 43.4728 4.19744 43.8247 4.49864C43.9796 4.64443 44.1027 4.82069 44.1863 5.01635C44.2699 5.21201 44.312 5.42284 44.3102 5.63558V5.63558Z" fill="#CCCCCC"/>
<path d="M29.3636 16.747C29.3596 16.1549 29.5054 15.5714 29.7876 15.0508C30.0781 14.5255 30.471 14.0636 30.943 13.6927C31.4546 13.3089 32.0284 13.0157 32.6392 12.8261C33.982 12.4082 35.4201 12.4082 36.7629 12.8261C37.3732 13.0171 37.9467 13.3101 38.4591 13.6927C38.9311 14.0636 39.324 14.5255 39.6145 15.0508C39.8967 15.5714 40.0426 16.1549 40.0385 16.747C40.0434 17.3373 39.8974 17.919 39.6145 18.4371C39.3273 18.9647 38.9339 19.4272 38.4591 19.7953C37.9499 20.1887 37.3759 20.4903 36.7629 20.6864C35.4201 21.1043 33.982 21.1043 32.6392 20.6864C32.027 20.4972 31.4529 20.2018 30.943 19.8137C30.4683 19.4456 30.0749 18.9832 29.7876 18.4555C29.5016 17.932 29.3556 17.3435 29.3636 16.747V16.747ZM31.8218 16.747C31.8186 17.0535 31.904 17.3544 32.0677 17.6136C32.2276 17.8726 32.4363 18.098 32.6822 18.2773C32.9555 18.481 33.2638 18.6331 33.5918 18.7259C33.9489 18.831 34.3196 18.8828 34.6918 18.8796C35.0661 18.8824 35.4388 18.8307 35.7981 18.7259C36.1261 18.6331 36.4343 18.481 36.7076 18.2773C36.9536 18.098 37.1623 17.8726 37.3222 17.6136C37.471 17.3557 37.5494 17.0632 37.5494 16.7655C37.5494 16.4677 37.471 16.1752 37.3222 15.9174C37.1607 15.6578 36.9523 15.4306 36.7076 15.2475C36.4325 15.0482 36.1247 14.8985 35.7981 14.805C35.439 14.6983 35.0664 14.6445 34.6918 14.6452C34.3193 14.644 33.9486 14.6978 33.5918 14.805C33.2652 14.8985 32.9574 15.0482 32.6822 15.2475C32.4375 15.4306 32.2291 15.6578 32.0677 15.9174C31.9172 16.1678 31.8385 16.4549 31.8403 16.747H31.8218Z" fill="#CCCCCC"/>
<path d="M25.1046 11.0372V7.69401C25.0962 7.6222 25.114 7.54978 25.1546 7.48998C25.1952 7.43018 25.256 7.38699 25.3258 7.36829C26.9052 7.16549 28.1774 3.87144 28.2941 1.63443C28.2941 1.45621 28.4109 1.32715 28.5338 1.32715H30.9368C31.072 1.32715 31.1826 1.48079 31.1764 1.6713C31.0474 6.08386 28.5154 11.1724 25.375 11.3998C25.2213 11.3814 25.1046 11.2277 25.1046 11.0372Z" fill="#CCCCCC"/>
<path d="M34.4403 11.5966C31.1586 11.3569 28.559 6.15156 28.4238 1.65297C28.4192 1.56988 28.4316 1.48673 28.4601 1.40855C28.4886 1.33038 28.5327 1.25881 28.5897 1.19819C28.6288 1.15564 28.6763 1.12165 28.7292 1.09838C28.7821 1.07511 28.8392 1.06306 28.897 1.06299H31.2999C31.4309 1.07397 31.5525 1.13505 31.6395 1.23351C31.7265 1.33197 31.7722 1.46022 31.767 1.59151C31.8776 3.92685 33.1743 6.94435 34.5264 7.12257C34.6516 7.14772 34.7633 7.21789 34.8403 7.31981C34.9173 7.42173 34.9543 7.54833 34.9443 7.67567V11.0373C34.9461 11.1696 34.9051 11.2989 34.8275 11.4061C34.7879 11.4642 34.7347 11.5119 34.6727 11.5451C34.6106 11.5783 34.5414 11.5959 34.4711 11.5966H34.4403Z" fill="#CCCCCC"/>
<path d="M31.2873 1.2966C31.4103 1.2966 31.5147 1.42566 31.5209 1.60388C31.6315 3.87161 32.8975 7.13494 34.4831 7.36847C34.606 7.36847 34.6982 7.52211 34.6982 7.69419V11.0374C34.6982 11.2218 34.5875 11.3693 34.4585 11.3693C31.3181 11.1419 28.7861 6.05331 28.657 1.64075C28.657 1.45024 28.7553 1.2966 28.8967 1.2966H31.2996H31.2873ZM31.2996 0.835678H28.909C28.8201 0.833252 28.7318 0.850127 28.6501 0.88514C28.5684 0.920153 28.4953 0.97247 28.4358 1.03848C28.3587 1.12052 28.2989 1.21718 28.2598 1.32274C28.2208 1.42829 28.2033 1.54061 28.2084 1.65305C28.2944 6.25611 31.0108 11.5782 34.44 11.8302C34.5383 11.8247 34.6345 11.7998 34.7231 11.7569C34.8116 11.714 34.8908 11.6539 34.9559 11.5801C35.0211 11.5064 35.071 11.4205 35.1027 11.3273C35.1344 11.2341 35.1473 11.1356 35.1406 11.0374V7.69419C35.15 7.51107 35.093 7.33073 34.9801 7.18624C34.8672 7.04175 34.706 6.9428 34.5261 6.90755C33.297 6.73547 32.0678 3.78558 31.9634 1.5793C31.967 1.39244 31.899 1.21127 31.7733 1.07298C31.6476 0.934688 31.4737 0.849777 31.2873 0.835678H31.2996Z" fill="#222222"/>
<path d="M63.208 11.3633H60.6392V0.669922H63.208V11.3633ZM67.6759 5.63558C67.6785 5.84844 67.6367 6.05949 67.5531 6.25526C67.4695 6.45103 67.3459 6.6272 67.1904 6.77252C66.8385 7.07372 66.3906 7.23926 65.9275 7.23926C65.4643 7.23926 65.0164 7.07372 64.6645 6.77252C64.511 6.62564 64.3888 6.44918 64.3053 6.25377C64.2218 6.05837 64.1787 5.84808 64.1787 5.63558C64.1787 5.42309 64.2218 5.21279 64.3053 5.01739C64.3888 4.82199 64.511 4.64552 64.6645 4.49864C65.0164 4.19744 65.4643 4.03191 65.9275 4.03191C66.3906 4.03191 66.8385 4.19744 67.1904 4.49864C67.3453 4.64443 67.4685 4.82069 67.552 5.01635C67.6356 5.21201 67.6778 5.42284 67.6759 5.63558V5.63558Z" fill="#CCCCCC"/>
<path d="M52.7298 16.7467C52.7258 16.1545 52.8717 15.571 53.1539 15.0505C53.4421 14.5254 53.8329 14.0635 54.3031 13.6923C54.817 13.3085 55.3927 13.0154 56.0054 12.8258C56.671 12.6138 57.3657 12.508 58.0642 12.5123C58.7646 12.5085 59.4614 12.6143 60.1291 12.8258C60.7394 13.0167 61.3129 13.3097 61.8253 13.6923C62.2955 14.0635 62.6863 14.5254 62.9746 15.0505C63.2567 15.571 63.4026 16.1545 63.3986 16.7467C63.4035 17.3369 63.2575 17.9187 62.9746 18.4367C62.6896 18.9641 62.2982 19.4265 61.8253 19.7949C61.3161 20.1883 60.7421 20.4899 60.1291 20.686C59.4614 20.8975 58.7646 21.0033 58.0642 20.9994C57.3657 21.0037 56.671 20.898 56.0054 20.686C55.3916 20.4962 54.8155 20.2009 54.3031 19.8133C53.8302 19.445 53.4388 18.9825 53.1539 18.4551C52.8678 17.9316 52.7218 17.3432 52.7298 16.7467V16.7467ZM55.1881 16.7467C55.185 17.0456 55.2659 17.3395 55.4216 17.5948C55.581 17.8541 55.7898 18.0796 56.0361 18.2585C56.3109 18.4598 56.6187 18.6117 56.9457 18.7071C57.6689 18.9121 58.4349 18.9121 59.1581 18.7071C59.4856 18.613 59.7937 18.4611 60.0677 18.2585C60.314 18.0796 60.5228 17.8541 60.6822 17.5948C60.8348 17.3382 60.9153 17.0452 60.9153 16.7467C60.9153 16.4481 60.8348 16.1552 60.6822 15.8986C60.5208 15.639 60.3124 15.4118 60.0677 15.2287C59.7918 15.0306 59.4843 14.8809 59.1581 14.7862C58.436 14.5731 57.6678 14.5731 56.9457 14.7862C56.6202 14.8825 56.3128 15.032 56.0361 15.2287C55.7914 15.4118 55.583 15.639 55.4216 15.8986C55.2702 16.1551 55.1936 16.4489 55.2003 16.7467H55.1881Z" fill="#CCCCCC"/>
<path d="M48.7105 11.5967C48.6426 11.5913 48.5765 11.5725 48.5159 11.5414C48.4553 11.5103 48.4015 11.4675 48.3575 11.4156C48.3135 11.3636 48.2803 11.3034 48.2596 11.2385C48.239 11.1736 48.2314 11.1053 48.2373 11.0374V7.69423C48.2273 7.56688 48.2643 7.44028 48.3413 7.33837C48.4183 7.23645 48.53 7.16628 48.6552 7.14112C50.0134 6.94446 51.304 3.92696 51.4207 1.61007C51.4139 1.47838 51.4591 1.34928 51.5464 1.25047C51.6337 1.15166 51.7563 1.09102 51.8878 1.08154H54.2907C54.4069 1.0845 54.5173 1.13306 54.598 1.21675C54.6539 1.27787 54.6969 1.34966 54.7243 1.42781C54.7518 1.50597 54.7632 1.58886 54.7578 1.67152C54.6287 6.17012 52.0291 11.3755 48.7412 11.6151L48.7105 11.5967Z" fill="#CCCCCC"/>
<path d="M54.2903 1.29764C54.4255 1.29764 54.53 1.45128 54.53 1.6418C54.401 6.05435 51.869 11.1429 48.7224 11.3703C48.5933 11.3703 48.4827 11.2228 48.4827 11.0384V7.69523C48.4827 7.52316 48.5749 7.38181 48.6978 7.36952C50.2711 7.16671 51.5371 3.87266 51.6477 1.63565C51.6477 1.45743 51.7583 1.32837 51.8874 1.32837H54.2903V1.29764ZM54.2903 0.86745H51.8874C51.6967 0.875441 51.5166 0.957693 51.3857 1.09664C51.2548 1.23558 51.1834 1.4202 51.1868 1.61107C51.0823 3.81735 49.8532 6.76724 48.6241 6.93932C48.4441 6.97457 48.2829 7.07352 48.1701 7.21801C48.0572 7.3625 48.0002 7.54284 48.0095 7.72596V11.0384C48.0029 11.1366 48.0158 11.2352 48.0475 11.3283C48.0792 11.4215 48.129 11.5074 48.1942 11.5812C48.2594 11.6549 48.3385 11.715 48.4271 11.7579C48.5157 11.8008 48.6119 11.8258 48.7101 11.8312H48.7593C52.164 11.5793 54.8557 6.25716 54.9909 1.66023C54.9949 1.54741 54.9762 1.43493 54.9361 1.3294C54.896 1.22387 54.8353 1.12741 54.7574 1.04567C54.6986 0.980454 54.6264 0.928606 54.5459 0.893621C54.4653 0.858637 54.3782 0.84133 54.2903 0.842868V0.86745Z" fill="#222222"/>
<path d="M57.7937 11.5966C54.5058 11.357 51.9062 6.15162 51.7772 1.65303C51.7718 1.57037 51.7832 1.48747 51.8106 1.40932C51.8381 1.33117 51.8811 1.25937 51.937 1.19825C51.9791 1.15459 52.0297 1.12006 52.0858 1.0968C52.1418 1.07354 52.202 1.06205 52.2627 1.06305H54.6595C54.791 1.07399 54.9132 1.13486 55.0012 1.23315C55.0893 1.33144 55.1363 1.45969 55.1327 1.59157C55.2433 3.92691 56.5339 6.94441 57.8921 7.12263C58.0173 7.14778 58.129 7.21795 58.206 7.31987C58.283 7.42179 58.32 7.54839 58.31 7.67574V11.0374C58.3118 11.1697 58.2708 11.299 58.1932 11.4061C58.1528 11.4636 58.0996 11.5107 58.0377 11.5438C57.9757 11.5769 57.9069 11.595 57.8368 11.5966H57.7937Z" fill="#CCCCCC"/>
<path d="M54.6474 1.2966C54.7765 1.2966 54.881 1.42566 54.8871 1.60388C54.9977 3.87161 56.2637 7.13494 57.8493 7.36847C57.9722 7.36847 58.0644 7.52211 58.0644 7.69419V11.0374C58.0644 11.2218 57.9538 11.3693 57.8247 11.3693C54.6782 11.1419 52.1462 6.05331 52.0171 1.64075C52.0171 1.45024 52.1216 1.2966 52.2629 1.2966H54.6597H54.6474ZM54.6597 0.835678H52.2629C52.1741 0.833252 52.0858 0.850127 52.0041 0.88514C51.9224 0.920153 51.8492 0.97247 51.7897 1.03848C51.7118 1.12022 51.6511 1.21668 51.611 1.32221C51.5709 1.42775 51.5522 1.54022 51.5562 1.65305C51.6914 6.24997 54.3832 11.5721 57.7878 11.824H57.837C57.9353 11.8186 58.0315 11.7937 58.12 11.7507C58.2086 11.7078 58.2877 11.6477 58.3529 11.574C58.4181 11.5003 58.468 11.4143 58.4997 11.3211C58.5314 11.228 58.5443 11.1294 58.5376 11.0313V7.69419C58.5469 7.51107 58.4899 7.33073 58.3771 7.18624C58.2642 7.04175 58.103 6.9428 57.923 6.90755C56.6939 6.73547 55.4648 3.78558 55.3603 1.5793C55.3637 1.38843 55.2923 1.20381 55.1614 1.06486C55.0305 0.925921 54.8504 0.843669 54.6597 0.835678Z" fill="#222222"/>
<path d="M106.885 11.154H104.316V0.466797H106.885V11.154ZM111.353 5.43246C111.355 5.6452 111.312 5.85603 111.229 6.05169C111.145 6.24735 111.022 6.42361 110.867 6.5694C110.515 6.8706 110.067 7.03613 109.604 7.03613C109.141 7.03613 108.693 6.8706 108.341 6.5694C108.188 6.42252 108.066 6.24605 107.982 6.05065C107.899 5.85525 107.855 5.64495 107.855 5.43246C107.855 5.21996 107.899 5.00967 107.982 4.81426C108.066 4.61886 108.188 4.4424 108.341 4.29552C108.693 3.99431 109.141 3.82878 109.604 3.82878C110.067 3.82878 110.515 3.99431 110.867 4.29552C111.023 4.44084 111.146 4.61701 111.23 4.81278C111.313 5.00855 111.355 5.2196 111.353 5.43246V5.43246Z" fill="#CCCCCC"/>
<path d="M96.4063 16.5376C96.4023 15.9475 96.5482 15.3659 96.8304 14.8476C97.117 14.3213 97.508 13.8592 97.9796 13.4894C98.4921 13.1019 99.0681 12.8066 99.6819 12.6167C101.026 12.2072 102.462 12.2072 103.806 12.6167C104.417 12.8072 104.991 13.1025 105.502 13.4894C105.973 13.8592 106.364 14.3213 106.651 14.8476C106.933 15.3673 107.081 15.9493 107.081 16.5407C107.081 17.1321 106.933 17.7142 106.651 18.2338C106.364 18.7601 105.973 19.2223 105.502 19.592C104.991 19.9768 104.417 20.27 103.806 20.4586C102.463 20.8765 101.025 20.8765 99.6819 20.4586C99.0682 20.2714 98.492 19.9782 97.9796 19.592C97.5074 19.2205 97.1163 18.7562 96.8304 18.2277C96.5484 17.7092 96.4025 17.1278 96.4063 16.5376V16.5376ZM98.8646 16.5376C98.8615 16.8366 98.9425 17.1305 99.0981 17.3857C99.2561 17.6479 99.465 17.8757 99.7127 18.0556C99.9864 18.2573 100.295 18.4072 100.622 18.4981C100.979 18.6053 101.35 18.6591 101.722 18.6579C102.097 18.6587 102.469 18.6048 102.829 18.4981C103.156 18.406 103.464 18.2561 103.738 18.0556C103.985 17.8745 104.193 17.6469 104.353 17.3857C104.505 17.1303 104.586 16.8383 104.586 16.5407C104.586 16.2431 104.505 15.9511 104.353 15.6957C104.193 15.4345 103.985 15.2069 103.738 15.0258C103.463 14.8256 103.155 14.6739 102.829 14.5772C102.469 14.4754 102.096 14.4237 101.722 14.4236C101.35 14.4233 100.98 14.475 100.622 14.5772C100.295 14.6726 99.9874 14.8245 99.7127 15.0258C99.465 15.2057 99.2561 15.4335 99.0981 15.6957C98.9476 15.9503 98.871 16.2419 98.8769 16.5376H98.8646Z" fill="#CCCCCC"/>
<path d="M100.936 10.4109C100.673 10.4187 100.412 10.3617 100.176 10.2448C99.9402 10.128 99.7367 9.95498 99.5836 9.74099L97.322 6.43465L95.0604 9.74099C94.8196 10.0705 94.4649 10.2989 94.0652 10.3818C93.6655 10.4647 93.2493 10.3962 92.8972 10.1896C92.7259 10.1 92.5756 9.9752 92.456 9.82338C92.3364 9.67156 92.2503 9.49616 92.2033 9.3087C92.1563 9.12124 92.1494 8.92595 92.1832 8.73566C92.217 8.54538 92.2907 8.36439 92.3994 8.20458L95.9946 2.95623C96.1453 2.74572 96.3448 2.57484 96.576 2.45818C96.8072 2.34153 97.0631 2.28258 97.322 2.28635C97.581 2.28205 97.8372 2.34078 98.0684 2.45747C98.2997 2.57417 98.4991 2.74534 98.6495 2.95623L102.239 8.20458C102.347 8.36401 102.421 8.54464 102.456 8.73466C102.49 8.92468 102.484 9.11979 102.437 9.3072C102.391 9.49462 102.305 9.67011 102.186 9.82218C102.067 9.97425 101.918 10.0995 101.747 10.1896C101.501 10.3334 101.221 10.4097 100.936 10.4109V10.4109Z" fill="#CCCCCC"/>
<path d="M15.0876 14.5835L10.6382 20.4526H19.537L15.0876 14.5835Z" fill="#CCCCCC"/>
<path d="M10.2263 20.4526C15.8741 20.4526 20.4526 15.8741 20.4526 10.2263C20.4526 4.57847 15.8741 0 10.2263 0C4.57847 0 0 4.57847 0 10.2263C0 15.8741 4.57847 20.4526 10.2263 20.4526Z" fill="#CCCCCC"/>
<path d="M8.97435 9.58099L9.40642 9.29847C9.62799 9.15359 9.69016 8.85651 9.54528 8.63493L7.14723 4.96754C7.00235 4.74596 6.70527 4.68379 6.48369 4.82868L6.05163 5.11119C5.83005 5.25608 5.76788 5.55316 5.91277 5.77474L8.31081 9.44213C8.4557 9.66371 8.75278 9.72588 8.97435 9.58099Z" fill="#222222"/>
<path d="M6.20336 4.96461L3.80531 8.632C3.66042 8.85358 3.72259 9.15066 3.94417 9.29554L4.37623 9.57806C4.59781 9.72295 4.89489 9.66078 5.03977 9.4392L7.43782 5.7718C7.58271 5.55023 7.52054 5.25315 7.29896 5.10826L6.86689 4.82575C6.64532 4.68086 6.34824 4.74303 6.20336 4.96461Z" fill="#222222"/>
<path d="M16.0681 9.57855L16.5002 9.29603C16.7217 9.15114 16.7839 8.85407 16.639 8.63249L14.241 4.9651C14.0961 4.74352 13.799 4.68135 13.5774 4.82623L13.1454 5.10875C12.9238 5.25364 12.8616 5.55072 13.0065 5.77229L15.4046 9.43969C15.5494 9.66126 15.8465 9.72343 16.0681 9.57855Z" fill="#222222"/>
<path d="M13.2991 4.9651L10.901 8.63249C10.7561 8.85407 10.8183 9.15114 11.0399 9.29603L11.4719 9.57855C11.6935 9.72343 11.9906 9.66126 12.1355 9.43969L14.5335 5.77229C14.6784 5.55071 14.6162 5.25364 14.3947 5.10875L13.9626 4.82623C13.741 4.68135 13.4439 4.74352 13.2991 4.9651Z" fill="#222222"/>
<path d="M16.0676 15.6293L16.4997 15.3468C16.7213 15.2019 16.7834 14.9048 16.6385 14.6833L14.2405 11.0159C14.0956 10.7943 13.7985 10.7321 13.577 10.877L13.1449 11.1595C12.9233 11.3044 12.8611 11.6015 13.006 11.8231L15.4041 15.4905C15.549 15.712 15.846 15.7742 16.0676 15.6293Z" fill="#222222"/>
<path d="M13.3015 11.0188L10.9035 14.6862C10.7586 14.9078 10.8207 15.2049 11.0423 15.3497L11.4744 15.6323C11.696 15.7771 11.993 15.715 12.1379 15.4934L14.536 11.826C14.6809 11.6044 14.6187 11.3073 14.3971 11.1625L13.965 10.8799C13.7435 10.7351 13.4464 10.7972 13.3015 11.0188Z" fill="#222222"/>
<path d="M6.68035 15.0628C7.67822 15.0628 8.48716 14.2539 8.48716 13.256C8.48716 12.2582 7.67822 11.4492 6.68035 11.4492C5.68247 11.4492 4.87354 12.2582 4.87354 13.256C4.87354 14.2539 5.68247 15.0628 6.68035 15.0628Z" stroke="#222222" stroke-width="1.5" stroke-miterlimit="10"/>
<path d="M87.0527 0.884766V20.3541" stroke="#CCCCCC" stroke-width="2.7" stroke-miterlimit="10"/>
<path d="M76.9867 13.785C79.6376 13.785 81.7865 11.6361 81.7865 8.98528C81.7865 6.33446 79.6376 4.18555 76.9867 4.18555C74.3359 4.18555 72.187 6.33446 72.187 8.98528C72.187 11.6361 74.3359 13.785 76.9867 13.785Z" stroke="#CCCCCC" stroke-width="2.7" stroke-miterlimit="10"/>
</svg>
