<svg width="74" height="88" viewBox="0 0 74 88" fill="#fff" xmlns="http://www.w3.org/2000/svg">
<path d="M56 25.1429C49.3625 25.1429 44 19.5054 44 12.5714C44 5.6375 49.3625 0 56 0C62.6375 0 68 5.61786 68 12.5714C68 19.525 62.6375 25.1429 56 25.1429ZM68 62.8571V81.7143C68 85.1911 65.3188 88 62 88H50C46.6812 88 44 85.1911 44 81.7143V62.8571C40.6812 62.8571 38 60.0482 38 56.5714V37.7143C38 32.5089 42.0312 28.2857 47 28.2857H49.2125C51.2938 29.2679 53.5813 29.8571 56 29.8571C58.4187 29.8571 60.7063 29.2679 62.7875 28.2857H65C69.9688 28.2857 74 32.5089 74 37.7143V56.5714C74 60.0482 71.3188 62.8571 68 62.8571Z" fill="#fff"/>
<path d="M5.81128 10.1698H21.7924V13.0755H5.81128V10.1698ZM5.81128 15.9811H21.7924V18.8868H5.81128V15.9811ZM5.81128 21.7924H15.9811V24.6981H5.81128V21.7924ZM28.0381 17.8582L21.791 24.0923L19.9139 22.2167L17.8596 24.2724L21.791 28.2009L30.0895 19.9154L28.0381 17.8582Z" fill="#fff"/>
<path d="M5.81128 36.7359H21.7924V39.6415H5.81128V36.7359ZM5.81128 42.5472H21.7924V45.4528H5.81128V42.5472ZM5.81128 48.3585H15.9811V51.2642H5.81128V48.3585ZM28.0381 44.4242L21.791 50.6583L19.9139 48.7827L17.8596 50.8385L21.791 54.7669L30.0895 46.4814L28.0381 44.4242Z" fill="#fff"/>
<path d="M5.81128 63.3019H21.7924V66.2076H5.81128V63.3019ZM5.81128 69.1132H21.7924V72.0189H5.81128V69.1132ZM5.81128 74.9245H15.9811V77.8302H5.81128V74.9245ZM28.0381 70.9903L21.791 77.2244L19.9139 75.3488L17.8596 77.4045L21.791 81.333L30.0895 73.0475L28.0381 70.9903Z" fill="#fff"/>
</svg>
