<svg width="89" height="75" viewBox="0 0 89 75" fill="none" xmlns="http://www.w3.org/2000/svg">
<path d="M15.6858 38.0014C16.7174 37.9779 17.7335 38.2547 18.6103 38.7981C19.0541 39.264 19.4139 39.8031 19.6737 40.3915C19.6737 40.9226 20.2054 40.9226 20.4713 40.9226C26.0748 41.1229 31.5471 42.6717 36.423 45.4372H45.1964C50.2477 45.4372 54.7674 49.4207 58.2236 52.342H70.719C74.3512 52.2645 77.9635 52.8959 81.3535 54.2009C83.6885 55.0435 85.8505 56.3033 87.7341 57.9188C88 58.45 88.2659 59.2467 87.7341 59.5122C78.429 68.5415 63.8067 74.3839 47.0574 74.3839C37.5952 74.5741 28.1915 72.8581 19.4079 69.3382L18.0785 70.9316L15.6858 71.4627H3.98792C2.93201 71.3926 1.91778 71.0242 1.06344 70.4004C0.448121 69.8556 0.0671486 69.0945 0 68.2759V40.9226C0 40.1259 0.531722 39.5948 1.06344 38.7981C1.94023 38.2547 2.95635 37.9779 3.98792 38.0014H15.6858ZM19.6737 47.0306V65.0891H19.9396C28.335 69.3066 37.668 71.3173 47.0574 70.9316C58.1377 71.1133 69.003 67.8666 78.1631 61.6368L78.6949 61.1056L82.4169 58.7155C78.9668 57.2398 75.2684 56.4288 71.5166 56.3254H62.4773C62.8058 57.2656 62.9852 58.2512 63.0091 59.2467H27.3837V56.3254H55.0332C54.4202 54.9123 53.5141 53.6451 52.3746 52.6075C50.4486 50.9107 48.1828 49.6433 45.7281 48.8896H33.7644C31.8088 47.5148 29.658 46.4406 27.3837 45.7028C24.9005 44.8543 22.298 44.406 19.6737 44.375V47.0306ZM15.1541 41.4537H4.51964V68.0104H15.1541V41.4537Z" fill="white"/>
<path d="M84.6072 2.32782H21.864V30.106H84.6072V2.32782Z" stroke="white" stroke-width="3" stroke-miterlimit="10"/>
<path d="M72.6435 23.3075V9.23254L71.0483 7.63914H35.1571C34.994 7.95605 34.7687 8.23693 34.4946 8.46505C34.2206 8.69317 33.9034 8.86387 33.5619 8.96697V23.3075C33.9384 23.4216 34.281 23.6267 34.5593 23.9047C34.8375 24.1826 35.0428 24.5248 35.1571 24.9009H71.0483C71.1625 24.5248 71.3679 24.1826 71.6461 23.9047C71.9243 23.6267 72.2669 23.4216 72.6435 23.3075Z" stroke="white" stroke-width="2" stroke-miterlimit="10"/>
<path d="M72.6435 9.23254V7.63914H71.0483L72.6435 9.23254Z" fill="white"/>
<path d="M72.6435 23.3075C72.267 23.4216 71.9244 23.6267 71.6461 23.9047C71.3679 24.1826 71.1626 24.5248 71.0483 24.9009H72.6435V23.3075Z" fill="white"/>
<path d="M35.1571 7.63914H33.5619V8.96698C33.9034 8.86387 34.2206 8.69317 34.4946 8.46505C34.7687 8.23693 34.9939 7.95605 35.1571 7.63914V7.63914Z" fill="white"/>
<path d="M33.5619 23.3075V24.9009H35.1571C35.0428 24.5248 34.8375 24.1826 34.5593 23.9047C34.281 23.6267 33.9384 23.4216 33.5619 23.3075Z" fill="white"/>
<path d="M38.6133 11.0915H44.1964V12.1538H39.9426V15.6061H43.9305V16.6684H39.9426V21.4486H38.6133V11.0915Z" fill="white"/>
<path d="M46.0573 11.3571H48.7159C49.7556 11.2549 50.7965 11.5385 51.6403 12.1538C51.9012 12.3865 52.1079 12.6736 52.2457 12.9948C52.3835 13.316 52.4491 13.6635 52.4379 14.0127C52.4648 14.5985 52.2968 15.1767 51.9601 15.6571C51.6235 16.1375 51.1371 16.4931 50.5769 16.6684V16.6684C50.9953 16.8361 51.3495 17.1322 51.5884 17.5141C51.8273 17.896 51.9386 18.3438 51.9062 18.7929C52.295 19.7289 52.563 20.7106 52.7038 21.7141H51.3745C51.2428 20.908 51.0653 20.11 50.8428 19.324C50.311 17.7306 49.7793 17.1995 48.7159 17.1995H47.3866V21.4486H46.0573V11.3571ZM47.3866 15.8717H48.7159C50.311 15.8717 51.1086 15.075 51.1086 14.0127C51.1086 12.9505 50.0452 12.1538 48.7159 12.1538H47.3866V15.8717Z" fill="white"/>
<path d="M59.6164 16.6684H55.6285V20.3863H60.1481V21.4486H54.2992V11.0915H59.8823V12.1538H55.6285V15.3406H59.6164V16.6684Z" fill="white"/>
<path d="M67.3261 16.6684H63.3382V20.3863H67.592V21.4486H62.0089V11.0915H67.592V12.1538H63.3382V15.3406H67.3261V16.6684Z" fill="white"/>
</svg>
