<svg width="68" height="76" viewBox="0 0 68 76" fill="none" xmlns="http://www.w3.org/2000/svg">
<path d="M34 0C32.7609 0.0130612 31.5372 0.223422 30.4004 0.618858C29.2635 1.0143 29.2349 1.5 28.2722 2.30347C27.4137 3.02002 26.7414 3.8662 26.2943 4.79285C25.8472 5.71951 25.6344 6.70814 25.6679 7.70133V11.4507V15.2H12.3866V20.4693H34H55.6133V15.2H42.3321C42.3321 15.2 42.4584 12.0587 42.4584 7.70133C42.4593 5.69344 41.482 3.76469 39.7348 2.32609C37.9877 0.887495 36.5036 0.0528391 34 0ZM2.6842 7.296V42.1547V76H34H65.3158V42.1547V7.296H46.513V12.3627H61.8067V71.9467H6.1933V12.3627H21.487V7.296H2.6842ZM34 7.39733C34.4092 7.39705 34.8143 7.46315 35.1908 7.59166C35.5673 7.72016 35.9075 7.90842 36.1909 8.14509C36.4743 8.38177 36.695 8.66197 36.8399 8.96883C36.9847 9.27569 37.0505 9.60286 37.0334 9.93067C37.0334 10.5757 36.7138 11.1943 36.1449 11.6504C35.5761 12.1064 34.8045 12.3627 34 12.3627C33.2857 12.2463 32.6435 11.9356 32.1822 11.4832C31.7209 11.0307 31.469 10.4644 31.469 9.88C31.469 9.29563 31.7209 8.72924 32.1822 8.27677C32.6435 7.82431 33.2857 7.51362 34 7.39733ZM32.4832 27.36V29.8933H56.4982V27.36H32.4832ZM32.4832 36.6827V39.216H56.4982V36.6827H32.4832Z" fill="black"/>
<path d="M28.3123 26.5H12.3867V39.09H28.3123V26.5Z" fill="#FFC400" stroke="black" stroke-miterlimit="10"/>
<path d="M12.3867 68.2V59.1H24.6469V68.2" fill="#FFC400"/>
<path d="M12.3867 68.2V59.1H24.6469V68.2" stroke="black" stroke-miterlimit="10"/>
<path d="M27.8068 68.2V49.1H40.1934V68.2" fill="#FFC400"/>
<path d="M27.8068 68.2V49.1H40.1934V68.2" stroke="black" stroke-miterlimit="10"/>
<path d="M43.3533 68.2V54.4H55.6135V68.2" fill="#FFC400"/>
<path d="M43.3533 68.2V54.4H55.6135V68.2" stroke="black" stroke-miterlimit="10"/>
</svg>
