<svg width="76" height="76" viewBox="0 0 76 76" fill="none" xmlns="http://www.w3.org/2000/svg">
<path d="M28.5 30.9C28.5003 29.6441 28.0083 28.4381 27.1297 27.5408C26.251 26.6434 25.0556 26.1262 23.8 26.1H21.4C18.8804 26.1 16.4641 27.1009 14.6825 28.8825C12.9009 30.6641 11.9 33.0804 11.9 35.6V42.8C11.8999 44.0429 12.1463 45.2734 12.625 46.4205C13.1036 47.5675 13.805 48.6082 14.6885 49.4824C15.5719 50.3566 16.62 51.0469 17.7721 51.5134C18.9241 51.9798 20.1572 52.2132 21.4 52.2H23.8C25.0465 52.2 26.242 51.7048 27.1234 50.8234C28.0048 49.942 28.5 48.7465 28.5 47.5V30.9ZM54.6 52.2C55.8428 52.2132 57.0759 51.9798 58.2279 51.5134C59.38 51.0469 60.4281 50.3566 61.3115 49.4824C62.195 48.6082 62.8964 47.5675 63.375 46.4205C63.8537 45.2734 64.1001 44.0429 64.1 42.8V35.6C64.1 33.0804 63.0991 30.6641 61.3175 28.8825C59.5359 27.1009 57.1196 26.1 54.6 26.1H52.3C51.027 26.1 49.8061 26.6057 48.9059 27.5059C48.0057 28.4061 47.5 29.627 47.5 30.9V47.5C47.4999 48.1257 47.6247 48.7452 47.8671 49.322C48.1095 49.8989 48.4647 50.4215 48.9118 50.8593C49.3588 51.297 49.8888 51.6411 50.4707 51.8713C51.0525 52.1016 51.6744 52.2133 52.3 52.2H54.6ZM38 0C16.8 0 0.7 17.6 0 38V40.4C0 41.0365 0.252856 41.647 0.702944 42.0971C1.15303 42.5471 1.76348 42.8 2.4 42.8H4.8C5.11064 42.8003 5.41813 42.7377 5.7039 42.6159C5.98967 42.4941 6.24781 42.3157 6.46275 42.0914C6.67768 41.8671 6.84496 41.6016 6.95448 41.3109C7.064 41.0202 7.11351 40.7104 7.1 40.4V38C7.1 29.8048 10.3555 21.9453 16.1504 16.1504C21.9453 10.3555 29.8048 7.1 38 7.1C46.1952 7.1 54.0547 10.3555 59.8496 16.1504C65.6445 21.9453 68.9 29.8048 68.9 38V38V62.6C68.9 64.2709 68.2363 65.8733 67.0548 67.0548C65.8733 68.2363 64.2709 68.9 62.6 68.9H47.5C47.5 67.017 46.752 65.2111 45.4205 63.8795C44.089 62.548 42.283 61.8 40.4 61.8H35.6C34.6676 61.8 33.7444 61.9836 32.8829 62.3405C32.0215 62.6973 31.2388 63.2202 30.5795 63.8795C29.9202 64.5388 29.3973 65.3215 29.0405 66.1829C28.6836 67.0444 28.5 67.9676 28.5 68.9C28.5 69.8324 28.6836 70.7556 29.0405 71.6171C29.3973 72.4785 29.9202 73.2612 30.5795 73.9205C31.2388 74.5798 32.0215 75.1027 32.8829 75.4595C33.7444 75.8163 34.6676 76 35.6 76H62.6C66.1539 76 69.5622 74.5882 72.0752 72.0752C74.5882 69.5622 76 66.1539 76 62.6V38C75.3 17.6 59.2 0 38 0Z" fill="black"/>
<path d="M28.5 30.9C28.5003 29.6441 28.0083 28.4381 27.1297 27.5408C26.251 26.6434 25.0557 26.1262 23.8 26.1H21.4C18.8805 26.1 16.4641 27.1009 14.6825 28.8825C12.9009 30.6641 11.9 33.0804 11.9 35.6V42.8C11.9 44.0429 12.1464 45.2734 12.625 46.4205C13.1036 47.5675 13.805 48.6082 14.6885 49.4824C15.572 50.3566 16.6201 51.0469 17.7721 51.5134C18.9241 51.9798 20.1572 52.2132 21.4 52.2H23.8C25.0465 52.2 26.242 51.7048 27.1234 50.8234C28.0048 49.942 28.5 48.7465 28.5 47.5V30.9ZM54.6 52.2C55.8428 52.2132 57.0759 51.9798 58.228 51.5134C59.38 51.0469 60.4281 50.3566 61.3116 49.4824C62.1951 48.6082 62.8964 47.5675 63.375 46.4205C63.8537 45.2734 64.1001 44.0429 64.1 42.8V35.6C64.1 33.0804 63.0991 30.6641 61.3175 28.8825C59.5359 27.1009 57.1196 26.1 54.6 26.1H52.2C50.9444 26.1262 49.749 26.6434 48.8704 27.5408C47.9917 28.4381 47.4998 29.6441 47.5 30.9V47.5C47.5 48.7465 47.9952 49.942 48.8766 50.8234C49.758 51.7048 50.9535 52.2 52.2 52.2H54.6Z" fill="#FFC400"/>
</svg>
