<svg width="76" height="76" viewBox="0 0 76 76" fill="none" xmlns="http://www.w3.org/2000/svg">
<g clip-path="url(#clip0)">
<path d="M41.7408 20.7838V-1.27512H19.6818C17.7317 -1.27512 15.8614 -0.500429 14.4825 0.878523C13.1035 2.25747 12.3289 4.12774 12.3289 6.07787V25.5743C16.5292 23.1467 21.4127 22.1715 26.2232 22.7997C31.0338 23.4279 35.5031 25.6245 38.9392 29.0493C42.3753 32.4741 44.5865 36.9361 45.2306 41.7446C45.8746 46.553 44.9156 51.4397 42.5018 55.648L55.4798 68.626C56.5019 69.6444 57.1085 70.9275 57.2997 72.2547H63.7997C65.7499 72.2547 67.6201 71.48 68.9991 70.1011C70.378 68.7221 71.1527 66.8519 71.1527 64.9017V28.1368H49.0938C47.1436 28.1368 45.2734 27.3621 43.8944 25.9832C42.5155 24.6042 41.7408 22.734 41.7408 20.7838Z" fill="black"/>
<path d="M48.9835 75.1224C49.236 75.3933 49.5404 75.6106 49.8786 75.7613C50.2169 75.912 50.582 75.993 50.9522 75.9996C51.3224 76.0061 51.6902 75.938 52.0335 75.7993C52.3769 75.6606 52.6888 75.4542 52.9506 75.1924C53.2124 74.9306 53.4189 74.6187 53.5575 74.2753C53.6962 73.932 53.7643 73.5642 53.7578 73.194C53.7513 72.8238 53.6702 72.4586 53.5195 72.1204C53.3688 71.7822 53.1515 71.4778 52.8806 71.2253L37.7629 56.1039C40.3452 52.8572 41.7478 48.8295 41.7408 44.681C41.7465 39.8678 39.858 35.2456 36.4835 31.8133C34.7742 30.0651 32.7324 28.6765 30.4783 27.7294C28.2242 26.7823 25.8034 26.2958 23.3584 26.2986C19.38 26.2927 15.5081 27.5834 12.3289 29.9751C8.45977 32.8487 5.87395 37.1269 5.12828 41.8885C4.38261 46.65 5.53675 51.5139 8.34216 55.4328C11.1476 59.3517 15.3798 62.012 20.1275 62.841C24.8753 63.67 29.7586 62.6013 33.7261 59.865L48.9835 75.1224ZM23.3584 31.8133C25.0482 31.8133 26.7215 32.1462 28.2826 32.7928C29.8438 33.4395 31.2624 34.3873 32.4572 35.5822C33.6521 36.7771 34.5999 38.1956 35.2466 39.7568C35.8933 41.318 36.2261 42.9912 36.2261 44.681C36.2261 46.3709 35.8933 48.0441 35.2466 49.6053C34.5999 51.1665 33.6521 52.585 32.4572 53.7799C31.2624 54.9748 29.8438 55.9226 28.2826 56.5693C26.7215 57.2159 25.0482 57.5488 23.3584 57.5488C19.9456 57.5488 16.6727 56.1931 14.2595 53.7799C11.8464 51.3667 10.4907 48.0938 10.4907 44.681C10.4907 41.2683 11.8464 37.9954 14.2595 35.5822C16.6727 33.169 19.9456 31.8133 23.3584 31.8133Z" fill="black"/>
<path d="M47.2554 20.7838V0.563129L69.3143 22.6221H49.0936C48.6061 22.6221 48.1385 22.4284 47.7938 22.0837C47.449 21.7389 47.2554 21.2714 47.2554 20.7838Z" fill="#FFC400"/>
</g>
<defs>
<clipPath id="clip0">
<rect width="76" height="76" fill="white"/>
</clipPath>
</defs>
</svg>
