<svg xmlns="http://www.w3.org/2000/svg" xmlns:xlink="http://www.w3.org/1999/xlink" viewBox="0 0 422.63 358.14"><defs><style>.cls-1{fill:none;}.cls-2{isolation:isolate;}.cls-3{clip-path:url(#clip-path);}.cls-4{fill:#fff;}.cls-5{fill:#bade24;}.cls-6{fill:#a0b548;}.cls-7{fill:url(#linear-gradient);}.cls-8{fill:url(#linear-gradient-2);}.cls-9{fill:url(#linear-gradient-3);}.cls-10{fill:url(#linear-gradient-4);}.cls-11{fill:url(#linear-gradient-5);}.cls-12{fill:url(#linear-gradient-6);}.cls-13{fill:url(#linear-gradient-7);}.cls-14{fill:url(#linear-gradient-8);}.cls-15{fill:url(#linear-gradient-9);}.cls-16{fill:url(#linear-gradient-10);}.cls-17{fill:url(#linear-gradient-11);}.cls-18{fill:url(#linear-gradient-12);}.cls-19{fill:url(#linear-gradient-13);}.cls-20{fill:url(#linear-gradient-14);}.cls-21{fill:url(#linear-gradient-15);}.cls-22{fill:url(#linear-gradient-16);}.cls-23{fill:url(#linear-gradient-17);}.cls-24{fill:url(#linear-gradient-18);}.cls-25{fill:url(#linear-gradient-19);}.cls-26{fill:url(#linear-gradient-20);}.cls-27{fill:url(#linear-gradient-21);}.cls-28{fill:url(#linear-gradient-22);}.cls-29{fill:url(#linear-gradient-23);}.cls-30{fill:url(#linear-gradient-24);}.cls-31{fill:url(#linear-gradient-25);}.cls-32{fill:#ffd143;}.cls-33{fill:url(#linear-gradient-26);}.cls-34{fill:url(#linear-gradient-27);}.cls-35{fill:url(#linear-gradient-28);}.cls-36{fill:url(#linear-gradient-29);}.cls-37{opacity:0.17;mix-blend-mode:screen;fill:url(#linear-gradient-30);}.cls-38{fill:#cfeeff;}.cls-39{fill:#c6d8ff;}.cls-40{fill:#e03f60;}.cls-41{fill:#f2b892;}.cls-42{fill:#eb836c;}.cls-43{fill:#7791d4;}.cls-44{fill:#2c4584;}.cls-45{fill:url(#Áåçûìÿííûé_ãðàäèåíò_16);}.cls-46{fill:#222b54;}.cls-47{fill:#37ccb3;}.cls-48{fill:#59d39f;}.cls-49{fill:#70a5cf;}</style><clipPath id="clip-path" transform="translate(-4.95 -16.85)"><rect class="cls-1" width="450" height="450" transform="translate(450 450) rotate(180)"/></clipPath><linearGradient id="linear-gradient" x1="-2359.71" y1="2472.48" x2="-2306.68" y2="2328.37" gradientTransform="matrix(-0.87, 0.49, 0.49, 0.87, -3116.8, -744.74)" gradientUnits="userSpaceOnUse"><stop offset="0" stop-color="#527eb8"/><stop offset="1" stop-color="#0f2036"/></linearGradient><linearGradient id="linear-gradient-2" x1="-2390.94" y1="2459.2" x2="-2341.81" y2="2325.71" xlink:href="#linear-gradient"/><linearGradient id="linear-gradient-3" x1="-2385.7" y1="2460.63" x2="-2335.98" y2="2325.51" xlink:href="#linear-gradient"/><linearGradient id="linear-gradient-4" x1="-2381.42" y1="2461.08" x2="-2331.87" y2="2326.42" xlink:href="#linear-gradient"/><linearGradient id="linear-gradient-5" x1="-2376.81" y1="2462.59" x2="-2326.72" y2="2326.46" xlink:href="#linear-gradient"/><linearGradient id="linear-gradient-6" x1="-2372.8" y1="2463.13" x2="-2322.73" y2="2327.05" xlink:href="#linear-gradient"/><linearGradient id="linear-gradient-7" x1="-2368.89" y1="2464.65" x2="-2318.35" y2="2327.3" xlink:href="#linear-gradient"/><linearGradient id="linear-gradient-8" x1="-2366.37" y1="2464.03" x2="-2316.24" y2="2327.81" xlink:href="#linear-gradient"/><linearGradient id="linear-gradient-9" x1="-2365.13" y1="2464.99" x2="-2314.48" y2="2327.36" xlink:href="#linear-gradient"/><linearGradient id="linear-gradient-10" x1="-2365.49" y1="2462.42" x2="-2315.49" y2="2326.54" xlink:href="#linear-gradient"/><linearGradient id="linear-gradient-11" x1="-2364.59" y1="2463.88" x2="-2313.94" y2="2326.24" xlink:href="#linear-gradient"/><linearGradient id="linear-gradient-12" x1="-2324.98" y1="2488.75" x2="-2265" y2="2325.76" xlink:href="#linear-gradient"/><linearGradient id="linear-gradient-13" x1="-2327.44" y1="2488.36" x2="-2269" y2="2329.54" xlink:href="#linear-gradient"/><linearGradient id="linear-gradient-14" x1="-2328.4" y1="2489.59" x2="-2269.54" y2="2329.64" xlink:href="#linear-gradient"/><linearGradient id="linear-gradient-15" x1="-2326.47" y1="2490.36" x2="-2268.83" y2="2333.73" xlink:href="#linear-gradient"/><linearGradient id="linear-gradient-16" x1="-2328.02" y1="2490.94" x2="-2270.34" y2="2334.19" xlink:href="#linear-gradient"/><linearGradient id="linear-gradient-17" x1="-2329.78" y1="2489.92" x2="-2273.02" y2="2335.67" xlink:href="#linear-gradient"/><linearGradient id="linear-gradient-18" x1="-2334.34" y1="2490.57" x2="-2276.85" y2="2334.33" xlink:href="#linear-gradient"/><linearGradient id="linear-gradient-19" x1="-2335.31" y1="2489.3" x2="-2278.78" y2="2335.67" xlink:href="#linear-gradient"/><linearGradient id="linear-gradient-20" x1="-2340.8" y1="2490.7" x2="-2283.32" y2="2334.52" xlink:href="#linear-gradient"/><linearGradient id="linear-gradient-21" x1="-2343.41" y1="2488.04" x2="-2286.98" y2="2334.69" xlink:href="#linear-gradient"/><linearGradient id="linear-gradient-22" x1="-2362.71" y1="2462.26" x2="-2312.66" y2="2326.23" xlink:href="#linear-gradient"/><linearGradient id="linear-gradient-23" x1="-2350.24" y1="2482.13" x2="-2295.19" y2="2332.55" xlink:href="#linear-gradient"/><linearGradient id="linear-gradient-24" x1="-2365.85" y1="2462.63" x2="-2315.16" y2="2324.89" xlink:href="#linear-gradient"/><linearGradient id="linear-gradient-25" x1="-2363.32" y1="2468.75" x2="-2310.99" y2="2326.53" xlink:href="#linear-gradient"/><linearGradient id="linear-gradient-26" x1="215.06" y1="343.31" x2="215.06" y2="272.49" gradientTransform="matrix(1, 0, 0, 1, 0, 0)" xlink:href="#linear-gradient"/><linearGradient id="linear-gradient-27" x1="210.11" y1="336.6" x2="210.11" y2="283.05" gradientTransform="matrix(1, 0, 0, 1, 0, 0)" xlink:href="#linear-gradient"/><linearGradient id="linear-gradient-28" x1="469.45" y1="167.86" x2="414.04" y2="167.86" gradientTransform="matrix(1, 0, 0, 1, 0, 0)" xlink:href="#linear-gradient"/><linearGradient id="linear-gradient-29" x1="215.06" y1="292.92" x2="215.06" y2="247.43" gradientTransform="matrix(1, 0, 0, 1, 0, 0)" xlink:href="#linear-gradient"/><linearGradient id="linear-gradient-30" x1="139.5" y1="292.92" x2="139.5" y2="247.43" gradientTransform="matrix(1, 0, 0, 1, 0, 0)" xlink:href="#linear-gradient"/><radialGradient id="Áåçûìÿííûé_ãðàäèåíò_16" cx="-3018.54" cy="210.68" r="31.45" gradientTransform="matrix(-1, -0.03, -0.03, 1, -2667.21, -74.53)" gradientUnits="userSpaceOnUse"><stop offset="0.01" stop-color="#181e3b"/><stop offset="1" stop-color="#222b54"/></radialGradient></defs><g class="cls-2"><g id="Layer_2" data-name="Layer 2"><g id="Ñëîé_1" data-name="Ñëîé 1"><g class="cls-3"><path class="cls-4" d="M196.48,80.91c-1.24,2.06-2.4,4.17-3.48,6.3L237.31,42.9q-3.21,1.62-6.3,3.48Z" transform="translate(-4.95 -16.85)"/><path class="cls-4" d="M249.58,37.67c-1.52.53-3,1.1-4.52,1.7L189.47,95c-.6,1.5-1.17,3-1.7,4.52Z" transform="translate(-4.95 -16.85)"/><path class="cls-4" d="M259.52,34.78c-1.27.3-2.54.62-3.8,1l-69.87,69.87c-.35,1.26-.67,2.53-1,3.8Z" transform="translate(-4.95 -16.85)"/><path class="cls-4" d="M268.23,33.11c-1.13.17-2.25.36-3.38.56l-81.08,81.09c-.21,1.12-.39,2.24-.56,3.37Z" transform="translate(-4.95 -16.85)"/><path class="cls-4" d="M276.1,32.29q-1.53.09-3.06.24l-90.41,90.41c-.1,1-.18,2-.25,3.06Z" transform="translate(-4.95 -16.85)"/><path class="cls-4" d="M182.17,133.26,283.36,32.07c-.94,0-1.89,0-2.84,0l-98.33,98.34C182.16,131.37,182.16,132.32,182.17,133.26Z" transform="translate(-4.95 -16.85)"/><path class="cls-4" d="M290.14,32.33c-.88-.06-1.77-.12-2.65-.16L182.27,137.39c0,.88.09,1.77.16,2.66Z" transform="translate(-4.95 -16.85)"/><path class="cls-4" d="M296.52,33c-.84-.11-1.67-.22-2.51-.31L182.79,143.91c.09.84.2,1.67.31,2.51Z" transform="translate(-4.95 -16.85)"/><path class="cls-4" d="M302.55,34c-.79-.16-1.58-.31-2.38-.45L183.67,150.08c.14.79.29,1.58.44,2.37Z" transform="translate(-4.95 -16.85)"/><path class="cls-4" d="M308.27,35.33,306,34.77,184.87,155.92c.18.75.37,1.51.56,2.26Z" transform="translate(-4.95 -16.85)"/><path class="cls-4" d="M313.73,36.92l-2.15-.67L186.35,161.48c.21.72.44,1.44.67,2.16Z" transform="translate(-4.95 -16.85)"/><path class="cls-4" d="M318.94,38.76c-.69-.26-1.37-.52-2.06-.76L188.1,166.78c.24.69.5,1.38.76,2.06Z" transform="translate(-4.95 -16.85)"/><path class="cls-4" d="M323.91,40.83c-.65-.29-1.3-.58-2-.85L190.07,171.85c.28.66.57,1.31.86,2Z" transform="translate(-4.95 -16.85)"/><path class="cls-4" d="M328.67,43.11l-1.87-.94L192.27,176.7c.31.63.62,1.25.94,1.87Z" transform="translate(-4.95 -16.85)"/><path class="cls-4" d="M333.23,45.6c-.6-.35-1.19-.69-1.8-1L194.68,181.34c.33.6.67,1.2,1,1.79Z" transform="translate(-4.95 -16.85)"/><path class="cls-4" d="M337.59,48.28c-.57-.37-1.14-.74-1.72-1.1L197.28,185.77c.36.58.73,1.15,1.1,1.72Z" transform="translate(-4.95 -16.85)"/><path class="cls-4" d="M341.77,51.15c-.55-.39-1.1-.79-1.65-1.17l-140,140c.38.56.78,1.1,1.17,1.65Z" transform="translate(-4.95 -16.85)"/><path class="cls-4" d="M345.76,54.2,344.19,53,203.06,194.09c.41.53.82,1,1.24,1.57Z" transform="translate(-4.95 -16.85)"/><path class="cls-4" d="M349.58,57.43c-.5-.44-1-.88-1.51-1.31L206.22,198c.43.51.87,1,1.31,1.51Z" transform="translate(-4.95 -16.85)"/><path class="cls-4" d="M353.22,60.84c-.48-.47-1-.93-1.44-1.39L209.55,201.69l1.38,1.43Z" transform="translate(-4.95 -16.85)"/><path class="cls-4" d="M213.06,205.22c.48.47,1,.92,1.45,1.37L356.69,64.41c-.45-.49-.91-1-1.37-1.45Z" transform="translate(-4.95 -16.85)"/><path class="cls-4" d="M360,68.16c-.43-.51-.86-1-1.3-1.52l-142,142,1.52,1.3Z" transform="translate(-4.95 -16.85)"/><path class="cls-4" d="M363.11,72.08q-.6-.81-1.23-1.59L220.59,211.78q.78.63,1.59,1.23Z" transform="translate(-4.95 -16.85)"/><path class="cls-4" d="M366.05,76.18c-.38-.56-.76-1.11-1.15-1.66L224.62,214.8c.55.39,1.1.78,1.66,1.15Z" transform="translate(-4.95 -16.85)"/><path class="cls-4" d="M368.81,80.47q-.53-.89-1.08-1.74l-138.9,138.9c.57.37,1.15.73,1.73,1.08Z" transform="translate(-4.95 -16.85)"/><path class="cls-4" d="M371.38,84.94c-.33-.6-.66-1.21-1-1.81L233.23,220.28l1.81,1Z" transform="translate(-4.95 -16.85)"/><path class="cls-4" d="M373.75,89.62c-.3-.63-.61-1.27-.92-1.9l-135,135,1.9.92Z" transform="translate(-4.95 -16.85)"/><path class="cls-4" d="M375.9,94.51c-.27-.67-.54-1.33-.83-2L242.62,225c.66.29,1.32.56,2,.84Z" transform="translate(-4.95 -16.85)"/><path class="cls-4" d="M377.84,99.62q-.36-1-.75-2.07L247.65,227q1,.39,2.07.75Z" transform="translate(-4.95 -16.85)"/><path class="cls-4" d="M379.52,105c-.2-.73-.42-1.45-.64-2.18l-126,126,2.17.65Z" transform="translate(-4.95 -16.85)"/><path class="cls-4" d="M381,110.59c-.18-.76-.35-1.52-.54-2.28l-122,122,2.28.54Z" transform="translate(-4.95 -16.85)"/><path class="cls-4" d="M267,231.64,382.09,116.49c-.13-.8-.27-1.6-.41-2.39L264.19,231.58l.35.06Z" transform="translate(-4.95 -16.85)"/><path class="cls-4" d="M274,231.64,382.91,122.72c-.09-.84-.18-1.69-.29-2.53L271.18,231.64Z" transform="translate(-4.95 -16.85)"/><path class="cls-4" d="M281,231.64l102.3-102.3q0-1.35-.12-2.7l-105,105Z" transform="translate(-4.95 -16.85)"/><path class="cls-4" d="M288.09,231.64l95.24-95.24c0-1,.05-1.93.06-2.89l-98.12,98.13Z" transform="translate(-4.95 -16.85)"/><path class="cls-4" d="M295.13,231.64,382.76,144q.18-1.56.3-3.12l-90.75,90.75Z" transform="translate(-4.95 -16.85)"/><path class="cls-4" d="M301,231.64l1.4-.27,79-79c.23-1.14.43-2.29.62-3.43l-82.73,82.73Z" transform="translate(-4.95 -16.85)"/><path class="cls-4" d="M379.14,161.72q.58-2,1.08-3.9l-72.3,72.3q1.95-.5,3.9-1.08Z" transform="translate(-4.95 -16.85)"/><path class="cls-4" d="M375.08,172.82c.68-1.56,1.31-3.14,1.91-4.73l-58.8,58.8c1.59-.6,3.17-1.23,4.73-1.91Z" transform="translate(-4.95 -16.85)"/><path class="cls-4" d="M366.67,188.28q2.32-3.51,4.32-7.14l-39.75,39.75q3.63-2,7.13-4.32Z" transform="translate(-4.95 -16.85)"/><path class="cls-5" d="M136.16,212.69c3.26-5.84,5.17-14.27,6.3-21.92-7.91-9-16.33-18.49-23.44-26.78-2.68-3.13-5.45-6.65-8.24-10.4-5.26,3.56-9.86,5.59-11.57,4.41,2.39-3.69,3.83-8.72,4.66-14-13.67-19.57-27-41.36-34-46.45-9.66-7-32.43-11.85-40.86-7s-11,21.4-11.92,35.28a64.07,64.07,0,0,0,2,22.75c6.9-.1,14.23-1,18.34-4,2.82,3.13-3.54,16.51-10.5,23.48,7.25,13.88,19.54,31.35,40.17,53.48,7.29-2.63,15.09-5.94,20.53-9.62,1.42,1.07-5.85,9-14.13,16.36a366.24,366.24,0,0,0,30.74,28.69c7.21-7.55,14-14.73,17.81-18.8,1.7,1-3.9,12-11.32,23.94,26.1,19.94,41.32,22.2,46.68,19.15,41.49-23.59,16.53-50.38,11.22-58.95-2.42-3.9-9.22-12-17.61-21.65C144.6,208,137.82,213.91,136.16,212.69Z" transform="translate(-4.95 -16.85)"/><path class="cls-6" d="M183.68,268.83a60,60,0,0,0-10,2.36C84.63,193.8,46.6,114.28,46.6,114.28,87.42,180.77,147,237.38,183.68,268.83Z" transform="translate(-4.95 -16.85)"/><path class="cls-7" d="M152.34,249.24s-72.78-17.71-130-98.92c-2.62,1.13-7.11-10.83-2.62,1.13s54,77.42,126.78,105.87C149.52,254.77,152.34,249.24,152.34,249.24Z" transform="translate(-4.95 -16.85)"/><path class="cls-8" d="M133.55,246c.26,2.23,27.48-45.81,24.56-63C152,196.65,131.66,229.9,133.55,246Z" transform="translate(-4.95 -16.85)"/><path class="cls-9" d="M123.35,242.84c.43,2.17,25.59-44.2,20.42-63.37C139.14,199.3,120.27,227.2,123.35,242.84Z" transform="translate(-4.95 -16.85)"/><path class="cls-10" d="M111.77,235c.38,2.09,23.47-41.16,19.65-57.28C126.4,190.07,109,219.92,111.77,235Z" transform="translate(-4.95 -16.85)"/><path class="cls-11" d="M101.85,231.52c.53,2,21.76-39.76,15.68-57.87C114.3,191.85,98,216.8,101.85,231.52Z" transform="translate(-4.95 -16.85)"/><path class="cls-12" d="M90,222.08c.53,1.92,18.7-35.6,13.82-50.49C100.11,182.39,86.2,208.19,90,222.08Z" transform="translate(-4.95 -16.85)"/><path class="cls-13" d="M80.42,218.18c.67,1.89,17.21-34.46,10-51.31C88.91,183.14,75.59,204.57,80.42,218.18Z" transform="translate(-4.95 -16.85)"/><path class="cls-14" d="M69.5,205.5c.5,1.74,15-25,10.47-38.63C77.08,174.94,65.88,192.94,69.5,205.5Z" transform="translate(-4.95 -16.85)"/><path class="cls-15" d="M61.22,199.81c.62,1.74,13.77-24.39,7.22-40.28C67.54,172.71,56.74,187.22,61.22,199.81Z" transform="translate(-4.95 -16.85)"/><path class="cls-16" d="M49,184.15c.53,1.52,14.24-19.2,9.47-31.26C55.77,159.34,45.14,173.13,49,184.15Z" transform="translate(-4.95 -16.85)"/><path class="cls-17" d="M40.7,178.35c.65,1.54,13-18.87,6.24-33C46.34,156.3,36,167.2,40.7,178.35Z" transform="translate(-4.95 -16.85)"/><path class="cls-18" d="M125.5,247.51c2.33-.45-37.87,38.62-56.07,41.2C81.29,279.08,108.66,250.7,125.5,247.51Z" transform="translate(-4.95 -16.85)"/><path class="cls-19" d="M117.56,238.57c2.31-.27-36.83,36.43-57.73,37.6C78.44,266,100.85,240.53,117.56,238.57Z" transform="translate(-4.95 -16.85)"/><path class="cls-20" d="M107.38,233c2.22-.29-34.39,33.61-51.81,35.06C66.47,259.84,91.3,235.12,107.38,233Z" transform="translate(-4.95 -16.85)"/><path class="cls-21" d="M94.34,225.5c2.21-.13-33.5,31.65-53.61,31.67C58.11,248.74,78.32,226.47,94.34,225.5Z" transform="translate(-4.95 -16.85)"/><path class="cls-22" d="M83.27,219.27C85.37,219.16,53,246.9,36.54,247,46.31,240.4,68.11,220.05,83.27,219.27Z" transform="translate(-4.95 -16.85)"/><path class="cls-23" d="M74,209.41c2.1,0-29.54,25.94-48.7,24.6C41.22,227.68,58.8,209.19,74,209.41Z" transform="translate(-4.95 -16.85)"/><path class="cls-24" d="M64,202.82C66,202.74,43.42,223.91,28.25,224,35.52,218.91,50.28,203.37,64,202.82Z" transform="translate(-4.95 -16.85)"/><path class="cls-25" d="M54.05,192.56c2,0-20.42,19.79-38.43,18.71C28.64,206.46,40,192.34,54.05,192.56Z" transform="translate(-4.95 -16.85)"/><path class="cls-26" d="M44.07,182.41c1.7,0-15,18.64-28.65,18C21.11,196.05,31.8,182.3,44.07,182.41Z" transform="translate(-4.95 -16.85)"/><path class="cls-27" d="M36.37,171.37C38.13,171.48,21.3,188.81,5,187,15.85,183.12,23.72,170.54,36.37,171.37Z" transform="translate(-4.95 -16.85)"/><path class="cls-28" d="M30.69,165.94c.46,1.3,12.85-9.69,8.69-20.12C37,149.74,27.36,156.58,30.69,165.94Z" transform="translate(-4.95 -16.85)"/><path class="cls-29" d="M27.72,161.83c1.29.61-11.89,10.73-22.27,5.43C9.89,165.52,18.35,157.46,27.72,161.83Z" transform="translate(-4.95 -16.85)"/><path class="cls-30" d="M26,158.2c.56,1.35,11.77-9.83,5.84-22.46C31.25,143.67,22,148.48,26,158.2Z" transform="translate(-4.95 -16.85)"/><path class="cls-31" d="M23.17,154.74c1.3.77,3.32-14.51-9.38-21.36C18.25,140.12,13.79,149.19,23.17,154.74Z" transform="translate(-4.95 -16.85)"/><path class="cls-32" d="M250.74,47.35c-.26,4.86-7.58,4.9-7.58,0s7.32-4.86,7.58,0c.11,2.08,3.36,2.09,3.24,0a7,7,0,1,0-7.33,7,7.15,7.15,0,0,0,7.33-7C254.1,45.27,250.85,45.27,250.74,47.35Z" transform="translate(-4.95 -16.85)"/><path class="cls-4" d="M420.91,148.78l-4.18-4.18,4.18-4.18a.92.92,0,0,0-1.3-1.3l-4.18,4.18-4-4a.92.92,0,0,0-1.3,1.3l4,4c-1.32,1.33-2.65,2.65-4,4a.92.92,0,0,0,1.3,1.3l4-4,4.18,4.18A.92.92,0,0,0,420.91,148.78Z" transform="translate(-4.95 -16.85)"/><path class="cls-4" d="M149.58,309.42l-4.19-4.18,4.19-4.18a.92.92,0,0,0-1.3-1.3l-4.19,4.18-4-4a.92.92,0,0,0-1.3,1.3l4,4c-1.33,1.33-2.66,2.65-4,4a.92.92,0,0,0,1.3,1.3l4-4,4.19,4.18A.92.92,0,0,0,149.58,309.42Z" transform="translate(-4.95 -16.85)"/><path class="cls-32" d="M138,58.41a19,19,0,1,1,19-19A19,19,0,0,1,138,58.41Zm0-32.74a13.72,13.72,0,1,0,13.72,13.72A13.74,13.74,0,0,0,138,25.67Z" transform="translate(-4.95 -16.85)"/><path class="cls-32" d="M138,48.09a8.7,8.7,0,1,1,8.71-8.7A8.71,8.71,0,0,1,138,48.09ZM138,36a3.4,3.4,0,1,0,3.4,3.4A3.4,3.4,0,0,0,138,36Z" transform="translate(-4.95 -16.85)"/><path class="cls-32" d="M157.9,42h-3.51a2.65,2.65,0,1,1,0-5.3h3.51a2.65,2.65,0,1,1,0,5.3Z" transform="translate(-4.95 -16.85)"/><path class="cls-32" d="M152.19,33.85a2.65,2.65,0,0,1-1.32-4.94l3-1.76a2.65,2.65,0,0,1,2.65,4.59l-3,1.76A2.67,2.67,0,0,1,152.19,33.85Z" transform="translate(-4.95 -16.85)"/><path class="cls-32" d="M146.2,27.86a2.65,2.65,0,0,1-2.3-4l1.76-3a2.65,2.65,0,0,1,4.59,2.65l-1.75,3.05A2.67,2.67,0,0,1,146.2,27.86Z" transform="translate(-4.95 -16.85)"/><path class="cls-32" d="M138,25.67A2.65,2.65,0,0,1,135.36,23V19.5a2.66,2.66,0,0,1,5.31,0V23A2.66,2.66,0,0,1,138,25.67Z" transform="translate(-4.95 -16.85)"/><path class="cls-32" d="M129.83,27.86a2.64,2.64,0,0,1-2.3-1.32l-1.75-3.05a2.65,2.65,0,1,1,4.59-2.65l1.75,3a2.65,2.65,0,0,1-1,3.63A2.61,2.61,0,0,1,129.83,27.86Z" transform="translate(-4.95 -16.85)"/><path class="cls-32" d="M123.83,33.85a2.64,2.64,0,0,1-1.32-.35l-3-1.76a2.65,2.65,0,1,1,2.65-4.59l3,1.76a2.65,2.65,0,0,1-1.33,4.94Z" transform="translate(-4.95 -16.85)"/><path class="cls-32" d="M121.64,42h-3.51a2.65,2.65,0,1,1,0-5.3h3.51a2.65,2.65,0,1,1,0,5.3Z" transform="translate(-4.95 -16.85)"/><path class="cls-32" d="M120.8,52A2.65,2.65,0,0,1,119.47,47l3-1.75a2.65,2.65,0,0,1,2.65,4.59l-3,1.76A2.64,2.64,0,0,1,120.8,52Z" transform="translate(-4.95 -16.85)"/><path class="cls-32" d="M128.07,59.26a2.53,2.53,0,0,1-1.32-.36,2.64,2.64,0,0,1-1-3.62l1.75-3a2.65,2.65,0,0,1,4.59,2.65l-1.75,3A2.65,2.65,0,0,1,128.07,59.26Z" transform="translate(-4.95 -16.85)"/><path class="cls-32" d="M138,61.92a2.65,2.65,0,0,1-2.65-2.65V55.76a2.66,2.66,0,0,1,5.31,0v3.51A2.65,2.65,0,0,1,138,61.92Z" transform="translate(-4.95 -16.85)"/><path class="cls-32" d="M148,59.26a2.65,2.65,0,0,1-2.3-1.33l-1.76-3a2.65,2.65,0,0,1,4.6-2.65l1.75,3a2.65,2.65,0,0,1-1,3.62A2.55,2.55,0,0,1,148,59.26Z" transform="translate(-4.95 -16.85)"/><path class="cls-32" d="M155.23,52a2.64,2.64,0,0,1-1.32-.35l-3-1.76a2.65,2.65,0,1,1,2.65-4.59l3,1.75A2.65,2.65,0,0,1,155.23,52Z" transform="translate(-4.95 -16.85)"/><path class="cls-32" d="M74.55,340.41a19,19,0,1,1,19-19A19,19,0,0,1,74.55,340.41Zm0-32.74a13.72,13.72,0,1,0,13.72,13.72A13.73,13.73,0,0,0,74.55,307.67Z" transform="translate(-4.95 -16.85)"/><path class="cls-32" d="M74.55,330.09a8.7,8.7,0,1,1,8.7-8.7A8.71,8.71,0,0,1,74.55,330.09Zm0-12.1a3.4,3.4,0,1,0,3.4,3.4A3.4,3.4,0,0,0,74.55,318Z" transform="translate(-4.95 -16.85)"/><path class="cls-32" d="M94.43,324H90.92a2.65,2.65,0,1,1,0-5.3h3.51a2.65,2.65,0,1,1,0,5.3Z" transform="translate(-4.95 -16.85)"/><path class="cls-32" d="M88.73,315.86a2.65,2.65,0,0,1-1.33-4.95l3-1.76a2.65,2.65,0,1,1,2.65,4.59l-3,1.76A2.65,2.65,0,0,1,88.73,315.86Z" transform="translate(-4.95 -16.85)"/><path class="cls-32" d="M82.73,309.86a2.64,2.64,0,0,1-2.29-4l1.75-3.05a2.66,2.66,0,1,1,4.6,2.66l-1.76,3A2.64,2.64,0,0,1,82.73,309.86Z" transform="translate(-4.95 -16.85)"/><path class="cls-32" d="M74.55,307.67A2.65,2.65,0,0,1,71.9,305v-3.51a2.65,2.65,0,1,1,5.3,0V305A2.65,2.65,0,0,1,74.55,307.67Z" transform="translate(-4.95 -16.85)"/><path class="cls-32" d="M66.36,309.86a2.64,2.64,0,0,1-2.29-1.32l-1.76-3a2.65,2.65,0,1,1,4.59-2.66l1.76,3.05a2.64,2.64,0,0,1-2.3,4Z" transform="translate(-4.95 -16.85)"/><path class="cls-32" d="M60.37,315.86A2.69,2.69,0,0,1,59,315.5l-3-1.76a2.65,2.65,0,0,1,2.65-4.59l3.05,1.76a2.65,2.65,0,0,1-1.33,4.95Z" transform="translate(-4.95 -16.85)"/><path class="cls-32" d="M58.18,324H54.66a2.65,2.65,0,1,1,0-5.3h3.52a2.65,2.65,0,0,1,0,5.3Z" transform="translate(-4.95 -16.85)"/><path class="cls-32" d="M57.33,334A2.65,2.65,0,0,1,56,329l3-1.76a2.65,2.65,0,1,1,2.66,4.59l-3.05,1.76A2.61,2.61,0,0,1,57.33,334Z" transform="translate(-4.95 -16.85)"/><path class="cls-32" d="M64.6,341.26a2.65,2.65,0,0,1-2.29-4l1.76-3a2.65,2.65,0,0,1,4.59,2.65l-1.76,3.05A2.64,2.64,0,0,1,64.6,341.26Z" transform="translate(-4.95 -16.85)"/><path class="cls-32" d="M74.55,343.92a2.64,2.64,0,0,1-2.65-2.65v-3.51a2.65,2.65,0,0,1,5.3,0v3.51A2.65,2.65,0,0,1,74.55,343.92Z" transform="translate(-4.95 -16.85)"/><path class="cls-32" d="M84.49,341.26a2.65,2.65,0,0,1-2.3-1.32l-1.75-3.05A2.65,2.65,0,1,1,85,334.24l1.76,3a2.65,2.65,0,0,1-2.3,4Z" transform="translate(-4.95 -16.85)"/><path class="cls-32" d="M91.77,334a2.67,2.67,0,0,1-1.33-.35l-3-1.76a2.65,2.65,0,0,1,2.65-4.59l3,1.76A2.65,2.65,0,0,1,91.77,334Z" transform="translate(-4.95 -16.85)"/><path class="cls-4" d="M395.48,78.8a21.71,21.71,0,1,1,21.71-21.71A21.73,21.73,0,0,1,395.48,78.8Zm0-40.71a19,19,0,1,0,19,19A19,19,0,0,0,395.48,38.09Z" transform="translate(-4.95 -16.85)"/><path class="cls-4" d="M395.48,78.8c-6.88,0-12.27-9.54-12.27-21.71s5.39-21.71,12.27-21.71,12.26,9.53,12.26,21.71S402.35,78.8,395.48,78.8Zm0-40.71c-5.18,0-9.56,8.7-9.56,19s4.38,19,9.56,19,9.55-8.69,9.55-19S400.65,38.09,395.48,38.09Z" transform="translate(-4.95 -16.85)"/><path class="cls-4" d="M395.48,49.3a21.62,21.62,0,0,1-15-6,1.35,1.35,0,0,1,1.87-2,19,19,0,0,0,26.19,0,1.35,1.35,0,1,1,1.87,2A21.6,21.6,0,0,1,395.48,49.3Z" transform="translate(-4.95 -16.85)"/><path class="cls-4" d="M409.5,73.19a1.34,1.34,0,0,1-.93-.37,19,19,0,0,0-26.19,0,1.36,1.36,0,0,1-1.87-2,21.72,21.72,0,0,1,29.93,0,1.36,1.36,0,0,1-.94,2.34Z" transform="translate(-4.95 -16.85)"/><path class="cls-4" d="M415.83,58.44H375.12a1.36,1.36,0,0,1,0-2.71h40.71a1.36,1.36,0,1,1,0,2.71Z" transform="translate(-4.95 -16.85)"/><path class="cls-4" d="M395.48,78.8a1.36,1.36,0,0,1-1.36-1.36V36.73a1.36,1.36,0,0,1,2.71,0V77.44A1.35,1.35,0,0,1,395.48,78.8Z" transform="translate(-4.95 -16.85)"/><path class="cls-33" d="M172.73,328.32h84.66c-7.74-18.14-8.63-37.2-6.13-56.92a261.27,261.27,0,0,0-72.4,0C181.36,291.12,180.46,310.18,172.73,328.32Z" transform="translate(-4.95 -16.85)"/><path class="cls-34" d="M157,304.72H263.21A15.32,15.32,0,0,1,278.54,320v2.33a0,0,0,0,1,0,0H141.68a0,0,0,0,1,0,0V320A15.32,15.32,0,0,1,157,304.72Z"/><rect class="cls-35" x="62.21" y="66.32" width="295.79" height="203.08" rx="11.68"/><path class="cls-36" d="M67.16,258.88v17.78a9.59,9.59,0,0,0,9.6,9.59h276.6a9.59,9.59,0,0,0,9.59-9.59V258.88Z" transform="translate(-4.95 -16.85)"/><path class="cls-37" d="M205.31,258.88H67.16v17.78a9.59,9.59,0,0,0,9.6,9.59H211.83C209.9,278.06,207.7,268.83,205.31,258.88Z" transform="translate(-4.95 -16.85)"/><rect class="cls-4" x="73.16" y="79.99" width="276.36" height="156.28"/><rect class="cls-38" x="82.32" y="99.48" width="26.69" height="103.07"/><rect class="cls-4" x="84.76" y="103.68" width="9.31" height="9.31"/><rect class="cls-4" x="97.26" y="103.68" width="9.31" height="9.31"/><rect class="cls-4" x="84.76" y="117.2" width="9.31" height="9.31"/><rect class="cls-4" x="97.26" y="117.2" width="9.31" height="9.31"/><rect class="cls-4" x="84.76" y="130.73" width="9.31" height="9.31"/><rect class="cls-4" x="97.26" y="130.73" width="9.31" height="9.31"/><rect class="cls-4" x="84.76" y="144.25" width="9.31" height="9.31"/><rect class="cls-4" x="97.26" y="144.25" width="9.31" height="9.31"/><rect class="cls-4" x="84.76" y="157.78" width="9.31" height="9.31"/><rect class="cls-4" x="97.26" y="157.78" width="9.31" height="9.31"/><rect class="cls-4" x="84.76" y="171.31" width="9.31" height="9.31"/><rect class="cls-4" x="97.26" y="171.31" width="9.31" height="9.31"/><rect class="cls-4" x="84.76" y="184.83" width="9.31" height="9.31"/><rect class="cls-4" x="97.26" y="184.83" width="9.31" height="9.31"/><rect class="cls-38" x="296.21" y="158.77" width="46.5" height="60.6"/><rect class="cls-38" x="123.57" y="112.06" width="75.36" height="107.68"/><rect class="cls-4" x="125.49" y="117.27" width="31.94" height="21.04"/><path class="cls-4" d="M130.44,134.12l31.95,21Z" transform="translate(-4.95 -16.85)"/><rect class="cls-39" x="146.07" y="125.52" width="0.69" height="38.25" transform="translate(-59.87 170.48) rotate(-56.62)"/><path class="cls-4" d="M162.39,134.12l-31.95,21Z" transform="translate(-4.95 -16.85)"/><rect class="cls-39" x="127.29" y="144.3" width="38.25" height="0.69" transform="translate(-60.38 87.57) rotate(-33.38)"/><rect class="cls-4" x="126.68" y="176.89" width="66.96" height="12.19"/><path class="cls-4" d="M131.63,193.75l67,12.18Z" transform="translate(-4.95 -16.85)"/><rect class="cls-39" x="164.77" y="165.81" width="0.69" height="68.06" transform="translate(-66.01 309.65) rotate(-79.69)"/><path class="cls-4" d="M198.59,193.75l-67,12.18Z" transform="translate(-4.95 -16.85)"/><rect class="cls-39" x="131.08" y="199.49" width="68.06" height="0.69" transform="translate(-38.08 15.96) rotate(-10.32)"/><rect class="cls-4" x="163.82" y="117.27" width="31.94" height="21.04"/><path class="cls-4" d="M168.77,134.12l31.94,21Z" transform="translate(-4.95 -16.85)"/><rect class="cls-39" x="184.4" y="125.52" width="0.69" height="38.25" transform="translate(-42.63 202.48) rotate(-56.62)"/><path class="cls-4" d="M200.71,134.12l-31.94,21Z" transform="translate(-4.95 -16.85)"/><rect class="cls-39" x="165.62" y="144.3" width="38.25" height="0.69" transform="translate(-54.06 108.65) rotate(-33.38)"/><rect class="cls-4" x="125.56" y="141.01" width="29.73" height="1.33"/><rect class="cls-4" x="125.56" y="144.06" width="15.08" height="1.33"/><rect class="cls-4" x="142.75" y="144.06" width="15.08" height="1.33"/><rect class="cls-4" x="153.98" y="155.3" width="29.73" height="1.33"/><rect class="cls-4" x="153.98" y="158.35" width="15.08" height="1.33"/><rect class="cls-4" x="171.17" y="158.35" width="15.08" height="1.33"/><rect class="cls-4" x="153.98" y="165.36" width="29.73" height="1.33"/><rect class="cls-4" x="153.98" y="162.31" width="8.18" height="1.33"/><rect class="cls-4" x="164.27" y="162.31" width="21.98" height="1.33"/><rect class="cls-4" x="164.11" y="141.01" width="14.34" height="1.33"/><rect class="cls-4" x="179.99" y="141.01" width="14.34" height="1.33"/><rect class="cls-4" x="164.11" y="144.06" width="8.18" height="1.33"/><rect class="cls-4" x="174.41" y="144.06" width="21.98" height="1.33"/><path class="cls-4" d="M155.66,177.85a9,9,0,1,0-9,9A9,9,0,0,0,155.66,177.85Z" transform="translate(-4.95 -16.85)"/><rect class="cls-4" x="126.33" y="196.22" width="48.87" height="0.81"/><path class="cls-4" d="M163.68,213.48a2.9,2.9,0,1,0-2.9,2.89A2.89,2.89,0,0,0,163.68,213.48Z" transform="translate(-4.95 -16.85)"/><rect class="cls-4" x="145.85" y="205.46" width="28.82" height="7.37" rx="2.28"/><rect class="cls-38" x="214.34" y="111.99" width="75.36" height="107.68"/><rect class="cls-4" x="221.52" y="140.65" width="36.83" height="24.27" transform="translate(387.77 -104.01) rotate(90)"/><path class="cls-4" d="M252.07,134.37,227.8,171.2Z" transform="translate(-4.95 -16.85)"/><rect class="cls-39" x="217.88" y="152.44" width="44.11" height="0.69" transform="translate(-24.59 252.27) rotate(-56.63)"/><path class="cls-4" d="M252.07,171.2,227.8,134.37Z" transform="translate(-4.95 -16.85)"/><rect class="cls-39" x="239.59" y="130.73" width="0.69" height="44.11" transform="translate(-49.43 140.35) rotate(-33.38)"/><rect class="cls-4" x="220.31" y="164.73" width="32.22" height="15.1"/><rect class="cls-4" x="251.88" y="119.36" width="24" height="1.33"/><rect class="cls-4" x="277.42" y="119.36" width="4.68" height="1.33"/><rect class="cls-4" x="251.88" y="125.84" width="10.2" height="1.33"/><rect class="cls-4" x="263.61" y="125.84" width="18.48" height="1.33"/><rect class="cls-4" x="259.08" y="152.87" width="18.48" height="1.33"/><rect class="cls-4" x="231.79" y="204.75" width="33" height="1.33"/><rect class="cls-4" x="219.27" y="210.04" width="33" height="1.33"/><rect class="cls-4" x="256" y="210.04" width="28.35" height="1.33"/><rect class="cls-4" x="251.88" y="122.41" width="17.84" height="1.33"/><rect class="cls-4" x="271.84" y="122.41" width="12.32" height="1.33"/><circle class="cls-4" cx="267.84" cy="140.99" r="8.99"/><path class="cls-4" d="M236.32,211.13a4.3,4.3,0,1,0-4.29,4.3A4.3,4.3,0,0,0,236.32,211.13Z" transform="translate(-4.95 -16.85)"/><path class="cls-4" d="M256.49,211.13a4.3,4.3,0,1,0-4.29,4.3A4.3,4.3,0,0,0,256.49,211.13Z" transform="translate(-4.95 -16.85)"/><path class="cls-4" d="M276.67,211.13a4.3,4.3,0,1,0-4.3,4.3A4.31,4.31,0,0,0,276.67,211.13Z" transform="translate(-4.95 -16.85)"/><polygon class="cls-38" points="241.03 172.33 233.85 168.18 233.85 176.47 241.03 172.33"/><rect class="cls-4" x="257.91" y="167.45" width="25.27" height="3.98"/><rect class="cls-4" x="257.91" y="173.77" width="25.27" height="3.98"/><path class="cls-38" d="M264,187h.73v.21h-.95v-1.7H264Z" transform="translate(-4.95 -16.85)"/><path class="cls-38" d="M266.2,187a.88.88,0,0,1-1.25,0,.88.88,0,0,1,0-1.25.91.91,0,0,1,1.25,0,.88.88,0,0,1,0,1.25Zm-1.09-.15a.6.6,0,0,0,.46.19.61.61,0,0,0,.47-.19.63.63,0,0,0,.19-.47.65.65,0,0,0-.66-.66.6.6,0,0,0-.46.19.61.61,0,0,0-.19.47A.63.63,0,0,0,265.11,186.8Z" transform="translate(-4.95 -16.85)"/><path class="cls-38" d="M267.55,186.51v-.21h.77v.88h-.21v-.25a.72.72,0,0,1-.25.21.84.84,0,0,1-.35.07.79.79,0,0,1-.62-.26.83.83,0,0,1-.25-.62.85.85,0,0,1,.25-.63.82.82,0,0,1,.63-.25.84.84,0,0,1,.51.16.72.72,0,0,1,.29.42h-.24a.49.49,0,0,0-.21-.26.62.62,0,0,0-.35-.1.63.63,0,0,0-.48.19.64.64,0,0,0-.18.47.65.65,0,0,0,.66.67.6.6,0,0,0,.4-.13.4.4,0,0,0,.18-.34h0v0Z" transform="translate(-4.95 -16.85)"/><path class="cls-38" d="M268.65,185.48h.23v1.7h-.23Z" transform="translate(-4.95 -16.85)"/><path class="cls-38" d="M270.2,185.48h.22v1.7h-.18l-.77-1.26v1.26h-.23v-1.7h.18l.78,1.26Z" transform="translate(-4.95 -16.85)"/><path class="cls-38" d="M264.23,191.62a.52.52,0,0,1,.38.15.51.51,0,0,1,.15.37.54.54,0,0,1-.15.38.52.52,0,0,1-.38.15h-.39v.65h-.22v-1.7h.61Zm0,.84a.29.29,0,0,0,.22-.09.32.32,0,0,0,.09-.23.31.31,0,0,0-.09-.22.29.29,0,0,0-.22-.09h-.39v.63Z" transform="translate(-4.95 -16.85)"/><path class="cls-38" d="M266,193.32l-.13-.38h-.76l-.14.38h-.24l.63-1.7h.25l.63,1.7Zm-.82-.6h.61l-.3-.84Z" transform="translate(-4.95 -16.85)"/><path class="cls-38" d="M266.92,193.35a.65.65,0,0,1-.43-.14.49.49,0,0,1-.18-.4h.23a.3.3,0,0,0,.1.24.47.47,0,0,0,.28.08.43.43,0,0,0,.24-.07.23.23,0,0,0,.09-.19.2.2,0,0,0-.09-.17,1.25,1.25,0,0,0-.26-.13h0l-.13-.05-.11,0a.23.23,0,0,1-.11-.07.3.3,0,0,1-.08-.08.75.75,0,0,1-.07-.12.61.61,0,0,1,0-.14.42.42,0,0,1,.15-.34.59.59,0,0,1,.37-.12.59.59,0,0,1,.39.13.47.47,0,0,1,.16.37h-.23a.26.26,0,0,0-.09-.21.34.34,0,0,0-.23-.08.38.38,0,0,0-.22.07.22.22,0,0,0-.08.18.25.25,0,0,0,.08.18,1.54,1.54,0,0,0,.26.13,1.68,1.68,0,0,1,.34.15.44.44,0,0,1,.22.36.43.43,0,0,1-.17.35A.59.59,0,0,1,266.92,193.35Z" transform="translate(-4.95 -16.85)"/><path class="cls-38" d="M268.25,193.35a.67.67,0,0,1-.43-.14.48.48,0,0,1-.17-.4h.22a.33.33,0,0,0,.1.24.47.47,0,0,0,.28.08.43.43,0,0,0,.24-.07.23.23,0,0,0,.09-.19.2.2,0,0,0-.09-.17.88.88,0,0,0-.26-.13h0l-.12-.05-.12,0a.3.3,0,0,1-.11-.07l-.08-.08a.34.34,0,0,1-.06-.12.59.59,0,0,1,0-.14.42.42,0,0,1,.15-.34.61.61,0,0,1,.37-.12.56.56,0,0,1,.39.13.44.44,0,0,1,.16.37h-.23a.25.25,0,0,0-.08-.21.36.36,0,0,0-.24-.08.35.35,0,0,0-.21.07.2.2,0,0,0-.09.18.23.23,0,0,0,.09.18,1.38,1.38,0,0,0,.25.13,1.45,1.45,0,0,1,.34.15.4.4,0,0,1,.22.36.45.45,0,0,1-.16.35A.6.6,0,0,1,268.25,193.35Z" transform="translate(-4.95 -16.85)"/><path class="cls-38" d="M270.72,191.62h.22l-.51,1.7h-.28l-.25-.84-.25.84h-.27l-.52-1.7h.23l.43,1.44.28-.92-.16-.52h.21l.43,1.44Z" transform="translate(-4.95 -16.85)"/><path class="cls-38" d="M272.48,193.09a.88.88,0,0,1-1.25,0,.88.88,0,0,1,1.25-1.25.88.88,0,0,1,0,1.25Zm-1.09-.15a.69.69,0,1,0-.19-.47A.64.64,0,0,0,271.39,192.94Z" transform="translate(-4.95 -16.85)"/><path class="cls-38" d="M274.11,193.32l-.55-.65h-.33v.65H273v-1.7h.62a.51.51,0,0,1,.37.15.49.49,0,0,1,.16.37.55.55,0,0,1-.1.31.55.55,0,0,1-.26.19l.59.68Zm-.88-1.49v.63h.4a.29.29,0,0,0,.21-.09.32.32,0,0,0,.09-.23.31.31,0,0,0-.09-.22.29.29,0,0,0-.21-.09Z" transform="translate(-4.95 -16.85)"/><path class="cls-38" d="M275.25,191.62a.78.78,0,0,1,.58.24.89.89,0,0,1,.23.61.86.86,0,0,1-.23.6.79.79,0,0,1-.58.25h-.71v-1.7h.71Zm0,1.48a.57.57,0,0,0,.43-.18.64.64,0,0,0,.16-.45.66.66,0,0,0-.16-.46.57.57,0,0,0-.43-.18h-.48v1.27Z" transform="translate(-4.95 -16.85)"/><path class="cls-40" d="M199.26,194.06a.69.69,0,0,1,0-1.38,18.28,18.28,0,0,0,5.23-.86.69.69,0,0,1,.87.43.7.7,0,0,1-.43.88A19.59,19.59,0,0,1,199.26,194.06Zm9.75-4.13a.6.6,0,0,1-.31-.08.69.69,0,0,1-.3-.93,4.55,4.55,0,0,0,.5-2.13c0-.76-.05-1.71-.14-2.92a.69.69,0,1,1,1.38-.1c.09,1.24.14,2.23.14,3a6,6,0,0,1-.65,2.77A.69.69,0,0,1,209,189.93ZM208.93,179a.68.68,0,0,1-.68-.62c-.17-1.73-.36-3.58-.53-5.51a.69.69,0,1,1,1.38-.12c.17,1.92.35,3.77.52,5.49a.69.69,0,0,1-.62.76Zm-.9-11a.69.69,0,0,1-.69-.65c-.1-1.82-.14-3.54-.14-5.13v-.43a.69.69,0,1,1,1.38,0v.43c0,1.57,0,3.27.14,5.06a.7.7,0,0,1-.66.72Zm.11-11h-.06a.69.69,0,0,1-.62-.75,37.38,37.38,0,0,1,.91-5.55.69.69,0,0,1,1.34.34,35.82,35.82,0,0,0-.88,5.34A.68.68,0,0,1,208.14,157Zm2.91-10.56a.64.64,0,0,1-.35-.1.69.69,0,0,1-.25-.94,11.35,11.35,0,0,1,4.06-4.16.69.69,0,0,1,.69,1.2,9.87,9.87,0,0,0-3.56,3.66A.69.69,0,0,1,211.05,146.4Zm9.08-5.26a.7.7,0,0,1,0-1.39h.24a.69.69,0,0,1,0,1.38h-.23Z" transform="translate(-4.95 -16.85)"/><circle class="cls-40" cx="194.3" cy="176.8" r="2.69"/><polygon class="cls-40" points="218.59 123.84 212.32 120.22 212.32 127.46 218.59 123.84"/><path class="cls-40" d="M268,119.4a.65.65,0,0,1-.45-.17,29,29,0,0,0-4.39-3.12.69.69,0,0,1,.7-1.19,30.54,30.54,0,0,1,4.6,3.28.69.69,0,0,1,.06,1A.68.68,0,0,1,268,119.4Zm-108.89-1.58a.67.67,0,0,1-.57-.32.69.69,0,0,1,.19-1c.83-.54,1.71-1.07,2.64-1.58a.68.68,0,0,1,.94.27.7.7,0,0,1-.27.94c-.9.49-1.76,1-2.55,1.52A.68.68,0,0,1,159.06,117.82Zm7.56-4a.68.68,0,0,1-.63-.42.69.69,0,0,1,.36-.91c1.63-.69,3.38-1.36,5.21-2a.69.69,0,1,1,.44,1.3c-1.79.61-3.51,1.26-5.11,1.94A.66.66,0,0,1,166.62,113.86Zm91.93-.16a.67.67,0,0,1-.28-.06c-1.58-.7-3.3-1.37-5.09-2a.69.69,0,0,1-.43-.87.7.7,0,0,1,.88-.43c1.83.63,3.58,1.31,5.2,2a.7.7,0,0,1,.35.91A.71.71,0,0,1,258.55,113.7Zm-81.49-3.4a.69.69,0,0,1-.18-1.36c1.74-.47,3.55-.92,5.4-1.32a.69.69,0,0,1,.3,1.35c-1.83.4-3.62.84-5.33,1.3Zm71.06-.23a.55.55,0,0,1-.18,0c-1.7-.46-3.5-.9-5.33-1.29a.69.69,0,0,1,.29-1.35c1.86.4,3.68.84,5.4,1.31a.69.69,0,0,1-.18,1.35Zm-60.27-2.13a.7.7,0,0,1-.12-1.38c1.79-.3,3.64-.58,5.49-.82a.69.69,0,0,1,.18,1.37c-1.83.24-3.66.51-5.43.82Zm49.48-.19h-.11c-1.78-.3-3.61-.56-5.44-.79a.69.69,0,0,1,.17-1.37c1.85.23,3.7.5,5.5.79a.69.69,0,0,1,.56.8A.68.68,0,0,1,237.33,107.75Zm-38.53-1.24a.69.69,0,0,1-.06-1.38c1.81-.16,3.67-.3,5.53-.4a.69.69,0,1,1,.07,1.38c-1.83.1-3.68.23-5.48.4Zm27.57-.12h-.05c-1.81-.15-3.65-.27-5.49-.36a.69.69,0,0,1-.66-.72.72.72,0,0,1,.73-.66c1.85.09,3.71.21,5.53.37a.69.69,0,0,1-.06,1.37Zm-16.55-.49a.7.7,0,0,1,0-1.39l1.68,0c1.3,0,2.59,0,3.86,0a.69.69,0,0,1,0,1.38h0c-1.27,0-2.55,0-3.83,0-.56,0-1.12,0-1.67,0Z" transform="translate(-4.95 -16.85)"/><path class="cls-41" d="M335.73,159.13c-1.06-2.89,0-4.22-.63-5.76a21.71,21.71,0,0,0-1.66-2.76c-.39-.64-.52-1.26-.72-1.11-1.11.83.85,3.42.29,3.86-.34.27-5.05-6.48-5.59-6.13-1,.67,1.81,3.92,1.79,4.34s-3.68-3.83-4.13-3.31c-.9,1.05,3.24,4.07,3,4.52s-3.28-2.47-3.69-2.21c-1.13.73,2.61,3.25,2.56,3.58s-2.58-1.68-2.93-1.19c-.57.8,1.94,2.29,2.56,3s.74,2.13,2.8,3.69c.78.59,2.07.81,3.39,2.12C333.26,162.24,335.93,159.69,335.73,159.13Z" transform="translate(-4.95 -16.85)"/><path class="cls-42" d="M331.73,157.25h0A.26.26,0,0,0,332,157a4.44,4.44,0,0,1,.79-3.12.27.27,0,0,0-.07-.36.26.26,0,0,0-.36.08,4.89,4.89,0,0,0-.88,3.43A.26.26,0,0,0,331.73,157.25Z" transform="translate(-4.95 -16.85)"/><path class="cls-41" d="M371.38,173.11c-5.42-2-19.4,3.77-22.25,2.07s-12.64-14.88-13.51-16.36c-1.12-1.89-4.6,1.05-3.92,2.09,1,1.47,6,19.72,13.28,22.65,6.06,2.45,23.21-1.27,24.64-2.77S374.12,174.12,371.38,173.11Z" transform="translate(-4.95 -16.85)"/><rect class="cls-38" x="286.5" y="127.6" width="46.58" height="38.9" transform="translate(31.09 -76.33) rotate(11.64)"/><polygon class="cls-43" points="422.63 345.96 412.92 348.76 317.35 209.45 327.06 206.65 422.63 345.96"/><rect class="cls-44" x="364.62" y="331.83" width="32.46" height="2.62" transform="translate(-82.39 101.8) rotate(-16.1)"/><rect class="cls-44" x="345.16" y="303.44" width="32.46" height="2.62" transform="translate(-75.28 95.3) rotate(-16.1)"/><rect class="cls-44" x="325.69" y="275.05" width="32.46" height="2.62" transform="matrix(0.96, -0.28, 0.28, 0.96, -68.17, 88.79)"/><rect class="cls-44" x="306.23" y="246.67" width="32.46" height="2.62" transform="translate(-61.07 82.28) rotate(-16.1)"/><rect class="cls-44" x="384.09" y="360.21" width="32.46" height="2.62" transform="translate(-89.49 108.31) rotate(-16.1)"/><polygon class="cls-44" points="420.95 346.44 411.24 349.24 315.67 209.94 325.38 207.14 420.95 346.44"/><path class="cls-41" d="M371.51,148.49c-6-3.68-17.25,11.69-11.72,15.3C366.16,168,381.05,154.3,371.51,148.49Z" transform="translate(-4.95 -16.85)"/><path class="cls-41" d="M332.85,269c0,1.95.49,5,1,5.81s-4.32,4.47-5.1-.31a34.64,34.64,0,0,0-2.23-6.06C325.92,267,332.85,269,332.85,269Z" transform="translate(-4.95 -16.85)"/><path class="cls-45" d="M363.25,209.24c.08.35,7.75,12.42,7.61,16.43-.11,3.16-2.3,8.22-2.3,8.22l1.87,24.75s5.94,6.15,6.62,8.23c2.11,6.41,1.55,15.71,2.31,22.69.19,1.74-6,2-6.7.42-2.91-7-12.42-21.53-15.9-30.3-2.48-6.26-7.85-25.77-7.85-25.77L347.11,211Z" transform="translate(-4.95 -16.85)"/><path class="cls-41" d="M378.64,290a18.61,18.61,0,0,0,.74,3.8c.34.9-4.32,4.47-5.1-.31a18.67,18.67,0,0,0-1-3.18C372.63,288.85,378.48,288.39,378.64,290Z" transform="translate(-4.95 -16.85)"/><path class="cls-46" d="M379.38,293.76c.6.37,3,4.35,2.57,5.4s-8,2.07-10.66,2l-7.53-.26c-.7,0-2.47-.46-2-1.47s5.58-1.42,6.65-1.76c1.33-.43,4.8-3.79,5.66-4.18.59-.26,1.76,1.6,2.75,1.67C377.61,295.21,378.93,293.48,379.38,293.76Z" transform="translate(-4.95 -16.85)"/><path class="cls-46" d="M361.57,209.18c.07.35,2.67,10.87,2.53,14.87-.11,3.17-3.57,7-5.21,7.84-4.88,2.34-7.14.82-10,2-4.11,1.74-16.77,6.35-18.15,7.89-.39.44,3.58,3.34,4.07,6.41,1.47,9.23-2,15.78-1.31,22.34-1,1.23-6,2-6.51.49-3.53-11.05-13.11-29.73-10.48-36.76,2.2-5.89,33.08-24.72,33.08-24.72Z" transform="translate(-4.95 -16.85)"/><path class="cls-41" d="M371.88,159.35c-2,5.17-2.47,8.29-2,10.86.52,2.94-10.3.09-10-1.69a39.33,39.33,0,0,1,2.78-8.78Z" transform="translate(-4.95 -16.85)"/><path class="cls-41" d="M346.53,172c-6.48,2.71-13.65,7.05-16.19,6.35-3.76-1-15.15-8.24-17-10.73-1.54-2.07-4.08,2-3.4,3.27s9.95,14.5,17.29,16.75c5.26,1.61,16.74-2.31,23.26-5.45C353.07,180.92,349.64,170.67,346.53,172Z" transform="translate(-4.95 -16.85)"/><path class="cls-46" d="M333.9,274.81c-.45-.28-1.77,1.45-2.59,1.39-1-.08-2.16-1.94-2.75-1.67-.85.38-4.26,3.67-5.61,4.15.67,1.14,1.31,2.3,1.93,3.48l.93,0c2.69.09,10.23-.92,10.66-2S334.5,275.18,333.9,274.81Z" transform="translate(-4.95 -16.85)"/><path class="cls-47" d="M345.57,184.62a5.29,5.29,0,0,1-1.31.16c-.07-3.71-2.61-10.59-2.61-10.59a49.16,49.16,0,0,1,7.63-4.11,28.43,28.43,0,0,1,10.07-1.83c.88,0,2.64,1,7.21,1.71,1.92.3,2.95-.19,3.45.06,2.6,1.3,5.26,3.82,5.66,5.54,1.82,8-6.58,28.32-6.78,29.62-.44,2.93.55,13.3-.07,13.56-1.67.71-18.38-2.2-25.58-5.4-.79-.36,2.88-8.11,3.58-10.71C347.12,201.52,346.06,192.65,345.57,184.62Z" transform="translate(-4.95 -16.85)"/><path class="cls-46" d="M363.15,147.7c1-2.74,10-2.27,14,1.57,3.38,3.27,2,9.58-2.38,13.15s-3.86,4.78-5,4.63-2.39-4.37-2.53-6.42,1.67-2.62,1.39-3.68-1.3-1.83-1.64-1.31-1,3-1.34,2.87-.42-.37-.71-1.24S362.1,150.61,363.15,147.7Z" transform="translate(-4.95 -16.85)"/><path class="cls-41" d="M313.84,168.72c-1.43-2.72-.59-4.18-1.39-5.62a19.32,19.32,0,0,0-2-2.51c-.47-.59-.68-1.18-.86-1-1,1,1.3,3.26.81,3.77-.31.32-5.88-5.74-6.37-5.32-.92.81,2.45,3.88,2.26,4.23s-4.06-3.47-4.44-2.89c-.75,1.16,3.49,4,3.35,4.43s-3.31-2.37-3.68-2.06c-1,.88,2.74,2.92,2.6,3.53-.07.32-2.08-2.18-2.36-1.64-.46.86,1.43,2.63,2.14,3.27a15.55,15.55,0,0,0,3.57,2.71,25.28,25.28,0,0,1,3.86,2.13C311.82,172.13,314.12,169.25,313.84,168.72Z" transform="translate(-4.95 -16.85)"/><path class="cls-48" d="M346.08,184.84h.11a47.5,47.5,0,0,0,5.49-1.93.36.36,0,0,0,.17-.47.35.35,0,0,0-.46-.17,45.16,45.16,0,0,1-5.39,1.89.34.34,0,0,0-.24.43A.33.33,0,0,0,346.08,184.84Z" transform="translate(-4.95 -16.85)"/><path class="cls-42" d="M338.16,176.12a.27.27,0,0,0,.12,0l3.09-1.48.4-.19a.25.25,0,0,0,.12-.34.26.26,0,0,0-.35-.12l-.39.19-3.09,1.48a.26.26,0,0,0-.13.34A.28.28,0,0,0,338.16,176.12Z" transform="translate(-4.95 -16.85)"/><polygon class="cls-43" points="391.81 354.85 382.1 357.65 286.53 218.35 296.24 215.54 391.81 354.85"/><polygon class="cls-44" points="390.13 355.34 380.41 358.14 284.85 218.83 294.56 216.03 390.13 355.34"/><path class="cls-49" d="M320.2,146a12.61,12.61,0,1,1-10-14.88A12.68,12.68,0,0,1,320.2,146Z" transform="translate(-4.95 -16.85)"/><path class="cls-4" d="M311.56,140.65c-.47,2.51-2.44,3.92-3.82,3.66s-2.69-2.28-2.22-4.78,1.91-3.57,3.74-3.23S312,138.15,311.56,140.65Z" transform="translate(-4.95 -16.85)"/><path class="cls-4" d="M311.77,147.35c-.72-1.82-3.25-1.57-3.17-2s.46-1.71.54-2.14-.66-.59-1.06-.67-1.15-.19-1.23.24-.19,1.73-.28,2.18-2.35-.7-3.68.73a5.13,5.13,0,0,0-1.27,3.37l5.05,1,5.05,1A5.16,5.16,0,0,0,311.77,147.35Z" transform="translate(-4.95 -16.85)"/></g></g></g></g></svg>