<svg width="501" height="295" viewBox="0 0 501 295" fill="none" xmlns="http://www.w3.org/2000/svg">
<circle cx="249" cy="91" r="91" fill="#D4E8F3"/>
<path d="M184.227 130.781V62.6864C184.227 58.7882 185.776 55.928 188.532 53.1716C191.288 50.4152 195.027 48.8667 198.925 48.8667H298.871C302.77 48.8667 306.508 50.4152 309.264 53.1716C312.021 55.928 313.569 58.7882 313.569 62.6864V130.781H184.227ZM184.227 130.781L173.351 141.719C172.733 143.904 172.63 147.081 173.05 149.313C173.47 151.545 174.402 153.649 175.771 155.461C177.141 157.272 178.912 158.741 180.946 159.753C182.979 160.765 185.219 161.292 187.49 161.293H310.306C312.578 161.292 314.818 160.765 316.851 159.753C318.884 158.741 320.655 157.272 322.025 155.461C323.395 153.649 324.326 151.545 324.746 149.313C325.167 147.081 325.064 143.904 324.446 141.719L313.569 130.781" fill="white"/>
<path d="M184.227 130.781V62.6864C184.227 58.7882 185.776 55.928 188.532 53.1716C191.288 50.4152 195.027 48.8667 198.925 48.8667H298.871C302.77 48.8667 306.508 50.4152 309.264 53.1716C312.021 55.928 313.569 58.7882 313.569 62.6864V130.781M184.227 130.781H313.569M184.227 130.781L173.351 141.719C172.733 143.904 172.63 147.081 173.05 149.313C173.47 151.545 174.402 153.649 175.771 155.461C177.141 157.272 178.912 158.741 180.946 159.753C182.979 160.765 185.219 161.292 187.49 161.293H310.306C312.578 161.292 314.818 160.765 316.851 159.753C318.884 158.741 320.655 157.272 322.025 155.461C323.395 153.649 324.326 151.545 324.746 149.313C325.167 147.081 325.064 143.904 324.446 141.719L313.569 130.781" stroke="#2A6092" stroke-width="5" stroke-linecap="round"/>
<path d="M241.549 153.327H256.247Z" fill="white"/>
<path d="M241.549 153.327H256.247" stroke="#B1DCF3" stroke-width="7" stroke-linecap="round" stroke-linejoin="round"/>
<path d="M189.853 143.303H307.701" stroke="#2A6092" stroke-width="5" stroke-linecap="round"/>
<g clip-path="url(#clip0)">
<path d="M199.076 19.8818H298.468C299.614 19.8818 300.713 20.3371 301.524 21.1475C302.334 21.958 302.789 23.0571 302.789 24.2032V123.595C302.789 124.741 302.334 125.84 301.524 126.651C300.713 127.461 299.614 127.916 298.468 127.916H199.076C197.93 127.916 196.831 127.461 196.021 126.651C195.21 125.84 194.755 124.741 194.755 123.595V24.2032C194.755 23.0571 195.21 21.958 196.021 21.1475C196.831 20.3371 197.93 19.8818 199.076 19.8818V19.8818Z" fill="#EBEDEE"/>
<path d="M205.558 41.4888H291.986V117.113H205.558V41.4888Z" fill="white"/>
<path d="M208.799 27.4443C209.659 27.4443 210.483 27.7858 211.091 28.3936C211.699 29.0014 212.04 29.8258 212.04 30.6854C212.04 31.5449 211.699 32.3693 211.091 32.9771C210.483 33.5849 209.659 33.9264 208.799 33.9264C207.94 33.9264 207.115 33.5849 206.508 32.9771C205.9 32.3693 205.558 31.5449 205.558 30.6854C205.558 29.8258 205.9 29.0014 206.508 28.3936C207.115 27.7858 207.94 27.4443 208.799 27.4443V27.4443Z" fill="#E74C3C"/>
<path d="M219.603 27.4443C220.462 27.4443 221.287 27.7858 221.895 28.3936C222.502 29.0014 222.844 29.8258 222.844 30.6854C222.844 31.5449 222.502 32.3693 221.895 32.9771C221.287 33.5849 220.462 33.9264 219.603 33.9264C218.743 33.9264 217.919 33.5849 217.311 32.9771C216.703 32.3693 216.362 31.5449 216.362 30.6854C216.362 29.8258 216.703 29.0014 217.311 28.3936C217.919 27.7858 218.743 27.4443 219.603 27.4443Z" fill="#F39C12"/>
<path d="M230.406 27.4443C231.266 27.4443 232.09 27.7858 232.698 28.3936C233.306 29.0014 233.647 29.8258 233.647 30.6854C233.647 31.5449 233.306 32.3693 232.698 32.9771C232.09 33.5849 231.266 33.9264 230.406 33.9264C229.547 33.9264 228.722 33.5849 228.115 32.9771C227.507 32.3693 227.165 31.5449 227.165 30.6854C227.165 29.8258 227.507 29.0014 228.115 28.3936C228.722 27.7858 229.547 27.4443 230.406 27.4443Z" fill="#17A085"/>
<path d="M243.37 27.4443H291.986V33.9264H243.37V27.4443Z" fill="white"/>
<path d="M216.362 68.4976V73.8993H243.37V68.4976H216.362ZM216.362 84.7027H243.37V79.301H216.362V84.7027ZM216.362 95.5062H243.37V90.1044H216.362V95.5062ZM216.362 106.31H243.37V100.908H216.362V106.31Z" fill="#BDC3C7"/>
<path d="M216.362 52.292H281.182V63.0954H216.362V52.292Z" fill="#8E80E7"/>
<path d="M248.772 68.4976V84.7027H281.183V68.4976H248.772ZM248.772 106.31H281.183V90.1044H248.772V106.31Z" fill="#BDC3C7"/>
</g>
<circle cx="439" cy="115" r="62" fill="#D4E8F3"/>
<path d="M493 158.38C493 158.958 492.77 159.513 492.361 159.921C491.953 160.33 491.398 160.56 490.82 160.56H386.18C385.602 160.56 385.047 160.33 384.639 159.921C384.23 159.513 384 158.958 384 158.38V71.18C384 70.6018 384.23 70.0473 384.639 69.6385C385.047 69.2297 385.602 69 386.18 69C386.758 69 387.313 69.2297 387.721 69.6385C388.13 70.0473 388.36 70.6018 388.36 71.18V135.679L419.52 104.519C419.722 104.316 419.963 104.156 420.227 104.046C420.492 103.936 420.775 103.88 421.061 103.88C421.348 103.88 421.631 103.936 421.896 104.046C422.16 104.156 422.4 104.316 422.603 104.519L438.501 120.416L476.839 82.08H460.301C459.723 82.08 459.168 81.8503 458.76 81.4415C458.351 81.0327 458.121 80.4782 458.121 79.9C458.121 79.3218 458.351 78.7673 458.76 78.3585C459.168 77.9497 459.723 77.72 460.301 77.72H482.101L482.115 77.7211C482.253 77.7219 482.392 77.7359 482.528 77.7631C482.593 77.7761 482.653 77.8001 482.715 77.8186C482.79 77.8375 482.863 77.8602 482.935 77.8868C483.006 77.9191 483.075 77.9553 483.141 77.9952C483.198 78.0263 483.256 78.0508 483.31 78.0868C483.549 78.2466 483.755 78.452 483.914 78.6912C483.95 78.7441 483.974 78.8007 484.004 78.8558C484.045 78.9239 484.082 78.9941 484.115 79.0662C484.142 79.1384 484.164 79.2121 484.183 79.2869C484.201 79.349 484.226 79.4084 484.238 79.4733C484.267 79.6137 484.281 79.7567 484.282 79.9V101.7C484.282 102.278 484.052 102.833 483.643 103.241C483.234 103.65 482.68 103.88 482.102 103.88C481.523 103.88 480.969 103.65 480.56 103.241C480.151 102.833 479.922 102.278 479.922 101.7V85.1625L440.043 125.041C439.84 125.244 439.6 125.404 439.336 125.514C439.071 125.624 438.788 125.68 438.501 125.68C438.215 125.68 437.932 125.624 437.667 125.514C437.403 125.404 437.162 125.244 436.96 125.041L421.061 109.144L388.36 141.844V156.2H490.82C491.398 156.2 491.953 156.43 492.361 156.839C492.77 157.247 493 157.802 493 158.38Z" fill="#2A6092"/>
<path d="M325 10H439V39" stroke="#2A6092" stroke-width="4" stroke-linecap="round" stroke-dasharray="0.5 11"/>
<circle cx="62" cy="115" r="62" fill="#D4E8F3"/>
<path d="M60.9371 147.727C79.599 147.727 94.7266 132.6 94.7266 113.938C94.7266 95.276 79.599 80.1484 60.9371 80.1484C42.2752 80.1484 27.1477 95.276 27.1477 113.938C27.1477 132.6 42.2752 147.727 60.9371 147.727Z" fill="#88C8EC" stroke="#2A6092" stroke-width="5" stroke-linecap="round" stroke-linejoin="round"/>
<path d="M27.1477 113.937H94.7266" stroke="#2A6092" stroke-width="5" stroke-linecap="round" stroke-linejoin="round"/>
<path d="M37.0444 90.5244C40.1785 93.6668 43.9027 96.1588 48.003 97.8573C52.1033 99.5557 56.4988 100.427 60.9369 100.421C65.3751 100.427 69.7706 99.5557 73.8709 97.8573C77.9712 96.1588 81.6954 93.6668 84.8294 90.5244" stroke="#2A6092" stroke-width="5" stroke-linecap="round" stroke-linejoin="round"/>
<path d="M84.8294 137.35C81.6954 134.207 77.9712 131.715 73.8709 130.017C69.7706 128.318 65.3751 127.447 60.9369 127.453C56.4988 127.447 52.1033 128.318 48.003 130.017C43.9027 131.715 40.1785 134.207 37.0444 137.35" stroke="#2A6092" stroke-width="5" stroke-linecap="round" stroke-linejoin="round"/>
<path d="M60.9372 147.726C68.4012 147.726 74.4529 132.599 74.4529 113.937C74.4529 95.275 68.4012 80.1475 60.9372 80.1475C53.4731 80.1475 47.4214 95.275 47.4214 113.937C47.4214 132.599 53.4731 147.726 60.9372 147.726Z" stroke="#2A6092" stroke-width="5" stroke-linecap="round" stroke-linejoin="round"/>
<path d="M115 114.5C115 146.6 91.5135 168 62.5379 168C38.9873 168 19.9841 155.508 13.3501 135.9" stroke="#2A6092" stroke-width="5" stroke-linecap="round" stroke-linejoin="round"/>
<path d="M8 114.5C8 82.4 31.4865 61 60.462 61C84.018 61 103.016 73.4922 109.65 93.1" stroke="#2A6092" stroke-width="5" stroke-linecap="round" stroke-linejoin="round"/>
<path d="M24.6131 137.871L11.6605 134.211L8 147.164" stroke="#2A6092" stroke-width="5" stroke-linecap="round" stroke-linejoin="round"/>
<path d="M100.076 91.1295L111.339 94.79L113.31 81.8374" stroke="#2A6092" stroke-width="5" stroke-linecap="round" stroke-linejoin="round"/>
<path d="M173 12H59V41" stroke="#2A6092" stroke-width="4" stroke-linecap="round" stroke-dasharray="0.5 11"/>
<path d="M111.94 236.34H94.78C94.5933 236.34 94.48 236.307 94.44 236.24C94.4 236.173 94.38 236.06 94.38 235.9V234.6C94.38 234.453 94.4067 234.353 94.46 234.3C94.5133 234.233 94.62 234.2 94.78 234.2H101.98V233.34C100.727 233.193 99.7533 232.853 99.06 232.32C98.3667 231.773 98.02 231.12 98.02 230.36C98.02 229.8 98.2533 229.273 98.72 228.78H96.38C96.1133 228.78 95.98 228.647 95.98 228.38V227.16C95.98 227.013 96.0133 226.913 96.08 226.86C96.1467 226.807 96.2533 226.78 96.4 226.78H110.36C110.507 226.78 110.607 226.807 110.66 226.86C110.727 226.913 110.76 227.013 110.76 227.16V228.4C110.76 228.653 110.627 228.78 110.36 228.78H108C108.48 229.26 108.72 229.787 108.72 230.36C108.72 231.12 108.373 231.773 107.68 232.32C106.987 232.853 106.013 233.193 104.76 233.34V234.2H111.94C112.06 234.2 112.16 234.227 112.24 234.28C112.32 234.333 112.36 234.44 112.36 234.6V235.9C112.36 236.193 112.22 236.34 111.94 236.34ZM108.16 243.1H98.68C98.3467 243.1 98.08 243.08 97.88 243.04C97.68 243 97.52 242.92 97.4 242.8C97.2933 242.693 97.22 242.547 97.18 242.36C97.14 242.173 97.12 241.933 97.12 241.64V238.64C97.12 238.067 97.22 237.68 97.42 237.48C97.6333 237.28 98.0133 237.18 98.56 237.18H108.06C108.393 237.18 108.66 237.207 108.86 237.26C109.06 237.3 109.213 237.373 109.32 237.48C109.44 237.587 109.52 237.74 109.56 237.94C109.6 238.127 109.62 238.367 109.62 238.66V241.66C109.62 241.953 109.593 242.193 109.54 242.38C109.5 242.567 109.42 242.713 109.3 242.82C109.193 242.927 109.047 243 108.86 243.04C108.673 243.08 108.44 243.1 108.16 243.1ZM106.4 226.02H100.34C100.233 226.02 100.133 226 100.04 225.96C99.96 225.907 99.92 225.793 99.92 225.62V224.32C99.92 224.147 99.96 224.04 100.04 224C100.133 223.947 100.233 223.92 100.34 223.92H106.4C106.693 223.92 106.84 224.06 106.84 224.34V225.6C106.84 225.747 106.813 225.853 106.76 225.92C106.707 225.987 106.587 226.02 106.4 226.02ZM106.84 239.54C106.84 239.38 106.767 239.3 106.62 239.3H100.12C99.96 239.3 99.88 239.387 99.88 239.56V240.72C99.88 240.88 99.96 240.96 100.12 240.96H106.6C106.693 240.96 106.753 240.953 106.78 240.94C106.82 240.913 106.84 240.833 106.84 240.7V239.54ZM103.36 228.88C102.52 228.88 101.88 229.02 101.44 229.3C101.013 229.58 100.8 229.88 100.8 230.2C100.8 230.52 101.013 230.827 101.44 231.12C101.88 231.4 102.52 231.54 103.36 231.54C104.2 231.54 104.84 231.4 105.28 231.12C105.72 230.827 105.94 230.52 105.94 230.2C105.94 229.88 105.72 229.58 105.28 229.3C104.84 229.02 104.2 228.88 103.36 228.88ZM122.689 237.38C122.049 237.5 121.389 237.593 120.709 237.66C120.042 237.727 119.329 237.773 118.569 237.8C117.822 237.827 117.029 237.84 116.189 237.84C115.349 237.827 114.442 237.813 113.469 237.8C113.282 237.8 113.169 237.767 113.129 237.7C113.089 237.633 113.069 237.527 113.069 237.38V235.94C113.069 235.793 113.095 235.693 113.149 235.64C113.202 235.587 113.309 235.56 113.469 235.56C113.655 235.573 113.842 235.58 114.029 235.58C114.229 235.58 114.422 235.58 114.609 235.58V227.84H113.629C113.335 227.84 113.189 227.693 113.189 227.4V226.02C113.189 225.727 113.335 225.58 113.629 225.58H122.149C122.415 225.58 122.549 225.727 122.549 226.02V227.42C122.549 227.7 122.415 227.84 122.149 227.84H121.009V235.42C121.235 235.393 121.462 235.367 121.689 235.34C121.929 235.313 122.169 235.28 122.409 235.24C122.649 235.2 122.775 235.28 122.789 235.48L122.949 236.9C122.975 237.087 122.969 237.207 122.929 237.26C122.889 237.313 122.809 237.353 122.689 237.38ZM122.169 232.64C122.049 232.64 121.949 232.613 121.869 232.56C121.802 232.507 121.769 232.407 121.769 232.26V230.74C121.769 230.567 121.802 230.467 121.869 230.44C121.949 230.4 122.049 230.38 122.169 230.38H123.929V224.68C123.929 224.413 124.069 224.28 124.349 224.28H126.169C126.315 224.28 126.415 224.313 126.469 224.38C126.522 224.433 126.549 224.533 126.549 224.68V242.12C126.549 242.28 126.522 242.38 126.469 242.42C126.415 242.473 126.315 242.5 126.169 242.5H124.349C124.202 242.5 124.095 242.48 124.029 242.44C123.962 242.4 123.929 242.293 123.929 242.12V232.64H122.169ZM130.089 243.18H128.149C128.002 243.18 127.902 243.153 127.849 243.1C127.795 243.047 127.769 242.947 127.769 242.8V224.34C127.769 224.193 127.795 224.093 127.849 224.04C127.915 223.987 128.022 223.96 128.169 223.96H130.089C130.235 223.96 130.329 223.987 130.369 224.04C130.422 224.093 130.449 224.193 130.449 224.34V242.8C130.449 242.947 130.422 243.047 130.369 243.1C130.329 243.153 130.235 243.18 130.089 243.18ZM118.469 235.58V227.84H117.169V235.6C117.395 235.6 117.609 235.6 117.809 235.6C118.022 235.587 118.242 235.58 118.469 235.58ZM147.797 243.14H145.797C145.651 243.14 145.551 243.113 145.497 243.06C145.444 243.02 145.417 242.92 145.417 242.76V224.34C145.417 224.193 145.444 224.093 145.497 224.04C145.551 223.987 145.651 223.96 145.797 223.96H147.797C147.944 223.96 148.044 223.987 148.097 224.04C148.151 224.093 148.177 224.193 148.177 224.34V242.76C148.177 242.92 148.151 243.02 148.097 243.06C148.044 243.113 147.944 243.14 147.797 243.14ZM138.257 238.44C137.484 238.44 136.784 238.28 136.157 237.96C135.531 237.64 134.997 237.193 134.557 236.62C134.117 236.033 133.777 235.34 133.537 234.54C133.297 233.74 133.177 232.86 133.177 231.9C133.177 230.913 133.297 230.013 133.537 229.2C133.777 228.373 134.117 227.667 134.557 227.08C134.997 226.493 135.531 226.04 136.157 225.72C136.784 225.387 137.484 225.22 138.257 225.22C139.044 225.22 139.751 225.38 140.377 225.7C141.017 226.02 141.557 226.473 141.997 227.06C142.437 227.633 142.777 228.333 143.017 229.16C143.257 229.973 143.377 230.873 143.377 231.86C143.377 232.847 143.257 233.747 143.017 234.56C142.777 235.36 142.437 236.047 141.997 236.62C141.557 237.193 141.017 237.64 140.377 237.96C139.751 238.28 139.044 238.44 138.257 238.44ZM138.257 227.64C137.911 227.64 137.591 227.747 137.297 227.96C137.017 228.16 136.771 228.447 136.557 228.82C136.357 229.193 136.197 229.64 136.077 230.16C135.971 230.68 135.917 231.247 135.917 231.86C135.917 232.447 135.971 232.993 136.077 233.5C136.197 234.007 136.357 234.447 136.557 234.82C136.771 235.193 137.017 235.487 137.297 235.7C137.591 235.913 137.911 236.02 138.257 236.02C138.617 236.02 138.937 235.913 139.217 235.7C139.511 235.487 139.757 235.193 139.957 234.82C140.171 234.447 140.331 234.007 140.437 233.5C140.557 232.993 140.617 232.447 140.617 231.86C140.617 231.247 140.557 230.68 140.437 230.16C140.331 229.64 140.171 229.193 139.957 228.82C139.757 228.447 139.511 228.16 139.217 227.96C138.937 227.747 138.617 227.64 138.257 227.64ZM162.026 237.68C161.919 237.813 161.799 237.86 161.666 237.82C161.532 237.78 161.379 237.7 161.206 237.58C160.979 237.42 160.712 237.207 160.406 236.94C160.112 236.673 159.799 236.38 159.466 236.06C159.146 235.727 158.826 235.38 158.506 235.02C158.186 234.647 157.899 234.287 157.646 233.94C156.966 234.793 156.206 235.607 155.366 236.38C154.526 237.14 153.626 237.827 152.666 238.44C152.546 238.52 152.446 238.553 152.366 238.54C152.299 238.527 152.212 238.453 152.106 238.32L151.166 237.06C151.059 236.913 151.019 236.8 151.046 236.72C151.086 236.627 151.166 236.54 151.286 236.46C152.059 235.927 152.792 235.333 153.486 234.68C154.179 234.027 154.812 233.34 155.386 232.62C155.972 231.9 156.486 231.16 156.926 230.4C157.366 229.64 157.706 228.88 157.946 228.12C158.026 227.853 157.926 227.72 157.646 227.72H152.786C152.599 227.72 152.486 227.687 152.446 227.62C152.419 227.54 152.406 227.433 152.406 227.3V225.86C152.406 225.7 152.432 225.593 152.486 225.54C152.552 225.473 152.659 225.44 152.806 225.44H159.406C159.926 225.44 160.332 225.553 160.626 225.78C160.932 226.007 161.086 226.34 161.086 226.78C161.086 226.967 161.066 227.147 161.026 227.32C160.999 227.493 160.966 227.66 160.926 227.82C160.766 228.473 160.532 229.14 160.226 229.82C159.919 230.5 159.552 231.187 159.126 231.88C159.379 232.28 159.666 232.667 159.986 233.04C160.319 233.413 160.659 233.773 161.006 234.12C161.352 234.453 161.699 234.767 162.046 235.06C162.392 235.34 162.706 235.593 162.986 235.82C163.212 235.993 163.206 236.22 162.966 236.5L162.026 237.68ZM166.606 243.14H164.606C164.459 243.14 164.359 243.113 164.306 243.06C164.252 243.02 164.226 242.92 164.226 242.76V224.34C164.226 224.193 164.252 224.093 164.306 224.04C164.359 223.987 164.459 223.96 164.606 223.96H166.606C166.752 223.96 166.852 223.987 166.906 224.04C166.959 224.093 166.986 224.193 166.986 224.34V242.76C166.986 242.92 166.959 243.02 166.906 243.06C166.852 243.113 166.752 243.14 166.606 243.14ZM183.4 227.84C183.28 228.52 183.093 229.22 182.84 229.94C182.587 230.647 182.28 231.367 181.92 232.1C182.067 232.433 182.253 232.78 182.48 233.14C182.707 233.487 182.953 233.827 183.22 234.16C183.487 234.48 183.76 234.787 184.04 235.08C184.32 235.36 184.593 235.607 184.86 235.82C184.98 235.913 185.04 236.007 185.04 236.1C185.053 236.193 184.993 236.32 184.86 236.48L183.9 237.68C183.793 237.813 183.693 237.887 183.6 237.9C183.507 237.9 183.387 237.84 183.24 237.72C183.027 237.547 182.793 237.333 182.54 237.08C182.3 236.827 182.053 236.56 181.8 236.28C181.56 235.987 181.32 235.687 181.08 235.38C180.853 235.06 180.653 234.753 180.48 234.46C179.947 235.207 179.36 235.913 178.72 236.58C178.093 237.247 177.4 237.853 176.64 238.4C176.467 238.52 176.34 238.573 176.26 238.56C176.193 238.547 176.1 238.467 175.98 238.32L174.92 237.04C174.733 236.827 174.78 236.607 175.06 236.38C175.793 235.807 176.453 235.187 177.04 234.52C177.64 233.84 178.167 233.147 178.62 232.44C179.073 231.733 179.453 231.027 179.76 230.32C180.067 229.613 180.307 228.927 180.48 228.26C180.507 228.153 180.513 228.053 180.5 227.96C180.487 227.867 180.38 227.82 180.18 227.82H176.38C176.193 227.82 176.087 227.787 176.06 227.72C176.033 227.64 176.02 227.533 176.02 227.4V225.98C176.02 225.833 176.04 225.727 176.08 225.66C176.133 225.593 176.24 225.56 176.4 225.56H181.94C182.54 225.56 182.953 225.667 183.18 225.88C183.407 226.08 183.52 226.413 183.52 226.88C183.52 227.013 183.507 227.173 183.48 227.36C183.453 227.533 183.427 227.693 183.4 227.84ZM183.7 232.92C183.58 232.92 183.487 232.893 183.42 232.84C183.353 232.787 183.32 232.687 183.32 232.54V231.06C183.32 230.873 183.353 230.76 183.42 230.72C183.5 230.68 183.593 230.66 183.7 230.66H185.76V224.68C185.76 224.413 185.9 224.28 186.18 224.28H188C188.253 224.28 188.38 224.413 188.38 224.68V242.12C188.38 242.28 188.353 242.38 188.3 242.42C188.247 242.473 188.147 242.5 188 242.5H186.18C186.033 242.5 185.927 242.48 185.86 242.44C185.793 242.4 185.76 242.293 185.76 242.12V232.92H183.7ZM192.02 243.18H190.04C189.893 243.18 189.793 243.153 189.74 243.1C189.687 243.047 189.66 242.947 189.66 242.8V224.34C189.66 224.193 189.687 224.093 189.74 224.04C189.807 223.987 189.913 223.96 190.06 223.96H192.02C192.167 223.96 192.267 223.987 192.32 224.04C192.373 224.093 192.4 224.193 192.4 224.34V242.8C192.4 242.947 192.373 243.047 192.32 243.1C192.267 243.153 192.167 243.18 192.02 243.18ZM195.968 234.94C195.742 235.047 195.582 235.08 195.488 235.04C195.408 235 195.335 234.92 195.268 234.8L194.508 233.42C194.375 233.18 194.462 232.993 194.768 232.86C195.448 232.54 196.102 232.173 196.728 231.76C197.355 231.347 197.922 230.913 198.428 230.46C198.948 230.007 199.395 229.553 199.768 229.1C200.155 228.647 200.448 228.22 200.648 227.82C200.755 227.593 200.802 227.433 200.788 227.34C200.775 227.247 200.655 227.2 200.428 227.2H195.868C195.695 227.2 195.588 227.167 195.548 227.1C195.522 227.02 195.508 226.913 195.508 226.78V225.32C195.508 225.04 195.635 224.9 195.888 224.9H202.648C203.435 224.9 203.915 225.1 204.088 225.5C204.275 225.887 204.248 226.413 204.008 227.08C203.648 228.093 203.095 229.08 202.348 230.04C202.895 230.507 203.475 230.933 204.088 231.32C204.702 231.693 205.248 231.993 205.728 232.22C205.955 232.34 206.002 232.507 205.868 232.72L204.908 234.24C204.788 234.427 204.608 234.467 204.368 234.36C204.168 234.267 203.922 234.133 203.628 233.96C203.335 233.773 203.022 233.573 202.688 233.36C202.368 233.133 202.035 232.893 201.688 232.64C201.355 232.373 201.035 232.1 200.728 231.82C200.062 232.447 199.328 233.027 198.528 233.56C197.728 234.08 196.875 234.54 195.968 234.94ZM209.028 243.1H207.068C206.775 243.1 206.628 242.967 206.628 242.7V238.54C206.628 238.34 206.535 238.24 206.348 238.24H197.548C197.442 238.24 197.348 238.22 197.268 238.18C197.202 238.14 197.168 238.047 197.168 237.9V236.34C197.168 236.153 197.202 236.047 197.268 236.02C197.348 235.98 197.442 235.96 197.548 235.96H208.008C208.302 235.96 208.535 235.987 208.708 236.04C208.895 236.08 209.035 236.16 209.128 236.28C209.235 236.4 209.308 236.56 209.348 236.76C209.388 236.947 209.408 237.18 209.408 237.46V242.7C209.408 242.967 209.282 243.1 209.028 243.1ZM211.908 230.78H209.428V234.5C209.428 234.647 209.402 234.747 209.348 234.8C209.308 234.853 209.215 234.88 209.068 234.88H207.048C206.782 234.88 206.648 234.747 206.648 234.48V224.34C206.648 224.193 206.675 224.093 206.728 224.04C206.795 223.987 206.902 223.96 207.048 223.96H209.068C209.215 223.96 209.308 223.987 209.348 224.04C209.402 224.093 209.428 224.193 209.428 224.34V228.5H211.908C212.028 228.5 212.122 228.52 212.188 228.56C212.268 228.587 212.308 228.687 212.308 228.86V230.38C212.308 230.54 212.268 230.647 212.188 230.7C212.122 230.753 212.028 230.78 211.908 230.78ZM229.497 243.16H227.517C227.37 243.16 227.27 243.133 227.217 243.08C227.164 243.027 227.137 242.927 227.137 242.78V224.34C227.137 224.193 227.164 224.093 227.217 224.04C227.284 223.987 227.39 223.96 227.537 223.96H229.497C229.644 223.96 229.744 223.987 229.797 224.04C229.85 224.093 229.877 224.193 229.877 224.34V242.78C229.877 242.927 229.85 243.027 229.797 243.08C229.744 243.133 229.644 243.16 229.497 243.16ZM225.437 242.5H223.577C223.43 242.5 223.33 242.48 223.277 242.44C223.224 242.4 223.197 242.293 223.197 242.12V232.86H221.757C221.664 233.593 221.49 234.28 221.237 234.92C220.997 235.56 220.69 236.113 220.317 236.58C219.944 237.047 219.51 237.42 219.017 237.7C218.537 237.967 218.01 238.1 217.437 238.1C216.784 238.1 216.19 237.94 215.657 237.62C215.137 237.287 214.69 236.833 214.317 236.26C213.957 235.687 213.677 235.007 213.477 234.22C213.29 233.433 213.197 232.587 213.197 231.68C213.197 230.667 213.297 229.767 213.497 228.98C213.71 228.18 214.004 227.507 214.377 226.96C214.764 226.413 215.21 225.993 215.717 225.7C216.237 225.407 216.81 225.26 217.437 225.26C218.01 225.26 218.544 225.38 219.037 225.62C219.544 225.86 219.99 226.213 220.377 226.68C220.764 227.133 221.077 227.693 221.317 228.36C221.57 229.013 221.737 229.76 221.817 230.6H223.197V224.68C223.197 224.533 223.224 224.433 223.277 224.38C223.33 224.327 223.43 224.3 223.577 224.3H225.437C225.69 224.3 225.817 224.427 225.817 224.68V242.12C225.817 242.28 225.79 242.38 225.737 242.42C225.684 242.473 225.584 242.5 225.437 242.5ZM217.457 227.62C217.137 227.62 216.87 227.747 216.657 228C216.444 228.253 216.27 228.58 216.137 228.98C216.017 229.38 215.924 229.82 215.857 230.3C215.804 230.78 215.777 231.247 215.777 231.7C215.777 232.14 215.804 232.6 215.857 233.08C215.924 233.56 216.024 234 216.157 234.4C216.29 234.8 216.464 235.133 216.677 235.4C216.89 235.653 217.15 235.78 217.457 235.78C217.737 235.78 217.984 235.667 218.197 235.44C218.424 235.2 218.617 234.893 218.777 234.52C218.937 234.133 219.057 233.693 219.137 233.2C219.217 232.707 219.257 232.207 219.257 231.7C219.257 231.167 219.217 230.66 219.137 230.18C219.057 229.687 218.937 229.253 218.777 228.88C218.63 228.493 218.444 228.187 218.217 227.96C217.99 227.733 217.737 227.62 217.457 227.62ZM247.786 243.14H245.746C245.599 243.14 245.499 243.113 245.446 243.06C245.392 243.02 245.366 242.92 245.366 242.76V232.42H241.726C241.606 232.42 241.512 232.4 241.446 232.36C241.379 232.307 241.346 232.207 241.346 232.06V230.52C241.346 230.373 241.379 230.273 241.446 230.22C241.512 230.167 241.606 230.14 241.726 230.14H245.366V224.34C245.366 224.193 245.392 224.093 245.446 224.04C245.499 223.987 245.599 223.96 245.746 223.96H247.786C247.932 223.96 248.026 223.987 248.066 224.04C248.119 224.093 248.146 224.193 248.146 224.34V242.76C248.146 242.92 248.119 243.02 248.066 243.06C248.026 243.113 247.932 243.14 247.786 243.14ZM241.906 238.5C241.732 238.713 241.492 238.7 241.186 238.46C240.932 238.287 240.652 238.04 240.346 237.72C240.039 237.4 239.726 237.04 239.406 236.64C239.086 236.24 238.772 235.82 238.466 235.38C238.172 234.927 237.919 234.48 237.706 234.04C237.239 235 236.679 235.9 236.026 236.74C235.372 237.58 234.719 238.267 234.066 238.8C233.879 238.947 233.739 239.027 233.646 239.04C233.552 239.053 233.439 238.993 233.306 238.86L232.206 237.72C232.099 237.613 232.046 237.513 232.046 237.42C232.046 237.313 232.132 237.18 232.306 237.02C233.066 236.287 233.759 235.433 234.386 234.46C235.026 233.473 235.519 232.453 235.866 231.4C236.146 230.547 236.352 229.62 236.486 228.62C236.619 227.62 236.686 226.533 236.686 225.36C236.686 225.213 236.706 225.107 236.746 225.04C236.799 224.96 236.919 224.92 237.106 224.92L239.026 224.98C239.212 224.993 239.326 225.04 239.366 225.12C239.406 225.187 239.426 225.3 239.426 225.46C239.426 226.447 239.379 227.367 239.286 228.22C239.206 229.06 239.072 229.88 238.886 230.68C239.059 231.227 239.299 231.793 239.606 232.38C239.926 232.953 240.266 233.507 240.626 234.04C240.999 234.56 241.372 235.04 241.746 235.48C242.119 235.907 242.466 236.253 242.786 236.52C242.972 236.667 243.059 236.8 243.046 236.92C243.046 237.027 242.986 237.153 242.866 237.3L241.906 238.5ZM273.62 232.96H256.46C256.273 232.96 256.16 232.927 256.12 232.86C256.08 232.793 256.06 232.687 256.06 232.54V231.14C256.06 230.98 256.086 230.873 256.14 230.82C256.193 230.753 256.3 230.72 256.46 230.72H261.36C261.426 230.427 261.486 230.113 261.54 229.78C261.606 229.433 261.66 229.093 261.7 228.76C261.753 228.413 261.793 228.08 261.82 227.76C261.846 227.44 261.86 227.153 261.86 226.9C261.86 226.78 261.833 226.693 261.78 226.64C261.726 226.573 261.62 226.54 261.46 226.54H258.24C258.133 226.54 258.033 226.527 257.94 226.5C257.846 226.46 257.8 226.353 257.8 226.18V224.7C257.8 224.553 257.84 224.46 257.92 224.42C258 224.38 258.106 224.36 258.24 224.36H263.08C263.586 224.36 263.946 224.473 264.16 224.7C264.386 224.913 264.5 225.3 264.5 225.86C264.5 226.647 264.453 227.42 264.36 228.18C264.266 228.94 264.106 229.787 263.88 230.72H268.64C268.76 230.107 268.853 229.467 268.92 228.8C269 228.12 269.04 227.487 269.04 226.9C269.04 226.78 269.013 226.693 268.96 226.64C268.92 226.573 268.82 226.54 268.66 226.54H265.54C265.42 226.54 265.32 226.527 265.24 226.5C265.16 226.46 265.12 226.353 265.12 226.18V224.7C265.12 224.553 265.16 224.46 265.24 224.42C265.32 224.38 265.42 224.36 265.54 224.36H270.24C270.72 224.36 271.08 224.473 271.32 224.7C271.56 224.913 271.68 225.3 271.68 225.86C271.68 226.58 271.64 227.353 271.56 228.18C271.493 229.007 271.366 229.853 271.18 230.72H273.62C273.74 230.72 273.84 230.753 273.92 230.82C274 230.873 274.04 230.98 274.04 231.14V232.54C274.04 232.82 273.9 232.96 273.62 232.96ZM271.06 242.9H260.2C259.906 242.9 259.666 242.88 259.48 242.84C259.293 242.8 259.146 242.727 259.04 242.62C258.933 242.527 258.86 242.393 258.82 242.22C258.78 242.047 258.76 241.82 258.76 241.54V235.86C258.76 235.3 258.86 234.933 259.06 234.76C259.273 234.573 259.653 234.48 260.2 234.48H270.96C271.106 234.48 271.206 234.507 271.26 234.56C271.326 234.613 271.36 234.713 271.36 234.86V236.22C271.36 236.367 271.326 236.467 271.26 236.52C271.206 236.573 271.106 236.6 270.96 236.6H261.84C261.626 236.6 261.52 236.693 261.52 236.88V237.64H270.76C270.893 237.64 270.993 237.667 271.06 237.72C271.126 237.76 271.16 237.86 271.16 238.02V239.36C271.16 239.547 271.12 239.653 271.04 239.68C270.973 239.707 270.88 239.72 270.76 239.72H261.52V240.5C261.52 240.607 261.54 240.68 261.58 240.72C261.62 240.76 261.706 240.78 261.84 240.78H271.06C271.233 240.78 271.353 240.8 271.42 240.84C271.486 240.867 271.52 240.967 271.52 241.14V242.46C271.52 242.647 271.48 242.767 271.4 242.82C271.32 242.873 271.206 242.9 271.06 242.9ZM292.748 233.46H290.268V242.76C290.268 242.92 290.242 243.02 290.188 243.06C290.148 243.113 290.055 243.14 289.908 243.14H287.888C287.742 243.14 287.635 243.113 287.568 243.06C287.515 243.02 287.488 242.92 287.488 242.76V224.34C287.488 224.193 287.515 224.093 287.568 224.04C287.635 223.987 287.742 223.96 287.888 223.96H289.908C290.055 223.96 290.148 223.987 290.188 224.04C290.242 224.093 290.268 224.193 290.268 224.34V231.18H292.748C292.868 231.18 292.962 231.2 293.028 231.24C293.108 231.267 293.148 231.373 293.148 231.56V233.08C293.148 233.24 293.108 233.347 293.028 233.4C292.962 233.44 292.868 233.46 292.748 233.46ZM286.368 236.84C285.702 237 284.975 237.14 284.188 237.26C283.415 237.367 282.635 237.453 281.848 237.52C281.075 237.587 280.328 237.627 279.608 237.64C278.902 237.653 278.288 237.64 277.768 237.6C277.208 237.56 276.815 237.433 276.588 237.22C276.362 237.007 276.248 236.64 276.248 236.12V225.58C276.248 225.3 276.375 225.16 276.628 225.16H278.608C278.888 225.16 279.028 225.3 279.028 225.58V234.78C279.028 235.073 279.182 235.227 279.488 235.24C279.942 235.267 280.442 235.267 280.988 235.24C281.548 235.213 282.115 235.173 282.688 235.12C283.275 235.053 283.848 234.98 284.408 234.9C284.968 234.807 285.488 234.707 285.968 234.6C286.128 234.56 286.228 234.567 286.268 234.62C286.322 234.673 286.362 234.733 286.388 234.8L286.688 236.46C286.702 236.66 286.595 236.787 286.368 236.84ZM308.877 231.34H298.237C297.904 231.34 297.624 231.313 297.397 231.26C297.17 231.207 296.99 231.12 296.857 231C296.724 230.867 296.624 230.693 296.557 230.48C296.504 230.267 296.477 229.993 296.477 229.66V224.84C296.477 224.72 296.504 224.627 296.557 224.56C296.61 224.48 296.71 224.44 296.857 224.44H298.837C299.13 224.44 299.277 224.573 299.277 224.84V228.66C299.277 228.847 299.304 228.967 299.357 229.02C299.424 229.06 299.537 229.08 299.697 229.08H308.877C308.984 229.08 309.077 229.1 309.157 229.14C309.25 229.18 309.297 229.273 309.297 229.42V230.96C309.297 231.147 309.25 231.26 309.157 231.3C309.077 231.327 308.984 231.34 308.877 231.34ZM311.237 235.32H294.077C293.89 235.32 293.777 235.287 293.737 235.22C293.697 235.153 293.677 235.04 293.677 234.88V233.44C293.677 233.293 293.704 233.193 293.757 233.14C293.81 233.073 293.917 233.04 294.077 233.04H311.237C311.357 233.04 311.457 233.067 311.537 233.12C311.617 233.173 311.657 233.28 311.657 233.44V234.88C311.657 235.173 311.517 235.32 311.237 235.32ZM309.077 242.72H297.837C297.557 242.72 297.324 242.693 297.137 242.64C296.964 242.6 296.824 242.527 296.717 242.42C296.624 242.313 296.557 242.167 296.517 241.98C296.477 241.793 296.457 241.56 296.457 241.28V237.1C296.457 236.82 296.59 236.68 296.857 236.68H298.817C299.097 236.68 299.237 236.82 299.237 237.1V240.14C299.237 240.34 299.337 240.44 299.537 240.44H309.077C309.184 240.44 309.277 240.467 309.357 240.52C309.45 240.56 309.497 240.653 309.497 240.8V242.36C309.497 242.547 309.45 242.653 309.357 242.68C309.277 242.707 309.184 242.72 309.077 242.72ZM320.291 235.9C320.144 235.953 320.018 235.987 319.911 236C319.818 236.013 319.738 235.953 319.671 235.82L318.951 234.26C318.884 234.113 318.858 234.013 318.871 233.96C318.898 233.893 319.004 233.827 319.191 233.76C320.044 233.4 320.818 232.987 321.511 232.52C322.204 232.053 322.818 231.56 323.351 231.04C323.884 230.52 324.324 229.98 324.671 229.42C325.031 228.86 325.298 228.3 325.471 227.74C325.524 227.593 325.538 227.487 325.511 227.42C325.484 227.34 325.364 227.3 325.151 227.3H320.091C319.918 227.3 319.811 227.26 319.771 227.18C319.731 227.1 319.711 227 319.711 226.88V225.44C319.711 225.293 319.738 225.193 319.791 225.14C319.844 225.073 319.951 225.04 320.111 225.04H326.971C327.571 225.04 327.978 225.147 328.191 225.36C328.418 225.56 328.531 225.913 328.531 226.42C328.531 227.233 328.338 228.093 327.951 229C327.578 229.907 327.038 230.793 326.331 231.66C325.624 232.513 324.758 233.313 323.731 234.06C322.718 234.807 321.571 235.42 320.291 235.9ZM321.911 243.34C321.724 243.393 321.604 243.407 321.551 243.38C321.498 243.353 321.444 243.287 321.391 243.18L320.711 241.54C320.618 241.327 320.718 241.18 321.011 241.1C322.758 240.607 324.158 239.88 325.211 238.92C326.278 237.96 326.871 236.853 326.991 235.6C326.991 235.533 327.031 235.467 327.111 235.4C327.191 235.333 327.284 235.3 327.391 235.3L329.451 235.4C329.664 235.427 329.751 235.593 329.711 235.9C329.684 236.073 329.658 236.247 329.631 236.42C329.604 236.58 329.564 236.74 329.511 236.9C329.751 237.42 330.091 237.9 330.531 238.34C330.971 238.767 331.458 239.147 331.991 239.48C332.538 239.813 333.098 240.1 333.671 240.34C334.258 240.567 334.824 240.733 335.371 240.84C335.558 240.88 335.658 240.94 335.671 241.02C335.684 241.113 335.671 241.213 335.631 241.32L334.971 242.98C334.891 243.18 334.691 243.24 334.371 243.16C333.838 243.04 333.284 242.86 332.711 242.62C332.151 242.393 331.604 242.113 331.071 241.78C330.551 241.46 330.051 241.093 329.571 240.68C329.104 240.267 328.691 239.82 328.331 239.34C327.651 240.273 326.764 241.08 325.671 241.76C324.578 242.453 323.324 242.98 321.911 243.34ZM328.591 231.78C328.338 231.78 328.211 231.653 328.211 231.4V229.9C328.211 229.727 328.244 229.62 328.311 229.58C328.391 229.54 328.484 229.52 328.591 229.52H331.531V224.34C331.531 224.167 331.571 224.06 331.651 224.02C331.731 223.98 331.831 223.96 331.951 223.96H333.911C334.098 223.96 334.204 224 334.231 224.08C334.271 224.147 334.291 224.233 334.291 224.34V235.62C334.291 235.887 334.158 236.02 333.891 236.02H331.911C331.658 236.02 331.531 235.893 331.531 235.64V231.78H328.591ZM352.7 243.14H350.7C350.553 243.14 350.453 243.113 350.4 243.06C350.346 243.02 350.32 242.92 350.32 242.76V224.34C350.32 224.193 350.346 224.093 350.4 224.04C350.453 223.987 350.553 223.96 350.7 223.96H352.7C352.846 223.96 352.946 223.987 353 224.04C353.053 224.093 353.08 224.193 353.08 224.34V242.76C353.08 242.92 353.053 243.02 353 243.06C352.946 243.113 352.846 243.14 352.7 243.14ZM343.16 238.44C342.386 238.44 341.686 238.28 341.06 237.96C340.433 237.64 339.9 237.193 339.46 236.62C339.02 236.033 338.68 235.34 338.44 234.54C338.2 233.74 338.08 232.86 338.08 231.9C338.08 230.913 338.2 230.013 338.44 229.2C338.68 228.373 339.02 227.667 339.46 227.08C339.9 226.493 340.433 226.04 341.06 225.72C341.686 225.387 342.386 225.22 343.16 225.22C343.946 225.22 344.653 225.38 345.28 225.7C345.92 226.02 346.46 226.473 346.9 227.06C347.34 227.633 347.68 228.333 347.92 229.16C348.16 229.973 348.28 230.873 348.28 231.86C348.28 232.847 348.16 233.747 347.92 234.56C347.68 235.36 347.34 236.047 346.9 236.62C346.46 237.193 345.92 237.64 345.28 237.96C344.653 238.28 343.946 238.44 343.16 238.44ZM343.16 227.64C342.813 227.64 342.493 227.747 342.2 227.96C341.92 228.16 341.673 228.447 341.46 228.82C341.26 229.193 341.1 229.64 340.98 230.16C340.873 230.68 340.82 231.247 340.82 231.86C340.82 232.447 340.873 232.993 340.98 233.5C341.1 234.007 341.26 234.447 341.46 234.82C341.673 235.193 341.92 235.487 342.2 235.7C342.493 235.913 342.813 236.02 343.16 236.02C343.52 236.02 343.84 235.913 344.12 235.7C344.413 235.487 344.66 235.193 344.86 234.82C345.073 234.447 345.233 234.007 345.34 233.5C345.46 232.993 345.52 232.447 345.52 231.86C345.52 231.247 345.46 230.68 345.34 230.16C345.233 229.64 345.073 229.193 344.86 228.82C344.66 228.447 344.413 228.16 344.12 227.96C343.84 227.747 343.52 227.64 343.16 227.64ZM379.194 233.44H376.714V242.76C376.714 242.92 376.687 243.02 376.634 243.06C376.594 243.113 376.5 243.14 376.354 243.14H374.334C374.187 243.14 374.08 243.113 374.014 243.06C373.96 243.02 373.934 242.92 373.934 242.76V224.34C373.934 224.193 373.96 224.093 374.014 224.04C374.08 223.987 374.187 223.96 374.334 223.96H376.354C376.5 223.96 376.594 223.987 376.634 224.04C376.687 224.093 376.714 224.193 376.714 224.34V231.16H379.194C379.314 231.16 379.407 231.18 379.474 231.22C379.554 231.247 379.594 231.353 379.594 231.54V233.06C379.594 233.22 379.554 233.327 379.474 233.38C379.407 233.42 379.314 233.44 379.194 233.44ZM367.234 238.48C366.46 238.48 365.76 238.313 365.134 237.98C364.507 237.647 363.974 237.187 363.534 236.6C363.094 236.013 362.754 235.32 362.514 234.52C362.274 233.72 362.154 232.847 362.154 231.9C362.154 230.913 362.274 230.013 362.514 229.2C362.754 228.373 363.094 227.667 363.534 227.08C363.974 226.48 364.507 226.013 365.134 225.68C365.76 225.347 366.46 225.18 367.234 225.18C368.007 225.18 368.707 225.347 369.334 225.68C369.974 226 370.514 226.453 370.954 227.04C371.407 227.627 371.754 228.333 371.994 229.16C372.234 229.973 372.354 230.873 372.354 231.86C372.354 232.833 372.234 233.727 371.994 234.54C371.754 235.353 371.407 236.053 370.954 236.64C370.514 237.213 369.974 237.667 369.334 238C368.707 238.32 368.007 238.48 367.234 238.48ZM367.234 227.52C366.887 227.52 366.567 227.633 366.274 227.86C365.994 228.073 365.747 228.373 365.534 228.76C365.334 229.147 365.174 229.607 365.054 230.14C364.947 230.66 364.894 231.233 364.894 231.86C364.894 232.46 364.947 233.027 365.054 233.56C365.174 234.08 365.334 234.533 365.534 234.92C365.747 235.293 365.994 235.593 366.274 235.82C366.567 236.033 366.887 236.14 367.234 236.14C367.58 236.14 367.9 236.033 368.194 235.82C368.487 235.593 368.734 235.287 368.934 234.9C369.147 234.513 369.307 234.06 369.414 233.54C369.534 233.02 369.594 232.46 369.594 231.86C369.594 231.233 369.534 230.66 369.414 230.14C369.307 229.607 369.147 229.147 368.934 228.76C368.734 228.373 368.487 228.073 368.194 227.86C367.9 227.633 367.58 227.52 367.234 227.52ZM395.762 237.36H393.742C393.596 237.36 393.496 237.333 393.442 237.28C393.389 237.213 393.362 237.107 393.362 236.96V224.34C393.362 224.087 393.489 223.96 393.742 223.96H395.762C396.002 223.96 396.122 224.087 396.122 224.34V236.98C396.122 237.127 396.096 237.227 396.042 237.28C396.002 237.333 395.909 237.36 395.762 237.36ZM392.222 233.86C391.622 234.007 390.929 234.133 390.142 234.24C389.369 234.333 388.576 234.407 387.762 234.46C386.962 234.5 386.189 234.527 385.442 234.54C384.696 234.54 384.062 234.52 383.542 234.48C382.982 234.44 382.589 234.313 382.362 234.1C382.136 233.887 382.022 233.527 382.022 233.02V225.32C382.022 225.053 382.149 224.92 382.402 224.92H384.382C384.662 224.92 384.802 225.053 384.802 225.32V231.78C384.802 231.913 384.822 232.007 384.862 232.06C384.902 232.1 385.002 232.127 385.162 232.14C385.616 232.153 386.129 232.153 386.702 232.14C387.289 232.113 387.882 232.08 388.482 232.04C389.082 232 389.676 231.947 390.262 231.88C390.849 231.8 391.382 231.713 391.862 231.62C392.022 231.593 392.129 231.607 392.182 231.66C392.236 231.7 392.269 231.753 392.282 231.82L392.542 233.48C392.582 233.68 392.476 233.807 392.222 233.86ZM396.322 242.82H385.822C385.529 242.82 385.289 242.793 385.102 242.74C384.929 242.7 384.789 242.62 384.682 242.5C384.576 242.38 384.502 242.227 384.462 242.04C384.422 241.853 384.402 241.62 384.402 241.34V236.82C384.402 236.54 384.536 236.4 384.802 236.4H386.762C387.042 236.4 387.182 236.54 387.182 236.82V240.22C387.182 240.42 387.289 240.52 387.502 240.52H396.322C396.429 240.52 396.522 240.547 396.602 240.6C396.682 240.64 396.722 240.733 396.722 240.88V242.46C396.722 242.647 396.682 242.753 396.602 242.78C396.522 242.807 396.429 242.82 396.322 242.82ZM402.171 243.46C402.131 243.567 402.064 243.64 401.971 243.68C401.877 243.733 401.784 243.76 401.691 243.76H399.731C399.651 243.76 399.577 243.733 399.511 243.68C399.444 243.627 399.424 243.547 399.451 243.44L400.371 239.76C400.397 239.693 400.444 239.62 400.511 239.54C400.577 239.447 400.684 239.4 400.831 239.4H403.291C403.451 239.4 403.544 239.453 403.571 239.56C403.597 239.653 403.597 239.74 403.571 239.82L402.171 243.46Z" fill="#2A6092"/>
<path d="M38.8964 260L49 270.104L59.1036 260L49 249.896L38.8964 260ZM461.104 260L451 249.896L440.896 260L451 270.104L461.104 260ZM49 261.75H451V258.25H49V261.75Z" fill="#2A6092"/>
<path d="M97.089 287.953C97.1143 288.13 97.032 288.238 96.842 288.276C96.3987 288.377 95.9047 288.472 95.36 288.561C94.828 288.637 94.2643 288.7 93.669 288.751C93.0863 288.789 92.4847 288.821 91.864 288.846C91.256 288.859 90.6543 288.859 90.059 288.846C89.489 288.833 89.0963 288.7 88.881 288.447C88.6783 288.194 88.577 287.801 88.577 287.269V279.232C88.577 278.7 88.6783 278.345 88.881 278.168C89.0837 277.991 89.4637 277.902 90.021 277.902H95.417C95.5817 277.902 95.664 277.978 95.664 278.13V278.814C95.664 278.966 95.5817 279.042 95.417 279.042H90.268C90.0907 279.042 89.983 279.067 89.945 279.118C89.907 279.156 89.888 279.27 89.888 279.46V287.174C89.888 287.364 89.9197 287.491 89.983 287.554C90.0463 287.617 90.1667 287.655 90.344 287.668C91.446 287.706 92.5227 287.687 93.574 287.611C94.6253 287.535 95.645 287.389 96.633 287.174C96.8357 287.136 96.956 287.206 96.994 287.383L97.089 287.953ZM98.305 282.709V276.895C98.305 276.718 98.3937 276.629 98.571 276.629H99.293C99.4703 276.629 99.559 276.718 99.559 276.895V292.836C99.559 293.013 99.4703 293.102 99.293 293.102H98.571C98.3937 293.102 98.305 293.013 98.305 292.836V283.849H94.315C94.1503 283.849 94.068 283.773 94.068 283.621V282.937C94.068 282.785 94.1503 282.709 94.315 282.709H98.305ZM102.922 293.558C102.922 293.735 102.833 293.824 102.656 293.824H101.934C101.757 293.824 101.668 293.735 101.668 293.558V276.572C101.668 276.395 101.757 276.306 101.934 276.306H102.656C102.833 276.306 102.922 276.395 102.922 276.572V293.558ZM115.717 283.545C115.717 284.254 115.628 284.97 115.451 285.692C115.286 286.414 115.02 287.066 114.653 287.649C114.286 288.232 113.811 288.713 113.228 289.093C112.658 289.46 111.968 289.644 111.157 289.644C110.321 289.644 109.612 289.46 109.029 289.093C108.459 288.726 107.997 288.251 107.642 287.668C107.3 287.073 107.053 286.414 106.901 285.692C106.749 284.97 106.673 284.254 106.673 283.545C106.673 282.798 106.749 282.063 106.901 281.341C107.053 280.606 107.3 279.948 107.642 279.365C107.997 278.782 108.459 278.314 109.029 277.959C109.612 277.604 110.321 277.427 111.157 277.427C111.968 277.427 112.658 277.604 113.228 277.959C113.811 278.314 114.286 278.782 114.653 279.365C115.02 279.935 115.286 280.587 115.451 281.322C115.628 282.044 115.717 282.785 115.717 283.545ZM114.368 283.526C114.368 282.943 114.305 282.354 114.178 281.759C114.064 281.164 113.88 280.632 113.627 280.163C113.374 279.682 113.044 279.295 112.639 279.004C112.234 278.7 111.74 278.548 111.157 278.548C110.549 278.548 110.042 278.7 109.637 279.004C109.244 279.295 108.928 279.682 108.687 280.163C108.446 280.632 108.275 281.164 108.174 281.759C108.073 282.354 108.022 282.943 108.022 283.526C108.022 284.083 108.066 284.66 108.155 285.255C108.256 285.838 108.427 286.376 108.668 286.87C108.909 287.351 109.232 287.75 109.637 288.067C110.042 288.371 110.549 288.523 111.157 288.523C111.74 288.523 112.234 288.371 112.639 288.067C113.044 287.75 113.374 287.351 113.627 286.87C113.88 286.376 114.064 285.838 114.178 285.255C114.305 284.66 114.368 284.083 114.368 283.526ZM120.163 293.558C120.163 293.735 120.074 293.824 119.897 293.824H119.118C118.941 293.824 118.852 293.735 118.852 293.558V276.572C118.852 276.395 118.941 276.306 119.118 276.306H119.897C120.074 276.306 120.163 276.395 120.163 276.572V293.558ZM131.59 283.849C131.223 283.874 130.824 283.9 130.393 283.925C129.975 283.938 129.551 283.95 129.12 283.963C128.69 283.976 128.272 283.982 127.866 283.982C127.461 283.982 127.094 283.976 126.764 283.963H125.966V287.516C125.966 287.706 125.998 287.839 126.061 287.915C126.125 287.978 126.245 288.01 126.422 288.01C127.486 288.035 128.639 288.004 129.88 287.915C131.122 287.814 132.293 287.655 133.395 287.44C133.611 287.402 133.737 287.472 133.775 287.649L133.87 288.2C133.896 288.314 133.889 288.396 133.851 288.447C133.813 288.485 133.737 288.517 133.623 288.542C133.091 288.656 132.509 288.757 131.875 288.846C131.242 288.922 130.596 288.992 129.937 289.055C129.279 289.106 128.62 289.144 127.961 289.169C127.315 289.194 126.707 289.201 126.137 289.188C125.567 289.175 125.175 289.042 124.959 288.789C124.757 288.536 124.655 288.143 124.655 287.611V279.061C124.655 278.529 124.757 278.174 124.959 277.997C125.162 277.82 125.542 277.731 126.099 277.731H132.065C132.23 277.731 132.312 277.807 132.312 277.959V278.643C132.312 278.795 132.23 278.871 132.065 278.871H126.346C126.169 278.871 126.061 278.896 126.023 278.947C125.985 278.985 125.966 279.099 125.966 279.289V282.861H126.764C127.081 282.861 127.436 282.861 127.828 282.861C128.234 282.861 128.652 282.855 129.082 282.842C129.513 282.829 129.944 282.817 130.374 282.804C130.805 282.791 131.21 282.772 131.59 282.747C131.666 282.734 131.723 282.753 131.761 282.804C131.812 282.855 131.837 282.912 131.837 282.975V283.621C131.837 283.748 131.755 283.824 131.59 283.849ZM138.031 293.558C138.031 293.735 137.943 293.824 137.765 293.824H136.986C136.809 293.824 136.72 293.735 136.72 293.558V283.83H133.49C133.326 283.83 133.243 283.754 133.243 283.602V282.918C133.243 282.766 133.326 282.69 133.49 282.69H136.72V276.572C136.72 276.395 136.809 276.306 136.986 276.306H137.765C137.943 276.306 138.031 276.395 138.031 276.572V293.558ZM148.913 278.89C148.913 278.358 149.014 278.003 149.217 277.826C149.419 277.636 149.799 277.541 150.357 277.541H159.268C159.572 277.541 159.812 277.56 159.99 277.598C160.18 277.636 160.325 277.706 160.427 277.807C160.541 277.908 160.617 278.048 160.655 278.225C160.693 278.402 160.712 278.624 160.712 278.89V284.191C160.712 284.723 160.61 285.084 160.408 285.274C160.205 285.451 159.825 285.54 159.268 285.54H155.468V289.682H162.935C162.998 289.682 163.061 289.707 163.125 289.758C163.188 289.796 163.22 289.853 163.22 289.929V290.575C163.22 290.638 163.188 290.695 163.125 290.746C163.061 290.797 162.998 290.822 162.935 290.822H146.785C146.709 290.822 146.639 290.797 146.576 290.746C146.525 290.695 146.5 290.638 146.5 290.575V289.929C146.5 289.853 146.525 289.796 146.576 289.758C146.639 289.707 146.709 289.682 146.785 289.682H154.157V285.54H150.357C150.053 285.54 149.806 285.521 149.616 285.483C149.438 285.445 149.293 285.375 149.179 285.274C149.077 285.16 149.008 285.021 148.97 284.856C148.932 284.679 148.913 284.457 148.913 284.191V278.89ZM150.68 278.681C150.502 278.681 150.382 278.719 150.319 278.795C150.255 278.858 150.224 278.985 150.224 279.175V283.906C150.224 284.096 150.255 284.229 150.319 284.305C150.382 284.368 150.502 284.4 150.68 284.4H158.945C159.122 284.4 159.242 284.368 159.306 284.305C159.369 284.229 159.401 284.096 159.401 283.906V279.175C159.401 278.985 159.369 278.858 159.306 278.795C159.242 278.719 159.122 278.681 158.945 278.681H150.68ZM179.093 293.558C179.093 293.735 179.004 293.824 178.827 293.824H178.048C177.871 293.824 177.782 293.735 177.782 293.558V276.572C177.782 276.395 177.871 276.306 178.048 276.306H178.827C179.004 276.306 179.093 276.395 179.093 276.572V293.558ZM167.56 286.889C167.56 287.079 167.592 287.206 167.655 287.269C167.718 287.332 167.839 287.37 168.016 287.383C168.637 287.408 169.295 287.415 169.992 287.402C170.701 287.377 171.411 287.339 172.12 287.288C172.829 287.225 173.52 287.149 174.191 287.06C174.875 286.971 175.508 286.87 176.091 286.756C176.306 286.705 176.433 286.781 176.471 286.984L176.566 287.516C176.604 287.693 176.522 287.807 176.319 287.858C175.888 287.959 175.331 288.054 174.647 288.143C173.976 288.232 173.247 288.314 172.462 288.39C171.677 288.453 170.872 288.504 170.049 288.542C169.226 288.567 168.459 288.574 167.75 288.561C167.18 288.548 166.787 288.415 166.572 288.162C166.357 287.909 166.249 287.516 166.249 286.984V277.636C166.249 277.459 166.338 277.37 166.515 277.37H167.294C167.471 277.37 167.56 277.459 167.56 277.636V286.889ZM190.52 283.849C190.153 283.874 189.754 283.9 189.323 283.925C188.905 283.938 188.481 283.95 188.05 283.963C187.619 283.976 187.201 283.982 186.796 283.982C186.391 283.982 186.023 283.976 185.694 283.963H184.896V287.516C184.896 287.706 184.928 287.839 184.991 287.915C185.054 287.978 185.175 288.01 185.352 288.01C186.416 288.035 187.569 288.004 188.81 287.915C190.051 287.814 191.223 287.655 192.325 287.44C192.54 287.402 192.667 287.472 192.705 287.649L192.8 288.2C192.825 288.314 192.819 288.396 192.781 288.447C192.743 288.485 192.667 288.517 192.553 288.542C192.021 288.656 191.438 288.757 190.805 288.846C190.172 288.922 189.526 288.992 188.867 289.055C188.208 289.106 187.55 289.144 186.891 289.169C186.245 289.194 185.637 289.201 185.067 289.188C184.497 289.175 184.104 289.042 183.889 288.789C183.686 288.536 183.585 288.143 183.585 287.611V279.061C183.585 278.529 183.686 278.174 183.889 277.997C184.092 277.82 184.472 277.731 185.029 277.731H190.995C191.16 277.731 191.242 277.807 191.242 277.959V278.643C191.242 278.795 191.16 278.871 190.995 278.871H185.276C185.099 278.871 184.991 278.896 184.953 278.947C184.915 278.985 184.896 279.099 184.896 279.289V282.861H185.694C186.011 282.861 186.365 282.861 186.758 282.861C187.163 282.861 187.581 282.855 188.012 282.842C188.443 282.829 188.873 282.817 189.304 282.804C189.735 282.791 190.14 282.772 190.52 282.747C190.596 282.734 190.653 282.753 190.691 282.804C190.742 282.855 190.767 282.912 190.767 282.975V283.621C190.767 283.748 190.685 283.824 190.52 283.849ZM196.961 293.558C196.961 293.735 196.872 293.824 196.695 293.824H195.916C195.739 293.824 195.65 293.735 195.65 293.558V283.83H192.42C192.255 283.83 192.173 283.754 192.173 283.602V282.918C192.173 282.766 192.255 282.69 192.42 282.69H195.65V276.572C195.65 276.395 195.739 276.306 195.916 276.306H196.695C196.872 276.306 196.961 276.395 196.961 276.572V293.558ZM214.829 286.851C214.829 287.028 214.741 287.117 214.563 287.117H213.784C213.607 287.117 213.518 287.028 213.518 286.851V276.572C213.518 276.395 213.607 276.306 213.784 276.306H214.563C214.741 276.306 214.829 276.395 214.829 276.572V286.851ZM215 290.708C215 291.227 214.855 291.683 214.563 292.076C214.272 292.481 213.873 292.817 213.366 293.083C212.86 293.349 212.271 293.552 211.599 293.691C210.941 293.83 210.231 293.9 209.471 293.9C208.648 293.9 207.894 293.83 207.21 293.691C206.539 293.552 205.963 293.349 205.481 293.083C205 292.817 204.626 292.481 204.36 292.076C204.094 291.683 203.961 291.227 203.961 290.708C203.961 290.189 204.094 289.733 204.36 289.34C204.626 288.947 205 288.618 205.481 288.352C205.963 288.086 206.539 287.89 207.21 287.763C207.894 287.624 208.648 287.554 209.471 287.554C210.231 287.554 210.941 287.624 211.599 287.763C212.271 287.89 212.86 288.086 213.366 288.352C213.873 288.618 214.272 288.947 214.563 289.34C214.855 289.733 215 290.189 215 290.708ZM213.651 290.765C213.651 290.398 213.537 290.081 213.309 289.815C213.081 289.549 212.771 289.334 212.378 289.169C211.986 289.004 211.536 288.884 211.029 288.808C210.523 288.732 209.997 288.694 209.452 288.694C208.844 288.694 208.281 288.732 207.761 288.808C207.255 288.884 206.818 289.004 206.45 289.169C206.096 289.334 205.817 289.549 205.614 289.815C205.412 290.081 205.31 290.398 205.31 290.765C205.31 291.107 205.412 291.405 205.614 291.658C205.817 291.911 206.096 292.12 206.45 292.285C206.818 292.45 207.255 292.57 207.761 292.646C208.281 292.722 208.844 292.76 209.452 292.76C209.997 292.76 210.523 292.722 211.029 292.646C211.536 292.57 211.986 292.45 212.378 292.285C212.771 292.12 213.081 291.911 213.309 291.658C213.537 291.405 213.651 291.107 213.651 290.765ZM203.087 285.806C202.517 285.806 202.131 285.698 201.928 285.483C201.738 285.255 201.643 284.875 201.643 284.343V282.101C201.643 281.569 201.751 281.214 201.966 281.037C202.194 280.847 202.593 280.752 203.163 280.752H207.742C207.92 280.752 208.034 280.727 208.084 280.676C208.135 280.625 208.16 280.505 208.16 280.315V278.605C208.16 278.415 208.135 278.295 208.084 278.244C208.046 278.193 207.939 278.168 207.761 278.168H201.947C201.795 278.168 201.719 278.086 201.719 277.921V277.256C201.719 277.104 201.795 277.028 201.947 277.028H207.97C208.274 277.028 208.521 277.053 208.711 277.104C208.901 277.142 209.053 277.212 209.167 277.313C209.281 277.414 209.357 277.56 209.395 277.75C209.446 277.927 209.471 278.149 209.471 278.415V280.543C209.471 281.075 209.357 281.436 209.129 281.626C208.914 281.803 208.521 281.892 207.951 281.892H203.353C203.176 281.892 203.062 281.917 203.011 281.968C202.973 282.019 202.954 282.139 202.954 282.329V284.248C202.954 284.539 203.094 284.685 203.372 284.685C204.12 284.685 204.835 284.672 205.519 284.647C206.203 284.622 206.868 284.584 207.514 284.533C208.173 284.47 208.819 284.4 209.452 284.324C210.086 284.235 210.732 284.134 211.39 284.02C211.517 283.995 211.599 283.995 211.637 284.02C211.688 284.045 211.726 284.109 211.751 284.21L211.865 284.818C211.891 284.932 211.878 285.008 211.827 285.046C211.789 285.084 211.713 285.116 211.599 285.141C210.409 285.356 209.079 285.527 207.609 285.654C206.14 285.768 204.633 285.819 203.087 285.806ZM232.032 293.558C232.032 293.735 231.944 293.824 231.766 293.824H230.987C230.81 293.824 230.721 293.735 230.721 293.558V276.572C230.721 276.395 230.81 276.306 230.987 276.306H231.766C231.944 276.306 232.032 276.395 232.032 276.572V283.279H234.654C234.73 283.279 234.794 283.304 234.844 283.355C234.908 283.393 234.939 283.45 234.939 283.526V284.172C234.939 284.235 234.908 284.292 234.844 284.343C234.794 284.394 234.73 284.419 234.654 284.419H232.032V293.558ZM228.384 279.118C228.346 280.182 228.207 281.227 227.966 282.253C227.738 283.279 227.428 284.267 227.035 285.217C226.643 286.154 226.174 287.047 225.629 287.896C225.085 288.732 224.477 289.492 223.805 290.176C223.691 290.315 223.571 290.341 223.444 290.252L222.874 289.815C222.735 289.714 222.729 289.587 222.855 289.435C224.071 288.181 225.047 286.68 225.781 284.932C226.516 283.184 226.959 281.316 227.111 279.327C227.124 279.137 227.092 279.01 227.016 278.947C226.953 278.871 226.833 278.833 226.655 278.833H224.204C224.052 278.833 223.976 278.751 223.976 278.586V277.978C223.976 277.826 224.052 277.75 224.204 277.75H226.959C227.263 277.75 227.51 277.775 227.7 277.826C227.89 277.877 228.036 277.959 228.137 278.073C228.239 278.187 228.308 278.333 228.346 278.51C228.384 278.675 228.397 278.877 228.384 279.118ZM223.577 279.118C223.476 280.853 223.058 282.5 222.323 284.058C221.601 285.603 220.582 287.009 219.264 288.276C219.138 288.403 219.017 288.415 218.903 288.314L218.39 287.801C218.264 287.7 218.264 287.586 218.39 287.459C219.606 286.306 220.525 285.065 221.145 283.735C221.779 282.392 222.165 280.923 222.304 279.327C222.33 279.137 222.304 279.01 222.228 278.947C222.152 278.871 222.026 278.833 221.848 278.833H218.751C218.599 278.833 218.523 278.751 218.523 278.586V277.978C218.523 277.826 218.599 277.75 218.751 277.75H222.152C222.748 277.75 223.14 277.864 223.33 278.092C223.52 278.307 223.603 278.649 223.577 279.118ZM246.633 288.618C246.595 288.681 246.544 288.719 246.481 288.732C246.43 288.745 246.354 288.713 246.253 288.637C245.949 288.409 245.626 288.149 245.284 287.858C244.942 287.554 244.606 287.237 244.277 286.908C243.947 286.566 243.624 286.218 243.308 285.863C242.991 285.496 242.7 285.135 242.434 284.78C241.8 285.578 241.078 286.344 240.268 287.079C239.457 287.801 238.532 288.523 237.494 289.245C237.43 289.283 237.367 289.315 237.304 289.34C237.24 289.353 237.19 289.334 237.152 289.283L236.696 288.694C236.645 288.631 236.626 288.567 236.639 288.504C236.651 288.428 236.683 288.371 236.734 288.333C238.76 286.902 240.337 285.451 241.465 283.982C242.605 282.513 243.396 280.98 243.84 279.384C243.89 279.207 243.89 279.08 243.84 279.004C243.802 278.915 243.694 278.871 243.517 278.871H237.76C237.608 278.871 237.532 278.789 237.532 278.624V277.959C237.532 277.807 237.62 277.731 237.798 277.731H244.03C244.688 277.731 245.106 277.845 245.284 278.073C245.461 278.301 245.461 278.706 245.284 279.289C244.79 280.91 244.093 282.399 243.194 283.754C243.485 284.159 243.795 284.558 244.125 284.951C244.454 285.344 244.783 285.717 245.113 286.072C245.442 286.414 245.771 286.731 246.101 287.022C246.43 287.301 246.74 287.535 247.032 287.725C247.095 287.776 247.127 287.833 247.127 287.896C247.127 287.959 247.108 288.016 247.07 288.067L246.633 288.618ZM250.566 293.558C250.566 293.735 250.477 293.824 250.3 293.824H249.521C249.343 293.824 249.255 293.735 249.255 293.558V276.572C249.255 276.395 249.343 276.306 249.521 276.306H250.3C250.477 276.306 250.566 276.395 250.566 276.572V293.558ZM262.264 289.682C262.264 289.15 262.365 288.795 262.568 288.618C262.771 288.428 263.151 288.333 263.708 288.333H271.669C271.973 288.333 272.214 288.352 272.391 288.39C272.581 288.428 272.727 288.498 272.828 288.599C272.942 288.7 273.018 288.84 273.056 289.017C273.094 289.194 273.113 289.416 273.113 289.682V292.323C273.113 292.855 273.012 293.21 272.809 293.387C272.606 293.577 272.226 293.672 271.669 293.672H263.708C263.404 293.672 263.157 293.653 262.967 293.615C262.79 293.577 262.644 293.501 262.53 293.387C262.429 293.286 262.359 293.146 262.321 292.969C262.283 292.804 262.264 292.589 262.264 292.323V289.682ZM268.952 284.001C268.952 284.457 268.844 284.875 268.629 285.255C268.426 285.622 268.141 285.945 267.774 286.224C267.419 286.503 266.989 286.718 266.482 286.87C265.988 287.022 265.45 287.098 264.867 287.098C264.272 287.098 263.727 287.022 263.233 286.87C262.739 286.718 262.308 286.503 261.941 286.224C261.574 285.945 261.289 285.616 261.086 285.236C260.883 284.856 260.782 284.444 260.782 284.001C260.782 283.545 260.883 283.127 261.086 282.747C261.289 282.367 261.574 282.044 261.941 281.778C262.308 281.512 262.739 281.303 263.233 281.151C263.727 280.999 264.272 280.923 264.867 280.923C265.45 280.923 265.988 280.999 266.482 281.151C266.989 281.303 267.419 281.518 267.774 281.797C268.141 282.063 268.426 282.386 268.629 282.766C268.844 283.146 268.952 283.558 268.952 284.001ZM264.031 289.473C263.854 289.473 263.733 289.511 263.67 289.587C263.607 289.65 263.575 289.777 263.575 289.967V292.038C263.575 292.228 263.607 292.355 263.67 292.418C263.733 292.494 263.854 292.532 264.031 292.532H271.346C271.523 292.532 271.644 292.494 271.707 292.418C271.77 292.355 271.802 292.228 271.802 292.038V289.967C271.802 289.777 271.77 289.65 271.707 289.587C271.644 289.511 271.523 289.473 271.346 289.473H264.031ZM267.679 284.001C267.679 283.697 267.609 283.425 267.47 283.184C267.331 282.931 267.134 282.722 266.881 282.557C266.628 282.38 266.33 282.247 265.988 282.158C265.646 282.057 265.272 282.006 264.867 282.006C264.462 282.006 264.088 282.057 263.746 282.158C263.404 282.247 263.106 282.38 262.853 282.557C262.6 282.722 262.397 282.931 262.245 283.184C262.106 283.425 262.036 283.697 262.036 284.001C262.036 284.305 262.106 284.584 262.245 284.837C262.397 285.078 262.6 285.287 262.853 285.464C263.106 285.641 263.404 285.781 263.746 285.882C264.088 285.971 264.462 286.015 264.867 286.015C265.272 286.015 265.646 285.971 265.988 285.882C266.33 285.781 266.628 285.641 266.881 285.464C267.134 285.287 267.331 285.078 267.47 284.837C267.609 284.584 267.679 284.305 267.679 284.001ZM273.094 287.079C273.094 287.256 273.005 287.345 272.828 287.345H272.049C271.872 287.345 271.783 287.256 271.783 287.079V276.572C271.783 276.395 271.872 276.306 272.049 276.306H272.828C273.005 276.306 273.094 276.395 273.094 276.572V281.721H275.716C275.792 281.721 275.855 281.746 275.906 281.797C275.969 281.835 276.001 281.892 276.001 281.968V282.614C276.001 282.677 275.969 282.734 275.906 282.785C275.855 282.836 275.792 282.861 275.716 282.861H273.094V287.079ZM270.415 279.821C270.415 279.986 270.32 280.068 270.13 280.068H259.642C259.579 280.068 259.515 280.043 259.452 279.992C259.401 279.941 259.376 279.878 259.376 279.802V279.194C259.376 279.118 259.401 279.055 259.452 279.004C259.515 278.953 259.579 278.928 259.642 278.928H270.13C270.32 278.928 270.415 279.01 270.415 279.175V279.821ZM267.641 277.484C267.641 277.661 267.546 277.75 267.356 277.75H262.15C262.087 277.75 262.023 277.731 261.96 277.693C261.909 277.642 261.884 277.579 261.884 277.503V276.857C261.884 276.781 261.909 276.718 261.96 276.667C262.011 276.616 262.068 276.591 262.131 276.591H267.356C267.546 276.591 267.641 276.68 267.641 276.857V277.484ZM286.022 279.213C285.997 279.897 285.94 280.549 285.851 281.17C285.775 281.791 285.667 282.399 285.528 282.994H287.751V276.895C287.751 276.718 287.84 276.629 288.017 276.629H288.739C288.916 276.629 289.005 276.718 289.005 276.895V292.836C289.005 293.013 288.916 293.102 288.739 293.102H288.017C287.84 293.102 287.751 293.013 287.751 292.836V284.134H285.224C284.527 286.427 283.394 288.396 281.823 290.043C281.709 290.182 281.589 290.208 281.462 290.119L280.911 289.701C280.772 289.587 280.759 289.473 280.873 289.359C282.114 288.016 283.052 286.534 283.685 284.913C284.331 283.279 284.686 281.449 284.749 279.422C284.762 279.232 284.73 279.105 284.654 279.042C284.591 278.966 284.47 278.928 284.293 278.928H282.621C282.469 278.928 282.393 278.846 282.393 278.681V278.073C282.393 277.921 282.469 277.845 282.621 277.845H284.597C284.901 277.845 285.148 277.87 285.338 277.921C285.528 277.972 285.674 278.054 285.775 278.168C285.876 278.282 285.946 278.428 285.984 278.605C286.022 278.77 286.035 278.972 286.022 279.213ZM292.254 293.558C292.254 293.735 292.165 293.824 291.988 293.824H291.266C291.089 293.824 291 293.735 291 293.558V276.572C291 276.395 291.089 276.306 291.266 276.306H291.988C292.165 276.306 292.254 276.395 292.254 276.572V293.558ZM281.994 279.213C281.893 281.024 281.513 282.69 280.854 284.21C280.195 285.73 279.283 287.047 278.118 288.162C277.991 288.289 277.871 288.301 277.757 288.2L277.244 287.687C277.117 287.586 277.111 287.478 277.225 287.364C279.492 285.211 280.658 282.563 280.721 279.422C280.721 279.232 280.689 279.105 280.626 279.042C280.563 278.966 280.442 278.928 280.265 278.928H277.776C277.624 278.928 277.548 278.846 277.548 278.681V278.073C277.548 277.921 277.624 277.845 277.776 277.845H280.569C281.164 277.845 281.557 277.959 281.747 278.187C281.937 278.402 282.019 278.744 281.994 279.213ZM314.972 290.423C314.972 290.968 314.827 291.455 314.535 291.886C314.244 292.317 313.845 292.678 313.338 292.969C312.844 293.273 312.262 293.501 311.59 293.653C310.932 293.818 310.222 293.9 309.462 293.9C308.639 293.9 307.892 293.818 307.22 293.653C306.549 293.501 305.973 293.273 305.491 292.969C305.01 292.678 304.636 292.317 304.37 291.886C304.104 291.455 303.971 290.968 303.971 290.423C303.971 289.891 304.104 289.416 304.37 288.998C304.636 288.567 305.01 288.206 305.491 287.915C305.973 287.611 306.549 287.383 307.22 287.231C307.892 287.066 308.639 286.984 309.462 286.984C310.222 286.984 310.932 287.066 311.59 287.231C312.262 287.383 312.844 287.605 313.338 287.896C313.845 288.187 314.244 288.548 314.535 288.979C314.827 289.397 314.972 289.878 314.972 290.423ZM309.709 278.491C309.671 278.681 309.633 278.871 309.595 279.061C309.557 279.238 309.513 279.416 309.462 279.593H313.509V276.572C313.509 276.395 313.598 276.306 313.775 276.306H314.554C314.732 276.306 314.82 276.395 314.82 276.572V286.642C314.82 286.819 314.732 286.908 314.554 286.908H313.775C313.598 286.908 313.509 286.819 313.509 286.642V284.134H308.664C308.5 284.134 308.417 284.058 308.417 283.906V283.241C308.417 283.089 308.5 283.013 308.664 283.013H313.509V280.714H309.044C308.5 281.943 307.664 283.051 306.536 284.039C305.409 285.014 303.933 285.882 302.109 286.642C301.907 286.731 301.767 286.693 301.691 286.528L301.406 285.901C301.356 285.8 301.349 285.717 301.387 285.654C301.425 285.591 301.482 285.546 301.558 285.521C303.572 284.685 305.137 283.697 306.251 282.557C307.366 281.404 308.044 280.163 308.284 278.833C308.36 278.466 308.208 278.282 307.828 278.282H302.071C301.919 278.282 301.843 278.2 301.843 278.035V277.37C301.843 277.218 301.919 277.142 302.071 277.142H308.265C308.873 277.142 309.285 277.25 309.5 277.465C309.716 277.68 309.785 278.022 309.709 278.491ZM313.623 290.48C313.623 290.1 313.509 289.764 313.281 289.473C313.053 289.182 312.743 288.941 312.35 288.751C311.97 288.548 311.527 288.396 311.02 288.295C310.514 288.181 309.988 288.124 309.443 288.124C308.835 288.124 308.278 288.181 307.771 288.295C307.265 288.396 306.828 288.548 306.46 288.751C306.106 288.941 305.827 289.182 305.624 289.473C305.422 289.764 305.32 290.1 305.32 290.48C305.32 290.847 305.422 291.177 305.624 291.468C305.827 291.747 306.106 291.981 306.46 292.171C306.828 292.361 307.265 292.507 307.771 292.608C308.278 292.709 308.835 292.76 309.443 292.76C309.988 292.76 310.514 292.709 311.02 292.608C311.527 292.507 311.97 292.361 312.35 292.171C312.743 291.981 313.053 291.747 313.281 291.468C313.509 291.177 313.623 290.847 313.623 290.48ZM321.84 289.682C321.84 289.15 321.941 288.795 322.144 288.618C322.346 288.428 322.726 288.333 323.284 288.333H331.245C331.549 288.333 331.789 288.352 331.967 288.39C332.157 288.428 332.302 288.498 332.404 288.599C332.518 288.7 332.594 288.84 332.632 289.017C332.67 289.194 332.689 289.416 332.689 289.682V292.323C332.689 292.855 332.587 293.21 332.385 293.387C332.182 293.577 331.802 293.672 331.245 293.672H323.284C322.98 293.672 322.733 293.653 322.543 293.615C322.365 293.577 322.22 293.501 322.106 293.387C322.004 293.286 321.935 293.146 321.897 292.969C321.859 292.804 321.84 292.589 321.84 292.323V289.682ZM327.996 284.001C327.996 284.457 327.894 284.875 327.692 285.255C327.489 285.622 327.204 285.945 326.837 286.224C326.482 286.503 326.058 286.718 325.564 286.87C325.082 287.022 324.557 287.098 323.987 287.098C323.404 287.098 322.866 287.022 322.372 286.87C321.89 286.718 321.472 286.503 321.118 286.224C320.763 285.945 320.484 285.616 320.282 285.236C320.079 284.856 319.978 284.444 319.978 284.001C319.978 283.545 320.079 283.127 320.282 282.747C320.484 282.367 320.763 282.044 321.118 281.778C321.472 281.512 321.89 281.303 322.372 281.151C322.866 280.999 323.404 280.923 323.987 280.923C324.557 280.923 325.082 280.999 325.564 281.151C326.058 281.303 326.482 281.518 326.837 281.797C327.204 282.063 327.489 282.386 327.692 282.766C327.894 283.146 327.996 283.558 327.996 284.001ZM323.607 289.473C323.429 289.473 323.309 289.511 323.246 289.587C323.182 289.65 323.151 289.777 323.151 289.967V292.038C323.151 292.228 323.182 292.355 323.246 292.418C323.309 292.494 323.429 292.532 323.607 292.532H330.922C331.099 292.532 331.219 292.494 331.283 292.418C331.346 292.355 331.378 292.228 331.378 292.038V289.967C331.378 289.777 331.346 289.65 331.283 289.587C331.219 289.511 331.099 289.473 330.922 289.473H323.607ZM326.742 284.001C326.742 283.697 326.672 283.425 326.533 283.184C326.393 282.931 326.197 282.722 325.944 282.557C325.703 282.38 325.412 282.247 325.07 282.158C324.74 282.057 324.379 282.006 323.987 282.006C323.594 282.006 323.227 282.057 322.885 282.158C322.543 282.247 322.245 282.38 321.992 282.557C321.751 282.722 321.561 282.931 321.422 283.184C321.282 283.425 321.213 283.697 321.213 284.001C321.213 284.305 321.282 284.584 321.422 284.837C321.561 285.078 321.751 285.287 321.992 285.464C322.245 285.641 322.543 285.781 322.885 285.882C323.227 285.971 323.594 286.015 323.987 286.015C324.379 286.015 324.74 285.971 325.07 285.882C325.412 285.781 325.703 285.641 325.944 285.464C326.197 285.287 326.393 285.078 326.533 284.837C326.672 284.584 326.742 284.305 326.742 284.001ZM331.378 281.778V276.572C331.378 276.395 331.466 276.306 331.644 276.306H332.423C332.6 276.306 332.689 276.395 332.689 276.572V286.965C332.689 287.142 332.6 287.231 332.423 287.231H331.644C331.466 287.231 331.378 287.142 331.378 286.965V282.918H328.718C328.553 282.918 328.471 282.842 328.471 282.69V282.006C328.471 281.854 328.553 281.778 328.718 281.778H331.378ZM329.421 279.821C329.421 279.986 329.326 280.068 329.136 280.068H319.028C318.964 280.068 318.901 280.043 318.838 279.992C318.787 279.941 318.762 279.878 318.762 279.802V279.194C318.762 279.118 318.787 279.055 318.838 279.004C318.901 278.953 318.964 278.928 319.028 278.928H329.136C329.326 278.928 329.421 279.01 329.421 279.175V279.821ZM326.742 277.484C326.742 277.661 326.647 277.75 326.457 277.75H321.441C321.377 277.75 321.314 277.731 321.251 277.693C321.2 277.642 321.175 277.579 321.175 277.503V276.857C321.175 276.781 321.2 276.718 321.251 276.667C321.301 276.616 321.358 276.591 321.422 276.591H326.457C326.647 276.591 326.742 276.68 326.742 276.857V277.484ZM347.517 283.488H349.93V276.572C349.93 276.395 350.018 276.306 350.196 276.306H350.918C351.095 276.306 351.184 276.395 351.184 276.572V293.558C351.184 293.735 351.095 293.824 350.918 293.824H350.196C350.018 293.824 349.93 293.735 349.93 293.558V284.628H347.517V292.836C347.517 293.013 347.428 293.102 347.251 293.102H346.529C346.351 293.102 346.263 293.013 346.263 292.836V276.895C346.263 276.718 346.351 276.629 346.529 276.629H347.251C347.428 276.629 347.517 276.718 347.517 276.895V283.488ZM344.458 286.528C344.458 287.047 344.369 287.529 344.192 287.972C344.014 288.415 343.767 288.802 343.451 289.131C343.134 289.46 342.748 289.72 342.292 289.91C341.848 290.1 341.354 290.195 340.81 290.195C340.252 290.195 339.746 290.1 339.29 289.91C338.846 289.72 338.466 289.46 338.15 289.131C337.833 288.789 337.586 288.396 337.409 287.953C337.244 287.51 337.162 287.035 337.162 286.528C337.162 286.021 337.244 285.546 337.409 285.103C337.586 284.647 337.833 284.261 338.15 283.944C338.466 283.615 338.846 283.355 339.29 283.165C339.746 282.975 340.252 282.88 340.81 282.88C341.354 282.88 341.848 282.975 342.292 283.165C342.748 283.355 343.134 283.615 343.451 283.944C343.767 284.273 344.014 284.66 344.192 285.103C344.369 285.546 344.458 286.021 344.458 286.528ZM343.204 286.528C343.204 286.173 343.147 285.844 343.033 285.54C342.931 285.236 342.773 284.97 342.558 284.742C342.355 284.514 342.108 284.337 341.817 284.21C341.525 284.071 341.19 284.001 340.81 284.001C340.05 284.001 339.454 284.242 339.024 284.723C338.606 285.204 338.397 285.806 338.397 286.528C338.397 286.883 338.447 287.218 338.549 287.535C338.663 287.839 338.821 288.105 339.024 288.333C339.239 288.561 339.492 288.745 339.784 288.884C340.088 289.011 340.43 289.074 340.81 289.074C341.19 289.074 341.525 289.011 341.817 288.884C342.108 288.745 342.355 288.561 342.558 288.333C342.773 288.105 342.931 287.839 343.033 287.535C343.147 287.218 343.204 286.883 343.204 286.528ZM345.218 281.303C345.218 281.468 345.123 281.55 344.933 281.55H336.345C336.281 281.55 336.218 281.525 336.155 281.474C336.104 281.423 336.079 281.36 336.079 281.284V280.676C336.079 280.6 336.104 280.537 336.155 280.486C336.218 280.435 336.281 280.41 336.345 280.41H344.933C345.123 280.41 345.218 280.492 345.218 280.657V281.303ZM343.204 278.263C343.204 278.44 343.109 278.529 342.919 278.529H338.473C338.409 278.529 338.346 278.51 338.283 278.472C338.232 278.421 338.207 278.358 338.207 278.282V277.636C338.207 277.56 338.232 277.497 338.283 277.446C338.333 277.395 338.39 277.37 338.454 277.37H342.919C343.109 277.37 343.204 277.459 343.204 277.636V278.263ZM362.668 285.768V289.682H370.135C370.198 289.682 370.262 289.707 370.325 289.758C370.388 289.796 370.42 289.853 370.42 289.929V290.575C370.42 290.638 370.388 290.695 370.325 290.746C370.262 290.797 370.198 290.822 370.135 290.822H353.985C353.909 290.822 353.839 290.797 353.776 290.746C353.725 290.695 353.7 290.638 353.7 290.575V289.929C353.7 289.853 353.725 289.796 353.776 289.758C353.839 289.707 353.909 289.682 353.985 289.682H361.357V285.768H357.576C357.272 285.768 357.025 285.749 356.835 285.711C356.658 285.673 356.518 285.603 356.417 285.502C356.316 285.388 356.246 285.249 356.208 285.084C356.17 284.907 356.151 284.685 356.151 284.419V277.294C356.151 277.231 356.176 277.18 356.227 277.142C356.278 277.091 356.335 277.066 356.398 277.066H357.215C357.278 277.066 357.329 277.091 357.367 277.142C357.418 277.193 357.443 277.243 357.443 277.294V280.315H366.582V277.313C366.582 277.25 366.601 277.193 366.639 277.142C366.69 277.091 366.747 277.066 366.81 277.066H367.627C367.69 277.066 367.747 277.091 367.798 277.142C367.849 277.18 367.874 277.231 367.874 277.294V284.552C367.874 285.033 367.773 285.356 367.57 285.521C367.367 285.686 366.987 285.768 366.43 285.768H362.668ZM357.443 281.436V284.191C357.443 284.381 357.475 284.508 357.538 284.571C357.601 284.622 357.722 284.647 357.899 284.647H366.126C366.303 284.647 366.424 284.622 366.487 284.571C366.55 284.508 366.582 284.381 366.582 284.191V281.436H357.443ZM377.04 277.636C377.04 278.472 377.021 279.251 376.983 279.973C376.958 280.695 376.894 281.379 376.793 282.025C376.869 282.544 377.008 283.083 377.211 283.64C377.414 284.185 377.661 284.742 377.952 285.312C378.243 285.869 378.579 286.42 378.959 286.965C379.352 287.497 379.776 287.997 380.232 288.466C380.283 288.517 380.308 288.58 380.308 288.656C380.321 288.732 380.295 288.795 380.232 288.846L379.7 289.359C379.637 289.422 379.567 289.454 379.491 289.454C379.415 289.441 379.352 289.403 379.301 289.34C378.997 289.011 378.693 288.65 378.389 288.257C378.098 287.864 377.819 287.459 377.553 287.041C377.287 286.61 377.04 286.18 376.812 285.749C376.597 285.318 376.413 284.907 376.261 284.514C375.932 285.565 375.488 286.509 374.931 287.345C374.374 288.168 373.677 288.979 372.841 289.777C372.714 289.878 372.607 289.885 372.518 289.796L371.91 289.226C371.796 289.137 371.815 289.023 371.967 288.884C372.638 288.251 373.208 287.579 373.677 286.87C374.158 286.161 374.551 285.363 374.855 284.476C375.159 283.589 375.381 282.589 375.52 281.474C375.659 280.347 375.729 279.055 375.729 277.598C375.729 277.509 375.748 277.446 375.786 277.408C375.837 277.357 375.894 277.332 375.957 277.332L376.793 277.37C376.958 277.37 377.04 277.459 377.04 277.636ZM382.303 282.842V276.895C382.303 276.718 382.392 276.629 382.569 276.629H383.291C383.468 276.629 383.557 276.718 383.557 276.895V292.836C383.557 293.013 383.468 293.102 383.291 293.102H382.569C382.392 293.102 382.303 293.013 382.303 292.836V283.982H379.491C379.326 283.982 379.244 283.906 379.244 283.754V283.07C379.244 282.918 379.326 282.842 379.491 282.842H382.303ZM386.92 293.558C386.92 293.735 386.831 293.824 386.654 293.824H385.932C385.755 293.824 385.666 293.735 385.666 293.558V276.572C385.666 276.395 385.755 276.306 385.932 276.306H386.654C386.831 276.306 386.92 276.395 386.92 276.572V293.558ZM397.758 285.407C397.112 285.407 396.428 285.337 395.706 285.198C394.997 285.046 394.338 284.812 393.73 284.495C393.135 284.166 392.641 283.748 392.248 283.241C391.868 282.722 391.678 282.088 391.678 281.341C391.678 280.594 391.868 279.967 392.248 279.46C392.641 278.941 393.135 278.523 393.73 278.206C394.338 277.877 394.997 277.642 395.706 277.503C396.428 277.364 397.112 277.294 397.758 277.294C398.417 277.294 399.107 277.364 399.829 277.503C400.551 277.642 401.204 277.877 401.786 278.206C402.382 278.523 402.869 278.941 403.249 279.46C403.642 279.967 403.838 280.594 403.838 281.341C403.838 282.088 403.642 282.722 403.249 283.241C402.869 283.748 402.382 284.166 401.786 284.495C401.204 284.812 400.551 285.046 399.829 285.198C399.107 285.337 398.417 285.407 397.758 285.407ZM397.758 278.51C397.315 278.51 396.821 278.548 396.276 278.624C395.744 278.7 395.238 278.846 394.756 279.061C394.288 279.264 393.889 279.555 393.559 279.935C393.243 280.302 393.084 280.777 393.084 281.36C393.084 281.943 393.243 282.418 393.559 282.785C393.889 283.152 394.288 283.444 394.756 283.659C395.238 283.862 395.744 284.001 396.276 284.077C396.821 284.153 397.315 284.191 397.758 284.191C398.176 284.191 398.658 284.153 399.202 284.077C399.747 284.001 400.254 283.862 400.722 283.659C401.204 283.444 401.609 283.152 401.938 282.785C402.268 282.418 402.432 281.943 402.432 281.36C402.432 280.777 402.268 280.302 401.938 279.935C401.609 279.555 401.204 279.264 400.722 279.061C400.254 278.846 399.747 278.7 399.202 278.624C398.658 278.548 398.176 278.51 397.758 278.51ZM401.634 285.92C401.698 285.92 401.755 285.952 401.805 286.015C401.856 286.066 401.881 286.129 401.881 286.205V289.682H405.871C405.935 289.682 405.998 289.707 406.061 289.758C406.125 289.796 406.156 289.853 406.156 289.929V290.575C406.156 290.638 406.125 290.695 406.061 290.746C405.998 290.797 405.935 290.822 405.871 290.822H389.721C389.645 290.822 389.576 290.797 389.512 290.746C389.462 290.695 389.436 290.638 389.436 290.575V289.929C389.436 289.853 389.462 289.796 389.512 289.758C389.576 289.707 389.645 289.682 389.721 289.682H393.654V286.205C393.654 286.129 393.673 286.066 393.711 286.015C393.762 285.952 393.825 285.92 393.901 285.92H394.699C394.763 285.92 394.82 285.952 394.87 286.015C394.921 286.066 394.946 286.129 394.946 286.205V289.682H400.589V286.205C400.589 286.129 400.608 286.066 400.646 286.015C400.697 285.952 400.76 285.92 400.836 285.92H401.634ZM408.786 291.924C408.786 291.658 408.875 291.436 409.052 291.259C409.242 291.069 409.47 290.974 409.736 290.974C410.002 290.974 410.224 291.069 410.401 291.259C410.591 291.436 410.686 291.658 410.686 291.924C410.686 292.19 410.591 292.412 410.401 292.589C410.224 292.779 410.002 292.874 409.736 292.874C409.47 292.874 409.242 292.779 409.052 292.589C408.875 292.412 408.786 292.19 408.786 291.924Z" fill="#2A6092"/>
<defs>
<clipPath id="clip0">
<rect width="108.034" height="108.034" fill="white" transform="translate(194.755 19.8818)"/>
</clipPath>
</defs>
</svg>
