<?xml version="1.0" encoding="utf-8"?>
<!-- Generator: Adobe Illustrator 25.2.1, SVG Export Plug-In . SVG Version: 6.00 Build 0)  -->
<svg version="1.1" id="Layer_1" focusable="false" xmlns="http://www.w3.org/2000/svg" xmlns:xlink="http://www.w3.org/1999/xlink"
	 x="0px" y="0px" viewBox="0 0 512 512" style="enable-background:new 0 0 512 512;" xml:space="preserve">
<style type="text/css">
	.st0{fill:#FFFFFF;}
</style>
<path class="st0" d="M157.5,272h37L176,218.8L157.5,272z M352,256c-13.2,0-24,10.8-24,24s10.8,24,24,24s24-10.8,24-24
	S365.2,256,352,256z M464,64H48C21.5,64,0,85.5,0,112v288c0,26.5,21.5,48,48,48h416c26.5,0,48-21.5,48-48V112
	C512,85.5,490.5,64,464,64z M250.6,352h-16.9c-6.8,0-12.9-4.3-15.1-10.8l-7.4-21.2h-70.3l-7.4,21.2c-2.2,6.4-8.3,10.8-15.1,10.8
	h-16.9c-11,0-18.7-10.9-15.1-21.2L140,176.1c3.4-9.7,12.5-16.1,22.7-16.1h26.7c10.2,0,19.3,6.5,22.7,16.1l53.7,154.6
	C269.3,341.1,261.6,352,250.6,352z M424,336c0,8.8-7.2,16-16,16h-16c-4.9,0-9-2.3-12-5.7c-8.6,3.7-18.1,5.7-28,5.7
	c-39.7,0-72-32.3-72-72s32.3-72,72-72c8.5,0,16.5,1.7,24,4.4V176c0-8.8,7.2-16,16-16h16c8.8,0,16,7.2,16,16V336z"/>
</svg>
