<svg xmlns="http://www.w3.org/2000/svg" viewBox="0 0 160.36111 9.62413"><defs><style>.cls-1{fill:#fff;}</style></defs><g id="레이어_2" data-name="레이어 2"><g id="레이어_1-2" data-name="레이어 1"><path class="cls-1" d="M6.47021,5.044l-.019.16992A2.97184,2.97184,0,0,1,3.42871,8.10449C1.25635,8.10449,0,6.22461,0,4.08008,0,1.9082,1.25635.04785,3.42871.04785c1.57715,0,2.91846.85938,3.01318,2.37988l.00928.15137h-1.124l-.00928-.17969A1.77675,1.77675,0,0,0,3.42871.92578C1.86084.916,1.124,2.46582,1.124,4.08008c0,1.59668.73682,3.127,2.30469,3.127,1.16162,0,1.79443-.77441,1.91748-1.9834l.019-.17968Z"/><path class="cls-1" d="M10.52393,8.15137c-2.15332,0-3.40967-1.90821-3.40967-4.08008C7.11426,1.89844,8.37061,0,10.52393,0s3.40039,1.89844,3.40039,4.07129C13.92432,6.24316,12.67725,8.15137,10.52393,8.15137Zm0-7.28223c-1.5586,0-2.28565,1.56836-2.28565,3.20215,0,1.61523.72705,3.20215,2.28565,3.20215s2.28564-1.59668,2.28564-3.20215C12.80957,2.44629,12.08252.86914,10.52393.86914Z"/><path class="cls-1" d="M17.69531,8.11328c-1.57763.00977-2.99414-.68945-2.99414-2.47461V5.44043h1.1333v.19824c0,1.2002.78369,1.59668,1.9458,1.59668,1.30323,0,1.63379-.80273,1.63379-1.37012a1.026,1.026,0,0,0-.66113-1.0957,19.83165,19.83165,0,0,0-2.19141-.66113A1.83747,1.83747,0,0,1,14.9751,2.28613,2.35649,2.35649,0,0,1,17.60059.04785c1.43554,0,2.74853.69824,2.74853,2.21875V2.418H19.20654V2.24805c0-.97266-.64258-1.32227-1.67187-1.332a1.29357,1.29357,0,0,0-1.417,1.19043,1.14919,1.14919,0,0,0,.9165,1.15234c.12256.02832,1.74707.48144,2.125.59473a1.92345,1.92345,0,0,1,1.398,1.87011C20.55713,7.46191,19.06445,8.11328,17.69531,8.11328Z"/><path class="cls-1" d="M26.84961,1.03906H24.50732v6.999H23.37354v-6.999H21.022V.10449h5.82764Z"/><path class="cls-1" d="M33.40674,4.96875h-1.832V8.03809H30.43164V.10449h2.9751a2.44143,2.44143,0,1,1,0,4.86426ZM33.35986.98242H31.57471V4.08984h1.75683a1.56121,1.56121,0,0,0,1.57715-1.55859A1.4226,1.4226,0,0,0,33.35986.98242Z"/><path class="cls-1" d="M42.42871,8.02832H37.14893V.10449h5.21386v.93457H38.30127V3.49512h3.74951v.88769H38.30127V7.09375h4.12744Z"/><path class="cls-1" d="M48.55127,7.94336a2.47048,2.47048,0,0,1-.19824-1.0957c-.02832-1.71875-.66114-2.15332-1.81348-2.15332H44.71631V7.93457H43.53564V.11328h3.34375c1.36963,0,2.67286.78418,2.67286,2.09668,0,1.44531-.86866,1.7666-1.02,2.09766a1.71614,1.71614,0,0,1,.88818,1.5957,3.53827,3.53827,0,0,0,.33984,2.04ZM46.73779.98242H44.71631V3.91016h2.04053c1.25586,0,1.60546-.585,1.60546-1.49219C48.3623,1.332,47.72949.98242,46.73779.98242Z"/><path class="cls-1" d="M55.83545,1.0293H51.97217V3.50391h3.39062v.89746H51.97217V8.03809H50.81982V.10449h5.01563Z"/><path class="cls-1" d="M59.83252,8.15137c-2.15332,0-3.40967-1.90821-3.40967-4.08008C56.42285,1.89844,57.6792,0,59.83252,0s3.40039,1.89844,3.40039,4.07129C63.23291,6.24316,61.98584,8.15137,59.83252,8.15137Zm0-7.28223c-1.55859,0-2.28564,1.56836-2.28564,3.20215,0,1.61523.727,3.20215,2.28564,3.20215s2.28564-1.59668,2.28564-3.20215C62.11816,2.44629,61.39111.86914,59.83252.86914Z"/><path class="cls-1" d="M69.43066,7.94336a2.47076,2.47076,0,0,1-.19824-1.0957c-.02832-1.71875-.66113-2.15332-1.81347-2.15332H65.5957V7.93457H64.415V.11328h3.34375c1.36963,0,2.67285.78418,2.67285,2.09668,0,1.44531-.86865,1.7666-1.02,2.09766a1.71611,1.71611,0,0,1,.88818,1.5957,3.53825,3.53825,0,0,0,.33985,2.04ZM67.61719.98242H65.5957V3.91016h2.04053c1.25586,0,1.60547-.585,1.60547-1.49219C69.2417,1.332,68.60889.98242,67.61719.98242Z"/><path class="cls-1" d="M79.04785,8.02832H77.99023V1.07715L75.83691,8.02832h-.93505L72.73877,1.06738V8.02832H71.69043V.10449H73.334l2.0586,6.65821L77.40479.10449h1.64306Z"/><path class="cls-1" d="M86.85156,8.03809H85.60547l-.709-2.34278H81.78906l-.708,2.34278H79.88086L82.7334.10449h1.27539ZM84.56641,4.90234,83.36621.96387,82.12012,4.90234Z"/><path class="cls-1" d="M93.749,8.03809h-1.2373L88.99805,1.4834V8.03809H87.92188V.10449H89.168l3.49512,6.53613V.10449H93.749Z"/><path class="cls-1" d="M101.28809,5.044l-.01856.16992a2.97184,2.97184,0,0,1-3.02246,2.89062c-2.17187,0-3.42871-1.87988-3.42871-4.02441,0-2.17188,1.25684-4.03223,3.42871-4.03223,1.57715,0,2.919.85938,3.0127,2.37988l.00976.15137h-1.124l-.00977-.17969A1.77589,1.77589,0,0,0,98.24707.92578c-1.56738-.00976-2.30469,1.54-2.30469,3.1543,0,1.59668.73731,3.127,2.30469,3.127,1.16211,0,1.79492-.77441,1.917-1.9834l.01953-.17968Z"/><path class="cls-1" d="M107.65723,8.02832h-5.28028V.10449h5.21387v.93457H103.5293V3.49512h3.75v.88769h-3.75V7.09375h4.12793Z"/><path class="cls-1" d="M114.28027,4.96875h-1.833V8.03809h-1.14258V.10449h2.97558a2.44135,2.44135,0,1,1,0,4.86426ZM114.23242.98242h-1.78515V4.08984h1.75683a1.56092,1.56092,0,0,0,1.57715-1.55859A1.42239,1.42239,0,0,0,114.23242.98242Z"/><path class="cls-1" d="M122.83008,8.03809H117.8623V.10449h1.16114V7.10254h3.80664Z"/><path class="cls-1" d="M130.33105,8.03809H129.085l-.709-2.34278h-3.10743l-.708,2.34278h-1.2002l2.85254-7.9336h1.27539ZM128.0459,4.90234,126.8457.96387l-1.24609,3.93847Z"/><path class="cls-1" d="M137.22852,8.03809h-1.23731L132.47754,1.4834V8.03809h-1.07617V.10449h1.24609l3.49512,6.53613V.10449h1.08594Z"/><path class="cls-1" d="M144.53982,6.61631a1.804,1.804,0,0,1-1.92676,1.71094c-1.30566,0-2.08007-.94531-2.08007-2.458,0-1.44043.76562-2.457,2.07128-2.457a1.77772,1.77772,0,0,1,1.89063,1.62891h-.7207a1.09586,1.09586,0,0,0-1.16993-.999c-.96386,0-1.35058.80078-1.35058,1.82714,0,1.126.44141,1.82813,1.35937,1.82813a1.12872,1.12872,0,0,0,1.19727-1.08106Z"/><path class="cls-1" d="M147.58963,8.32725a2.207,2.207,0,0,1-2.125-2.458,2.14743,2.14743,0,1,1,4.25,0A2.207,2.207,0,0,1,147.58963,8.32725Zm0-4.27636c-.82813,0-1.4043.70214-1.4043,1.81835s.57617,1.81934,1.4043,1.81934,1.40429-.70312,1.40429-1.81934S148.41775,4.05089,147.58963,4.05089Z"/><path class="cls-1" d="M153.05252,4.24034c-.93653-.07227-1.44043.63867-1.44043,1.5664V8.19249h-.71973V3.547h.71973v.73828a1.4645,1.4645,0,0,1,1.44043-.792Z"/><path class="cls-1" d="M156.1492,8.32725a1.60535,1.60535,0,0,1-1.42285-.76562v2.0625h-.71973V3.547h.71973v.6123a1.54826,1.54826,0,0,1,1.42285-.74707c1.19726,0,2.0166.88184,2.0166,2.457C158.1658,7.44542,157.34646,8.32725,156.1492,8.32725Zm-.06348-4.27636c-.88184,0-1.35937.7832-1.35937,1.81835s.47753,1.81934,1.35937,1.81934c.88281,0,1.35938-.78418,1.35938-1.81934S156.96853,4.05089,156.08572,4.05089Z"/><path class="cls-1" d="M160.36111,8.91221H159.3074V7.83214h1.05371Z"/></g></g></svg>