<svg xmlns="http://www.w3.org/2000/svg" viewBox="0 0 44.4082 33.85881"><defs><style>.cls-1{fill:#fff;}</style></defs><g id="레이어_2" data-name="레이어 2"><g id="레이어_1-2" data-name="레이어 1"><path class="cls-1" d="M14.23762,28.82783a14.24136,14.24136,0,0,1-5.54287-27.356A14.25246,14.25246,0,0,1,27.35567,9.04666l-3.84381,1.62706a10.05146,10.05146,0,1,0,0,7.83264l3.84381,1.62638a14.22814,14.22814,0,0,1-13.118,8.69509Z"/><rect class="cls-1" x="28.84787" y="3.06866" width="4.17397" height="30.79015"/><path class="cls-1" d="M43.28862,8.69543a14.20713,14.20713,0,0,0-20.13189-6.847,15.32961,15.32961,0,0,1,3.259,3.05192,10.06545,10.06545,0,0,1,7.671,18.61115,10.09381,10.09381,0,0,1-7.25247.22232,15.43137,15.43137,0,0,1-3.12165,3.192c.29977.15252.60344.29832.9151.4302A14.24467,14.24467,0,0,0,43.28862,8.69543Z"/></g></g></svg>