<?xml version="1.0" encoding="utf-8"?>
<!-- Generator: Adobe Illustrator 25.2.1, SVG Export Plug-In . SVG Version: 6.00 Build 0)  -->
<svg version="1.1" id="Layer_1" xmlns="http://www.w3.org/2000/svg" xmlns:xlink="http://www.w3.org/1999/xlink" x="0px" y="0px"
	 viewBox="0 0 56.7 56.7" style="enable-background:new 0 0 56.7 56.7;" xml:space="preserve">
<style type="text/css">
	.st0{fill:none;}
	.st1{fill:url(#grad1);}

</style>
<defs>
<linearGradient id="grad1" x1="10%" y1="10%" x2="0%" y2="100%">
<stop offset="0%" style="stop-color:rgb(131,58,180);stop-opacity:1" />
<stop offset="50%" style="stop-color:rgb(253,29,29);stop-opacity:1" />
<stop offset="100%" style="stop-color:rgb(252,166,66);stop-opacity:1" />
</linearGradient>
</defs>
<g>
	<path class="st0" d="M1850,549.5v26.1c0-14.3,11.6-26,26-26c14.3,0,26,11.6,26,26c0,14.3-11.6,26-26,26c-14.3,0-26-11.6-26-26v26.1
		h52v-52.1H1850z"/>
	<path class="st1" d="M1875.9,601.5c14.3,0,26-11.6,26-26c0-14.3-11.6-26-26-26c-14.3,0-26,11.6-26,26
		C1850,589.9,1861.6,601.5,1875.9,601.5z M1866.3,570.5h5.6v-6.2c0-10.5,13.7-7.6,13.7-7.6v6.2h-3.5c-3.4,0-3.2,3.3-3.2,3.3v4.3h6.7
		l-0.9,7.1h-5.8v17.2h-7v-17.2h-5.6V570.5z"/>
</g>
<g>
	<path class="st0" d="M2.3,2.3v26.1c0-14.3,11.6-26,26-26c14.3,0,26,11.6,26,26s-11.6,26-26,26c-14.3,0-26-11.6-26-26v26.1h52V2.3
		H2.3z"/>
	<path class="st1" d="M16.8,37.4c0.5,1.1,1.3,1.9,2.3,2.4c0.8,0.4,1.7,0.6,2.6,0.7c1,0.1,1.9,0.1,2.9,0.1c2.9,0,5.9,0,8.8,0
		c0,0,0,0,0,0c0.6,0,1.3-0.1,1.9-0.1c0.9-0.1,1.8-0.3,2.6-0.8c0.9-0.5,1.5-1.2,2-2.1c0.4-0.8,0.6-1.7,0.7-2.5
		c0.1-0.9,0.1-1.7,0.1-2.6c0-2.9,0-5.9-0.1-8.8c0-1,0-2-0.2-3c-0.2-1.1-0.7-2-1.4-2.8c-0.7-0.7-1.5-1.1-2.5-1.3
		c-1.1-0.3-2.3-0.3-3.5-0.3c-3.3,0-6.5,0-9.8,0c-0.9,0-1.8,0.1-2.7,0.2c-1.3,0.3-2.5,0.9-3.3,2.1c-0.7,0.9-0.9,2-1,3.1
		c-0.1,1.2-0.1,2.3-0.1,3.5c0,1.1,0,2.2,0,3.2c0,2.1,0.1,4.3,0.1,6.4C16.2,35.7,16.4,36.6,16.8,37.4z M36.9,18.6
		c0.9,0,1.8,0.8,1.8,1.9c0,0.9-0.8,1.8-1.9,1.8c-0.9,0-1.9-0.8-1.8-1.8C34.9,19.5,35.8,18.5,36.9,18.6z M28.7,20.7
		c3.9,0.2,7.5,3.4,7.4,7.9c-0.1,4.1-3.4,7.6-7.9,7.5c-4.2,0-7.6-3.4-7.6-7.7C20.6,24.2,24,20.5,28.7,20.7z"/>
	<path class="st1" d="M28.1,33.3c3,0.2,5.3-2.3,5.2-4.9c0-2.8-2.2-5-5-5c-2.8,0-5,2.2-5,5C23.4,31.1,25.5,33.2,28.1,33.3z"/>
	<path class="st1" d="M28.3,54.3c14.3,0,26-11.6,26-26s-11.6-26-26-26c-14.3,0-26,11.6-26,26S14,54.3,28.3,54.3z M13.4,22.9
		c0-0.1,0.1-0.2,0.1-0.2c0-0.4,0-0.7,0.1-1.1c0-1,0.3-2,0.6-2.9c0.5-1.4,1.4-2.5,2.5-3.4c1.3-1,2.9-1.5,4.5-1.7
		c1-0.1,2.1-0.1,3.1-0.1c0.4,0,0.7,0,1.1,0c0.1,0,0.2,0,0.3-0.1c1.8,0,3.7,0,5.5,0c0.1,0,0.1,0.1,0.2,0.1c1,0,2,0,3,0.1
		c0.7,0,1.3,0.1,2,0.2c0.9,0.1,1.8,0.4,2.7,0.8c0.9,0.5,1.7,1.1,2.3,1.9c0.6,0.7,1,1.5,1.3,2.3c0.5,1.3,0.6,2.7,0.7,4
		c0,0.1,0,0.2,0.1,0.4c0,3.5,0,7.1,0,10.6c0,0-0.1,0.1-0.1,0.1c0,0.4,0,0.9-0.1,1.3c0,0.5-0.1,1.1-0.2,1.6c-0.4,1.7-1.1,3.2-2.5,4.4
		c-0.8,0.7-1.7,1.2-2.7,1.6c-1.3,0.5-2.7,0.6-4.1,0.6c-0.1,0-0.2,0-0.4,0.1c-3.4,0-6.8,0-10.2,0c-0.1,0-0.1-0.1-0.2-0.1
		c-0.8-0.1-1.7-0.1-2.5-0.2c-0.9-0.1-1.7-0.4-2.5-0.7c-1-0.5-1.8-1.1-2.5-1.9c-0.5-0.6-1-1.3-1.3-2c-0.6-1.4-0.8-2.8-0.8-4.3
		c0-0.1,0-0.2-0.1-0.3C13.4,30.2,13.4,26.5,13.4,22.9z"/>
</g>
<g>
	<path class="st0" d="M96.3,2.7v26.1c0-14.3,11.6-26,26-26c14.3,0,26,11.6,26,26c0,14.3-11.6,26-26,26c-14.3,0-26-11.6-26-26v26.1
		h52V2.7H96.3z"/>
	<path class="st1" d="M122.3,54.8c14.3,0,26-11.6,26-26c0-14.3-11.6-26-26-26c-14.3,0-26,11.6-26,26C96.3,43.1,108,54.8,122.3,54.8z
		 M112.7,23.7h5.6v-6.2C118.3,7.1,132,10,132,10v6.2h-3.5c-3.4,0-3.2,3.3-3.2,3.3v4.3h6.7l-0.9,7.1h-5.8V48h-7V30.8h-5.6V23.7z"/>
</g>
<g>
	<path class="st0" d="M184.3,2.7v26.1c0-14.3,11.6-26,26-26c14.3,0,26,11.6,26,26c0,14.3-11.6,26-26,26c-14.3,0-26-11.6-26-26v26.1
		h52V2.7H184.3z"/>
	<path class="st1" d="M212.2,33c0.9,0,2.8,0,3.7,0c0.9,0,0.9-1.8,0-1.8c-0.9,0-2.4,0-2.4,0s0-4.7,0-5.9c0-0.6-0.5-0.8-1-0.8
		c-0.5,0-1,0.3-1,0.8c0,1.6,0,6.7,0,6.7S211.3,33,212.2,33z"/>
	<path class="st1" d="M218.8,32.5c0-0.9,0-2.5,0-2.5l0.5-0.4l2.4,3.3c0.5,0.6,2-0.5,1.5-1.2l-2.6-3.4c0,0,1.7-1.9,2.4-2.6
		c0.4-0.4-0.8-1.6-1.2-1.2c-0.4,0.4-3.1,3.1-3.1,3.1s0-1.7,0-2.6c0-0.4-0.4-0.5-0.9-0.5c-0.5,0-1,0.2-1,0.6c0,0.7,0,7,0,7.5
		C217,33.3,218.8,33.3,218.8,32.5z"/>
	<path class="st1" d="M205,32.7l0.4-1.3l3.3,0c0,0-0.1,0.1,0.3,1.2c0.4,0.9,2.1,0.3,1.7-0.7c-0.5-1.4-2.3-6.2-2.6-6.9
		c-0.2-0.3-0.7-0.5-1.2-0.5c-0.4,0-0.8,0.2-1,0.5c-0.4,1-2.1,5.7-2.6,6.9C202.9,32.8,204.6,33.6,205,32.7z M207,26.5l1,3.2h-2.1
		L207,26.5z"/>
	<path class="st1" d="M210.3,54.8c14.3,0,26-11.6,26-26c0-14.3-11.6-26-26-26c-14.3,0-26,11.6-26,26C184.3,43.1,196,54.8,210.3,54.8
		z M210.4,13.7c9.7,0,17.5,6.2,17.5,13.8c0,7.6-7.8,13.8-17.5,13.8c-1.1,0-2.2-0.1-3.2-0.2c-1.9,1.3-6.4,4.4-6.7,4.6
		c-0.4,0.3-1,0.3-0.7-0.7c0.2-0.8,1.2-4.4,1.5-5.7c-5-2.4-8.3-6.8-8.3-11.8C192.9,19.9,200.7,13.7,210.4,13.7z"/>
	<path class="st1" d="M198.1,26.1h1.8c0,0,0,5.1,0,6.2c0,0.9,1.9,0.9,1.9,0l0-6.1c0,0,0.6-0.1,1.8-0.1c1.1,0,1.1-1.9,0-1.9h-5.5
		C197,24.2,197,26.1,198.1,26.1z"/>
</g>

</svg>
