<?xml version="1.0" encoding="utf-8"?>
<!-- Generator: Adobe Illustrator 25.2.1, SVG Export Plug-In . SVG Version: 6.00 Build 0)  -->
<svg version="1.1" id="Layer_1" xmlns="http://www.w3.org/2000/svg" xmlns:xlink="http://www.w3.org/1999/xlink" x="0px" y="0px"
	 viewBox="0 0 56.7 56.7" style="enable-background:new 0 0 56.7 56.7;" xml:space="preserve">
<style type="text/css">
	.st0{fill:none;}
	.st1{fill:#FFFFFF;}
</style>
<g>
	<path class="st0" d="M1668,549.5v26.1c0-14.3,11.6-26,26-26c14.3,0,26,11.6,26,26c0,14.3-11.6,26-26,26c-14.3,0-26-11.6-26-26v26.1
		h52v-52.1H1668z"/>
	<path class="st1" d="M1693.9,601.5c14.3,0,26-11.6,26-26c0-14.3-11.6-26-26-26c-14.3,0-26,11.6-26,26
		C1668,589.9,1679.6,601.5,1693.9,601.5z M1684.3,570.5h5.6v-6.2c0-10.5,13.7-7.6,13.7-7.6v6.2h-3.5c-3.4,0-3.2,3.3-3.2,3.3v4.3h6.7
		l-0.9,7.1h-5.8v17.2h-7v-17.2h-5.6V570.5z"/>
</g>
<g>
	<path class="st0" d="M-179.7,2.3v26.1c0-14.3,11.6-26,26-26c14.3,0,26,11.6,26,26s-11.6,26-26,26c-14.3,0-26-11.6-26-26v26.1h52
		V2.3H-179.7z"/>
	<path class="st1" d="M-165.2,37.4c0.5,1.1,1.3,1.9,2.3,2.4c0.8,0.4,1.7,0.6,2.6,0.7c1,0.1,1.9,0.1,2.9,0.1c2.9,0,5.9,0,8.8,0
		c0,0,0,0,0,0c0.6,0,1.3-0.1,1.9-0.1c0.9-0.1,1.8-0.3,2.6-0.8c0.9-0.5,1.5-1.2,2-2.1c0.4-0.8,0.6-1.7,0.7-2.5
		c0.1-0.9,0.1-1.7,0.1-2.6c0-2.9,0-5.9-0.1-8.8c0-1,0-2-0.2-3c-0.2-1.1-0.7-2-1.4-2.8c-0.7-0.7-1.5-1.1-2.5-1.3
		c-1.1-0.3-2.3-0.3-3.5-0.3c-3.3,0-6.5,0-9.8,0c-0.9,0-1.8,0.1-2.7,0.2c-1.3,0.3-2.5,0.9-3.3,2.1c-0.7,0.9-0.9,2-1,3.1
		c-0.1,1.2-0.1,2.3-0.1,3.5c0,1.1,0,2.2,0,3.2c0,2.1,0.1,4.3,0.1,6.4C-165.8,35.7-165.6,36.6-165.2,37.4z M-145.1,18.6
		c0.9,0,1.8,0.8,1.8,1.9c0,0.9-0.8,1.8-1.9,1.8c-0.9,0-1.9-0.8-1.8-1.8C-147.1,19.5-146.2,18.5-145.1,18.6z M-153.3,20.7
		c3.9,0.2,7.5,3.4,7.4,7.9c-0.1,4.1-3.4,7.6-7.9,7.5c-4.2,0-7.6-3.4-7.6-7.7C-161.4,24.2-158,20.5-153.3,20.7z"/>
	<path class="st1" d="M-153.9,33.3c3,0.2,5.3-2.3,5.2-4.9c0-2.8-2.2-5-5-5c-2.8,0-5,2.2-5,5C-158.6,31.1-156.5,33.2-153.9,33.3z"/>
	<path class="st1" d="M-153.7,54.3c14.3,0,26-11.6,26-26s-11.6-26-26-26c-14.3,0-26,11.6-26,26S-168,54.3-153.7,54.3z M-168.6,22.9
		c0-0.1,0.1-0.2,0.1-0.2c0-0.4,0-0.7,0.1-1.1c0-1,0.3-2,0.6-2.9c0.5-1.4,1.4-2.5,2.5-3.4c1.3-1,2.9-1.5,4.5-1.7
		c1-0.1,2.1-0.1,3.1-0.1c0.4,0,0.7,0,1.1,0c0.1,0,0.2,0,0.3-0.1c1.8,0,3.7,0,5.5,0c0.1,0,0.1,0.1,0.2,0.1c1,0,2,0,3,0.1
		c0.7,0,1.3,0.1,2,0.2c0.9,0.1,1.8,0.4,2.7,0.8c0.9,0.5,1.7,1.1,2.3,1.9c0.6,0.7,1,1.5,1.3,2.3c0.5,1.3,0.6,2.7,0.7,4
		c0,0.1,0,0.2,0.1,0.4c0,3.5,0,7.1,0,10.6c0,0-0.1,0.1-0.1,0.1c0,0.4,0,0.9-0.1,1.3c0,0.5-0.1,1.1-0.2,1.6c-0.4,1.7-1.1,3.2-2.5,4.4
		c-0.8,0.7-1.7,1.2-2.7,1.6c-1.3,0.5-2.7,0.6-4.1,0.6c-0.1,0-0.2,0-0.4,0.1c-3.4,0-6.8,0-10.2,0c-0.1,0-0.1-0.1-0.2-0.1
		c-0.8-0.1-1.7-0.1-2.5-0.2c-0.9-0.1-1.7-0.4-2.5-0.7c-1-0.5-1.8-1.1-2.5-1.9c-0.5-0.6-1-1.3-1.3-2c-0.6-1.4-0.8-2.8-0.8-4.3
		c0-0.1,0-0.2-0.1-0.3C-168.6,30.2-168.6,26.5-168.6,22.9z"/>
</g>
<g>
	<path class="st0" d="M-85.7,2.3v26.1c0-14.3,11.6-26,26-26c14.3,0,26,11.6,26,26c0,14.3-11.6,26-26,26c-14.3,0-26-11.6-26-26v26.1
		h52V2.3H-85.7z"/>
	<path class="st1" d="M-59.7,54.3c14.3,0,26-11.6,26-26c0-14.3-11.6-26-26-26c-14.3,0-26,11.6-26,26C-85.7,42.7-74,54.3-59.7,54.3z
		 M-69.3,23.3h5.6v-6.2C-63.7,6.6-50,9.5-50,9.5v6.2h-3.5c-3.4,0-3.2,3.3-3.2,3.3v4.3h6.7l-0.9,7.1h-5.8v17.2h-7V30.3h-5.6V23.3z"/>
</g>
<g>
	<path class="st0" d="M2.3,2.3v26.1c0-14.3,11.6-26,26-26c14.3,0,26,11.6,26,26c0,14.3-11.6,26-26,26c-14.3,0-26-11.6-26-26v26.1h52
		V2.3H2.3z"/>
	<path class="st1" d="M30.2,32.6c0.9,0,2.8,0,3.7,0c0.9,0,0.9-1.8,0-1.8c-0.9,0-2.4,0-2.4,0s0-4.7,0-5.9c0-0.6-0.5-0.8-1-0.8
		c-0.5,0-1,0.3-1,0.8c0,1.6,0,6.7,0,6.7S29.3,32.6,30.2,32.6z"/>
	<path class="st1" d="M36.8,32.1c0-0.9,0-2.5,0-2.5l0.5-0.4l2.4,3.3c0.5,0.6,2-0.5,1.5-1.2l-2.6-3.4c0,0,1.7-1.9,2.4-2.6
		c0.4-0.4-0.8-1.6-1.2-1.2c-0.4,0.4-3.1,3.1-3.1,3.1s0-1.7,0-2.6c0-0.4-0.4-0.5-0.9-0.5c-0.5,0-1,0.2-1,0.6c0,0.7,0,7,0,7.5
		C35,32.8,36.8,32.8,36.8,32.1z"/>
	<path class="st1" d="M23,32.2l0.4-1.3l3.3,0c0,0-0.1,0.1,0.3,1.2c0.4,0.9,2.1,0.3,1.7-0.7c-0.5-1.4-2.3-6.2-2.6-6.9
		C26,24.3,25.4,24,24.9,24c-0.4,0-0.8,0.2-1,0.5c-0.4,1-2.1,5.7-2.6,6.9C20.9,32.4,22.6,33.1,23,32.2z M25,26.1l1,3.2h-2.1L25,26.1z
		"/>
	<path class="st1" d="M28.3,54.3c14.3,0,26-11.6,26-26c0-14.3-11.6-26-26-26c-14.3,0-26,11.6-26,26C2.3,42.7,14,54.3,28.3,54.3z
		 M28.4,13.3c9.7,0,17.5,6.2,17.5,13.8c0,7.6-7.8,13.8-17.5,13.8c-1.1,0-2.2-0.1-3.2-0.2c-1.9,1.3-6.4,4.4-6.7,4.6
		c-0.4,0.3-1,0.3-0.7-0.7c0.2-0.8,1.2-4.4,1.5-5.7c-5-2.4-8.3-6.8-8.3-11.8C10.9,19.5,18.7,13.3,28.4,13.3z"/>
	<path class="st1" d="M16.1,25.6h1.8c0,0,0,5.1,0,6.2c0,0.9,1.9,0.9,1.9,0l0-6.1c0,0,0.6-0.1,1.8-0.1c1.1,0,1.1-1.9,0-1.9h-5.5
		C15,23.7,15,25.6,16.1,25.6z"/>
</g>
</svg>
