<?xml version="1.0" encoding="utf-8"?>
<!-- Generator: Adobe Illustrator 25.2.1, SVG Export Plug-In . SVG Version: 6.00 Build 0)  -->
<svg version="1.1" id="Layer_1" xmlns="http://www.w3.org/2000/svg" xmlns:xlink="http://www.w3.org/1999/xlink" x="0px" y="0px"
	 viewBox="0 0 56.7 56.7" style="enable-background:new 0 0 56.7 56.7;" xml:space="preserve">
<style type="text/css">
	.st0{fill:none;}
	.st1{fill:#FFFFFF;}
</style>
<g>
	<path class="st0" d="M1935.4,549.5v26.1c0-14.3,11.6-26,26-26c14.3,0,26,11.6,26,26c0,14.3-11.6,26-26,26c-14.3,0-26-11.6-26-26
		v26.1h52v-52.1H1935.4z"/>
	<path class="st1" d="M1961.4,601.5c14.3,0,26-11.6,26-26c0-14.3-11.6-26-26-26c-14.3,0-26,11.6-26,26
		C1935.4,589.9,1947,601.5,1961.4,601.5z M1951.8,570.5h5.6v-6.2c0-10.5,13.7-7.6,13.7-7.6v6.2h-3.5c-3.4,0-3.2,3.3-3.2,3.3v4.3h6.7
		l-0.9,7.1h-5.8v17.2h-7v-17.2h-5.6V570.5z"/>
</g>
<g>
	<path class="st0" d="M87.8,2.3v26.1c0-14.3,11.6-26,26-26c14.3,0,26,11.6,26,26s-11.6,26-26,26c-14.3,0-26-11.6-26-26v26.1h52V2.3
		H87.8z"/>
	<path class="st1" d="M102.3,37.4c0.5,1.1,1.3,1.9,2.3,2.4c0.8,0.4,1.7,0.6,2.6,0.7c1,0.1,1.9,0.1,2.9,0.1c2.9,0,5.9,0,8.8,0
		c0,0,0,0,0,0c0.6,0,1.3-0.1,1.9-0.1c0.9-0.1,1.8-0.3,2.6-0.8c0.9-0.5,1.5-1.2,2-2.1c0.4-0.8,0.6-1.7,0.7-2.5
		c0.1-0.9,0.1-1.7,0.1-2.6c0-2.9,0-5.9-0.1-8.8c0-1,0-2-0.2-3c-0.2-1.1-0.7-2-1.4-2.8c-0.7-0.7-1.5-1.1-2.5-1.3
		c-1.1-0.3-2.3-0.3-3.5-0.3c-3.3,0-6.5,0-9.8,0c-0.9,0-1.8,0.1-2.7,0.2c-1.3,0.3-2.5,0.9-3.3,2.1c-0.7,0.9-0.9,2-1,3.1
		c-0.1,1.2-0.1,2.3-0.1,3.5c0,1.1,0,2.2,0,3.2c0,2.1,0.1,4.3,0.1,6.4C101.7,35.7,101.9,36.6,102.3,37.4z M122.3,18.6
		c0.9,0,1.8,0.8,1.8,1.9c0,0.9-0.8,1.8-1.9,1.8c-0.9,0-1.9-0.8-1.8-1.8C120.3,19.5,121.3,18.5,122.3,18.6z M114.2,20.7
		c3.9,0.2,7.5,3.4,7.4,7.9c-0.1,4.1-3.4,7.6-7.9,7.5c-4.2,0-7.6-3.4-7.6-7.7C106.1,24.2,109.5,20.5,114.2,20.7z"/>
	<path class="st1" d="M113.5,33.3c3,0.2,5.3-2.3,5.2-4.9c0-2.8-2.2-5-5-5c-2.8,0-5,2.2-5,5C108.8,31.1,110.9,33.2,113.5,33.3z"/>
	<path class="st1" d="M113.8,54.3c14.3,0,26-11.6,26-26s-11.6-26-26-26c-14.3,0-26,11.6-26,26S99.4,54.3,113.8,54.3z M98.8,22.9
		c0-0.1,0.1-0.2,0.1-0.2c0-0.4,0-0.7,0.1-1.1c0-1,0.3-2,0.6-2.9c0.5-1.4,1.4-2.5,2.5-3.4c1.3-1,2.9-1.5,4.5-1.7
		c1-0.1,2.1-0.1,3.1-0.1c0.4,0,0.7,0,1.1,0c0.1,0,0.2,0,0.3-0.1c1.8,0,3.7,0,5.5,0c0.1,0,0.1,0.1,0.2,0.1c1,0,2,0,3,0.1
		c0.7,0,1.3,0.1,2,0.2c0.9,0.1,1.8,0.4,2.7,0.8c0.9,0.5,1.7,1.1,2.3,1.9c0.6,0.7,1,1.5,1.3,2.3c0.5,1.3,0.6,2.7,0.7,4
		c0,0.1,0,0.2,0.1,0.4c0,3.5,0,7.1,0,10.6c0,0-0.1,0.1-0.1,0.1c0,0.4,0,0.9-0.1,1.3c0,0.5-0.1,1.1-0.2,1.6c-0.4,1.7-1.1,3.2-2.5,4.4
		c-0.8,0.7-1.7,1.2-2.7,1.6c-1.3,0.5-2.7,0.6-4.1,0.6c-0.1,0-0.2,0-0.4,0.1c-3.4,0-6.8,0-10.2,0c-0.1,0-0.1-0.1-0.2-0.1
		c-0.8-0.1-1.7-0.1-2.5-0.2c-0.9-0.1-1.7-0.4-2.5-0.7c-1-0.5-1.8-1.1-2.5-1.9c-0.5-0.6-1-1.3-1.3-2c-0.6-1.4-0.8-2.8-0.8-4.3
		c0-0.1,0-0.2-0.1-0.3C98.8,30.2,98.8,26.5,98.8,22.9z"/>
</g>
<g>
	<path class="st0" d="M181.8,2.3v26.1c0-14.3,11.6-26,26-26c14.3,0,26,11.6,26,26c0,14.3-11.6,26-26,26c-14.3,0-26-11.6-26-26v26.1
		h52V2.3H181.8z"/>
	<path class="st1" d="M207.8,54.3c14.3,0,26-11.6,26-26c0-14.3-11.6-26-26-26c-14.3,0-26,11.6-26,26
		C181.8,42.7,193.4,54.3,207.8,54.3z M198.2,23.3h5.6v-6.2c0-10.5,13.7-7.6,13.7-7.6v6.2H214c-3.4,0-3.2,3.3-3.2,3.3v4.3h6.7
		l-0.9,7.1h-5.8v17.2h-7V30.3h-5.6V23.3z"/>
</g>
<g>
	<path class="st0" d="M269.8,2.3v26.1c0-14.3,11.6-26,26-26c14.3,0,26,11.6,26,26c0,14.3-11.6,26-26,26c-14.3,0-26-11.6-26-26v26.1
		h52V2.3H269.8z"/>
	<path class="st1" d="M297.6,32.6c0.9,0,2.8,0,3.7,0c0.9,0,0.9-1.8,0-1.8c-0.9,0-2.4,0-2.4,0s0-4.7,0-5.9c0-0.6-0.5-0.8-1-0.8
		c-0.5,0-1,0.3-1,0.8c0,1.6,0,6.7,0,6.7S296.8,32.6,297.6,32.6z"/>
	<path class="st1" d="M304.3,32.1c0-0.9,0-2.5,0-2.5l0.5-0.4l2.4,3.3c0.5,0.6,2-0.5,1.5-1.2l-2.6-3.4c0,0,1.7-1.9,2.4-2.6
		c0.4-0.4-0.8-1.6-1.2-1.2c-0.4,0.4-3.1,3.1-3.1,3.1s0-1.7,0-2.6c0-0.4-0.4-0.5-0.9-0.5c-0.5,0-1,0.2-1,0.6c0,0.7,0,7,0,7.5
		C302.4,32.8,304.3,32.8,304.3,32.1z"/>
	<path class="st1" d="M290.4,32.2l0.4-1.3l3.3,0c0,0-0.1,0.1,0.3,1.2c0.4,0.9,2.1,0.3,1.7-0.7c-0.5-1.4-2.3-6.2-2.6-6.9
		c-0.2-0.3-0.7-0.5-1.2-0.5c-0.4,0-0.8,0.2-1,0.5c-0.4,1-2.1,5.7-2.6,6.9C288.4,32.4,290,33.1,290.4,32.2z M292.5,26.1l1,3.2h-2.1
		L292.5,26.1z"/>
	<path class="st1" d="M295.8,54.3c14.3,0,26-11.6,26-26c0-14.3-11.6-26-26-26c-14.3,0-26,11.6-26,26
		C269.8,42.7,281.4,54.3,295.8,54.3z M295.8,13.3c9.7,0,17.5,6.2,17.5,13.8c0,7.6-7.8,13.8-17.5,13.8c-1.1,0-2.2-0.1-3.2-0.2
		c-1.9,1.3-6.4,4.4-6.7,4.6c-0.4,0.3-1,0.3-0.7-0.7c0.2-0.8,1.2-4.4,1.5-5.7c-5-2.4-8.3-6.8-8.3-11.8
		C278.3,19.5,286.1,13.3,295.8,13.3z"/>
	<path class="st1" d="M283.5,25.6h1.8c0,0,0,5.1,0,6.2c0,0.9,1.9,0.9,1.9,0l0-6.1c0,0,0.6-0.1,1.8-0.1c1.1,0,1.1-1.9,0-1.9h-5.5
		C282.5,23.7,282.5,25.6,283.5,25.6z"/>
</g>
<g>
	<path class="st0" d="M2.3,2.3v26.1c0-14.3,11.6-26,26-26c14.3,0,26,11.6,26,26c0,14.3-11.6,26-26,26c-14.3,0-26-11.6-26-26v26.1h52
		V2.3H2.3z"/>
	<polygon class="st1" points="25.3,22.1 25.3,33.4 33.9,27.8 	"/>
	<path class="st1" d="M28.2,54.3c14.3,0,26-11.6,26-26c0-14.3-11.6-26-26-26c-14.3,0-26,11.6-26,26C2.3,42.7,13.9,54.3,28.2,54.3z
		 M13.3,22.3c0-2.5,2-4.5,4.5-4.5h21c2.5,0,4.5,2,4.5,4.5h0v12c0,2.5-2,4.5-4.5,4.5h-21c-2.5,0-4.5-2-4.5-4.5V22.3z"/>
</g>
</svg>
