<svg width="100" height="113" viewBox="0 0 100 113" fill="none" xmlns="http://www.w3.org/2000/svg">
<path d="M54.5 61.5479C64.166 61.5479 72 58.2893 72 54.274C72 50.2586 64.166 47 54.5 47C44.834 47 37 50.2586 37 54.274C37 58.2893 44.834 61.5479 54.5 61.5479ZM54.5 73.1781C47.8213 73.1781 41.915 71.5761 38.1895 69.1014C37.4307 69.9195 37 70.7989 37 71.726C37 75.7414 44.834 79 54.5 79C64.166 79 72 75.7414 72 71.726C72 70.7989 71.5693 69.9195 70.8105 69.1082C67.085 71.5761 61.1787 73.1781 54.5 73.1781ZM54.5 64.4521C47.8213 64.4521 41.915 62.85 38.1895 60.3754C37.4307 61.1934 37 62.0729 37 63C37 67.0153 44.834 70.274 54.5 70.274C64.166 70.274 72 67.0153 72 63C72 62.0729 71.5693 61.1934 70.8105 60.3822C67.085 62.85 61.1787 64.4521 54.5 64.4521Z" fill="#F28EB2"/>
<path d="M54.5 81.4521C47.8213 81.4521 41.915 79.85 38.1895 77.3754C37.4307 78.1934 37 79.0729 37 80C37 84.0153 44.834 87.274 54.5 87.274C64.166 87.274 72 84.0153 72 80C72 79.0729 71.5693 78.1934 70.8105 77.3822C67.085 79.85 61.1787 81.4521 54.5 81.4521Z" fill="#F28EB2"/>
<path d="M30.7899 0C27.121 0 23.6025 1.61662 21.0082 4.49422C18.414 7.37182 16.9565 11.2747 16.9565 15.3442V32.813C16.9565 33.8304 17.3209 34.8061 17.9695 35.5255C18.618 36.2449 19.4977 36.6491 20.4149 36.6491C21.3321 36.6491 22.2117 36.2449 22.8603 35.5255C23.5089 34.8061 23.8732 33.8304 23.8732 32.813V15.3442C23.8732 13.3095 24.6019 11.358 25.8991 9.91922C27.1962 8.48042 28.9555 7.67211 30.7899 7.67211H62.979V29.5081C62.979 32.5603 64.0721 35.4874 66.0177 37.6456C67.9634 39.8038 70.6024 41.0163 73.354 41.0163H93.0399V97.3768C93.0399 99.4116 92.3112 101.363 91.014 102.802C89.7169 104.241 85.25 107.397 81.5 107.397H66.0177L52.979 108.397L51.3296 109.294C51.3296 112.721 55.7167 110.846 54.4196 109.407C53.1224 107.968 52.3937 108.703 52.3937 108.703L51.3296 109.294C51.3296 113.363 49.4565 111 49.4565 111C52.0508 113.878 47.6608 112.721 51.3296 112.721H86.1232C89.792 112.721 93.3106 111.104 95.9048 108.227C98.4991 105.349 99.9565 101.446 99.9565 97.3768V36.5204C99.9541 33.4693 98.8595 30.5441 96.9132 28.388L74.3638 3.36806C72.4188 1.21205 69.7818 0.000651219 67.0321 0H30.7899ZM91.6081 33.3442H73.354C72.4368 33.3442 71.5571 32.94 70.9086 32.2206C70.26 31.5012 69.8956 30.5255 69.8956 29.5081V9.26024L91.6081 33.3442Z" fill="#444444"/>
<path fill-rule="evenodd" clip-rule="evenodd" d="M13.2759 107.863V108.426C13.2759 109.639 12.794 110.803 11.9362 111.66C11.0784 112.518 9.91505 113 8.70197 113H4.57392C3.36084 113 2.19745 112.518 1.33967 111.66C0.481894 110.803 0 109.639 0 108.426V83.2809C0 82.0678 0.481894 80.9045 1.33967 80.0467C2.19745 79.1889 3.36084 78.707 4.57392 78.707H8.70197C9.73207 78.7066 10.7322 79.0538 11.5403 79.6926C12.3484 80.3314 12.9173 81.2243 13.1547 82.2266C16.1826 81.1358 19.7206 79.8368 20.8023 79.3428C21.7217 78.9243 22.7828 78.7825 23.6656 78.7299C24.5766 78.6857 25.4896 78.7017 26.3985 78.7779C27.4162 78.859 28.4297 78.9872 29.4356 79.1621L29.4882 79.1713L29.5042 79.1735H29.511L29.5522 79.1827L44.852 82.6131L44.9458 82.6452L44.9709 82.6543L45.0761 82.6863C45.7362 82.8798 46.4028 83.0499 47.0749 83.1963C48.3899 83.4822 50.048 83.7498 51.5917 83.7498C53.0187 83.7498 54.4961 84.2826 55.2828 85.728C55.9598 86.9675 55.802 88.3305 55.5504 89.2728C55.2325 90.4483 54.5784 91.6832 53.7483 92.7329C54.8689 92.3099 56.097 91.809 57.4143 91.2693L57.6956 91.1549C61.4073 89.6295 65.8074 84.6077 69.6907 83.9674C74.1274 83.2333 77.3543 84.8433 78.8179 87.6997C80.1215 90.2428 79.8196 93.5795 77.8574 95.5897C77.3657 96.0951 76.6156 96.6257 75.8632 97.1128C75.0582 97.6366 74.0679 98.2243 72.9679 98.8509C70.4408 100.266 67.8826 104.84 65.2951 106.141C59.8705 108.893 54.1851 111.568 52.3784 112.229C50.2835 112.995 48.0331 113.069 45.872 112.957C44.5668 112.876 43.2637 112.765 41.9636 112.625C40.9802 112.527 40.0036 112.431 39.1049 112.362C34.6956 112.028 31.3109 110.951 28.196 109.961L27.8164 109.839C24.5964 108.819 21.6004 107.912 17.6326 107.751C16.7269 107.715 14.9157 107.783 13.2759 107.861V107.863ZM22.6982 83.5051C22.8468 83.4364 23.2356 83.3381 23.9286 83.2969C24.5781 83.2581 25.319 83.2832 26.044 83.3381C26.9115 83.4079 27.7753 83.517 28.6329 83.6651H28.6397L43.6582 87.0338L43.7611 87.0658C44.5336 87.2932 45.314 87.4931 46.1007 87.665C47.4385 87.9578 49.2338 88.2642 51.0611 88.3168C50.898 88.757 50.6789 89.1744 50.4093 89.5586C50.0434 90.0892 49.6432 90.4986 49.3138 90.7341C48.3625 91.4156 47.5941 91.6992 47.1275 91.8204C46.9686 91.864 46.8065 91.8946 46.6427 91.9119H46.5924L34.3297 91.7656L33.8952 96.3029L34.0164 96.3258L34.3663 96.3875L35.6378 96.6116C36.7058 96.7992 38.1718 97.0507 39.7681 97.3114C42.9104 97.8237 46.6976 98.3909 48.8473 98.5212C50.3338 98.6127 52.0628 98.1553 53.6705 97.6179C55.3469 97.0576 57.2427 96.2823 59.1501 95.5002C63.0768 93.8901 67.0767 89.0353 70.4362 88.4796C73.3407 87.9993 74.3767 89.0604 74.7472 89.7854C75.28 90.826 74.9919 91.9809 74.5825 92.3971C74.4842 92.5 74.1251 92.7905 73.375 93.2776C72.6752 93.7281 71.7718 94.2701 70.7107 94.8716C68.2459 96.2515 65.751 100.792 63.2277 102.061C57.7573 104.836 52.3143 107.381 50.805 107.934C49.5837 108.383 48.072 108.49 46.1075 108.389C44.9458 108.33 43.8434 108.218 42.6428 108.094C41.5799 107.983 40.5156 107.885 39.4502 107.802C35.5806 107.509 32.6396 106.574 29.4859 105.572L29.2 105.48C25.9342 104.444 22.4398 103.367 17.8178 103.182C16.7772 103.141 14.9248 103.205 13.2759 103.283V87.043C16.4891 85.8926 21.2505 84.166 22.6982 83.5051ZM8.70197 83.2786H4.57392V108.424H8.70197V83.2809V83.2786Z" fill="#444444"/>
</svg>
