<svg width="84" height="113" viewBox="0 0 84 113" fill="none" xmlns="http://www.w3.org/2000/svg">
<path d="M14.7899 0C11.121 0 7.60249 1.61662 5.00823 4.49422C2.41398 7.37182 0.956543 11.2747 0.956543 15.3442V32.813C0.956543 33.8304 1.3209 34.8061 1.96947 35.5255C2.61803 36.2449 3.49767 36.6491 4.41488 36.6491C5.33208 36.6491 6.21172 36.2449 6.86029 35.5255C7.50885 34.8061 7.87321 33.8304 7.87321 32.813V15.3442C7.87321 13.3095 8.60193 11.358 9.89906 9.91922C11.1962 8.48042 12.9555 7.67211 14.7899 7.67211H46.979V29.5081C46.979 32.5603 48.0721 35.4874 50.0177 37.6456C51.9634 39.8038 54.6024 41.0163 57.354 41.0163H77.0399V97.3768C77.0399 99.4116 76.3112 101.363 75.014 102.802C73.7169 104.241 69.25 107.397 65.5 107.397H50.0177L36.979 108.397L35.3296 109.294C35.3296 112.721 39.7167 110.846 38.4196 109.407C37.1224 107.968 36.3937 108.703 36.3937 108.703L35.3296 109.294C35.3296 113.363 33.4565 111 33.4565 111C36.0508 113.878 31.6608 112.721 35.3296 112.721H70.1232C73.792 112.721 77.3106 111.104 79.9048 108.227C82.4991 105.349 83.9565 101.446 83.9565 97.3768V36.5204C83.9541 33.4693 82.8595 30.5441 80.9132 28.388L58.3638 3.36806C56.4188 1.21205 53.7818 0.000651219 51.0321 0H14.7899ZM75.6081 33.3442H57.354C56.4368 33.3442 55.5571 32.94 54.9086 32.2206C54.26 31.5012 53.8956 30.5255 53.8956 29.5081V9.26024L75.6081 33.3442Z" fill="#444444"/>
</svg>
