<svg width="124" height="124" viewBox="0 0 124 124" fill="none" xmlns="http://www.w3.org/2000/svg">
<path fill-rule="evenodd" clip-rule="evenodd" d="M24.4737 52.0066H18.3552V58.125H24.4737V52.0066ZM18.3552 45.8882C16.7325 45.8882 15.1763 46.5328 14.0289 47.6802C12.8814 48.8277 12.2368 50.3839 12.2368 52.0066V58.125C12.2368 59.7477 12.8814 61.304 14.0289 62.4514C15.1763 63.5988 16.7325 64.2434 18.3552 64.2434H24.4737C26.0964 64.2434 27.6526 63.5988 28.8 62.4514C29.9475 61.304 30.5921 59.7477 30.5921 58.125V52.0066C30.5921 50.3839 29.9475 48.8277 28.8 47.6802C27.6526 46.5328 26.0964 45.8882 24.4737 45.8882H18.3552Z" fill="#444444"/>
<path fill-rule="evenodd" clip-rule="evenodd" d="M48.9473 52.0066H42.8289V58.125H48.9473V52.0066ZM42.8289 45.8882C41.2062 45.8882 39.6499 46.5328 38.5025 47.6802C37.3551 48.8277 36.7104 50.3839 36.7104 52.0066V58.125C36.7104 59.7477 37.3551 61.304 38.5025 62.4514C39.6499 63.5988 41.2062 64.2434 42.8289 64.2434H48.9473C50.57 64.2434 52.1262 63.5988 53.2737 62.4514C54.4211 61.304 55.0657 59.7477 55.0657 58.125V52.0066C55.0657 50.3839 54.4211 48.8277 53.2737 47.6802C52.1262 46.5328 50.57 45.8882 48.9473 45.8882H42.8289Z" fill="#444444"/>
<path fill-rule="evenodd" clip-rule="evenodd" d="M73.4209 52.0066H67.3025V58.125H73.4209V52.0066ZM67.3025 45.8882C65.6798 45.8882 64.1236 46.5328 62.9761 47.6802C61.8287 48.8277 61.1841 50.3839 61.1841 52.0066V58.125C61.1841 59.7477 61.8287 61.304 62.9761 62.4514C64.1236 63.5988 65.6798 64.2434 67.3025 64.2434H73.4209C75.0436 64.2434 76.5999 63.5988 77.7473 62.4514C78.8947 61.304 79.5393 59.7477 79.5393 58.125V52.0066C79.5393 50.3839 78.8947 48.8277 77.7473 47.6802C76.5999 46.5328 75.0436 45.8882 73.4209 45.8882H67.3025Z" fill="#444444"/>
<path fill-rule="evenodd" clip-rule="evenodd" d="M24.4737 76.4802H18.3552V82.5987H24.4737V76.4802ZM18.3552 70.3618C16.7325 70.3618 15.1763 71.0064 14.0289 72.1539C12.8814 73.3013 12.2368 74.8575 12.2368 76.4802V82.5987C12.2368 84.2214 12.8814 85.7776 14.0289 86.925C15.1763 88.0725 16.7325 88.7171 18.3552 88.7171H24.4737C26.0964 88.7171 27.6526 88.0725 28.8 86.925C29.9475 85.7776 30.5921 84.2214 30.5921 82.5987V76.4802C30.5921 74.8575 29.9475 73.3013 28.8 72.1539C27.6526 71.0064 26.0964 70.3618 24.4737 70.3618H18.3552Z" fill="#444444"/>
<path fill-rule="evenodd" clip-rule="evenodd" d="M48.9473 76.4802H42.8289V82.5987H48.9473V76.4802ZM42.8289 70.3618C41.2062 70.3618 39.6499 71.0064 38.5025 72.1539C37.3551 73.3013 36.7104 74.8575 36.7104 76.4802V82.5987C36.7104 84.2214 37.3551 85.7776 38.5025 86.925C39.6499 88.0725 41.2062 88.7171 42.8289 88.7171H48.9473C50.57 88.7171 52.1262 88.0725 53.2737 86.925C54.4211 85.7776 55.0657 84.2214 55.0657 82.5987V76.4802C55.0657 74.8575 54.4211 73.3013 53.2737 72.1539C52.1262 71.0064 50.57 70.3618 48.9473 70.3618H42.8289Z" fill="#444444"/>
<path fill-rule="evenodd" clip-rule="evenodd" d="M6.11842 18.3554C6.11842 17.544 6.44073 16.7659 7.01444 16.1922C7.58816 15.6185 8.36628 15.2962 9.17763 15.2962H24.4737V9.17773H9.17763C6.74357 9.17773 4.40921 10.1447 2.68807 11.8658C0.966927 13.5869 0 15.9213 0 18.3554V91.7764C0 94.2105 0.966927 96.5448 2.68807 98.266C4.40921 99.9871 6.74357 100.954 9.17763 100.954H71.1419C69.8373 99.0854 68.8407 97.0197 68.1898 94.8356H9.17763C8.36628 94.8356 7.58816 94.5133 7.01444 93.9396C6.44073 93.3659 6.11842 92.5878 6.11842 91.7764V18.3554ZM85.6579 67.5169C87.687 67.2266 89.7472 67.2266 91.7763 67.5169V18.3554C91.7763 15.9213 90.8094 13.5869 89.0882 11.8658C87.3671 10.1447 85.0327 9.17773 82.5987 9.17773H73.4211V15.2962H82.5987C83.41 15.2962 84.1882 15.6185 84.7619 16.1922C85.3356 16.7659 85.6579 17.544 85.6579 18.3554V67.5169ZM30.5921 15.2962H62.9065V9.17773H30.5921V15.2962Z" fill="#444444"/>
<path fill-rule="evenodd" clip-rule="evenodd" d="M91.7761 36.7102H6.11816V30.5918H91.7761V36.7102Z" fill="#444444"/>
<path d="M18.355 3.05921C18.355 2.24786 18.6773 1.46974 19.251 0.896023C19.8247 0.322309 20.6028 0 21.4142 0C22.2255 0 23.0037 0.322309 23.5774 0.896023C24.1511 1.46974 24.4734 2.24786 24.4734 3.05921V18.3553C24.4734 19.1666 24.1511 19.9447 23.5774 20.5184C23.0037 21.0922 22.2255 21.4145 21.4142 21.4145C20.6028 21.4145 19.8247 21.0922 19.251 20.5184C18.6773 19.9447 18.355 19.1666 18.355 18.3553V3.05921Z" fill="#444444"/>
<path d="M61.1841 3.05921C61.1841 2.24786 61.5064 1.46974 62.0801 0.896023C62.6538 0.322309 63.4319 0 64.2433 0C65.0546 0 65.8328 0.322309 66.4065 0.896023C66.9802 1.46974 67.3025 2.24786 67.3025 3.05921V18.3553C67.3025 19.1666 66.9802 19.9447 66.4065 20.5184C65.8328 21.0922 65.0546 21.4145 64.2433 21.4145C63.4319 21.4145 62.6538 21.0922 62.0801 20.5184C61.5064 19.9447 61.1841 19.1666 61.1841 18.3553V3.05921Z" fill="#444444"/>
<path fill-rule="evenodd" clip-rule="evenodd" d="M95.7069 109.316C94.9103 109.316 94.1464 109.003 93.5831 108.445C93.0198 107.888 92.7034 107.131 92.7034 106.343L92.7034 96.0618L88.9483 92.3282C88.4012 91.7675 88.0985 91.0165 88.1053 90.2369C88.1121 89.4574 88.428 88.7117 88.9849 88.1604C89.5418 87.6092 90.2951 87.2965 91.0826 87.2897C91.8701 87.2829 92.6288 87.5826 93.1953 88.1242L98.7105 93.6001L98.7104 106.343C98.7104 107.131 98.394 107.888 97.8307 108.445C97.2675 109.003 96.5035 109.316 95.7069 109.316Z" fill="#76C5FF"/>
<path fill-rule="evenodd" clip-rule="evenodd" d="M95.4477 115.842C100.857 115.842 106.044 113.694 109.869 109.869C113.694 106.044 115.842 100.857 115.842 95.4477C115.842 90.0386 113.694 84.8511 109.869 81.0264C106.044 77.2016 100.857 75.0529 95.4477 75.0529C90.0386 75.0529 84.8511 77.2016 81.0264 81.0264C77.2016 84.8511 75.0529 90.0386 75.0529 95.4477C75.0529 100.857 77.2016 106.044 81.0264 109.869C84.8511 113.694 90.0386 115.842 95.4477 115.842ZM95.4477 124C103.02 124 110.283 120.992 115.637 115.637C120.992 110.283 124 103.02 124 95.4477C124 87.875 120.992 80.6126 115.637 75.2579C110.283 69.9032 103.02 66.895 95.4477 66.895C87.875 66.895 80.6126 69.9032 75.2579 75.2579C69.9032 80.6126 66.895 87.875 66.895 95.4477C66.895 103.02 69.9032 110.283 75.2579 115.637C80.6126 120.992 87.875 124 95.4477 124Z" fill="#76C5FF"/>
</svg>
