<svg width="86" height="91" viewBox="0 0 86 91" fill="none" xmlns="http://www.w3.org/2000/svg">
<path d="M32.3934 66.9412C59.3625 66.9412 70.9433 38.7279 70.9433 38.7279L66.4492 46.7888L70.9433 54.8498C56.5598 83.063 49.4636 67.9103 49.4636 77.9865V87.9998H16V87.0935C16 70.9716 25.2017 66.9412 32.3934 66.9412ZM32.3934 66.9412C35.7313 66.9412 38.9325 65.4549 41.2928 62.8094C43.653 60.1639 44.979 56.5758 44.979 52.8345C44.979 49.0932 43.653 45.5051 41.2928 42.8596C38.9325 40.2141 35.7313 38.7279 32.3934 38.7279C29.0555 38.7279 25.8544 40.2141 23.4941 42.8596C21.1339 45.5051 19.8079 49.0932 19.8079 52.8345C19.8079 56.5758 21.1339 60.1639 23.4941 62.8094C25.8544 65.4549 29.0555 66.9412 32.3934 66.9412ZM30.2782 34.1216V22.0302H83V78.4568M49.7382 17.9998H64.1217V26.0607H49.7382V17.9998Z" stroke="#444444" stroke-width="5" stroke-linecap="round" stroke-linejoin="round"/>
<path d="M40.1366 9.01353V15.0271M34.2729 9.01353H40.1366H34.2729ZM46.0002 9.01353H40.1366H46.0002ZM40.1366 9.01353V3V9.01353Z" stroke="#76C5FF" stroke-width="5.5" stroke-linecap="round" stroke-linejoin="round"/>
<path d="M12.7725 30.0566V8.00695L28.4088 6.00244" stroke="#76C5FF" stroke-width="5.5" stroke-linecap="round" stroke-linejoin="round"/>
<path d="M30.3633 26.0473V18.0293" stroke="#76C5FF" stroke-width="5.5" stroke-linecap="round" stroke-linejoin="round"/>
<path d="M24.5004 36.0699H26.4549C27.4917 36.0699 28.486 35.6475 29.2191 34.8957C29.9522 34.1439 30.364 33.1242 30.364 32.0609V26.0474H24.5004C23.4636 26.0474 22.4694 26.4697 21.7363 27.2216C21.0032 27.9734 20.5913 28.9931 20.5913 30.0564V32.0609C20.5913 33.1242 21.0032 34.1439 21.7363 34.8957C22.4694 35.6475 23.4636 36.0699 24.5004 36.0699Z" stroke="#76C5FF" stroke-width="5.5" stroke-linecap="round" stroke-linejoin="round"/>
<path d="M6.90909 40.0787H8.86363C9.90039 40.0787 10.8947 39.6563 11.6278 38.9045C12.3609 38.1527 12.7727 37.1329 12.7727 36.0697V30.0562H6.90909C5.87233 30.0562 4.87804 30.4785 4.14495 31.2304C3.41185 31.9822 3 33.0019 3 34.0652V36.0697C3 37.1329 3.41185 38.1527 4.14495 38.9045C4.87804 39.6563 5.87233 40.0787 6.90909 40.0787Z" stroke="#76C5FF" stroke-width="5.5" stroke-linecap="round" stroke-linejoin="round"/>
</svg>
