<svg width="122" height="119" viewBox="0 0 122 119" fill="none" xmlns="http://www.w3.org/2000/svg">
<path d="M82.3502 7.93C73.9375 7.93 65.8694 11.2719 59.9208 17.2206C53.9721 23.1692 50.6302 31.2373 50.6302 39.65C50.6302 48.0627 53.9721 56.1308 59.9208 62.0794C65.8694 68.0281 73.9375 71.37 82.3502 71.37C90.7629 71.37 98.831 68.0281 104.78 62.0794C110.728 56.1308 114.07 48.0627 114.07 39.65C114.07 31.2373 110.728 23.1692 104.78 17.2206C98.831 11.2719 90.7629 7.93 82.3502 7.93V7.93ZM42.7002 39.65C42.7002 17.7513 60.4515 0 82.3502 0C104.249 0 122 17.7513 122 39.65C122 61.5487 104.249 79.3 82.3502 79.3C60.4515 79.3 42.7002 61.5487 42.7002 39.65Z" fill="#76C5FF"/>
<path d="M82.3503 15.8599C83.4018 15.8599 84.4103 16.2776 85.1539 17.0212C85.8975 17.7648 86.3153 18.7733 86.3153 19.8249V34.7491C86.3156 35.4853 86.521 36.2068 86.9082 36.8328C87.2955 37.4589 87.8494 37.9648 88.5079 38.2938L99.9826 44.0352C100.465 44.2578 100.897 44.5751 101.254 44.9681C101.611 45.361 101.886 45.8217 102.062 46.3228C102.237 46.8239 102.31 47.3552 102.277 47.8852C102.243 48.4151 102.104 48.9329 101.866 49.4079C101.629 49.8828 101.298 50.3052 100.894 50.65C100.491 50.9948 100.022 51.255 99.5154 51.4151C99.0091 51.5752 98.4758 51.632 97.9472 51.5821C97.4185 51.5322 96.9053 51.3766 96.4379 51.1246L84.9592 45.3872C82.9838 44.3992 81.3225 42.8807 80.1614 41.0018C79.0004 39.1229 78.3853 36.9578 78.3853 34.7491V19.8249C78.3853 18.7733 78.803 17.7648 79.5466 17.0212C80.2902 16.2776 81.2987 15.8599 82.3503 15.8599V15.8599Z" fill="#76C5FF"/>
<path d="M26.3223 18.3003C28.9798 18.3084 31.5262 19.3677 33.4054 21.2469C35.2846 23.1261 36.3439 25.6725 36.352 28.3301C36.3439 30.9882 35.2842 33.535 33.4043 35.4143C31.5245 37.2936 28.9773 38.3526 26.3192 38.3598C23.6616 38.3509 21.1155 37.2908 19.2369 35.4111C17.3583 33.5313 16.2998 30.9846 16.2925 28.327C16.3014 25.67 17.361 23.1243 19.2402 21.2458C21.1193 19.3673 23.6652 18.3084 26.3223 18.3003V18.3003Z" fill="#444444"/>
<path d="M66.4407 53.4027H41.3678V113.584C41.3638 114.914 40.834 116.187 39.8941 117.127C38.9542 118.067 37.6806 118.597 36.3514 118.601C35.0222 118.597 33.7486 118.067 32.8087 117.127C31.8688 116.187 31.339 114.914 31.335 113.584V88.5115H21.3052V113.584C21.3012 114.913 20.7718 116.186 19.8326 117.126C18.8933 118.066 17.6205 118.596 16.2919 118.601C14.9627 118.597 13.6891 118.067 12.7492 117.127C11.8093 116.187 11.2795 114.914 11.2754 113.584V53.4057V76.3125C8.51718 76.3125 0 71.0629 0 58.1338C0 48.3893 8.51718 43.376 11.2754 43.376H66.4407C67.7694 43.38 69.0425 43.9094 69.9823 44.8486C70.9221 45.7879 71.4523 47.0607 71.4571 48.3893C71.4531 49.7185 70.9233 50.9921 69.9834 51.932C69.0435 52.8719 67.7699 53.4017 66.4407 53.4057V53.4027Z" fill="#444444"/>
</svg>
