<svg width="139" height="126" viewBox="0 0 139 126" fill="none" xmlns="http://www.w3.org/2000/svg">
<path d="M126.272 69.2441H103.143V49.0592H95.5737C97.9167 45.9314 99.1756 42.1248 99.1595 38.2168C99.1595 32.4052 96.4095 26.9446 91.9827 23.9663L90.1047 22.7026L88.2268 23.9663C83.7992 26.945 81.0501 32.4055 81.0501 38.2168C81.0343 42.1248 82.2936 45.9314 84.6369 49.059H76.2299V69.2439H56.4655C53.2323 69.2476 50.1326 70.5336 47.8464 72.8198C45.5602 75.106 44.2742 78.2057 44.2705 81.4389V119.272C44.2725 121.055 44.982 122.766 46.2434 124.027C47.5048 125.288 49.215 125.998 50.9988 126H131.738C133.522 125.998 135.232 125.288 136.494 124.027C137.755 122.766 138.465 121.055 138.467 119.272V81.4391C138.463 78.2059 137.177 75.1062 134.891 72.82C132.604 70.5338 129.505 69.2478 126.272 69.2441V69.2441ZM90.1047 31.2871C91.5744 33.113 92.4312 35.5903 92.4312 38.217C92.4312 40.8438 91.5744 43.3213 90.1047 45.1469C88.6352 43.3213 87.7783 40.8438 87.7783 38.2168C87.7783 35.5898 88.6352 33.113 90.1047 31.2871ZM82.9582 55.7875H96.4147V69.2441H82.9582V55.7875ZM50.9988 81.4391C51.0005 79.9898 51.577 78.6002 52.6018 77.5754C53.6267 76.5505 55.0162 75.974 56.4655 75.9724H126.272C127.721 75.974 129.11 76.5505 130.135 77.5754C131.16 78.6002 131.737 79.9898 131.738 81.4391V88.0785L127.197 90.0824C126.308 90.4732 125.349 90.6751 124.378 90.6751C123.408 90.6751 122.448 90.4732 121.56 90.0824L113.656 86.5949L105.75 90.0822C104.862 90.4731 103.902 90.6749 102.932 90.6749C101.961 90.6749 101.001 90.4731 100.113 90.0822L92.2096 86.5947L84.3038 90.082C83.4156 90.4729 82.4557 90.6748 81.4853 90.6748C80.5148 90.6748 79.555 90.4729 78.6668 90.082L70.7631 86.5949L62.8589 90.082C61.9706 90.4729 61.0108 90.6748 60.0404 90.6748C59.0699 90.6748 58.1101 90.4729 57.2218 90.082L50.9988 87.3369V81.4391ZM131.738 119.272H50.9988V94.6909L54.5055 96.238C56.2497 97.0054 58.1344 97.4018 60.0399 97.4018C61.9455 97.4018 63.8302 97.0054 65.5744 96.238L70.7631 93.9487L75.9521 96.238C77.6962 97.0054 79.5809 97.4018 81.4865 97.4018C83.392 97.4018 85.2767 97.0054 87.0208 96.238L92.2096 93.9487L97.3981 96.238C99.1422 97.0054 101.027 97.4018 102.932 97.4018C104.838 97.4018 106.722 97.0054 108.467 96.238L113.656 93.9487L118.845 96.2382C120.589 97.0056 122.473 97.4019 124.379 97.4019C126.284 97.4019 128.169 97.0056 129.913 96.2382L131.741 95.4319L131.742 119.272H131.738Z" fill="#444444"/>
<path d="M19.5568 10.5537L0 65.8379L54.759 46.0936L19.5568 10.5537Z" fill="#76C5FF"/>
<path d="M33.6694 0L39.0618 2.44395L32.9519 15.9248L27.5596 13.4809L33.6694 0Z" fill="#76C5FF"/>
<path d="M39.8459 23.6709L62.9288 1.53774L67.1212 5.71959L44.0383 27.8498L39.8459 23.6709Z" fill="#76C5FF"/>
<path d="M51.1311 34.2765L60.004 31.1989L72.213 27.3519L73.6782 33.0893L52.5978 40.0113L51.1311 34.2765Z" fill="#76C5FF"/>
</svg>
