<svg width="105" height="92" viewBox="0 0 105 92" fill="none" xmlns="http://www.w3.org/2000/svg">
<path d="M36.013 0H100.828C101.818 0 102.768 0.371934 103.468 1.03398C104.168 1.69603 104.561 2.59396 104.561 3.53023V60.014C104.561 60.9502 104.168 61.8482 103.468 62.5102C102.768 63.1723 101.818 63.5442 100.828 63.5442H36.013C35.0229 63.5442 34.0733 63.1723 33.3732 62.5102C32.6731 61.8482 32.2798 60.9502 32.2798 60.014V3.53023C32.2798 2.59396 32.6731 1.69603 33.3732 1.03398C34.0733 0.371934 35.0229 0 36.013 0ZM97.0949 28.2419H39.7462V56.4837H97.0949V28.2419ZM97.0949 21.1814V7.06047H39.7462V21.1814H97.0949ZM74.6955 42.3628H89.6284V49.4233H74.6955V42.3628Z" fill="#444444"/>
<path d="M51.8438 81.9765H48.499C48.9519 81.9765 49.3439 82.1418 49.6749 82.4724C50.0059 82.8031 50.1714 83.1946 50.1714 83.6471V90.3295C50.1714 90.782 50.0059 91.1735 49.6749 91.5042C49.3439 91.8348 48.9519 92.0001 48.499 92.0001H5.01714C4.5642 92.0001 4.17224 91.8348 3.84125 91.5042C3.51025 91.1735 3.34476 90.782 3.34476 90.3295V83.6471C3.34476 83.1946 3.51025 82.8031 3.84125 82.4724C4.17224 82.1418 4.5642 81.9765 5.01714 81.9765H8.3619C7.90896 81.9765 7.517 81.8111 7.186 81.4805C6.85501 81.1499 6.68952 80.7583 6.68952 80.3058V73.6234C6.68952 73.171 6.85501 72.7794 7.186 72.4488C7.517 72.1181 7.90896 71.9528 8.3619 71.9528H1.67238C1.21944 71.9528 0.827479 71.7875 0.496488 71.4568C0.165496 71.1262 0 70.7346 0 70.2822V63.5998C0 63.1473 0.165496 62.7558 0.496488 62.4251C0.827479 62.0945 1.21944 61.9291 1.67238 61.9291H5.01714C4.5642 61.9291 4.17224 61.7638 3.84125 61.4332C3.51025 61.1025 3.34476 60.711 3.34476 60.2585V53.5761C3.34476 53.1236 3.51025 52.7321 3.84125 52.4015C4.17224 52.0708 4.5642 51.9055 5.01714 51.9055H1.67238C1.21944 51.9055 0.827479 51.7402 0.496488 51.4095C0.165496 51.0789 0 50.6873 0 50.2349V43.5524C0 43.1 0.165496 42.7084 0.496488 42.3778C0.827479 42.0472 1.21944 41.8818 1.67238 41.8818H45.1542C45.6072 41.8818 45.9991 42.0472 46.3301 42.3778C46.6611 42.7084 46.8266 43.1 46.8266 43.5524V50.2349C46.8266 50.6873 46.6611 51.0789 46.3301 51.4095C45.9991 51.7402 45.6072 51.9055 45.1542 51.9055H48.499C48.9519 51.9055 49.3439 52.0708 49.6749 52.4015C50.0059 52.7321 50.1714 53.1236 50.1714 53.5761V60.2585C50.1714 60.711 50.0059 61.1025 49.6749 61.4332C49.3439 61.7638 48.9519 61.9291 48.499 61.9291H45.1542C45.6072 61.9291 45.9991 62.0945 46.3301 62.4251C46.6611 62.7558 46.8266 63.1473 46.8266 63.5998V70.2822C46.8266 70.7346 46.6611 71.1262 46.3301 71.4568C45.9991 71.7875 45.6072 71.9528 45.1542 71.9528H51.8438C52.2967 71.9528 52.6887 72.1181 53.0196 72.4488C53.3506 72.7794 53.5161 73.171 53.5161 73.6234V80.3058C53.5161 80.7583 53.3506 81.1499 53.0196 81.4805C52.6887 81.8111 52.2967 81.9765 51.8438 81.9765V81.9765ZM26.7581 88.6589H30.1028V85.3177H26.7581V88.6589ZM16.7238 75.294V78.6352H26.7581V75.294H16.7238ZM26.7581 68.6116V65.2704H23.4133V68.6116H26.7581ZM13.379 58.5879H23.4133V55.2467H13.379V58.5879ZM10.0343 65.2704V68.6116H20.0685V65.2704H10.0343ZM13.379 88.6589H23.4133V85.3177H13.379V88.6589ZM13.379 75.294H10.0343V78.6352H13.379V75.294ZM6.68952 85.3177V88.6589H10.0343V85.3177H6.68952ZM3.34476 65.2704V68.6116H6.68952V65.2704H3.34476ZM6.68952 45.2231H3.34476V48.5643H6.68952V45.2231ZM6.68952 58.5879H10.0343V55.2467H6.68952V58.5879ZM20.0685 45.2231H10.0343V48.5643H20.0685V45.2231ZM26.7581 45.2231H23.4133V48.5643H26.7581V45.2231ZM30.1028 55.2467H26.7581V58.5879H30.1028V55.2467ZM33.4476 75.294H30.1028V78.6352H33.4476V75.294Z" fill="#76C5FF"/>
</svg>
