<svg width="100" height="100" viewBox="0 0 100 100" fill="none" xmlns="http://www.w3.org/2000/svg">
<path d="M30.7899 0C27.121 0 23.6025 1.61662 21.0082 4.49422C18.414 7.37182 16.9565 11.2747 16.9565 15.3442V32.813C16.9565 33.8304 17.3209 34.8061 17.9695 35.5255C18.618 36.2449 19.4977 36.6491 20.4149 36.6491C21.3321 36.6491 22.2117 36.2449 22.8603 35.5255C23.5089 34.8061 23.8732 33.8304 23.8732 32.813V15.3442C23.8732 13.3095 24.6019 11.358 25.8991 9.91922C27.1962 8.48042 28.9555 7.67211 30.7899 7.67211H74.979V22.5081C74.979 25.5603 76.0721 28.4874 78.0177 30.6456C79.9634 32.8038 82.6024 34.0163 85.354 34.0163H93.0399V84.3768C93.0399 86.4116 92.3112 88.363 91.014 89.8018C89.7169 91.2406 85.25 94.3968 81.5 94.3968H66.0177L52.979 95.3968L51.3296 96.2936C51.3296 99.7211 55.7167 97.846 54.4196 96.4072C53.1224 94.9684 52.3937 95.7035 52.3937 95.7035L51.3296 96.2936C51.3296 100.363 49.4565 98 49.4565 98C52.0508 100.878 47.6608 99.7211 51.3296 99.7211H86.1232C89.792 99.7211 93.3106 98.1044 95.9048 95.2268C98.4991 92.3492 99.9565 88.4464 99.9565 84.3768V29.5204C99.9541 26.4693 98.8595 23.5441 96.9132 21.388L86.3638 3.36806C84.4188 1.21205 81.7818 0.000651219 79.0321 0H30.7899ZM91.6081 26.3442H85.354C84.4368 26.3442 83.5571 25.94 82.9086 25.2206C82.26 24.5012 81.8956 23.5255 81.8956 22.5081V9.26024L91.6081 26.3442Z" fill="#444444"/>
<path d="M54.5 48.5479C64.166 48.5479 72 45.2893 72 41.274C72 37.2586 64.166 34 54.5 34C44.834 34 37 37.2586 37 41.274C37 45.2893 44.834 48.5479 54.5 48.5479ZM54.5 60.1781C47.8213 60.1781 41.915 58.5761 38.1895 56.1014C37.4307 56.9195 37 57.7989 37 58.726C37 62.7414 44.834 66 54.5 66C64.166 66 72 62.7414 72 58.726C72 57.7989 71.5693 56.9195 70.8105 56.1082C67.085 58.5761 61.1787 60.1781 54.5 60.1781ZM54.5 51.4521C47.8213 51.4521 41.915 49.85 38.1895 47.3754C37.4307 48.1934 37 49.0729 37 50C37 54.0153 44.834 57.274 54.5 57.274C64.166 57.274 72 54.0153 72 50C72 49.0729 71.5693 48.1934 70.8105 47.3822C67.085 49.85 61.1787 51.4521 54.5 51.4521Z" fill="#76C5FF"/>
<path d="M54.5 68.4521C47.8213 68.4521 41.915 66.85 38.1895 64.3754C37.4307 65.1934 37 66.0729 37 67C37 71.0153 44.834 74.274 54.5 74.274C64.166 74.274 72 71.0153 72 67C72 66.0729 71.5693 65.1934 70.8105 64.3822C67.085 66.85 61.1787 68.4521 54.5 68.4521Z" fill="#76C5FF"/>
<path fill-rule="evenodd" clip-rule="evenodd" d="M13.2759 94.8635V95.4261C13.2759 96.6392 12.794 97.8026 11.9362 98.6603C11.0784 99.5181 9.91505 100 8.70197 100H4.57392C3.36084 100 2.19745 99.5181 1.33967 98.6603C0.481894 97.8026 0 96.6392 0 95.4261V70.2809C0 69.0678 0.481894 67.9045 1.33967 67.0467C2.19745 66.1889 3.36084 65.707 4.57392 65.707H8.70197C9.73207 65.7066 10.7322 66.0538 11.5403 66.6926C12.3484 67.3314 12.9173 68.2243 13.1547 69.2266C16.1826 68.1358 19.7206 66.8368 20.8023 66.3428C21.7217 65.9243 22.7828 65.7825 23.6656 65.7299C24.5766 65.6857 25.4896 65.7017 26.3985 65.7779C27.4162 65.859 28.4297 65.9872 29.4356 66.1621L29.4882 66.1713L29.5042 66.1735H29.511L29.5522 66.1827L44.852 69.6131L44.9458 69.6452L44.9709 69.6543L45.0761 69.6863C45.7362 69.8798 46.4028 70.0499 47.0749 70.1963C48.3899 70.4822 50.048 70.7498 51.5917 70.7498C53.0187 70.7498 54.4961 71.2826 55.2828 72.728C55.9598 73.9675 55.802 75.3305 55.5504 76.2728C55.2325 77.4483 54.5784 78.6832 53.7483 79.7329C54.8689 79.3099 56.097 78.809 57.4143 78.2693L57.6956 78.1549C61.4073 76.6295 65.8074 71.6077 69.6907 70.9674C74.1274 70.2333 77.3543 71.8433 78.8179 74.6997C80.1215 77.2428 79.8196 80.5795 77.8574 82.5897C77.3657 83.0951 76.6156 83.6257 75.8632 84.1128C75.0582 84.6366 74.0679 85.2243 72.9679 85.8509C70.4408 87.266 67.8826 91.8399 65.2951 93.1414C59.8705 95.8926 54.1851 98.5684 52.3784 99.2293C50.2835 99.9954 48.0331 100.069 45.872 99.9566C44.5668 99.8755 43.2637 99.7649 41.9636 99.6249C40.9802 99.5266 40.0036 99.4305 39.1049 99.3619C34.6956 99.028 31.3109 97.9509 28.196 96.9606L27.8164 96.8394C24.5964 95.8194 21.6004 94.9115 17.6326 94.7514C16.7269 94.7148 14.9157 94.7834 13.2759 94.8612V94.8635ZM22.6982 70.5051C22.8468 70.4364 23.2356 70.3381 23.9286 70.2969C24.5781 70.2581 25.319 70.2832 26.044 70.3381C26.9115 70.4079 27.7753 70.517 28.6329 70.6651H28.6397L43.6582 74.0338L43.7611 74.0658C44.5336 74.2932 45.314 74.4931 46.1007 74.665C47.4385 74.9578 49.2338 75.2642 51.0611 75.3168C50.898 75.757 50.6789 76.1744 50.4093 76.5586C50.0434 77.0892 49.6432 77.4986 49.3138 77.7341C48.3625 78.4156 47.5941 78.6992 47.1275 78.8204C46.9686 78.864 46.8065 78.8946 46.6427 78.9119H46.5924L34.3297 78.7656L33.8952 83.3029L34.0164 83.3258L34.3663 83.3875L35.6378 83.6116C36.7058 83.7992 38.1718 84.0507 39.7681 84.3114C42.9104 84.8237 46.6976 85.3909 48.8473 85.5212C50.3338 85.6127 52.0628 85.1553 53.6705 84.6179C55.3469 84.0576 57.2427 83.2823 59.1501 82.5002C63.0768 80.8902 67.0767 76.0353 70.4362 75.4796C73.3407 74.9993 74.3767 76.0604 74.7472 76.7854C75.28 77.826 74.9919 78.9809 74.5825 79.3971C74.4842 79.5 74.1251 79.7905 73.375 80.2776C72.6752 80.7281 71.7718 81.2701 70.7107 81.8716C68.2459 83.2515 65.751 87.7918 63.2277 89.0615C57.7573 91.8356 52.3143 94.3809 50.805 94.9344C49.5837 95.3826 48.072 95.4901 46.1075 95.3895C44.9458 95.33 43.8434 95.218 42.6428 95.0945C41.5799 94.9827 40.5156 94.8851 39.4502 94.8017C35.5806 94.509 32.6396 93.5736 29.4859 92.572L29.2 92.4805C25.9342 91.4445 22.4398 90.3673 17.8178 90.1821C16.7772 90.1409 14.9248 90.2049 13.2759 90.2827V74.043C16.4891 72.8926 21.2505 71.166 22.6982 70.5051ZM8.70197 70.2786H4.57392V95.4238H8.70197V70.2809V70.2786Z" fill="#444444"/>
</svg>
