<svg width="118" height="125" viewBox="0 0 118 125" fill="none" xmlns="http://www.w3.org/2000/svg">
<path fill-rule="evenodd" clip-rule="evenodd" d="M11.9859 16.3434C11.9859 20.022 13.2019 23.4172 15.2547 26.15H7.62737C5.60446 26.15 3.66441 26.9536 2.234 28.384C0.803595 29.8144 0 31.7545 0 33.7774V44.6736C0 47.7158 1.78262 50.3397 4.3585 51.5687V88.2586C4.3585 92.4689 7.77556 95.8859 11.9859 95.8859H83.901C85.9239 95.8859 87.864 95.0823 89.2944 93.6519C90.7248 92.2215 91.5284 90.2815 91.5284 88.2586V51.5687C94.1043 50.344 95.8869 47.7158 95.8869 44.6736V33.7774C95.8869 31.7545 95.0833 29.8144 93.6529 28.384C92.2225 26.9536 90.2824 26.15 88.2595 26.15H80.6322C82.4534 23.7217 83.5624 20.8343 83.835 17.8112C84.1076 14.7881 83.533 11.7489 82.1755 9.03396C80.8181 6.31907 78.7314 4.03581 76.1494 2.44004C73.5674 0.844266 70.592 -0.000976562 67.5567 -0.000976562C61.2107 -0.000976562 52.5809 3.92603 47.9435 13.5539C43.306 3.92603 34.6718 -0.000976562 28.3302 -0.000976562C23.9954 -0.000976562 19.8382 1.72101 16.773 4.78618C13.7079 7.85134 11.9859 12.0086 11.9859 16.3434V16.3434ZM44.5438 26.15C43.2929 10.9258 33.3425 6.53677 28.3302 6.53677C25.7293 6.53677 23.235 7.56996 21.3959 9.40906C19.5568 11.2482 18.5236 13.7425 18.5236 16.3434C18.5236 18.9443 19.5568 21.4386 21.3959 23.2777C23.235 25.1168 25.7293 26.15 28.3302 26.15H44.5438ZM84.9907 52.301V88.2586C84.9907 88.5476 84.8759 88.8247 84.6715 89.0291C84.4672 89.2334 84.19 89.3482 83.901 89.3482H51.2123V52.301H84.9907ZM44.6746 89.3482V52.301H10.8962V88.2586C10.8962 88.86 11.3844 89.3482 11.9859 89.3482H44.6746ZM88.2595 45.7632C88.5485 45.7632 88.8257 45.6484 89.03 45.4441C89.2344 45.2397 89.3492 44.9626 89.3492 44.6736V33.7774C89.3492 33.4884 89.2344 33.2112 89.03 33.0069C88.8257 32.8025 88.5485 32.6877 88.2595 32.6877H51.2123V45.7632H88.2595ZM7.62737 45.7632H44.6746V32.6877H7.62737C7.33838 32.6877 7.06123 32.8025 6.85689 33.0069C6.65254 33.2112 6.53774 33.4884 6.53774 33.7774V44.6736C6.53774 45.2751 7.0259 45.7632 7.62737 45.7632ZM77.3633 16.3434C77.3633 18.9443 76.3301 21.4386 74.491 23.2777C72.6519 25.1168 70.1576 26.15 67.5567 26.15H51.3431C52.594 10.9258 62.5444 6.53677 67.5567 6.53677C70.1576 6.53677 72.6519 7.56996 74.491 9.40906C76.3301 11.2482 77.3633 13.7425 77.3633 16.3434V16.3434Z" fill="#444444"/>
<path d="M102.64 73.3403C102.836 72.8415 103.533 72.7997 103.797 73.2564L114.801 92.3167C116.227 94.7866 115.38 97.9474 112.91 99.3734L74.1374 121.759C71.6675 123.185 68.5067 122.338 67.0807 119.868L56.0816 100.817C55.8125 100.351 56.1931 99.7835 56.7328 99.8572C59.7569 100.274 63.7143 100.735 77.2085 102.153C80.0038 102.453 85.0654 103.557 88.3634 101.628C91.7069 99.7348 93.3091 94.6964 94.4047 92.2246C99.9241 79.8294 101.488 76.1674 102.64 73.3403ZM86.636 98.6361C88.8199 97.4249 90.3401 92.8688 91.2494 90.8276C98.4356 74.7113 98.9249 73.3849 100.486 69.5013C100.784 68.7698 100.724 67.9344 100.326 67.2447L99.3035 65.4738C97.8775 63.0039 94.7167 62.157 92.2468 63.583L53.4738 85.9686C51.0039 87.3946 50.1569 90.5554 51.583 93.0253L52.6054 94.7962C53.0036 95.4859 53.6918 95.9461 54.4799 96.0627C58.618 96.6436 60.0168 96.8924 77.5671 98.7272C79.7894 98.9602 84.4952 99.9218 86.636 98.6361Z" fill="#76C5FF"/>
</svg>
