<svg width="99" height="88" viewBox="0 0 99 88" fill="none" xmlns="http://www.w3.org/2000/svg">
<path d="M79 66.4545V22.5455H21.5455V66.4545H79ZM79 15.3636C80.9047 15.3636 82.7315 16.1203 84.0783 17.4671C85.4252 18.814 86.1818 20.6407 86.1818 22.5455V66.4545C86.1818 68.3593 85.4252 70.186 84.0783 71.5329C82.7315 72.8797 80.9047 73.6364 79 73.6364H57.4545V80.8182H64.6364V88H35.9091V80.8182H43.0909V73.6364H21.5455C17.5595 73.6364 14.3636 70.4405 14.3636 66.4545V22.5455C14.3636 20.6407 15.1203 18.814 16.4671 17.4671C17.814 16.1203 19.6407 15.3636 21.5455 15.3636H79ZM7.18182 8.18182V51.2727H0V8.18182C0 6.27708 0.756654 4.45036 2.10351 3.10351C3.45036 1.75665 5.27708 1 7.18182 1H71.8182V8.18182H7.18182Z" fill="#444444"/>
<path d="M98.2526 14.2797L95.018 11.0452C94.2503 10.2774 93.0087 10.2774 92.2491 11.0452L72.6867 30.6076L63.5875 21.5003C62.8197 20.7325 61.5782 20.7325 60.8185 21.5003L57.5758 24.743C56.8081 25.5108 56.8081 26.7523 57.5758 27.5201L71.2981 41.2505C72.0659 42.0183 73.3075 42.0183 74.0671 41.2505L98.2444 17.0569C99.0122 16.2809 99.0122 15.0394 98.2526 14.2797ZM71.7637 22.9378C72.2701 23.4524 73.1033 23.4524 73.6097 22.9378L90.5991 5.93203C91.1056 5.41744 91.1056 4.59247 90.5991 4.08605L86.9072 0.385939C86.4008 -0.128646 85.5676 -0.128646 85.0612 0.385939L72.6867 12.7605L68.1616 8.22724C67.6552 7.71265 66.822 7.71265 66.3156 8.22724L62.6155 11.9274C62.1091 12.4419 62.1091 13.2669 62.6155 13.7733L71.7637 22.9378Z" fill="#76C5FF"/>
</svg>
