<svg width="118" height="113" viewBox="0 0 118 113" fill="none" xmlns="http://www.w3.org/2000/svg">
<path d="M114.164 44.5541L90.6379 31.1265C90.6303 31.1218 90.6227 31.1189 90.6151 31.1146C90.5599 31.0844 90.5037 31.0561 90.4466 31.0295C90.418 31.0153 90.389 31.0006 90.3595 30.9877C90.3062 30.9639 90.251 30.9449 90.1958 30.9245C90.161 30.9121 90.1267 30.8979 90.0915 30.8865C90.0458 30.8722 89.9987 30.8608 89.9521 30.8484C89.9064 30.8361 89.8607 30.8228 89.815 30.8133C89.7783 30.8056 89.7407 30.8004 89.7041 30.7942C89.6465 30.7847 89.5889 30.7743 89.5313 30.7681C89.4999 30.7648 89.4675 30.7633 89.4361 30.7614C89.3731 30.7562 89.3099 30.753 89.2467 30.7519L89.221 30.751H73.9905C73.2332 30.751 72.5068 31.0515 71.9712 31.5864C71.4357 32.1213 71.1348 32.8468 71.1348 33.6033C71.1348 36.8813 69.8311 40.0251 67.5103 42.343C65.1896 44.661 62.0421 45.9631 58.7601 45.9631C55.4781 45.9631 52.3305 44.661 50.0098 42.343C47.6891 40.0251 46.3853 36.8813 46.3853 33.6033C46.3853 32.8468 46.0844 32.1213 45.5489 31.5864C45.0133 31.0515 44.287 30.751 43.5296 30.751H28.2991L28.2734 30.7524C28.2106 30.7524 28.1478 30.7572 28.0849 30.7619C28.0526 30.7643 28.0202 30.7652 27.9883 30.7686C27.9312 30.7747 27.8741 30.7847 27.8175 30.7947C27.7799 30.8009 27.7418 30.8056 27.7051 30.8137C27.6594 30.8232 27.6147 30.8365 27.57 30.8484C27.5224 30.8608 27.4748 30.8722 27.4281 30.8874C27.3939 30.8983 27.3601 30.9121 27.3258 30.9245C27.2701 30.9449 27.2144 30.9649 27.1606 30.9882C27.1311 31.001 27.103 31.0162 27.074 31.03C27.0169 31.0571 26.9598 31.0842 26.9051 31.1151L26.8822 31.1265L3.35589 44.5541C1.8778 45.3988 0.779379 46.7764 0.285972 48.4043C-0.207435 50.0323 -0.0584168 51.7871 0.702454 53.3087L9.46188 70.807C10.0119 71.9152 10.8618 72.8473 11.9152 73.4975C12.9686 74.1478 14.1834 74.4902 15.4218 74.486H25.4434V106.345C25.4454 108.109 26.1481 109.801 27.3973 111.049C28.6465 112.296 30.3401 112.998 32.1067 113H85.4134C87.18 112.998 88.8737 112.296 90.1228 111.049C91.372 109.801 92.0747 108.109 92.0767 106.345V74.486H102.098C103.337 74.4902 104.552 74.1477 105.605 73.4973C106.658 72.847 107.508 71.9148 108.058 70.8065L116.818 53.3087C117.578 51.787 117.727 50.0322 117.234 48.4042C116.74 46.7763 115.642 45.3987 114.164 44.5541ZM15.4218 68.7814C15.2449 68.782 15.0715 68.7331 14.9211 68.6403C14.7706 68.5474 14.6493 68.4143 14.5707 68.2561L5.81037 50.7578C5.7018 50.5404 5.6806 50.2897 5.75113 50.0572C5.82166 49.8246 5.97857 49.6278 6.18971 49.5071L25.4434 38.5182V68.7814H15.4218ZM86.3653 106.345C86.365 106.597 86.2647 106.839 86.0862 107.017C85.9077 107.195 85.6658 107.295 85.4134 107.295H32.1067C31.8544 107.295 31.6124 107.195 31.4339 107.017C31.2555 106.839 31.1551 106.597 31.1548 106.345V36.4555H40.899C41.5785 40.6985 43.7498 44.5607 47.0233 47.3488C50.2967 50.137 54.458 51.6685 58.7601 51.6685C63.0621 51.6685 67.2234 50.137 70.4968 47.3488C73.7703 44.5607 75.9416 40.6985 76.6211 36.4555H86.3653V106.345ZM111.709 50.7578L102.949 68.2561C102.871 68.4143 102.749 68.5474 102.599 68.6403C102.449 68.7331 102.275 68.782 102.098 68.7814H92.0767V38.5187L111.33 49.5071C111.541 49.6277 111.698 49.8244 111.768 50.0569C111.839 50.2894 111.818 50.5405 111.709 50.7578Z" fill="#444444"/>
<path d="M89.1266 25.5291L84.9794 14.7475C84.9172 14.5857 84.8074 14.4466 84.6645 14.3484C84.5216 14.2503 84.3523 14.1978 84.1789 14.1978C84.0056 14.1978 83.8363 14.2503 83.6934 14.3484C83.5505 14.4466 83.4407 14.5857 83.3784 14.7475L79.2312 25.5291C79.1882 25.6411 79.1221 25.7429 79.0372 25.8277C78.9523 25.9126 78.8506 25.9787 78.7386 26.0218L67.957 30.169C67.7952 30.2312 67.656 30.341 67.5579 30.4839C67.4598 30.6268 67.4072 30.7961 67.4072 30.9694C67.4072 31.1428 67.4598 31.3121 67.5579 31.455C67.656 31.5979 67.7952 31.7077 67.957 31.7699L78.7386 35.9171C78.8506 35.9602 78.9523 36.0263 79.0372 36.1112C79.1221 36.196 79.1882 36.2978 79.2312 36.4098L83.3784 47.1914C83.4407 47.3532 83.5505 47.4923 83.6934 47.5905C83.8363 47.6886 84.0056 47.7411 84.1789 47.7411C84.3523 47.7411 84.5216 47.6886 84.6645 47.5905C84.8074 47.4923 84.9172 47.3532 84.9794 47.1914L89.1266 36.4098C89.1697 36.2978 89.2358 36.196 89.3207 36.1112C89.4055 36.0263 89.5072 35.9602 89.6193 35.9171L100.401 31.7699C100.563 31.7077 100.702 31.5979 100.8 31.455C100.898 31.3121 100.951 31.1428 100.951 30.9694C100.951 30.7961 100.898 30.6268 100.8 30.4839C100.702 30.341 100.563 30.2312 100.401 30.169L89.6193 26.0218C89.5072 25.9787 89.4055 25.9126 89.3207 25.8277C89.2358 25.7429 89.1697 25.6411 89.1266 25.5291Z" fill="#76C5FF" stroke="#76C5FF" stroke-width="3" stroke-linecap="round" stroke-linejoin="round"/>
<path d="M74.6494 6.9553L72.7435 2L70.8376 6.9553L65.8823 8.86119L70.8376 10.7671L72.7435 15.7224L74.6494 10.7671L79.6047 8.86119L74.6494 6.9553Z" fill="#76C5FF" stroke="#76C5FF" stroke-width="3" stroke-linecap="round" stroke-linejoin="round"/>
<path d="M105.017 11.6561L102.475 5.04932L99.9339 11.6561L93.3271 14.1976L99.9339 16.7391L102.475 23.3458L105.017 16.7391L111.624 14.1976L105.017 11.6561Z" fill="#76C5FF" stroke="#76C5FF" stroke-width="3" stroke-linecap="round" stroke-linejoin="round"/>
</svg>
