<svg width="83" height="89" viewBox="0 0 83 89" fill="none" xmlns="http://www.w3.org/2000/svg">
<path d="M70.55 35.1078V12.4367C70.55 5.5965 64.9475 0 58.1 0H24.9C18.0525 0 12.45 5.5965 12.45 12.4367V35.1078C5.6025 35.1078 0 40.7043 0 47.5444V68.2722C0 75.1124 5.6025 80.7089 12.45 80.7089V89H20.75V80.7089H62.25V89H70.55V80.7089C77.3975 80.7089 83 75.1124 83 68.2722V47.5444C83 40.7043 77.3975 35.1078 70.55 35.1078ZM20.75 12.4367C20.75 10.1566 22.6175 8.29111 24.9 8.29111H58.1C60.3825 8.29111 62.25 10.1566 62.25 12.4367V38.3413C59.7185 40.6214 58.1 43.8964 58.1 47.5444V55.8356H24.9V47.5444C24.9 43.8964 23.2815 40.6214 20.75 38.3413V12.4367ZM74.7 68.2722C74.7 70.5523 72.8325 72.4178 70.55 72.4178H12.45C10.1675 72.4178 8.3 70.5523 8.3 68.2722V47.5444C8.3 45.2644 10.1675 43.3989 12.45 43.3989C14.7325 43.3989 16.6 45.2644 16.6 47.5444V64.1267H66.4V47.5444C66.4 45.2644 68.2675 43.3989 70.55 43.3989C72.8325 43.3989 74.7 45.2644 74.7 47.5444V68.2722Z" fill="#76C5FF"/>
</svg>
