<svg width="117" height="96" viewBox="0 0 117 96" fill="none" xmlns="http://www.w3.org/2000/svg">
<circle cx="31.5" cy="40.5" r="31.5" fill="url(#paint0_linear)"/>
<path d="M90.0943 31.8154H59.9594L73.0219 18.753L70.2426 15.9341L54.3612 31.8154L38.4799 15.9341L35.6609 18.753L48.7631 31.8154H18.6282C16.5222 31.8154 14.5024 32.6521 13.0133 34.1412C11.5241 35.6304 10.6875 37.6501 10.6875 39.7561V87.4002C10.6875 91.7676 14.2608 95.3409 18.6282 95.3409H90.0943C94.4617 95.3409 98.035 91.7676 98.035 87.4002V39.7561C98.035 37.6501 97.1984 35.6304 95.7092 34.1412C94.2201 32.6521 92.2003 31.8154 90.0943 31.8154ZM90.0943 87.4002H18.6282V39.7561H90.0943V87.4002ZM42.4502 47.6968V79.4595L70.2426 63.5782L42.4502 47.6968Z" fill="#587EC8"/>
<path d="M83.3702 4.03384C87.3271 3.76696 91.2954 4.35003 95.0083 5.74389C98.7212 7.13774 102.093 9.3101 104.897 12.115C107.7 14.9199 109.871 18.2924 111.264 22.0059C112.656 25.7193 113.238 29.6878 112.969 33.6446C112.941 33.9106 112.966 34.1795 113.044 34.4353C113.122 34.6911 113.251 34.9285 113.423 35.1332C113.596 35.338 113.807 35.5058 114.046 35.6267C114.284 35.7475 114.545 35.8189 114.812 35.8366C115.079 35.8543 115.346 35.8178 115.599 35.7295C115.851 35.6411 116.083 35.5026 116.281 35.3224C116.478 35.1421 116.638 34.9238 116.749 34.6805C116.86 34.4373 116.921 34.1741 116.928 33.9067C117.233 29.3858 116.568 24.8517 114.977 20.609C113.386 16.3663 110.905 12.5132 107.702 9.30836C104.499 6.10353 100.647 3.62118 96.4049 2.028C92.163 0.434826 87.6292 -0.232293 83.1082 0.0714401C82.848 0.0886461 82.5938 0.156929 82.36 0.27239C82.1262 0.387851 81.9174 0.548228 81.7456 0.744366C81.5738 0.940504 81.4423 1.16856 81.3587 1.41552C81.275 1.66247 81.2408 1.92349 81.258 2.18366C81.2752 2.44384 81.3435 2.69808 81.4589 2.93186C81.5744 3.16565 81.7348 3.3744 81.9309 3.54621C82.1271 3.71801 82.3551 3.8495 82.6021 3.93317C82.849 4.01684 83.11 4.05105 83.3702 4.03384Z" fill="#587EC8"/>
<path d="M81.2671 11.8628C81.2778 11.6017 81.34 11.3452 81.45 11.1082C81.5601 10.8711 81.7158 10.6582 81.9084 10.4815C82.1009 10.3048 82.3265 10.1678 82.5721 10.0785C82.8177 9.98921 83.0785 9.94926 83.3396 9.96098C89.542 10.2313 95.4177 12.8167 99.8072 17.207C104.197 21.5972 106.781 27.4734 107.05 33.6758C107.065 33.9382 107.027 34.2008 106.94 34.4484C106.852 34.6961 106.716 34.9239 106.539 35.1186C106.363 35.3133 106.15 35.471 105.912 35.5826C105.674 35.6942 105.416 35.7575 105.154 35.7688C104.891 35.7801 104.629 35.7392 104.383 35.6484C104.136 35.5577 103.91 35.4188 103.717 35.24C103.525 35.0612 103.37 34.846 103.261 34.6068C103.152 34.3676 103.092 34.1092 103.084 33.8466C102.857 28.6384 100.686 23.7045 97.0003 20.0179C93.3144 16.3313 88.3809 14.1597 83.1728 13.9313C82.9117 13.9211 82.6552 13.8594 82.418 13.7499C82.1807 13.6403 81.9675 13.485 81.7904 13.2928C81.6134 13.1006 81.476 12.8753 81.3862 12.6299C81.2964 12.3846 81.2559 12.1238 81.2671 11.8628Z" fill="#587EC8"/>
<defs>
<linearGradient id="paint0_linear" x1="31.5" y1="9" x2="31.5" y2="72" gradientUnits="userSpaceOnUse">
<stop stop-color="#C0FFA3" stop-opacity="0.1"/>
<stop offset="1" stop-color="#39FFD0" stop-opacity="0.29"/>
</linearGradient>
</defs>
</svg>
