<svg width="97" height="104" viewBox="0 0 97 104" fill="none" xmlns="http://www.w3.org/2000/svg">
<circle cx="31.5" cy="31.5" r="31.5" fill="url(#paint0_linear)"/>
<path d="M27.8125 20.375C28.4921 20.375 29.1439 20.105 29.6245 19.6245C30.105 19.1439 30.375 18.4921 30.375 17.8125C30.375 17.1329 30.105 16.4811 29.6245 16.0005C29.1439 15.52 28.4921 15.25 27.8125 15.25C27.1329 15.25 26.4811 15.52 26.0005 16.0005C25.52 16.4811 25.25 17.1329 25.25 17.8125C25.25 18.4921 25.52 19.1439 26.0005 19.6245C26.4811 20.105 27.1329 20.375 27.8125 20.375ZM38.0625 17.8125C38.0625 18.4921 37.7925 19.1439 37.312 19.6245C36.8314 20.105 36.1796 20.375 35.5 20.375C34.8204 20.375 34.1686 20.105 33.688 19.6245C33.2075 19.1439 32.9375 18.4921 32.9375 17.8125C32.9375 17.1329 33.2075 16.4811 33.688 16.0005C34.1686 15.52 34.8204 15.25 35.5 15.25C36.1796 15.25 36.8314 15.52 37.312 16.0005C37.7925 16.4811 38.0625 17.1329 38.0625 17.8125ZM43.1875 20.375C43.8671 20.375 44.5189 20.105 44.9995 19.6245C45.48 19.1439 45.75 18.4921 45.75 17.8125C45.75 17.1329 45.48 16.4811 44.9995 16.0005C44.5189 15.52 43.8671 15.25 43.1875 15.25C42.5079 15.25 41.8561 15.52 41.3755 16.0005C40.895 16.4811 40.625 17.1329 40.625 17.8125C40.625 18.4921 40.895 19.1439 41.3755 19.6245C41.8561 20.105 42.5079 20.375 43.1875 20.375Z" fill="#587EC8"/>
<path d="M25.25 5C22.5315 5 19.9244 6.07991 18.0022 8.00216C16.0799 9.9244 15 12.5315 15 15.25L15 92.8571C15 95.5756 16.0799 98.1827 18.0022 100.105C19.9244 102.027 22.5315 103.107 25.25 103.107H86.75C89.4685 103.107 92.0756 102.027 93.9978 100.105C95.9201 98.1827 97 95.5756 97 92.8571V15.25C97 12.5315 95.9201 9.9244 93.9978 8.00216C92.0756 6.07991 89.4685 5 86.75 5H25.25ZM91.875 15.25V25.5H20.125V15.25C20.125 13.8908 20.665 12.5872 21.6261 11.6261C22.5872 10.665 23.8908 10.125 25.25 10.125H86.75C88.1092 10.125 89.4128 10.665 90.3739 11.6261C91.335 12.5872 91.875 13.8908 91.875 15.25ZM25.25 97.9821C23.8908 97.9821 22.5872 97.4422 21.6261 96.481C20.665 95.5199 20.125 94.2164 20.125 92.8571V30.625H91.875V92.8571C91.875 94.2164 91.335 95.5199 90.3739 96.481C89.4128 97.4422 88.1092 97.9821 86.75 97.9821H56H25.25Z" fill="#587EC8"/>
<mask id="path-4-inside-1" fill="white">
<path d="M50.8769 42.4818C48.9983 42.3306 47.1112 42.6388 45.3784 43.3797C43.6456 44.1206 42.119 45.2721 40.9305 46.7347C39.7421 48.1973 38.9273 49.9271 38.5566 51.7749C38.1859 53.6227 38.2703 55.5329 38.8027 57.3407L27.2251 68.9154C26.8982 69.2419 26.7144 69.6847 26.714 70.1467V78.4517C26.714 78.9138 26.8976 79.3569 27.2243 79.6837C27.551 80.0104 27.9942 80.194 28.4563 80.194H36.5871C37.0491 80.194 37.4923 80.0104 37.819 79.6837C38.1458 79.3569 38.3294 78.9138 38.3294 78.4517V74.3863H43.8467C44.3087 74.3863 44.7519 74.2027 45.0787 73.876C45.4054 73.5492 45.589 73.1061 45.589 72.644V67.7278L47.7233 65.5935C47.0978 64.8274 46.5447 64.005 46.071 63.1368L43.1962 66.0145C42.8694 66.3409 42.6855 66.7838 42.6851 67.2457V71.4824H37.1707C36.7086 71.4824 36.2655 71.666 35.9387 71.9928C35.612 72.3195 35.4284 72.7627 35.4284 73.2247V77.2901H29.6207V70.6316L42.1653 58.087L41.8227 57.2072C41.3867 56.081 41.1894 54.8765 41.2436 53.67C41.2977 52.4636 41.602 51.2816 42.1372 50.199C42.6723 49.1164 43.4267 48.1569 44.3523 47.3813C45.2779 46.6056 46.3547 46.0309 47.5142 45.6934C48.4725 44.4651 49.605 43.382 50.874 42.4818H50.8769ZM60.1111 54.7854C60.3971 54.7854 60.6803 54.729 60.9445 54.6196C61.2088 54.5101 61.4488 54.3497 61.6511 54.1475C61.8533 53.9452 62.0137 53.7051 62.1232 53.4409C62.2326 53.1767 62.289 52.8935 62.289 52.6075C62.289 52.3215 62.2326 52.0383 62.1232 51.774C62.0137 51.5098 61.8533 51.2697 61.6511 51.0675C61.4488 50.8652 61.2088 50.7048 60.9445 50.5954C60.6803 50.4859 60.3971 50.4296 60.1111 50.4296C59.5335 50.4296 58.9795 50.659 58.5711 51.0675C58.1627 51.4759 57.9332 52.0299 57.9332 52.6075C57.9332 53.1851 58.1627 53.739 58.5711 54.1475C58.9795 54.5559 59.5335 54.7854 60.1111 54.7854ZM47.0438 55.5113C47.044 53.2538 47.629 51.0348 48.7418 49.0707C49.8547 47.1065 51.4574 45.4642 53.3938 44.3037C55.3302 43.1432 57.5343 42.5042 59.7911 42.4489C62.0479 42.3937 64.2806 42.924 66.2715 43.9883C68.2624 45.0526 69.9436 46.6145 71.1513 48.5218C72.359 50.4291 73.052 52.6168 73.1627 54.8715C73.2733 57.1263 72.798 59.3714 71.783 61.3878C70.7679 63.4042 69.2478 65.1233 67.3707 66.3775V72.3304L69.6444 74.607C69.9707 74.9337 70.1539 75.3765 70.1539 75.8382C70.1539 76.2999 69.9707 76.7428 69.6444 77.0694L66.5199 80.194L69.6212 83.2924C69.7944 83.4657 69.9292 83.6737 70.0166 83.9028C70.104 84.1318 70.1421 84.3767 70.1284 84.6214C70.1147 84.8661 70.0495 85.1052 69.9371 85.3231C69.8246 85.5409 69.6675 85.7325 69.476 85.8855L62.6519 91.3447C62.3429 91.5921 61.9589 91.7269 61.563 91.7269C61.1671 91.7269 60.7831 91.5921 60.4741 91.3447L53.5048 85.7693C53.3011 85.6062 53.1366 85.3994 53.0235 85.1642C52.9104 84.929 52.8516 84.6713 52.8515 84.4103V66.3775C51.0638 65.1843 49.5983 63.5681 48.5852 61.6726C47.5721 59.777 47.0426 57.6606 47.0438 55.5113ZM60.1111 45.3479C57.8729 45.3469 55.697 46.0847 53.9211 47.4468C52.1451 48.809 50.8685 50.7192 50.2893 52.8812C49.7101 55.0431 49.8607 57.3357 50.7178 59.4033C51.5749 61.4709 53.0905 63.1977 55.0294 64.3158C55.2501 64.4432 55.4334 64.6265 55.5608 64.8472C55.6882 65.0679 55.7553 65.3183 55.7553 65.5731V83.8528L61.563 88.499L66.6476 84.4307L63.6451 81.4252C63.3188 81.0985 63.1355 80.6557 63.1355 80.194C63.1355 79.7323 63.3188 79.2894 63.6451 78.9627L66.7696 75.8382L64.9779 74.0465C64.6511 73.7201 64.4673 73.2772 64.4668 72.8153V65.5731C64.4669 65.3183 64.5339 65.0679 64.6614 64.8472C64.7888 64.6265 64.9721 64.4432 65.1928 64.3158C67.1317 63.1977 68.6473 61.4709 69.5044 59.4033C70.3615 57.3357 70.5121 55.0431 69.9329 52.8812C69.3537 50.7192 68.077 48.809 66.3011 47.4468C64.5252 46.0847 62.3492 45.3469 60.1111 45.3479Z"/>
</mask>
<path d="M50.8769 42.4818C48.9983 42.3306 47.1112 42.6388 45.3784 43.3797C43.6456 44.1206 42.119 45.2721 40.9305 46.7347C39.7421 48.1973 38.9273 49.9271 38.5566 51.7749C38.1859 53.6227 38.2703 55.5329 38.8027 57.3407L27.2251 68.9154C26.8982 69.2419 26.7144 69.6847 26.714 70.1467V78.4517C26.714 78.9138 26.8976 79.3569 27.2243 79.6837C27.551 80.0104 27.9942 80.194 28.4563 80.194H36.5871C37.0491 80.194 37.4923 80.0104 37.819 79.6837C38.1458 79.3569 38.3294 78.9138 38.3294 78.4517V74.3863H43.8467C44.3087 74.3863 44.7519 74.2027 45.0787 73.876C45.4054 73.5492 45.589 73.1061 45.589 72.644V67.7278L47.7233 65.5935C47.0978 64.8274 46.5447 64.005 46.071 63.1368L43.1962 66.0145C42.8694 66.3409 42.6855 66.7838 42.6851 67.2457V71.4824H37.1707C36.7086 71.4824 36.2655 71.666 35.9387 71.9928C35.612 72.3195 35.4284 72.7627 35.4284 73.2247V77.2901H29.6207V70.6316L42.1653 58.087L41.8227 57.2072C41.3867 56.081 41.1894 54.8765 41.2436 53.67C41.2977 52.4636 41.602 51.2816 42.1372 50.199C42.6723 49.1164 43.4267 48.1569 44.3523 47.3813C45.2779 46.6056 46.3547 46.0309 47.5142 45.6934C48.4725 44.4651 49.605 43.382 50.874 42.4818H50.8769ZM60.1111 54.7854C60.3971 54.7854 60.6803 54.729 60.9445 54.6196C61.2088 54.5101 61.4488 54.3497 61.6511 54.1475C61.8533 53.9452 62.0137 53.7051 62.1232 53.4409C62.2326 53.1767 62.289 52.8935 62.289 52.6075C62.289 52.3215 62.2326 52.0383 62.1232 51.774C62.0137 51.5098 61.8533 51.2697 61.6511 51.0675C61.4488 50.8652 61.2088 50.7048 60.9445 50.5954C60.6803 50.4859 60.3971 50.4296 60.1111 50.4296C59.5335 50.4296 58.9795 50.659 58.5711 51.0675C58.1627 51.4759 57.9332 52.0299 57.9332 52.6075C57.9332 53.1851 58.1627 53.739 58.5711 54.1475C58.9795 54.5559 59.5335 54.7854 60.1111 54.7854ZM47.0438 55.5113C47.044 53.2538 47.629 51.0348 48.7418 49.0707C49.8547 47.1065 51.4574 45.4642 53.3938 44.3037C55.3302 43.1432 57.5343 42.5042 59.7911 42.4489C62.0479 42.3937 64.2806 42.924 66.2715 43.9883C68.2624 45.0526 69.9436 46.6145 71.1513 48.5218C72.359 50.4291 73.052 52.6168 73.1627 54.8715C73.2733 57.1263 72.798 59.3714 71.783 61.3878C70.7679 63.4042 69.2478 65.1233 67.3707 66.3775V72.3304L69.6444 74.607C69.9707 74.9337 70.1539 75.3765 70.1539 75.8382C70.1539 76.2999 69.9707 76.7428 69.6444 77.0694L66.5199 80.194L69.6212 83.2924C69.7944 83.4657 69.9292 83.6737 70.0166 83.9028C70.104 84.1318 70.1421 84.3767 70.1284 84.6214C70.1147 84.8661 70.0495 85.1052 69.9371 85.3231C69.8246 85.5409 69.6675 85.7325 69.476 85.8855L62.6519 91.3447C62.3429 91.5921 61.9589 91.7269 61.563 91.7269C61.1671 91.7269 60.7831 91.5921 60.4741 91.3447L53.5048 85.7693C53.3011 85.6062 53.1366 85.3994 53.0235 85.1642C52.9104 84.929 52.8516 84.6713 52.8515 84.4103V66.3775C51.0638 65.1843 49.5983 63.5681 48.5852 61.6726C47.5721 59.777 47.0426 57.6606 47.0438 55.5113ZM60.1111 45.3479C57.8729 45.3469 55.697 46.0847 53.9211 47.4468C52.1451 48.809 50.8685 50.7192 50.2893 52.8812C49.7101 55.0431 49.8607 57.3357 50.7178 59.4033C51.5749 61.4709 53.0905 63.1977 55.0294 64.3158C55.2501 64.4432 55.4334 64.6265 55.5608 64.8472C55.6882 65.0679 55.7553 65.3183 55.7553 65.5731V83.8528L61.563 88.499L66.6476 84.4307L63.6451 81.4252C63.3188 81.0985 63.1355 80.6557 63.1355 80.194C63.1355 79.7323 63.3188 79.2894 63.6451 78.9627L66.7696 75.8382L64.9779 74.0465C64.6511 73.7201 64.4673 73.2772 64.4668 72.8153V65.5731C64.4669 65.3183 64.5339 65.0679 64.6614 64.8472C64.7888 64.6265 64.9721 64.4432 65.1928 64.3158C67.1317 63.1977 68.6473 61.4709 69.5044 59.4033C70.3615 57.3357 70.5121 55.0431 69.9329 52.8812C69.3537 50.7192 68.077 48.809 66.3011 47.4468C64.5252 46.0847 62.3492 45.3469 60.1111 45.3479Z" fill="#587EC8"/>
<path d="M50.8769 42.4818V45.4818L51.1175 39.4914L50.8769 42.4818ZM38.8027 57.3407L40.9237 59.4623L42.1838 58.2026L41.6805 56.4933L38.8027 57.3407ZM27.2251 68.9154L29.3451 71.0381L29.3461 71.037L27.2251 68.9154ZM26.714 70.1467L23.714 70.144V70.1467H26.714ZM26.714 78.4517H29.714H26.714ZM28.4563 80.194V77.194V80.194ZM36.5871 80.194V83.194V80.194ZM38.3294 74.3863V71.3863H35.3294V74.3863H38.3294ZM43.8467 74.3863V77.3863V74.3863ZM45.589 67.7278L43.4676 65.6065L42.589 66.4851V67.7278H45.589ZM47.7233 65.5935L49.8446 67.7148L51.7625 65.7969L50.0471 63.6961L47.7233 65.5935ZM46.071 63.1368L48.7046 61.7L46.7835 58.1788L43.9486 61.0166L46.071 63.1368ZM43.1962 66.0145L45.3162 68.1371L45.3186 68.1348L43.1962 66.0145ZM42.6851 67.2457L39.6851 67.2431V67.2457H42.6851ZM42.6851 71.4824V74.4824H45.6851V71.4824H42.6851ZM37.1707 71.4824V74.4824V71.4824ZM35.4284 77.2901V80.2901H38.4284V77.2901H35.4284ZM29.6207 77.2901H26.6207V80.2901H29.6207V77.2901ZM29.6207 70.6316L27.4994 68.5103L26.6207 69.389V70.6316H29.6207ZM42.1653 58.087L44.2867 60.2083L45.6716 58.8234L44.9608 56.9983L42.1653 58.087ZM41.8227 57.2072L39.025 58.2903L39.0272 58.2958L41.8227 57.2072ZM47.5142 45.6934L48.3525 48.5739L49.2833 48.3031L49.8796 47.5387L47.5142 45.6934ZM50.874 42.4818V39.4818H49.9179L49.1382 40.0349L50.874 42.4818ZM60.1111 54.7854V57.7854V54.7854ZM60.1111 50.4296V47.4296V50.4296ZM47.0438 55.5113L50.0438 55.513V55.5115L47.0438 55.5113ZM67.3707 66.3775L65.704 63.8831L64.3707 64.7739V66.3775H67.3707ZM67.3707 72.3304H64.3707V73.5719L65.248 74.4503L67.3707 72.3304ZM69.6444 74.607L67.5217 76.7269L67.5218 76.727L69.6444 74.607ZM69.6444 77.0694L71.7657 79.1908L71.767 79.1894L69.6444 77.0694ZM66.5199 80.194L64.3985 78.0726L62.2762 80.195L64.3995 82.3163L66.5199 80.194ZM69.6212 83.2924L71.7431 81.1717L71.7415 81.1701L69.6212 83.2924ZM69.476 85.8855L67.604 83.5412L67.6019 83.5429L69.476 85.8855ZM62.6519 91.3447L60.7779 89.0021L60.7769 89.0028L62.6519 91.3447ZM60.4741 91.3447L62.3491 89.0028L62.3481 89.0021L60.4741 91.3447ZM53.5048 85.7693L51.6298 88.1112L51.6308 88.1119L53.5048 85.7693ZM52.8515 84.4103H49.8515V84.4122L52.8515 84.4103ZM52.8515 66.3775H55.8515V64.773L54.517 63.8823L52.8515 66.3775ZM60.1111 45.3479L60.1097 48.3479L60.1124 48.3479L60.1111 45.3479ZM55.0294 64.3158L56.5294 61.7177L56.528 61.7169L55.0294 64.3158ZM55.7553 65.5731H58.7553L58.7553 65.5731L55.7553 65.5731ZM55.7553 83.8528H52.7553V85.2947L53.8812 86.1954L55.7553 83.8528ZM61.563 88.499L59.6889 90.8416L61.5631 92.3409L63.4372 90.8414L61.563 88.499ZM66.6476 84.4307L68.5219 86.7731L71.1376 84.6803L68.77 82.3104L66.6476 84.4307ZM63.6451 81.4252L61.5224 83.5452L61.5227 83.5455L63.6451 81.4252ZM63.6451 78.9627L61.5237 76.8414L61.5224 76.8427L63.6451 78.9627ZM66.7696 75.8382L68.8909 77.9595L71.0122 75.8382L68.8909 73.7169L66.7696 75.8382ZM64.9779 74.0465L67.0992 71.9252L67.0979 71.9239L64.9779 74.0465ZM64.4668 72.8153H61.4668V72.8179L64.4668 72.8153ZM64.4668 65.5731L61.4668 65.5731V65.5731H64.4668ZM65.1928 64.3158L63.6942 61.7169L63.6928 61.7177L65.1928 64.3158ZM51.1175 39.4914C48.7538 39.3012 46.3793 39.689 44.1989 40.6213L46.5579 46.1381C47.8431 45.5885 49.2428 45.36 50.6362 45.4721L51.1175 39.4914ZM44.1989 40.6213C42.0185 41.5536 40.0978 43.0024 38.6023 44.8428L43.2588 48.6266C44.1403 47.5417 45.2726 46.6877 46.5579 46.1381L44.1989 40.6213ZM38.6023 44.8428C37.1069 46.6831 36.0817 48.8597 35.6152 51.1848L41.498 52.365C41.7729 50.9945 42.3773 49.7114 43.2588 48.6266L38.6023 44.8428ZM35.6152 51.1848C35.1487 53.5098 35.255 55.9134 35.9249 58.1882L41.6805 56.4933C41.2857 55.1524 41.223 53.7355 41.498 52.365L35.6152 51.1848ZM36.6816 55.2191L25.104 66.7939L29.3461 71.037L40.9237 59.4623L36.6816 55.2191ZM25.1051 66.7928C24.2155 67.6813 23.7151 68.8867 23.714 70.144L29.714 70.1493C29.7137 70.4828 29.581 70.8025 29.3451 71.0381L25.1051 66.7928ZM23.714 70.1467V78.4517H29.714V70.1467H23.714ZM23.714 78.4517C23.714 79.7094 24.2136 80.9156 25.103 81.805L29.3456 77.5623C29.5815 77.7982 29.714 78.1181 29.714 78.4517H23.714ZM25.103 81.805C25.9923 82.6943 27.1985 83.194 28.4563 83.194V77.194C28.7899 77.194 29.1098 77.3265 29.3456 77.5623L25.103 81.805ZM28.4563 83.194H36.5871V77.194H28.4563V83.194ZM36.5871 83.194C37.8448 83.194 39.051 82.6943 39.9404 81.805L35.6977 77.5623C35.9336 77.3265 36.2535 77.194 36.5871 77.194V83.194ZM39.9404 81.805C40.8297 80.9156 41.3294 79.7094 41.3294 78.4517H35.3294C35.3294 78.1181 35.4619 77.7982 35.6977 77.5623L39.9404 81.805ZM41.3294 78.4517V74.3863H35.3294V78.4517H41.3294ZM38.3294 77.3863H43.8467V71.3863H38.3294V77.3863ZM43.8467 77.3863C45.1044 77.3863 46.3106 76.8867 47.2 75.9973L42.9573 71.7547C43.1932 71.5188 43.5131 71.3863 43.8467 71.3863V77.3863ZM47.2 75.9973C48.0893 75.1079 48.589 73.9017 48.589 72.644H42.589C42.589 72.3104 42.7215 71.9905 42.9573 71.7547L47.2 75.9973ZM48.589 72.644V67.7278H42.589V72.644H48.589ZM47.7103 69.8491L49.8446 67.7148L45.602 63.4721L43.4676 65.6065L47.7103 69.8491ZM50.0471 63.6961C49.5388 63.0736 49.0894 62.4054 48.7046 61.7L43.4374 64.5736C43.9999 65.6046 44.6567 66.5812 45.3995 67.4909L50.0471 63.6961ZM43.9486 61.0166L41.0738 63.8943L45.3186 68.1348L48.1934 65.2571L43.9486 61.0166ZM41.0762 63.8919C40.1866 64.7804 39.6862 65.9858 39.6851 67.2431L45.6851 67.2484C45.6848 67.5818 45.5521 67.9015 45.3162 68.1371L41.0762 63.8919ZM39.6851 67.2457V71.4824H45.6851V67.2457H39.6851ZM42.6851 68.4824H37.1707V74.4824H42.6851V68.4824ZM37.1707 68.4824C35.913 68.4824 34.7068 68.9821 33.8174 69.8714L38.06 74.1141C37.8242 74.3499 37.5043 74.4824 37.1707 74.4824V68.4824ZM33.8174 69.8714C32.9281 70.7608 32.4284 71.967 32.4284 73.2247H38.4284C38.4284 73.5583 38.2959 73.8782 38.06 74.1141L33.8174 69.8714ZM32.4284 73.2247V77.2901H38.4284V73.2247H32.4284ZM35.4284 74.2901H29.6207V80.2901H35.4284V74.2901ZM32.6207 77.2901V70.6316H26.6207V77.2901H32.6207ZM31.7421 72.7529L44.2867 60.2083L40.044 55.9657L27.4994 68.5103L31.7421 72.7529ZM44.9608 56.9983L44.6182 56.1185L39.0272 58.2958L39.3698 59.1757L44.9608 56.9983ZM44.6203 56.124C44.3344 55.3855 44.2051 54.5956 44.2406 53.8045L38.2466 53.5356C38.1738 55.1573 38.4389 56.7765 39.0251 58.2903L44.6203 56.124ZM44.2406 53.8045C44.2761 53.0134 44.4756 52.2383 44.8265 51.5284L39.4478 48.8696C38.7284 50.3249 38.3194 51.9138 38.2466 53.5356L44.2406 53.8045ZM44.8265 51.5284C45.1775 50.8185 45.6721 50.1893 46.2791 49.6807L42.4255 45.0818C41.1812 46.1244 40.1672 47.4143 39.4478 48.8696L44.8265 51.5284ZM46.2791 49.6807C46.8861 49.1721 47.5921 48.7952 48.3525 48.5739L46.6759 42.8129C45.1172 43.2665 43.6698 44.0392 42.4255 45.0818L46.2791 49.6807ZM49.8796 47.5387C50.6591 46.5395 51.5797 45.6593 52.6097 44.9286L49.1382 40.0349C47.6303 41.1046 46.2859 42.3907 45.1489 43.8481L49.8796 47.5387ZM50.874 45.4818H50.8769V39.4818H50.874V45.4818ZM60.1111 57.7854C60.791 57.7854 61.4644 57.6514 62.0926 57.3912L59.7965 51.8479C59.8962 51.8066 60.0031 51.7854 60.1111 51.7854V57.7854ZM62.0926 57.3912C62.7208 57.131 63.2916 56.7496 63.7724 56.2688L59.5298 52.0261C59.6061 51.9498 59.6967 51.8893 59.7965 51.8479L62.0926 57.3912ZM63.7724 56.2688C64.2532 55.788 64.6346 55.2172 64.8948 54.589L59.3515 52.2929C59.3929 52.1931 59.4534 52.1025 59.5298 52.0261L63.7724 56.2688ZM64.8948 54.589C65.155 53.9607 65.289 53.2874 65.289 52.6075H59.289C59.289 52.4995 59.3102 52.3926 59.3515 52.2929L64.8948 54.589ZM65.289 52.6075C65.289 51.9275 65.155 51.2542 64.8948 50.626L59.3515 52.9221C59.3102 52.8223 59.289 52.7154 59.289 52.6075H65.289ZM64.8948 50.626C64.6346 49.9978 64.2532 49.427 63.7724 48.9462L59.5298 53.1888C59.4534 53.1125 59.3929 53.0218 59.3515 52.9221L64.8948 50.626ZM63.7724 48.9462C63.2916 48.4653 62.7208 48.0839 62.0926 47.8237L59.7965 53.367C59.6967 53.3257 59.6061 53.2651 59.5298 53.1888L63.7724 48.9462ZM62.0926 47.8237C61.4644 47.5635 60.791 47.4296 60.1111 47.4296V53.4296C60.0031 53.4296 59.8962 53.4083 59.7965 53.367L62.0926 47.8237ZM60.1111 47.4296C58.7378 47.4296 57.4208 47.9751 56.4498 48.9462L60.6924 53.1888C60.5382 53.343 60.3291 53.4296 60.1111 53.4296V47.4296ZM56.4498 48.9462C55.4787 49.9172 54.9332 51.2342 54.9332 52.6075H60.9332C60.9332 52.8255 60.8466 53.0346 60.6924 53.1888L56.4498 48.9462ZM54.9332 52.6075C54.9332 53.9807 55.4787 55.2977 56.4498 56.2688L60.6924 52.0261C60.8466 52.1803 60.9332 52.3894 60.9332 52.6075H54.9332ZM56.4498 56.2688C57.4208 57.2398 58.7378 57.7854 60.1111 57.7854V51.7854C60.3291 51.7854 60.5382 51.872 60.6924 52.0261L56.4498 56.2688ZM50.0438 55.5115C50.0439 53.7723 50.4946 52.0628 51.352 50.5496L46.1317 47.5918C44.7633 50.0069 44.044 52.7353 44.0438 55.5111L50.0438 55.5115ZM51.352 50.5496C52.2094 49.0363 53.4441 47.771 54.936 46.877L51.8517 41.7304C49.4707 43.1573 47.5 45.1767 46.1317 47.5918L51.352 50.5496ZM54.936 46.877C56.4278 45.9829 58.1259 45.4906 59.8646 45.448L59.7176 39.4498C56.9427 39.5178 54.2327 40.3035 51.8517 41.7304L54.936 46.877ZM59.8646 45.448C61.6033 45.4055 63.3234 45.814 64.8572 46.634L67.6858 41.3426C65.2378 40.034 62.4926 39.3819 59.7176 39.4498L59.8646 45.448ZM64.8572 46.634C66.391 47.4539 67.6863 48.6572 68.6167 50.1267L73.6859 46.9169C72.201 44.5717 70.1338 42.6512 67.6858 41.3426L64.8572 46.634ZM68.6167 50.1267C69.5471 51.5961 70.081 53.2815 70.1663 55.0187L76.159 54.7244C76.0229 51.952 75.1709 49.2621 73.6859 46.9169L68.6167 50.1267ZM70.1663 55.0187C70.2515 56.7558 69.8853 58.4854 69.1033 60.0389L74.4626 62.7367C75.7107 60.2573 76.2952 57.4969 76.159 54.7244L70.1663 55.0187ZM69.1033 60.0389C68.3213 61.5924 67.1502 62.9168 65.704 63.8831L69.0374 68.8719C71.3454 67.3298 73.2145 65.2161 74.4626 62.7367L69.1033 60.0389ZM64.3707 66.3775V72.3304H70.3707V66.3775H64.3707ZM65.248 74.4503L67.5217 76.7269L71.7671 72.487L69.4934 70.2104L65.248 74.4503ZM67.5218 76.727C67.2862 76.4911 67.1539 76.1715 67.1539 75.8382H73.1539C73.1539 74.5815 72.6551 73.3762 71.767 72.487L67.5218 76.727ZM67.1539 75.8382C67.1539 75.5049 67.2862 75.1853 67.5218 74.9494L71.767 79.1894C72.6551 78.3002 73.1539 77.0949 73.1539 75.8382H67.1539ZM67.5231 74.9481L64.3985 78.0726L68.6412 82.3153L71.7657 79.1908L67.5231 74.9481ZM64.3995 82.3163L67.5008 85.4147L71.7415 81.1701L68.6402 78.0717L64.3995 82.3163ZM67.4992 85.4131C67.3741 85.2879 67.2769 85.1378 67.2138 84.9724L72.8194 82.8331C72.5815 82.2097 72.2148 81.6436 71.7431 81.1717L67.4992 85.4131ZM67.2138 84.9724C67.1507 84.8071 67.1232 84.6304 67.1331 84.4537L73.1237 84.7891C73.161 84.1229 73.0573 83.4564 72.8194 82.8331L67.2138 84.9724ZM67.1331 84.4537C67.143 84.277 67.19 84.1044 67.2712 83.9472L72.603 86.6989C72.909 86.106 73.0864 85.4552 73.1237 84.7891L67.1331 84.4537ZM67.2712 83.9472C67.3523 83.7899 67.4658 83.6516 67.604 83.5412L71.3479 88.2298C71.8693 87.8135 72.2969 87.2919 72.603 86.6989L67.2712 83.9472ZM67.6019 83.5429L60.7779 89.0021L64.526 93.6873L71.3501 88.2281L67.6019 83.5429ZM60.7769 89.0028C61 88.8242 61.2773 88.7269 61.563 88.7269V94.7269C62.6404 94.7269 63.6858 94.36 64.5269 93.6866L60.7769 89.0028ZM61.563 88.7269C61.8487 88.7269 62.126 88.8242 62.3491 89.0028L58.5991 93.6866C59.4402 94.36 60.4855 94.7269 61.563 94.7269V88.7269ZM62.3481 89.0021L55.3789 83.4267L51.6308 88.1119L58.6 93.6873L62.3481 89.0021ZM55.3798 83.4275C55.5269 83.5452 55.6456 83.6945 55.7273 83.8643L50.3198 86.4641C50.6276 87.1043 51.0753 87.6672 51.6298 88.1112L55.3798 83.4275ZM55.7273 83.8643C55.8089 84.0341 55.8514 84.2201 55.8515 84.4085L49.8515 84.4122C49.8519 85.1226 50.012 85.8238 50.3198 86.4641L55.7273 83.8643ZM55.8515 84.4103V66.3775H49.8515V84.4103H55.8515ZM54.517 63.8823C53.14 62.9632 52.0113 61.7185 51.231 60.2585L45.9394 63.0867C47.1853 65.4178 48.9875 67.4053 51.186 68.8727L54.517 63.8823ZM51.231 60.2585C50.4507 58.7985 50.0429 57.1684 50.0438 55.513L44.0438 55.5097C44.0423 58.1529 44.6935 60.7556 45.9394 63.0867L51.231 60.2585ZM60.1124 42.3479C57.2136 42.3466 54.3954 43.3022 52.0953 45.0664L55.7468 49.8273C56.9986 48.8672 58.5322 48.3472 60.1097 48.3479L60.1124 42.3479ZM52.0953 45.0664C49.7951 46.8306 48.1416 49.3047 47.3915 52.1048L53.1871 53.6575C53.5953 52.1337 54.4951 50.7873 55.7468 49.8273L52.0953 45.0664ZM47.3915 52.1048C46.6413 54.9049 46.8364 57.8743 47.9465 60.5521L53.4891 58.2545C52.885 56.7972 52.7788 55.1813 53.1871 53.6575L47.3915 52.1048ZM47.9465 60.5521C49.0565 63.23 51.0195 65.4665 53.5307 66.9146L56.528 61.7169C55.1614 60.9289 54.0932 59.7118 53.4891 58.2545L47.9465 60.5521ZM53.5294 66.9138C53.294 66.778 53.0986 66.5825 52.9627 66.3472L58.1588 63.3472C57.7681 62.6704 57.2061 62.1084 56.5294 61.7177L53.5294 66.9138ZM52.9627 66.3472C52.8269 66.1119 52.7553 65.8449 52.7553 65.5732L58.7553 65.5731C58.7553 64.7916 58.5496 64.0239 58.1588 63.3472L52.9627 66.3472ZM52.7553 65.5731V83.8528H58.7553V65.5731H52.7553ZM53.8812 86.1954L59.6889 90.8416L63.4371 86.1564L57.6294 81.5102L53.8812 86.1954ZM63.4372 90.8414L68.5219 86.7731L64.7734 82.0882L59.6888 86.1565L63.4372 90.8414ZM68.77 82.3104L65.7674 79.3049L61.5227 83.5455L64.5253 86.551L68.77 82.3104ZM65.7677 79.3052C66.0032 79.541 66.1355 79.8607 66.1355 80.194H60.1355C60.1355 81.4507 60.6343 82.656 61.5224 83.5452L65.7677 79.3052ZM66.1355 80.194C66.1355 80.5273 66.0032 80.8469 65.7677 81.0827L61.5224 76.8427C60.6343 77.7319 60.1355 78.9373 60.1355 80.194H66.1355ZM65.7664 81.0841L68.8909 77.9595L64.6483 73.7169L61.5237 76.8414L65.7664 81.0841ZM68.8909 73.7169L67.0992 71.9252L62.8566 76.1679L64.6483 77.9595L68.8909 73.7169ZM67.0979 71.9239C67.3339 72.1595 67.4665 72.4792 67.4668 72.8127L61.4668 72.8179C61.4679 74.0752 61.9683 75.2807 62.8579 76.1692L67.0979 71.9239ZM67.4668 72.8153V65.5731H61.4668V72.8153H67.4668ZM67.4668 65.5732C67.4668 65.8449 67.3953 66.1119 67.2594 66.3472L62.0633 63.3472C61.6726 64.0239 61.4669 64.7916 61.4668 65.5731L67.4668 65.5732ZM67.2594 66.3472C67.1236 66.5825 66.9281 66.778 66.6928 66.9138L63.6928 61.7177C63.016 62.1084 62.454 62.6704 62.0633 63.3472L67.2594 66.3472ZM66.6914 66.9146C69.2027 65.4665 71.1656 63.23 72.2757 60.5521L66.7331 58.2545C66.129 59.7118 65.0607 60.9289 63.6942 61.7169L66.6914 66.9146ZM72.2757 60.5521C73.3858 57.8743 73.5809 54.9049 72.8307 52.1048L67.0351 53.6575C67.4433 55.1813 67.3372 56.7972 66.7331 58.2545L72.2757 60.5521ZM72.8307 52.1048C72.0805 49.3047 70.427 46.8306 68.1269 45.0664L64.4753 49.8273C65.727 50.7873 66.6269 52.1337 67.0351 53.6575L72.8307 52.1048ZM68.1269 45.0664C65.8267 43.3022 63.0085 42.3466 60.1097 42.3479L60.1124 48.3479C61.6899 48.3472 63.2236 48.8672 64.4753 49.8273L68.1269 45.0664Z" fill="#587EC8" mask="url(#path-4-inside-1)"/>
<path d="M62.3444 33.6582H65.2729V40.9796H62.3444V33.6582Z" fill="#587EC8"/>
<path d="M72.1364 43.7617L77.2701 38.6265L79.3406 40.6984L74.2069 45.8322L72.1364 43.7617Z" fill="#587EC8"/>
<path d="M76.9874 52.6938H84.3088V55.6224H76.9874V52.6938Z" fill="#587EC8"/>
<defs>
<linearGradient id="paint0_linear" x1="31.5" y1="0" x2="31.5" y2="63" gradientUnits="userSpaceOnUse">
<stop stop-color="#C0FFA3" stop-opacity="0.1"/>
<stop offset="1" stop-color="#39FFD0" stop-opacity="0.29"/>
</linearGradient>
</defs>
</svg>
