<svg width="101" height="100" viewBox="0 0 101 100" fill="none" xmlns="http://www.w3.org/2000/svg">
<circle cx="69.5" cy="39.5" r="31.5" fill="url(#paint0_linear)"/>
<path d="M38.4602 0.723145C33.504 0.72264 28.5962 1.6984 24.0171 3.59471C19.4381 5.49102 15.2773 8.27073 11.7726 11.7751C8.26785 15.2795 5.48771 19.4399 3.59093 24.0188C1.69416 28.5977 0.717896 33.5054 0.717896 38.4616C0.717391 43.4181 1.69328 48.3262 3.58983 52.9056C5.48638 57.4849 8.26644 61.6458 11.7712 65.1506C15.276 68.6554 19.4369 71.4354 24.0163 73.332C28.5956 75.2285 33.5037 76.2044 38.4602 76.2039C47.2679 76.2039 55.3564 73.0847 61.7794 68.0308L65.1448 71.3962C64.4538 72.7389 64.2091 74.2671 64.4464 75.7584C64.6836 77.2498 65.3904 78.6265 66.4641 79.6885L84.1333 97.477C86.8756 100.223 91.3641 100.223 94.1102 97.477L97.4756 94.1116C98.7932 92.7857 99.5328 90.9924 99.5328 89.1231C99.5328 87.2539 98.7932 85.4606 97.4756 84.1347L79.6871 66.4654C78.6177 65.3991 77.2327 64.7063 75.738 64.4901C74.2433 64.2739 72.7188 64.5458 71.391 65.2654L68.0256 61.9001C72.4308 56.3411 75.1802 49.6532 75.9586 42.6033C76.737 35.5533 75.5129 28.4267 72.4266 22.0406C69.3403 15.6544 64.5169 10.2673 58.5092 6.49691C52.5016 2.7265 45.553 0.725426 38.4602 0.723145ZM38.4602 7.69237C46.6207 7.69237 54.447 10.9341 60.2173 16.7045C65.9877 22.4748 69.2294 30.3011 69.2294 38.4616C69.2294 46.6221 65.9877 54.4484 60.2173 60.2187C54.447 65.9891 46.6207 69.2308 38.4602 69.2308C30.2997 69.2308 22.4734 65.9891 16.7031 60.2187C10.9327 54.4484 7.69097 46.6221 7.69097 38.4616C7.69097 30.3011 10.9327 22.4748 16.7031 16.7045C22.4734 10.9341 30.2997 7.69237 38.4602 7.69237ZM18.9871 28.727C16.9357 32.0497 15.854 35.8797 15.8641 39.7847C15.8595 42.5483 16.4005 45.2856 17.4559 47.8397C18.5114 50.3938 20.0606 52.7144 22.0148 54.6686C23.9689 56.6227 26.2896 58.1719 28.8437 59.2274C31.3978 60.2829 34.1351 60.8239 36.8987 60.8193C41.2432 60.8104 45.4802 59.4678 49.0371 56.9731C48.0783 57.062 47.1154 57.1005 46.1525 57.0885C42.5829 57.0977 39.0466 56.4014 35.7469 55.0396C32.4471 53.6779 29.449 51.6776 26.9247 49.1537C24.4004 46.6297 22.3997 43.6319 21.0375 40.3323C19.6753 37.0328 18.9785 33.4966 18.9871 29.927C18.9871 29.527 18.9679 29.127 18.9871 28.727Z" fill="#587EC8"/>
<defs>
<linearGradient id="paint0_linear" x1="69.5" y1="8" x2="69.5" y2="71" gradientUnits="userSpaceOnUse">
<stop stop-color="#C0FFA3" stop-opacity="0.1"/>
<stop offset="1" stop-color="#39FFD0" stop-opacity="0.29"/>
</linearGradient>
</defs>
</svg>
