<svg width="113" height="96" viewBox="0 0 113 96" fill="none" xmlns="http://www.w3.org/2000/svg">
<circle cx="31.5" cy="64.5" r="31.5" fill="url(#paint0_linear)"/>
<path d="M14 9.28125C14 6.81971 14.9778 4.45899 16.7184 2.71842C18.459 0.977843 20.8197 0 23.2812 0L103.719 0C106.18 0 108.541 0.977843 110.282 2.71842C112.022 4.45899 113 6.81971 113 9.28125V21.6562C113 24.1178 112.022 26.4785 110.282 28.2191C108.541 29.9597 106.18 30.9375 103.719 30.9375H23.2812C20.8197 30.9375 18.459 29.9597 16.7184 28.2191C14.9778 26.4785 14 24.1178 14 21.6562V9.28125ZM23.2812 6.1875C22.4607 6.1875 21.6738 6.51345 21.0936 7.09364C20.5134 7.67383 20.1875 8.46074 20.1875 9.28125V21.6562C20.1875 22.4768 20.5134 23.2637 21.0936 23.8439C21.6738 24.4241 22.4607 24.75 23.2812 24.75H103.719C104.539 24.75 105.326 24.4241 105.906 23.8439C106.487 23.2637 106.812 22.4768 106.812 21.6562V9.28125C106.812 8.46074 106.487 7.67383 105.906 7.09364C105.326 6.51345 104.539 6.1875 103.719 6.1875H23.2812Z" fill="#587EC8"/>
<path d="M26.375 15.4688C26.375 14.6482 26.7009 13.8613 27.2811 13.2811C27.8613 12.701 28.6482 12.375 29.4688 12.375H48.0312C48.8518 12.375 49.6387 12.701 50.2189 13.2811C50.7991 13.8613 51.125 14.6482 51.125 15.4688C51.125 16.2893 50.7991 17.0762 50.2189 17.6564C49.6387 18.2366 48.8518 18.5625 48.0312 18.5625H29.4688C28.6482 18.5625 27.8613 18.2366 27.2811 17.6564C26.7009 17.0762 26.375 16.2893 26.375 15.4688ZM93.3423 17.4673L90.8921 15.0171C90.6752 14.8007 90.5274 14.5248 90.4675 14.2244C90.4076 13.924 90.4382 13.6125 90.5555 13.3295C90.6728 13.0465 90.8715 12.8047 91.1264 12.6348C91.3813 12.4649 91.6809 12.3745 91.9873 12.375H96.8877C97.1941 12.3745 97.4937 12.4649 97.7486 12.6348C98.0035 12.8047 98.2022 13.0465 98.3195 13.3295C98.4368 13.6125 98.4674 13.924 98.4075 14.2244C98.3476 14.5248 98.1998 14.8007 97.9829 15.0171L95.5327 17.4673C95.389 17.6114 95.2183 17.7257 95.0304 17.8036C94.8424 17.8816 94.641 17.9218 94.4375 17.9218C94.234 17.9218 94.0326 17.8816 93.8446 17.8036C93.6567 17.7257 93.486 17.6114 93.3423 17.4673ZM14 49.5C14 46.2179 15.3038 43.0703 17.6246 40.7496C19.9453 38.4288 23.0929 37.125 26.375 37.125H100.625C103.907 37.125 107.055 38.4288 109.375 40.7496C111.696 43.0703 113 46.2179 113 49.5V80.4375C113 83.7196 111.696 86.8672 109.375 89.1879C107.055 91.5087 103.907 92.8125 100.625 92.8125H26.375C23.0929 92.8125 19.9453 91.5087 17.6246 89.1879C15.3038 86.8672 14 83.7196 14 80.4375V49.5ZM20.1875 68.0625V80.4375C20.1875 82.0785 20.8394 83.6523 21.9998 84.8127C23.1602 85.9731 24.734 86.625 26.375 86.625H100.625C102.266 86.625 103.84 85.9731 105 84.8127C106.161 83.6523 106.812 82.0785 106.812 80.4375V68.0625H20.1875ZM106.812 61.875V49.5C106.812 47.859 106.161 46.2852 105 45.1248C103.84 43.9644 102.266 43.3125 100.625 43.3125H26.375C24.734 43.3125 23.1602 43.9644 21.9998 45.1248C20.8394 46.2852 20.1875 47.859 20.1875 49.5V61.875H106.812ZM26.375 52.5938C26.375 51.7732 26.7009 50.9863 27.2811 50.4061C27.8613 49.8259 28.6482 49.5 29.4688 49.5H85.1562C85.9768 49.5 86.7637 49.8259 87.3439 50.4061C87.9241 50.9863 88.25 51.7732 88.25 52.5938C88.25 53.4143 87.9241 54.2012 87.3439 54.7814C86.7637 55.3616 85.9768 55.6875 85.1562 55.6875H29.4688C28.6482 55.6875 27.8613 55.3616 27.2811 54.7814C26.7009 54.2012 26.375 53.4143 26.375 52.5938ZM26.375 77.3438C26.375 76.5232 26.7009 75.7363 27.2811 75.1561C27.8613 74.5759 28.6482 74.25 29.4688 74.25H66.5938C67.4143 74.25 68.2012 74.5759 68.7814 75.1561C69.3616 75.7363 69.6875 76.5232 69.6875 77.3438C69.6875 78.1643 69.3616 78.9512 68.7814 79.5314C68.2012 80.1116 67.4143 80.4375 66.5938 80.4375H29.4688C28.6482 80.4375 27.8613 80.1116 27.2811 79.5314C26.7009 78.9512 26.375 78.1643 26.375 77.3438Z" fill="#587EC8"/>
<defs>
<linearGradient id="paint0_linear" x1="31.5" y1="33" x2="31.5" y2="96" gradientUnits="userSpaceOnUse">
<stop stop-color="#C0FFA3" stop-opacity="0.1"/>
<stop offset="1" stop-color="#39FFD0" stop-opacity="0.29"/>
</linearGradient>
</defs>
</svg>
