<svg width="98" height="97" viewBox="0 0 98 97" fill="none" xmlns="http://www.w3.org/2000/svg">
<circle cx="55.5" cy="31.5" r="31.5" fill="url(#paint0_linear)"/>
<path d="M92.2751 29.9165H6.28052C4.76219 29.9165 3.30605 30.5197 2.23243 31.5933C1.15882 32.6669 0.555664 34.123 0.555664 35.6414V91.1846C0.555664 92.703 1.15882 94.1591 2.23243 95.2327C3.30605 96.3063 4.76219 96.9095 6.28052 96.9095H92.2751C93.7935 96.9095 95.2496 96.3063 96.3232 95.2327C97.3968 94.1591 98 92.703 98 91.1846V35.6414C98 34.123 97.3968 32.6669 96.3232 31.5933C95.2496 30.5197 93.7935 29.9165 92.2751 29.9165ZM91.9097 90.8192H6.64594V36.0068H91.9097V90.8192Z" fill="#587EC8"/>
<path d="M86.2447 8.6008C86.2447 7.79318 85.9239 7.01864 85.3528 6.44756C84.7817 5.87649 84.0072 5.55566 83.1996 5.55566H16.2066C15.399 5.55566 14.6244 5.87649 14.0533 6.44756C13.4823 7.01864 13.1614 7.79318 13.1614 8.6008V11.6459H86.2447V8.6008Z" fill="#587EC8"/>
<path d="M92.2749 20.781C92.2749 19.9734 91.9541 19.1988 91.383 18.6277C90.8119 18.0567 90.0374 17.7358 89.2298 17.7358H10.0562C9.24862 17.7358 8.47408 18.0567 7.90301 18.6277C7.33193 19.1988 7.01111 19.9734 7.01111 20.781V23.8261H92.2749V20.781Z" fill="#587EC8"/>
<path d="M33.5033 81.0447C34.3473 81.592 35.3295 81.8877 36.3353 81.8973C37.0601 81.8956 37.7763 81.74 38.4364 81.4406L68.1874 68.1638C69.1071 67.7642 69.89 67.1045 70.4399 66.266C70.9899 65.4275 71.2828 64.4466 71.2828 63.4438C71.2828 62.4411 70.9899 61.4601 70.4399 60.6216C69.89 59.7831 69.1071 59.1235 68.1874 58.7238L38.4364 45.4471C37.6492 45.0974 36.7871 44.9498 35.9283 45.0175C35.0695 45.0852 34.2412 45.3662 33.5185 45.8349C32.7958 46.3036 32.2014 46.9453 31.7893 47.7018C31.3772 48.4582 31.1604 49.3056 31.1586 50.167V76.7206C31.1601 77.5793 31.3752 78.4241 31.7846 79.1789C32.1939 79.9338 32.7845 80.575 33.5033 81.0447ZM35.4218 50.167C35.4208 50.0141 35.4596 49.8635 35.5343 49.73C35.6091 49.5966 35.7172 49.4848 35.8481 49.4057C36.0075 49.3616 36.1759 49.3616 36.3353 49.4057C36.4556 49.3783 36.5805 49.3783 36.7007 49.4057L66.4517 62.6521C66.6196 62.7207 66.7622 62.8394 66.8603 62.9919C66.9583 63.1445 67.0071 63.3235 66.9998 63.5047C67.0051 63.6817 66.9552 63.856 66.857 64.0033C66.7588 64.1506 66.6171 64.2637 66.4517 64.3269L36.7007 77.6037C36.5711 77.6785 36.4241 77.7179 36.2744 77.7179C36.1247 77.7179 35.9777 77.6785 35.8481 77.6037C35.721 77.5205 35.6159 77.4078 35.5417 77.2753C35.4675 77.1427 35.4263 76.9942 35.4218 76.8424V50.167Z" fill="#587EC8"/>
<defs>
<linearGradient id="paint0_linear" x1="55.5" y1="0" x2="55.5" y2="63" gradientUnits="userSpaceOnUse">
<stop stop-color="#C0FFA3" stop-opacity="0.1"/>
<stop offset="1" stop-color="#39FFD0" stop-opacity="0.29"/>
</linearGradient>
</defs>
</svg>
