<svg width="101" height="101" viewBox="0 0 101 101" fill="none" xmlns="http://www.w3.org/2000/svg">
<circle cx="48.5" cy="55.5" r="31.5" fill="url(#paint0_linear)"/>
<path d="M87.8122 65.7708C88.3301 66.2252 88.9657 66.5211 89.6445 66.6237C90.3232 66.7263 91.0169 66.6314 91.6441 66.3502C92.2713 66.0689 92.8059 65.613 93.1852 65.0358C93.5646 64.4587 93.7728 63.7844 93.7856 63.092V54.9282C95.699 54.9282 97.534 54.1613 98.8869 52.7962C100.24 51.431 101 49.5795 101 47.6489V22.1714C101 20.2408 100.24 18.3893 98.8869 17.0242C97.534 15.659 95.699 14.8921 93.7856 14.8921H54.1068C52.1935 14.8921 50.3585 15.659 49.0055 17.0242C47.6526 18.3893 46.8925 20.2408 46.8925 22.1714V47.6489C46.8925 49.5795 47.6526 51.431 49.0055 52.7962C50.3585 54.1613 52.1935 54.9282 54.1068 54.9282H72.1318L87.8122 65.7708ZM84.7677 54.5133C84.439 54.5114 84.1162 54.425 83.8298 54.2622L75.335 48.3004C74.7304 47.8762 74.0117 47.6489 73.2753 47.6489H57.714C56.7573 47.6489 55.8398 47.2655 55.1633 46.5829C54.4869 45.9003 54.1068 44.9746 54.1068 44.0093V25.811C54.1068 24.8457 54.4869 23.92 55.1633 23.2374C55.8398 22.5549 56.7573 22.1714 57.714 22.1714H90.1785C91.1351 22.1714 92.0526 22.5549 92.7291 23.2374C93.4056 23.92 93.7856 24.8457 93.7856 25.811V44.0093C93.7856 45.9747 92.2381 47.5834 90.1785 47.6489C88.6995 47.7072 87.6282 47.951 87.134 48.4715C86.6723 48.9592 86.647 49.7818 86.5713 51.3468C86.5605 51.5761 86.5605 51.991 86.5713 52.6935C86.5713 53.1761 86.3813 53.639 86.043 53.9803C85.7048 54.3216 85.2461 54.5133 84.7677 54.5133ZM43.2854 36.7882C43.2969 37.237 43.2969 37.6861 43.2854 38.1349V36.7882C43.2132 35.2232 43.1843 34.4006 42.7226 33.9129C42.2285 33.3924 41.1571 33.1486 39.6782 33.0903C37.6185 33.0248 36.071 31.4161 36.071 29.4507V11.2524C36.071 10.2871 36.4511 9.36139 37.1275 8.67882C37.804 7.99626 38.7215 7.61279 39.6782 7.61279H72.1426C73.0993 7.61279 74.0168 7.99626 74.6933 8.67882C75.3698 9.36139 75.7498 10.2871 75.7498 11.2524H82.9641V7.61279C82.9641 5.6822 82.2041 3.83069 80.8511 2.46555C79.4982 1.10042 77.6632 0.333496 75.7498 0.333496H36.071C34.1577 0.333496 32.3227 1.10042 30.9697 2.46555C29.6168 3.83069 28.8567 5.6822 28.8567 7.61279V33.0903C28.8567 35.0209 29.6168 36.8724 30.9697 38.2376C32.3227 39.6027 34.1577 40.3696 36.071 40.3696V48.5334C36.0838 49.2258 36.2921 49.9001 36.6714 50.4772C37.0507 51.0544 37.5854 51.5103 38.2126 51.7916C38.8397 52.0728 39.5334 52.1677 40.2122 52.0651C40.8909 51.9625 41.5266 51.6666 42.0445 51.2122L43.2854 50.3532V36.7919V36.7882Z" fill="#587EC8"/>
<path d="M55.8316 71.1194C57.0437 69.4526 57.7146 67.4104 57.7146 65.2856C57.7146 61.9145 55.9038 58.7235 52.9892 56.9441C52.2389 56.4861 51.3846 56.245 50.5147 56.2459H33.2147L33.6476 47.0185C33.7486 44.7886 32.9911 42.6713 31.5194 41.0571C30.7971 40.2614 29.9258 39.6284 28.9591 39.1971C27.9925 38.7657 26.9511 38.5453 25.8994 38.5494C22.148 38.5494 18.8294 41.1772 17.8338 44.9387L11.6367 68.2888H2.30858C1.03165 68.2888 0 69.3625 0 70.6914V98.0208C0 99.3497 1.03165 100.423 2.30858 100.423H45.6883C46.352 100.423 47.0013 100.288 47.6001 100.018C51.0341 98.4938 53.2489 95.0025 53.2489 91.1284C53.2489 90.1824 53.1191 89.2514 52.8593 88.3504C54.0714 86.6836 54.7423 84.6414 54.7423 82.5166C54.7423 81.5706 54.6124 80.6396 54.3527 79.7386C55.5647 78.0718 56.2357 76.0296 56.2357 73.9049C56.2212 72.9588 56.0914 72.0203 55.8316 71.1194ZM5.19431 95.0175V73.6946H11.0379V95.0175H5.19431ZM51.1063 68.5141L49.5263 69.9406L50.5291 71.8477C50.8595 72.4759 51.0308 73.1812 51.0269 73.8974C51.0269 75.1362 50.5075 76.315 49.6129 77.1258L48.033 78.5524L49.0358 80.4594C49.3661 81.0876 49.5374 81.793 49.5335 82.5091C49.5335 83.7479 49.0141 84.9267 48.1195 85.7376L46.5396 87.1641L47.5424 89.0712C47.8728 89.6994 48.0441 90.4047 48.0402 91.1209C48.0402 92.8027 47.0879 94.3193 45.6162 95.01H15.6551V73.4544L22.8333 46.3878C23.0184 45.6941 23.4158 45.082 23.9651 44.6444C24.5145 44.2068 25.186 43.9675 25.8778 43.9627C26.4261 43.9627 26.9671 44.1279 27.4 44.4657C28.1142 45.0213 28.4966 45.8622 28.4533 46.7557L27.7607 61.6517H50.4426C51.7267 62.4701 52.5203 63.8516 52.5203 65.2856C52.5203 66.5244 52.0008 67.6957 51.1063 68.5141Z" fill="#587EC8"/>
<defs>
<linearGradient id="paint0_linear" x1="48.5" y1="24" x2="48.5" y2="87" gradientUnits="userSpaceOnUse">
<stop stop-color="#C0FFA3" stop-opacity="0.1"/>
<stop offset="1" stop-color="#39FFD0" stop-opacity="0.29"/>
</linearGradient>
</defs>
</svg>
