<svg width="85" height="119" viewBox="0 0 85 119" fill="none" xmlns="http://www.w3.org/2000/svg">
<circle cx="53.5" cy="40.5" r="31.5" fill="url(#paint0_linear)"/>
<path d="M50.9559 11.3632C52.1771 10.8881 52.7819 9.51301 52.3068 8.29187C51.8317 7.07074 50.4566 6.46595 49.2355 6.94104C48.0143 7.41613 47.4096 8.79119 47.8846 10.0123C48.3597 11.2335 49.7348 11.8383 50.9559 11.3632Z" fill="#587EC8"/>
<path d="M59.5585 33.4745C60.7796 32.9994 61.3844 31.6243 60.9093 30.4032C60.4342 29.1821 59.0591 28.5773 57.838 29.0524C56.6169 29.5275 56.0121 30.9025 56.4872 32.1237C56.9623 33.3448 58.3373 33.9496 59.5585 33.4745Z" fill="#587EC8"/>
<path d="M36.4628 29.7308C37.6839 29.2557 38.2887 27.8807 37.8136 26.6596C37.3385 25.4384 35.9634 24.8336 34.7423 25.3087C33.5212 25.7838 32.9164 27.1589 33.3915 28.38C33.8666 29.6011 35.2416 30.2059 36.4628 29.7308Z" fill="#587EC8"/>
<path d="M60.4149 12.7751C59.4383 13.1584 58.6165 13.8548 58.0781 14.7553C57.5398 15.6557 57.3154 16.7093 57.4401 17.751L52.704 19.5936C52.3049 19.0311 51.7869 18.5632 51.1869 18.2231C50.5868 17.883 49.9193 17.679 49.2316 17.6255C48.5439 17.5721 47.8529 17.6705 47.2075 17.9138C46.5621 18.1571 45.978 18.5393 45.4968 19.0335L40.2769 16.011C40.5595 15.0275 40.5134 13.9786 40.1457 13.0237C39.8055 12.1491 39.2135 11.395 38.4447 10.8568C37.6758 10.3187 36.7647 10.0206 35.8264 10.0003C34.8882 9.97992 33.9649 10.2383 33.1735 10.7426C32.3821 11.247 31.758 11.9747 31.3802 12.8338C31.0023 13.6928 30.8877 14.6446 31.0508 15.5688C31.2139 16.493 31.6474 17.3481 32.2965 18.0259C32.9456 18.7037 33.7811 19.1739 34.6973 19.3768C35.6136 19.5798 36.5695 19.5065 37.4441 19.1663C38.0669 18.9223 38.6304 18.5481 39.097 18.0688L44.3157 21.0917C44.0299 22.0748 44.0762 23.1247 44.4474 24.0788C44.8186 25.0329 45.494 25.838 46.369 26.3695L44.5654 32.1245C43.8976 32.0865 43.2294 32.1915 42.6054 32.4326C41.7308 32.7729 40.9768 33.3649 40.4386 34.1337C39.9004 34.9026 39.6023 35.8137 39.582 36.752C39.5617 37.6902 39.82 38.6134 40.3244 39.4048C40.8288 40.1963 41.5565 40.8204 42.4155 41.1982C43.2746 41.576 44.2264 41.6906 45.1506 41.5275C46.0748 41.3644 46.9298 40.9309 47.6077 40.2819C48.2855 39.6328 48.7556 38.7973 48.9586 37.881C49.1616 36.9648 49.0883 36.0089 48.748 35.1343C48.3737 34.1819 47.6988 33.3777 46.8259 32.8438L48.6295 27.0888C49.3183 27.1279 50.0072 27.0151 50.6475 26.7583C51.2879 26.5015 51.8639 26.107 52.3348 25.6028C52.8056 25.0986 53.1599 24.497 53.3723 23.8406C53.5848 23.1843 53.6503 22.4892 53.5642 21.8047L58.3003 19.9621C58.8193 20.6799 59.5291 21.2378 60.3493 21.5725C61.1694 21.9071 62.0669 22.0051 62.9399 21.8554C63.8129 21.7056 64.6264 21.314 65.2881 20.7251C65.9497 20.1362 66.433 19.3736 66.683 18.5238C66.933 17.6741 66.9398 16.7713 66.7025 15.9179C66.4651 15.0645 65.9933 14.2947 65.3405 13.696C64.6877 13.0973 63.8801 12.6937 63.0095 12.5309C62.1388 12.3681 61.2399 12.4527 60.4149 12.7751ZM33.5126 15.6044C33.3424 15.1671 33.3058 14.6891 33.4073 14.231C33.5088 13.7729 33.7438 13.3551 34.0827 13.0306C34.4217 12.7061 34.8492 12.4893 35.3113 12.4077C35.7734 12.3262 36.2493 12.3835 36.6788 12.5724C37.1083 12.7613 37.4722 13.0734 37.7244 13.4691C37.9766 13.8648 38.1057 14.3264 38.0956 14.7955C38.0854 15.2647 37.9364 15.7202 37.6673 16.1047C37.3982 16.4891 37.0212 16.7851 36.5839 16.9552C35.9974 17.1827 35.3446 17.1682 34.7688 16.915C34.193 16.6617 33.7412 16.1904 33.5126 15.6044ZM45.1861 39.0658C44.7488 39.2359 44.2709 39.2726 43.8128 39.1711C43.3546 39.0696 42.9369 38.8345 42.6123 38.4956C42.2878 38.1567 42.0711 37.7292 41.9895 37.2671C41.908 36.805 41.9653 36.3291 42.1542 35.8996C42.3431 35.47 42.6551 35.1062 43.0508 34.854C43.4466 34.6018 43.9082 34.4726 44.3773 34.4828C44.8464 34.493 45.302 34.642 45.6864 34.9111C46.0708 35.1802 46.3668 35.5572 46.537 35.9945C46.7645 36.581 46.75 37.2337 46.4967 37.8095C46.2435 38.3853 45.7721 38.8371 45.1861 39.0658ZM49.7292 24.5696C49.2919 24.7397 48.814 24.7764 48.3559 24.6749C47.8977 24.5734 47.48 24.3383 47.1554 23.9994C46.8309 23.6605 46.6142 23.233 46.5326 22.7709C46.4511 22.3088 46.5084 21.8329 46.6973 21.4034C46.8862 20.9738 47.1982 20.61 47.5939 20.3578C47.9897 20.1056 48.4513 19.9764 48.9204 19.9866C49.3895 19.9968 49.8451 20.1458 50.2295 20.4149C50.6139 20.684 50.9099 21.061 51.0801 21.4983C51.3076 22.0848 51.2931 22.7375 51.0398 23.3133C50.7866 23.8891 50.3152 24.3409 49.7292 24.5696ZM62.9956 19.4082C62.5583 19.5784 62.0803 19.615 61.6222 19.5135C61.1641 19.412 60.7463 19.177 60.4218 18.8381C60.0973 18.4991 59.8805 18.0716 59.799 17.6095C59.7174 17.1474 59.7747 16.6715 59.9636 16.242C60.1525 15.8125 60.4646 15.4486 60.8603 15.1964C61.256 14.9442 61.7176 14.8151 62.1867 14.8252C62.6559 14.8354 63.1114 14.9844 63.4959 15.2535C63.8803 15.5226 64.1763 15.8996 64.3464 16.3369C64.5739 16.9234 64.5594 17.5762 64.3062 18.152C64.0529 18.7278 63.5816 19.1796 62.9956 19.4082Z" fill="#587EC8"/>
<path d="M36.4252 47.2648C36.4252 43.8369 35.0635 40.5494 32.6396 38.1255C30.2156 35.7016 26.9281 34.3398 23.5002 34.3398C20.0723 34.3398 16.7847 35.7016 14.3608 38.1255C11.9369 40.5494 10.5752 43.8369 10.5752 47.2648C10.5752 50.6928 11.9369 53.9803 14.3608 56.4042C16.7847 58.8281 20.0723 60.1898 23.5002 60.1898C26.9281 60.1898 30.2156 58.8281 32.6396 56.4042C35.0635 53.9803 36.4252 50.6928 36.4252 47.2648ZM15.2752 47.2648C15.2752 46.1847 15.4879 45.1152 15.9013 44.1173C16.3146 43.1194 16.9205 42.2127 17.6842 41.4489C18.448 40.6851 19.3547 40.0793 20.3526 39.6659C21.3505 39.2526 22.4201 39.0398 23.5002 39.0398C24.5803 39.0398 25.6499 39.2526 26.6478 39.6659C27.6457 40.0793 28.5524 40.6851 29.3161 41.4489C30.0799 42.2127 30.6858 43.1194 31.0991 44.1173C31.5125 45.1152 31.7252 46.1847 31.7252 47.2648C31.7252 49.4462 30.8586 51.5383 29.3161 53.0808C27.7737 54.6233 25.6816 55.4898 23.5002 55.4898C21.3188 55.4898 19.2267 54.6233 17.6842 53.0808C16.1418 51.5383 15.2752 49.4462 15.2752 47.2648Z" fill="#587EC8"/>
<path d="M7.05 64.8906H26.7101C25.9393 66.3476 25.3659 67.9268 25.0275 69.5906H7.05C6.42674 69.5906 5.82901 69.8382 5.3883 70.2789C4.94759 70.7196 4.7 71.3174 4.7 71.9406V74.2906C4.7 80.2126 9.8653 86.5764 19.2512 88.0616C17.7378 89.0956 16.4782 90.4727 15.5805 92.0754C5.6635 89.3917 0 81.7495 0 74.2906V71.9406C0 70.0708 0.742766 68.2777 2.0649 66.9555C3.38703 65.6334 5.18022 64.8906 7.05 64.8906Z" fill="#587EC8"/>
<path d="M32.3296 64.89C34.6984 62.023 38.2845 60.19 42.2983 60.19C45.113 60.1851 47.852 61.1011 50.0974 62.7983C52.3428 64.4955 53.9713 66.8807 54.7345 69.59C55.4148 72.0081 55.3764 74.572 54.6242 76.9687C53.8719 79.3654 52.4383 81.4913 50.4982 83.087C48.5582 84.6827 46.1956 85.6792 43.6987 85.9549C41.2019 86.2305 38.6788 85.7734 36.4374 84.6394C34.7116 83.761 33.2053 82.5061 32.0296 80.9674C30.854 79.4287 30.0391 77.6455 29.6452 75.7496C29.2513 73.8536 29.2885 71.8934 29.7539 70.0137C30.2194 68.1341 31.1012 66.383 32.3343 64.89H32.3296ZM34.8676 69.59C34.4047 70.5664 34.1386 71.6244 34.0846 72.7037C34.0306 73.7829 34.1897 74.8623 34.5528 75.88C34.916 76.8978 35.476 77.8341 36.2009 78.6354C36.9259 79.4368 37.8016 80.0875 38.778 80.5504C39.7544 81.0133 40.8125 81.2793 41.8917 81.3333C42.971 81.3873 44.0503 81.2283 45.0681 80.8651C46.0858 80.502 47.0221 79.942 47.8235 79.217C48.6248 78.4921 49.2755 77.6164 49.7384 76.64C50.6733 74.6673 50.7863 72.4041 50.0525 70.3482C49.3187 68.2923 47.7983 66.6121 45.8257 65.6772C43.853 64.7423 41.5898 64.6293 39.5339 65.3631C37.478 66.0969 35.7978 67.6173 34.8629 69.59H34.8676Z" fill="#587EC8"/>
<path d="M69.0194 92.0754C68.1242 90.4718 66.8673 89.0991 65.3487 88.0663C74.7299 86.5764 79.8999 80.2079 79.8999 74.2906V71.9406C79.8999 71.3174 79.6523 70.7196 79.2116 70.2789C78.7709 69.8382 78.1732 69.5906 77.5499 69.5906H59.5724C59.2404 67.9519 58.6753 66.3692 57.8945 64.8906H77.5499C79.4197 64.8906 81.2129 65.6334 82.535 66.9555C83.8572 68.2777 84.5999 70.0708 84.5999 71.9406V74.2906C84.5999 81.7495 78.9317 89.387 69.0194 92.0754Z" fill="#587EC8"/>
<path d="M63.3878 92.4783C62.147 91.3973 60.5255 90.7393 58.7489 90.7393H25.8489C24.9223 90.7368 24.0045 90.9175 23.148 91.2709C22.2915 91.6243 21.5134 92.1435 20.8582 92.7986C20.2031 93.4538 19.6839 94.232 19.3305 95.0884C18.977 95.9449 18.7964 96.8628 18.7989 97.7893V100.139C18.7989 109.403 27.5409 118.939 42.2989 118.939C57.0569 118.939 65.7989 109.403 65.7989 100.139V97.7893C65.7989 95.6743 64.8683 93.7755 63.3878 92.4783ZM23.4989 97.7893C23.4989 97.166 23.7464 96.5683 24.1872 96.1276C24.6279 95.6869 25.2256 95.4393 25.8489 95.4393H58.7489C59.3721 95.4393 59.9698 95.6869 60.4106 96.1276C60.8513 96.5683 61.0989 97.166 61.0989 97.7893V100.139C61.0989 106.898 54.3685 114.239 42.2989 114.239C30.2293 114.239 23.4989 106.898 23.4989 100.139V97.7893Z" fill="#587EC8"/>
<path d="M61.0988 34.3398C64.5268 34.3398 67.8143 35.7016 70.2382 38.1255C72.6621 40.5494 74.0238 43.8369 74.0238 47.2648C74.0238 50.6928 72.6621 53.9803 70.2382 56.4042C67.8143 58.8281 64.5268 60.1898 61.0988 60.1898C57.6709 60.1898 54.3834 58.8281 51.9595 56.4042C49.5356 53.9803 48.1738 50.6928 48.1738 47.2648C48.1738 43.8369 49.5356 40.5494 51.9595 38.1255C54.3834 35.7016 57.6709 34.3398 61.0988 34.3398ZM61.0988 39.0398C58.9174 39.0398 56.8254 39.9064 55.2829 41.4489C53.7404 42.9914 52.8738 45.0834 52.8738 47.2648C52.8738 49.4462 53.7404 51.5383 55.2829 53.0808C56.8254 54.6233 58.9174 55.4898 61.0988 55.4898C63.2802 55.4898 65.3723 54.6233 66.9148 53.0808C68.4573 51.5383 69.3238 49.4462 69.3238 47.2648C69.3238 45.0834 68.4573 42.9914 66.9148 41.4489C65.3723 39.9064 63.2802 39.0398 61.0988 39.0398Z" fill="#587EC8"/>
<defs>
<linearGradient id="paint0_linear" x1="53.5" y1="9" x2="53.5" y2="72" gradientUnits="userSpaceOnUse">
<stop stop-color="#C0FFA3" stop-opacity="0.1"/>
<stop offset="1" stop-color="#39FFD0" stop-opacity="0.29"/>
</linearGradient>
</defs>
</svg>
