<svg width="99" height="95" viewBox="0 0 99 95" fill="none" xmlns="http://www.w3.org/2000/svg">
<circle cx="38.5" cy="49.5" r="31.5" fill="url(#paint0_linear)"/>
<path fill-rule="evenodd" clip-rule="evenodd" d="M3.53571 94.05H99V87.3321H7.07143V0H0V90.6911L3.53571 94.05ZM14.1429 77.2554V23.5125L17.6786 20.1536H31.8214L35.3571 23.5125V77.2554L31.8214 80.6143H17.6786L14.1429 77.2554ZM28.2857 73.8964V26.8714H21.2143V73.8964H28.2857ZM70.7143 10.0768V77.2554L74.25 80.6143H88.3929L91.9286 77.2554V10.0768L88.3929 6.71786H74.25L70.7143 10.0768ZM84.8571 13.4357V73.8964H77.7857V13.4357H84.8571ZM42.4286 77.2554V36.9482L45.9643 33.5893H60.1071L63.6429 36.9482V77.2554L60.1071 80.6143H45.9643L42.4286 77.2554ZM56.5714 73.8964V40.3071H49.5V73.8964H56.5714Z" fill="#587EC8"/>
<defs>
<linearGradient id="paint0_linear" x1="38.5" y1="18" x2="38.5" y2="81" gradientUnits="userSpaceOnUse">
<stop stop-color="#C0FFA3" stop-opacity="0.1"/>
<stop offset="1" stop-color="#39FFD0" stop-opacity="0.29"/>
</linearGradient>
</defs>
</svg>
