<svg width="105" height="95" viewBox="0 0 105 95" fill="none" xmlns="http://www.w3.org/2000/svg">
<circle cx="67.5" cy="35.5" r="31.5" fill="url(#paint0_linear)"/>
<path d="M32.6865 16.7629V50.2888H71.8V16.7629H32.6865ZM32.6865 11.1753H71.8V5.58765H32.6865V11.1753ZM74.5938 55.8765H29.8926C29.1517 55.8765 28.4411 55.5821 27.9171 55.0582C27.3932 54.5343 27.0988 53.8236 27.0988 53.0827V2.79382C27.0988 2.05286 27.3932 1.34224 27.9171 0.818292C28.4411 0.294348 29.1517 0 29.8926 0H74.5938C75.3348 0 76.0454 0.294348 76.5694 0.818292C77.0933 1.34224 77.3877 2.05286 77.3877 2.79382V53.0827C77.3877 53.8236 77.0933 54.5343 76.5694 55.0582C76.0454 55.5821 75.3348 55.8765 74.5938 55.8765ZM38.2741 22.3506H49.4494V33.5259H38.2741V22.3506ZM38.2741 39.1135H66.2124V44.7012H38.2741V39.1135ZM55.0371 25.1444H66.2124V30.7321H55.0371V25.1444Z" fill="#587EC8"/>
<path d="M27.6589 45.12V38.9736H3.07321V45.12H27.6589ZM27.6589 48.1932H3.07321V64.9769H27.6589V48.1932ZM1.5366 35.9004H29.1955C29.603 35.9004 29.9938 36.0623 30.282 36.3505C30.5702 36.6386 30.7321 37.0295 30.7321 37.437V66.5135C30.7321 66.921 30.5702 67.3119 30.282 67.6001C29.9938 67.8882 29.603 68.0501 29.1955 68.0501H1.5366C1.12907 68.0501 0.73823 67.8882 0.450061 67.6001C0.161892 67.3119 0 66.921 0 66.5135V37.437C0 37.0295 0.161892 36.6386 0.450061 36.3505C0.73823 36.0623 1.12907 35.9004 1.5366 35.9004ZM4.60981 49.7298H9.21962V57.4128H4.60981V49.7298ZM4.60981 40.5102H7.68302V43.5834H4.60981V40.5102ZM10.7562 40.5102H13.8294V43.5834H10.7562V40.5102Z" fill="#587EC8"/>
<path d="M77.3411 43.4437V37.2973H101.927V43.4437H77.3411ZM77.3411 46.517H101.927V63.3006H77.3411V46.517ZM103.463 34.2241H75.8045C75.397 34.2241 75.0062 34.386 74.718 34.6742C74.4298 34.9624 74.2679 35.3532 74.2679 35.7607V64.8372C74.2679 65.2448 74.4298 65.6356 74.718 65.9238C75.0062 66.212 75.397 66.3738 75.8045 66.3738H103.463C103.871 66.3738 104.262 66.212 104.55 65.9238C104.838 65.6356 105 65.2448 105 64.8372V35.7607C105 35.3532 104.838 34.9624 104.55 34.6742C104.262 34.386 103.871 34.2241 103.463 34.2241ZM100.39 48.0536H95.7804V55.7366H100.39V48.0536ZM100.39 38.8339H97.317V41.9071H100.39V38.8339ZM94.2438 38.8339H91.1706V41.9071H94.2438V38.8339Z" fill="#587EC8"/>
<path d="M72.3588 48.8916H32.1277C29.3543 48.8916 27.0988 51.1471 27.0988 53.9205V89.1227C27.0988 91.8961 29.3543 94.1516 32.1277 94.1516H72.3588C75.1322 94.1516 77.3877 91.8961 77.3877 89.1227V53.9205C77.3877 51.1471 75.1322 48.8916 72.3588 48.8916ZM32.1277 89.1227V58.9494H72.3588L72.3638 89.1227H32.1277Z" fill="#587EC8"/>
<path d="M45.4368 64.7153L36.1157 74.0364L45.4368 83.3574L48.9922 79.802L43.2266 74.0364L48.9922 68.2708L45.4368 64.7153ZM59.0499 64.7153L55.4945 68.2708L61.2601 74.0364L55.4945 79.802L59.0499 83.3574L68.371 74.0364L59.0499 64.7153Z" fill="#587EC8"/>
<defs>
<linearGradient id="paint0_linear" x1="67.5" y1="4" x2="67.5" y2="67" gradientUnits="userSpaceOnUse">
<stop stop-color="#C0FFA3" stop-opacity="0.1"/>
<stop offset="1" stop-color="#39FFD0" stop-opacity="0.29"/>
</linearGradient>
</defs>
</svg>
