<svg width="99" height="90" viewBox="0 0 99 90" fill="none" xmlns="http://www.w3.org/2000/svg">
<circle cx="67.5" cy="58.5" r="31.5" fill="url(#paint0_linear)"/>
<path d="M0 3.6122C0.00665709 2.65687 0.388868 1.74251 1.06406 1.06663C1.73926 0.390751 2.65324 0.00761964 3.60857 0H69.1448C71.1382 0 72.7533 1.61876 72.7533 3.6122V82.9304C72.7467 83.8857 72.3645 84.8001 71.6893 85.476C71.0141 86.1519 70.1001 86.535 69.1448 86.5426H3.60857C2.65118 86.5417 1.73334 86.1607 1.0567 85.4833C0.380071 84.806 -4.85465e-07 83.8878 0 82.9304V3.6122ZM7.27533 7.27533V79.2673H65.478V7.27533H7.27533ZM14.5507 24.7023H36.3767V46.5283H14.5507V24.7023ZM21.826 31.9776V39.253H29.1013V31.9776H21.826ZM14.5507 53.8036H58.2027V61.079H14.5507V53.8036ZM43.652 24.7023H58.2027V31.9776H43.652V24.7023ZM43.652 39.253H58.2027V46.5283H43.652V39.253Z" fill="#587EC8"/>
<path d="M85.3585 87.7112H93.2927C94.8064 87.7112 96.258 87.1099 97.3284 86.0396C98.3987 84.9692 99 83.5175 99 82.0038V26.9278L94.1768 14.8567C93.6692 13.9772 92.9362 13.2491 92.0533 12.7475C91.1704 12.2459 90.1697 11.9889 89.1544 12.003C88.116 12.0112 87.0996 12.3026 86.2146 12.8457C85.3296 13.3887 84.6095 14.163 84.1319 15.085L79.6511 26.9848V82.0038C79.6511 83.5175 80.2524 84.9692 81.3228 86.0396C82.3931 87.1099 83.8448 87.7112 85.3585 87.7112ZM85.3585 28.3546L89.1544 17.5962L93.2927 28.3831V70.5891H85.3585V28.3546ZM85.3585 75.2406H93.2927V82.2036H85.3585V75.2406Z" fill="#587EC8"/>
<defs>
<linearGradient id="paint0_linear" x1="67.5" y1="27" x2="67.5" y2="90" gradientUnits="userSpaceOnUse">
<stop stop-color="#C0FFA3" stop-opacity="0.1"/>
<stop offset="1" stop-color="#39FFD0" stop-opacity="0.29"/>
</linearGradient>
</defs>
</svg>
