<svg width="120" height="120" viewBox="0 0 120 120" fill="none" xmlns="http://www.w3.org/2000/svg">
<circle cx="59.479" cy="59.9999" r="19.807" fill="#14DC65"/>
<path d="M90.0238 50.7335C90.6212 52.7054 91.0329 54.758 91.2386 56.8709L89.7456 57.0162C89.8411 57.9975 89.89 58.9928 89.89 60C89.89 61.0072 89.8411 62.0025 89.7456 62.9837L91.2386 63.129C91.0329 65.242 90.6212 67.2946 90.0238 69.2664L88.5882 68.8315C88.0058 70.754 87.238 72.5961 86.3054 74.3372L87.6277 75.0455C86.637 76.895 85.4694 78.6356 84.1475 80.2445L82.9885 79.2923C81.7237 80.8317 80.3106 82.2448 78.7711 83.5096L79.7234 84.6686C78.1144 85.9905 76.3739 87.1582 74.5243 88.1488L73.8161 86.8265C72.075 87.7591 70.2328 88.5269 68.3104 89.1094L68.7453 90.5449C66.7734 91.1424 64.7208 91.5541 62.6079 91.7597L62.4626 90.2668C61.4813 90.3623 60.486 90.4112 59.4788 90.4112C58.4716 90.4112 57.4763 90.3623 56.4951 90.2668L56.3498 91.7597C54.2368 91.5541 52.1842 91.1424 50.2124 90.5449L50.6473 89.1094C48.7248 88.5269 46.8827 87.7591 45.1415 86.8265L44.4333 88.1488C42.5838 87.1582 40.8432 85.9905 39.2343 84.6686L40.1865 83.5096C38.6471 82.2448 37.234 80.8317 35.9692 79.2923L34.8102 80.2445C33.4883 78.6356 32.3206 76.895 31.33 75.0455L32.6523 74.3372C31.7197 72.5961 30.9519 70.754 30.3694 68.8315L28.9338 69.2664C28.3364 67.2946 27.9247 65.242 27.7191 63.129L29.212 62.9837C29.1165 62.0025 29.0676 61.0072 29.0676 60C29.0676 58.9928 29.1165 57.9975 29.212 57.0162L27.7191 56.8709C27.9247 54.758 28.3364 52.7054 28.9338 50.7335L30.3694 51.1684C30.9519 49.246 31.7197 47.4038 32.6523 45.6627L31.33 44.9545C32.3206 43.1049 33.4883 41.3644 34.8102 39.7554L35.9692 40.7077C37.234 39.1682 38.6471 37.7551 40.1865 36.4903L39.2343 35.3313C40.8432 34.0094 42.5838 32.8418 44.4333 31.8511L45.1416 33.1734C46.8827 32.2408 48.7248 31.473 50.6473 30.8906L50.2124 29.455C52.1842 28.8576 54.2368 28.4459 56.3498 28.2402L56.4951 29.7332C57.4763 29.6377 58.4716 29.5888 59.4788 29.5888C60.486 29.5888 61.4813 29.6377 62.4626 29.7332L62.6079 28.2402C64.7208 28.4459 66.7734 28.8576 68.7453 29.455L68.3104 30.8906C70.2328 31.473 72.075 32.2408 73.8161 33.1734L74.5243 31.8511C76.3739 32.8418 78.1144 34.0094 79.7234 35.3313L78.7711 36.4903C80.3106 37.7551 81.7237 39.1682 82.9885 40.7077L84.1475 39.7554C85.4694 41.3644 86.637 43.1049 87.6277 44.9545L86.3054 45.6627C87.238 47.4038 88.0058 49.246 88.5882 51.1684L90.0238 50.7335Z" stroke="black" stroke-width="3" stroke-dasharray="6 6"/>
<path d="M49.3813 67.6517C49.961 66.2928 50.8022 65.0585 51.8581 64.0174C52.9107 62.9734 54.1577 62.141 55.5302 61.5662C55.5424 61.5601 55.5547 61.557 55.567 61.551C53.6526 60.1824 52.4081 57.9531 52.4081 55.438C52.4081 51.2715 55.819 47.8957 60.0288 47.8957C64.2387 47.8957 67.6495 51.2715 67.6495 55.438C67.6495 57.9531 66.405 60.1824 64.4906 61.554C64.5029 61.5601 64.5152 61.5631 64.5275 61.5692C65.9042 62.144 67.1394 62.9682 68.1996 64.0205C69.2545 65.0623 70.0955 66.2965 70.6763 67.6548C71.2469 68.9846 71.5546 70.4103 71.5828 71.8548C71.5836 71.8872 71.5779 71.9195 71.5659 71.9497C71.5539 71.98 71.5359 72.0075 71.513 72.0308C71.4901 72.054 71.4627 72.0725 71.4325 72.0851C71.4023 72.0977 71.3698 72.1042 71.337 72.1042H69.4933C69.3581 72.1042 69.2505 71.9977 69.2474 71.8669C69.186 69.5191 68.2334 67.3202 66.5495 65.6536C64.8071 63.9292 62.4933 62.9804 60.0288 62.9804C57.5644 62.9804 55.2505 63.9292 53.5082 65.6536C51.8243 67.3202 50.8717 69.5191 50.8102 71.8669C50.8072 72.0008 50.6996 72.1042 50.5644 72.1042H48.7207C48.6879 72.1042 48.6554 72.0977 48.6252 72.0851C48.5949 72.0725 48.5676 72.054 48.5446 72.0308C48.5217 72.0075 48.5038 71.98 48.4918 71.9497C48.4798 71.9195 48.474 71.8872 48.4749 71.8548C48.5056 70.401 48.8098 68.9869 49.3813 67.6517ZM60.0288 60.669C61.4393 60.669 62.7668 60.1246 63.7654 59.1362C64.7641 58.1478 65.3142 56.8339 65.3142 55.438C65.3142 54.0421 64.7641 52.7282 63.7654 51.7398C62.7668 50.7514 61.4393 50.207 60.0288 50.207C58.6184 50.207 57.2909 50.7514 56.2922 51.7398C55.2935 52.7282 54.7435 54.0421 54.7435 55.438C54.7435 56.8339 55.2935 58.1478 56.2922 59.1362C57.2909 60.1246 58.6184 60.669 60.0288 60.669Z" fill="black"/>
<g clip-path="url(#clip0)">
<path d="M60.0001 0L69.7298 10.0652H65.1893V19.4595H54.8109V10.0652H50.2704L60.0001 0Z" fill="black"/>
</g>
<g clip-path="url(#clip1)">
<path d="M60.0001 120L69.7298 109.935H65.1893V100.541H54.8109V109.935H50.2704L60.0001 120Z" fill="black"/>
</g>
<g clip-path="url(#clip2)">
<path d="M102.34 17.4877L102.132 31.4853L98.9144 28.2812L92.2852 34.9373L84.9317 27.6136L91.5609 20.9574L88.3438 17.7533L102.34 17.4877Z" fill="black"/>
</g>
<g clip-path="url(#clip3)">
<path d="M17.6598 102.512L31.6564 102.247L28.4393 99.0426L35.0685 92.3864L27.715 85.0627L21.0858 91.7188L17.8686 88.5147L17.6598 102.512Z" fill="black"/>
</g>
<g clip-path="url(#clip4)">
<path d="M18.8854 16.301L32.8688 16.9645L29.5619 20.0758L35.9992 26.9178L28.4404 34.0295L22.0031 27.1875L18.6962 30.2989L18.8854 16.301Z" fill="black"/>
</g>
<g clip-path="url(#clip5)">
<path d="M101.114 103.699L101.303 89.7012L97.9964 92.8126L91.5591 85.9706L84.0004 93.0823L90.4377 99.9243L87.1307 103.036L101.114 103.699Z" fill="black"/>
</g>
<g clip-path="url(#clip6)">
<path d="M120 60L109.935 69.7297L109.935 65.1892L100.541 65.1892L100.541 54.8108L109.935 54.8108L109.935 50.2703L120 60Z" fill="black"/>
</g>
<g clip-path="url(#clip7)">
<path d="M-4.253e-07 60L10.0652 69.7297L10.0652 65.1892L19.4595 65.1892L19.4595 54.8108L10.0652 54.8108L10.0652 50.2703L-4.253e-07 60Z" fill="black"/>
</g>
<defs>
<clipPath id="clip0">
<rect width="19.4595" height="19.4595" fill="white" transform="translate(50.2704)"/>
</clipPath>
<clipPath id="clip1">
<rect width="19.4595" height="19.4595" fill="white" transform="matrix(1 0 0 -1 50.2704 120)"/>
</clipPath>
<clipPath id="clip2">
<rect width="19.4595" height="19.4595" fill="white" transform="translate(95.4465 10.6217) rotate(44.8839)"/>
</clipPath>
<clipPath id="clip3">
<rect width="19.4595" height="19.4595" fill="white" transform="matrix(0.708538 0.705673 0.705673 -0.708538 10.7659 95.6463)"/>
</clipPath>
<clipPath id="clip4">
<rect width="19.4595" height="19.4595" fill="white" transform="translate(11.7991 22.9682) rotate(-43.2545)"/>
</clipPath>
<clipPath id="clip5">
<rect width="19.4595" height="19.4595" fill="white" transform="matrix(0.728318 -0.68524 -0.68524 -0.728318 94.0278 110.366)"/>
</clipPath>
<clipPath id="clip6">
<rect width="19.4595" height="19.4595" fill="white" transform="translate(120 50.2703) rotate(90)"/>
</clipPath>
<clipPath id="clip7">
<rect width="19.4595" height="19.4595" fill="white" transform="matrix(-4.37114e-08 1 1 4.37114e-08 0 50.2703)"/>
</clipPath>
</defs>
</svg>
