<svg width="76" height="76" viewBox="0 0 76 76" fill="none" xmlns="http://www.w3.org/2000/svg">
<path d="M13.3871 76H4.90323C3.60281 76 2.35565 75.4522 1.43612 74.4773C0.516589 73.5023 0 72.1799 0 70.8011V29.2097C0 27.8309 0.516589 26.5085 1.43612 25.5335C2.35565 24.5585 3.60281 24.0108 4.90323 24.0108H18.3871V26.6102H4.90323C4.25302 26.6102 3.62944 26.8841 3.16967 27.3716C2.70991 27.8591 2.45161 28.5203 2.45161 29.2097V70.8011C2.45161 71.4905 2.70991 72.1517 3.16967 72.6392C3.62944 73.1267 4.25302 73.4005 4.90323 73.4005H13.3871V76Z" fill="white"/>
<path d="M71.0967 76H12.6128V73.4005H71.0967C71.7469 73.4005 72.3705 73.1267 72.8302 72.6392C73.29 72.1517 73.5483 71.4905 73.5483 70.8011V29.2097C73.5483 28.5203 73.29 27.8591 72.8302 27.3716C72.3705 26.8841 71.7469 26.6102 71.0967 26.6102H57.6128V24.0108H71.0967C72.3971 24.0108 73.6442 24.5585 74.5638 25.5335C75.4833 26.5085 75.9999 27.8309 75.9999 29.2097V70.8011C75.9999 72.1799 75.4833 73.5023 74.5638 74.4773C73.6442 75.4522 72.3971 76 71.0967 76Z" fill="white"/>
<path d="M15.9355 25.3105H13.4839V16.2124H18.3871V18.8119H15.9355V25.3105Z" fill="white"/>
<path d="M62.5161 25.3105H60.0645V18.8119H57.6129V16.2124H62.5161V25.3105Z" fill="white"/>
<path d="M68.6452 38.3078C67.9179 38.3078 67.2069 38.0791 66.6021 37.6507C65.9974 37.2222 65.526 36.6133 65.2477 35.9008C64.9694 35.1883 64.8965 34.4043 65.0384 33.6479C65.1803 32.8916 65.5306 32.1968 66.0449 31.6515C66.5592 31.1062 67.2144 30.7348 67.9278 30.5844C68.6411 30.4339 69.3805 30.5111 70.0525 30.8062C70.7244 31.1014 71.2988 31.6011 71.7029 32.2423C72.1069 32.8836 72.3226 33.6374 72.3226 34.4086C72.3397 34.9256 72.2563 35.4407 72.0776 35.922C71.8988 36.4033 71.6286 36.8404 71.2836 37.2062C70.9387 37.5719 70.5264 37.8585 70.0725 38.048C69.6186 38.2375 69.1327 38.326 68.6452 38.3078V38.3078ZM68.6452 33.1089C68.4028 33.1089 68.1658 33.1851 67.9642 33.3279C67.7626 33.4708 67.6055 33.6737 67.5127 33.9112C67.4199 34.1487 67.3956 34.4101 67.4429 34.6622C67.4902 34.9143 67.607 35.1459 67.7784 35.3277C67.9499 35.5094 68.1683 35.6332 68.4061 35.6834C68.6438 35.7335 68.8903 35.7078 69.1143 35.6094C69.3383 35.511 69.5297 35.3445 69.6644 35.1307C69.7991 34.917 69.871 34.6657 69.871 34.4086C69.8907 34.2329 69.8726 34.0547 69.8179 33.8875C69.7633 33.7203 69.6736 33.5684 69.5556 33.4433C69.4376 33.3182 69.2943 33.2231 69.1366 33.1652C68.979 33.1072 68.8109 33.088 68.6452 33.1089V33.1089Z" fill="white"/>
<path d="M61.2904 40.9073H14.7097V43.5067H61.2904V40.9073Z" fill="white"/>
<path d="M57 64.6445H22V69.775H57V64.6445Z" fill="white"/>
<path d="M19 1H57V32.9298H19V1Z" stroke="white" stroke-width="2"/>
<path d="M54.2498 22.9487H21.7498V26.5202H54.2498V22.9487Z" fill="white"/>
<path d="M54.2498 15.8056H21.7498V19.3772H54.2498V15.8056Z" fill="white"/>
<path d="M24.2498 7.63635H21.7498V11.2079H24.2498V7.63635Z" fill="white"/>
<path d="M29.25 7.63635H26.75V11.2079H29.25V7.63635Z" fill="white"/>
<path d="M34.2498 7.63635H31.7498V11.2079H34.2498V7.63635Z" fill="white"/>
<path d="M7 51.3051H17" stroke="white" stroke-width="4"/>
<path d="M20 51.3051H30" stroke="white" stroke-width="4"/>
<path d="M33 51.3051H43" stroke="white" stroke-width="4"/>
<path d="M46 51.3051H56" stroke="white" stroke-width="4"/>
<path d="M59 51.3051H69" stroke="white" stroke-width="4"/>
<path d="M13 58.4879H23" stroke="white" stroke-width="4"/>
<path d="M26 58.4879H36" stroke="white" stroke-width="4"/>
<path d="M39 58.4879H49" stroke="white" stroke-width="4"/>
<path d="M52 58.4879H62" stroke="white" stroke-width="4"/>
</svg>
