<svg width="78" height="78" viewBox="0 0 78 78" fill="none" xmlns="http://www.w3.org/2000/svg">
<path d="M74.7468 66.5369C75.5864 64.6786 76.0125 62.6835 75.9998 60.6704C75.989 56.6096 74.231 52.7188 71.1119 49.8524C67.9698 47.0376 63.7617 45.4631 59.3811 45.4631C55.0006 45.4631 50.7925 47.0376 47.6503 49.8524C44.5312 52.7188 42.7733 56.6096 42.7625 60.6704C42.7497 62.6835 43.1758 64.6786 44.0155 66.5369C44.8552 68.3953 46.0912 70.0791 47.6503 71.4883C49.1854 72.9178 51.0126 74.0525 53.0261 74.8269C55.0396 75.6013 57.1995 76 59.3811 76C61.5627 76 63.7227 75.6013 65.7362 74.8269C67.7497 74.0525 69.5768 72.9178 71.1119 71.4883C72.671 70.0791 73.9071 68.3953 74.7468 66.5369Z" stroke="white" stroke-width="3" stroke-miterlimit="10"/>
<path d="M62.66 5.65498C64.083 5.64255 65.4937 5.89691 66.8061 6.40252C68.1184 6.90813 69.3047 7.65436 70.2924 8.59557C71.3168 9.503 72.1291 10.5929 72.6794 11.7986C73.2297 13.0043 73.5066 14.3004 73.4931 15.6077V43.2041C71.9157 42.1436 70.2245 41.2341 68.4458 40.4897V25.6736H5.0477V63.2227C5.0477 64.6325 5.65728 65.9846 6.74234 66.9815C7.2796 67.4751 7.91743 67.8666 8.6194 68.1338C9.32137 68.4009 10.0737 68.5384 10.8336 68.5384H37.9162C38.7265 70.1725 39.7165 71.7263 40.8707 73.1755H10.8336C9.41057 73.1879 7.99978 72.9336 6.68746 72.4279C5.37513 71.9223 4.18885 71.1761 3.20115 70.2349C2.1767 69.3275 1.36447 68.2376 0.81414 67.0319C0.26381 65.8262 -0.0130555 64.5301 0.00047289 63.2227V15.6077C-0.0130555 14.3004 0.26381 13.0043 0.81414 11.7986C1.36447 10.5929 2.1767 9.503 3.20115 8.59557C4.18885 7.65436 5.37513 6.90813 6.68746 6.40252C7.99978 5.89691 9.41057 5.64255 10.8336 5.65498H62.66ZM62.66 10.2921H10.8336C9.30891 10.321 7.85545 10.8903 6.77714 11.881C5.69882 12.8717 5.07915 14.207 5.0477 15.6077V21.0365H68.4458V15.6077C68.4156 14.2278 67.8478 12.9036 66.8455 11.8755C66.2953 11.3718 65.6425 10.9726 64.9243 10.701C64.2061 10.4293 63.4367 10.2903 62.66 10.2921Z" fill="white"/>
<mask id="path-3-inside-1" fill="white">
<path d="M67.1115 55.8912C67.0258 55.8122 66.9239 55.7496 66.8118 55.7068C66.6996 55.6641 66.5794 55.6421 66.458 55.6421C66.3366 55.6421 66.2163 55.6641 66.1042 55.7068C65.992 55.7496 65.8902 55.8122 65.8044 55.8912L57.227 63.7725L54.1882 60.9792C54.1023 60.9003 54.0005 60.8378 53.8883 60.7951C53.7762 60.7524 53.656 60.7305 53.5346 60.7305C53.4132 60.7305 53.2931 60.7524 53.1809 60.7951C53.0688 60.8378 52.9669 60.9003 52.8811 60.9792C52.7952 61.058 52.7272 61.1516 52.6807 61.2546C52.6343 61.3576 52.6104 61.468 52.6104 61.5795C52.6104 61.691 52.6343 61.8015 52.6807 61.9045C52.7272 62.0075 52.7952 62.1011 52.8811 62.1799L56.5735 65.5719C56.6592 65.6509 56.7611 65.7135 56.8732 65.7563C56.9854 65.799 57.1056 65.821 57.227 65.821C57.3484 65.821 57.4687 65.799 57.5808 65.7563C57.6929 65.7135 57.7948 65.6509 57.8806 65.5719L67.1115 57.092C67.1975 57.0132 67.2657 56.9196 67.3122 56.8166C67.3588 56.7136 67.3827 56.6031 67.3827 56.4916C67.3827 56.38 67.3588 56.2696 67.3122 56.1666C67.2657 56.0635 67.1975 55.97 67.1115 55.8912Z"/>
</mask>
<path d="M67.1115 55.8912L64.4018 58.8335L64.4092 58.8403L67.1115 55.8912ZM65.8044 55.8912L68.5108 58.8366L68.5142 58.8335L65.8044 55.8912ZM57.227 63.7725L54.5201 66.7174L57.2265 69.2051L59.9334 66.7179L57.227 63.7725ZM54.1882 60.9792L56.8951 58.0343L56.8942 58.0334L54.1882 60.9792ZM53.5346 60.7305V64.7305V60.7305ZM52.6104 61.5795H56.6104H52.6104ZM56.5735 65.5719L59.2832 62.6296L59.2795 62.6262L56.5735 65.5719ZM57.8806 65.5719L55.1745 62.6262L55.1708 62.6296L57.8806 65.5719ZM67.1115 57.092L64.4092 54.1428L64.4055 54.1462L67.1115 57.092ZM69.8213 52.9489C69.3505 52.5153 68.8093 52.1875 68.2365 51.9692L65.387 59.4445C65.0385 59.3116 64.701 59.1091 64.4018 58.8335L69.8213 52.9489ZM68.2365 51.9692C67.664 51.7509 67.0605 51.6421 66.458 51.6421V59.6421C66.0983 59.6421 65.7352 59.5772 65.387 59.4445L68.2365 51.9692ZM66.458 51.6421C65.8554 51.6421 65.252 51.7509 64.6794 51.9692L67.529 59.4445C67.1807 59.5772 66.8177 59.6421 66.458 59.6421V51.6421ZM64.6794 51.9692C64.1066 52.1875 63.5654 52.5153 63.0947 52.9489L68.5142 58.8335C68.2149 59.1091 67.8775 59.3116 67.529 59.4445L64.6794 51.9692ZM63.0981 52.9458L54.5206 60.827L59.9334 66.7179L68.5108 58.8366L63.0981 52.9458ZM59.934 60.8276L56.8951 58.0343L51.4812 63.9241L54.5201 66.7174L59.934 60.8276ZM56.8942 58.0334C56.4236 57.6011 55.883 57.2743 55.3109 57.0566L52.4658 64.5336C52.118 64.4013 51.7811 64.1995 51.4821 63.9249L56.8942 58.0334ZM55.3109 57.0566C54.739 56.839 54.1364 56.7305 53.5346 56.7305V64.7305C53.1756 64.7305 52.8133 64.6659 52.4658 64.5336L55.3109 57.0566ZM53.5346 56.7305C52.9329 56.7305 52.3302 56.839 51.7584 57.0566L54.6035 64.5336C54.2559 64.6659 53.8936 64.7305 53.5346 64.7305V56.7305ZM51.7584 57.0566C51.1863 57.2743 50.6456 57.6011 50.175 58.0334L55.5871 63.9249C55.2882 64.1995 54.9513 64.4013 54.6035 64.5336L51.7584 57.0566ZM50.175 58.0334C49.7037 58.4664 49.31 58.9989 49.0342 59.6104L56.3272 62.8988C56.1443 63.3043 55.8868 63.6496 55.5871 63.9249L50.175 58.0334ZM49.0342 59.6104C48.758 60.2231 48.6104 60.8933 48.6104 61.5795H56.6104C56.6104 62.0428 56.5105 62.4922 56.3272 62.8988L49.0342 59.6104ZM48.6104 61.5795C48.6104 62.2658 48.758 62.936 49.0342 63.5486L56.3272 60.2603C56.5105 60.6669 56.6104 61.1163 56.6104 61.5795H48.6104ZM49.0342 63.5486C49.31 64.1602 49.7037 64.6927 50.175 65.1256L55.5871 59.2342C55.8868 59.5095 56.1443 59.8548 56.3272 60.2603L49.0342 63.5486ZM50.175 65.1256L53.8674 68.5176L59.2795 62.6262L55.5871 59.2342L50.175 65.1256ZM53.8637 68.5142C54.3344 68.9478 54.8756 69.2756 55.4484 69.4939L58.298 62.0186C58.6465 62.1515 58.984 62.354 59.2832 62.6296L53.8637 68.5142ZM55.4484 69.4939C56.021 69.7122 56.6245 69.821 57.227 69.821V61.821C57.5867 61.821 57.9497 61.8859 58.298 62.0186L55.4484 69.4939ZM57.227 69.821C57.8296 69.821 58.433 69.7122 59.0056 69.4939L56.156 62.0186C56.5043 61.8859 56.8673 61.821 57.227 61.821V69.821ZM59.0056 69.4939C59.5784 69.2756 60.1196 68.9478 60.5903 68.5142L55.1708 62.6296C55.4701 62.354 55.8075 62.1515 56.156 62.0186L59.0056 69.4939ZM60.5866 68.5176L69.8176 60.0377L64.4055 54.1462L55.1745 62.6262L60.5866 68.5176ZM69.8139 60.0411C70.2863 59.6082 70.6811 59.0754 70.9576 58.4632L63.6669 55.17C63.8503 54.7638 64.1087 54.4181 64.4092 54.1428L69.8139 60.0411ZM70.9576 58.4632C71.2346 57.8499 71.3827 57.1788 71.3827 56.4916H63.3827C63.3827 56.0274 63.4829 55.5772 63.6669 55.17L70.9576 58.4632ZM71.3827 56.4916C71.3827 55.8044 71.2346 55.1332 70.9576 54.5199L63.6669 57.8132C63.4829 57.4059 63.3827 56.9557 63.3827 56.4916H71.3827ZM70.9576 54.5199C70.6811 53.9078 70.2863 53.3749 69.8139 52.9421L64.4092 58.8403C64.1087 58.565 63.8503 58.2193 63.6669 57.8132L70.9576 54.5199Z" fill="white" mask="url(#path-3-inside-1)"/>
<path d="M24.6206 0V15.834" stroke="white" stroke-width="4"/>
<path d="M49.2413 0V15.834" stroke="white" stroke-width="4"/>
<path d="M12.3103 33.9299H22.1586" stroke="white" stroke-width="4"/>
<path d="M24.6206 33.9299H34.4689" stroke="white" stroke-width="4"/>
<path d="M36.9309 33.9299H46.7792" stroke="white" stroke-width="4"/>
<path d="M49.2413 33.9299H59.0896" stroke="white" stroke-width="4"/>
<path d="M7.38623 45.2399H17.2345" stroke="white" stroke-width="4"/>
<path d="M19.6964 45.2399H29.5447" stroke="white" stroke-width="4"/>
<path d="M32.0068 45.2399H41.8551" stroke="white" stroke-width="4"/>
<path d="M12.3103 56.5499H22.1586" stroke="white" stroke-width="4"/>
<path d="M24.6206 56.5499H34.4689" stroke="white" stroke-width="4"/>
</svg>
