<svg width="80" height="80" viewBox="0 0 80 80" fill="none" xmlns="http://www.w3.org/2000/svg">
<path d="M78 78H2V20.6506V15.6119H78V78Z" stroke="white" stroke-width="3" stroke-miterlimit="10"/>
<path d="M77.9324 31.4925H2" stroke="white" stroke-width="3" stroke-miterlimit="10"/>
<path d="M8 25.8209C9.10457 25.8209 10 24.8052 10 23.5522C10 22.2993 9.10457 21.2836 8 21.2836C6.89543 21.2836 6 22.2993 6 23.5522C6 24.8052 6.89543 25.8209 8 25.8209Z" fill="white"/>
<path d="M15 25.8209C16.1046 25.8209 17 24.8052 17 23.5522C17 22.2993 16.1046 21.2836 15 21.2836C13.8954 21.2836 13 22.2993 13 23.5522C13 24.8052 13.8954 25.8209 15 25.8209Z" fill="white"/>
<path d="M21 25.8209C22.1046 25.8209 23 24.8052 23 23.5522C23 22.2993 22.1046 21.2836 21 21.2836C19.8954 21.2836 19 22.2993 19 23.5522C19 24.8052 19.8954 25.8209 21 25.8209Z" fill="white"/>
<path d="M53.311 64.3881L61 54.1791L53.311 43.9702L51 47.0382L56.3801 54.1791L51 61.32L53.311 64.3881Z" fill="white"/>
<path d="M27.689 64.3881L20 54.1791L27.689 43.9702L30 47.0382L24.6199 54.1791L30 61.32L27.689 64.3881Z" fill="white"/>
<path d="M37.906 64.3881H35L42.1123 43.9702H45L37.906 64.3881Z" fill="white"/>
<path d="M7 8.80597H72.5" stroke="white" stroke-width="3"/>
<path d="M10 2H68" stroke="white" stroke-width="3"/>
</svg>
