<svg width="76" height="76" viewBox="0 0 76 76" fill="none" xmlns="http://www.w3.org/2000/svg">
<path d="M37.9999 9.80645C37.0301 9.80645 36.0822 9.51889 35.2758 8.98011C34.4695 8.44134 33.841 7.67556 33.4699 6.77961C33.0988 5.88366 33.0017 4.89779 33.1909 3.94666C33.3801 2.99552 33.8471 2.12185 34.5328 1.43612C35.2185 0.750395 36.0922 0.283408 37.0433 0.0942163C37.9945 -0.0949757 38.9803 0.00212447 39.8763 0.373238C40.7722 0.744352 41.538 1.37281 42.0768 2.17914C42.6156 2.98547 42.9031 3.93346 42.9031 4.90323C42.9031 6.20364 42.3865 7.4508 41.467 8.37033C40.5475 9.28987 39.3003 9.80645 37.9999 9.80645V9.80645ZM37.9999 2.45162C37.515 2.45162 37.041 2.5954 36.6379 2.86479C36.2347 3.13417 35.9205 3.51706 35.7349 3.96504C35.5494 4.41301 35.5008 4.90595 35.5954 5.38151C35.69 5.85708 35.9235 6.29392 36.2664 6.63678C36.6092 6.97964 37.0461 7.21314 37.5216 7.30773C37.9972 7.40233 38.4901 7.35378 38.9381 7.16822C39.3861 6.98267 39.769 6.66844 40.0384 6.26527C40.3077 5.86211 40.4515 5.38811 40.4515 4.90323C40.4515 4.25302 40.1932 3.62944 39.7335 3.16968C39.2737 2.70991 38.6501 2.45162 37.9999 2.45162Z" fill="white"/>
<path d="M39.2258 8.58063H36.7742V17.1613H39.2258V8.58063Z" fill="white"/>
<path d="M21.4516 14.2194H20.2258C18.9327 13.816 17.8387 12.9408 17.1613 11.7678C16.5782 10.6353 16.4049 9.336 16.671 8.09035C16.8407 7.46824 17.1346 6.88691 17.5348 6.38133C17.9351 5.87574 18.4335 5.45636 19 5.14841C19.5372 4.79671 20.1465 4.57007 20.783 4.48521C21.4195 4.40034 22.0668 4.45942 22.6774 4.65809C23.314 4.79155 23.9155 5.05683 24.4433 5.43685C24.9711 5.81686 25.4135 6.3032 25.742 6.86454V6.86454C26.3341 8.03817 26.5071 9.37903 26.2323 10.6645C25.8236 11.8872 24.9995 12.9281 23.9032 13.6065C23.1429 13.9936 22.3047 14.2032 21.4516 14.2194ZM21.4516 6.86454C21.0167 6.87025 20.5921 6.99764 20.2258 7.23228C19.947 7.38372 19.7041 7.59352 19.5137 7.84737C19.3233 8.10122 19.1899 8.39315 19.1226 8.70325C19.0086 9.00616 18.9713 9.33259 19.0141 9.65342C19.0568 9.97425 19.1784 10.2795 19.3678 10.542C19.5197 10.8248 19.7285 11.0732 19.981 11.2715C20.2335 11.4698 20.5242 11.6138 20.835 11.6944C21.1458 11.775 21.47 11.7904 21.787 11.7398C22.1041 11.6891 22.4072 11.5734 22.6774 11.4C22.9819 11.2847 23.2473 11.0852 23.4427 10.8248C23.638 10.5643 23.7552 10.2536 23.7807 9.92906C23.8947 9.62614 23.932 9.29971 23.8892 8.97888C23.8464 8.65806 23.7249 8.3528 23.5355 8.09035C23.378 7.81626 23.1664 7.57709 22.9135 7.38743C22.6606 7.19776 22.3718 7.06156 22.0645 6.98712L21.4516 6.86454Z" fill="white"/>
<path d="M24.3234 11.9522L22.2002 13.178L26.4905 20.609L28.6137 19.3832L24.3234 11.9522Z" fill="white"/>
<path d="M9.31609 26.3549C8.46304 26.3387 7.62479 26.1291 6.86448 25.742C6.30314 25.4135 5.8168 24.9711 5.43678 24.4433C5.05677 23.9155 4.79149 23.314 4.65803 22.6774C4.45936 22.0668 4.40028 21.4195 4.48515 20.783C4.57001 20.1465 4.79665 19.5372 5.14835 19C5.4563 18.4335 5.87568 17.9351 6.38127 17.5348C6.88685 17.1346 7.46818 16.8407 8.09028 16.671C9.33594 16.4049 10.6353 16.5782 11.7677 17.1613C12.8945 17.8616 13.7237 18.9526 14.0967 20.2258C14.2642 20.8405 14.307 21.4825 14.2228 22.114C14.1386 22.7456 13.9291 23.3539 13.6064 23.9032C12.9281 24.9995 11.8872 25.8236 10.6645 26.2323L9.31609 26.3549ZM9.31609 19H8.70319C8.39309 19.0673 8.10116 19.2007 7.84731 19.3911C7.59346 19.5815 7.38366 19.8244 7.23222 20.1032C7.02138 20.3792 6.88758 20.7062 6.84451 21.0507C6.80144 21.3953 6.85063 21.7452 6.98706 22.0645C7.0615 22.3718 7.1977 22.6606 7.38737 22.9135C7.57703 23.1664 7.8162 23.378 8.09028 23.5355C8.35274 23.7249 8.658 23.8464 8.97882 23.8892C9.29965 23.932 9.62608 23.8947 9.929 23.7807C10.2536 23.7552 10.5642 23.638 10.8247 23.4427C11.0852 23.2473 11.2847 22.9819 11.4 22.6774C11.5734 22.4072 11.689 22.1041 11.7397 21.787C11.7904 21.47 11.7749 21.1458 11.6943 20.835C11.6137 20.5242 11.4698 20.2335 11.2715 19.981C11.0731 19.7285 10.8248 19.5197 10.5419 19.3678V19.3678C10.182 19.1196 9.75315 18.991 9.31609 19Z" fill="white"/>
<path d="M13.217 22.2514L11.9912 24.3745L19.4223 28.6649L20.6481 26.5417L13.217 22.2514Z" fill="white"/>
<path d="M4.90323 42.9032C3.93346 42.9032 2.98547 42.6157 2.17914 42.0769C1.37281 41.5381 0.744352 40.7723 0.373238 39.8764C0.00212447 38.9804 -0.0949757 37.9946 0.0942163 37.0434C0.283408 36.0923 0.750395 35.2186 1.43612 34.5329C2.12185 33.8472 2.99552 33.3802 3.94666 33.191C4.89779 33.0018 5.88366 33.0989 6.77961 33.47C7.67556 33.8411 8.44134 34.4696 8.98011 35.2759C9.51889 36.0822 9.80645 37.0302 9.80645 38C9.80645 39.3004 9.28987 40.5476 8.37033 41.4671C7.4508 42.3866 6.20364 42.9032 4.90323 42.9032V42.9032ZM4.90323 35.5484C4.41835 35.5484 3.94435 35.6922 3.54119 35.9616C3.13802 36.2309 2.82379 36.6138 2.63823 37.0618C2.45268 37.5098 2.40413 38.0027 2.49872 38.4783C2.59332 38.9539 2.82681 39.3907 3.16968 39.7336C3.51254 40.0764 3.94938 40.3099 4.42494 40.4045C4.90051 40.4991 5.39345 40.4506 5.84142 40.265C6.28939 40.0794 6.67228 39.7652 6.94167 39.362C7.21106 38.9589 7.35484 38.4849 7.35484 38C7.35484 37.3498 7.09655 36.7262 6.63678 36.2664C6.17701 35.8067 5.55344 35.5484 4.90323 35.5484Z" fill="white"/>
<path d="M17.1612 36.7742H8.58057V39.2258H17.1612V36.7742Z" fill="white"/>
<path d="M9.31609 59.4516H8.09028C7.46818 59.2819 6.88685 58.9881 6.38127 58.5878C5.87568 58.1875 5.4563 57.6891 5.14835 57.1226C4.79665 56.5854 4.57001 55.9761 4.48515 55.3396C4.40028 54.7031 4.45936 54.0558 4.65803 53.4452C4.77541 52.7867 5.03324 52.1612 5.41398 51.6112C5.79472 51.0612 6.28943 50.5997 6.86448 50.2581V50.2581C8.03811 49.6659 9.37897 49.4929 10.6645 49.7677C11.8872 50.1765 12.9281 51.0005 13.6064 52.0968C13.9291 52.6461 14.1386 53.2545 14.2228 53.886C14.307 54.5175 14.2642 55.1595 14.0967 55.7742C13.7237 57.0474 12.8945 58.1384 11.7677 58.8387C11.0074 59.2259 10.1691 59.4354 9.31609 59.4516V59.4516ZM9.31609 52.0968C8.88117 52.1025 8.45653 52.2299 8.09028 52.4645C7.8162 52.622 7.57703 52.8336 7.38737 53.0865C7.1977 53.3394 7.0615 53.6283 6.98706 53.9355C6.87303 54.2384 6.83574 54.5648 6.87852 54.8857C6.9213 55.2065 7.04281 55.5117 7.23222 55.7742C7.38366 56.053 7.59346 56.2959 7.84731 56.4863C8.10116 56.6767 8.39309 56.8101 8.70319 56.8774C9.0061 56.9915 9.33253 57.0287 9.65336 56.986C9.97419 56.9432 10.2794 56.8217 10.5419 56.6323C10.8248 56.4803 11.0731 56.2716 11.2715 56.0191C11.4698 55.7666 11.6137 55.4758 11.6943 55.165C11.7749 54.8542 11.7904 54.5301 11.7397 54.213C11.689 53.896 11.5734 53.5928 11.4 53.3226C11.2847 53.0181 11.0852 52.7527 10.8247 52.5573C10.5642 52.362 10.2536 52.2448 9.929 52.2194L9.31609 52.0968Z" fill="white"/>
<path d="M19.3219 47.2723L11.8909 51.5626L13.1167 53.6858L20.5477 49.3954L19.3219 47.2723Z" fill="white"/>
<path d="M21.4516 71.5871C20.5797 71.5895 19.7266 71.3336 19 70.8516C18.4335 70.5436 17.9351 70.1243 17.5348 69.6187C17.1346 69.1131 16.8407 68.5318 16.671 67.9097C16.4049 66.664 16.5782 65.3647 17.1613 64.2322C17.8616 63.1054 18.9526 62.2762 20.2258 61.9032C20.8405 61.7358 21.4825 61.6929 22.114 61.7771C22.7456 61.8613 23.3539 62.0709 23.9032 62.3935C24.9995 63.0719 25.8236 64.1128 26.2323 65.3355C26.5071 66.621 26.3341 67.9618 25.742 69.1355C25.4135 69.6968 24.9711 70.1831 24.4433 70.5632C23.9155 70.9432 23.314 71.2085 22.6774 71.3419L21.4516 71.5871ZM21.4516 64.2322C21.0227 64.2116 20.597 64.3166 20.2269 64.5343C19.8567 64.7521 19.5581 65.0731 19.3678 65.4581V65.4581C19.1784 65.7205 19.0568 66.0258 19.0141 66.3466C18.9713 66.6674 19.0086 66.9938 19.1226 67.2968C19.1899 67.6069 19.3233 67.8988 19.5137 68.1526C19.7041 68.4065 19.947 68.6163 20.2258 68.7677C20.4883 68.9571 20.7935 69.0786 21.1144 69.1214C21.4352 69.1642 21.7616 69.1269 22.0645 69.0129C22.3718 68.9384 22.6606 68.8022 22.9135 68.6126C23.1664 68.4229 23.378 68.1838 23.5355 67.9097C23.7249 67.6472 23.8464 67.342 23.8892 67.0211C23.932 66.7003 23.8947 66.3739 23.7807 66.071C23.7552 65.7464 23.638 65.4357 23.4427 65.1753C23.2473 64.9148 22.9819 64.7153 22.6774 64.6C22.3112 64.3653 21.8866 64.238 21.4516 64.2322Z" fill="white"/>
<path d="M26.6565 55.4746L22.3662 62.9056L24.4894 64.1314L28.7797 56.7004L26.6565 55.4746Z" fill="white"/>
<path d="M37.9999 76C37.0301 76 36.0822 75.7124 35.2758 75.1737C34.4695 74.6349 33.841 73.8691 33.4699 72.9732C33.0988 72.0772 33.0017 71.0913 33.1909 70.1402C33.3801 69.1891 33.8471 68.3154 34.5328 67.6297C35.2185 66.9439 36.0922 66.477 37.0433 66.2878C37.9945 66.0986 38.9803 66.1957 39.8763 66.5668C40.7722 66.9379 41.538 67.5664 42.0768 68.3727C42.6156 69.179 42.9031 70.127 42.9031 71.0968C42.9031 72.3972 42.3865 73.6443 41.467 74.5639C40.5475 75.4834 39.3003 76 37.9999 76V76ZM37.9999 68.6452C37.515 68.6452 37.041 68.7889 36.6379 69.0583C36.2347 69.3277 35.9205 69.7106 35.7349 70.1586C35.5494 70.6066 35.5008 71.0995 35.5954 71.5751C35.69 72.0506 35.9235 72.4875 36.2664 72.8303C36.6092 73.1732 37.0461 73.4067 37.5216 73.5013C37.9972 73.5959 38.4901 73.5473 38.9381 73.3618C39.3861 73.1762 39.769 72.862 40.0384 72.4588C40.3077 72.0557 40.4515 71.5817 40.4515 71.0968C40.4515 70.4466 40.1932 69.823 39.7335 69.3632C39.2737 68.9035 38.6501 68.6452 37.9999 68.6452Z" fill="white"/>
<path d="M39.2258 58.8387H36.7742V67.4194H39.2258V58.8387Z" fill="white"/>
<path d="M54.5484 71.5871L53.3226 71.3419C52.686 71.2085 52.0845 70.9432 51.5567 70.5632C51.0289 70.1831 50.5865 69.6968 50.2581 69.1355V69.1355C49.6659 67.9618 49.4929 66.621 49.7677 65.3355C50.1765 64.1128 51.0005 63.0719 52.0968 62.3935C52.6461 62.0709 53.2545 61.8613 53.886 61.7771C54.5175 61.6929 55.1595 61.7358 55.7742 61.9032C57.0474 62.2762 58.1384 63.1054 58.8387 64.2322C59.4218 65.3647 59.5951 66.664 59.329 67.9097C59.1593 68.5318 58.8655 69.1131 58.4652 69.6187C58.065 70.1243 57.5666 70.5436 57 70.8516C56.2734 71.3336 55.4203 71.5895 54.5484 71.5871V71.5871ZM54.5484 64.2322C54.1135 64.238 53.6888 64.3653 53.3226 64.6C53.0181 64.7153 52.7527 64.9148 52.5573 65.1753C52.362 65.4357 52.2448 65.7464 52.2194 66.071C52.1053 66.3739 52.068 66.7003 52.1108 67.0211C52.1536 67.342 52.2751 67.6472 52.4645 67.9097V67.9097C52.622 68.1838 52.8336 68.4229 53.0865 68.6126C53.3394 68.8022 53.6283 68.9384 53.9355 69.0129C54.2384 69.1269 54.5648 69.1642 54.8857 69.1214C55.2065 69.0786 55.5117 68.9571 55.7742 68.7677C56.053 68.6163 56.2959 68.4065 56.4863 68.1526C56.6767 67.8988 56.8101 67.6069 56.8774 67.2968C56.9915 66.9938 57.0287 66.6674 56.986 66.3466C56.9432 66.0258 56.8217 65.7205 56.6323 65.4581C56.4419 65.0731 56.1433 64.7521 55.7732 64.5343C55.403 64.3166 54.9773 64.2116 54.5484 64.2322V64.2322Z" fill="white"/>
<path d="M49.3954 55.567L47.2722 56.7928L51.5625 64.2238L53.6857 62.998L49.3954 55.567Z" fill="white"/>
<path d="M66.6838 59.4516C65.8308 59.4354 64.9925 59.2259 64.2322 58.8387C63.1054 58.1384 62.2762 57.0474 61.9032 55.7742C61.7357 55.1595 61.6928 54.5175 61.777 53.886C61.8612 53.2545 62.0708 52.6461 62.3935 52.0968C63.0718 51.0005 64.1127 50.1765 65.3354 49.7677C66.6209 49.4929 67.9618 49.6659 69.1354 50.2581C69.6968 50.5865 70.1831 51.0289 70.5631 51.5567C70.9431 52.0845 71.2084 52.686 71.3419 53.3226C71.5405 53.9332 71.5996 54.5806 71.5147 55.217C71.4299 55.8535 71.2032 56.4628 70.8515 57C70.5436 57.5666 70.1242 58.065 69.6186 58.4652C69.113 58.8655 68.5317 59.1593 67.9096 59.329L66.6838 59.4516ZM66.6838 52.0968H66.0709C65.7463 52.1222 65.4357 52.2394 65.1752 52.4348C64.9147 52.6301 64.7152 52.8955 64.5999 53.2C64.4265 53.4702 64.3109 53.7734 64.2602 54.0904C64.2095 54.4075 64.225 54.7316 64.3056 55.0424C64.3861 55.3532 64.5301 55.644 64.7284 55.8965C64.9267 56.149 65.1751 56.3578 65.458 56.5097V56.5097C65.7205 56.6991 66.0257 56.8206 66.3465 56.8634C66.6674 56.9062 66.9938 56.8689 67.2967 56.7548C67.6068 56.6875 67.8987 56.5541 68.1526 56.3638C68.4064 56.1734 68.6162 55.9305 68.7677 55.6516C68.9571 55.3892 69.0786 55.0839 69.1214 54.7631C69.1641 54.4423 69.1269 54.1158 69.0128 53.8129C68.9384 53.5057 68.8022 53.2168 68.6125 52.9639C68.4229 52.7111 68.1837 52.4994 67.9096 52.3419C67.531 52.15 67.1071 52.0653 66.6838 52.0968V52.0968Z" fill="white"/>
<path d="M56.7986 47.2817L55.5728 49.4049L63.0038 53.6952L64.2296 51.572L56.7986 47.2817Z" fill="white"/>
<path d="M71.0968 42.9032C70.1271 42.9032 69.1791 42.6157 68.3727 42.0769C67.5664 41.5381 66.938 40.7723 66.5668 39.8764C66.1957 38.9804 66.0986 37.9946 66.2878 37.0434C66.477 36.0923 66.944 35.2186 67.6297 34.5329C68.3155 33.8472 69.1891 33.3802 70.1403 33.191C71.0914 33.0018 72.0773 33.0989 72.9732 33.47C73.8692 33.8411 74.6349 34.4696 75.1737 35.2759C75.7125 36.0822 76.0001 37.0302 76.0001 38C76.0001 39.3004 75.4835 40.5476 74.5639 41.4671C73.6444 42.3866 72.3973 42.9032 71.0968 42.9032ZM71.0968 35.5484C70.612 35.5484 70.138 35.6922 69.7348 35.9616C69.3316 36.2309 69.0174 36.6138 68.8318 37.0618C68.6463 37.5098 68.5977 38.0027 68.6923 38.4783C68.7869 38.9539 69.0204 39.3907 69.3633 39.7336C69.7061 40.0764 70.143 40.3099 70.6185 40.4045C71.0941 40.4991 71.5871 40.4506 72.035 40.265C72.483 40.0794 72.8659 39.7652 73.1353 39.362C73.4047 38.9589 73.5484 38.4849 73.5484 38C73.5484 37.3498 73.2902 36.7262 72.8304 36.2664C72.3706 35.8067 71.747 35.5484 71.0968 35.5484Z" fill="white"/>
<path d="M67.4193 36.7742H58.8386V39.2258H67.4193V36.7742Z" fill="white"/>
<path d="M66.6838 26.3549H65.3354C64.1127 25.9461 63.0718 25.1221 62.3935 24.0258C62.0708 23.4765 61.8612 22.8681 61.777 22.2366C61.6928 21.6051 61.7357 20.9631 61.9032 20.3484C62.2489 19.0299 63.081 17.8912 64.2322 17.1613C65.3646 16.5782 66.664 16.4049 67.9096 16.671C68.5317 16.8407 69.113 17.1346 69.6186 17.5348C70.1242 17.9351 70.5436 18.4335 70.8515 19C71.2032 19.5372 71.4299 20.1465 71.5147 20.783C71.5996 21.4195 71.5405 22.0668 71.3419 22.6774C71.2084 23.314 70.9431 23.9155 70.5631 24.4433C70.1831 24.9711 69.6968 25.4135 69.1354 25.742V25.742C68.3751 26.1291 67.5369 26.3387 66.6838 26.3549V26.3549ZM66.6838 19C66.2467 18.991 65.8179 19.1196 65.458 19.3678C65.1751 19.5197 64.9267 19.7285 64.7284 19.981C64.5301 20.2335 64.3861 20.5242 64.3056 20.835C64.225 21.1458 64.2095 21.47 64.2602 21.787C64.3109 22.1041 64.4265 22.4072 64.5999 22.6774C64.7152 22.9819 64.9147 23.2473 65.1752 23.4427C65.4357 23.638 65.7463 23.7552 66.0709 23.7807C66.3738 23.8947 66.7002 23.932 67.0211 23.8892C67.3419 23.8464 67.6471 23.7249 67.9096 23.5355V23.5355C68.1837 23.378 68.4229 23.1664 68.6125 22.9135C68.8022 22.6606 68.9384 22.3718 69.0128 22.0645C69.1269 21.7616 69.1641 21.4352 69.1214 21.1144C69.0786 20.7935 68.9571 20.4883 68.7677 20.2258C68.6162 19.947 68.4064 19.7041 68.1526 19.5137C67.8987 19.3233 67.6068 19.1899 67.2967 19.1226L66.6838 19Z" fill="white"/>
<path d="M62.9367 22.2002L55.5056 26.4905L56.7314 28.6137L64.1625 24.3234L62.9367 22.2002Z" fill="white"/>
<path d="M54.5484 14.2194C53.6953 14.2032 52.8571 13.9936 52.0968 13.6065C51.0005 12.9281 50.1765 11.8872 49.7677 10.6645C49.4929 9.37903 49.6659 8.03817 50.2581 6.86454C50.5865 6.3032 51.0289 5.81686 51.5567 5.43685C52.0845 5.05683 52.686 4.79155 53.3226 4.65809C53.9332 4.45942 54.5806 4.40034 55.217 4.48521C55.8535 4.57007 56.4628 4.79671 57 5.14841C57.5666 5.45636 58.065 5.87574 58.4652 6.38133C58.8655 6.88691 59.1593 7.46824 59.329 8.09035C59.5951 9.336 59.4218 10.6353 58.8387 11.7678C58.1384 12.8946 57.0474 13.7238 55.7742 14.0968L54.5484 14.2194ZM54.5484 6.86454H53.9355C53.6283 6.93898 53.3394 7.07518 53.0865 7.26485C52.8336 7.45451 52.622 7.69368 52.4645 7.96777C52.2751 8.23022 52.1536 8.53548 52.1108 8.8563C52.068 9.17713 52.1053 9.50356 52.2194 9.80647C52.2448 10.1311 52.362 10.4417 52.5573 10.7022C52.7527 10.9626 53.0181 11.1622 53.3226 11.2774C53.5928 11.4509 53.896 11.5665 54.213 11.6172C54.5301 11.6678 54.8542 11.6524 55.165 11.5718C55.4758 11.4912 55.7666 11.3473 56.0191 11.1489C56.2716 10.9506 56.4803 10.7022 56.6323 10.4194C56.8217 10.1569 56.9432 9.85167 56.986 9.53084C57.0287 9.21001 56.9915 8.88358 56.8774 8.58067C56.8101 8.27057 56.6767 7.97864 56.4863 7.72479C56.2959 7.47094 56.053 7.26114 55.7742 7.1097C55.3956 6.9178 54.9717 6.83303 54.5484 6.86454V6.86454Z" fill="white"/>
<path d="M51.6868 11.7703L47.3965 19.2013L49.5196 20.4271L53.81 12.9961L51.6868 11.7703Z" fill="white"/>
<path d="M52.8594 52.8593C48.9153 56.8034 43.575 59.0331 37.9973 59.0645C33.8321 59.064 29.7605 57.8286 26.2973 55.5145C22.8332 53.1999 20.1333 49.9101 18.539 46.0611C16.9447 42.212 16.5275 37.9766 17.3403 33.8905C18.1531 29.8044 20.1593 26.0511 23.1052 23.1051C26.0511 20.1592 29.8045 18.153 33.8906 17.3402C37.9767 16.5275 42.2121 16.9446 46.0611 18.5389C49.9102 20.1333 53.2 22.8332 55.5146 26.2972C57.8287 29.7605 59.064 33.8321 59.0646 37.9973C59.0331 43.5749 56.8035 48.9152 52.8594 52.8593Z" stroke="white" stroke-width="2"/>
<path d="M27.8239 44.9538C28.3506 43.7188 29.1151 42.5971 30.0746 41.651C31.0313 40.7022 32.1645 39.9457 33.4117 39.4234C33.4229 39.4178 33.4341 39.4151 33.4452 39.4095C31.7055 38.1658 30.5745 36.1399 30.5745 33.8543C30.5745 30.0678 33.6742 27 37.5 27C41.3258 27 44.4255 30.0678 44.4255 33.8543C44.4255 36.1399 43.2945 38.1658 41.5548 39.4123C41.5659 39.4178 41.5771 39.4206 41.5883 39.4261C42.8393 39.9485 43.9619 40.6975 44.9253 41.6538C45.884 42.6006 46.6483 43.7221 47.1761 44.9565C47.6946 46.165 47.9743 47.4607 47.9999 48.7734C48.0007 48.8029 47.9954 48.8322 47.9846 48.8597C47.9737 48.8871 47.9573 48.9122 47.9365 48.9333C47.9157 48.9544 47.8908 48.9712 47.8633 48.9827C47.8359 48.9941 47.8063 49 47.7765 49H46.101C45.9781 49 45.8804 48.9033 45.8776 48.7844C45.8218 46.6508 44.9561 44.6525 43.4258 43.1379C41.8424 41.5709 39.7396 40.7085 37.5 40.7085C35.2604 40.7085 33.1576 41.5709 31.5742 43.1379C30.0439 44.6525 29.1782 46.6508 29.1224 48.7844C29.1196 48.906 29.0219 49 28.899 49H27.2235C27.1937 49 27.1641 48.9941 27.1367 48.9827C27.1092 48.9712 27.0843 48.9544 27.0635 48.9333C27.0427 48.9122 27.0263 48.8871 27.0154 48.8597C27.0046 48.8322 26.9993 48.8029 27.0001 48.7734C27.028 47.4523 27.3045 46.1671 27.8239 44.9538V44.9538ZM37.5 38.608C38.7818 38.608 39.9881 38.1133 40.8957 37.2151C41.8033 36.3168 42.3032 35.1229 42.3032 33.8543C42.3032 32.5857 41.8033 31.3917 40.8957 30.4935C39.9881 29.5952 38.7818 29.1005 37.5 29.1005C36.2182 29.1005 35.0119 29.5952 34.1043 30.4935C33.1967 31.3917 32.6968 32.5857 32.6968 33.8543C32.6968 35.1229 33.1967 36.3168 34.1043 37.2151C35.0119 38.1133 36.2182 38.608 37.5 38.608Z" fill="white"/>
</svg>
