<svg width="81" height="90" viewBox="0 0 81 90" fill="none" xmlns="http://www.w3.org/2000/svg">
<path d="M79.0908 62.2567C79.0908 62.4361 79.0908 62.5258 79.0908 62.7051C79.1791 64.1398 78.9142 65.4848 78.2961 66.7401V66.8298C77.9429 67.5471 77.5014 68.1748 77.0599 68.7128C76.9716 68.8922 76.8833 69.0715 76.795 69.3405C75.3822 72.2995 72.7332 74.9896 69.5544 75.7069C68.848 75.8863 68.2299 75.9759 67.5235 75.9759C66.5522 76.4243 65.4925 76.8726 64.5212 77.2313V89.1571C66.8171 88.3501 69.0246 87.3637 70.9672 86.198C77.4131 82.432 80.5919 77.5003 80.5919 72.5685V62.2567H79.0908Z" fill="#CECECE"/>
<path d="M53.574 77.0616C47.7461 77.9583 41.83 78.0479 36.0022 77.2409C25.4061 75.8959 13.8387 72.1298 11.8078 60.473H10.3067V70.7848C10.2184 75.7166 13.3972 80.6483 19.7549 84.4143C26.6423 88.4494 35.7373 90.2427 44.7439 89.9737C49.9536 89.7944 54.9868 88.8977 59.5784 87.2837V75.4476C57.7241 76.1649 55.6932 76.7029 53.574 77.0616Z" fill="#D3D3D3"/>
<path d="M42.6256 59.4867V59.2177L42.1841 58.7694L42.6256 59.2177V41.4635C34.5902 41.5531 26.6432 43.3465 20.4621 46.8435C20.3738 46.8435 20.3738 46.9332 20.2855 46.9332C20.1972 46.9332 20.1089 47.0229 20.0206 47.1126C15.8705 49.5336 13.1332 52.4029 11.6321 55.4517C8.45327 61.9077 11.1906 69.1708 19.844 74.2819C26.7315 78.3169 35.8264 80.1103 44.8331 79.8413C50.1311 79.662 55.4291 78.6756 60.1091 76.9719L42.6256 59.2177V59.4867Z" fill="white"/>
<path d="M42.6245 41.4635V58.59H42.8011L56.0462 42.9878C51.8078 41.9118 47.2161 41.3738 42.6245 41.4635Z" fill="#DEDEDE"/>
<path d="M66.2893 47.0229C63.2871 45.2295 59.755 43.9742 56.1347 42.9878L42.8896 58.59H75.6491C74.9427 54.3756 71.7639 50.2509 66.2893 47.0229Z" fill="#EFEFEF"/>
<path d="M47.3911 60.2841V60.9117L64.8746 78.666C66.9938 77.8589 69.0247 76.9623 70.9673 75.8863C78.1197 71.5822 81.2985 65.8435 80.4155 60.2841H47.3911Z" fill="white"/>
<path fill-rule="evenodd" clip-rule="evenodd" d="M42.7478 1.76684V37.1464L40.8316 38.9171H33.1669L31.2507 37.1464V1.77073L33.1669 0H40.8316L42.7478 1.76684ZM35.0831 3.53757V35.3795H38.9154V3.53757H35.0831ZM27.4183 9.51134V37.1892L25.5021 38.9171H17.8374L15.9212 37.1892V9.51134L17.8374 7.78342H25.5021L27.4183 9.51134ZM19.7536 11.2432V35.4535H23.586V11.2393H19.7536V11.2432ZM12.0888 37.2476V17.2325L10.1727 15.5668H2.50792L0.59174 17.2325V37.2476L2.50792 38.9171H10.1727L12.0888 37.2476ZM4.42411 35.5819V18.902H8.25648V35.5819H4.42411Z" fill="white"/>
</svg>
