<svg width="106" height="106" viewBox="0 0 106 106" fill="none" xmlns="http://www.w3.org/2000/svg">
<path d="M11.9241 1.1778e-06C8.76166 1.1778e-06 5.72871 1.25629 3.4925 3.4925C1.25629 5.72871 0 8.76166 0 11.9241V83.4637C0 86.6262 1.25629 89.6591 3.4925 91.8953C5.72871 94.1315 8.76166 95.3878 11.9241 95.3878H43.2661L45.1528 87.8412L45.2587 87.4384H11.9241C10.87 87.4384 9.859 87.0196 9.1136 86.2742C8.36819 85.5288 7.94943 84.5179 7.94943 83.4637V11.9188C7.94943 10.8647 8.36819 9.8537 9.1136 9.1083C9.859 8.36289 10.87 7.94413 11.9241 7.94413H83.4637C84.5179 7.94413 85.5288 8.36289 86.2742 9.1083C87.0196 9.8537 87.4384 10.8647 87.4384 11.9188V43.6265C89.9716 42.6195 92.7009 42.2274 95.3878 42.4605V11.9241C95.3878 10.3578 95.0792 8.8068 94.4797 7.35975C93.8801 5.9127 93.0013 4.59796 91.8935 3.49063C90.7856 2.3833 89.4705 1.50508 88.0232 0.906151C86.5759 0.307219 85.0247 -0.000694976 83.4584 1.1778e-06H11.9135H11.9241ZM85.3239 51.2473L54.0455 82.5204C52.2199 84.3444 50.9248 86.6307 50.2987 89.1343L47.8768 98.8326C46.8168 103.056 50.6432 106.877 54.8617 105.823L64.56 103.396C67.063 102.771 69.3492 101.478 71.1739 99.654L102.442 68.3651C104.655 66.0811 105.881 63.0184 105.856 59.8381C105.831 56.6578 104.556 53.615 102.307 51.3665C100.057 49.1179 97.0142 47.844 93.8339 47.8198C90.6536 47.7955 87.5913 49.0228 85.308 51.2367L85.3239 51.2473Z" fill="#666666"/>
<path d="M64.728 62.9617H42.973C41.9189 62.9617 40.9079 63.3804 40.1625 64.1259C39.4171 64.8713 38.9983 65.8822 38.9983 66.9364C38.9983 67.9906 39.4171 69.0015 40.1625 69.7469C40.9079 70.4923 41.9189 70.9111 42.973 70.9111H56.7785L64.728 62.9617ZM29.724 27.1893C29.724 28.5948 29.1656 29.9428 28.1718 30.9367C27.1779 31.9305 25.8299 32.4889 24.4244 32.4889C23.0188 32.4889 21.6708 31.9305 20.677 30.9367C19.6831 29.9428 19.1248 28.5948 19.1248 27.1893C19.1248 25.7837 19.6831 24.4357 20.677 23.4419C21.6708 22.448 23.0188 21.8896 24.4244 21.8896C25.8299 21.8896 27.1779 22.448 28.1718 23.4419C29.1656 24.4357 29.724 25.7837 29.724 27.1893ZM42.973 23.2146C41.9189 23.2146 40.9079 23.6333 40.1625 24.3787C39.4171 25.1241 38.9983 26.1351 38.9983 27.1893C38.9983 28.2434 39.4171 29.2544 40.1625 29.9998C40.9079 30.7452 41.9189 31.164 42.973 31.164H72.1209C73.1751 31.164 74.1861 30.7452 74.9315 29.9998C75.6769 29.2544 76.0957 28.2434 76.0957 27.1893C76.0957 26.1351 75.6769 25.1241 74.9315 24.3787C74.1861 23.6333 73.1751 23.2146 72.1209 23.2146H42.973ZM42.973 43.0881C42.4511 43.0881 41.9342 43.1909 41.452 43.3907C40.9698 43.5904 40.5316 43.8832 40.1625 44.2523C39.7934 44.6214 39.5006 45.0595 39.3009 45.5418C39.1011 46.024 38.9983 46.5409 38.9983 47.0628C38.9983 47.5848 39.1011 48.1017 39.3009 48.5839C39.5006 49.0661 39.7934 49.5043 40.1625 49.8734C40.5316 50.2425 40.9698 50.5352 41.452 50.735C41.9342 50.9347 42.4511 51.0375 42.973 51.0375H72.1209C72.6429 51.0375 73.1598 50.9347 73.642 50.735C74.1242 50.5352 74.5624 50.2425 74.9315 49.8734C75.3006 49.5043 75.5933 49.0661 75.7931 48.5839C75.9928 48.1017 76.0957 47.5848 76.0957 47.0628C76.0957 46.5409 75.9928 46.024 75.7931 45.5418C75.5933 45.0595 75.3006 44.6214 74.9315 44.2523C74.5624 43.8832 74.1242 43.5904 73.642 43.3907C73.1598 43.1909 72.6429 43.0881 72.1209 43.0881H42.973ZM24.4297 52.3678C25.8352 52.3678 27.1832 51.8094 28.1771 50.8155C29.1709 49.8217 29.7293 48.4737 29.7293 47.0681C29.7293 45.6626 29.1709 44.3146 28.1771 43.3207C27.1832 42.3269 25.8352 41.7685 24.4297 41.7685C23.0241 41.7685 21.6762 42.3269 20.6823 43.3207C19.6884 44.3146 19.1301 45.6626 19.1301 47.0681C19.1301 48.4737 19.6884 49.8217 20.6823 50.8155C21.6762 51.8094 23.0241 52.3678 24.4297 52.3678ZM29.7293 66.9417C29.7293 68.3472 29.1709 69.6952 28.1771 70.6891C27.1832 71.683 25.8352 72.2413 24.4297 72.2413C23.0241 72.2413 21.6762 71.683 20.6823 70.6891C19.6884 69.6952 19.1301 68.3472 19.1301 66.9417C19.1301 65.5362 19.6884 64.1882 20.6823 63.1943C21.6762 62.2004 23.0241 61.6421 24.4297 61.6421C25.8352 61.6421 27.1832 62.2004 28.1771 63.1943C29.1709 64.1882 29.7293 65.5362 29.7293 66.9417Z" fill="#5E86E4"/>
</svg>
