<svg width="107" height="104" viewBox="0 0 107 104" fill="none" xmlns="http://www.w3.org/2000/svg">
<rect x="5.04419" y="8.91748" width="41.4174" height="44.8004" stroke="#666666" stroke-width="7" stroke-linejoin="round" stroke-dasharray="7 7"/>
<rect x="2.13606" y="5.74446" width="4.27212" height="4.86913" stroke="#666666" stroke-width="4.27212" stroke-linejoin="round"/>
<path d="M3.5 53.6689H5.04425V55.8102H3.5V53.6689Z" stroke="#666666" stroke-width="7" stroke-linejoin="round"/>
<rect x="45.0977" y="5.74446" width="4.27212" height="4.86913" stroke="#666666" stroke-width="4.27212" stroke-linejoin="round"/>
<path d="M57.8208 53.8199L79.2312 9.23949L100.642 53.8199H57.8208Z" stroke="#666666" stroke-width="8" stroke-linejoin="round"/>
<rect x="23.366" y="54.02" width="59.7143" height="45.0999" stroke="#666666" stroke-width="8" stroke-linejoin="round"/>
<path d="M43.2054 75.7314L26.0718 99.2072H79.0302L56.8344 75.7314L50.7987 83.7741L43.2054 75.7314Z" fill="#5E86E4"/>
<path d="M58.392 91.8167L50.7987 83.7741M50.7987 83.7741L43.2054 75.7314L26.0718 99.2072H79.0302L56.8344 75.7314L50.7987 83.7741Z" stroke="#666666" stroke-width="8" stroke-linejoin="round"/>
<ellipse cx="70.8178" cy="67.3416" rx="4.2126" ry="4.56473" fill="#5E86E4"/>
</svg>
