<svg width="102" height="102" viewBox="0 0 102 102" fill="none" xmlns="http://www.w3.org/2000/svg">
<path d="M101.768 17.4071C101.768 12.7904 99.9338 8.36287 96.6693 5.09841C93.4048 1.83395 88.9773 0 84.3606 0H22.7664C18.1498 0 13.7222 1.83395 10.4578 5.09841C7.19333 8.36287 5.35938 12.7904 5.35938 17.4071V41.5466C7.76948 39.5552 10.4815 37.9606 13.3934 36.8226V17.4071C13.3934 12.2331 17.5925 8.03403 22.7664 8.03403H84.3606C89.5346 8.03403 93.7337 12.2331 93.7337 17.4071V79.0013C93.7337 80.1207 93.5355 81.1919 93.1767 82.1881L61.9939 51.6481L61.3083 51.0268C59.6671 49.6512 57.689 48.7375 55.5776 48.3798C53.4662 48.0221 51.2976 48.2332 49.2948 48.9915C50.682 51.2678 51.7639 53.753 52.4977 56.3828C53.1756 56.1966 53.8906 56.1916 54.5711 56.3683C55.2515 56.545 55.8737 56.8972 56.3755 57.3897L87.4671 87.8387C86.4674 88.1905 85.4151 88.3698 84.3553 88.3689H58.7803L61.5226 91.1166C63.0116 92.6002 63.8953 94.4695 64.1738 96.403H84.3553C86.6412 96.4037 88.9049 95.9541 91.0171 95.08C93.1293 94.2059 95.0486 92.9242 96.6655 91.3084C98.2824 89.6925 99.5652 87.7739 100.441 85.6623C101.316 83.5506 101.767 81.2872 101.768 79.0013V17.4071Z" fill="#666666"/>
<path d="M83.0429 30.8078C83.0429 27.6089 81.7722 24.5409 79.5101 22.2789C77.2481 20.0169 74.1802 18.7461 70.9812 18.7461C67.7822 18.7461 64.7143 20.0169 62.4522 22.2789C60.1902 24.5409 58.9194 27.6089 58.9194 30.8078C58.9194 34.0068 60.1902 37.0748 62.4522 39.3368C64.7143 41.5988 67.7822 42.8696 70.9812 42.8696C74.1802 42.8696 77.2481 41.5988 79.5101 39.3368C81.7722 37.0748 83.0429 34.0068 83.0429 30.8078ZM66.9535 30.8078C66.9535 29.7396 67.3778 28.7152 68.1332 27.9598C68.8885 27.2045 69.913 26.7801 70.9812 26.7801C72.0494 26.7801 73.0739 27.2045 73.8292 27.9598C74.5846 28.7152 75.0089 29.7396 75.0089 30.8078C75.0089 31.8761 74.5846 32.9005 73.8292 33.6559C73.0739 34.4112 72.0494 34.8356 70.9812 34.8356C69.913 34.8356 68.8885 34.4112 68.1332 33.6559C67.3778 32.9005 66.9535 31.8761 66.9535 30.8078Z" fill="#666666"/>
<path d="M42.5837 79.7505C46.4621 75.1173 48.4588 69.1963 48.1782 63.1605C47.8976 57.1247 45.3602 51.4145 41.0686 47.1611C36.777 42.9077 31.0443 40.4214 25.0063 40.1947C18.9683 39.968 13.0653 42.0176 8.46691 45.9373C3.86851 49.857 0.910091 55.3609 0.177752 61.3586C-0.554588 67.3564 0.992574 73.4104 4.51273 78.3214C8.0329 83.2324 13.2692 86.642 19.1844 87.8749C25.0996 89.1077 31.2621 88.0738 36.451 84.978L52.0638 100.585C52.4316 100.98 52.8751 101.297 53.3678 101.516C53.8606 101.736 54.3925 101.854 54.9319 101.863C55.4712 101.873 56.007 101.774 56.5072 101.572C57.0074 101.37 57.4617 101.069 57.8432 100.687C58.2246 100.306 58.5254 99.8516 58.7274 99.3514C58.9294 98.8512 59.0286 98.3155 59.0191 97.7761C59.0096 97.2368 58.8916 96.7048 58.672 96.2121C58.4524 95.7193 58.1359 95.2758 57.7412 94.9081L42.5837 79.7505ZM24.1054 80.3397C19.8439 80.3397 15.7569 78.6468 12.7436 75.6335C9.73025 72.6201 8.03737 68.5332 8.03737 64.2717C8.03737 60.0101 9.73025 55.9232 12.7436 52.9098C15.7569 49.8965 19.8439 48.2036 24.1054 48.2036C28.3669 48.2036 32.4539 49.8965 35.4673 52.9098C38.4806 55.9232 40.1735 60.0101 40.1735 64.2717C40.1735 68.5332 38.4806 72.6201 35.4673 75.6335C32.4539 78.6468 28.3669 80.3397 24.1054 80.3397Z" fill="#5E86E4"/>
</svg>
