<svg width="119" height="111" viewBox="0 0 119 111" fill="none" xmlns="http://www.w3.org/2000/svg">
<path d="M100.111 27.7894H94.2222V21.8947C94.2222 18.6526 91.5722 16 88.3333 16H5.88889C2.65 16 0 18.6526 0 21.8947V92.6309C0 95.873 2.65 98.5256 5.88889 98.5256H11.7778V104.42C11.7778 107.662 14.4278 110.315 17.6667 110.315H100.111C103.35 110.315 106 107.662 106 104.42V33.6841C106 30.442 103.35 27.7894 100.111 27.7894ZM11.7778 33.6841V92.6309H5.90067L5.88889 92.6191V21.9065L5.90067 21.8947H88.3216L88.3333 21.9065V27.7894H17.6667C14.4278 27.7894 11.7778 30.442 11.7778 33.6841ZM100.111 104.408L100.099 104.42H17.6784L17.6667 104.408V33.6958L17.6784 33.6841H100.099L100.111 33.6958V104.408Z" fill="#666666"/>
<path d="M88.3334 48.4207C88.3327 50.7665 87.401 53.016 85.7433 54.6742C84.0856 56.3324 81.8378 57.2635 79.4942 57.2627C77.1507 57.2619 74.9035 56.3293 73.2469 54.67C71.5903 53.0107 70.6601 50.7606 70.6609 48.4148C70.6617 46.0689 71.5934 43.8195 73.2511 42.1613C74.9087 40.5031 77.1566 39.572 79.5001 39.5728C81.8436 39.5735 84.0909 40.5062 85.7474 42.1655C87.404 43.8248 88.3342 46.0748 88.3334 48.4207Z" fill="#666666"/>
<path d="M94.2222 98.5256H23.5555V86.7363L44.1667 51.3682L67.7222 80.8416H73.6111L94.2222 63.1575V98.5256Z" fill="#666666"/>
<path d="M90.5 48L85.5894 34.9106L72.5 30L85.5894 25.0894L90.5 12L95.4106 25.0894L108.5 30L95.4106 34.9106L90.5 48Z" fill="#5E86E4"/>
<path d="M79.25 16.5L77.0403 10.4597L71 8.25L77.0403 6.04031L79.25 0L81.4597 6.04031L87.5 8.25L81.4597 10.4597L79.25 16.5Z" fill="#5E86E4"/>
<path d="M108.5 24L105.583 16.4166L98 13.5L105.583 10.5834L108.5 3L111.417 10.5834L119 13.5L111.417 16.4166L108.5 24Z" fill="#5E86E4"/>
</svg>
