<svg xmlns="http://www.w3.org/2000/svg" width="20" height="20" viewBox="0 0 20 20"><defs><style>.a{stroke-miterlimit:10;}.b,.c{stroke:none;}</style></defs><g transform="translate(-574 454)"><g class="a"><path class="b" d="M590.276-454H577.724A3.724,3.724,0,0,0,574-450.276v12.552A3.724,3.724,0,0,0,577.724-434h7.156v-7.969h-2.952v-3.28h2.952v-1.776a3.885,3.885,0,0,1,1.007-3.108,4.181,4.181,0,0,1,3.239-1.253l2.719-.058v3.28h-1.352a2.649,2.649,0,0,0-1.514.433,1.687,1.687,0,0,0-.41,1.207v1.275h3.185v3.28h-3.185V-434h1.708A3.724,3.724,0,0,0,594-437.724v-12.552A3.724,3.724,0,0,0,590.276-454Z"/><path class="c" d="M 577.7236328125 -454 L 590.2759399414063 -454 C 592.3324584960938 -454 593.9995727539063 -452.3328247070313 593.9995727539063 -450.2763061523438 L 593.9995727539063 -437.7240905761719 C 593.9995727539063 -435.6675415039063 592.3324584960938 -434.0004577636719 590.2759399414063 -434.0004577636719 L 588.5678100585938 -434.0004577636719 L 588.5678100585938 -441.9698791503906 L 591.7529296875 -441.9698791503906 L 591.7529296875 -445.2496948242188 L 588.5678100585938 -445.2496948242188 L 588.5678100585938 -446.525146484375 C 588.5678100585938 -447.0411987304688 588.7045288085938 -447.443359375 588.977783203125 -447.7322998046875 C 589.2510986328125 -448.0205688476563 590.06640625 -448.1651000976563 590.4920043945313 -448.1651000976563 L 591.843994140625 -448.1651000976563 L 591.843994140625 -451.4448852539063 L 589.1253662109375 -451.3865356445313 C 587.6370849609375 -451.3865356445313 586.7520751953125 -450.96875 585.8865966796875 -450.1338500976563 C 585.0211181640625 -449.2982177734375 584.8798828125 -448.3016967773438 584.8798828125 -447.0261840820313 L 584.8798828125 -445.2496948242188 L 581.9280395507813 -445.2496948242188 L 581.9280395507813 -441.9698791503906 L 584.8798828125 -441.9698791503906 L 584.8798828125 -434.0004577636719 L 577.7236328125 -434.0004577636719 C 575.6671142578125 -434.0004577636719 574 -435.6675415039063 574 -437.7240905761719 L 574 -450.2763061523438 C 574 -452.3328247070313 575.6671142578125 -454 577.7236328125 -454 Z"/></g></g></svg>