<svg xmlns="http://www.w3.org/2000/svg" width="180.669" height="51.224" viewBox="0 0 180.669 51.224"><defs><style>.a{fill:#66c961;font-size:36px;font-family:MonotypeCorsiva, Monotype Corsiva;}.b{fill:#7ac943;}.c{fill:#7fc97f;}</style></defs><g transform="translate(-176.201 -225.742)"><text class="a" transform="translate(176.201 265.966)"><tspan x="0" y="0">Home Rex</tspan></text><g transform="translate(315.674 225.742)"><path class="b" d="M768.084,225.742c-10.1,12.611-22.06,22.353-37.26,28.339.763-2.47,1.356-4.669,2.118-6.808,3.2-8.971,9.348-14.9,18.509-17.55,3.488-1.008,7.074-1.672,10.612-2.507C763.982,226.762,765.894,226.279,768.084,225.742Z" transform="translate(-730.824 -225.742)"/><path class="c" d="M742.2,262.008c1.736-2.164,4.982-2.647,7.17-4.141,3.564-2.432,8.851-5.214,11.7-7.668,3.224-2.773,6.994-5.715,10.9-8.879,3-2.428,5.065-4.229,8.565-6.737-3.345,5.46-6.405,11.116-10.035,16.379-4.728,6.855-11.617,10.311-19.846,11.041-2.551.226-5.136.083-7.7.1A7.47,7.47,0,0,1,742.2,262.008Z" transform="translate(-739.336 -232.36)"/></g></g></svg>