<svg width="114" height="85" viewBox="0 0 114 85" fill="none" xmlns="http://www.w3.org/2000/svg">
<path d="M32.9412 11.1173C38.1176 11.1173 42.3529 15.3526 42.3529 20.5291C42.3529 25.7056 38.1176 29.9409 32.9412 29.9409C27.7647 29.9409 23.5294 25.7056 23.5294 20.5291C23.5294 15.3526 27.7647 11.1173 32.9412 11.1173ZM32.9412 1.70557C22.5412 1.70557 14.1176 10.1291 14.1176 20.5291C14.1176 30.9291 22.5412 39.3526 32.9412 39.3526C43.3412 39.3526 51.7647 30.9291 51.7647 20.5291C51.7647 10.1291 43.3412 1.70557 32.9412 1.70557ZM32.9412 48.7644C14.7294 48.7644 0 65.1879 0 75.5879V84.9997H51.7647V75.5879H9.41177C9.41177 72.8585 17.6471 58.1762 32.9412 58.1762C41.5529 58.1762 47.8588 61.2938 51.7647 63.6468V54.1526C46.4471 52.035 40 48.7644 32.9412 48.7644Z" fill="#666666"/>
<path d="M76.1176 42C76.1176 38.8798 77.3571 35.8874 79.5634 33.6811C81.7698 31.4748 84.7622 30.2353 87.8824 30.2353C91.0025 30.2353 93.9949 31.4748 96.2013 33.6811C98.4076 35.8874 99.6471 38.8798 99.6471 42C99.6471 45.1202 98.4076 48.1126 96.2013 50.3189C93.9949 52.5252 91.0025 53.7647 87.8824 53.7647C84.7622 53.7647 81.7698 52.5252 79.5634 50.3189C77.3571 48.1126 76.1176 45.1202 76.1176 42ZM62 0V85H113.765V0H62ZM104.353 66.1765C99.1765 66.1765 94.9412 70.4118 94.9412 75.5882H80.8235C80.8235 73.0921 79.8319 70.6982 78.0669 68.9331C76.3018 67.1681 73.9079 66.1765 71.4118 66.1765V18.8235C76.6353 18.8235 80.8235 14.6353 80.8235 9.41177H94.9412C94.9412 11.9079 95.9328 14.3018 97.6978 16.0669C99.4629 17.8319 101.857 18.8235 104.353 18.8235V66.1765Z" fill="#5E86E4"/>
</svg>
