<svg width="107" height="107" viewBox="0 0 107 107" fill="none" xmlns="http://www.w3.org/2000/svg">
<path d="M94.4895 17.0625C94.4895 12.5372 92.6918 8.19733 89.492 4.99749C86.2922 1.79765 81.9522 0 77.427 0H17.0625C12.5372 0 8.19733 1.79765 4.99749 4.99749C1.79765 8.19733 0 12.5372 0 17.0625V77.4323C0 81.9575 1.79765 86.2974 4.99749 89.4973C8.19733 92.6971 12.5372 94.4948 17.0625 94.4948H42.861L44.73 87.0188L44.835 86.6198H17.0625C15.9915 86.6198 14.9625 86.436 14.007 86.0947L44.4938 56.2485L44.9295 55.881C45.6819 55.3329 46.6041 55.0691 47.5325 55.1364C48.4609 55.2036 49.3355 55.5977 50.001 56.2485L60.9157 66.9375L66.4808 61.3725L55.5083 50.6205L54.8363 50.0115C52.5894 48.1267 49.7218 47.1452 46.7913 47.2577C43.8608 47.3703 41.0769 48.569 38.9813 50.6205L8.41575 80.5455C8.05665 79.5469 7.87368 78.4935 7.875 77.4323V17.0573C7.875 11.9858 11.9858 7.86975 17.0625 7.86975H77.4323C82.5038 7.86975 86.6198 11.9858 86.6198 17.0573V43.218C89.1292 42.2205 91.833 41.832 94.4948 42.063V17.0625H94.4895ZM76.1408 30.198C76.1408 27.0623 74.8951 24.0551 72.6779 21.8379C70.4606 19.6206 67.4534 18.375 64.3177 18.375C61.1821 18.375 58.1749 19.6206 55.9576 21.8379C53.7404 24.0551 52.4947 27.0623 52.4947 30.198C52.4947 33.3337 53.7404 36.3409 55.9576 38.5581C58.1749 40.7754 61.1821 42.021 64.3177 42.021C67.4534 42.021 70.4606 40.7754 72.6779 38.5581C74.8951 36.3409 76.1408 33.3337 76.1408 30.198ZM60.3697 30.198C60.3697 29.1509 60.7857 28.1467 61.5261 27.4063C62.2665 26.666 63.2707 26.25 64.3177 26.25C65.3648 26.25 66.369 26.666 67.1094 27.4063C67.8498 28.1467 68.2658 29.1509 68.2658 30.198C68.2658 31.2451 67.8498 32.2493 67.1094 32.9897C66.369 33.73 65.3648 34.146 64.3177 34.146C63.2707 34.146 62.2665 33.73 61.5261 32.9897C60.7857 32.2493 60.3697 31.2451 60.3697 30.198Z" fill="#666666"/>
<path d="M85.8138 50.5299L53.5478 82.7839C51.6646 84.6652 50.3285 87.0231 49.6827 89.6053L47.1843 99.6078C46.0909 103.964 50.038 107.905 54.3897 106.817L64.3943 104.314C66.9763 103.67 69.3347 102.336 71.217 100.455L103.477 68.1901C105.761 65.8345 107.026 62.6757 107 59.3957C106.974 56.1156 105.658 52.9774 103.338 50.6583C101.018 48.3392 97.8787 47.0254 94.5979 47.0004C91.3172 46.9753 88.1582 48.2411 85.8028 50.5245L85.8138 50.5299Z" fill="#5E86E4"/>
</svg>
