<svg width="925" height="615" viewBox="0 0 925 615" fill="none" xmlns="http://www.w3.org/2000/svg">
<path d="M775.784 203.301L757.288 184.775C756.934 184.091 756.476 183.465 755.932 182.92L655.628 82.4525L655.629 82.4522L611.643 38.3944C607.978 34.7233 601.711 37.3233 601.711 42.5151V94.6988L602.131 94.6033L601.711 208.024C601.711 209.541 602.328 210.879 603.269 211.689C604.078 212.631 605.413 213.249 606.928 213.249L719.666 212.83L719.571 213.249H771.669C776.853 213.249 779.449 206.972 775.784 203.301ZM702.737 182.897H634.489C633.832 182.897 633.203 182.636 632.738 182.171C632.274 181.706 632.013 181.076 632.013 180.418V112.058C632.013 109.849 634.679 108.743 636.239 110.305L704.487 178.665C706.046 180.227 704.942 182.897 702.737 182.897Z" fill="#BDB8FA"/>
<path d="M678.469 129.481C678.291 129.302 678.149 129.09 678.052 128.856C677.955 128.622 677.906 128.371 677.906 128.118C677.906 127.865 677.955 127.614 678.052 127.38C678.149 127.146 678.291 126.934 678.469 126.755L689.164 116.043L691.886 118.769L681.191 129.481C680.83 129.843 680.341 130.046 679.83 130.046C679.32 130.046 678.83 129.843 678.469 129.481V129.481ZM694.117 134.269L700.739 127.636L698.017 124.91L691.395 131.543C691.216 131.722 691.074 131.934 690.977 132.168C690.881 132.402 690.831 132.653 690.831 132.906C690.831 133.159 690.881 133.41 690.977 133.644C691.074 133.878 691.216 134.09 691.395 134.269C691.573 134.448 691.785 134.59 692.019 134.687C692.253 134.784 692.503 134.834 692.756 134.834C693.008 134.834 693.259 134.784 693.492 134.687C693.726 134.59 693.938 134.448 694.117 134.269ZM698.897 147.216L709.592 136.504L706.87 133.777L696.175 144.489C695.997 144.668 695.855 144.881 695.758 145.115C695.661 145.349 695.612 145.599 695.612 145.852C695.612 146.106 695.661 146.356 695.758 146.59C695.855 146.824 695.997 147.037 696.175 147.216C696.354 147.395 696.566 147.537 696.8 147.634C697.033 147.731 697.284 147.781 697.536 147.781C697.789 147.781 698.039 147.731 698.273 147.634C698.506 147.537 698.719 147.395 698.897 147.216V147.216ZM711.823 152.004L718.445 145.371L715.723 142.645L709.101 149.278C708.922 149.457 708.78 149.669 708.684 149.903C708.587 150.137 708.537 150.388 708.537 150.641C708.537 150.894 708.587 151.145 708.684 151.379C708.78 151.613 708.922 151.825 709.101 152.004C709.28 152.183 709.492 152.325 709.725 152.422C709.959 152.519 710.209 152.569 710.462 152.569C710.715 152.569 710.965 152.519 711.198 152.422C711.432 152.325 711.644 152.183 711.823 152.004V152.004ZM716.603 164.951L727.298 154.239L724.576 151.513L713.881 162.224C713.703 162.403 713.561 162.616 713.464 162.85C713.367 163.084 713.318 163.334 713.318 163.588C713.318 163.841 713.367 164.092 713.464 164.325C713.561 164.559 713.703 164.772 713.881 164.951C714.06 165.13 714.272 165.272 714.506 165.369C714.739 165.466 714.99 165.516 715.242 165.516C715.495 165.516 715.745 165.466 715.979 165.369C716.212 165.272 716.425 165.13 716.603 164.951V164.951ZM729.529 169.74L736.151 163.107L733.429 160.38L726.807 167.013C726.446 167.375 726.243 167.865 726.243 168.376C726.243 168.888 726.446 169.378 726.807 169.74C727.168 170.101 727.657 170.304 728.168 170.304C728.678 170.304 729.168 170.101 729.529 169.74V169.74ZM734.31 182.686L745.004 171.974L742.282 169.248L731.588 179.959C731.409 180.138 731.267 180.351 731.17 180.585C731.074 180.819 731.024 181.069 731.024 181.323C731.024 181.576 731.074 181.826 731.17 182.06C731.267 182.294 731.409 182.507 731.588 182.686C731.766 182.865 731.978 183.007 732.212 183.104C732.446 183.201 732.696 183.25 732.949 183.25C733.201 183.25 733.452 183.201 733.685 183.104C733.919 183.007 734.131 182.865 734.31 182.686V182.686ZM747.235 187.474L753.857 180.841L751.135 178.115L744.513 184.748C744.334 184.927 744.192 185.139 744.095 185.373C743.999 185.607 743.949 185.858 743.949 186.111C743.949 186.364 743.999 186.615 744.095 186.849C744.192 187.083 744.334 187.295 744.513 187.474C744.691 187.653 744.904 187.795 745.137 187.892C745.371 187.989 745.621 188.039 745.874 188.039C746.126 188.039 746.377 187.989 746.61 187.892C746.844 187.795 747.056 187.653 747.235 187.474V187.474ZM628.073 76.2761L638.768 65.5644L636.046 62.8378L625.351 73.5492C624.999 73.9125 624.803 74.4002 624.806 74.907C624.81 75.4137 625.012 75.8987 625.37 76.2571C625.728 76.6154 626.212 76.8184 626.718 76.8219C627.224 76.8255 627.711 76.6294 628.073 76.2761V76.2761ZM640.999 81.0644L647.621 74.4315L644.898 71.7049L638.276 78.3378C638.098 78.5169 637.956 78.7294 637.859 78.9633C637.762 79.1972 637.713 79.4479 637.713 79.7011C637.713 79.9543 637.762 80.205 637.859 80.4389C637.956 80.6728 638.098 80.8853 638.276 81.0644C638.455 81.2434 638.667 81.3854 638.901 81.4823C639.134 81.5792 639.385 81.6291 639.637 81.6291C639.89 81.6291 640.141 81.5792 640.374 81.4823C640.608 81.3854 640.82 81.2434 640.999 81.0644V81.0644ZM645.779 94.011L656.474 83.2993L653.751 80.5727L643.057 91.2845C642.696 91.646 642.493 92.1364 642.493 92.6477C642.493 93.1591 642.696 93.6494 643.057 94.011C643.418 94.3726 643.908 94.5757 644.418 94.5757C644.929 94.5757 645.418 94.3726 645.779 94.011ZM658.705 98.7993L665.327 92.1664L662.605 89.4398L655.983 96.0727C655.622 96.4343 655.419 96.9247 655.419 97.436C655.419 97.9473 655.622 98.4377 655.983 98.7993C656.344 99.1608 656.833 99.3639 657.344 99.3639C657.854 99.3639 658.344 99.1608 658.705 98.7993V98.7993ZM663.485 111.746L674.179 101.034L671.457 98.3076L660.763 109.019C660.402 109.381 660.199 109.871 660.199 110.383C660.199 110.894 660.402 111.384 660.763 111.746C661.124 112.107 661.614 112.311 662.124 112.311C662.635 112.311 663.124 112.107 663.485 111.746V111.746ZM676.411 116.534L683.033 109.902L680.311 107.175L673.689 113.808C673.51 113.987 673.368 114.2 673.271 114.433C673.175 114.667 673.125 114.918 673.125 115.171C673.125 115.424 673.175 115.675 673.271 115.909C673.368 116.143 673.51 116.355 673.689 116.534C673.867 116.714 674.08 116.856 674.313 116.952C674.547 117.049 674.797 117.099 675.05 117.099C675.302 117.099 675.553 117.049 675.786 116.952C676.02 116.856 676.232 116.714 676.411 116.534V116.534Z" fill="white"/>
<rect x="573.001" y="9.09854" width="232.232" height="232.619" stroke="white" stroke-width="4" stroke-dasharray="8 8"/>
<rect x="563.915" width="14.1739" height="14.1971" fill="white"/>
<rect x="800.146" width="14.1739" height="14.1971" fill="white"/>
<rect x="800.146" y="236.619" width="14.1739" height="14.1971" fill="white"/>
<rect x="563.915" y="236.619" width="14.1739" height="14.1971" fill="white"/>
<path d="M363.02 459.531H444.29V594.643H363.02V459.531Z" fill="#DDDDDD"/>
<path d="M210.054 565.882H597.255C608.826 565.882 618.205 575.228 618.205 586.757V594.125C618.205 605.654 608.826 615 597.255 615H210.054C198.483 615 189.104 605.654 189.104 594.125V586.757C189.104 575.228 198.484 565.882 210.054 565.882Z" fill="#EBEBEB"/>
<path d="M167.697 163.532H639.612C647.592 163.532 654.061 169.977 654.061 177.928V512.691C654.061 520.642 647.592 527.087 639.612 527.087H167.697C159.717 527.087 153.249 520.642 153.249 512.691V177.928C153.249 169.977 159.717 163.532 167.697 163.532Z" fill="white"/>
<path d="M209.777 209.31H597.532C605.512 209.31 611.98 215.755 611.98 223.706V466.913C611.98 474.864 605.512 481.309 597.532 481.309H209.777C201.797 481.309 195.329 474.864 195.329 466.913V223.706C195.329 215.755 201.797 209.31 209.777 209.31Z" fill="#9CC4FF"/>
<path d="M576.913 516.514C583.74 516.514 589.274 511 589.274 504.198C589.274 497.396 583.74 491.882 576.913 491.882C570.087 491.882 564.553 497.396 564.553 504.198C564.553 511 570.087 516.514 576.913 516.514Z" fill="#D7F4F7"/>
<path d="M513.036 513.277H541.317C543.734 513.277 546.052 512.32 547.761 510.617C549.47 508.914 550.43 506.605 550.43 504.197C550.43 501.789 549.47 499.479 547.761 497.776C546.052 496.073 543.734 495.117 541.317 495.117H513.036C510.619 495.117 508.302 496.073 506.593 497.776C504.884 499.479 503.924 501.789 503.924 504.197C503.925 509.212 508.004 513.277 513.036 513.277Z" fill="#8F9799"/>
<rect x="216.03" y="232.217" width="373.244" height="106.974" fill="white"/>
<rect x="260.177" y="251.213" width="68.2274" height="67.9836" fill="#9894E9"/>
<rect x="368.538" y="251.213" width="68.2274" height="67.9836" fill="#9894E9"/>
<rect x="476.899" y="251.213" width="68.2274" height="67.9836" fill="#9894E9"/>
<rect x="237.1" y="372.184" width="331.104" height="24.994" fill="white"/>
<rect x="214.023" y="417.173" width="80.2675" height="24.994" fill="white"/>
<rect x="314.357" y="417.173" width="80.2675" height="24.994" fill="white"/>
<rect x="414.692" y="417.173" width="80.2675" height="24.994" fill="white"/>
<rect x="515.026" y="417.173" width="80.2675" height="24.994" fill="white"/>
<path fill-rule="evenodd" clip-rule="evenodd" d="M66.1072 163.532V615H126.205V163.532H66.1072Z" fill="#9CC4FF"/>
<rect x="96.156" y="190.62" width="30.0487" height="8.0261" fill="white"/>
<rect x="96.156" y="265.865" width="30.0487" height="8.0261" fill="white"/>
<rect x="96.156" y="341.109" width="30.0487" height="8.0261" fill="white"/>
<rect x="96.156" y="416.354" width="30.0487" height="8.0261" fill="white"/>
<rect x="96.156" y="491.599" width="30.0487" height="8.0261" fill="white"/>
<rect x="96.156" y="566.843" width="30.0487" height="8.0261" fill="white"/>
<rect x="108.176" y="215.701" width="18.0292" height="8.0261" fill="white"/>
<rect x="108.176" y="290.946" width="18.0292" height="8.0261" fill="white"/>
<rect x="108.176" y="366.191" width="18.0292" height="8.0261" fill="white"/>
<rect x="108.176" y="441.436" width="18.0292" height="8.0261" fill="white"/>
<rect x="108.176" y="516.68" width="18.0292" height="8.0261" fill="white"/>
<rect x="108.176" y="591.925" width="18.0292" height="8.0261" fill="white"/>
<rect x="108.176" y="240.783" width="18.0292" height="8.0261" fill="white"/>
<rect x="108.176" y="316.028" width="18.0292" height="8.0261" fill="white"/>
<rect x="108.176" y="391.272" width="18.0292" height="8.0261" fill="white"/>
<rect x="108.176" y="466.517" width="18.0292" height="8.0261" fill="white"/>
<rect x="108.176" y="541.762" width="18.0292" height="8.0261" fill="white"/>
<path d="M50.6217 540.087L43.2664 554.919V565.439C43.2651 566.609 42.7978 567.731 41.9671 568.559C41.1363 569.386 40.01 569.852 38.8352 569.853H12.2478C11.073 569.852 9.94664 569.386 9.11591 568.559C8.28518 567.731 7.81789 566.609 7.81657 565.439V554.919L0.461004 540.087C0.0993235 539.362 -0.0543092 538.551 0.0170375 537.744C0.0883843 536.937 0.381941 536.166 0.865355 535.515L23.7571 504.536C23.7665 504.524 23.7776 504.513 23.787 504.5C23.8202 504.458 23.8549 504.416 23.8909 504.376C23.9097 504.355 23.9282 504.334 23.9479 504.314C23.9889 504.272 24.0321 504.231 24.0764 504.192C24.0919 504.179 24.1063 504.164 24.1221 504.151C24.1834 504.1 24.2473 504.052 24.3138 504.008C24.3254 504 24.3379 503.994 24.3498 503.986C24.4057 503.951 24.463 503.917 24.5223 503.887C24.5422 503.876 24.5625 503.867 24.5827 503.857C24.6575 503.822 24.7343 503.79 24.8126 503.762C24.8674 503.743 24.9233 503.727 24.9801 503.712C25.0034 503.706 25.0264 503.7 25.0499 503.694C25.1089 503.681 25.169 503.671 25.2294 503.662C25.251 503.659 25.272 503.655 25.2939 503.652C25.4584 503.633 25.6246 503.633 25.7891 503.652C25.8107 503.655 25.8317 503.659 25.8533 503.662C25.9143 503.671 25.9741 503.681 26.0334 503.694C26.0566 503.7 26.0793 503.706 26.1026 503.712C26.1594 503.727 26.2156 503.743 26.2704 503.763C26.293 503.77 26.3154 503.779 26.3377 503.787C26.3931 503.809 26.4474 503.832 26.5006 503.858C26.5205 503.867 26.5407 503.876 26.5604 503.886C26.6205 503.918 26.6787 503.951 26.7354 503.988C26.7465 503.995 26.7576 504.001 26.7687 504.008C26.8355 504.052 26.8998 504.1 26.9614 504.151C26.9758 504.163 26.9891 504.177 27.003 504.189C27.0492 504.23 27.0938 504.271 27.1362 504.315C27.1547 504.334 27.1722 504.354 27.1902 504.374C27.2276 504.416 27.2636 504.459 27.2979 504.503C27.3068 504.515 27.317 504.525 27.3256 504.536L50.2174 535.515C50.7008 536.166 50.9945 536.937 51.0658 537.744C51.1371 538.551 50.9835 539.362 50.6217 540.087ZM38.8352 565.439V556.61H12.2478V565.439H38.8352ZM25.5415 534.538C24.8842 534.538 24.2416 534.732 23.6951 535.096C23.1486 535.46 22.7226 535.977 22.4711 536.582C22.2195 537.187 22.1537 537.853 22.2819 538.495C22.4102 539.137 22.7267 539.727 23.1915 540.19C23.6563 540.653 24.2484 540.968 24.8931 541.096C25.5378 541.224 26.206 541.158 26.8133 540.908C27.4206 540.657 27.9396 540.233 28.3048 539.688C28.67 539.144 28.8649 538.504 28.8649 537.849C28.864 536.971 28.5135 536.13 27.8905 535.509C27.2674 534.888 26.4226 534.539 25.5415 534.538ZM27.7571 512.566V530.447C29.5421 530.977 31.076 532.13 32.0781 533.694C33.0803 535.258 33.4838 537.129 33.2149 538.965C32.946 540.802 32.0226 542.48 30.6136 543.694C29.2046 544.907 27.4042 545.575 25.5415 545.575C23.6788 545.575 21.8784 544.907 20.4694 543.694C19.0604 542.48 18.137 540.802 17.8681 538.965C17.5992 537.129 18.0027 535.258 19.0048 533.694C20.007 532.13 21.5408 530.977 23.3259 530.447V512.566L4.43333 538.132L11.4086 552.196H39.6738L46.6488 538.132L27.7571 512.566Z" fill="white"/>
<rect x="14.0227" y="569.853" width="24.039" height="45.1468" fill="#C4C4C4"/>
<path d="M478.118 87.3309L445.033 98.3522L448.153 100.426L450.44 101.891C452.672 103.38 452.967 106.673 450.991 108.461L449.038 110.305L432.995 124.792L437.451 129.58L453.478 115.132L455.392 113.273C455.847 112.832 456.397 112.502 456.997 112.308C457.598 112.114 458.234 112.062 458.857 112.155C459.479 112.248 460.071 112.484 460.588 112.845C461.104 113.205 461.53 113.681 461.833 114.236L463.178 116.591L465.03 119.922L478.118 87.3309ZM484.6 79.4674C485.379 79.7814 486.001 80.395 486.329 81.1734C486.657 81.9517 486.663 82.8309 486.347 83.6177L468.4 128.309C467.742 129.948 465.894 130.745 464.27 130.091C463.536 129.795 463.011 129.312 462.665 128.719L457.71 119.694L440.844 135.599C439.918 136.451 438.623 136.654 437.502 136.203C437.077 136.031 436.651 135.86 436.351 135.376L427.686 126.081C426.499 124.786 426.524 122.711 427.878 121.578L444.798 105.649L436.185 100.138C435.613 99.7125 435.177 99.1271 434.93 98.4537C434.388 96.7841 435.279 95.0119 437.087 94.4252L482.4 79.352L482.423 79.4066C483.134 79.1659 483.906 79.1874 484.6 79.4674ZM466.153 77.9756L469.288 70.1693L449.956 62.3804L446.821 70.1867L466.153 77.9756ZM478.89 59.3457L472.384 43.8913L464.722 47.1982L471.228 62.6526L478.89 59.3457ZM501.159 46.7329L493.427 43.6174L485.589 63.1331L493.322 66.2487L501.159 46.7329ZM501.65 113.409L495.144 97.9543L487.482 101.261L493.988 116.716L501.65 113.409ZM519.393 69.2251L516.152 61.5252L500.774 68.1626L504.016 75.8625L519.393 69.2251ZM497.084 90.4377L516.416 98.2266L519.551 90.4203L500.219 82.6314L497.084 90.4377Z" fill="white"/>
<rect x="648.552" y="463.507" width="128.208" height="128.418" rx="27" fill="#001E36"/>
<path d="M667.783 488.388H690.22C702.978 488.388 712.217 496.254 712.217 511.111C712.217 525.968 703.858 533.834 688.9 533.834H680.101V566.17H667.783V488.388ZM680.101 524.22H688.02C696.379 524.22 700.338 519.851 700.338 511.111C700.338 503.245 695.939 498.439 688.9 498.439H680.101V524.22V524.22Z" fill="#30A8FE"/>
<path d="M729.373 548.691C729.373 553.498 732.013 558.305 738.172 558.305C743.451 558.305 746.091 555.246 746.091 550.876C746.091 546.069 743.891 543.447 736.412 540.825C722.774 536.019 719.255 531.212 719.255 522.472C719.255 514.607 724.094 505.867 737.732 505.867C752.69 505.867 756.209 515.918 756.209 523.783H744.771C744.771 521.598 744.331 515.044 737.292 515.044C732.893 515.044 730.693 517.666 730.693 521.598C730.693 525.531 732.893 527.716 740.372 530.338C752.69 534.708 757.529 539.515 757.529 549.128C757.529 560.489 750.49 567.044 737.292 567.044C723.654 567.044 717.495 559.178 717.495 548.254H729.373V548.691Z" fill="#30A8FE"/>
<rect x="796.792" y="463.507" width="128.208" height="128.418" rx="27" fill="#330000"/>
<path d="M836.504 546.464L830.789 567.044H816.023L838.886 492.075H858.414L881.753 567.044H866.035L860.319 546.464H836.504V546.464ZM857.462 536.542C853.175 520.74 849.841 509.715 848.412 503.1H847.936C846.507 509.715 843.173 521.842 839.362 536.542H857.462Z" fill="#FF9A00"/>
<path d="M893.634 510.074H905.39V567.044H893.634V510.074ZM893.634 488.388H905.769V500.885H894.013V488.388H893.634Z" fill="#FF9A00"/>
</svg>
