<svg width="925" height="615" viewBox="0 0 925 615" fill="none" xmlns="http://www.w3.org/2000/svg">
<path d="M428.158 142.01C425.399 149.636 418.355 153.73 412.327 151.081C406.373 148.432 403.758 140.083 406.518 132.457C409.277 124.83 416.321 120.736 422.349 123.385C428.303 126.034 430.918 134.383 428.158 142.01Z" fill="#003787"/>
<path d="M439.922 140.725C439.922 147.87 435.42 153.65 429.828 153.65C424.237 153.65 419.734 147.87 419.734 140.725C419.734 133.58 424.237 127.801 429.828 127.801C435.42 127.801 439.922 133.58 439.922 140.725Z" fill="#003787"/>
<path d="M417.701 263.308C417.992 267.402 418.282 275.991 418.718 278.801L423.801 279.042L424.309 264.11" fill="#F7BCCD"/>
<path d="M423.946 276.393L428.086 281.53L426.343 281.852L421.55 280.969L418.718 277.356L423.946 276.393Z" fill="#F7BCCD"/>
<path d="M431.862 286.106C431.789 282.414 427.868 280.969 427.868 280.969C427.723 282.414 424.455 280.969 423.729 280.647C421.623 279.764 419.444 277.838 418.645 277.115C418.645 277.115 418.282 278.48 418.282 279.684C418.282 280.888 418.355 281.209 418.355 281.37L419.154 286.829H420.533C420.533 286.829 420.461 283.377 421.332 283.457C422.058 283.457 424.818 286.588 425.326 286.668C426.343 286.829 430.264 286.748 431.717 286.748L431.862 286.106Z" fill="#003787"/>
<path d="M403.831 263.308C404.122 267.402 404.412 275.991 404.848 278.801L409.931 279.042L410.439 264.11" fill="#F7BCCD"/>
<path d="M410.003 276.393L414.142 281.53L412.399 281.852L407.679 280.969L404.847 277.356L410.003 276.393Z" fill="#F7BCCD"/>
<path d="M417.919 286.106C417.846 282.414 413.924 280.969 413.924 280.969C413.779 282.414 410.511 280.969 409.785 280.647C407.679 279.764 405.501 277.838 404.702 277.115C404.702 277.115 404.339 278.48 404.339 279.684C404.339 280.888 404.412 281.209 404.412 281.37L405.21 286.829H406.59C406.59 286.829 406.517 283.377 407.389 283.457C408.115 283.457 410.875 286.588 411.383 286.668C412.4 286.829 416.321 286.748 417.773 286.748L417.919 286.106Z" fill="#003787"/>
<path d="M428.884 187.767C428.884 187.767 401.144 184.476 399.256 188.731C399.256 188.731 402.088 252.31 403.323 265.716H411.528L413.562 198.524C414.143 197.882 414.941 198.524 414.941 198.524C415.014 208.238 416.83 265.716 416.83 265.716H424.818L428.884 187.767Z" fill="#0061EF"/>
<path d="M446.312 177.572C449.508 175.967 450.815 171.792 449.29 168.26L444.134 156.379L432.66 162.239L437.816 174.12C439.341 177.572 443.117 179.178 446.312 177.572Z" fill="#F7BCCD"/>
<path d="M437.235 147.709C435.71 144.097 431.862 142.571 428.594 144.257C425.326 145.943 423.946 150.198 425.471 153.81L431.789 168.421L443.481 162.32L437.235 147.709Z" fill="#892424"/>
<path d="M430.699 143.695C430.699 143.695 437.816 154.854 436.291 162.4L428.666 192.182L399.546 191.54L398.167 150.278L402.233 140.163L430.699 143.695Z" fill="#892424"/>
<path d="M425.906 144.097C425.108 146.585 422.203 147.629 420.097 146.826C417.991 146.023 415.885 144.097 416.684 141.608L419.734 134.785C420.533 132.296 422.857 131.012 424.962 131.814C427.068 132.617 428.158 135.347 427.359 137.755L425.906 144.097Z" fill="#F7BCCD"/>
<path d="M427.141 138.959L420.896 134.223C420.896 134.223 420.533 140.243 426.342 142.491L427.141 138.959Z" fill="#003787"/>
<path d="M432.442 122.904C430.336 122.181 426.996 122.342 424.745 121.619C424.309 121.459 420.751 125.071 420.388 124.83C420.024 125.473 419.807 126.195 419.589 126.998C418.136 132.296 420.605 137.835 425.035 139.36C429.537 140.805 434.33 137.755 435.71 132.376C436.146 130.851 436.218 129.326 436.073 127.881C434.766 128.523 433.967 123.385 432.442 122.904Z" fill="#F7BCCD"/>
<path d="M426.488 122.021C427.214 123.385 427.432 126.195 427.432 126.195C431.063 127.801 435.202 129.727 436.291 130.048C438.325 123.144 433.967 119.291 430.772 118.488C423.873 116.803 420.823 121.378 420.17 125.151C420.533 125.312 424.527 126.596 426.488 122.021Z" fill="#003787"/>
<path d="M427.65 129.567C427.577 129.888 427.214 130.048 426.923 129.968C426.633 129.888 426.415 129.486 426.56 129.165C426.633 128.844 426.996 128.603 427.287 128.764C427.577 128.924 427.722 129.246 427.65 129.567Z" fill="#003787"/>
<path d="M432.297 131.092C432.225 131.413 431.862 131.574 431.571 131.493C431.281 131.413 431.135 131.012 431.208 130.691C431.281 130.369 431.644 130.129 431.934 130.289C432.225 130.45 432.442 130.771 432.297 131.092Z" fill="#003787"/>
<path d="M429.973 131.092L429.538 132.778L428.739 132.537" stroke="#003787" stroke-miterlimit="10" stroke-linecap="round" stroke-linejoin="round"/>
<path d="M422.13 128.844C421.695 130.45 420.17 131.333 418.717 130.851C417.265 130.369 416.466 128.684 416.902 127.078C417.338 125.473 418.863 124.589 420.315 125.071C421.767 125.633 422.566 127.319 422.13 128.844Z" fill="#F7BCCD"/>
<path d="M418.354 127.801C418.427 127.56 418.572 127.319 418.79 127.158C419.444 126.596 420.315 126.757 420.824 127.479" stroke="#003787" stroke-miterlimit="10" stroke-linecap="round" stroke-linejoin="round"/>
<path d="M432.733 150.439C432.733 150.439 438.252 156.218 434.548 168.099" stroke="white" stroke-miterlimit="10" stroke-linecap="round" stroke-linejoin="round"/>
<path d="M424.454 132.537C424.164 133.58 423.22 134.142 422.276 133.821C421.332 133.5 420.823 132.457 421.114 131.413C421.404 130.369 422.348 129.807 423.292 130.129C424.164 130.45 424.672 131.493 424.454 132.537Z" fill="#FFA1B7"/>
<path d="M433.895 135.748C433.605 136.792 432.661 137.353 431.717 137.032C430.773 136.711 430.264 135.668 430.555 134.624C430.845 133.58 431.789 133.019 432.733 133.34C433.677 133.58 434.186 134.704 433.895 135.748Z" fill="#FFA1B7"/>
<path d="M444.279 178.054C444.279 178.054 451.977 177.813 450.234 168.501C450.234 168.501 446.385 157.021 440.576 144.016L436.437 145.783L439.123 176.127C439.123 176.127 441.592 178.535 444.279 178.054Z" fill="#F7BCCD"/>
<path d="M438.978 172.113L437.961 164.728" stroke="#003787" stroke-miterlimit="10" stroke-linecap="round" stroke-linejoin="round"/>
<path d="M428.521 143.294L411.165 141.287C411.165 141.287 416.611 146.906 421.84 153.329C421.84 153.409 427.504 148.753 428.521 143.294Z" fill="#F7BCCD"/>
<path d="M428.521 135.587C428.521 135.587 427.65 134.785 426.633 134.785" stroke="#003787" stroke-miterlimit="10" stroke-linecap="round" stroke-linejoin="round"/>
<path d="M436.581 138.477C437.09 138.558 437.453 138.959 437.38 139.521C437.308 140.083 436.944 140.484 436.436 140.404L434.185 140.163C433.677 140.083 433.314 139.682 433.386 139.12C433.459 138.558 433.822 138.156 434.33 138.237L436.581 138.477Z" fill="#F7BCCD"/>
<path d="M436.945 140.243C437.453 140.324 437.816 140.725 437.744 141.287C437.671 141.849 437.308 142.25 436.799 142.17L434.548 141.929C434.04 141.849 433.677 141.448 433.749 140.886C433.822 140.324 434.185 139.922 434.694 140.003L436.945 140.243Z" fill="#F7BCCD"/>
<path d="M437.235 142.09C437.744 142.17 438.107 142.571 438.034 143.133C438.034 143.695 437.598 144.097 437.09 144.016L434.839 143.776C434.33 143.695 433.967 143.294 434.04 142.732C434.113 142.17 434.476 141.769 434.984 141.849L437.235 142.09Z" fill="#F7BCCD"/>
<path d="M440.431 143.535C440.939 144.819 440.431 146.344 439.269 146.826C438.107 147.388 436.727 146.746 436.291 145.542L434.912 142.01C434.403 140.725 434.912 139.2 436.073 138.718C437.235 138.156 438.615 138.798 439.051 140.083L440.431 143.535Z" fill="#F7BCCD"/>
<path d="M430.482 145.461C430.482 145.461 428.013 152.927 421.259 156.941C421.259 156.941 414.433 148.432 410.076 144.177" stroke="white" stroke-miterlimit="10" stroke-linecap="round" stroke-linejoin="round"/>
<path d="M378.196 170.187C380.375 172.916 384.078 173.157 386.547 170.749L394.753 162.721L386.91 152.927L378.704 160.955C376.308 163.363 376.09 167.538 378.196 170.187Z" fill="#F7BCCD"/>
<path d="M378.487 161.517C378.487 161.517 371.152 167.136 377.252 174.12C377.252 174.12 387.637 184.396 398.239 191.46L402.161 186.965L383.715 160.634C383.788 160.553 380.738 159.349 378.487 161.517Z" fill="#F7BCCD"/>
<path d="M401.653 186.804C401.144 186.724 400.636 187.125 400.563 187.687C400.491 188.249 400.854 188.811 401.362 188.891L405.356 189.614C405.865 189.694 406.373 189.293 406.446 188.731C406.518 188.169 406.155 187.607 405.647 187.526L401.653 186.804Z" fill="#F7BCCD"/>
<path d="M404.267 191.299C404.194 191.861 404.485 192.423 404.993 192.504C405.501 192.584 406.01 192.263 406.082 191.701L406.373 188.971C406.445 188.409 406.155 187.848 405.647 187.767C405.138 187.687 404.63 188.008 404.557 188.57L404.267 191.299Z" fill="#F7BCCD"/>
<path d="M404.775 189.533C404.412 189.052 403.758 188.971 403.322 189.293C402.887 189.694 402.814 190.416 403.104 190.898L404.847 193.627C405.21 194.109 405.864 194.189 406.3 193.868C406.735 193.467 406.808 192.744 406.518 192.263L404.775 189.533Z" fill="#F7BCCD"/>
<path d="M402.959 190.336C402.596 189.854 401.943 189.774 401.507 190.095C401.071 190.497 400.999 191.219 401.289 191.701L403.032 194.43C403.395 194.912 404.049 194.992 404.484 194.671C404.92 194.27 404.993 193.547 404.702 193.066L402.959 190.336Z" fill="#F7BCCD"/>
<path d="M401.217 191.139C400.853 190.657 400.2 190.577 399.764 190.898C399.328 191.299 399.256 192.022 399.546 192.504L401.289 195.233C401.652 195.715 402.306 195.795 402.742 195.474C403.177 195.072 403.25 194.35 402.959 193.868L401.217 191.139Z" fill="#F7BCCD"/>
<path d="M400.127 184.075C399.038 182.71 396.496 181.506 395.262 182.71L397.658 187.205C396.424 188.409 394.681 187.205 395.77 188.49L398.82 192.102C399.909 193.467 401.797 193.547 402.959 192.263C403.613 191.621 404.266 188.971 403.104 187.687L400.127 184.075Z" fill="#F7BCCD"/>
<path d="M386.257 163.283L390.397 169.223" stroke="#003787" stroke-miterlimit="10" stroke-linecap="round" stroke-linejoin="round"/>
<path d="M405.356 152.686C408.115 150.037 408.333 145.461 405.937 142.411C403.54 139.36 399.328 139.12 396.642 141.769L385.894 152.205L394.608 163.122L405.356 152.686Z" fill="#892424"/>
<path d="M403.25 155.416L394.608 163.203" stroke="white" stroke-miterlimit="10" stroke-linecap="round" stroke-linejoin="round"/>
<path d="M417.918 305.613H375.509V428.919H417.918V305.613Z" fill="#6994E2"/>
<path d="M417.846 428.919H457.641V305.774L438.179 286.668L417.846 305.774V428.919Z" fill="#A9D0FF"/>
<path d="M375.509 305.613H417.846L438.179 286.668H395.77L375.509 305.613Z" fill="#466CD3"/>
<path d="M443.335 310.671H435.056V323.997H443.335V310.671Z" fill="#466CD3"/>
<path d="M408.043 315.568H400.563V324.238H408.043V315.568Z" fill="#466CD3"/>
<path d="M408.043 330.58H400.563V339.249H408.043V330.58Z" fill="#466CD3"/>
<path d="M394.318 315.568H386.838V324.238H394.318V315.568Z" fill="#466CD3"/>
<path d="M394.318 330.58H386.838V339.249H394.318V330.58Z" fill="#466CD3"/>
<path d="M408.043 347.036H400.563V355.706H408.043V347.036Z" fill="#466CD3"/>
<path d="M394.318 347.036H386.838V355.706H394.318V347.036Z" fill="#466CD3"/>
<path d="M378.414 228.146H324.241V428.919H378.414V228.146Z" fill="#A9D0FF"/>
<path d="M326.419 228.146H296.864V428.919H326.419V228.146Z" fill="#466CD3"/>
<path d="M371.08 246.048H333.972V249.179H371.08V246.048Z" fill="white"/>
<path d="M371.08 255.441H333.972V258.571H371.08V255.441Z" fill="white"/>
<path d="M371.08 264.833H333.972V267.964H371.08V264.833Z" fill="white"/>
<path d="M371.08 274.145H333.972V277.276H371.08V274.145Z" fill="white"/>
<path d="M371.08 283.537H333.972V286.668H371.08V283.537Z" fill="white"/>
<path d="M371.08 292.93H333.972V296.061H371.08V292.93Z" fill="white"/>
<path d="M371.08 302.322H333.972V305.453H371.08V302.322Z" fill="white"/>
<path d="M371.08 311.715H333.972V314.845H371.08V311.715Z" fill="white"/>
<path d="M371.08 321.027H333.972V324.157H371.08V321.027Z" fill="white"/>
<path d="M371.08 330.419H333.972V333.55H371.08V330.419Z" fill="white"/>
<path d="M371.08 339.811H333.972V342.942H371.08V339.811Z" fill="white"/>
<path d="M371.08 350.007H333.972V353.137H371.08V350.007Z" fill="white"/>
<path d="M371.08 359.399H333.972V362.53H371.08V359.399Z" fill="white"/>
<path d="M243.126 162.079H205.946V428.918H243.126V162.079Z" fill="#0061EF"/>
<path d="M302.6 162.4H242.763V428.919H302.6V162.4Z" fill="#2789FF"/>
<path d="M292.362 186.884H287.496V192.744H292.362V186.884Z" fill="#0061EF"/>
<path d="M280.888 186.884H276.022V192.744H280.888V186.884Z" fill="#0061EF"/>
<path d="M269.341 186.884H264.476V192.744H269.341V186.884Z" fill="#0061EF"/>
<path d="M257.868 186.884H253.002V192.744H257.868V186.884Z" fill="#0061EF"/>
<path d="M292.362 196.839H287.496V290.2H292.362V196.839Z" fill="#0061EF"/>
<path d="M280.888 196.839H276.022V290.2H280.888V196.839Z" fill="#0061EF"/>
<path d="M269.341 196.839H264.476V290.2H269.341V196.839Z" fill="#0061EF"/>
<path d="M257.868 196.839H253.002V290.2H257.868V196.839Z" fill="#0061EF"/>
<path d="M292.362 297.104H287.496V302.964H292.362V297.104Z" fill="#0061EF"/>
<path d="M280.888 297.104H276.022V302.964H280.888V297.104Z" fill="#0061EF"/>
<path d="M269.341 297.104H264.476V302.964H269.341V297.104Z" fill="#0061EF"/>
<path d="M257.868 297.104H253.002V302.964H257.868V297.104Z" fill="#0061EF"/>
<path d="M292.362 307.058H287.496V400.42H292.362V307.058Z" fill="#0061EF"/>
<path d="M280.888 307.058H276.022V400.42H280.888V307.058Z" fill="#0061EF"/>
<path d="M269.341 307.058H264.476V400.42H269.341V307.058Z" fill="#0061EF"/>
<path d="M257.868 307.058H253.002V400.42H257.868V307.058Z" fill="#0061EF"/>
<path d="M181.473 284.581V243.158H172.033V218.513H148.504V243.158H139.064V284.581H123.378V428.919H197.231V284.581H181.473Z" fill="#003787"/>
<path d="M197.958 284.581V243.158H188.663V218.513H167.24V243.158H157.945V284.581H144.438V428.919H211.465V284.581H197.958Z" fill="#0048D8"/>
<path d="M179.004 196.116H173.63V229.752H179.004V196.116Z" fill="#0048D8"/>
<path d="M166.441 299.272H160.85V305.373H166.441V299.272Z" fill="#003787"/>
<path d="M176.027 299.272H170.435V305.373H176.027V299.272Z" fill="#003787"/>
<path d="M185.539 299.272H179.948V305.373H185.539V299.272Z" fill="#003787"/>
<path d="M195.053 299.272H189.461V305.373H195.053V299.272Z" fill="#003787"/>
<path d="M166.441 312.357H160.85V318.458H166.441V312.357Z" fill="#003787"/>
<path d="M176.027 312.357H170.435V318.458H176.027V312.357Z" fill="#003787"/>
<path d="M185.539 312.357H179.948V318.458H185.539V312.357Z" fill="#003787"/>
<path d="M195.053 312.357H189.461V318.458H195.053V312.357Z" fill="#003787"/>
<path d="M166.441 325.522H160.85V331.623H166.441V325.522Z" fill="#003787"/>
<path d="M176.027 325.522H170.435V331.623H176.027V325.522Z" fill="#003787"/>
<path d="M185.539 325.522H179.948V331.623H185.539V325.522Z" fill="#003787"/>
<path d="M195.053 325.522H189.461V331.623H195.053V325.522Z" fill="#003787"/>
<path d="M166.441 338.607H160.85V344.708H166.441V338.607Z" fill="#003787"/>
<path d="M176.027 338.607H170.435V344.708H176.027V338.607Z" fill="#003787"/>
<path d="M185.539 338.607H179.948V344.708H185.539V338.607Z" fill="#003787"/>
<path d="M195.053 338.607H189.461V344.708H195.053V338.607Z" fill="#003787"/>
<path d="M166.441 351.692H160.85V357.793H166.441V351.692Z" fill="#003787"/>
<path d="M176.027 351.692H170.435V357.793H176.027V351.692Z" fill="#003787"/>
<path d="M185.539 351.692H179.948V357.793H185.539V351.692Z" fill="#003787"/>
<path d="M195.053 351.692H189.461V357.793H195.053V351.692Z" fill="#003787"/>
<path d="M166.441 364.858H160.85V370.959H166.441V364.858Z" fill="#003787"/>
<path d="M176.027 364.858H170.435V370.959H176.027V364.858Z" fill="#003787"/>
<path d="M185.539 364.858H179.948V370.959H185.539V364.858Z" fill="#003787"/>
<path d="M195.053 364.858H189.461V370.959H195.053V364.858Z" fill="#003787"/>
<path d="M166.441 377.943H160.85V384.044H166.441V377.943Z" fill="#003787"/>
<path d="M176.027 377.943H170.435V384.044H176.027V377.943Z" fill="#003787"/>
<path d="M185.539 377.943H179.948V384.044H185.539V377.943Z" fill="#003787"/>
<path d="M195.053 377.943H189.461V384.044H195.053V377.943Z" fill="#003787"/>
<path d="M166.441 391.028H160.85V397.129H166.441V391.028Z" fill="#003787"/>
<path d="M176.027 391.028H170.435V397.129H176.027V391.028Z" fill="#003787"/>
<path d="M185.539 391.028H179.948V397.129H185.539V391.028Z" fill="#003787"/>
<path d="M195.053 391.028H189.461V397.129H195.053V391.028Z" fill="#003787"/>
<path d="M171.161 252.631H165.57V258.732H171.161V252.631Z" fill="#003787"/>
<path d="M180.747 252.631H175.156V258.732H180.747V252.631Z" fill="#003787"/>
<path d="M190.332 252.631H184.741V258.732H190.332V252.631Z" fill="#003787"/>
<path d="M171.161 264.11H165.57V270.211H171.161V264.11Z" fill="#003787"/>
<path d="M180.747 264.11H175.156V270.211H180.747V264.11Z" fill="#003787"/>
<path d="M190.332 264.11H184.741V270.211H190.332V264.11Z" fill="#003787"/>
<path d="M171.161 275.51H165.57V281.611H171.161V275.51Z" fill="#003787"/>
<path d="M180.747 275.51H175.156V281.611H180.747V275.51Z" fill="#003787"/>
<path d="M190.332 275.51H184.741V281.611H190.332V275.51Z" fill="#003787"/>
<path d="M262.66 154.693C262.806 150.198 266.291 146.666 270.358 146.906L286.407 147.709L304.779 148.833C308.846 148.994 312.041 152.847 311.823 157.342C311.678 161.838 308.192 165.37 304.125 165.129L285.753 164.005L269.704 163.203C265.638 163.042 262.443 159.269 262.66 154.693Z" fill="#0048D8"/>
<path d="M285.462 140.324H262.66V155.335H285.462V140.324Z" fill="#0048D8"/>
<path d="M311.459 214.58C311.459 214.58 311.822 212.011 311.822 211.931C312.113 209.843 311.314 207.997 310.007 207.756L304.561 206.873L304.706 205.91L298.243 204.465L297.299 212.171L311.459 214.58Z" fill="#003787"/>
<path d="M300.567 149.877C300.567 149.877 311.024 144.9 311.823 159.911C311.823 159.911 308.845 184.075 306.086 207.515L295.701 206.632L294.176 155.657C294.249 155.576 296.718 150.599 300.567 149.877Z" fill="#0048D8"/>
<path d="M284.155 154.693C284.3 150.198 287.786 146.666 291.853 146.906L307.901 147.709L326.274 148.833C330.34 148.994 333.536 152.847 333.318 157.342C333.172 161.838 329.687 165.37 325.62 165.129L307.248 164.005L291.199 163.203C287.132 163.042 283.937 159.269 284.155 154.693Z" fill="#0048D8"/>
<path d="M298.316 140.324H284.3V155.978H298.316V140.324Z" fill="#0048D8"/>
<path d="M332.228 215.382C332.228 215.382 332.592 212.814 332.592 212.733C332.882 210.646 332.083 208.8 330.776 208.559L325.33 207.676L325.475 206.713L319.012 205.268L318.068 213.054L332.228 215.382Z" fill="#003787"/>
<path d="M322.062 149.877C322.062 149.877 332.519 144.9 333.318 159.911C333.318 159.911 330.34 184.075 327.581 207.515L317.196 206.632L315.671 155.657C315.671 155.576 318.213 150.599 322.062 149.877Z" fill="#0048D8"/>
<path d="M298.098 85.4947C302.092 84.692 305.868 87.5819 306.594 91.9971L309.426 109.257L312.476 129.005C313.203 133.42 310.588 137.594 306.594 138.397C302.6 139.2 298.824 136.31 298.098 131.895L295.048 112.147L292.216 94.8871C291.49 90.4719 294.177 86.2975 298.098 85.4947Z" fill="#A9D0FF"/>
<path d="M298.316 85.1736C298.316 85.1736 298.752 94.7265 298.171 102.112L298.97 145.783L262.225 145.702L261.063 85.2539L298.316 85.1736Z" fill="#A9D0FF"/>
<path d="M285.462 56.1134C282.993 55.6318 281.178 55.6318 278.781 55.8726C277.474 56.0332 275.949 56.6754 275.586 57.7993C270.793 60.2076 273.335 69.5196 273.335 69.5196L280.234 69.5999V69.6802H281.613H282.993V69.5999L289.892 69.5196C289.892 69.5196 289.747 69.6802 289.892 69.4394C290.691 68.3958 290.981 66.71 291.126 65.4255C291.344 63.4186 291.054 61.4117 290.182 59.6456C289.166 57.5584 287.496 56.5148 285.462 56.1134Z" fill="#892424"/>
<path d="M286.116 85.575C286.116 88.2241 283.72 90.3113 281.468 90.3113C279.217 90.3113 276.821 88.1438 276.821 85.575L277.402 79.0726C277.402 76.4234 279.217 74.3362 281.468 74.3362C283.72 74.3362 285.535 76.5037 285.535 79.0726L286.116 85.575Z" fill="#F7BCCD"/>
<path d="M285.462 78.9923L278.418 76.8248C278.418 76.8248 279.871 81.9625 285.68 81.8823L285.462 78.9923Z" fill="#003787"/>
<path d="M284.954 61.8131C282.703 61.8131 279.58 63.0172 277.256 63.0172C276.748 63.0172 274.352 67.6733 273.843 67.5127C273.698 68.2352 273.625 69.038 273.625 69.8408C273.625 75.4601 277.402 79.9556 282.122 79.9556C286.842 79.9556 290.618 75.4601 290.618 69.8408C290.618 68.2352 290.328 66.7902 289.747 65.4255C286.842 61.0103 286.552 61.8131 284.954 61.8131Z" fill="#F7BCCD"/>
<path d="M277.983 62.9369C279.29 65.265 283.865 67.3522 290.473 67.8338C290.183 59.7259 285.027 57.719 281.686 58.0401C274.57 58.602 272.827 63.9805 273.19 67.8338C273.698 67.9944 275.659 66.3888 277.983 62.9369Z" fill="#892424"/>
<path d="M280.742 69.1183C280.742 69.4394 280.452 69.7605 280.162 69.7605C279.871 69.7605 279.581 69.4394 279.581 69.1183C279.581 68.7972 279.871 68.476 280.162 68.476C280.452 68.476 280.742 68.7169 280.742 69.1183Z" fill="#003787"/>
<path d="M283.138 75.0588C283.138 75.5404 282.848 75.9418 282.558 75.9418C282.267 75.9418 281.977 75.5404 281.977 75.0588C281.977 74.5771 282.267 74.1757 282.558 74.1757C282.848 74.1757 283.138 74.5771 283.138 75.0588Z" fill="#003787"/>
<path d="M286.261 69.1183C286.261 69.4394 285.971 69.7605 285.68 69.7605C285.39 69.7605 285.099 69.4394 285.099 69.1183C285.099 68.7972 285.39 68.476 285.68 68.476C286.043 68.476 286.261 68.7169 286.261 69.1183Z" fill="#003787"/>
<path d="M283.284 69.8408V72.3293H282.122" stroke="#003787" stroke-miterlimit="10" stroke-linecap="round" stroke-linejoin="round"/>
<path d="M276.603 70.8843C276.603 72.5701 275.368 73.9349 273.844 73.9349C272.319 73.9349 271.084 72.5701 271.084 70.8843C271.084 69.1985 272.319 67.8338 273.844 67.8338C275.368 67.8338 276.603 69.1985 276.603 70.8843Z" fill="#F7BCCD"/>
<path d="M272.682 71.0449C272.682 70.8041 272.827 70.483 272.973 70.2422C273.408 69.5197 274.352 69.3591 275.006 69.9211" stroke="#003787" stroke-miterlimit="10" stroke-linecap="round" stroke-linejoin="round"/>
<path d="M261.135 85.3342C257.141 84.5314 253.292 87.5017 252.494 91.9169L249.589 109.417L246.539 129.486C245.813 133.902 248.5 138.156 252.494 139.039C256.488 139.842 260.336 136.872 261.135 132.457L264.185 112.387L267.09 94.8871C267.816 90.3916 265.202 86.1369 261.135 85.3342Z" fill="#A9D0FF"/>
<path d="M279.363 73.694C279.363 74.7376 278.564 75.6207 277.62 75.6207C276.676 75.6207 275.877 74.7376 275.877 73.694C275.877 72.6504 276.676 71.7674 277.62 71.7674C278.564 71.6871 279.363 72.5702 279.363 73.694Z" fill="#FFA1B7"/>
<path d="M289.021 73.694C289.021 74.7376 288.222 75.6207 287.278 75.6207C286.334 75.6207 285.535 74.7376 285.535 73.694C285.535 72.6504 286.334 71.7674 287.278 71.7674C288.222 71.6871 289.021 72.5702 289.021 73.694Z" fill="#FFA1B7"/>
<path d="M275.441 87.5819L278.854 94.2449L281.614 91.5155" stroke="#003787" stroke-miterlimit="10" stroke-linecap="round" stroke-linejoin="round"/>
<path d="M287.786 87.5819L284.373 94.2449L281.614 91.5155" stroke="#003787" stroke-miterlimit="10" stroke-linecap="round" stroke-linejoin="round"/>
<path d="M258.812 98.2587L260.409 123.626" stroke="#003787" stroke-miterlimit="10" stroke-linecap="round" stroke-linejoin="round"/>
<path d="M339.418 145.943C339.418 147.468 338.329 148.753 336.876 148.753H282.631C281.251 148.753 280.089 147.549 280.089 145.943C280.089 144.418 281.178 143.133 282.631 143.133H336.876C338.256 143.214 339.418 144.418 339.418 145.943Z" fill="#003787"/>
<path d="M295.484 111.825H337.458C338.547 111.825 339.346 112.789 339.346 113.913V142.25V146.666C339.346 147.87 338.474 148.753 337.458 148.753H295.484C294.395 148.753 293.596 147.789 293.596 146.666V142.25V113.993C293.523 112.789 294.395 111.825 295.484 111.825Z" fill="#003787"/>
<path d="M302.673 146.344C302.673 146.505 302.818 146.666 302.963 146.666C303.109 146.666 303.254 146.505 303.254 146.344V144.498C303.254 144.338 303.109 144.177 302.963 144.177C302.818 144.177 302.673 144.338 302.673 144.498V146.344Z" fill="#F2F4FF"/>
<path d="M304.125 146.344C304.125 146.505 304.27 146.666 304.415 146.666C304.561 146.666 304.706 146.505 304.706 146.344V144.498C304.706 144.338 304.561 144.177 304.415 144.177C304.27 144.177 304.125 144.338 304.125 144.498V146.344Z" fill="#F2F4FF"/>
<path d="M301.293 146.344C301.293 146.505 301.438 146.666 301.583 146.666C301.729 146.666 301.874 146.505 301.874 146.344V144.498C301.874 144.338 301.729 144.177 301.583 144.177C301.438 144.177 301.293 144.338 301.293 144.498V146.344Z" fill="#F2F4FF"/>
<path d="M299.841 146.344C299.841 146.505 299.986 146.666 300.131 146.666C300.277 146.666 300.422 146.505 300.422 146.344V144.498C300.422 144.338 300.277 144.177 300.131 144.177C299.986 144.177 299.841 144.338 299.841 144.498V146.344Z" fill="#F2F4FF"/>
<path d="M298.388 146.344C298.388 146.505 298.533 146.666 298.679 146.666C298.824 146.666 298.969 146.505 298.969 146.344V144.498C298.969 144.338 298.824 144.177 298.679 144.177C298.533 144.177 298.388 144.338 298.388 144.498V146.344Z" fill="#F2F4FF"/>
<path d="M296.936 146.344C296.936 146.505 297.081 146.666 297.226 146.666C297.372 146.666 297.517 146.505 297.517 146.344V144.498C297.517 144.338 297.372 144.177 297.226 144.177C297.081 144.177 296.936 144.338 296.936 144.498V146.344Z" fill="#F2F4FF"/>
<path d="M295.483 146.344C295.483 146.505 295.629 146.666 295.774 146.666C295.919 146.666 296.064 146.505 296.064 146.344V144.498C296.064 144.338 295.919 144.177 295.774 144.177C295.629 144.177 295.483 144.338 295.483 144.498V146.344Z" fill="#F2F4FF"/>
<path d="M337.603 142.331H294.685" stroke="white" stroke-miterlimit="10" stroke-linecap="round" stroke-linejoin="round"/>
<path d="M288.295 127.479C287.787 127.158 287.133 127.399 286.915 127.961C286.625 128.523 286.843 129.246 287.351 129.486L291.272 131.734C291.781 132.055 292.434 131.814 292.652 131.252C292.943 130.691 292.725 129.968 292.216 129.727L288.295 127.479Z" fill="#F7BCCD"/>
<path d="M286.915 129.085C286.407 128.764 285.753 129.005 285.535 129.567C285.245 130.129 285.463 130.851 285.971 131.092L289.892 133.34C290.401 133.661 291.054 133.42 291.272 132.858C291.563 132.296 291.345 131.574 290.837 131.333L286.915 129.085Z" fill="#F7BCCD"/>
<path d="M285.608 130.691C285.1 130.369 284.446 130.61 284.228 131.172C283.938 131.734 284.156 132.457 284.664 132.697L288.585 134.945C289.094 135.266 289.747 135.025 289.965 134.464C290.256 133.902 290.038 133.179 289.529 132.938L285.608 130.691Z" fill="#F7BCCD"/>
<path d="M281.396 126.917C279.726 126.998 278.491 128.603 278.564 130.45C278.637 132.296 280.089 133.661 281.687 133.58L286.189 133.259C287.859 133.179 289.094 131.574 289.021 129.807C288.948 127.961 287.496 126.596 285.826 126.677L281.396 126.917Z" fill="#F7BCCD"/>
<path d="M247.846 128.362C247.846 128.362 243.998 137.755 253.656 139.28C253.656 139.28 270.503 138.397 282.848 136.149V126.516L251.913 122.823C251.84 122.743 248.5 124.83 247.846 128.362Z" fill="#A9D0FF"/>
<path d="M258.884 123.706L282.703 126.275V135.908" stroke="#003787" stroke-miterlimit="10" stroke-linecap="round" stroke-linejoin="round"/>
<path d="M282.558 135.989L259.538 138.798" stroke="#003787" stroke-miterlimit="10" stroke-linecap="round" stroke-linejoin="round"/>
<path d="M299.913 97.3757L298.751 129.486" stroke="#003787" stroke-miterlimit="10" stroke-linecap="round" stroke-linejoin="round"/>
<path d="M283.865 147.549L286.479 147.709L304.851 148.833C308.918 148.994 312.113 152.847 311.895 157.342C311.895 157.663 311.315 164.648 310.951 167.618" stroke="#003787" stroke-miterlimit="10" stroke-linecap="round" stroke-linejoin="round"/>
<path d="M270.358 146.906C270.358 146.906 267.744 150.84 263.822 151.803" stroke="#003787" stroke-miterlimit="10" stroke-linecap="round" stroke-linejoin="round"/>
<path d="M659.81 319.903H596.415V437.588H659.81V319.903Z" fill="#003787"/>
<path d="M617.474 104.681C618.708 104.36 619.58 102.995 619.289 101.55C618.999 100.105 617.764 99.222 616.457 99.5431L609.559 100.908C608.251 101.229 607.453 102.594 607.743 104.039C608.034 105.403 609.268 106.367 610.575 106.046L617.474 104.681Z" fill="#F7BCCD"/>
<path d="M617.765 99.784C619.072 99.4629 619.87 98.0982 619.58 96.7335C619.29 95.2885 618.055 94.4054 616.748 94.7265L609.849 96.0912C608.542 96.4123 607.743 97.7771 608.034 99.222C608.324 100.587 609.559 101.55 610.866 101.229L617.765 99.784Z" fill="#F7BCCD"/>
<path d="M618.055 94.8871C619.289 94.566 620.161 93.2013 619.87 91.7563C619.58 90.3916 618.345 89.4283 617.038 89.7494L610.14 91.0338C608.905 91.3549 608.034 92.7196 608.324 94.1646C608.615 95.5293 609.849 96.4926 611.156 96.1715L618.055 94.8871Z" fill="#F7BCCD"/>
<path d="M627.132 107.731C630.618 109.096 634.539 107.089 635.774 103.236L629.093 98.4995C630.327 94.6463 635.193 95.0476 631.707 93.6829L622.121 89.8296C618.636 88.4649 614.714 90.4719 613.48 94.3252C612.826 96.4123 614.061 102.513 617.547 103.878L627.132 107.731Z" fill="#F7BCCD"/>
<path d="M721.971 130.45C721.971 130.45 731.557 107.33 707.956 101.068C707.956 101.068 670.412 94.2449 626.478 88.9466L623.501 109.176L710.643 143.214C710.716 143.294 719.502 139.039 721.971 130.45Z" fill="white"/>
<path d="M635.556 214.499C627.568 206.713 626.697 193.306 633.741 184.396L661.336 149.475L693.36 109.979C700.404 101.149 712.531 100.185 720.592 107.972C728.58 115.759 729.452 129.165 722.408 138.076L690.31 177.572L662.715 212.493C655.744 221.403 643.544 222.286 635.556 214.499Z" fill="white"/>
<path d="M567.077 176.769C556.547 176.85 548.124 186.242 548.124 197.882L548.269 243.56L549.068 295.82C549.068 307.46 557.637 316.772 568.166 316.772C578.696 316.692 587.12 307.299 587.12 295.659L586.321 243.399L586.176 197.722C586.176 186.162 577.607 176.769 567.077 176.769Z" fill="white"/>
<path d="M565.697 177.171C565.697 177.171 569.691 201.896 574.266 220.52L591.186 337.323L685.372 317.655L663.587 157.583L565.697 177.171Z" fill="white"/>
<path d="M612.173 197.16L607.235 190.256L611.955 183.513L614.134 185.118L618.491 187.928L616.167 196.277L639.623 299.272L634.176 314.845L623.937 302.483L612.173 197.16Z" fill="#892424"/>
<path d="M583.634 94.9674C584.142 94.7265 584.723 94.566 585.304 94.4054L602.805 90.793C606.145 90.0705 609.34 91.5957 610.865 94.2449C624.227 97.777 622.702 122.823 622.702 122.823L605.056 126.757V126.837L601.57 127.479L598.085 128.282V128.202L580.293 131.574C580.293 131.574 579.494 132.296 579.276 131.654C570.925 122.342 569.763 98.7404 583.634 94.9674Z" fill="#003787"/>
<path d="M572.378 136.952C573.104 141.207 576.807 144.016 580.729 143.294C584.578 142.491 587.119 138.397 586.393 134.062C585.667 129.807 581.963 126.917 578.042 127.72C574.193 128.523 571.652 132.617 572.378 136.952Z" fill="#FCC0CF"/>
<path d="M581.455 131.574C580.874 131.252 580.221 131.092 579.494 131.172C577.461 131.413 575.936 133.42 576.081 135.668" stroke="#003787" stroke-width="2.5" stroke-miterlimit="10" stroke-linecap="round" stroke-linejoin="round"/>
<path d="M597.939 170.749C599.101 177.492 606.145 181.666 611.882 180.542C617.619 179.338 622.847 172.595 621.758 165.852L617.474 149.556C616.312 142.812 610.72 138.317 604.983 139.521C599.246 140.725 595.47 147.147 596.632 153.89L597.939 170.749Z" fill="#F7BCCD"/>
<path d="M596.632 153.489L613.77 144.257C613.77 144.257 612.245 158.225 597.213 160.955L596.632 153.489Z" fill="#003787"/>
<path d="M590.46 109.176C596.197 107.972 604.766 109.337 610.793 108.133C612.027 107.892 620.306 118.408 621.395 117.846C622.121 119.693 622.63 121.619 622.993 123.626C625.389 137.915 617.619 151.562 605.637 154.051C593.655 156.54 581.891 146.906 579.494 132.617C578.841 128.603 578.913 124.589 579.712 120.897C585.376 107.972 586.538 109.979 590.46 109.176Z" fill="#F7BCCD"/>
<path d="M608.832 110.862C602.878 106.206 589.298 114.475 586.756 115.92C579.93 119.693 579.059 122.984 578.914 127.56C576.154 106.527 587.41 99.0615 596.124 97.9376C614.569 95.6096 621.323 108.534 622.121 118.649C621.032 119.211 616.239 118.488 608.832 110.862Z" fill="#003787"/>
<path d="M604.548 125.553C604.693 126.436 605.492 126.998 606.291 126.837C607.089 126.677 607.598 125.794 607.452 124.911C607.307 124.028 606.508 123.385 605.71 123.626C604.911 123.787 604.402 124.67 604.548 125.553Z" fill="#003787"/>
<path d="M590.242 128.443C590.387 129.326 591.186 129.888 591.984 129.727C592.783 129.567 593.364 128.684 593.146 127.801C593.001 126.917 592.202 126.275 591.404 126.516C590.677 126.757 590.096 127.56 590.242 128.443Z" fill="#003787"/>
<path d="M598.303 128.764L599.392 135.266L602.442 134.624" stroke="#003787" stroke-width="2.5" stroke-miterlimit="10" stroke-linecap="round" stroke-linejoin="round"/>
<path d="M615.876 127.961C616.602 132.216 620.306 135.106 624.227 134.303C628.076 133.5 630.69 129.406 629.964 125.071C629.238 120.816 625.534 117.926 621.613 118.729C617.692 119.532 615.15 123.626 615.876 127.961Z" fill="#F7BCCD"/>
<path d="M626.043 126.275C625.898 125.553 625.534 124.911 625.026 124.349C623.501 122.743 621.177 122.823 619.725 124.509" stroke="#003787" stroke-width="2.5" stroke-miterlimit="10" stroke-linecap="round" stroke-linejoin="round"/>
<path d="M654.596 211.615L586.673 218.292L595.132 323.444L663.054 316.768L654.596 211.615Z" fill="#6994E2"/>
<path d="M610.067 136.551C610.502 139.28 612.971 141.126 615.44 140.645C617.909 140.163 619.58 137.514 619.144 134.704C618.708 131.975 616.312 130.129 613.77 130.61C611.301 131.092 609.631 133.741 610.067 136.551Z" fill="#FFA1B7"/>
<path d="M585.304 141.608C585.74 144.338 588.209 146.184 590.678 145.702C593.147 145.221 594.817 142.571 594.381 139.762C593.945 137.032 591.476 135.186 589.007 135.668C586.466 136.23 584.868 138.879 585.304 141.608Z" fill="#FFA1B7"/>
<path d="M626.116 170.187L620.234 189.052L611.955 183.513" stroke="#003787" stroke-width="2.5" stroke-miterlimit="10" stroke-linecap="round" stroke-linejoin="round"/>
<path d="M594.381 176.769L606.073 192.022L611.955 183.513" stroke="#003787" stroke-width="2.5" stroke-miterlimit="10" stroke-linecap="round" stroke-linejoin="round"/>
<path d="M639.187 282.413C638.098 283.537 638.025 285.464 639.042 286.668C640.059 287.872 641.801 287.953 642.891 286.829L651.314 278.079C652.404 276.955 652.476 275.028 651.46 273.824C650.443 272.62 648.7 272.539 647.611 273.663L639.187 282.413Z" fill="#F7BCCD"/>
<path d="M649.572 280.487C648.047 280.487 646.885 281.852 646.812 283.457C646.812 285.143 648.047 286.427 649.499 286.508L661.045 286.588C662.57 286.588 663.732 285.223 663.805 283.618C663.805 281.932 662.57 280.647 661.118 280.567L649.572 280.487Z" fill="#F7BCCD"/>
<path d="M648.192 285.946C646.667 285.946 645.505 287.23 645.432 288.916C645.432 290.602 646.667 291.886 648.119 291.966L659.665 292.047C661.19 292.047 662.352 290.682 662.425 289.076C662.425 287.391 661.19 286.026 659.738 286.026L648.192 285.946Z" fill="#F7BCCD"/>
<path d="M646.739 291.404C645.214 291.404 644.053 292.769 643.98 294.375C643.98 296.061 645.215 297.425 646.667 297.425L658.213 297.506C659.738 297.506 660.9 296.141 660.973 294.535C660.973 292.849 659.738 291.565 658.286 291.485L646.739 291.404Z" fill="#F7BCCD"/>
<path d="M631.562 283.457C627.35 284.501 624.736 289.157 625.68 293.733C626.624 298.389 630.836 301.279 634.975 300.235L646.449 297.345C650.661 296.301 653.275 291.645 652.331 287.07C651.387 282.413 647.175 279.524 643.036 280.567L631.562 283.457Z" fill="#F7BCCD"/>
<path d="M549.358 295.739C549.358 295.739 545.727 322.07 571.143 323.435C571.143 323.435 610.357 314.845 641.946 305.774L639.913 281.852L558.726 280.166C558.653 280.166 550.375 286.427 549.358 295.739Z" fill="white"/>
<path d="M577.316 281.45L638.461 281.129" stroke="#003787" stroke-width="2.5" stroke-miterlimit="10" stroke-linecap="round" stroke-linejoin="round"/>
<path d="M567.222 210.646L581.673 281.37" stroke="#003787" stroke-width="2.5" stroke-miterlimit="10" stroke-linecap="round" stroke-linejoin="round"/>
<path d="M650.225 320.304L656.47 357.151L694.812 349.685" stroke="white" stroke-width="2.5" stroke-miterlimit="10" stroke-linecap="round" stroke-linejoin="round"/>
<path d="M605.71 142.09C605.71 142.09 603.096 141.207 600.917 143.695" stroke="#003787" stroke-width="2.5" stroke-miterlimit="10" stroke-linecap="round" stroke-linejoin="round"/>
<path d="M690.601 135.427L634.031 114.394" stroke="#003787" stroke-width="2.5" stroke-miterlimit="10" stroke-linecap="round" stroke-linejoin="round"/>
<path d="M821.966 544.758C821.24 555.595 820.369 578.554 819.207 586.1L805.627 586.823L804.248 546.925" fill="#F7BCCD"/>
<path d="M805.41 579.518L794.372 593.245L799.019 594.048L811.727 591.72L819.28 582.087L805.41 579.518Z" fill="#F7BCCD"/>
<path d="M784.277 605.447C784.423 595.573 795.025 591.72 795.025 591.72C795.461 595.573 804.102 591.72 805.99 590.917C811.582 588.589 817.464 583.371 819.642 581.525C819.642 581.525 820.659 585.217 820.732 588.509C820.732 591.8 820.587 592.442 820.514 593.004L818.408 607.615H814.632C814.632 607.615 814.777 598.463 812.526 598.624C810.638 598.704 803.303 606.972 801.851 607.213C799.091 607.615 788.634 607.454 784.786 607.374L784.277 605.447Z" fill="#003C95"/>
<path d="M859.074 544.758C858.348 555.595 857.477 578.554 856.315 586.1L842.735 586.823L841.355 546.925" fill="#F7BCCD"/>
<path d="M842.59 579.518L831.552 593.245L836.127 594.048L848.835 591.72L856.387 582.087L842.59 579.518Z" fill="#F7BCCD"/>
<path d="M821.458 605.447C821.458 605.447 821.385 605.447 821.458 605.447C821.603 595.573 832.206 591.72 832.206 591.72C832.641 595.573 841.283 591.72 843.171 590.917C848.763 588.589 854.645 583.371 856.823 581.525C856.823 581.525 857.84 585.217 857.912 588.509C857.912 591.8 857.767 592.442 857.695 593.004L855.589 607.615H851.812C851.812 607.615 851.958 598.463 849.707 598.624C847.818 598.704 840.484 606.972 839.032 607.213C836.272 607.615 825.815 607.454 821.966 607.374L821.458 605.447Z" fill="#003C95"/>
<path d="M792.193 343.424C792.193 343.424 866.264 334.593 871.129 345.912C871.129 345.912 863.577 515.457 860.309 551.26H838.378L833.004 372.243C831.552 370.477 829.373 372.163 829.373 372.163C829.156 398.012 824.218 551.26 824.218 551.26H803.013L792.193 343.424Z" fill="#7CFCE3"/>
<path d="M800.544 195.955C800.544 204.545 784.641 206.151 776.871 206.151C769.101 206.151 762.783 199.167 762.783 190.577C762.783 181.987 766.995 181.987 778.904 164.407C783.479 157.423 800.544 187.286 800.544 195.955Z" fill="#892424"/>
<path d="M832.206 180.623C832.206 189.774 830.608 200.852 810.348 201.013C802.069 201.093 802.214 189.774 802.214 180.623C802.214 171.471 783.769 144.899 791.975 144.418C818.771 142.812 832.206 171.471 832.206 180.623Z" fill="#892424"/>
<path d="M796.913 317.173L783.915 360.121H876.866L862.125 309.708L796.913 317.173Z" fill="#A9D0FF"/>
<path d="M775.999 223.651C775.999 223.651 759.007 255.2 764.381 275.189C764.381 275.189 770.045 291.083 784.641 309.788L798.221 324.398L862.851 323.997L868.733 232.401L851.595 205.508L775.999 223.651Z" fill="#A9D0FF"/>
<path d="M791.685 219.798C793.064 226.701 800.399 230.796 806.354 229.351C812.236 227.906 817.464 220.841 816.084 213.937L811.219 197.32C809.839 190.416 803.957 186.001 798.075 187.366C792.193 188.811 788.489 195.554 789.869 202.458L791.685 219.798Z" fill="#F7BCCD"/>
<path d="M789.07 202.297L807.298 192.022C807.298 192.022 805.337 206.632 789.942 210.004L789.07 202.297Z" fill="#003787"/>
<path d="M777.96 159.028C783.697 157.102 792.629 157.342 798.657 155.335C799.891 154.934 809.477 164.648 810.566 163.925C811.437 165.691 812.236 167.618 812.817 169.625C816.811 183.994 810.348 198.926 798.293 203.02C786.239 207.114 773.24 198.845 769.246 184.476C768.084 180.382 767.794 176.288 768.229 172.434C771.788 174.12 773.966 160.393 777.96 159.028Z" fill="#F7BCCD"/>
<path d="M790.958 159.59C786.674 159.751 784.278 162.079 782.462 166.253C779.557 172.996 774.474 177.652 768.084 179.338C762.637 156.941 773.312 147.549 782.099 145.301C800.762 140.565 809.258 153.81 811.364 164.567C810.275 165.37 799.455 166.895 790.958 159.59Z" fill="#892424"/>
<path d="M791.54 174.762C791.758 175.645 792.629 176.127 793.428 175.886C794.227 175.645 794.662 174.682 794.445 173.799C794.227 172.916 793.355 172.434 792.556 172.675C791.758 172.916 791.322 173.879 791.54 174.762Z" fill="#003787"/>
<path d="M779.049 179.097C779.267 179.98 780.138 180.462 780.937 180.221C781.736 179.98 782.172 179.017 781.954 178.134C781.736 177.251 780.864 176.769 780.066 177.01C779.194 177.251 778.759 178.214 779.049 179.097Z" fill="#003787"/>
<path d="M786.384 178.616L788.199 185.118L790.378 184.396" stroke="#003787" stroke-width="2.5" stroke-miterlimit="10" stroke-linecap="round" stroke-linejoin="round"/>
<path d="M805.991 174.923C807.152 179.178 811.292 181.586 815.213 180.302C819.062 179.017 821.24 174.441 820.078 170.187C818.844 165.932 814.777 163.524 810.856 164.808C806.935 166.093 804.756 170.668 805.991 174.923Z" fill="#F7BCCD"/>
<path d="M816.158 171.872C815.94 171.15 815.504 170.588 814.923 170.026C813.253 168.581 810.784 168.982 809.549 170.829" stroke="#003787" stroke-width="2.5" stroke-miterlimit="10" stroke-linecap="round" stroke-linejoin="round"/>
<path d="M797.639 185.6C798.438 188.329 801.053 189.935 803.594 189.052C806.063 188.169 807.516 185.279 806.717 182.469C805.918 179.74 803.304 178.134 800.762 179.017C798.22 179.9 796.841 182.79 797.639 185.6Z" fill="#FFA1B7"/>
<path d="M774.475 193.467C775.273 196.196 777.888 197.802 780.429 196.919C782.971 196.036 784.351 193.146 783.552 190.336C782.753 187.607 780.139 186.001 777.597 186.884C775.128 187.767 773.748 190.737 774.475 193.467Z" fill="#FFA1B7"/>
<path d="M821.168 219.236L815.577 238.904L806.862 233.445" stroke="#003787" stroke-width="2.5" stroke-miterlimit="10" stroke-linecap="round" stroke-linejoin="round"/>
<path d="M790.087 227.023L800.98 242.436L806.862 233.445" stroke="#003787" stroke-width="2.5" stroke-miterlimit="10" stroke-linecap="round" stroke-linejoin="round"/>
<path d="M874.688 322.632C875.922 321.91 877.447 322.391 878.101 323.756C878.754 325.121 878.319 326.807 877.084 327.529L867.644 333.148C866.409 333.871 864.884 333.389 864.231 332.025C863.577 330.66 864.013 328.974 865.247 328.252L874.688 322.632Z" fill="#F7BCCD"/>
<path d="M871.565 336.44C872.291 337.724 871.855 339.49 870.621 340.213C869.386 341.016 867.861 340.534 867.208 339.169L864.376 332.667C863.65 331.302 864.085 329.616 865.32 328.894C866.554 328.091 868.079 328.573 868.733 329.937L871.565 336.44Z" fill="#F7BCCD"/>
<path d="M868.878 332.586C869.314 330.981 870.912 330.178 872.291 330.66C873.744 331.222 874.47 332.908 874.034 334.433L871.856 343.022C871.347 344.628 869.822 345.431 868.443 344.949C866.99 344.387 866.264 342.701 866.7 341.176L868.878 332.586Z" fill="#F7BCCD"/>
<path d="M874.034 332.827C874.469 331.222 876.067 330.419 877.447 330.901C878.899 331.463 879.625 333.148 879.189 334.674L877.011 343.263C876.503 344.869 874.978 345.672 873.598 345.19C872.146 344.628 871.419 342.942 871.855 341.417L874.034 332.827Z" fill="#F7BCCD"/>
<path d="M879.19 333.068C879.626 331.463 881.223 330.66 882.603 331.141C884.055 331.703 884.782 333.389 884.346 334.914L882.167 343.504C881.732 345.11 880.134 345.912 878.754 345.431C877.302 344.949 876.576 343.183 877.011 341.658L879.19 333.068Z" fill="#F7BCCD"/>
<path d="M876.213 314.203C877.956 309.788 882.531 307.781 886.525 309.708L884.854 319.662C888.848 321.508 892.334 316.692 890.591 321.027L885.944 332.988C884.273 337.403 879.626 339.41 875.632 337.483C873.526 336.44 869.822 330.499 871.565 326.084L876.213 314.203Z" fill="#F7BCCD"/>
<path d="M910.851 245.647C910.851 245.647 932.274 240.429 922.398 263.87C922.398 263.87 910.561 295.82 887.614 332.185L870.476 321.99L895.456 247.333C895.384 247.333 903.517 242.516 910.851 245.647Z" fill="#A9D0FF"/>
<path d="M838.451 215.623C842.445 206.713 852.176 203.1 860.164 207.515L916.225 238.502C923.995 242.757 927.191 253.113 923.342 261.702C919.493 270.292 910.125 273.824 902.355 269.569L845.785 239.706C837.725 235.291 834.457 224.534 838.451 215.623Z" fill="#A9D0FF"/>
<path d="M856.751 246.369L869.822 253.113" stroke="#003787" stroke-width="2.5" stroke-miterlimit="10" stroke-linecap="round" stroke-linejoin="round"/>
<path d="M793.065 190.416C793.065 190.416 790.451 189.533 788.272 192.022" stroke="#003787" stroke-width="2.5" stroke-miterlimit="10" stroke-linecap="round" stroke-linejoin="round"/>
<path d="M774.983 207.435C773.821 207.917 773.167 209.442 773.603 210.726C774.039 212.011 775.419 212.733 776.58 212.252L782.172 209.843C783.334 209.362 783.988 207.917 783.552 206.552C783.116 205.268 781.809 204.545 780.574 205.027L774.983 207.435Z" fill="#F7BCCD"/>
<path d="M775.273 212.252C774.111 212.733 773.457 214.178 773.893 215.543C774.329 216.827 775.636 217.55 776.871 217.068L782.462 214.66C783.624 214.178 784.278 212.733 783.842 211.369C783.406 210.084 782.026 209.362 780.865 209.843L775.273 212.252Z" fill="#F7BCCD"/>
<path d="M775.637 217.068C774.475 217.55 773.821 218.995 774.257 220.36C774.693 221.724 776.072 222.367 777.234 221.885L782.826 219.477C783.988 218.995 784.641 217.55 784.206 216.185C783.77 214.901 782.463 214.178 781.228 214.66L775.637 217.068Z" fill="#F7BCCD"/>
<path d="M768.52 223.25C768.084 226.862 770.408 230.234 773.748 230.715C777.016 231.197 780.066 228.628 780.502 224.935L781.664 214.981C782.099 211.288 779.776 207.997 776.435 207.515C773.095 207.034 770.117 209.603 769.682 213.295L768.52 223.25Z" fill="#F7BCCD"/>
<path d="M764.38 320.144C764.38 320.144 780.574 325.121 786.021 301.359C786.021 301.359 785.149 255.922 783.624 224.454L761.911 223.089C757.627 244.282 753.778 272.379 750.147 293.652C748.55 303.607 751.672 315.969 764.38 320.144Z" fill="#A9D0FF"/>
<path d="M783.987 228.789L784.713 296.703C784.713 296.703 784.713 306.336 782.39 311.714" stroke="#003787" stroke-width="2.5" stroke-miterlimit="10" stroke-linecap="round" stroke-linejoin="round"/>
<path d="M801.271 321.027L860.6 315.889" stroke="#003787" stroke-width="2.5" stroke-miterlimit="10" stroke-linecap="round" stroke-linejoin="round"/>
<path d="M686.244 485.514H677.529L687.551 410.937H696.265L686.244 485.514Z" fill="#003C95"/>
<path d="M769.827 485.514H761.041L771.062 410.937H779.849L769.827 485.514Z" fill="#003787"/>
<path d="M702.075 494.103H694.159V605.527H702.075V494.103Z" fill="#003787"/>
<path d="M655.961 487.119H648.046V605.527H655.961V487.119Z" fill="#003787"/>
<path d="M774.184 494.103H766.269V605.527H774.184V494.103Z" fill="#003787"/>
<path d="M640.639 486.798C640.639 492.498 644.851 497.154 650.007 497.154H771.788C776.944 497.154 781.156 492.498 781.156 486.798C781.156 481.098 776.944 476.442 771.788 476.442H650.007C644.851 476.523 640.639 481.098 640.639 486.798Z" fill="#003787"/>
<path d="M784.569 418.643H678.764L693.215 347.518H799.02L784.569 418.643Z" fill="#003787"/>
<path d="M734.897 453.323C734.389 441.281 725.239 431.969 714.346 432.531L671.501 434.618L622.557 437.669C611.664 438.231 603.24 448.345 603.748 460.387C604.257 472.428 613.407 481.741 624.299 481.179L673.244 478.128L716.089 476.041C726.909 475.559 735.333 465.364 734.897 453.323Z" fill="#0061EF"/>
<path d="M734.752 414.87H673.971V454.928H734.752V414.87Z" fill="#0061EF"/>
<path d="M606.653 615C606.653 614.92 605.709 608.096 605.709 608.016C604.91 602.477 607.089 597.5 610.574 596.938L625.098 594.529L624.735 591.88L642.018 588.027L644.487 608.658L606.653 615Z" fill="#003C95"/>
<path d="M633.667 440.398C633.667 440.398 605.782 427.072 603.604 467.13C603.604 467.13 611.519 531.512 618.999 593.968L646.666 591.559L650.66 455.651C650.66 455.651 644.052 442.325 633.667 440.398Z" fill="#0061EF"/>
<path d="M677.601 451.075C677.093 439.033 667.943 429.721 657.05 430.283L614.205 432.37L565.261 435.421C554.368 435.983 545.944 446.098 546.453 458.139C546.961 470.181 556.111 479.493 567.003 478.931L615.948 475.8L658.793 473.713C669.613 473.312 678.037 463.116 677.601 451.075Z" fill="#0061EF"/>
<path d="M677.166 414.87H639.767V456.534H677.166V414.87Z" fill="#0061EF"/>
<path d="M549.357 612.752C549.357 612.672 548.413 605.848 548.413 605.768C547.614 600.229 549.793 595.252 553.278 594.69L567.802 592.282L567.439 589.632L584.722 585.779L587.191 606.41L549.357 612.752Z" fill="#003C95"/>
<path d="M576.444 438.231C576.444 438.231 548.558 424.905 546.38 464.963C546.38 464.963 554.295 529.345 561.775 591.8L589.443 589.392L593.437 453.483C593.437 453.403 586.756 440.077 576.444 438.231Z" fill="#0061EF"/>
<path d="M678.4 434.297L671.501 434.618L622.557 437.669C611.664 438.231 603.24 448.345 603.748 460.387C603.821 461.35 605.273 479.814 606.217 487.681" stroke="#003787" stroke-width="2.5" stroke-miterlimit="10" stroke-linecap="round" stroke-linejoin="round"/>
<path d="M650.733 266.198C640.493 264.11 630.69 271.656 628.802 282.975L621.395 327.529L613.625 378.585C611.736 389.904 617.183 395.604 627.422 397.691C637.661 399.778 648.844 397.45 650.733 386.131L658.575 334.995L665.982 290.441C667.798 279.122 660.972 268.205 650.733 266.198Z" fill="#0061EF"/>
<path d="M655.235 267C655.235 267 643.762 291.645 645.141 310.671L643.108 423.62L738.165 423.46L741.143 267.081L655.235 267Z" fill="white"/>
<path d="M682.54 295.579L679.562 287.872L685.299 282.253L687.187 284.26L690.963 287.872L686.606 295.579L692.488 400.661L684.573 414.79L676.658 400.661L682.54 295.579Z" fill="#003787"/>
<path d="M649.354 214.419C655.526 212.894 654.219 199.809 666.855 195.875C667.363 195.634 667.944 195.474 668.525 195.394L684.646 192.744C687.986 192.182 691.109 193.788 692.489 196.517C705.633 200.531 703.309 225.256 703.309 225.256L685.663 228.468V228.548L682.177 229.029L678.691 229.672V229.591L664.313 231.759C664.313 231.759 662.861 232.562 662.643 231.919C652.04 225.578 649.354 214.419 649.354 214.419Z" fill="#003787"/>
<path d="M750.873 266.198L741.433 464.722L702.728 463.116L708.101 266.198H750.873Z" fill="#0061EF"/>
<path d="M664.458 266.198L643.544 266.117C643.544 266.117 639.114 294.856 640.494 316.451L643.108 429.802L660.827 430.685" fill="#0061EF"/>
<path d="M676.44 266.92C676.44 273.744 682.613 279.283 688.422 279.283C694.231 279.283 700.404 273.744 700.404 266.92L698.952 250.142C698.952 243.319 694.231 237.86 688.422 237.86C682.613 237.86 677.892 243.399 677.892 250.142L676.44 266.92Z" fill="#F7BCCD"/>
<path d="M677.747 252.872L695.974 247.333C695.974 247.333 692.198 260.659 677.093 260.337L677.747 252.872Z" fill="#003787"/>
<path d="M671.864 210.405C677.601 209.442 686.025 211.128 692.052 210.164C693.287 209.924 701.13 220.761 702.219 220.199C702.872 222.045 703.308 223.972 703.599 225.979C705.559 240.268 697.426 253.434 685.444 255.441C673.462 257.447 662.133 247.493 660.245 233.204C659.664 229.19 659.955 225.176 660.899 221.564C666.854 209.041 667.87 211.128 671.864 210.405Z" fill="#F7BCCD"/>
<path d="M689.076 210.486C686.243 215.623 679.127 219.557 676.73 221.162C670.703 225.176 663.296 227.665 659.883 228.146C657.777 207.194 669.178 200.21 677.892 199.488C696.265 197.882 702.51 210.967 703.018 221.002C701.856 221.564 696.192 218.353 689.076 210.486Z" fill="#003787"/>
<path d="M683.919 227.183C684.065 228.066 684.791 228.708 685.59 228.548C686.388 228.387 686.969 227.585 686.824 226.701C686.679 225.818 685.953 225.176 685.154 225.337C684.355 225.417 683.774 226.3 683.919 227.183Z" fill="#003787"/>
<path d="M669.686 229.511C669.831 230.394 670.557 231.036 671.356 230.876C672.155 230.715 672.736 229.913 672.591 229.03C672.445 228.146 671.719 227.504 670.92 227.665C670.122 227.825 669.541 228.628 669.686 229.511Z" fill="#003787"/>
<path d="M676.948 230.153L677.819 236.656L680.869 236.094" stroke="#003787" stroke-width="2.5" stroke-miterlimit="10" stroke-linecap="round" stroke-linejoin="round"/>
<path d="M696.483 229.993C697.064 234.247 700.694 237.218 704.543 236.576C708.392 235.933 711.079 231.919 710.498 227.665C709.917 223.41 706.286 220.44 702.437 221.082C698.516 221.724 695.902 225.738 696.483 229.993Z" fill="#F7BCCD"/>
<path d="M706.504 228.789C706.358 228.066 705.995 227.424 705.559 226.862C704.107 225.256 701.783 225.256 700.331 226.782" stroke="#003787" stroke-width="2.5" stroke-miterlimit="10" stroke-linecap="round" stroke-linejoin="round"/>
<path d="M690.455 238.261C690.818 240.991 693.142 242.917 695.684 242.516C698.153 242.115 699.896 239.546 699.532 236.816C699.169 234.087 696.846 232.16 694.377 232.562C691.762 232.963 690.092 235.532 690.455 238.261Z" fill="#FFA1B7"/>
<path d="M664.385 242.436C664.748 245.165 667.072 247.092 669.613 246.69C672.082 246.289 673.825 243.72 673.462 240.991C673.099 238.261 670.775 236.335 668.306 236.736C665.692 237.057 664.022 239.626 664.385 242.436Z" fill="#FFA1B7"/>
<path d="M703.962 272.138L693.069 290.843L685.953 282.253" stroke="#003787" stroke-width="2.5" stroke-miterlimit="10" stroke-linecap="round" stroke-linejoin="round"/>
<path d="M672.01 272.138L678.11 288.595L685.952 282.253" stroke="#003787" stroke-width="2.5" stroke-miterlimit="10" stroke-linecap="round" stroke-linejoin="round"/>
<path d="M749.058 299.753L746.662 359.8" stroke="#003C47" stroke-width="2.5" stroke-miterlimit="10" stroke-linecap="round" stroke-linejoin="round"/>
<path d="M655.09 366.383C655.09 366.383 662.933 391.269 638.46 397.691C638.46 397.691 598.811 397.209 566.568 394.721L564.607 370.959L643.398 353.057C643.398 353.057 652.548 357.472 655.09 366.383Z" fill="#0061EF"/>
<path d="M625.535 358.034L565.842 369.995" stroke="#003787" stroke-width="2.5" stroke-miterlimit="10" stroke-linecap="round" stroke-linejoin="round"/>
<path d="M639.913 299.753L642.091 403.712" stroke="#003787" stroke-width="2.5" stroke-miterlimit="10" stroke-linecap="round" stroke-linejoin="round"/>
<path d="M703.962 414.469L702.728 463.999L741.433 464.481" stroke="#003787" stroke-width="2.5" stroke-miterlimit="10" stroke-linecap="round" stroke-linejoin="round"/>
<path d="M682.539 243.479C682.539 244.764 681.886 245.727 681.087 245.727C680.288 245.727 679.635 244.683 679.635 243.479C679.635 242.195 680.288 241.232 681.087 241.232C681.886 241.232 682.539 242.275 682.539 243.479Z" fill="#003787"/>
<path d="M751.527 265.957C741.288 263.87 731.484 271.416 729.596 282.735L722.189 327.288L714.346 378.424C712.458 389.743 719.284 400.581 729.523 402.668C739.763 404.755 749.566 397.209 751.454 385.89L759.297 334.754L766.704 290.2C768.592 278.881 761.766 267.964 751.527 265.957Z" fill="#0061EF"/>
<path d="M641.437 351.933C642.454 350.568 644.196 350.408 645.431 351.532C646.665 352.656 646.811 354.663 645.794 355.947L640.711 363.332C639.694 364.697 637.951 364.858 636.717 363.734C635.482 362.61 635.337 360.603 636.354 359.319L641.437 351.933Z" fill="#F7BCCD"/>
<path d="M661.179 333.864L619.102 385.958L624.302 391.091L666.379 338.996L661.179 333.864Z" fill="#003787"/>
<path d="M645.286 356.108C646.811 355.867 648.264 356.991 648.554 358.757C648.772 360.443 647.755 362.048 646.158 362.369L637.879 364.135C636.354 364.376 634.902 363.252 634.611 361.486C634.393 359.8 635.41 358.195 637.008 357.874L645.286 356.108Z" fill="#F7BCCD"/>
<path d="M647.465 361.486C648.99 361.245 650.442 362.369 650.733 364.135C650.951 365.821 649.861 367.427 648.336 367.748L640.058 369.514C638.533 369.755 637.081 368.631 636.79 366.865C636.572 365.179 637.589 363.573 639.186 363.252L647.465 361.486Z" fill="#F7BCCD"/>
<path d="M649.716 366.945C651.241 366.704 652.693 367.828 652.984 369.594C653.202 371.28 652.185 372.885 650.587 373.207L642.309 374.973C640.784 375.213 639.331 374.09 639.041 372.323C638.823 370.638 639.84 369.032 641.437 368.711L649.716 366.945Z" fill="#F7BCCD"/>
<path d="M663.296 361.727C667.29 364.055 668.815 369.514 666.781 373.929L666.854 379.789C664.748 384.204 659.737 380.11 655.743 377.782L644.778 371.521C640.784 369.193 639.259 363.734 641.292 359.319C642.381 356.991 648.336 353.137 652.33 355.465L663.296 361.727Z" fill="#F7BCCD"/>
<path d="M581.382 436.063L650.443 431.728L606.291 331.061L537.23 335.396L581.382 436.063Z" fill="#A53B6F"/>
<path d="M749.348 384.766C749.348 384.766 750.147 411.097 725.021 409.251C725.021 409.251 687.042 397.771 656.833 384.766L661.625 359.559L741.723 368.229C741.796 368.229 749.348 375.374 749.348 384.766Z" fill="#0061EF"/>
<path d="M730.758 301.198L720.447 366.704L661.698 359.479L656.76 383.723L714.782 407.565C714.782 407.565 737.948 416.556 747.606 397.129" stroke="#003787" stroke-width="2.5" stroke-miterlimit="10" stroke-linecap="round" stroke-linejoin="round"/>
<path d="M558.507 375.213C559.96 374.892 561.339 375.936 561.63 377.541C561.92 379.147 560.976 380.753 559.524 380.993L553.351 382.037C551.899 382.358 550.519 381.314 550.229 379.709C549.938 378.103 550.882 376.578 552.335 376.257L558.507 375.213Z" fill="#F7BCCD"/>
<path d="M560.831 380.191C562.283 379.869 563.663 380.913 563.953 382.519C564.244 384.124 563.3 385.73 561.848 385.971L555.602 387.014C554.15 387.335 552.77 386.292 552.48 384.686C552.189 383.081 553.133 381.475 554.586 381.234L560.831 380.191Z" fill="#F7BCCD"/>
<path d="M563.082 385.248C564.535 384.927 565.914 385.97 566.205 387.576C566.495 389.182 565.551 390.787 564.099 391.028L557.854 392.072C556.401 392.393 555.022 391.349 554.731 389.743C554.441 388.138 555.385 386.613 556.91 386.292L563.082 385.248Z" fill="#F7BCCD"/>
<path d="M564.898 390.546C566.35 390.225 567.73 391.269 568.02 392.874C568.311 394.48 567.367 396.085 565.914 396.326L559.669 397.37C558.217 397.691 556.837 396.647 556.547 395.042C556.256 393.436 557.2 391.911 558.653 391.59L564.898 390.546Z" fill="#F7BCCD"/>
<path d="M542.895 340.052L602.733 336.681L642.6 426.51" stroke="#003787" stroke-width="2.5" stroke-miterlimit="10" stroke-linecap="round" stroke-linejoin="round"/>
<path d="M700.186 30.5854V0C695.176 0 690.455 1.52526 686.389 4.09411C682.177 6.74324 678.691 10.6768 676.295 15.2526C673.971 19.7481 672.591 24.9661 672.591 30.5052C672.591 36.0443 673.971 41.2622 676.295 45.7577C678.691 50.4138 682.25 54.2671 686.389 56.9162C690.455 59.4851 695.176 61.0103 700.186 61.0103C705.197 61.0103 709.917 59.4851 713.984 56.9162C718.196 54.2671 721.681 50.3335 724.078 45.7577L700.186 30.5854Z" fill="#1A82FF"/>
<path d="M700.186 30.5854L713.983 4.09411C709.917 1.52526 705.197 0 700.186 0V30.5854Z" fill="#EC018E"/>
<path d="M730.25 13.7273C727.854 9.07126 724.296 5.21798 720.156 2.56885L706.359 29.0602L730.323 44.3127C732.647 39.8173 734.026 34.5993 734.026 29.0602C733.954 23.5211 732.647 18.3031 730.25 13.7273Z" fill="#F69121"/>
<path d="M78.2828 140.324C78.2102 140.083 78.2102 139.922 78.1375 139.682C77.2661 136.631 73.9983 135.025 70.8757 136.149C67.7531 137.273 65.9377 140.645 66.8091 143.695C67.0269 144.418 67.39 145.06 67.8257 145.542C68.2614 146.344 68.6245 147.147 68.6971 147.308C69.0602 148.512 69.1329 149.636 68.6971 150.84C68.1888 152.205 67.0995 153.489 66.9543 155.014C66.7365 156.941 68.3341 157.985 69.0602 159.51C69.7864 161.115 70.2221 162.962 67.2448 165.29C67.1722 165.37 70.0043 164.728 70.0769 164.728C72.6912 164.166 78.1375 162.641 77.9197 158.868C77.8471 157.503 77.2661 156.459 76.4673 154.934C76.1042 154.292 76.1042 153.168 76.1768 152.365C76.3221 151.081 77.1935 150.198 77.9923 149.315C79.009 148.03 78.7911 146.746 79.009 145.301C79.2994 143.455 79.2268 141.688 78.9363 139.922C78.8637 140.163 78.6459 140.243 78.2828 140.324Z" fill="#003787"/>
<path d="M109.363 203.742C112.849 202.297 114.591 197.962 113.212 194.029L108.564 180.944L95.856 186.162L100.504 199.247C101.883 203.18 105.877 205.187 109.363 203.742Z" fill="#F7BCCD"/>
<path d="M106.966 166.012C105.587 162.079 101.593 160.072 98.0343 161.597C94.476 163.122 92.6606 167.538 94.0403 171.471L99.7045 187.526L112.631 182.068L106.966 166.012Z" fill="#F2F4FF"/>
<path d="M99.6324 161.276C99.6324 161.276 108.637 171.872 108.056 180.141L101.375 208.398L71.8922 208.318L69.0601 161.276H99.6324Z" fill="#F2F4FF"/>
<path d="M103.481 240.83C103.481 240.83 95.2021 238.342 93.0962 242.998C92.6605 243.961 92.37 260.498 92.2974 262.023C92.2974 262.023 92.37 292.047 94.2581 304.49L99.414 304.73L103.408 263.789C103.335 263.789 106.022 241.312 103.481 240.83Z" fill="#F7BCCD"/>
<path d="M99.4868 302.804L103.626 308.022L101.883 308.263L97.0904 307.38L94.2583 303.767L99.4868 302.804Z" fill="#F7BCCD"/>
<path d="M107.475 312.598C107.402 308.825 103.408 307.38 103.408 307.38C103.263 308.825 99.995 307.38 99.2689 307.058C97.1629 306.175 94.9118 304.169 94.113 303.526C94.113 303.526 93.7499 304.891 93.6772 306.175C93.6772 307.38 93.7499 307.701 93.7499 307.861L94.5487 313.4H95.9284C95.9284 313.4 95.8558 309.948 96.7272 310.029C97.4534 310.029 100.213 313.16 100.721 313.24C101.738 313.4 105.732 313.32 107.184 313.32L107.475 312.598Z" fill="#003787"/>
<path d="M91.9343 242.275C91.9343 242.275 84.3093 238.02 81.4046 242.115C80.8237 242.917 77.6285 259.053 77.2654 260.659C77.2654 260.659 72.2547 290.12 71.8916 302.804L76.6844 304.169L87.795 264.833C87.795 264.753 94.4033 243.319 91.9343 242.275Z" fill="#F7BCCD"/>
<path d="M77.411 301.439L80.6062 307.46L78.8634 307.38L74.2884 305.453L72.1099 301.279L77.411 301.439Z" fill="#F7BCCD"/>
<path d="M83.5108 312.758C84.0917 309.065 80.4608 306.818 80.4608 306.818C80.0251 308.182 77.1204 306.095 76.4668 305.613C74.5788 304.329 72.7633 301.921 72.0371 301.038C72.0371 301.038 71.3835 302.322 71.1657 303.526C70.9478 304.73 70.9478 304.971 70.9478 305.212L70.73 310.831L72.1097 311.153C72.1097 311.153 72.6907 307.781 73.4895 308.022C74.2157 308.182 76.3216 311.875 76.9025 312.036C77.9192 312.437 81.768 313.159 83.2203 313.481L83.5108 312.758Z" fill="#003787"/>
<path d="M102.61 203.742H77.5563C77.5563 203.742 65.2112 218.353 75.8861 259.615H104.425C117.859 219.075 102.61 203.742 102.61 203.742Z" fill="#A53B6F"/>
<path d="M87.9404 218.754L101.084 222.768" stroke="#003C47" stroke-miterlimit="10" stroke-linecap="round" stroke-linejoin="round"/>
<path d="M93.3146 161.196C93.3146 164.005 90.7729 166.253 88.3765 166.253C85.9801 166.253 83.4385 164.005 83.4385 161.196L84.0194 154.292C84.0194 151.482 85.9801 149.234 88.3765 149.234C90.7729 149.234 92.7336 151.482 92.7336 154.292L93.3146 161.196Z" fill="#F7BCCD"/>
<path d="M92.6611 154.051L85.3267 151.803C85.3267 151.803 86.779 157.262 92.9516 157.102L92.6611 154.051Z" fill="#003787"/>
<path d="M87.0692 136.069C84.8907 137.193 82.349 139.842 80.0979 140.966C79.6622 141.207 79.1538 146.826 78.6455 146.987C78.7907 147.789 79.0086 148.592 79.3717 149.315C81.6229 154.693 87.0692 157.262 91.6442 154.934C96.1465 152.606 98.0346 146.425 95.7834 141.046C95.1299 139.521 94.2584 138.237 93.2418 137.193C92.443 138.798 88.5216 135.347 87.0692 136.069Z" fill="#F7BCCD"/>
<path d="M81.6954 140.003C85.7621 141.528 85.3263 135.909 89.1025 139.601C90.9906 141.448 93.1691 140.243 94.8393 139.2C91.2811 131.493 85.9799 131.895 82.8573 133.821C76.2491 137.835 76.7574 143.856 78.5728 147.468C79.0086 147.388 83.0026 145.221 81.6954 140.003Z" fill="#003787"/>
<path d="M86.9963 144.578C87.1416 144.899 86.9963 145.301 86.7059 145.461C86.4154 145.622 86.0523 145.461 85.9071 145.14C85.7618 144.819 85.9071 144.418 86.1975 144.257C86.488 144.097 86.8511 144.257 86.9963 144.578Z" fill="#003787"/>
<path d="M91.2811 148.432C91.4989 148.913 91.3537 149.395 91.0632 149.556C90.7728 149.716 90.337 149.475 90.1918 148.994C89.974 148.512 90.1192 148.03 90.4097 147.87C90.7001 147.789 91.0632 148.03 91.2811 148.432Z" fill="#003787"/>
<path d="M91.7171 142.25C91.8623 142.571 91.7171 142.973 91.4266 143.133C91.1361 143.294 90.773 143.133 90.6278 142.812C90.4825 142.491 90.6278 142.09 90.9182 141.929C91.2087 141.769 91.5718 141.849 91.7171 142.25Z" fill="#003787"/>
<path d="M89.8288 144.016L90.555 145.702L89.6836 146.104" stroke="#003787" stroke-miterlimit="10" stroke-linecap="round" stroke-linejoin="round"/>
<path d="M82.567 148.913C83.2206 150.519 82.567 152.446 81.1146 153.168C79.6623 153.89 77.9194 153.168 77.2659 151.562C76.6123 149.957 77.2659 148.03 78.7182 147.308C80.1706 146.585 81.9135 147.308 82.567 148.913Z" fill="#F7BCCD"/>
<path d="M78.8634 151.001C78.7908 150.76 78.7182 150.439 78.7908 150.117C78.9361 149.234 79.7349 148.592 80.6063 148.833" stroke="#003787" stroke-miterlimit="10" stroke-linecap="round" stroke-linejoin="round"/>
<path d="M76.3217 169.063C76.3217 164.888 73.2718 161.436 69.423 161.436C65.6468 161.436 62.96 164.888 62.96 169.063V185.6H76.3217V169.063Z" fill="#F2F4FF"/>
<path d="M68.9147 207.355C72.4003 207.355 75.2325 203.903 75.2325 199.728V185.6H62.96V199.728C62.96 203.903 65.3564 207.355 68.9147 207.355Z" fill="#F7BCCD"/>
<path d="M102.973 168.019C102.973 168.019 110.525 175.645 107.039 184.717" stroke="#003787" stroke-miterlimit="10" stroke-linecap="round" stroke-linejoin="round"/>
<path d="M86.7062 150.117C87.1419 151.161 86.7062 152.365 85.7621 152.847C84.8181 153.329 83.7288 152.847 83.2931 151.803C82.8574 150.76 83.2931 149.556 84.2371 149.074C85.1812 148.592 86.2704 149.074 86.7062 150.117Z" fill="#FFA1B7"/>
<path d="M96.5099 145.14C96.9456 146.184 96.5099 147.388 95.5658 147.87C94.6218 148.351 93.5325 147.87 93.0968 146.826C92.6611 145.783 93.0968 144.578 94.0409 144.097C94.9123 143.695 96.0742 144.097 96.5099 145.14Z" fill="#FFA1B7"/>
<path d="M76.1763 174.04V185.6" stroke="#003787" stroke-miterlimit="10" stroke-linecap="round" stroke-linejoin="round"/>
<path d="M124.613 118.248C112.123 136.069 115.1 161.838 131.221 175.645C135.651 179.418 140.589 181.907 145.745 183.191C159.325 186.563 174.066 181.345 183.144 168.34C195.634 150.519 192.657 124.75 176.535 110.942C172.686 107.651 168.475 105.403 164.045 103.958C149.957 99.5432 134.126 104.681 124.613 118.248Z" fill="#0061EF"/>
<path d="M154.677 175.726C163.536 175.485 171.742 170.909 177.116 163.203C187.065 149.074 184.668 128.603 171.887 117.605C168.983 115.117 165.642 113.27 162.011 112.066C159.179 111.183 156.202 110.782 153.152 110.862C144.292 111.103 136.087 115.679 130.64 123.385C120.691 137.514 123.088 157.985 135.869 168.983C139.209 171.872 143.131 173.879 147.342 174.923C149.739 175.485 152.208 175.806 154.677 175.726Z" fill="white"/>
<path d="M154.604 172.595C162.664 172.354 170.072 168.26 174.937 161.276C183.942 148.432 181.763 129.968 170.217 120.014C167.603 117.766 164.553 116.08 161.285 115.037C158.67 114.234 155.984 113.832 153.297 113.913C145.236 114.153 137.829 118.248 132.964 125.232C123.959 138.076 126.137 156.54 137.756 166.494C140.806 169.063 144.292 170.909 148.141 171.872C150.174 172.434 152.353 172.675 154.604 172.595Z" fill="#BEE4ED"/>
<path d="M128.679 171.23C129.841 169.785 131.947 169.785 133.472 171.15L134.489 172.113C135.941 173.558 136.232 175.886 135.07 177.331L129.333 184.636L123.015 178.455L128.679 171.23Z" fill="#0061EF"/>
<path d="M81.1869 223.169L118.803 176.609C119.965 175.164 122.144 175.244 123.523 176.689L124.032 177.171L124.104 177.09L130.277 183.432L130.204 183.513L130.713 183.994C132.165 185.439 132.383 187.767 131.148 189.212L93.532 235.773C92.3701 237.218 90.1916 237.137 88.8118 235.692L81.6226 228.387C80.1702 226.942 79.9524 224.614 81.1869 223.169Z" fill="#003787"/>
<path d="M122.798 188.249C122.87 186.965 121.926 185.841 120.764 185.76C119.602 185.68 118.586 186.724 118.513 188.008C118.441 189.293 119.385 190.416 120.547 190.497C121.708 190.577 122.725 189.614 122.798 188.249Z" fill="white"/>
<path d="M93.0967 214.981C92.5158 214.821 91.9348 215.222 91.7896 215.784C91.6444 216.426 92.0075 217.068 92.5158 217.229L96.9455 218.513C97.5265 218.674 98.1074 218.272 98.2526 217.711C98.3979 217.068 98.0348 216.426 97.5265 216.266L93.0967 214.981Z" fill="#F7BCCD"/>
<path d="M95.8561 218.433C95.5656 217.871 94.912 217.711 94.4037 218.032C93.8954 218.353 93.7501 219.075 94.0406 219.637L96.437 223.972C96.7275 224.534 97.3811 224.695 97.8894 224.373C98.3977 224.052 98.543 223.33 98.2525 222.768L95.8561 218.433Z" fill="#F7BCCD"/>
<path d="M93.8951 219.075C93.6047 218.513 92.9511 218.353 92.4428 218.674C91.9344 218.995 91.7892 219.717 92.0797 220.279L94.4761 224.614C94.7666 225.176 95.4201 225.337 95.9285 225.016C96.4368 224.695 96.582 223.972 96.2916 223.41L93.8951 219.075Z" fill="#F7BCCD"/>
<path d="M91.9347 219.637C91.6442 219.075 90.9907 218.915 90.4823 219.236C89.974 219.557 89.8288 220.279 90.1192 220.841L92.5156 225.176C92.8061 225.738 93.4597 225.899 93.968 225.578C94.4763 225.256 94.6216 224.534 94.3311 223.972L91.9347 219.637Z" fill="#F7BCCD"/>
<path d="M88.9574 213.135C87.3598 212.412 85.5444 213.215 84.8908 214.981C84.2372 216.747 84.9634 218.754 86.561 219.477L90.8455 221.484C92.4431 222.206 94.2585 221.403 94.9121 219.637C95.5657 217.871 94.8395 215.864 93.2419 215.142L88.9574 213.135Z" fill="#F7BCCD"/>
<path d="M66.3732 195.795C66.3732 195.795 58.7483 200.772 67.2446 209.041C67.2446 209.041 77.3386 215.382 88.5944 220.36L93.242 215.623L71.6017 193.306C71.6017 193.306 68.4065 193.226 66.3732 195.795Z" fill="#F7BCCD"/>
<path d="M74.1431 196.437L92.5155 214.901" stroke="#003787" stroke-miterlimit="10" stroke-linecap="round" stroke-linejoin="round"/>
<path d="M95.2751 162.962V169.705L90.8454 166.815L88.2312 170.668L82.0586 164.648" stroke="#003787" stroke-miterlimit="10" stroke-linecap="round" stroke-linejoin="round"/>
<path d="M169.999 130.61L144.655 153.168" stroke="#003787" stroke-miterlimit="10" stroke-linecap="round" stroke-linejoin="round"/>
<path d="M166.731 145.14L141.388 167.698" stroke="#003787" stroke-miterlimit="10" stroke-linecap="round" stroke-linejoin="round"/>
<path d="M118.368 203.662C117.859 203.421 117.206 203.662 116.915 204.224C116.697 204.786 116.915 205.508 117.424 205.83L119.166 206.713C119.675 206.953 120.328 206.713 120.619 206.151C120.837 205.589 120.619 204.866 120.11 204.545L118.368 203.662Z" fill="#F7BCCD"/>
<path d="M117.061 205.348C116.553 205.107 115.899 205.348 115.609 205.91C115.391 206.472 115.609 207.194 116.117 207.515L117.86 208.479C118.368 208.719 119.022 208.479 119.312 207.917C119.53 207.355 119.312 206.632 118.804 206.311L117.061 205.348Z" fill="#F7BCCD"/>
<path d="M115.753 207.034C115.245 206.793 114.591 207.034 114.301 207.596C114.083 208.158 114.301 208.88 114.809 209.201L116.552 210.164C117.06 210.405 117.714 210.164 118.004 209.603C118.222 209.041 118.004 208.318 117.496 207.997L115.753 207.034Z" fill="#F7BCCD"/>
<path d="M112.994 423.299H62.6694V435.1H112.994V423.299Z" fill="#FFDC85"/>
<path d="M67.1719 423.299H65.0659V435.1H67.1719V423.299Z" fill="#FCCA65"/>
<path d="M71.5293 423.299H69.4233V435.1H71.5293V423.299Z" fill="#FCCA65"/>
<path d="M75.8857 423.299H73.7798V435.1H75.8857V423.299Z" fill="#FCCA65"/>
<path d="M80.1709 423.299H78.0649V435.1H80.1709V423.299Z" fill="#FCCA65"/>
<path d="M84.5273 423.299H82.4214V435.1H84.5273V423.299Z" fill="#FCCA65"/>
<path d="M88.8847 423.299H86.7788V435.1H88.8847V423.299Z" fill="#FCCA65"/>
<path d="M93.2422 423.299H91.1362V435.1H93.2422V423.299Z" fill="#FCCA65"/>
<path d="M97.5991 423.299H95.4932V435.1H97.5991V423.299Z" fill="#FCCA65"/>
<path d="M101.956 423.299H99.8501V435.1H101.956V423.299Z" fill="#FCCA65"/>
<path d="M106.313 423.299H104.207V435.1H106.313V423.299Z" fill="#FCCA65"/>
<path d="M110.67 423.299H108.564V435.1H110.67V423.299Z" fill="#FCCA65"/>
<path d="M112.994 434.056H62.6694V435.742H112.994V434.056Z" fill="#F9BD53"/>
<path d="M109.944 411.017H59.6196V422.818H109.944V411.017Z" fill="#FFDC85"/>
<path d="M64.1216 411.017H62.0156V422.818H64.1216V411.017Z" fill="#FCCA65"/>
<path d="M68.479 411.017H66.373V422.818H68.479V411.017Z" fill="#FCCA65"/>
<path d="M72.8359 411.017H70.73V422.818H72.8359V411.017Z" fill="#FCCA65"/>
<path d="M77.1933 411.017H75.0874V422.818H77.1933V411.017Z" fill="#FCCA65"/>
<path d="M81.4775 411.017H79.3716V422.818H81.4775V411.017Z" fill="#FCCA65"/>
<path d="M85.8349 411.017H83.729V422.818H85.8349V411.017Z" fill="#FCCA65"/>
<path d="M90.1914 411.017H88.0854V422.818H90.1914V411.017Z" fill="#FCCA65"/>
<path d="M94.5488 411.017H92.4429V422.818H94.5488V411.017Z" fill="#FCCA65"/>
<path d="M98.9062 411.017H96.8003V422.818H98.9062V411.017Z" fill="#FCCA65"/>
<path d="M103.263 411.017H101.157V422.818H103.263V411.017Z" fill="#FCCA65"/>
<path d="M107.62 411.017H105.514V422.818H107.62V411.017Z" fill="#FCCA65"/>
<path d="M109.944 421.774H59.6196V423.46H109.944V421.774Z" fill="#F9BD53"/>
<path d="M109.944 398.815H59.6196V410.615H109.944V398.815Z" fill="#FFDC85"/>
<path d="M64.1216 398.815H62.0156V410.615H64.1216V398.815Z" fill="#FCCA65"/>
<path d="M68.479 398.815H66.373V410.615H68.479V398.815Z" fill="#FCCA65"/>
<path d="M72.8359 398.815H70.73V410.615H72.8359V398.815Z" fill="#FCCA65"/>
<path d="M77.1933 398.815H75.0874V410.615H77.1933V398.815Z" fill="#FCCA65"/>
<path d="M81.4775 398.815H79.3716V410.615H81.4775V398.815Z" fill="#FCCA65"/>
<path d="M85.8349 398.815H83.729V410.615H85.8349V398.815Z" fill="#FCCA65"/>
<path d="M90.1914 398.815H88.0854V410.615H90.1914V398.815Z" fill="#FCCA65"/>
<path d="M94.5488 398.815H92.4429V410.615H94.5488V398.815Z" fill="#FCCA65"/>
<path d="M98.9062 398.815H96.8003V410.615H98.9062V398.815Z" fill="#FCCA65"/>
<path d="M103.263 398.815H101.157V410.615H103.263V398.815Z" fill="#FCCA65"/>
<path d="M107.62 398.815H105.514V410.615H107.62V398.815Z" fill="#FCCA65"/>
<path d="M109.944 409.572H59.6196V411.258H109.944V409.572Z" fill="#F9BD53"/>
<path d="M117.859 386.613H67.5347V398.413H117.859V386.613Z" fill="#FFDC85"/>
<path d="M71.9648 386.613H69.8589V398.413H71.9648V386.613Z" fill="#FCCA65"/>
<path d="M76.3222 386.613H74.2163V398.413H76.3222V386.613Z" fill="#FCCA65"/>
<path d="M80.6787 386.613H78.5728V398.413H80.6787V386.613Z" fill="#FCCA65"/>
<path d="M85.0361 386.613H82.9302V398.413H85.0361V386.613Z" fill="#FCCA65"/>
<path d="M89.393 386.613H87.2871V398.413H89.393V386.613Z" fill="#FCCA65"/>
<path d="M93.75 386.613H91.644V398.413H93.75V386.613Z" fill="#FCCA65"/>
<path d="M98.1074 386.613H96.0015V398.413H98.1074V386.613Z" fill="#FCCA65"/>
<path d="M102.464 386.613H100.358V398.413H102.464V386.613Z" fill="#FCCA65"/>
<path d="M106.749 386.613H104.643V398.413H106.749V386.613Z" fill="#FCCA65"/>
<path d="M111.106 386.613H109V398.413H111.106V386.613Z" fill="#FCCA65"/>
<path d="M115.463 386.613H113.357V398.413H115.463V386.613Z" fill="#FCCA65"/>
<path d="M117.859 397.37H67.5347V399.056H117.859V397.37Z" fill="#F9BD53"/>
<path d="M119.094 362.128H68.769V373.929H119.094V362.128Z" fill="#FFDC85"/>
<path d="M73.2715 362.128H71.1655V373.929H73.2715V362.128Z" fill="#FCCA65"/>
<path d="M77.5556 362.128H75.4497V373.929H77.5556V362.128Z" fill="#FCCA65"/>
<path d="M81.9131 362.128H79.8071V373.929H81.9131V362.128Z" fill="#FCCA65"/>
<path d="M86.2705 362.128H84.1646V373.929H86.2705V362.128Z" fill="#FCCA65"/>
<path d="M90.6269 362.128H88.521V373.929H90.6269V362.128Z" fill="#FCCA65"/>
<path d="M94.9843 362.128H92.8784V373.929H94.9843V362.128Z" fill="#FCCA65"/>
<path d="M99.3413 362.128H97.2354V373.929H99.3413V362.128Z" fill="#FCCA65"/>
<path d="M103.699 362.128H101.593V373.929H103.699V362.128Z" fill="#FCCA65"/>
<path d="M108.056 362.128H105.95V373.929H108.056V362.128Z" fill="#FCCA65"/>
<path d="M112.413 362.128H110.307V373.929H112.413V362.128Z" fill="#FCCA65"/>
<path d="M116.697 362.128H114.591V373.929H116.697V362.128Z" fill="#FCCA65"/>
<path d="M119.094 372.885H68.769V374.571H119.094V372.885Z" fill="#F9BD53"/>
<path d="M122.434 349.926H72.1099V361.727H122.434V349.926Z" fill="#FFDC85"/>
<path d="M76.5395 349.926H74.4336V361.727H76.5395V349.926Z" fill="#FCCA65"/>
<path d="M80.8969 349.926H78.791V361.727H80.8969V349.926Z" fill="#FCCA65"/>
<path d="M85.2539 349.926H83.1479V361.727H85.2539V349.926Z" fill="#FCCA65"/>
<path d="M89.6108 349.926H87.5049V361.727H89.6108V349.926Z" fill="#FCCA65"/>
<path d="M93.9677 349.926H91.8618V361.727H93.9677V349.926Z" fill="#FCCA65"/>
<path d="M98.3252 349.926H96.2192V361.727H98.3252V349.926Z" fill="#FCCA65"/>
<path d="M102.682 349.926H100.576V361.727H102.682V349.926Z" fill="#FCCA65"/>
<path d="M106.967 349.926H104.861V361.727H106.967V349.926Z" fill="#FCCA65"/>
<path d="M111.324 349.926H109.218V361.727H111.324V349.926Z" fill="#FCCA65"/>
<path d="M115.681 349.926H113.575V361.727H115.681V349.926Z" fill="#FCCA65"/>
<path d="M120.038 349.926H117.932V361.727H120.038V349.926Z" fill="#FCCA65"/>
<path d="M122.434 360.683H72.1099V362.369H122.434V360.683Z" fill="#F9BD53"/>
<path d="M119.094 337.644H68.769V349.445H119.094V337.644Z" fill="#FFDC85"/>
<path d="M73.2715 337.644H71.1655V349.445H73.2715V337.644Z" fill="#FCCA65"/>
<path d="M77.5556 337.644H75.4497V349.445H77.5556V337.644Z" fill="#FCCA65"/>
<path d="M81.9131 337.644H79.8071V349.445H81.9131V337.644Z" fill="#FCCA65"/>
<path d="M86.2705 337.644H84.1646V349.445H86.2705V337.644Z" fill="#FCCA65"/>
<path d="M90.6269 337.644H88.521V349.445H90.6269V337.644Z" fill="#FCCA65"/>
<path d="M94.9843 337.644H92.8784V349.445H94.9843V337.644Z" fill="#FCCA65"/>
<path d="M99.3413 337.644H97.2354V349.445H99.3413V337.644Z" fill="#FCCA65"/>
<path d="M103.699 337.644H101.593V349.445H103.699V337.644Z" fill="#FCCA65"/>
<path d="M108.056 337.644H105.95V349.445H108.056V337.644Z" fill="#FCCA65"/>
<path d="M112.413 337.644H110.307V349.445H112.413V337.644Z" fill="#FCCA65"/>
<path d="M116.697 337.644H114.591V349.445H116.697V337.644Z" fill="#FCCA65"/>
<path d="M119.094 348.401H68.769V350.087H119.094V348.401Z" fill="#F9BD53"/>
<path d="M114.374 325.442H64.0493V337.243H114.374V325.442Z" fill="#FFDC85"/>
<path d="M68.5517 325.442H66.4458V337.243H68.5517V325.442Z" fill="#FCCA65"/>
<path d="M72.9087 325.442H70.8027V337.243H72.9087V325.442Z" fill="#FCCA65"/>
<path d="M77.2656 325.442H75.1597V337.243H77.2656V325.442Z" fill="#FCCA65"/>
<path d="M81.623 325.442H79.5171V337.243H81.623V325.442Z" fill="#FCCA65"/>
<path d="M85.9072 325.442H83.8013V337.243H85.9072V325.442Z" fill="#FCCA65"/>
<path d="M90.2646 325.442H88.1587V337.243H90.2646V325.442Z" fill="#FCCA65"/>
<path d="M94.6216 325.442H92.5156V337.243H94.6216V325.442Z" fill="#FCCA65"/>
<path d="M98.9785 325.442H96.8726V337.243H98.9785V325.442Z" fill="#FCCA65"/>
<path d="M103.336 325.442H101.23V337.243H103.336V325.442Z" fill="#FCCA65"/>
<path d="M107.693 325.442H105.587V337.243H107.693V325.442Z" fill="#FCCA65"/>
<path d="M112.05 325.442H109.944V337.243H112.05V325.442Z" fill="#FCCA65"/>
<path d="M114.374 336.199H64.0493V337.885H114.374V336.199Z" fill="#F9BD53"/>
<path d="M112.485 313.24H62.1606V325.041H112.485V313.24Z" fill="#FFDC85"/>
<path d="M66.5908 313.24H64.4849V325.041H66.5908V313.24Z" fill="#FCCA65"/>
<path d="M70.9482 313.24H68.8423V325.041H70.9482V313.24Z" fill="#FCCA65"/>
<path d="M75.3047 313.24H73.1987V325.041H75.3047V313.24Z" fill="#FCCA65"/>
<path d="M79.6621 313.24H77.5562V325.041H79.6621V313.24Z" fill="#FCCA65"/>
<path d="M84.019 313.24H81.9131V325.041H84.019V313.24Z" fill="#FCCA65"/>
<path d="M88.3764 313.24H86.2705V325.041H88.3764V313.24Z" fill="#FCCA65"/>
<path d="M92.6606 313.24H90.5547V325.041H92.6606V313.24Z" fill="#FCCA65"/>
<path d="M97.0176 313.24H94.9116V325.041H97.0176V313.24Z" fill="#FCCA65"/>
<path d="M101.375 313.24H99.269V325.041H101.375V313.24Z" fill="#FCCA65"/>
<path d="M105.732 313.24H103.626V325.041H105.732V313.24Z" fill="#FCCA65"/>
<path d="M110.089 313.24H107.983V325.041H110.089V313.24Z" fill="#FCCA65"/>
<path d="M112.485 323.997H62.1606V325.683H112.485V323.997Z" fill="#F9BD53"/>
<path d="M116.48 374.33H66.1553V386.131H116.48V374.33Z" fill="#FFDC85"/>
<path d="M70.5849 374.33H68.479V386.131H70.5849V374.33Z" fill="#FCCA65"/>
<path d="M74.9423 374.33H72.8364V386.131H74.9423V374.33Z" fill="#FCCA65"/>
<path d="M79.2993 374.33H77.1934V386.131H79.2993V374.33Z" fill="#FCCA65"/>
<path d="M83.6562 374.33H81.5503V386.131H83.6562V374.33Z" fill="#FCCA65"/>
<path d="M88.0132 374.33H85.9072V386.131H88.0132V374.33Z" fill="#FCCA65"/>
<path d="M92.3706 374.33H90.2646V386.131H92.3706V374.33Z" fill="#FCCA65"/>
<path d="M96.7275 374.33H94.6216V386.131H96.7275V374.33Z" fill="#FCCA65"/>
<path d="M101.084 374.33H98.9785V386.131H101.084V374.33Z" fill="#FCCA65"/>
<path d="M105.369 374.33H103.263V386.131H105.369V374.33Z" fill="#FCCA65"/>
<path d="M109.726 374.33H107.62V386.131H109.726V374.33Z" fill="#FCCA65"/>
<path d="M114.083 374.33H111.978V386.131H114.083V374.33Z" fill="#FCCA65"/>
<path d="M116.48 385.087H66.1553V386.773H116.48V385.087Z" fill="#F9BD53"/>
<path d="M90.0466 422.737C90.0466 401.865 75.2324 385.007 57.0052 385.007C38.778 385.007 23.9639 401.865 23.9639 422.737C23.9639 443.609 38.778 460.467 57.0052 460.467C75.305 460.467 90.0466 443.529 90.0466 422.737Z" fill="#F4AD3B"/>
<path d="M55.553 387.496H23.5283V390.787H55.553V387.496Z" fill="#F9BD53"/>
<path d="M51.6316 393.436H19.6069V396.728H51.6316V393.436Z" fill="#F9BD53"/>
<path d="M47.7102 399.377H15.6855V402.668H47.7102V399.377Z" fill="#F9BD53"/>
<path d="M43.7888 405.397H11.7642V408.689H43.7888V405.397Z" fill="#F9BD53"/>
<path d="M39.8675 411.338H7.84277V414.629H39.8675V411.338Z" fill="#F9BD53"/>
<path d="M35.9461 417.359H3.92139V420.65H35.9461V417.359Z" fill="#F9BD53"/>
<path d="M32.0247 423.299H0V426.591H32.0247V423.299Z" fill="#F9BD53"/>
<path d="M37.1082 429.24H5.0835V432.531H37.1082V429.24Z" fill="#F9BD53"/>
<path d="M39.0686 435.26H7.04395V438.552H39.0686V435.26Z" fill="#F9BD53"/>
<path d="M47.7102 441.201H15.6855V444.492H47.7102V441.201Z" fill="#F9BD53"/>
<path d="M56.3518 447.222H24.3271V450.513H56.3518V447.222Z" fill="#F9BD53"/>
<path d="M64.9934 453.162H32.9688V456.454H64.9934V453.162Z" fill="#F9BD53"/>
<path d="M96.3644 422.737C96.3644 401.865 81.5503 385.007 63.3231 385.007C45.0959 385.007 30.2817 401.865 30.2817 422.737C30.2817 443.609 45.0959 460.467 63.3231 460.467C81.5503 460.467 96.3644 443.529 96.3644 422.737Z" fill="#FFDC85"/>
<path d="M87.5779 422.737C87.5779 407.404 76.6851 395.042 63.3234 395.042C49.9616 395.042 39.0688 407.404 39.0688 422.737C39.0688 438.07 49.9616 450.433 63.3234 450.433C76.6851 450.433 87.5779 437.99 87.5779 422.737Z" fill="#FCCA65"/>
<path d="M51.6316 422.416C51.559 422.416 51.4864 422.416 51.4138 422.336C51.3412 422.256 51.2686 422.175 51.2686 422.095V420.088C51.2686 419.847 51.4138 419.687 51.6316 419.687H54.2459L52.7209 412.462C52.6483 412.301 52.6483 412.221 52.7209 412.141C52.7209 412.06 52.8662 412.06 53.084 412.06H55.1899C55.3352 412.06 55.4078 412.06 55.4804 412.141C55.553 412.141 55.553 412.301 55.6257 412.382L57.078 419.767H60.0554L61.5804 412.382C61.653 412.221 61.653 412.141 61.7256 412.141C61.7982 412.141 61.8708 412.06 61.9435 412.06H64.1946C64.3399 412.06 64.4125 412.06 64.4851 412.141C64.5577 412.141 64.5577 412.301 64.6303 412.382L66.1553 419.767H68.9874L70.4398 412.382C70.4398 412.221 70.5124 412.141 70.585 412.141C70.6576 412.141 70.7303 412.06 70.8755 412.06H72.9088C73.1267 412.06 73.2719 412.06 73.3445 412.141C73.3445 412.221 73.3445 412.301 73.3445 412.462L71.8195 419.687H74.4338C74.5064 419.687 74.579 419.687 74.6517 419.767C74.7243 419.847 74.7243 419.928 74.7243 420.008V422.015C74.7243 422.095 74.7243 422.175 74.6517 422.256C74.579 422.336 74.5064 422.336 74.4338 422.336H71.3112L69.2053 432.852C69.2053 433.013 69.1327 433.093 69.1327 433.093C69.06 433.093 68.9874 433.173 68.8422 433.173H66.7363C66.5184 433.173 66.4458 433.173 66.3732 433.093C66.3732 433.093 66.3006 433.013 66.3006 432.852L64.122 422.336H62.1613L59.9828 432.852C59.9101 433.013 59.9101 433.093 59.9101 433.093C59.9101 433.093 59.7649 433.173 59.547 433.173H57.4411C57.2959 433.173 57.1506 433.173 57.1506 433.093C57.078 433.093 57.078 433.013 57.078 432.852L54.7542 422.416H51.6316ZM68.4791 422.416H66.6636L67.6077 426.992L68.4791 422.416ZM63.0327 417.68L62.6696 419.687H63.4684L63.0327 417.68ZM59.4018 422.416H57.5864L58.4578 426.992L59.4018 422.416Z" fill="#F2F4FF"/>
<path d="M156.202 400.26H106.895V411.82H156.202V400.26Z" fill="#CFE7FF"/>
<path d="M153.879 400.26H151.845V411.82H153.879V400.26Z" fill="#A9D0FF"/>
<path d="M149.594 400.26H147.561V411.82H149.594V400.26Z" fill="#A9D0FF"/>
<path d="M145.382 400.26H143.349V411.82H145.382V400.26Z" fill="#A9D0FF"/>
<path d="M141.098 400.26H139.064V411.82H141.098V400.26Z" fill="#A9D0FF"/>
<path d="M136.886 400.26H134.853V411.82H136.886V400.26Z" fill="#A9D0FF"/>
<path d="M132.602 400.26H130.568V411.82H132.602V400.26Z" fill="#A9D0FF"/>
<path d="M128.317 400.26H126.284V411.82H128.317V400.26Z" fill="#A9D0FF"/>
<path d="M124.033 400.26H122V411.82H124.033V400.26Z" fill="#A9D0FF"/>
<path d="M119.82 400.26H117.787V411.82H119.82V400.26Z" fill="#A9D0FF"/>
<path d="M115.536 400.26H113.503V411.82H115.536V400.26Z" fill="#A9D0FF"/>
<path d="M111.324 400.26H109.291V411.82H111.324V400.26Z" fill="#A9D0FF"/>
<path d="M156.202 410.776H106.895V412.462H156.202V410.776Z" fill="#8EB5ED"/>
<path d="M152.571 412.382H103.263V423.941H152.571V412.382Z" fill="#CFE7FF"/>
<path d="M150.175 412.382H148.142V423.941H150.175V412.382Z" fill="#A9D0FF"/>
<path d="M145.963 412.382H143.93V423.941H145.963V412.382Z" fill="#A9D0FF"/>
<path d="M141.679 412.382H139.646V423.941H141.679V412.382Z" fill="#A9D0FF"/>
<path d="M137.394 412.382H135.361V423.941H137.394V412.382Z" fill="#A9D0FF"/>
<path d="M133.182 412.382H131.149V423.941H133.182V412.382Z" fill="#A9D0FF"/>
<path d="M128.898 412.382H126.865V423.941H128.898V412.382Z" fill="#A9D0FF"/>
<path d="M124.613 412.382H122.58V423.941H124.613V412.382Z" fill="#A9D0FF"/>
<path d="M120.401 412.382H118.368V423.941H120.401V412.382Z" fill="#A9D0FF"/>
<path d="M116.117 412.382H114.083V423.941H116.117V412.382Z" fill="#A9D0FF"/>
<path d="M111.833 412.382H109.799V423.941H111.833V412.382Z" fill="#A9D0FF"/>
<path d="M107.621 412.382H105.587V423.941H107.621V412.382Z" fill="#A9D0FF"/>
<path d="M152.571 422.898H103.263V424.584H152.571V422.898Z" fill="#8EB5ED"/>
<path d="M154.822 424.503H105.514V436.063H154.822V424.503Z" fill="#CFE7FF"/>
<path d="M152.426 424.503H150.393V436.063H152.426V424.503Z" fill="#A9D0FF"/>
<path d="M148.214 424.503H146.181V436.063H148.214V424.503Z" fill="#A9D0FF"/>
<path d="M143.93 424.503H141.896V436.063H143.93V424.503Z" fill="#A9D0FF"/>
<path d="M139.645 424.503H137.612V436.063H139.645V424.503Z" fill="#A9D0FF"/>
<path d="M135.433 424.503H133.4V436.063H135.433V424.503Z" fill="#A9D0FF"/>
<path d="M131.149 424.503H129.116V436.063H131.149V424.503Z" fill="#A9D0FF"/>
<path d="M126.864 424.503H124.831V436.063H126.864V424.503Z" fill="#A9D0FF"/>
<path d="M122.652 424.503H120.619V436.063H122.652V424.503Z" fill="#A9D0FF"/>
<path d="M118.368 424.503H116.334V436.063H118.368V424.503Z" fill="#A9D0FF"/>
<path d="M114.083 424.503H112.05V436.063H114.083V424.503Z" fill="#A9D0FF"/>
<path d="M109.872 424.503H107.838V436.063H109.872V424.503Z" fill="#A9D0FF"/>
<path d="M154.822 435.02H105.514V436.705H154.822V435.02Z" fill="#8EB5ED"/>
<path d="M158.018 376.016H108.71V387.576H158.018V376.016Z" fill="#CFE7FF"/>
<path d="M155.621 376.016H153.588V387.576H155.621V376.016Z" fill="#A9D0FF"/>
<path d="M151.41 376.016H149.376V387.576H151.41V376.016Z" fill="#A9D0FF"/>
<path d="M147.126 376.016H145.092V387.576H147.126V376.016Z" fill="#A9D0FF"/>
<path d="M142.84 376.016H140.807V387.576H142.84V376.016Z" fill="#A9D0FF"/>
<path d="M138.629 376.016H136.596V387.576H138.629V376.016Z" fill="#A9D0FF"/>
<path d="M134.344 376.016H132.311V387.576H134.344V376.016Z" fill="#A9D0FF"/>
<path d="M130.06 376.016H128.026V387.576H130.06V376.016Z" fill="#A9D0FF"/>
<path d="M125.848 376.016H123.814V387.576H125.848V376.016Z" fill="#A9D0FF"/>
<path d="M121.563 376.016H119.53V387.576H121.563V376.016Z" fill="#A9D0FF"/>
<path d="M117.279 376.016H115.246V387.576H117.279V376.016Z" fill="#A9D0FF"/>
<path d="M113.067 376.016H111.034V387.576H113.067V376.016Z" fill="#A9D0FF"/>
<path d="M158.018 386.613H108.71V388.299H158.018V386.613Z" fill="#8EB5ED"/>
<path d="M160.269 388.138H110.961V399.698H160.269V388.138Z" fill="#CFE7FF"/>
<path d="M157.872 388.138H155.839V399.698H157.872V388.138Z" fill="#A9D0FF"/>
<path d="M153.661 388.138H151.627V399.698H153.661V388.138Z" fill="#A9D0FF"/>
<path d="M149.376 388.138H147.343V399.698H149.376V388.138Z" fill="#A9D0FF"/>
<path d="M145.091 388.138H143.058V399.698H145.091V388.138Z" fill="#A9D0FF"/>
<path d="M140.88 388.138H138.846V399.698H140.88V388.138Z" fill="#A9D0FF"/>
<path d="M136.595 388.138H134.562V399.698H136.595V388.138Z" fill="#A9D0FF"/>
<path d="M132.311 388.138H130.277V399.698H132.311V388.138Z" fill="#A9D0FF"/>
<path d="M128.099 388.138H126.065V399.698H128.099V388.138Z" fill="#A9D0FF"/>
<path d="M123.814 388.138H121.781V399.698H123.814V388.138Z" fill="#A9D0FF"/>
<path d="M119.53 388.138H117.497V399.698H119.53V388.138Z" fill="#A9D0FF"/>
<path d="M115.318 388.138H113.285V399.698H115.318V388.138Z" fill="#A9D0FF"/>
<path d="M160.269 398.735H110.961V400.42H160.269V398.735Z" fill="#8EB5ED"/>
<path d="M158.453 436.625H109.146V448.185H158.453V436.625Z" fill="#CFE7FF"/>
<path d="M156.13 436.625H154.096V448.185H156.13V436.625Z" fill="#A9D0FF"/>
<path d="M151.845 436.625H149.812V448.185H151.845V436.625Z" fill="#A9D0FF"/>
<path d="M147.633 436.625H145.6V448.185H147.633V436.625Z" fill="#A9D0FF"/>
<path d="M143.349 436.625H141.315V448.185H143.349V436.625Z" fill="#A9D0FF"/>
<path d="M139.065 436.625H137.031V448.185H139.065V436.625Z" fill="#A9D0FF"/>
<path d="M134.853 436.625H132.819V448.185H134.853V436.625Z" fill="#A9D0FF"/>
<path d="M130.568 436.625H128.535V448.185H130.568V436.625Z" fill="#A9D0FF"/>
<path d="M126.284 436.625H124.25V448.185H126.284V436.625Z" fill="#A9D0FF"/>
<path d="M122.072 436.625H120.039V448.185H122.072V436.625Z" fill="#A9D0FF"/>
<path d="M117.787 436.625H115.754V448.185H117.787V436.625Z" fill="#A9D0FF"/>
<path d="M113.503 436.625H111.469V448.185H113.503V436.625Z" fill="#A9D0FF"/>
<path d="M158.453 447.141H109.146V448.827H158.453V447.141Z" fill="#8EB5ED"/>
<path d="M781.01 46.7211H779.558V106.929H840.049V105.323H781.01V46.7211Z" fill="#1A82FF"/>
<path d="M796.333 56.9965H786.675V100.908H796.333V56.9965Z" fill="#1B73BA"/>
<path d="M813.544 70.0816H803.885V100.908H813.544V70.0816Z" fill="#00A69C"/>
<path d="M830.754 84.2906H821.096V100.908H830.754V84.2906Z" fill="#F6931E"/>
</svg>
