<svg width="88" height="72" viewBox="0 0 88 72" fill="none" xmlns="http://www.w3.org/2000/svg">
<g clip-path="url(#clip0)">
<path d="M69.8204 71.2241H18.1794V6.46552V0.775864H69.8204V71.2241Z" stroke="white" stroke-width="3" stroke-miterlimit="10"/>
<path d="M69.7737 8.06897H18.1327" stroke="white" stroke-width="3" stroke-miterlimit="10"/>
<path d="M69.7737 27.2586H18.1327" stroke="white" stroke-width="3" stroke-miterlimit="10"/>
<path d="M56.6415 15.4138H31.3584" stroke="white" stroke-width="3" stroke-miterlimit="10"/>
<path d="M61.3149 20.4828H26.7318" stroke="white" stroke-width="3" stroke-miterlimit="10"/>
<path d="M69.7737 47.2241H18.1327" stroke="white" stroke-width="3" stroke-miterlimit="10"/>
<path d="M22.1985 5.79311C22.818 5.79311 23.3201 5.23732 23.3201 4.55173C23.3201 3.86613 22.818 3.31035 22.1985 3.31035C21.5791 3.31035 21.0769 3.86613 21.0769 4.55173C21.0769 5.23732 21.5791 5.79311 22.1985 5.79311Z" fill="white"/>
<path d="M25.6569 5.79311C26.2763 5.79311 26.7785 5.23732 26.7785 4.55173C26.7785 3.86613 26.2763 3.31035 25.6569 3.31035C25.0374 3.31035 24.5353 3.86613 24.5353 4.55173C24.5353 5.23732 25.0374 5.79311 25.6569 5.79311Z" fill="white"/>
<path d="M29.0216 5.79311C29.6411 5.79311 30.1433 5.23732 30.1433 4.55173C30.1433 3.86613 29.6411 3.31035 29.0216 3.31035C28.4022 3.31035 27.9 3.86613 27.9 4.55173C27.9 5.23732 28.4022 5.79311 29.0216 5.79311Z" fill="white"/>
<path d="M39.3499 52.6552H30.0966V62.9017H39.3499V52.6552Z" stroke="white" stroke-width="3" stroke-miterlimit="10"/>
<path d="M40.051 65.1724H29.3956V66.3879H40.051V65.1724Z" fill="white"/>
<path d="M57.8566 52.6552H48.6033V62.9017H57.8566V52.6552Z" stroke="white" stroke-width="3" stroke-miterlimit="10"/>
<path d="M58.5576 65.1724H47.9022V66.3879H58.5576V65.1724Z" fill="white"/>
<path d="M87.112 27.2586H69.3064" stroke="white" stroke-width="3" stroke-miterlimit="10"/>
<path d="M74.7742 24.3103C75.3936 24.3103 75.8958 23.7546 75.8958 23.069C75.8958 22.3834 75.3936 21.8276 74.7742 21.8276C74.1547 21.8276 73.6526 22.3834 73.6526 23.069C73.6526 23.7546 74.1547 24.3103 74.7742 24.3103Z" fill="white"/>
<path d="M78.2326 24.3103C78.852 24.3103 79.3542 23.7546 79.3542 23.069C79.3542 22.3834 78.852 21.8276 78.2326 21.8276C77.6131 21.8276 77.111 22.3834 77.111 23.069C77.111 23.7546 77.6131 24.3103 78.2326 24.3103Z" fill="white"/>
<path d="M81.5975 24.3103C82.2169 24.3103 82.7191 23.7546 82.7191 23.069C82.7191 22.3834 82.2169 21.8276 81.5975 21.8276C80.978 21.8276 80.4758 22.3834 80.4758 23.069C80.4758 23.7546 80.978 24.3103 81.5975 24.3103Z" fill="white"/>
<path d="M87.2989 18.3103H69.8204V65.1776H87.2989V18.3103Z" stroke="white" stroke-width="3" stroke-miterlimit="10"/>
<path d="M17.9925 27.2586H0.18689" stroke="white" stroke-width="3" stroke-miterlimit="10"/>
<path d="M5.70157 24.3103C6.32102 24.3103 6.82318 23.7546 6.82318 23.069C6.82318 22.3834 6.32102 21.8276 5.70157 21.8276C5.08212 21.8276 4.57996 22.3834 4.57996 23.069C4.57996 23.7546 5.08212 24.3103 5.70157 24.3103Z" fill="white"/>
<path d="M9.11307 24.3103C9.73252 24.3103 10.2347 23.7546 10.2347 23.069C10.2347 22.3834 9.73252 21.8276 9.11307 21.8276C8.49362 21.8276 7.99146 22.3834 7.99146 23.069C7.99146 23.7546 8.49362 24.3103 9.11307 24.3103Z" fill="white"/>
<path d="M12.5247 24.3103C13.1441 24.3103 13.6463 23.7546 13.6463 23.069C13.6463 22.3834 13.1441 21.8276 12.5247 21.8276C11.9052 21.8276 11.4031 22.3834 11.4031 23.069C11.4031 23.7546 11.9052 24.3103 12.5247 24.3103Z" fill="white"/>
<path d="M18.1794 18.3103H0.700928V65.1776H18.1794V18.3103Z" stroke="white" stroke-width="3" stroke-miterlimit="10"/>
<path d="M52.6177 43L58 37L52.6177 31L51 32.8031L54.7661 37L51 41.1969L52.6177 43Z" fill="white"/>
<path d="M35.3823 43L30 37L35.3823 31L37 32.8031L33.2339 37L37 41.1969L35.3823 43Z" fill="white"/>
</g>
<defs>
<clipPath id="clip0">
<rect width="88" height="72" fill="white"/>
</clipPath>
</defs>
</svg>
