<svg xmlns="http://www.w3.org/2000/svg" viewBox="0 0 726.46733 208.60171"><defs><style>.cls-1{fill:#d3773e;}</style></defs><g id="레이어_2" data-name="레이어 2"><g id="레이어_1-2" data-name="레이어 1"><polygon class="cls-1" points="480.863 207.82 488.458 180.239 488.41 180.239 480.863 207.82"/><polygon class="cls-1" points="329.516 160.812 329.516 160.062 329.516 144.093 329.516 116.802 329.516 100.402 308.034 100.402 308.034 207.82 329.516 207.82 329.516 191.272 329.516 160.812"/><path class="cls-1" d="M379.9456,150.77169v-.72692c9.14263-3.19135,14.66249-13.3564,14.66249-23.22595,0-20.02869-16.83734-26.4173-38.90495-26.4173H341.61982v16.4h12.77723c12.91907,0,19.30768,3.77643,19.30768,13.21456,0,8.56346-5.95128,14.07741-19.59726,14.07741H341.61982v15.96858H356.5719c14.81024,0,22.64678,4.3556,22.64678,14.80433,0,11.18155-7.98429,16.40591-22.64678,16.40591H341.61982v16.54775h16.84325c23.65738,0,41.659-10.0173,41.659-31.64757C400.122,161.65775,391.55857,153.53162,379.9456,150.77169Z"/><path class="cls-1" d="M496.25265,151.78819c2.74146-9.59991,5.43121-19.93486,7.89933-30.11395l4.45534-21.27272h-15.1146L459.09113,207.82006h21.77211l7.547-27.58155h.048l4.59717-16.6955Z"/><path class="cls-1" d="M530.85518,100.40152h-9.50609L518.078,116.65968c3.19726,11.613,6.099,23.95287,9.43813,35.12851l3.19135,11.75482H505.15889l-4.59718,16.6955h34.79091l7.55287,27.58155h22.49312Z"/><polygon class="cls-1" points="653.397 117.387 653.397 100.402 631.921 100.402 631.921 207.82 653.397 207.82 653.397 167.178 653.397 150.193 653.397 117.387"/><path class="cls-1" d="M701.362,163.8385c12.33989-4.79293,20.46011-14.81023,20.46011-30.92065,0-24.67979-17.84793-32.51633-40.35287-32.51633H665.50069V117.3866h13.93557c13.79373,0,21.34659,3.91827,21.34659,15.53125,0,11.46523-7.55286,17.27467-21.34659,17.27467H665.50069V167.1776h14.95207l22.06761,40.64246h23.947Z"/><polygon class="cls-1" points="55.46 5.081 15.456 5.081 15.456 205.084 55.46 205.084 55.46 118.595 55.46 83.733 55.46 5.081"/><rect class="cls-1" x="55.45966" y="83.7331" width="136.66485" height="34.86232"/><polygon class="cls-1" points="189.027 5.081 189.027 83.733 189.027 118.595 189.027 205.084 228.755 205.084 228.755 5.081 189.027 5.081"/><rect class="cls-1" width="70.91579" height="9.04552"/><rect class="cls-1" y="199.55618" width="70.91579" height="9.04552"/><rect class="cls-1" x="173.43334" y="199.55618" width="70.91579" height="9.04552"/><rect class="cls-1" x="173.43334" width="70.91579" height="9.04552"/></g></g></svg>