<svg width="76" height="76" viewBox="0 0 76 76" fill="none" xmlns="http://www.w3.org/2000/svg">
<path d="M40.8704 25V31.8H22.7058V76H16.6509V55.6H10.596V76H4.54116V48.8H0V31.8C0 29.9965 0.637922 28.2669 1.77343 26.9917C2.90894 25.7164 4.44902 25 6.05488 25H40.8704ZM19.6783 14.8C19.6783 16.6035 19.0404 18.3331 17.9049 19.6083C16.7694 20.8836 15.2293 21.6 13.6235 21.6C12.0176 21.6 10.4775 20.8836 9.34203 19.6083C8.20652 18.3331 7.56859 16.6035 7.56859 14.8C7.56859 12.9965 8.20652 11.2669 9.34203 9.9917C10.4775 8.71645 12.0176 8.00002 13.6235 8.00002C15.2293 8.00002 16.7694 8.71645 17.9049 9.9917C19.0404 11.2669 19.6783 12.9965 19.6783 14.8Z" fill="white"/>
<rect x="30.4856" y="1.5" width="44.0143" height="49" stroke="white" stroke-width="3"/>
<path d="M51.3574 10.8854H53.628V16.6406H51.3574V10.8854Z" fill="white"/>
<path d="M58.9492 18.8276L62.9295 14.7909L64.5348 16.4196L60.5545 20.4552L58.9492 18.8276Z" fill="white"/>
<path d="M62.7104 25.849H68.3869V28.151H62.7104V25.849Z" fill="white"/>
<path d="M58.9492 35.1724L60.5545 33.5448L64.5348 37.5804L62.9295 39.2091L58.9492 35.1724Z" fill="white"/>
<path d="M40.4519 37.5804L44.4322 33.5448L46.0375 35.1735L42.0572 39.2091L40.4519 37.5804Z" fill="white"/>
<path d="M40.4519 16.4196L42.0572 14.7909L46.0375 18.8276L44.4322 20.4552L40.4519 16.4196Z" fill="white"/>
<path d="M50.3557 41.0833H54.6298H50.3557ZM45.0132 27C45.0132 24.9888 45.8012 23.0599 47.2039 21.6378C48.6066 20.2156 50.509 19.4167 52.4927 19.4167C54.4764 19.4167 56.3789 20.2156 57.7816 21.6378C59.1843 23.0599 59.9723 24.9888 59.9723 27C59.973 28.221 59.6817 29.424 59.1234 30.5058C58.5652 31.5877 57.7565 32.5162 56.7668 33.2118L56.1876 35.9917C56.111 36.504 55.8557 36.9716 55.4681 37.3095C55.0805 37.6474 54.5864 37.8332 54.0752 37.8333H50.9103C50.3991 37.8332 49.9049 37.6474 49.5174 37.3095C49.1298 36.9716 48.8745 36.504 48.7978 35.9917L48.2187 33.2237C47.2286 32.5257 46.42 31.595 45.8617 30.5112C45.3035 29.4274 45.0124 28.2227 45.0132 27V27Z" stroke="white" stroke-width="2" stroke-linecap="round" stroke-linejoin="round"/>
<path d="M48.2188 33.5H56.7668" stroke="white" stroke-width="2" stroke-linecap="round" stroke-linejoin="round"/>
</svg>
