<svg width="80" height="80" viewBox="0 0 80 80" fill="none" xmlns="http://www.w3.org/2000/svg">
<path d="M78 78H2.06763V8.13803V2H78V78Z" stroke="white" stroke-width="3" stroke-miterlimit="10"/>
<path d="M77.9324 14.1831H2" stroke="white" stroke-width="3" stroke-miterlimit="10"/>
<path d="M7.79667 9.23542C8.7075 9.23542 9.44588 8.63584 9.44588 7.89621C9.44588 7.15659 8.7075 6.55701 7.79667 6.55701C6.88584 6.55701 6.14746 7.15659 6.14746 7.89621C6.14746 8.63584 6.88584 9.23542 7.79667 9.23542Z" fill="white"/>
<path d="M12.8814 9.23542C13.7922 9.23542 14.5306 8.63584 14.5306 7.89621C14.5306 7.15659 13.7922 6.55701 12.8814 6.55701C11.9706 6.55701 11.2322 7.15659 11.2322 7.89621C11.2322 8.63584 11.9706 9.23542 12.8814 9.23542Z" fill="white"/>
<path d="M17.8289 9.23542C18.7397 9.23542 19.4781 8.63584 19.4781 7.89621C19.4781 7.15659 18.7397 6.55701 17.8289 6.55701C16.9181 6.55701 16.1797 7.15659 16.1797 7.89621C16.1797 8.63584 16.9181 9.23542 17.8289 9.23542Z" fill="white"/>
<path d="M53.311 53L61 44L53.311 35L51 37.7047L56.3801 44L51 50.2953L53.311 53Z" fill="white"/>
<path d="M27.689 53L20 44L27.689 35L30 37.7047L24.6199 44L30 50.2953L27.689 53Z" fill="white"/>
<path d="M37.906 53H35L42.1123 35H45L37.906 53Z" fill="white"/>
</svg>
