<svg width="76" height="76" viewBox="0 0 76 76" fill="none" xmlns="http://www.w3.org/2000/svg">
<path d="M71.3009 64.6667C71.985 64.6669 72.6435 64.9235 73.1434 65.3848C73.6432 65.8461 73.9472 66.4775 73.9938 67.1516C74.0405 67.8256 73.8263 68.4921 73.3946 69.0162C72.9629 69.5403 72.3458 69.883 71.6681 69.9751L71.3009 70H4.70015C4.01606 69.9998 3.35755 69.7431 2.85768 69.2819C2.35781 68.8206 2.05386 68.1892 2.00723 67.5151C1.9606 66.841 2.17478 66.1746 2.60649 65.6505C3.03819 65.1264 3.65524 64.7836 4.33295 64.6916L4.70015 64.6667H71.3009ZM65.8829 6C68.0311 6 70.0914 6.84285 71.6105 8.34315C73.1296 9.84344 73.9829 11.8783 73.9829 14V47.7956C73.9829 49.9173 73.1296 51.9521 71.6105 53.4524C70.0914 54.9527 68.0311 55.7956 65.8829 55.7956H42.407C42.197 56.7965 41.6441 57.6953 40.8415 58.3406C40.0388 58.9859 39.0355 59.3382 38.0005 59.3382C36.9656 59.3382 35.9622 58.9859 35.1596 58.3406C34.357 57.6953 33.8041 56.7965 33.5941 55.7956H10.1002C7.95194 55.7956 5.89165 54.9527 4.37258 53.4524C2.85352 51.9521 2.00012 49.9173 2.00012 47.7956V14C2.00012 11.8783 2.85352 9.84344 4.37258 8.34315C5.89165 6.84285 7.95194 6 10.1002 6H65.8829ZM65.8829 11.3333H10.1002C9.38412 11.3333 8.69736 11.6143 8.191 12.1144C7.68465 12.6145 7.40018 13.2928 7.40018 14V47.7956C7.40018 49.2676 8.6098 50.4622 10.1002 50.4622H65.8829C66.599 50.4622 67.2857 50.1813 67.7921 49.6812C68.2984 49.1811 68.5829 48.5028 68.5829 47.7956V14C68.5829 13.2928 68.2984 12.6145 67.7921 12.1144C67.2857 11.6143 66.599 11.3333 65.8829 11.3333ZM56.9007 39.7778C57.5848 39.778 58.2433 40.0347 58.7432 40.4959C59.2431 40.9572 59.547 41.5886 59.5937 42.2627C59.6403 42.9368 59.4261 43.6032 58.9944 44.1273C58.5627 44.6514 57.9457 44.9941 57.268 45.0862L56.9007 45.1111H19.1003C18.4162 45.1109 17.7577 44.8542 17.2578 44.393C16.758 43.9317 16.454 43.3003 16.4074 42.6262C16.3608 41.9521 16.5749 41.2857 17.0067 40.7616C17.4384 40.2375 18.0554 39.8948 18.7331 39.8027L19.1003 39.7778H56.9007ZM54.2007 27.3333C55.1555 27.3333 56.0712 27.7079 56.7463 28.3747C57.4215 29.0415 57.8008 29.9459 57.8008 30.8889C57.8008 31.8319 57.4215 32.7362 56.7463 33.403C56.0712 34.0698 55.1555 34.4444 54.2007 34.4444C53.2459 34.4444 52.3302 34.0698 51.6551 33.403C50.98 32.7362 50.6007 31.8319 50.6007 30.8889C50.6007 29.9459 50.98 29.0415 51.6551 28.3747C52.3302 27.7079 53.2459 27.3333 54.2007 27.3333ZM32.6185 27.3333C33.5733 27.3333 34.4889 27.7079 35.1641 28.3747C35.8392 29.0415 36.2185 29.9459 36.2185 30.8889C36.2185 31.8319 35.8392 32.7362 35.1641 33.403C34.4889 34.0698 33.5733 34.4444 32.6185 34.4444C31.6637 34.4444 30.748 34.0698 30.0729 33.403C29.3977 32.7362 29.0184 31.8319 29.0184 30.8889C29.0184 29.9459 29.3977 29.0415 30.0729 28.3747C30.748 27.7079 31.6637 27.3333 32.6185 27.3333ZM21.8183 27.3333C22.7731 27.3333 23.6888 27.7079 24.364 28.3747C25.0391 29.0415 25.4184 29.9459 25.4184 30.8889C25.4184 31.8319 25.0391 32.7362 24.364 33.403C23.6888 34.0698 22.7731 34.4444 21.8183 34.4444C20.8636 34.4444 19.9479 34.0698 19.2727 33.403C18.5976 32.7362 18.2183 31.8319 18.2183 30.8889C18.2183 29.9459 18.5976 29.0415 19.2727 28.3747C19.9479 27.7079 20.8636 27.3333 21.8183 27.3333ZM43.4186 27.3333C44.3734 27.3333 45.2891 27.7079 45.9642 28.3747C46.6393 29.0415 47.0186 29.9459 47.0186 30.8889C47.0186 31.8319 46.6393 32.7362 45.9642 33.403C45.2891 34.0698 44.3734 34.4444 43.4186 34.4444C42.4638 34.4444 41.5481 34.0698 40.873 33.403C40.1978 32.7362 39.8186 31.8319 39.8186 30.8889C39.8186 29.9459 40.1978 29.0415 40.873 28.3747C41.5481 27.7079 42.4638 27.3333 43.4186 27.3333ZM16.4003 16.6667C17.3551 16.6667 18.2708 17.0413 18.9459 17.7081C19.621 18.3749 20.0003 19.2792 20.0003 20.2222C20.0003 21.1652 19.621 22.0696 18.9459 22.7364C18.2708 23.4032 17.3551 23.7778 16.4003 23.7778C15.4455 23.7778 14.5298 23.4032 13.8547 22.7364C13.1795 22.0696 12.8002 21.1652 12.8002 20.2222C12.8002 19.2792 13.1795 18.3749 13.8547 17.7081C14.5298 17.0413 15.4455 16.6667 16.4003 16.6667ZM27.1824 16.6667C28.1372 16.6667 29.0529 17.0413 29.728 17.7081C30.4032 18.3749 30.7825 19.2792 30.7825 20.2222C30.7825 21.1652 30.4032 22.0696 29.728 22.7364C29.0529 23.4032 28.1372 23.7778 27.1824 23.7778C26.2276 23.7778 25.3119 23.4032 24.6368 22.7364C23.9617 22.0696 23.5824 21.1652 23.5824 20.2222C23.5824 19.2792 23.9617 18.3749 24.6368 17.7081C25.3119 17.0413 26.2276 16.6667 27.1824 16.6667ZM37.9825 16.6667C38.9373 16.6667 39.853 17.0413 40.5281 17.7081C41.2033 18.3749 41.5826 19.2792 41.5826 20.2222C41.5826 21.1652 41.2033 22.0696 40.5281 22.7364C39.853 23.4032 38.9373 23.7778 37.9825 23.7778C37.0277 23.7778 36.1121 23.4032 35.4369 22.7364C34.7618 22.0696 34.3825 21.1652 34.3825 20.2222C34.3825 19.2792 34.7618 18.3749 35.4369 17.7081C36.1121 17.0413 37.0277 16.6667 37.9825 16.6667ZM48.7827 16.6667C49.7374 16.6667 50.6531 17.0413 51.3283 17.7081C52.0034 18.3749 52.3827 19.2792 52.3827 20.2222C52.3827 21.1652 52.0034 22.0696 51.3283 22.7364C50.6531 23.4032 49.7374 23.7778 48.7827 23.7778C47.8279 23.7778 46.9122 23.4032 46.237 22.7364C45.5619 22.0696 45.1826 21.1652 45.1826 20.2222C45.1826 19.2792 45.5619 18.3749 46.237 17.7081C46.9122 17.0413 47.8279 16.6667 48.7827 16.6667ZM59.5828 16.6667C60.5376 16.6667 61.4533 17.0413 62.1284 17.7081C62.8035 18.3749 63.1828 19.2792 63.1828 20.2222C63.1828 21.1652 62.8035 22.0696 62.1284 22.7364C61.4533 23.4032 60.5376 23.7778 59.5828 23.7778C58.628 23.7778 57.7123 23.4032 57.0372 22.7364C56.362 22.0696 55.9827 21.1652 55.9827 20.2222C55.9827 19.2792 56.362 18.3749 57.0372 17.7081C57.7123 17.0413 58.628 16.6667 59.5828 16.6667Z" fill="black"/>
<rect x="16" y="39" width="44" height="7" rx="3.5" fill="#0D7ACC"/>
</svg>
