<svg width="76" height="76" viewBox="0 0 76 76" fill="none" xmlns="http://www.w3.org/2000/svg">
<path d="M0 43.2768C0 40.4096 2.40615 38.1297 5.26919 38.2841L18.5476 39V65L5.26918 65.7159C2.40615 65.8703 0 63.5904 0 60.7232V43.2768Z" fill="#0D7ACC"/>
<path d="M48.7493 0.222798C44.1018 -0.932667 39.7849 2.56273 39.4738 7.0879C39.1238 12.169 38.3557 16.8344 37.3931 19.6095C36.7855 21.3499 35.0645 24.5069 32.3373 27.5333C29.6295 30.5453 26.105 33.2285 21.9777 34.3501C18.7109 35.2348 15.3809 38.0485 15.3809 42.1579V61.5011C15.3809 65.5863 18.6963 68.5789 22.4201 68.9705C27.6218 69.5217 30.0233 70.9769 32.4734 72.4659L32.7068 72.611C34.0291 73.4087 35.5166 74.2934 37.4223 74.9509C39.3523 75.6084 41.6079 76 44.5491 76H61.5638C66.1189 76 69.3372 73.6939 70.9657 70.856C71.7528 69.5168 72.1782 67.9979 72.2005 66.4469C72.2005 65.712 72.0887 64.9385 71.8262 64.2036C72.8033 62.9321 73.6735 61.4092 74.1985 59.8477C74.7333 58.2523 75.0347 56.1637 74.218 54.2927C74.5534 53.6642 74.8013 52.9922 74.9909 52.3444C75.3653 51.0391 75.5403 49.5984 75.5403 48.2012C75.5403 46.8088 75.3653 45.3729 74.9909 44.0628C74.8209 43.4605 74.5963 42.8747 74.3201 42.3126C75.1713 41.1082 75.719 39.718 75.9169 38.259C76.1149 36.8001 75.9574 35.3152 75.4576 33.9295C74.4562 31.0674 72.1422 28.6114 69.624 27.7799C65.5064 26.4166 60.8589 26.4456 57.3928 26.7598C56.6732 26.8242 55.9551 26.9048 55.2392 27.0015C56.9256 19.8192 56.8222 12.3359 54.9378 5.20241C54.61 4.05947 53.9811 3.02436 53.1161 2.20415C52.2512 1.38394 51.1817 0.808397 50.0181 0.537045L48.7493 0.222798ZM61.5638 71.1702H44.5491C42.0698 71.1702 40.3537 70.8367 39.0071 70.3774C37.6411 69.9084 36.5472 69.2751 35.2347 68.4774L35.0402 68.3614C32.3422 66.7224 29.2163 64.8273 22.9354 64.1649C21.3166 63.9909 20.2422 62.7629 20.2422 61.5059V42.1579C20.2422 40.93 21.3409 39.5328 23.2563 39.0155C28.5795 37.5651 32.8672 34.2002 35.9639 30.758C39.0509 27.3255 41.1364 23.627 41.9823 21.1952C43.1636 17.811 43.9608 12.6477 44.3254 7.41665C44.447 5.66653 46.0755 4.54491 47.568 4.91234L48.8416 5.23142C49.6195 5.42481 50.0959 5.92277 50.2417 6.46424C52.227 13.9869 51.9822 21.9201 49.5368 29.3076C49.3984 29.7185 49.3736 30.1588 49.465 30.5825C49.5564 31.0062 49.7606 31.3977 50.0563 31.7159C50.3519 32.0342 50.7282 32.2676 51.1457 32.3916C51.5632 32.5157 52.0065 32.5259 52.4293 32.4211L52.4439 32.4163L52.512 32.4018L52.7939 32.3341C54.4563 31.983 56.138 31.7296 57.8303 31.575C61.0534 31.285 64.9133 31.314 68.0878 32.3679C68.9385 32.6483 70.2754 33.8183 70.8588 35.5104C71.3789 36.9994 71.2817 38.7496 69.5656 40.4513L67.8496 42.1579L69.5656 43.8694C69.7747 44.0773 70.0761 44.5511 70.3143 45.3923C70.5476 46.1996 70.6789 47.1811 70.6789 48.2012C70.6789 49.2261 70.5476 50.2027 70.3143 51.0149C70.0712 51.8561 69.7747 52.3299 69.5656 52.5378L67.8496 54.2444L69.5656 55.9558C69.7941 56.1831 70.0955 56.8116 69.59 58.3151C69.0631 59.7731 68.2257 61.1007 67.135 62.2069L65.4189 63.9135L67.135 65.625C67.1641 65.6492 67.3343 65.8667 67.3343 66.4469C67.3127 67.156 67.1103 67.8481 66.7461 68.4581C65.9439 69.8504 64.3008 71.1654 61.5638 71.1654V71.1702Z" fill="black"/>
<path d="M4.97876 62.2062C4.97876 62.7585 4.53104 63.2062 3.97876 63.2062C3.42647 63.2062 2.97876 62.7585 2.97876 62.2062C2.97876 61.654 3.42647 61.2062 3.97876 61.2062C4.53104 61.2062 4.97876 61.654 4.97876 62.2062Z" fill="white"/>
</svg>
