<svg xmlns="http://www.w3.org/2000/svg" xmlns:xlink="http://www.w3.org/1999/xlink" viewBox="0 0 1244.3 768.25"><defs><style>.cls-1{fill:url(#linear-gradient);}.cls-2{fill:url(#linear-gradient-2);}</style><linearGradient id="linear-gradient" x1="150.84" y1="-319.92" x2="735.62" y2="393.06" gradientUnits="userSpaceOnUse"><stop offset="0" stop-color="#aae1ff"/><stop offset="1" stop-color="#005ad4"/></linearGradient><linearGradient id="linear-gradient-2" x1="1111.87" y1="642.7" x2="1113.62" y2="770.89" xlink:href="#linear-gradient"/></defs><g id="Layer_2" data-name="Layer 2"><g id="Layer_1-2" data-name="Layer 1"><path class="cls-1" d="M0,0V474.39c76.72,38.53,161.48,68.43,250.47,88.09,90.15,19.91,187.26,29.3,278.41,12S704,509.59,732.49,443.68c29.76-68.88.18-153.06,63-208.68C833.21,201.58,894,188.87,950,174.9c91.21-22.77,184.11-56.77,232.82-117.82,11.75-14.72,23.73-35.14,32.75-57.08Z"/><path class="cls-2" d="M981.66,768.25H1244.3V679.73a180.84,180.84,0,0,0-262.64,88.52Z"/></g></g></svg>