<svg xmlns="http://www.w3.org/2000/svg" xmlns:xlink="http://www.w3.org/1999/xlink" viewBox="0 0 544.66 622.95"><defs><style>.cls-1{fill:none;}.cls-2{isolation:isolate;}.cls-3{opacity:0.59;}.cls-4{clip-path:url(#clip-path);}.cls-5{fill:#a8e7f0;mix-blend-mode:multiply;}.cls-6{fill:#fff;opacity:0.1;}</style><clipPath id="clip-path" transform="translate(171.43 288.7)"><rect class="cls-1" width="326.71" height="231.33"/></clipPath></defs><g class="cls-2"><g id="Layer_2" data-name="Layer 2"><g id="Layer_6" data-name="Layer 6"><g class="cls-3"><g class="cls-4"><path class="cls-5" d="M354.35-30.42A52.76,52.76,0,1,1,280-23.84,52.77,52.77,0,0,1,354.35-30.42Z" transform="translate(171.43 288.7)"/><path class="cls-5" d="M344.28-18.39A52.76,52.76,0,1,1,270-11.82,52.75,52.75,0,0,1,344.28-18.39Z" transform="translate(171.43 288.7)"/><path class="cls-5" d="M334.21-6.37A52.76,52.76,0,1,1,259.88.21,52.77,52.77,0,0,1,334.21-6.37Z" transform="translate(171.43 288.7)"/><path class="cls-6" d="M226.28,109a186.93,186.93,0,0,1-264.37,0c-73-73-73-191.36,0-264.36s191.36-73,264.37,0S299.28,36,226.28,109Z" transform="translate(171.43 288.7)"/><path class="cls-6" d="M187,69.71c-73,73-191.37,73-264.37,0s-73-191.36,0-264.37,191.36-73,264.36,0S260-3.29,187,69.71Z" transform="translate(171.43 288.7)"/><path class="cls-6" d="M147.69,30.42c-73,73-191.36,73-264.37,0s-73-191.37,0-264.37,191.37-73,264.37,0S220.69-42.59,147.69,30.42Z" transform="translate(171.43 288.7)"/><path class="cls-5" d="M119,146.1a109.62,109.62,0,1,1-155,2.05A109.63,109.63,0,0,1,119,146.1Z" transform="translate(171.43 288.7)"/><path class="cls-5" d="M140.84,123.68a109.62,109.62,0,1,1-155,2A109.61,109.61,0,0,1,140.84,123.68Z" transform="translate(171.43 288.7)"/><path class="cls-5" d="M162.68,101.25a109.62,109.62,0,1,1-155,2A109.63,109.63,0,0,1,162.68,101.25Z" transform="translate(171.43 288.7)"/></g></g></g></g></g></svg>