<svg width="1920" height="1239" viewBox="0 0 1920 1239" fill="none" xmlns="http://www.w3.org/2000/svg">
<circle cx="299.5" cy="322.5" r="16.5" stroke="#E8B7F0" stroke-opacity="0.35" stroke-width="2" stroke-dasharray="7 7"/>
<path d="M305.524 284.706C306.169 286.789 306.614 288.958 306.836 291.191L305.841 291.29C305.946 292.346 306 293.417 306 294.5C306 295.583 305.946 296.654 305.841 297.71L306.836 297.809C306.614 300.042 306.169 302.211 305.524 304.294L304.569 303.998C303.929 306.062 303.087 308.038 302.064 309.906L302.942 310.386C301.877 312.33 300.623 314.158 299.205 315.847L298.439 315.203C297.061 316.843 295.523 318.348 293.848 319.694L294.474 320.474C292.76 321.851 290.907 323.067 288.939 324.099L288.475 323.213C286.592 324.199 284.6 325.011 282.523 325.627L282.807 326.585C280.719 327.204 278.546 327.63 276.31 327.843L276.215 326.848C275.157 326.948 274.085 327 273 327C271.915 327 270.843 326.948 269.785 326.848L269.69 327.843C267.454 327.63 265.281 327.204 263.193 326.585L263.477 325.627C261.4 325.011 259.408 324.199 257.525 323.213L257.061 324.099C255.093 323.067 253.24 321.851 251.526 320.474L252.152 319.694C250.477 318.348 248.939 316.843 247.561 315.203L246.795 315.847C245.377 314.158 244.123 312.33 243.058 310.386L243.936 309.906C242.913 308.038 242.071 306.062 241.431 303.998L240.476 304.294C239.831 302.211 239.386 300.042 239.164 297.809L240.159 297.71C240.054 296.654 240 295.583 240 294.5C240 293.417 240.054 292.346 240.159 291.29L239.164 291.191C239.386 288.958 239.831 286.789 240.476 284.706L241.431 285.002C242.071 282.938 242.913 280.962 243.936 279.094L243.058 278.614C244.123 276.67 245.377 274.842 246.795 273.153L247.561 273.797C248.939 272.157 250.477 270.652 252.152 269.306L251.526 268.526C253.24 267.149 255.093 265.933 257.061 264.901L257.525 265.787C259.408 264.801 261.4 263.989 263.477 263.373L263.193 262.415C265.281 261.796 267.454 261.37 269.69 261.157L269.785 262.152C270.843 262.052 271.915 262 273 262C274.085 262 275.157 262.052 276.215 262.152L276.31 261.157C278.546 261.37 280.719 261.796 282.807 262.415L282.523 263.373C284.6 263.989 286.592 264.801 288.475 265.787L288.939 264.901C290.907 265.933 292.76 267.149 294.474 268.526L293.848 269.306C295.523 270.652 297.061 272.157 298.439 273.797L299.205 273.153C300.623 274.842 301.877 276.67 302.942 278.614L302.064 279.094C303.087 280.962 303.929 282.938 304.569 285.002L305.524 284.706Z" stroke="#E8B7F0" stroke-opacity="0.35" stroke-width="2" stroke-dasharray="7 7"/>
<circle cx="1231.87" cy="1181.87" r="16.4526" transform="rotate(67.1159 1231.87 1181.87)" stroke="#E8B7F0" stroke-opacity="0.35" stroke-width="2" stroke-dasharray="7 7"/>
<circle cx="1518.63" cy="952.632" r="8.64152" transform="rotate(67.1159 1518.63 952.632)" stroke="#E8B7F0" stroke-opacity="0.35" stroke-width="2" stroke-dasharray="7 7"/>
<circle cx="1434.46" cy="851.456" r="39.038" transform="rotate(67.1159 1434.46 851.456)" stroke="#E8B7F0" stroke-opacity="0.35" stroke-width="2" stroke-dasharray="7 7"/>
<circle r="10.5" transform="matrix(-1 0 0 1 637.5 873.5)" stroke="#E8B7F0" stroke-opacity="0.35" stroke-width="2" stroke-dasharray="7 7"/>
<circle r="8" transform="matrix(-1 0 0 1 70 467)" stroke="#E8B7F0" stroke-opacity="0.35" stroke-width="2" stroke-dasharray="7 7"/>
<circle r="8" transform="matrix(-1 0 0 1 769 321)" stroke="#E8B7F0" stroke-opacity="0.35" stroke-width="2" stroke-dasharray="7 7"/>
<circle r="8" transform="matrix(-1 0 0 1 1159 658)" stroke="#E8B7F0" stroke-opacity="0.35" stroke-width="2" stroke-dasharray="7 7"/>
<circle r="8" transform="matrix(-1 0 0 1 245 1185)" stroke="#E8B7F0" stroke-opacity="0.35" stroke-width="2" stroke-dasharray="7 7"/>
<circle r="8" transform="matrix(-1 0 0 1 951 1033)" stroke="#E8B7F0" stroke-opacity="0.35" stroke-width="2" stroke-dasharray="7 7"/>
<circle cx="190.5" cy="814.5" r="53.5" stroke="#E8B7F0" stroke-opacity="0.35" stroke-width="2" stroke-dasharray="7 7"/>
<circle cx="497" cy="665" r="31" stroke="#E8B7F0" stroke-opacity="0.35" stroke-width="2" stroke-dasharray="7 7"/>
<circle cx="360" cy="1074" r="20" stroke="#E8B7F0" stroke-opacity="0.35" stroke-width="2" stroke-dasharray="7 7"/>
<circle cx="1148" cy="1053" r="20" stroke="#E8B7F0" stroke-opacity="0.35" stroke-width="2" stroke-dasharray="7 7"/>
<circle r="66" transform="matrix(-1 0 0 1 1771 743)" stroke="#E8B7F0" stroke-opacity="0.35" stroke-width="2" stroke-dasharray="7 7"/>
<circle cx="1852.8" cy="321.208" r="31.2162" transform="rotate(67.1159 1852.8 321.208)" stroke="#E8B7F0" stroke-opacity="0.35" stroke-width="2" stroke-dasharray="7 7"/>
<circle cx="1503.14" cy="494.914" r="9.50381" transform="rotate(67.1159 1503.14 494.914)" stroke="#E8B7F0" stroke-opacity="0.35" stroke-width="2" stroke-dasharray="7 7"/>
</svg>
