<svg width="76" height="76" viewBox="0 0 76 76" fill="none" xmlns="http://www.w3.org/2000/svg">
<g clip-path="url(#clip0)">
<path d="M73.5217 20.0188V71.1262C73.5217 71.7616 73.2693 72.3709 72.82 72.8202C72.3708 73.2695 71.7614 73.5218 71.1261 73.5218H20.0187C19.3833 73.5218 18.774 73.2695 18.3247 72.8202C17.8754 72.3709 17.623 71.7616 17.623 71.1262V20.0188C17.623 19.3835 17.8754 18.7741 18.3247 18.3248C18.774 17.8756 19.3833 17.6232 20.0187 17.6232H71.1261C71.7614 17.6232 72.3708 17.8756 72.82 18.3248C73.2693 18.7741 73.5217 19.3835 73.5217 20.0188V20.0188Z" stroke="white" stroke-width="5" stroke-linecap="round" stroke-linejoin="round"/>
<path d="M61.5434 5.64487H8.04043C7.40506 5.64487 6.79572 5.89727 6.34645 6.34654C5.89717 6.79581 5.64478 7.40516 5.64478 8.04052V61.5435" stroke="white" stroke-width="5" stroke-linecap="round" stroke-linejoin="round"/>
<path d="M17.623 56.7522L39.3596 49.5652L73.5217 61.5435" stroke="white" stroke-width="5" stroke-linecap="round" stroke-linejoin="round"/>
<path d="M55.5543 41.5797C53.9659 41.5797 52.4425 40.9487 51.3194 39.8256C50.1962 38.7024 49.5652 37.179 49.5652 35.5906C49.5652 34.0022 50.1962 32.4788 51.3194 31.3556C52.4425 30.2324 53.9659 29.6014 55.5543 29.6014C57.1427 29.6014 58.6661 30.2324 59.7893 31.3556C60.9125 32.4788 61.5435 34.0022 61.5435 35.5906C61.5435 37.179 60.9125 38.7024 59.7893 39.8256C58.6661 40.9487 57.1427 41.5797 55.5543 41.5797Z" stroke="white" stroke-width="5" stroke-linecap="round" stroke-linejoin="round"/>
</g>
<defs>
<clipPath id="clip0">
<rect width="76" height="76" fill="white"/>
</clipPath>
</defs>
</svg>
