<svg width="76" height="76" viewBox="0 0 76 76" fill="#fff" xmlns="http://www.w3.org/2000/svg">
<path d="M65.2218 59.6057C66.7418 57.0724 67.64 54.141 67.64 50.9562C67.64 41.9448 60.6964 34.6705 52.0945 34.6705C43.4927 34.6705 36.5491 41.9448 36.5491 50.9562C36.5491 59.9676 43.4927 67.2419 52.06 67.2419C55.1 67.2419 57.9327 66.3009 60.3164 64.7086L71.0945 76L76 70.861L65.2218 59.6057ZM52.0945 60.0038C49.804 60.0038 47.6073 59.0506 45.9877 57.3538C44.3681 55.6571 43.4582 53.3558 43.4582 50.9562C43.4582 48.5566 44.3681 46.2553 45.9877 44.5586C47.6073 42.8618 49.804 41.9086 52.0945 41.9086C54.3851 41.9086 56.5817 42.8618 58.2014 44.5586C59.821 46.2553 60.7309 48.5566 60.7309 50.9562C60.7309 53.3558 59.821 55.6571 58.2014 57.3538C56.5817 59.0506 54.3851 60.0038 52.0945 60.0038ZM50.8509 29.2419C48.2945 29.3143 45.8418 29.8933 43.5964 30.8705L41.6964 27.8667L28.5691 50.2324L18.1709 37.4933L5.63091 58.52L0 54.2857L17.2727 25.3333L27.6364 38L41.4545 14.4762L50.8509 29.2419V29.2419ZM59.7982 31.0514C57.5873 30.0381 55.2036 29.4229 52.7164 29.2781L70.4036 0L76 4.27048L59.7982 31.0514V31.0514Z" fill="#fff"/>
</svg>
