<svg width="76" height="76" viewBox="0 0 76 76" fill="none" xmlns="http://www.w3.org/2000/svg">
<circle cx="38.0001" cy="38" r="18.2836" stroke="white" stroke-width="2"/>
<circle cx="37.9999" cy="38" r="24.5224" stroke="white" stroke-width="2"/>
<circle cx="38" cy="38" r="37" stroke="white" stroke-width="2"/>
<line x1="67.0167" y1="16.6332" x2="57.942" y2="24.5735" stroke="white" stroke-width="2"/>
<line x1="73.9186" y1="31.6092" x2="62.0081" y2="33.8779" stroke="white" stroke-width="2"/>
<line x1="62.2025" y1="65.3152" x2="54.2622" y2="56.2406" stroke="white" stroke-width="2"/>
<line x1="37.0092" y1="13.7471" x2="35.3077" y2="1.26944" stroke="white" stroke-width="2"/>
<path d="M48.1032 35.9998C48.3502 35.9998 48.5522 35.7964 48.5522 35.5478V34.0413C48.5522 33.7927 48.3502 33.5893 48.1032 33.5893H46.3072L47.0032 30.5536C47.0668 30.2712 46.8535 30 46.5654 30H44.8405C44.6272 30 44.4438 30.1507 44.4027 30.3578L43.8639 33.5893H39.7517L39.0146 30.3503C38.966 30.1431 38.7864 30 38.5768 30H36.9305C36.721 30 36.5414 30.1431 36.4927 30.3503L35.7444 33.5893H31.6771L31.0223 30.3616C30.9812 30.1507 30.7941 30 30.5808 30H29.0056C28.7174 30 28.5042 30.2674 28.5678 30.5499L29.245 33.5893H27.449C27.2021 33.5893 27 33.7927 27 34.0413V35.5478C27 35.7964 27.2021 35.9998 27.449 35.9998H29.7801L30.0495 37.205H27.449C27.2021 37.205 27 37.4084 27 37.6569V39.1635C27 39.412 27.2021 39.6154 27.449 39.6154H30.5883L32.1187 46.4927C32.1636 46.6999 32.3469 46.8468 32.5564 46.8468H34.6817C34.8913 46.8468 35.0709 46.6999 35.1195 46.4965L36.7022 39.6154H38.7639L40.3504 46.4965C40.3991 46.6999 40.5787 46.8468 40.7882 46.8468H42.9135C43.123 46.8468 43.3026 46.6999 43.3513 46.4965L44.9265 39.6154H48.1032C48.3502 39.6154 48.5522 39.412 48.5522 39.1635V37.6569C48.5522 37.4084 48.3502 37.205 48.1032 37.205H45.4803L45.7572 35.9998H48.1032ZM33.8773 41.6492C33.6453 42.621 33.6228 43.4269 33.6041 43.4269H33.563C33.563 43.4269 33.4993 42.5984 33.3085 41.6492L32.8969 39.6154H34.3487L33.8773 41.6492ZM34.9062 37.205H32.4068L32.1636 35.9998H35.1869L34.9062 37.205ZM37.2598 37.205L37.3346 36.8811C37.4057 36.5798 37.4656 36.2785 37.5142 35.9998H37.9557C38.0044 36.2785 38.0642 36.5798 38.1353 36.8811L38.2102 37.205H37.2598ZM42.1577 41.6492C41.9668 42.5984 41.9032 43.4269 41.9032 43.4269H41.8621C41.8396 43.4269 41.8209 42.621 41.5889 41.6492L41.1249 39.6154H42.588L42.1577 41.6492ZM43.1006 37.205H40.5787L40.3055 35.9998H43.3587L43.1006 37.205Z" fill="white"/>
</svg>
