<svg width="61" height="88" viewBox="0 0 61 88" fill="none" xmlns="http://www.w3.org/2000/svg">
<g clip-path="url(#clip0)">
<path d="M3.40033 71.1489H38.8763C40.7099 71.1489 42.2021 69.6526 42.2021 67.8138V3.33511C42.2021 1.49635 40.7099 0 38.8763 0H3.40033C1.56667 0 0.0744629 1.49635 0.0744629 3.33511V67.8138C0.0744629 69.6526 1.56667 71.1489 3.40033 71.1489ZM2.29171 3.33511C2.29171 3.04026 2.40851 2.7575 2.61642 2.54901C2.82432 2.34053 3.10631 2.2234 3.40033 2.2234H38.8763C39.1703 2.2234 39.4523 2.34053 39.6602 2.54901C39.8681 2.7575 39.9849 3.04026 39.9849 3.33511V67.8138C39.9849 68.1087 39.8681 68.3914 39.6602 68.5999C39.4523 68.8084 39.1703 68.9255 38.8763 68.9255H3.40033C3.10631 68.9255 2.82432 68.8084 2.61642 68.5999C2.40851 68.3914 2.29171 68.1087 2.29171 67.8138V3.33511Z" fill="white"/>
<path d="M5.61766 60.0319H36.6591C36.9531 60.0319 37.2351 59.9148 37.443 59.7063C37.6509 59.4978 37.7677 59.2151 37.7677 58.9202V12.2287C37.7677 11.9339 37.6509 11.6511 37.443 11.4426C37.2351 11.2342 36.9531 11.117 36.6591 11.117H5.61766C5.32363 11.117 5.04165 11.2342 4.83374 11.4426C4.62583 11.6511 4.50903 11.9339 4.50903 12.2287V58.9202C4.50903 59.2151 4.62583 59.4978 4.83374 59.7063C5.04165 59.9148 5.32363 60.0319 5.61766 60.0319ZM6.72628 13.3404H35.5505V57.8085H6.72628V13.3404Z" fill="white"/>
<path d="M22.247 66.7021C23.4716 66.7021 24.4643 65.7067 24.4643 64.4787C24.4643 63.2508 23.4716 62.2553 22.247 62.2553C21.0225 62.2553 20.0298 63.2508 20.0298 64.4787C20.0298 65.7067 21.0225 66.7021 22.247 66.7021Z" fill="white"/>
<path d="M16.7038 8.89363H25.5728C25.8668 8.89363 26.1488 8.77651 26.3567 8.56802C26.5646 8.35954 26.6814 8.07677 26.6814 7.78193C26.6814 7.48709 26.5646 7.20432 26.3567 6.99584C26.1488 6.78735 25.8668 6.67023 25.5728 6.67023H16.7038C16.4098 6.67023 16.1278 6.78735 15.9199 6.99584C15.712 7.20432 15.5952 7.48709 15.5952 7.78193C15.5952 8.07677 15.712 8.35954 15.9199 8.56802C16.1278 8.77651 16.4098 8.89363 16.7038 8.89363V8.89363Z" fill="white"/>
</g>
<g clip-path="url(#clip1)">
<path d="M59.5906 59.728C59.5573 59.4134 59.4391 59.1118 59.247 58.8515C59.055 58.5912 58.7954 58.3807 58.4925 58.2397L42.4613 50.7511C42.1829 50.621 41.8759 50.5532 41.5646 50.5532C41.2533 50.5532 40.9462 50.621 40.6678 50.7511L24.6367 58.2397C24.3346 58.3815 24.0758 58.5923 23.8842 58.8525C23.6926 59.1126 23.5744 59.4138 23.5405 59.728C23.5185 59.9284 21.6148 79.8854 40.752 87.8364C41.0077 87.9442 41.285 88 41.5656 88C41.8461 88 42.1234 87.9442 42.3792 87.8364C61.5164 79.8854 59.6127 59.9302 59.5906 59.728V59.728ZM41.5656 84.0603V69.276H28.5603C27.7822 66.6144 27.4151 63.8626 27.4702 61.1041L41.5656 54.5197V69.276H54.5107C52.9898 74.4057 49.505 80.4695 41.5656 84.0603Z" fill="white"/>
</g>
<defs>
<clipPath id="clip0">
<rect width="42.1277" height="71.1489" fill="white" transform="translate(0.0744629)"/>
</clipPath>
<clipPath id="clip1">
<rect width="39.3191" height="37.4468" fill="white" transform="translate(21.6064 50.5532)"/>
</clipPath>
</defs>
</svg>
