<svg width="76" height="76" viewBox="0 0 76 76" fill="none" xmlns="http://www.w3.org/2000/svg">
<g clip-path="url(#clip0)">
<path d="M41.7408 20.7838V-1.27512H19.6818C17.7317 -1.27512 15.8614 -0.500429 14.4825 0.878523C13.1035 2.25747 12.3289 4.12774 12.3289 6.07787V25.5743C16.5292 23.1467 21.4127 22.1715 26.2232 22.7997C31.0338 23.4279 35.5031 25.6245 38.9392 29.0493C42.3753 32.4741 44.5865 36.9361 45.2306 41.7446C45.8746 46.553 44.9156 51.4397 42.5018 55.648L55.4798 68.626C56.5019 69.6444 57.1085 70.9275 57.2997 72.2547H63.7997C65.7499 72.2547 67.6201 71.48 68.9991 70.1011C70.378 68.7221 71.1527 66.8519 71.1527 64.9017V28.1368H49.0938C47.1436 28.1368 45.2734 27.3621 43.8944 25.9832C42.5155 24.6042 41.7408 22.734 41.7408 20.7838Z" fill="black"/>
<path d="M48.9837 75.1224C49.2361 75.3933 49.5405 75.6106 49.8787 75.7613C50.217 75.912 50.5821 75.993 50.9523 75.9996C51.3226 76.0061 51.6903 75.938 52.0337 75.7993C52.377 75.6606 52.6889 75.4542 52.9507 75.1924C53.2126 74.9306 53.419 74.6187 53.5577 74.2753C53.6963 73.932 53.7644 73.5642 53.7579 73.194C53.7514 72.8238 53.6703 72.4586 53.5196 72.1204C53.3689 71.7822 53.1516 71.4778 52.8807 71.2253L37.763 56.1039C40.3453 52.8572 41.7479 48.8295 41.741 44.681C41.7466 39.8678 39.8581 35.2456 36.4836 31.8133C34.7743 30.0651 32.7325 28.6765 30.4784 27.7294C28.2243 26.7823 25.8035 26.2958 23.3585 26.2986C19.3801 26.2927 15.5082 27.5834 12.329 29.9751C8.45989 32.8487 5.87407 37.1269 5.1284 41.8885C4.38274 46.65 5.53687 51.5139 8.34228 55.4328C11.1477 59.3517 15.3799 62.012 20.1277 62.841C24.8754 63.67 29.7588 62.6013 33.7262 59.865L48.9837 75.1224ZM23.3585 31.8133C25.0483 31.8133 26.7216 32.1462 28.2828 32.7928C29.8439 33.4395 31.2625 34.3873 32.4574 35.5822C33.6522 36.7771 34.6001 38.1956 35.2467 39.7568C35.8934 41.318 36.2262 42.9912 36.2262 44.681C36.2262 46.3709 35.8934 48.0441 35.2467 49.6053C34.6001 51.1665 33.6522 52.585 32.4574 53.7799C31.2625 54.9748 29.8439 55.9226 28.2828 56.5693C26.7216 57.2159 25.0483 57.5488 23.3585 57.5488C19.9458 57.5488 16.6728 56.1931 14.2596 53.7799C11.8465 51.3667 10.4908 48.0938 10.4908 44.681C10.4908 41.2683 11.8465 37.9954 14.2596 35.5822C16.6728 33.169 19.9458 31.8133 23.3585 31.8133V31.8133Z" fill="black"/>
<path d="M47.2556 20.7838V0.563133L69.3146 22.6221H49.0939C48.6063 22.6221 48.1388 22.4284 47.794 22.0837C47.4493 21.7389 47.2556 21.2714 47.2556 20.7838Z" fill="#79CAFF"/>
</g>
<defs>
<clipPath id="clip0">
<rect width="76" height="76" fill="white"/>
</clipPath>
</defs>
</svg>
