<svg width="76" height="76" viewBox="0 0 76 76" fill="none" xmlns="http://www.w3.org/2000/svg">
<path fill-rule="evenodd" clip-rule="evenodd" d="M24.4716 13.4958L11.5733 29.5712L8.72827 27.1656L21.6266 11.0902L24.4716 13.4958V13.4958Z" fill="black"/>
<path fill-rule="evenodd" clip-rule="evenodd" d="M66.3669 13.4958L53.4685 29.5712L50.6235 27.1656L63.5219 11.0902L66.3669 13.4958V13.4958Z" fill="black"/>
<path fill-rule="evenodd" clip-rule="evenodd" d="M30.5487 13.2554L43.447 29.3308L46.292 26.9252L33.3937 10.8497L30.5487 13.2554V13.2554Z" fill="black"/>
<path fill-rule="evenodd" clip-rule="evenodd" d="M26.7342 11.3474C27.7116 11.3474 28.649 10.9489 29.3401 10.2395C30.0312 9.53016 30.4195 8.56808 30.4195 7.56491C30.4195 6.56174 30.0312 5.59966 29.3401 4.89031C28.649 4.18096 27.7116 3.78246 26.7342 3.78246C25.7569 3.78246 24.8195 4.18096 24.1284 4.89031C23.4373 5.59966 23.049 6.56174 23.049 7.56491C23.049 8.56808 23.4373 9.53016 24.1284 10.2395C24.8195 10.9489 25.7569 11.3474 26.7342 11.3474ZM26.7342 15.1298C28.689 15.1298 30.5637 14.3328 31.9459 12.9141C33.3282 11.4954 34.1047 9.57125 34.1047 7.56491C34.1047 5.55857 33.3282 3.63441 31.9459 2.21571C30.5637 0.797017 28.689 0 26.7342 0C24.7795 0 22.9048 0.797017 21.5225 2.21571C20.1403 3.63441 19.3638 5.55857 19.3638 7.56491C19.3638 9.57125 20.1403 11.4954 21.5225 12.9141C22.9048 14.3328 24.7795 15.1298 26.7342 15.1298Z" fill="#79CAFF"/>
<path fill-rule="evenodd" clip-rule="evenodd" d="M68.6295 11.3474C69.6069 11.3474 70.5442 10.9489 71.2354 10.2395C71.9265 9.53016 72.3147 8.56808 72.3147 7.56491C72.3147 6.56174 71.9265 5.59966 71.2354 4.89031C70.5442 4.18096 69.6069 3.78246 68.6295 3.78246C67.6521 3.78246 66.7148 4.18096 66.0236 4.89031C65.3325 5.59966 64.9443 6.56174 64.9443 7.56491C64.9443 8.56808 65.3325 9.53016 66.0236 10.2395C66.7148 10.9489 67.6521 11.3474 68.6295 11.3474ZM68.6295 15.1298C70.5843 15.1298 72.459 14.3328 73.8412 12.9141C75.2234 11.4954 76 9.57125 76 7.56491C76 5.55857 75.2234 3.63441 73.8412 2.21571C72.459 0.797017 70.5843 0 68.6295 0C66.6747 0 64.8 0.797017 63.4178 2.21571C62.0356 3.63441 61.259 5.55857 61.259 7.56491C61.259 9.57125 62.0356 11.4954 63.4178 12.9141C64.8 14.3328 66.6747 15.1298 68.6295 15.1298Z" fill="#79CAFF"/>
<path fill-rule="evenodd" clip-rule="evenodd" d="M47.6498 35.3943C46.6724 35.3943 45.735 34.9958 45.0439 34.2864C44.3528 33.5771 43.9646 32.615 43.9646 31.6118C43.9646 30.6086 44.3528 29.6466 45.0439 28.9372C45.735 28.2279 46.6724 27.8294 47.6498 27.8294C48.6272 27.8294 49.5645 28.2279 50.2557 28.9372C50.9468 29.6466 51.335 30.6086 51.335 31.6118C51.335 32.615 50.9468 33.5771 50.2557 34.2864C49.5645 34.9958 48.6272 35.3943 47.6498 35.3943ZM47.6498 39.1767C45.695 39.1767 43.8203 38.3797 42.4381 36.961C41.0559 35.5423 40.2793 33.6182 40.2793 31.6118C40.2793 29.6055 41.0559 27.6813 42.4381 26.2626C43.8203 24.8439 45.695 24.0469 47.6498 24.0469C49.6046 24.0469 51.4793 24.8439 52.8615 26.2626C54.2437 27.6813 55.0203 29.6055 55.0203 31.6118C55.0203 33.6182 54.2437 35.5423 52.8615 36.961C51.4793 38.3797 49.6046 39.1767 47.6498 39.1767Z" fill="#79CAFF"/>
<path fill-rule="evenodd" clip-rule="evenodd" d="M7.37047 35.6347C8.34786 35.6347 9.28521 35.2362 9.97633 34.5269C10.6674 33.8175 11.0557 32.8554 11.0557 31.8523C11.0557 30.8491 10.6674 29.887 9.97633 29.1777C9.28521 28.4683 8.34786 28.0698 7.37047 28.0698C6.39309 28.0698 5.45573 28.4683 4.76461 29.1777C4.0735 29.887 3.68524 30.8491 3.68524 31.8523C3.68524 32.8554 4.0735 33.8175 4.76461 34.5269C5.45573 35.2362 6.39309 35.6347 7.37047 35.6347ZM7.37047 39.4172C9.32524 39.4172 11.1999 38.6202 12.5822 37.2015C13.9644 35.7828 14.7409 33.8586 14.7409 31.8523C14.7409 29.8459 13.9644 27.9218 12.5822 26.5031C11.1999 25.0844 9.32524 24.2874 7.37047 24.2874C5.4157 24.2874 3.54099 25.0844 2.15876 26.5031C0.776531 27.9218 0 29.8459 0 31.8523C0 33.8586 0.776531 35.7828 2.15876 37.2015C3.54099 38.6202 5.4157 39.4172 7.37047 39.4172V39.4172Z" fill="#79CAFF"/>
<rect x="4" y="53.0548" width="12" height="11.5342" fill="white" stroke="black" stroke-width="2"/>
<rect x="23" y="40.5616" width="12" height="24.0274" fill="white" stroke="black" stroke-width="2"/>
<rect x="42" y="49.9315" width="12" height="14.6575" fill="white" stroke="black" stroke-width="2"/>
<rect x="61" y="35.3562" width="12" height="29.2329" fill="white" stroke="black" stroke-width="2"/>
<path d="M0 71.7945C0 71.2422 0.447715 70.7945 1 70.7945H75C75.5523 70.7945 76 71.2422 76 71.7945V75C76 75.5523 75.5523 76 75 76H1C0.447716 76 0 75.5523 0 75V71.7945Z" fill="black"/>
</svg>
