<svg width="72" height="76" viewBox="0 0 72 76" fill="none" xmlns="http://www.w3.org/2000/svg">
<path fill-rule="evenodd" clip-rule="evenodd" d="M8.09058 8.86667C8.09058 8.53073 8.23265 8.20854 8.48553 7.971C8.73841 7.73345 9.08138 7.6 9.43901 7.6H55.2856C55.6433 7.6 55.9862 7.73345 56.2391 7.971C56.492 8.20854 56.6341 8.53073 56.6341 8.86667V33.1768C56.6341 34.1846 57.0603 35.1511 57.8189 35.8638C58.5775 36.5764 59.6065 36.9768 60.6794 36.9768C61.7522 36.9768 62.7812 36.5764 63.5398 35.8638C64.2984 35.1511 64.7246 34.1846 64.7246 33.1768V8.86667C64.7246 6.51508 63.7302 4.25981 61.96 2.59699C60.1899 0.934164 57.789 0 55.2856 0H9.43901C6.93563 0 4.53478 0.934164 2.76462 2.59699C0.994464 4.25981 0 6.51508 0 8.86667V67.1333C0 72.0277 4.22868 76 9.43901 76H26.5371C27.61 76 28.6389 75.5996 29.3976 74.887C30.1562 74.1744 30.5824 73.2078 30.5824 72.2C30.5824 71.1922 30.1562 70.2256 29.3976 69.513C28.6389 68.8004 27.61 68.4 26.5371 68.4H9.43901C9.08138 68.4 8.73841 68.2666 8.48553 68.029C8.23265 67.7915 8.09058 67.4693 8.09058 67.1333V8.86667ZM20.2265 20.2667C19.1536 20.2667 18.1246 20.667 17.366 21.3797C16.6074 22.0923 16.1812 23.0588 16.1812 24.0667C16.1812 25.0745 16.6074 26.041 17.366 26.7537C18.1246 27.4663 19.1536 27.8667 20.2265 27.8667H44.4982C45.5711 27.8667 46.6 27.4663 47.3586 26.7537C48.1173 26.041 48.5435 25.0745 48.5435 24.0667C48.5435 23.0588 48.1173 22.0923 47.3586 21.3797C46.6 20.667 45.5711 20.2667 44.4982 20.2667H20.2265ZM16.1812 39.2667C16.1812 38.2588 16.6074 37.2923 17.366 36.5797C18.1246 35.867 19.1536 35.4667 20.2265 35.4667H31.0139C32.0868 35.4667 33.1157 35.867 33.8743 36.5797C34.633 37.2923 35.0592 38.2588 35.0592 39.2667C35.0592 40.2745 34.633 41.241 33.8743 41.9537C33.1157 42.6663 32.0868 43.0667 31.0139 43.0667H20.2265C19.1536 43.0667 18.1246 42.6663 17.366 41.9537C16.6074 41.241 16.1812 40.2745 16.1812 39.2667Z" fill="black"/>
<rect x="15.8972" y="20.2667" width="32.9301" height="8.53333" rx="4" fill="#79CAFF"/>
<rect x="15.8972" y="35.2" width="19.3038" height="8.53333" rx="4" fill="#79CAFF"/>
<path d="M66.1052 40.4062C65.3324 40.4081 64.5676 40.5627 63.855 40.8612C63.1423 41.1597 62.4959 41.5962 61.953 42.1455L39.3581 64.7081L39.2695 65.1548L37.7057 73.0034L37.2598 75.0983L39.3587 74.6532L47.217 73.0927L47.6628 73.0028L70.2578 50.4402C70.8093 49.899 71.2473 49.2535 71.5463 48.5414C71.8454 47.8293 71.9994 47.0648 71.9995 46.2926C71.9996 45.5204 71.8456 44.7559 71.5467 44.0438C71.2478 43.3316 70.8099 42.686 70.2585 42.1447C69.7154 41.5954 69.0687 41.159 68.3559 40.8606C67.643 40.5622 66.8781 40.4078 66.1052 40.4062ZM66.105 43.1262C66.8251 43.1263 67.5508 43.4545 68.248 44.1524C69.6381 45.5396 69.638 47.0452 68.2477 48.4336L67.2217 49.4139L62.9786 45.1766L63.9617 44.1521C64.6604 43.4543 65.3849 43.1261 66.105 43.1262ZM60.9711 47.1843L65.2113 51.4216L47.9318 68.676C46.9992 66.8531 45.5143 65.3708 43.6887 64.4402L60.9711 47.1843ZM41.8597 66.7604C42.7053 67.1003 43.4733 67.6073 44.1178 68.2511C44.7622 68.8949 45.2698 69.6621 45.6099 70.5068L40.9206 71.4425L41.8597 66.7604Z" fill="black"/>
</svg>
