<svg width="76" height="76" viewBox="0 0 76 76" fill="none" xmlns="http://www.w3.org/2000/svg">
<path d="M71.3008 64.6667C71.9849 64.6669 72.6434 64.9235 73.1433 65.3848C73.6431 65.8461 73.9471 66.4775 73.9937 67.1516C74.0403 67.8256 73.8262 68.4921 73.3945 69.0162C72.9628 69.5403 72.3457 69.883 71.668 69.9751L71.3008 70H4.70003C4.01594 69.9998 3.35743 69.7431 2.85756 69.2819C2.35769 68.8206 2.05373 68.1892 2.00711 67.5151C1.96048 66.841 2.17466 66.1746 2.60636 65.6505C3.03807 65.1264 3.65512 64.7836 4.33283 64.6916L4.70003 64.6667H71.3008ZM65.8827 6C68.031 6 70.0913 6.84285 71.6104 8.34315C73.1294 9.84344 73.9828 11.8783 73.9828 14V47.7956C73.9828 49.9173 73.1294 51.9521 71.6104 53.4524C70.0913 54.9527 68.031 55.7956 65.8827 55.7956H42.4069C42.1969 56.7965 41.644 57.6953 40.8413 58.3406C40.0387 58.9859 39.0354 59.3382 38.0004 59.3382C36.9655 59.3382 35.9621 58.9859 35.1595 58.3406C34.3568 57.6953 33.804 56.7965 33.594 55.7956H10.1001C7.95181 55.7956 5.89152 54.9527 4.37246 53.4524C2.8534 51.9521 2 49.9173 2 47.7956V14C2 11.8783 2.8534 9.84344 4.37246 8.34315C5.89152 6.84285 7.95181 6 10.1001 6H65.8827ZM65.8827 11.3333H10.1001C9.384 11.3333 8.69724 11.6143 8.19088 12.1144C7.68453 12.6145 7.40006 13.2928 7.40006 14V47.7956C7.40006 49.2676 8.60968 50.4622 10.1001 50.4622H65.8827C66.5988 50.4622 67.2856 50.1813 67.7919 49.6812C68.2983 49.1811 68.5828 48.5028 68.5828 47.7956V14C68.5828 13.2928 68.2983 12.6145 67.7919 12.1144C67.2856 11.6143 66.5988 11.3333 65.8827 11.3333ZM56.9006 39.7778C57.5847 39.778 58.2432 40.0347 58.7431 40.4959C59.243 40.9572 59.5469 41.5886 59.5936 42.2627C59.6402 42.9368 59.426 43.6032 58.9943 44.1273C58.5626 44.6514 57.9455 44.9941 57.2678 45.0862L56.9006 45.1111H19.1002C18.4161 45.1109 17.7576 44.8542 17.2577 44.393C16.7579 43.9317 16.4539 43.3003 16.4073 42.6262C16.3606 41.9521 16.5748 41.2857 17.0065 40.7616C17.4382 40.2375 18.0553 39.8948 18.733 39.8027L19.1002 39.7778H56.9006ZM54.2006 27.3333C55.1554 27.3333 56.0711 27.7079 56.7462 28.3747C57.4214 29.0415 57.8006 29.9459 57.8006 30.8889C57.8006 31.8319 57.4214 32.7362 56.7462 33.403C56.0711 34.0698 55.1554 34.4444 54.2006 34.4444C53.2458 34.4444 52.3301 34.0698 51.655 33.403C50.9798 32.7362 50.6006 31.8319 50.6006 30.8889C50.6006 29.9459 50.9798 29.0415 51.655 28.3747C52.3301 27.7079 53.2458 27.3333 54.2006 27.3333ZM32.6184 27.3333C33.5731 27.3333 34.4888 27.7079 35.164 28.3747C35.8391 29.0415 36.2184 29.9459 36.2184 30.8889C36.2184 31.8319 35.8391 32.7362 35.164 33.403C34.4888 34.0698 33.5731 34.4444 32.6184 34.4444C31.6636 34.4444 30.7479 34.0698 30.0727 33.403C29.3976 32.7362 29.0183 31.8319 29.0183 30.8889C29.0183 29.9459 29.3976 29.0415 30.0727 28.3747C30.7479 27.7079 31.6636 27.3333 32.6184 27.3333ZM21.8182 27.3333C22.773 27.3333 23.6887 27.7079 24.3638 28.3747C25.039 29.0415 25.4183 29.9459 25.4183 30.8889C25.4183 31.8319 25.039 32.7362 24.3638 33.403C23.6887 34.0698 22.773 34.4444 21.8182 34.4444C20.8634 34.4444 19.9478 34.0698 19.2726 33.403C18.5975 32.7362 18.2182 31.8319 18.2182 30.8889C18.2182 29.9459 18.5975 29.0415 19.2726 28.3747C19.9478 27.7079 20.8634 27.3333 21.8182 27.3333ZM43.4185 27.3333C44.3733 27.3333 45.2889 27.7079 45.9641 28.3747C46.6392 29.0415 47.0185 29.9459 47.0185 30.8889C47.0185 31.8319 46.6392 32.7362 45.9641 33.403C45.2889 34.0698 44.3733 34.4444 43.4185 34.4444C42.4637 34.4444 41.548 34.0698 40.8729 33.403C40.1977 32.7362 39.8184 31.8319 39.8184 30.8889C39.8184 29.9459 40.1977 29.0415 40.8729 28.3747C41.548 27.7079 42.4637 27.3333 43.4185 27.3333ZM16.4002 16.6667C17.355 16.6667 18.2706 17.0413 18.9458 17.7081C19.6209 18.3749 20.0002 19.2792 20.0002 20.2222C20.0002 21.1652 19.6209 22.0696 18.9458 22.7364C18.2706 23.4032 17.355 23.7778 16.4002 23.7778C15.4454 23.7778 14.5297 23.4032 13.8546 22.7364C13.1794 22.0696 12.8001 21.1652 12.8001 20.2222C12.8001 19.2792 13.1794 18.3749 13.8546 17.7081C14.5297 17.0413 15.4454 16.6667 16.4002 16.6667ZM27.1823 16.6667C28.1371 16.6667 29.0528 17.0413 29.7279 17.7081C30.403 18.3749 30.7823 19.2792 30.7823 20.2222C30.7823 21.1652 30.403 22.0696 29.7279 22.7364C29.0528 23.4032 28.1371 23.7778 27.1823 23.7778C26.2275 23.7778 25.3118 23.4032 24.6367 22.7364C23.9615 22.0696 23.5822 21.1652 23.5822 20.2222C23.5822 19.2792 23.9615 18.3749 24.6367 17.7081C25.3118 17.0413 26.2275 16.6667 27.1823 16.6667ZM37.9824 16.6667C38.9372 16.6667 39.8529 17.0413 40.528 17.7081C41.2032 18.3749 41.5825 19.2792 41.5825 20.2222C41.5825 21.1652 41.2032 22.0696 40.528 22.7364C39.8529 23.4032 38.9372 23.7778 37.9824 23.7778C37.0276 23.7778 36.1119 23.4032 35.4368 22.7364C34.7617 22.0696 34.3824 21.1652 34.3824 20.2222C34.3824 19.2792 34.7617 18.3749 35.4368 17.7081C36.1119 17.0413 37.0276 16.6667 37.9824 16.6667ZM48.7825 16.6667C49.7373 16.6667 50.653 17.0413 51.3281 17.7081C52.0033 18.3749 52.3826 19.2792 52.3826 20.2222C52.3826 21.1652 52.0033 22.0696 51.3281 22.7364C50.653 23.4032 49.7373 23.7778 48.7825 23.7778C47.8277 23.7778 46.9121 23.4032 46.2369 22.7364C45.5618 22.0696 45.1825 21.1652 45.1825 20.2222C45.1825 19.2792 45.5618 18.3749 46.2369 17.7081C46.9121 17.0413 47.8277 16.6667 48.7825 16.6667ZM59.5827 16.6667C60.5375 16.6667 61.4531 17.0413 62.1283 17.7081C62.8034 18.3749 63.1827 19.2792 63.1827 20.2222C63.1827 21.1652 62.8034 22.0696 62.1283 22.7364C61.4531 23.4032 60.5375 23.7778 59.5827 23.7778C58.6279 23.7778 57.7122 23.4032 57.037 22.7364C56.3619 22.0696 55.9826 21.1652 55.9826 20.2222C55.9826 19.2792 56.3619 18.3749 57.037 17.7081C57.7122 17.0413 58.6279 16.6667 59.5827 16.6667Z" fill="black"/>
<rect x="16" y="39" width="44" height="7" rx="3.5" fill="#79CAFF"/>
</svg>
